<?xml version="1.0" standalone="no"?><!DOCTYPE svg PUBLIC "-//W3C//DTD SVG 1.1//EN" "http://www.w3.org/Graphics/SVG/1.1/DTD/svg11.dtd"><svg xmlns="http://www.w3.org/2000/svg" version="1.1" width="255px" height="28.2px" viewBox="0 -3 255 28.2" style="top:-3px">  <desc>TimeBank Wireframe Figma</desc>  <defs/>  <g id="Polygon9766">    <path d="M 0.3 0.8 L 8.3 0.8 L 8.3 2.5 L 5.3 2.5 L 5.3 10.8 L 3.3 10.8 L 3.3 2.5 L 0.3 2.5 L 0.3 0.8 Z M 9.2 3.6 L 11.1 3.6 L 11.1 10.8 L 9.2 10.8 L 9.2 3.6 Z M 9.2 0.8 L 11.1 0.8 L 11.1 2.5 L 9.2 2.5 L 9.2 0.8 Z M 12.3 3.6 L 14.1 3.6 L 14.1 4.6 C 14.1 4.6 14.18 4.58 14.2 4.6 C 14.6 3.9 15.3 3.4 16.3 3.4 C 17.2 3.4 17.9 3.9 18.3 4.7 C 18.3 4.7 18.3 4.7 18.3 4.7 C 18.8 3.9 19.5 3.4 20.4 3.4 C 22 3.4 22.8 4.4 22.8 6 C 22.81 5.96 22.8 10.8 22.8 10.8 L 20.9 10.8 C 20.9 10.8 20.9 6.29 20.9 6.3 C 20.9 5.5 20.5 5.1 19.8 5.1 C 19 5.1 18.5 5.7 18.5 6.6 C 18.51 6.62 18.5 10.8 18.5 10.8 L 16.6 10.8 C 16.6 10.8 16.6 6.29 16.6 6.3 C 16.6 5.5 16.2 5.1 15.5 5.1 C 14.7 5.1 14.2 5.7 14.2 6.6 C 14.21 6.62 14.2 10.8 14.2 10.8 L 12.3 10.8 L 12.3 3.6 Z M 23.6 7.2 C 23.6 5.1 25.1 3.4 27.2 3.4 C 29.5 3.4 30.7 5.2 30.7 7.7 C 30.7 7.7 25.5 7.7 25.5 7.7 C 25.6 8.8 26.3 9.5 27.3 9.5 C 28.1 9.5 28.5 9.2 28.7 8.7 C 28.7 8.7 30.6 8.7 30.6 8.7 C 30.3 9.9 29.2 11 27.4 11 C 25 11 23.6 9.3 23.6 7.2 Z M 25.5 6.4 C 25.5 6.4 28.7 6.4 28.7 6.4 C 28.7 5.5 28.1 4.9 27.2 4.9 C 26.2 4.9 25.7 5.5 25.5 6.4 Z M 31.8 0.8 C 31.8 0.8 36.23 0.78 36.2 0.8 C 37.3 0.8 38.1 1.1 38.7 1.5 C 39.2 2 39.5 2.6 39.5 3.4 C 39.5 4.4 38.8 5.1 37.9 5.4 C 37.9 5.4 37.9 5.4 37.9 5.4 C 39 5.8 39.7 6.7 39.7 7.9 C 39.7 8.8 39.5 9.5 38.9 10 C 38.3 10.5 37.4 10.8 36.3 10.8 C 36.34 10.79 31.8 10.8 31.8 10.8 L 31.8 0.8 Z M 33.8 9.1 C 33.8 9.1 36.12 9.11 36.1 9.1 C 37.1 9.1 37.7 8.6 37.7 7.8 C 37.7 6.8 37 6.3 36.1 6.3 C 36.06 6.31 33.8 6.3 33.8 6.3 L 33.8 9.1 Z M 36 4.8 C 36.9 4.8 37.5 4.4 37.5 3.6 C 37.5 2.9 36.9 2.4 36 2.4 C 36.02 2.44 33.8 2.4 33.8 2.4 L 33.8 4.8 C 33.8 4.8 35.98 4.82 36 4.8 Z M 45.1 10 C 45.1 10 45.1 10 45.1 10 C 44.7 10.5 44.2 11 42.9 11 C 41.5 11 40.4 10.2 40.4 8.8 C 40.4 7.2 41.7 6.7 43.3 6.5 C 44.5 6.3 45.1 6.2 45.1 5.6 C 45.1 5.1 44.6 4.8 43.8 4.8 C 43 4.8 42.5 5.1 42.5 5.8 C 42.5 5.8 40.8 5.8 40.8 5.8 C 40.8 4.5 41.8 3.4 43.9 3.4 C 46 3.4 46.9 4.4 46.9 6.1 C 46.9 6.1 46.9 9.7 46.9 9.7 C 46.9 10.3 47 10.6 47.1 10.7 C 47.14 10.72 47.1 10.8 47.1 10.8 C 47.1 10.8 45.3 10.79 45.3 10.8 C 45.2 10.7 45.1 10.3 45.1 10 Z M 45.1 8.3 C 45.1 8.3 45.1 7.2 45.1 7.2 C 44.8 7.4 44.2 7.5 43.8 7.6 C 42.8 7.8 42.3 8.1 42.3 8.7 C 42.3 9.4 42.7 9.6 43.4 9.6 C 44.5 9.6 45.1 9 45.1 8.3 Z M 50 4.6 C 50 4.6 49.99 4.59 50 4.6 C 50.5 3.8 51.1 3.4 52.1 3.4 C 53.6 3.4 54.6 4.5 54.6 6.1 C 54.6 6.1 54.6 10.8 54.6 10.8 L 52.7 10.8 C 52.7 10.8 52.7 6.38 52.7 6.4 C 52.7 5.6 52.2 5.1 51.4 5.1 C 50.6 5.1 50 5.7 50 6.7 C 49.99 6.72 50 10.8 50 10.8 L 48.1 10.8 L 48.1 3.6 L 50 3.6 L 50 4.6 Z M 58.5 7.5 L 57.7 8.4 L 57.7 10.8 L 55.8 10.8 L 55.8 0.8 L 57.7 0.8 L 57.7 6.3 L 60.2 3.6 L 62.5 3.6 L 59.8 6.3 L 62.8 10.8 L 60.5 10.8 L 58.5 7.5 Z M 65.2 0.8 L 67.3 0.8 C 67.3 0.8 68.6 5.75 68.6 5.8 C 68.8 6.61 69 7.9 69 7.9 L 69.1 7.9 C 69.1 7.9 69.31 6.69 69.5 5.8 C 69.52 5.81 70.6 0.8 70.6 0.8 L 72.6 0.8 C 72.6 0.8 73.67 5.8 73.7 5.8 C 73.88 6.68 74.1 7.9 74.1 7.9 L 74.2 7.9 C 74.2 7.9 74.45 6.61 74.6 5.7 C 74.65 5.74 75.9 0.8 75.9 0.8 L 77.9 0.8 L 75.1 10.8 L 73.2 10.8 C 73.2 10.8 71.95 5.43 71.9 5.4 C 71.78 4.7 71.6 3.7 71.6 3.7 L 71.6 3.7 C 71.6 3.7 71.41 4.7 71.2 5.4 C 71.25 5.43 70 10.8 70 10.8 L 68.1 10.8 L 65.2 0.8 Z M 78.6 3.6 L 80.5 3.6 L 80.5 10.8 L 78.6 10.8 L 78.6 3.6 Z M 78.6 0.8 L 80.5 0.8 L 80.5 2.5 L 78.6 2.5 L 78.6 0.8 Z M 83.6 4.8 C 83.6 4.8 83.61 4.76 83.6 4.8 C 84 3.9 84.5 3.5 85.4 3.5 C 85.6 3.5 85.7 3.5 85.8 3.6 C 85.82 3.58 85.8 5.3 85.8 5.3 C 85.8 5.3 85.78 5.25 85.8 5.3 C 84.5 5.1 83.6 5.8 83.6 7.3 C 83.63 7.29 83.6 10.8 83.6 10.8 L 81.7 10.8 L 81.7 3.6 L 83.6 3.6 L 83.6 4.8 Z M 86.1 7.2 C 86.1 5.1 87.5 3.4 89.6 3.4 C 91.9 3.4 93.2 5.2 93.2 7.7 C 93.2 7.7 88 7.7 88 7.7 C 88.1 8.8 88.7 9.5 89.8 9.5 C 90.5 9.5 91 9.2 91.2 8.7 C 91.2 8.7 93.1 8.7 93.1 8.7 C 92.8 9.9 91.7 11 89.8 11 C 87.4 11 86.1 9.3 86.1 7.2 Z M 88 6.4 C 88 6.4 91.2 6.4 91.2 6.4 C 91.1 5.5 90.5 4.9 89.7 4.9 C 88.6 4.9 88.2 5.5 88 6.4 Z M 93.5 3.6 L 94.5 3.6 C 94.5 3.6 94.47 2.97 94.5 3 C 94.5 1.2 95.8 0.6 97.7 0.8 C 97.7 0.8 97.7 2.3 97.7 2.3 C 96.8 2.2 96.4 2.3 96.4 3.1 C 96.37 3.08 96.4 3.6 96.4 3.6 L 97.7 3.6 L 97.7 4.9 L 96.4 4.9 L 96.4 10.8 L 94.5 10.8 L 94.5 4.9 L 93.5 4.9 L 93.5 3.6 Z M 100.4 4.8 C 100.4 4.8 100.41 4.76 100.4 4.8 C 100.8 3.9 101.3 3.5 102.2 3.5 C 102.4 3.5 102.5 3.5 102.6 3.6 C 102.62 3.58 102.6 5.3 102.6 5.3 C 102.6 5.3 102.58 5.25 102.6 5.3 C 101.3 5.1 100.4 5.8 100.4 7.3 C 100.43 7.29 100.4 10.8 100.4 10.8 L 98.5 10.8 L 98.5 3.6 L 100.4 3.6 L 100.4 4.8 Z M 107.5 10 C 107.5 10 107.5 10 107.5 10 C 107.1 10.5 106.6 11 105.4 11 C 103.9 11 102.9 10.2 102.9 8.8 C 102.9 7.2 104.2 6.7 105.8 6.5 C 107 6.3 107.5 6.2 107.5 5.6 C 107.5 5.1 107.1 4.8 106.3 4.8 C 105.4 4.8 105 5.1 104.9 5.8 C 104.9 5.8 103.2 5.8 103.2 5.8 C 103.3 4.5 104.2 3.4 106.3 3.4 C 108.5 3.4 109.3 4.4 109.3 6.1 C 109.3 6.1 109.3 9.7 109.3 9.7 C 109.3 10.3 109.4 10.6 109.6 10.7 C 109.59 10.72 109.6 10.8 109.6 10.8 C 109.6 10.8 107.76 10.79 107.8 10.8 C 107.6 10.7 107.6 10.3 107.5 10 Z M 107.5 8.3 C 107.5 8.3 107.5 7.2 107.5 7.2 C 107.2 7.4 106.7 7.5 106.2 7.6 C 105.2 7.8 104.7 8.1 104.7 8.7 C 104.7 9.4 105.2 9.6 105.9 9.6 C 106.9 9.6 107.5 9 107.5 8.3 Z M 110.5 3.6 L 112.4 3.6 L 112.4 4.6 C 112.4 4.6 112.42 4.58 112.4 4.6 C 112.8 3.9 113.5 3.4 114.5 3.4 C 115.4 3.4 116.1 3.9 116.5 4.7 C 116.5 4.7 116.5 4.7 116.5 4.7 C 117 3.9 117.8 3.4 118.7 3.4 C 120.2 3.4 121 4.4 121 6 C 121.04 5.96 121 10.8 121 10.8 L 119.1 10.8 C 119.1 10.8 119.14 6.29 119.1 6.3 C 119.1 5.5 118.7 5.1 118 5.1 C 117.2 5.1 116.7 5.7 116.7 6.6 C 116.74 6.62 116.7 10.8 116.7 10.8 L 114.8 10.8 C 114.8 10.8 114.84 6.29 114.8 6.3 C 114.8 5.5 114.4 5.1 113.7 5.1 C 113 5.1 112.4 5.7 112.4 6.6 C 112.45 6.62 112.4 10.8 112.4 10.8 L 110.5 10.8 L 110.5 3.6 Z M 121.9 7.2 C 121.9 5.1 123.3 3.4 125.4 3.4 C 127.7 3.4 129 5.2 129 7.7 C 129 7.7 123.7 7.7 123.7 7.7 C 123.9 8.8 124.5 9.5 125.6 9.5 C 126.3 9.5 126.8 9.2 127 8.7 C 127 8.7 128.8 8.7 128.8 8.7 C 128.6 9.9 127.4 11 125.6 11 C 123.2 11 121.9 9.3 121.9 7.2 Z M 123.8 6.4 C 123.8 6.4 127 6.4 127 6.4 C 126.9 5.5 126.3 4.9 125.4 4.9 C 124.4 4.9 123.9 5.5 123.8 6.4 Z M 132.5 0.2 L 133.6 0.2 L 133.6 12.6 L 132.5 12.6 L 132.5 0.2 Z M 137.6 0.8 L 144.8 0.8 L 144.8 2.5 L 139.7 2.5 L 139.7 4.9 L 144 4.9 L 144 6.6 L 139.7 6.6 L 139.7 10.8 L 137.6 10.8 L 137.6 0.8 Z M 145.8 3.6 L 147.7 3.6 L 147.7 10.8 L 145.8 10.8 L 145.8 3.6 Z M 145.8 0.8 L 147.7 0.8 L 147.7 2.5 L 145.8 2.5 L 145.8 0.8 Z M 148.7 11 C 148.7 11 150.6 11 150.6 11 C 150.8 11.5 151.2 11.8 152.1 11.8 C 153.1 11.8 153.7 11.3 153.7 10.3 C 153.66 10.3 153.7 9.5 153.7 9.5 C 153.7 9.5 153.62 9.52 153.6 9.5 C 153.2 10 152.7 10.4 151.7 10.4 C 150.1 10.4 148.6 9.1 148.6 6.9 C 148.6 4.8 149.9 3.4 151.7 3.4 C 152.6 3.4 153.2 3.8 153.7 4.4 C 153.68 4.37 153.7 4.4 153.7 4.4 L 153.7 3.6 L 155.5 3.6 C 155.5 3.6 155.54 10.25 155.5 10.2 C 155.5 11.3 155.2 11.9 154.7 12.4 C 154.1 13 153.2 13.2 152.1 13.2 C 150.1 13.2 148.9 12.4 148.7 11 Z M 153.8 6.9 C 153.8 5.8 153.2 4.9 152.1 4.9 C 151.1 4.9 150.4 5.7 150.4 6.9 C 150.4 8.1 151.1 8.8 152.1 8.8 C 153.3 8.8 153.8 8 153.8 6.9 Z M 156.8 3.6 L 158.6 3.6 L 158.6 4.6 C 158.6 4.6 158.65 4.58 158.6 4.6 C 159 3.9 159.7 3.4 160.7 3.4 C 161.6 3.4 162.4 3.9 162.7 4.7 C 162.7 4.7 162.7 4.7 162.7 4.7 C 163.2 3.9 164 3.4 164.9 3.4 C 166.4 3.4 167.3 4.4 167.3 6 C 167.27 5.96 167.3 10.8 167.3 10.8 L 165.4 10.8 C 165.4 10.8 165.37 6.29 165.4 6.3 C 165.4 5.5 165 5.1 164.3 5.1 C 163.5 5.1 163 5.7 163 6.6 C 162.97 6.62 163 10.8 163 10.8 L 161.1 10.8 C 161.1 10.8 161.07 6.29 161.1 6.3 C 161.1 5.5 160.7 5.1 160 5.1 C 159.2 5.1 158.7 5.7 158.7 6.6 C 158.67 6.62 158.7 10.8 158.7 10.8 L 156.8 10.8 L 156.8 3.6 Z M 172.7 10 C 172.7 10 172.7 10 172.7 10 C 172.4 10.5 171.8 11 170.6 11 C 169.1 11 168.1 10.2 168.1 8.8 C 168.1 7.2 169.4 6.7 171 6.5 C 172.2 6.3 172.7 6.2 172.7 5.6 C 172.7 5.1 172.3 4.8 171.5 4.8 C 170.6 4.8 170.2 5.1 170.1 5.8 C 170.1 5.8 168.4 5.8 168.4 5.8 C 168.5 4.5 169.4 3.4 171.5 3.4 C 173.7 3.4 174.5 4.4 174.5 6.1 C 174.5 6.1 174.5 9.7 174.5 9.7 C 174.5 10.3 174.6 10.6 174.8 10.7 C 174.8 10.72 174.8 10.8 174.8 10.8 C 174.8 10.8 172.97 10.79 173 10.8 C 172.9 10.7 172.8 10.3 172.7 10 Z M 172.8 8.3 C 172.8 8.3 172.8 7.2 172.8 7.2 C 172.4 7.4 171.9 7.5 171.4 7.6 C 170.4 7.8 169.9 8.1 169.9 8.7 C 169.9 9.4 170.4 9.6 171.1 9.6 C 172.2 9.6 172.8 9 172.8 8.3 Z " stroke="none" fill="#000"/>  </g></svg>