<?xml version="1.0" standalone="no"?><!DOCTYPE svg PUBLIC "-//W3C//DTD SVG 1.1//EN" "http://www.w3.org/Graphics/SVG/1.1/DTD/svg11.dtd"><svg xmlns="http://www.w3.org/2000/svg" version="1.1" width="102px" height="28.1px" viewBox="0 -3 102 28.1" style="top:-3px">  <desc>Initial Prototype</desc>  <defs/>  <g id="Polygon2991">    <path d="M 1 0.8 L 2.2 0.8 L 2.2 10.8 L 1 10.8 L 1 0.8 Z M 5.1 4.6 C 5.1 4.6 5.12 4.56 5.1 4.6 C 5.6 3.9 6.4 3.4 7.4 3.4 C 8.9 3.4 9.9 4.3 9.9 5.8 C 9.86 5.77 9.9 10.8 9.9 10.8 L 8.7 10.8 C 8.7 10.8 8.72 5.87 8.7 5.9 C 8.7 4.9 8.1 4.4 7.1 4.4 C 5.9 4.4 5.1 5.2 5.1 6.4 C 5.1 6.4 5.1 10.8 5.1 10.8 L 4 10.8 L 4 3.6 L 5.1 3.6 L 5.1 4.6 Z M 11.4 3.6 L 12.5 3.6 L 12.5 10.8 L 11.4 10.8 L 11.4 3.6 Z M 11.4 0.8 L 12.5 0.8 L 12.5 2.2 L 11.4 2.2 L 11.4 0.8 Z M 13.6 3.6 L 14.6 3.6 L 14.6 1.3 L 15.7 1.3 L 15.7 3.6 L 17.1 3.6 L 17.1 4.5 L 15.7 4.5 C 15.7 4.5 15.75 9.24 15.7 9.2 C 15.7 9.7 16 9.9 16.5 9.9 C 16.7 9.9 17 9.9 17.1 9.8 C 17.08 9.81 17.1 9.8 17.1 9.8 C 17.1 9.8 17.12 10.79 17.1 10.8 C 16.9 10.8 16.5 10.9 16.2 10.9 C 15.3 10.9 14.6 10.5 14.6 9.5 C 14.62 9.49 14.6 4.5 14.6 4.5 L 13.6 4.5 L 13.6 3.6 Z M 18.3 3.6 L 19.5 3.6 L 19.5 10.8 L 18.3 10.8 L 18.3 3.6 Z M 18.3 0.8 L 19.5 0.8 L 19.5 2.2 L 18.3 2.2 L 18.3 0.8 Z M 25.4 9.8 C 25.4 9.8 25.4 9.8 25.4 9.8 C 25 10.4 24.2 11 23 11 C 21.6 11 20.6 10.3 20.6 9 C 20.6 7.3 21.9 6.9 23.7 6.6 C 24.7 6.5 25.5 6.4 25.5 5.6 C 25.5 4.8 24.9 4.3 23.8 4.3 C 22.7 4.3 22.1 4.8 22 5.9 C 22 5.9 20.9 5.9 20.9 5.9 C 21 4.5 21.9 3.5 23.8 3.5 C 25.4 3.5 26.5 4 26.5 5.8 C 26.5 5.8 26.5 9.2 26.5 9.2 C 26.5 9.8 26.6 10.1 27.3 10 C 27.26 9.98 27.3 10 27.3 10 C 27.3 10 27.3 10.81 27.3 10.8 C 27.2 10.9 27 10.9 26.7 10.9 C 25.9 10.9 25.6 10.6 25.4 9.8 Z M 25.5 8.2 C 25.5 8.2 25.5 6.9 25.5 6.9 C 25.1 7.2 24.4 7.4 23.8 7.5 C 22.7 7.7 21.8 7.9 21.8 8.9 C 21.8 9.9 22.5 10.1 23.3 10.1 C 24.8 10.1 25.5 9 25.5 8.2 Z M 28.2 0.8 L 29.3 0.8 L 29.3 10.8 L 28.2 10.8 L 28.2 0.8 Z M 33.3 0.8 C 33.3 0.8 37.46 0.83 37.5 0.8 C 38.5 0.8 39.3 1.2 39.8 1.8 C 40.3 2.3 40.5 2.9 40.5 3.7 C 40.5 5.5 39.5 6.6 37.3 6.6 C 37.28 6.65 34.6 6.6 34.6 6.6 L 34.6 10.8 L 33.3 10.8 L 33.3 0.8 Z M 34.6 5.6 C 34.6 5.6 37.18 5.63 37.2 5.6 C 38.6 5.6 39.3 4.9 39.3 3.8 C 39.3 2.5 38.5 1.9 37.3 1.9 C 37.25 1.92 34.6 1.9 34.6 1.9 L 34.6 5.6 Z M 42.7 4.8 C 42.7 4.8 42.73 4.82 42.7 4.8 C 43.2 4.1 43.9 3.5 44.9 3.5 C 45.1 3.5 45.2 3.6 45.3 3.6 C 45.34 3.61 45.3 4.7 45.3 4.7 C 45.3 4.7 45.3 4.7 45.3 4.7 C 45.1 4.6 45 4.6 44.8 4.6 C 43.7 4.6 42.7 5.5 42.7 6.8 C 42.7 6.83 42.7 10.8 42.7 10.8 L 41.6 10.8 L 41.6 3.6 L 42.7 3.6 L 42.7 4.8 Z M 45.7 7.2 C 45.7 5.1 47 3.4 49.2 3.4 C 51.4 3.4 52.7 5.1 52.7 7.2 C 52.7 9.3 51.4 11 49.2 11 C 47 11 45.7 9.3 45.7 7.2 Z M 51.5 7.2 C 51.5 5.6 50.7 4.4 49.2 4.4 C 47.6 4.4 46.8 5.6 46.8 7.2 C 46.8 8.8 47.6 10.1 49.2 10.1 C 50.7 10.1 51.5 8.8 51.5 7.2 Z M 53.2 3.6 L 54.3 3.6 L 54.3 1.3 L 55.4 1.3 L 55.4 3.6 L 56.8 3.6 L 56.8 4.5 L 55.4 4.5 C 55.4 4.5 55.38 9.24 55.4 9.2 C 55.4 9.7 55.6 9.9 56.1 9.9 C 56.3 9.9 56.6 9.9 56.7 9.8 C 56.71 9.81 56.8 9.8 56.8 9.8 C 56.8 9.8 56.75 10.79 56.8 10.8 C 56.5 10.8 56.2 10.9 55.8 10.9 C 54.9 10.9 54.3 10.5 54.3 9.5 C 54.25 9.49 54.3 4.5 54.3 4.5 L 53.2 4.5 L 53.2 3.6 Z M 57.5 7.2 C 57.5 5.1 58.8 3.4 61 3.4 C 63.2 3.4 64.5 5.1 64.5 7.2 C 64.5 9.3 63.2 11 61 11 C 58.8 11 57.5 9.3 57.5 7.2 Z M 63.3 7.2 C 63.3 5.6 62.5 4.4 61 4.4 C 59.4 4.4 58.6 5.6 58.6 7.2 C 58.6 8.8 59.4 10.1 61 10.1 C 62.5 10.1 63.3 8.8 63.3 7.2 Z M 65 3.6 L 66.1 3.6 L 66.1 1.3 L 67.2 1.3 L 67.2 3.6 L 68.6 3.6 L 68.6 4.5 L 67.2 4.5 C 67.2 4.5 67.18 9.24 67.2 9.2 C 67.2 9.7 67.5 9.9 67.9 9.9 C 68.1 9.9 68.4 9.9 68.5 9.8 C 68.51 9.81 68.6 9.8 68.6 9.8 C 68.6 9.8 68.56 10.79 68.6 10.8 C 68.3 10.8 68 10.9 67.6 10.9 C 66.7 10.9 66.1 10.5 66.1 9.5 C 66.05 9.49 66.1 4.5 66.1 4.5 L 65 4.5 L 65 3.6 Z M 69.7 13.1 C 69.66 13.09 69.7 12.1 69.7 12.1 C 69.7 12.1 69.72 12.08 69.7 12.1 C 69.9 12.2 70.1 12.2 70.5 12.2 C 71 12.2 71.3 12.1 71.6 11.4 C 71.57 11.35 71.8 10.6 71.8 10.6 L 69 3.6 L 70.3 3.6 C 70.3 3.6 71.96 8.12 72 8.1 C 72.18 8.72 72.4 9.5 72.4 9.5 L 72.5 9.5 C 72.5 9.5 72.73 8.72 73 8.1 C 72.95 8.12 74.6 3.6 74.6 3.6 L 75.8 3.6 C 75.8 3.6 72.72 11.44 72.7 11.4 C 72.1 12.9 71.6 13.2 70.7 13.2 C 70.3 13.2 70 13.2 69.7 13.1 Z M 76.6 3.6 L 77.7 3.6 L 77.7 4.6 C 77.7 4.6 77.77 4.63 77.8 4.6 C 78.3 3.9 79 3.4 80.1 3.4 C 81.9 3.4 83.2 4.8 83.2 7.3 C 83.2 9.6 82 11.1 80.1 11.1 C 79.1 11.1 78.4 10.8 77.8 10 C 77.77 10 77.7 10 77.7 10 L 77.7 13.2 L 76.6 13.2 L 76.6 3.6 Z M 82 7.3 C 82 5.6 81.4 4.4 80 4.4 C 78.4 4.4 77.7 5.7 77.7 7.3 C 77.7 8.8 78.3 10.1 80 10.1 C 81.4 10.1 82 8.9 82 7.3 Z M 83.9 7.2 C 83.9 5.1 85.3 3.4 87.4 3.4 C 89.5 3.4 90.7 5.1 90.7 7.5 C 90.7 7.5 85.1 7.5 85.1 7.5 C 85.2 9 86 10.1 87.4 10.1 C 88.5 10.1 89.2 9.6 89.4 8.6 C 89.4 8.6 90.5 8.6 90.5 8.6 C 90.2 10.2 89.1 11 87.4 11 C 85.2 11 83.9 9.3 83.9 7.2 Z M 85.1 6.7 C 85.1 6.7 89.5 6.7 89.5 6.7 C 89.4 5.2 88.7 4.3 87.4 4.3 C 86 4.3 85.3 5.3 85.1 6.7 Z " stroke="none" fill="#fff"/>  </g></svg>