<?xml version="1.0" standalone="no"?><!DOCTYPE svg PUBLIC "-//W3C//DTD SVG 1.1//EN" "http://www.w3.org/Graphics/SVG/1.1/DTD/svg11.dtd"><svg xmlns="http://www.w3.org/2000/svg" version="1.1" width="433px" height="33.1px" viewBox="0 -5 433 33.1" style="top:-5px">  <desc>DESIGN CHALLENGE FINAL PRODUCT</desc>  <defs/>  <g id="Polygon2446">    <path d="M 220.1 0.5 L 222.3 0.5 L 222.3 20.1 L 220.1 20.1 L 220.1 0.5 Z M 228.4 1.3 L 239.1 1.3 L 239.1 3.1 L 230.4 3.1 L 230.4 8 L 237.6 8 L 237.6 9.6 L 230.4 9.6 L 230.4 17 L 228.4 17 L 228.4 1.3 Z M 241.2 1.3 L 243.1 1.3 L 243.1 17 L 241.2 17 L 241.2 1.3 Z M 246.1 1.3 L 248.2 1.3 C 248.2 1.3 255.39 12.25 255.4 12.3 C 255.92 13.07 256.5 14.3 256.5 14.3 L 256.6 14.3 L 256.6 1.3 L 258.4 1.3 L 258.4 17 L 256.4 17 C 256.4 17 249.19 6.09 249.2 6.1 C 248.68 5.32 248 4.1 248 4.1 L 248 4.1 L 248 17 L 246.1 17 L 246.1 1.3 Z M 265.9 1.3 L 268.1 1.3 L 273.9 17 L 271.8 17 L 270.1 12.3 L 263.8 12.3 L 262.1 17 L 260.1 17 L 265.9 1.3 Z M 264.4 10.6 L 269.6 10.6 C 269.6 10.6 267.76 5.37 267.8 5.4 C 267.45 4.49 267.1 3.1 267.1 3.1 L 267 3.1 C 267 3.1 266.59 4.47 266.3 5.4 C 266.28 5.37 264.4 10.6 264.4 10.6 Z M 275.6 1.3 L 277.6 1.3 L 277.6 15.2 L 285.9 15.2 L 285.9 17 L 275.6 17 L 275.6 1.3 Z M 291.3 1.3 C 291.3 1.3 297.88 1.32 297.9 1.3 C 299.5 1.3 300.8 1.9 301.6 2.8 C 302.3 3.6 302.7 4.6 302.7 5.8 C 302.7 8.7 301 10.4 297.6 10.4 C 297.59 10.45 293.3 10.4 293.3 10.4 L 293.3 17 L 291.3 17 L 291.3 1.3 Z M 293.3 8.8 C 293.3 8.8 297.44 8.84 297.4 8.8 C 299.7 8.8 300.7 7.7 300.7 5.9 C 300.7 4 299.5 3 297.5 3 C 297.55 3.04 293.3 3 293.3 3 L 293.3 8.8 Z M 304.6 1.3 C 304.6 1.3 311.93 1.32 311.9 1.3 C 314.7 1.3 316.6 3.1 316.6 5.6 C 316.6 7.5 315.7 8.9 313.8 9.5 C 313.8 9.5 313.8 9.6 313.8 9.6 C 315.5 10.2 316 11.3 316.1 13.6 C 316.3 16.1 316.6 16.8 316.8 17 C 316.84 16.96 316.8 17 316.8 17 C 316.8 17 314.71 17.05 314.7 17 C 314.4 16.8 314.3 16.2 314.1 13.5 C 314 11.2 313.1 10.4 310.9 10.4 C 310.94 10.41 306.6 10.4 306.6 10.4 L 306.6 17 L 304.6 17 L 304.6 1.3 Z M 306.6 8.8 C 306.6 8.8 311.23 8.8 311.2 8.8 C 313.4 8.8 314.5 7.7 314.5 5.9 C 314.5 4 313.6 3 311.3 3 C 311.34 3.04 306.6 3 306.6 3 L 306.6 8.8 Z M 318.4 9.2 C 318.4 4.5 321.3 1 326.1 1 C 330.8 1 333.8 4.5 333.8 9.2 C 333.8 13.9 330.8 17.4 326.1 17.4 C 321.3 17.4 318.4 13.9 318.4 9.2 Z M 331.8 9.2 C 331.8 5.5 329.8 2.7 326.1 2.7 C 322.4 2.7 320.4 5.5 320.4 9.2 C 320.4 12.9 322.4 15.6 326.1 15.6 C 329.8 15.6 331.8 12.9 331.8 9.2 Z M 336.1 1.3 C 336.1 1.3 341.85 1.32 341.9 1.3 C 346.6 1.3 348.8 4.5 348.8 9.2 C 348.8 13.9 346.4 17 341.7 17 C 341.7 17.05 336.1 17 336.1 17 L 336.1 1.3 Z M 341.6 15.3 C 345.3 15.3 346.8 12.9 346.8 9.2 C 346.8 5.5 345.5 3 341.8 3 C 341.79 3.04 338.1 3 338.1 3 L 338.1 15.3 C 338.1 15.3 341.63 15.31 341.6 15.3 Z M 350.9 12 C 350.92 11.97 350.9 1.3 350.9 1.3 L 352.9 1.3 C 352.9 1.3 352.9 11.77 352.9 11.8 C 352.9 14.5 354.4 15.6 357 15.6 C 359.5 15.6 361 14.5 361 11.8 C 360.99 11.77 361 1.3 361 1.3 L 363 1.3 C 363 1.3 362.97 11.97 363 12 C 363 15.8 360.3 17.3 356.9 17.3 C 353.5 17.3 350.9 15.8 350.9 12 Z M 365.1 9.2 C 365.1 4.6 367.8 1 372.5 1 C 376.2 1 378.4 3.1 378.8 6 C 378.8 6 376.9 6 376.9 6 C 376.5 4 375 2.7 372.5 2.7 C 369 2.7 367.1 5.5 367.1 9.2 C 367.1 13 369.2 15.6 372.5 15.6 C 375.5 15.6 376.9 13.6 377.1 11.3 C 377.1 11.3 379 11.3 379 11.3 C 379 12.8 378.3 14.6 377.1 15.7 C 376 16.8 374.4 17.4 372.4 17.4 C 368 17.4 365.1 13.9 365.1 9.2 Z M 379.7 1.3 L 392.2 1.3 L 392.2 3.1 L 386.9 3.1 L 386.9 17 L 385 17 L 385 3.1 L 379.7 3.1 L 379.7 1.3 Z " stroke="none" fill="#000"/>  </g>  <g id="Polygon2445">    <path d="M 7.3 13.8 C 9.8 13.8 11.1 12.2 11.1 9.3 C 11.1 6.4 9.7 4.6 7.3 4.6 C 7.3 4.58 5 4.6 5 4.6 L 5 13.8 C 5 13.8 7.26 13.77 7.3 13.8 Z M 1.1 1.3 C 1.1 1.3 7.79 1.32 7.8 1.3 C 12.1 1.3 15.1 4.5 15.1 9.3 C 15.1 12.1 14.1 14.3 12.3 15.6 C 11.1 16.5 9.5 17 7.5 17 C 7.55 17.05 1.1 17 1.1 17 L 1.1 1.3 Z M 16.6 1.3 L 28.5 1.3 L 28.5 4.5 L 20.5 4.5 L 20.5 7.3 L 27.4 7.3 L 27.4 10.4 L 20.5 10.4 L 20.5 13.7 L 28.6 13.7 L 28.6 17 L 16.6 17 L 16.6 1.3 Z M 29.5 12.1 C 29.5 12.1 33.5 12.1 33.5 12.1 C 33.6 13.7 34.7 14.3 36.5 14.3 C 37.8 14.3 39.1 13.9 39.1 12.7 C 39.1 11.4 37.8 11.2 35.6 10.6 C 32.9 10 30 9.2 30 5.9 C 30 2.5 32.8 1 36.3 1 C 39.7 1 42.3 2.6 42.5 5.9 C 42.5 5.9 38.7 5.9 38.7 5.9 C 38.5 4.7 37.6 4 36.1 4 C 34.8 4 33.9 4.6 33.9 5.5 C 33.9 6.6 35.1 6.8 37.4 7.3 C 40.4 8 43 8.9 43 12.3 C 43 15.6 40.2 17.4 36.6 17.4 C 32.4 17.4 29.6 15.6 29.5 12.1 Z M 44.6 1.3 L 48.5 1.3 L 48.5 17 L 44.6 17 L 44.6 1.3 Z M 52.2 15.2 C 50.8 13.7 50 11.6 50 9.2 C 50 6.8 50.9 4.6 52.4 3.1 C 53.7 1.8 55.5 1 57.8 1 C 61.8 1 64.2 3.2 64.7 6.5 C 64.7 6.5 61 6.5 61 6.5 C 60.7 5.2 59.6 4.2 57.9 4.2 C 55.3 4.2 54 6.4 54 9.2 C 54 12.1 55.5 14.3 58 14.3 C 60 14.3 61.2 12.9 61.4 11.5 C 61.38 11.51 61.4 11.5 61.4 11.5 L 58.4 11.5 L 58.4 8.6 L 65 8.6 L 65 17 L 62.3 17 L 62 15.2 C 62 15.2 62 15.16 62 15.2 C 61 16.8 59.4 17.4 57.5 17.4 C 55.3 17.4 53.5 16.6 52.2 15.2 Z M 66.9 1.3 L 70.8 1.3 C 70.8 1.3 75.46 9.22 75.5 9.2 C 75.7 9.66 76.5 11.2 76.5 11.2 L 76.6 11.2 C 76.6 11.2 76.54 9.33 76.5 8.8 C 76.54 8.78 76.5 1.3 76.5 1.3 L 80.3 1.3 L 80.3 17 L 76.4 17 C 76.4 17 71.81 9.26 71.8 9.3 C 71.54 8.84 70.7 7.1 70.7 7.1 L 70.6 7.1 C 70.6 7.1 70.69 9.17 70.7 9.7 C 70.69 9.72 70.7 17 70.7 17 L 66.9 17 L 66.9 1.3 Z M 85.3 9.2 C 85.3 4.6 88.3 1 93 1 C 94.8 1 96.4 1.5 97.5 2.4 C 98.9 3.4 99.7 5 99.9 6.7 C 99.9 6.7 96 6.7 96 6.7 C 95.8 5.3 94.7 4.2 93 4.2 C 90.4 4.2 89.2 6.4 89.2 9.2 C 89.2 12.1 90.7 14.2 93 14.2 C 94.8 14.2 95.9 13.1 96.1 11.6 C 96.1 11.6 100 11.6 100 11.6 C 99.9 13.2 99.2 14.6 98.1 15.6 C 96.9 16.8 95.3 17.4 93 17.4 C 88.4 17.4 85.3 13.9 85.3 9.2 Z M 101.4 1.3 L 105.2 1.3 L 105.2 7.3 L 110.8 7.3 L 110.8 1.3 L 114.7 1.3 L 114.7 17 L 110.8 17 L 110.8 10.5 L 105.2 10.5 L 105.2 17 L 101.4 17 L 101.4 1.3 Z M 121.4 1.3 L 125.4 1.3 L 131.1 17 L 127 17 L 126 14.2 L 120.5 14.2 L 119.6 17 L 115.7 17 L 121.4 1.3 Z M 125.1 11.4 C 125.1 11.4 123.95 7.61 123.9 7.6 C 123.68 6.8 123.3 5.4 123.3 5.4 L 123.3 5.4 C 123.3 5.4 122.91 6.8 122.6 7.6 C 122.65 7.61 121.4 11.4 121.4 11.4 L 125.1 11.4 Z M 132.2 1.3 L 136 1.3 L 136 13.7 L 143.1 13.7 L 143.1 17 L 132.2 17 L 132.2 1.3 Z M 144.6 1.3 L 148.5 1.3 L 148.5 13.7 L 155.5 13.7 L 155.5 17 L 144.6 17 L 144.6 1.3 Z M 157 1.3 L 168.9 1.3 L 168.9 4.5 L 160.9 4.5 L 160.9 7.3 L 167.8 7.3 L 167.8 10.4 L 160.9 10.4 L 160.9 13.7 L 169.1 13.7 L 169.1 17 L 157 17 L 157 1.3 Z M 170.8 1.3 L 174.7 1.3 C 174.7 1.3 179.41 9.22 179.4 9.2 C 179.65 9.66 180.5 11.2 180.5 11.2 L 180.5 11.2 C 180.5 11.2 180.49 9.33 180.5 8.8 C 180.49 8.78 180.5 1.3 180.5 1.3 L 184.3 1.3 L 184.3 17 L 180.4 17 C 180.4 17 175.76 9.26 175.8 9.3 C 175.49 8.84 174.6 7.1 174.6 7.1 L 174.6 7.1 C 174.6 7.1 174.63 9.17 174.6 9.7 C 174.63 9.72 174.6 17 174.6 17 L 170.8 17 L 170.8 1.3 Z M 187.9 15.2 C 186.6 13.7 185.8 11.6 185.8 9.2 C 185.8 6.8 186.7 4.6 188.2 3.1 C 189.5 1.8 191.3 1 193.6 1 C 197.6 1 200 3.2 200.5 6.5 C 200.5 6.5 196.7 6.5 196.7 6.5 C 196.5 5.2 195.4 4.2 193.7 4.2 C 191.1 4.2 189.8 6.4 189.8 9.2 C 189.8 12.1 191.3 14.3 193.8 14.3 C 195.8 14.3 197 12.9 197.2 11.5 C 197.16 11.51 197.2 11.5 197.2 11.5 L 194.2 11.5 L 194.2 8.6 L 200.8 8.6 L 200.8 17 L 198 17 L 197.8 15.2 C 197.8 15.2 197.78 15.16 197.8 15.2 C 196.7 16.8 195.2 17.4 193.3 17.4 C 191.1 17.4 189.2 16.6 187.9 15.2 Z M 202.7 1.3 L 214.6 1.3 L 214.6 4.5 L 206.6 4.5 L 206.6 7.3 L 213.4 7.3 L 213.4 10.4 L 206.6 10.4 L 206.6 13.7 L 214.7 13.7 L 214.7 17 L 202.7 17 L 202.7 1.3 Z " stroke="none" fill="#d12229"/>  </g></svg>