<?xml version="1.0" standalone="no"?><!DOCTYPE svg PUBLIC "-//W3C//DTD SVG 1.1//EN" "http://www.w3.org/Graphics/SVG/1.1/DTD/svg11.dtd"><svg xmlns="http://www.w3.org/2000/svg" version="1.1" width="433px" height="33.1px" viewBox="0 -5 433 33.1" style="top:-5px">  <desc>DESIGN CHALLENGE COLOR BLASTER</desc>  <defs/>  <g id="Polygon8743">    <path d="M 220.1 0.5 L 222.3 0.5 L 222.3 20.1 L 220.1 20.1 L 220.1 0.5 Z M 227.8 9.2 C 227.8 4.6 230.6 1 235.3 1 C 238.9 1 241.2 3.1 241.6 6 C 241.6 6 239.6 6 239.6 6 C 239.3 4 237.7 2.7 235.2 2.7 C 231.8 2.7 229.8 5.5 229.8 9.2 C 229.8 13 232 15.6 235.2 15.6 C 238.2 15.6 239.6 13.6 239.8 11.3 C 239.8 11.3 241.8 11.3 241.8 11.3 C 241.8 12.8 241 14.6 239.9 15.7 C 238.8 16.8 237.2 17.4 235.2 17.4 C 230.7 17.4 227.8 13.9 227.8 9.2 Z M 243.4 9.2 C 243.4 4.5 246.4 1 251.1 1 C 255.9 1 258.8 4.5 258.8 9.2 C 258.8 13.9 255.9 17.4 251.1 17.4 C 246.4 17.4 243.4 13.9 243.4 9.2 Z M 256.8 9.2 C 256.8 5.5 254.8 2.7 251.1 2.7 C 247.4 2.7 245.4 5.5 245.4 9.2 C 245.4 12.9 247.4 15.6 251.1 15.6 C 254.8 15.6 256.8 12.9 256.8 9.2 Z M 261.2 1.3 L 263.1 1.3 L 263.1 15.2 L 271.4 15.2 L 271.4 17 L 261.2 17 L 261.2 1.3 Z M 271.8 9.2 C 271.8 4.5 274.7 1 279.5 1 C 284.2 1 287.2 4.5 287.2 9.2 C 287.2 13.9 284.2 17.4 279.5 17.4 C 274.7 17.4 271.8 13.9 271.8 9.2 Z M 285.1 9.2 C 285.1 5.5 283.2 2.7 279.5 2.7 C 275.8 2.7 273.8 5.5 273.8 9.2 C 273.8 12.9 275.8 15.6 279.5 15.6 C 283.2 15.6 285.1 12.9 285.1 9.2 Z M 289.5 1.3 C 289.5 1.3 296.86 1.32 296.9 1.3 C 299.6 1.3 301.5 3.1 301.5 5.6 C 301.5 7.5 300.7 8.9 298.8 9.5 C 298.8 9.5 298.8 9.6 298.8 9.6 C 300.4 10.2 300.9 11.3 301 13.6 C 301.2 16.1 301.5 16.8 301.8 17 C 301.77 16.96 301.8 17 301.8 17 C 301.8 17 299.64 17.05 299.6 17 C 299.3 16.8 299.2 16.2 299.1 13.5 C 298.9 11.2 298 10.4 295.9 10.4 C 295.87 10.41 291.5 10.4 291.5 10.4 L 291.5 17 L 289.5 17 L 289.5 1.3 Z M 291.5 8.8 C 291.5 8.8 296.16 8.8 296.2 8.8 C 298.4 8.8 299.5 7.7 299.5 5.9 C 299.5 4 298.6 3 296.3 3 C 296.27 3.04 291.5 3 291.5 3 L 291.5 8.8 Z M 307.4 1.3 C 307.4 1.3 314.07 1.32 314.1 1.3 C 315.7 1.3 317 1.8 317.9 2.7 C 318.5 3.3 318.9 4.2 318.9 5.4 C 318.9 7.1 317.9 8.2 316.3 8.7 C 316.3 8.7 316.3 8.7 316.3 8.7 C 318.1 9.2 319.5 10.4 319.5 12.5 C 319.5 13.7 319.1 14.8 318.4 15.6 C 317.5 16.5 316.1 17 314.4 17 C 314.42 17.05 307.4 17 307.4 17 L 307.4 1.3 Z M 314.3 15.3 C 315.5 15.3 316.3 15 316.8 14.5 C 317.2 14 317.5 13.4 317.5 12.6 C 317.5 10.7 316.1 9.7 314.2 9.7 C 314.2 9.72 309.4 9.7 309.4 9.7 L 309.4 15.3 C 309.4 15.3 314.33 15.27 314.3 15.3 Z M 313.8 8.1 C 315.7 8.1 316.9 7.1 316.9 5.5 C 316.9 4 315.9 3 314.1 3 C 314.09 3.04 309.4 3 309.4 3 L 309.4 8.1 C 309.4 8.1 313.83 8.05 313.8 8.1 Z M 321.6 1.3 L 323.6 1.3 L 323.6 15.2 L 331.8 15.2 L 331.8 17 L 321.6 17 L 321.6 1.3 Z M 338.3 1.3 L 340.5 1.3 L 346.3 17 L 344.2 17 L 342.5 12.3 L 336.2 12.3 L 334.5 17 L 332.5 17 L 338.3 1.3 Z M 336.8 10.6 L 341.9 10.6 C 341.9 10.6 340.14 5.37 340.1 5.4 C 339.83 4.49 339.4 3.1 339.4 3.1 L 339.4 3.1 C 339.4 3.1 338.97 4.47 338.7 5.4 C 338.66 5.37 336.8 10.6 336.8 10.6 Z M 346.8 11.7 C 346.8 11.7 348.7 11.7 348.7 11.7 C 349 14.4 350.6 15.8 353.6 15.8 C 355.8 15.8 357.3 14.8 357.3 12.8 C 357.3 10.7 355.5 10.2 352.6 9.5 C 349.9 8.9 347.5 8.1 347.5 5.2 C 347.5 2.6 349.6 1 352.8 1 C 356.8 1 358.4 3 358.8 5.9 C 358.8 5.9 356.9 5.9 356.9 5.9 C 356.6 3.7 355.2 2.6 352.9 2.6 C 350.7 2.6 349.3 3.5 349.3 5.1 C 349.3 6.9 351.1 7.4 353.4 7.9 C 356.5 8.5 359.3 9.2 359.3 12.8 C 359.3 15.7 356.9 17.4 353.5 17.4 C 349.1 17.4 347 14.9 346.8 11.7 Z M 359.8 1.3 L 372.3 1.3 L 372.3 3.1 L 367 3.1 L 367 17 L 365 17 L 365 3.1 L 359.8 3.1 L 359.8 1.3 Z M 374.2 1.3 L 385.3 1.3 L 385.3 3.1 L 376.2 3.1 L 376.2 8 L 384.5 8 L 384.5 9.7 L 376.2 9.7 L 376.2 15.2 L 385.6 15.2 L 385.6 17 L 374.2 17 L 374.2 1.3 Z M 387.9 1.3 C 387.9 1.3 395.25 1.32 395.2 1.3 C 398 1.3 399.9 3.1 399.9 5.6 C 399.9 7.5 399.1 8.9 397.2 9.5 C 397.2 9.5 397.2 9.6 397.2 9.6 C 398.8 10.2 399.3 11.3 399.4 13.6 C 399.6 16.1 399.9 16.8 400.2 17 C 400.15 16.96 400.2 17 400.2 17 C 400.2 17 398.02 17.05 398 17 C 397.7 16.8 397.6 16.2 397.4 13.5 C 397.3 11.2 396.4 10.4 394.3 10.4 C 394.26 10.41 389.9 10.4 389.9 10.4 L 389.9 17 L 387.9 17 L 387.9 1.3 Z M 389.9 8.8 C 389.9 8.8 394.54 8.8 394.5 8.8 C 396.7 8.8 397.8 7.7 397.8 5.9 C 397.8 4 397 3 394.7 3 C 394.65 3.04 389.9 3 389.9 3 L 389.9 8.8 Z " stroke="none" fill="#000"/>  </g>  <g id="Polygon8742">    <path d="M 7.3 13.8 C 9.8 13.8 11.1 12.2 11.1 9.3 C 11.1 6.4 9.7 4.6 7.3 4.6 C 7.3 4.58 5 4.6 5 4.6 L 5 13.8 C 5 13.8 7.26 13.77 7.3 13.8 Z M 1.1 1.3 C 1.1 1.3 7.79 1.32 7.8 1.3 C 12.1 1.3 15.1 4.5 15.1 9.3 C 15.1 12.1 14.1 14.3 12.3 15.6 C 11.1 16.5 9.5 17 7.5 17 C 7.55 17.05 1.1 17 1.1 17 L 1.1 1.3 Z M 16.6 1.3 L 28.5 1.3 L 28.5 4.5 L 20.5 4.5 L 20.5 7.3 L 27.4 7.3 L 27.4 10.4 L 20.5 10.4 L 20.5 13.7 L 28.6 13.7 L 28.6 17 L 16.6 17 L 16.6 1.3 Z M 29.5 12.1 C 29.5 12.1 33.5 12.1 33.5 12.1 C 33.6 13.7 34.7 14.3 36.5 14.3 C 37.8 14.3 39.1 13.9 39.1 12.7 C 39.1 11.4 37.8 11.2 35.6 10.6 C 32.9 10 30 9.2 30 5.9 C 30 2.5 32.8 1 36.3 1 C 39.7 1 42.3 2.6 42.5 5.9 C 42.5 5.9 38.7 5.9 38.7 5.9 C 38.5 4.7 37.6 4 36.1 4 C 34.8 4 33.9 4.6 33.9 5.5 C 33.9 6.6 35.1 6.8 37.4 7.3 C 40.4 8 43 8.9 43 12.3 C 43 15.6 40.2 17.4 36.6 17.4 C 32.4 17.4 29.6 15.6 29.5 12.1 Z M 44.6 1.3 L 48.5 1.3 L 48.5 17 L 44.6 17 L 44.6 1.3 Z M 52.2 15.2 C 50.8 13.7 50 11.6 50 9.2 C 50 6.8 50.9 4.6 52.4 3.1 C 53.7 1.8 55.5 1 57.8 1 C 61.8 1 64.2 3.2 64.7 6.5 C 64.7 6.5 61 6.5 61 6.5 C 60.7 5.2 59.6 4.2 57.9 4.2 C 55.3 4.2 54 6.4 54 9.2 C 54 12.1 55.5 14.3 58 14.3 C 60 14.3 61.2 12.9 61.4 11.5 C 61.38 11.51 61.4 11.5 61.4 11.5 L 58.4 11.5 L 58.4 8.6 L 65 8.6 L 65 17 L 62.3 17 L 62 15.2 C 62 15.2 62 15.16 62 15.2 C 61 16.8 59.4 17.4 57.5 17.4 C 55.3 17.4 53.5 16.6 52.2 15.2 Z M 66.9 1.3 L 70.8 1.3 C 70.8 1.3 75.46 9.22 75.5 9.2 C 75.7 9.66 76.5 11.2 76.5 11.2 L 76.6 11.2 C 76.6 11.2 76.54 9.33 76.5 8.8 C 76.54 8.78 76.5 1.3 76.5 1.3 L 80.3 1.3 L 80.3 17 L 76.4 17 C 76.4 17 71.81 9.26 71.8 9.3 C 71.54 8.84 70.7 7.1 70.7 7.1 L 70.6 7.1 C 70.6 7.1 70.69 9.17 70.7 9.7 C 70.69 9.72 70.7 17 70.7 17 L 66.9 17 L 66.9 1.3 Z M 85.3 9.2 C 85.3 4.6 88.3 1 93 1 C 94.8 1 96.4 1.5 97.5 2.4 C 98.9 3.4 99.7 5 99.9 6.7 C 99.9 6.7 96 6.7 96 6.7 C 95.8 5.3 94.7 4.2 93 4.2 C 90.4 4.2 89.2 6.4 89.2 9.2 C 89.2 12.1 90.7 14.2 93 14.2 C 94.8 14.2 95.9 13.1 96.1 11.6 C 96.1 11.6 100 11.6 100 11.6 C 99.9 13.2 99.2 14.6 98.1 15.6 C 96.9 16.8 95.3 17.4 93 17.4 C 88.4 17.4 85.3 13.9 85.3 9.2 Z M 101.4 1.3 L 105.2 1.3 L 105.2 7.3 L 110.8 7.3 L 110.8 1.3 L 114.7 1.3 L 114.7 17 L 110.8 17 L 110.8 10.5 L 105.2 10.5 L 105.2 17 L 101.4 17 L 101.4 1.3 Z M 121.4 1.3 L 125.4 1.3 L 131.1 17 L 127 17 L 126 14.2 L 120.5 14.2 L 119.6 17 L 115.7 17 L 121.4 1.3 Z M 125.1 11.4 C 125.1 11.4 123.95 7.61 123.9 7.6 C 123.68 6.8 123.3 5.4 123.3 5.4 L 123.3 5.4 C 123.3 5.4 122.91 6.8 122.6 7.6 C 122.65 7.61 121.4 11.4 121.4 11.4 L 125.1 11.4 Z M 132.2 1.3 L 136 1.3 L 136 13.7 L 143.1 13.7 L 143.1 17 L 132.2 17 L 132.2 1.3 Z M 144.6 1.3 L 148.5 1.3 L 148.5 13.7 L 155.5 13.7 L 155.5 17 L 144.6 17 L 144.6 1.3 Z M 157 1.3 L 168.9 1.3 L 168.9 4.5 L 160.9 4.5 L 160.9 7.3 L 167.8 7.3 L 167.8 10.4 L 160.9 10.4 L 160.9 13.7 L 169.1 13.7 L 169.1 17 L 157 17 L 157 1.3 Z M 170.8 1.3 L 174.7 1.3 C 174.7 1.3 179.41 9.22 179.4 9.2 C 179.65 9.66 180.5 11.2 180.5 11.2 L 180.5 11.2 C 180.5 11.2 180.49 9.33 180.5 8.8 C 180.49 8.78 180.5 1.3 180.5 1.3 L 184.3 1.3 L 184.3 17 L 180.4 17 C 180.4 17 175.76 9.26 175.8 9.3 C 175.49 8.84 174.6 7.1 174.6 7.1 L 174.6 7.1 C 174.6 7.1 174.63 9.17 174.6 9.7 C 174.63 9.72 174.6 17 174.6 17 L 170.8 17 L 170.8 1.3 Z M 187.9 15.2 C 186.6 13.7 185.8 11.6 185.8 9.2 C 185.8 6.8 186.7 4.6 188.2 3.1 C 189.5 1.8 191.3 1 193.6 1 C 197.6 1 200 3.2 200.5 6.5 C 200.5 6.5 196.7 6.5 196.7 6.5 C 196.5 5.2 195.4 4.2 193.7 4.2 C 191.1 4.2 189.8 6.4 189.8 9.2 C 189.8 12.1 191.3 14.3 193.8 14.3 C 195.8 14.3 197 12.9 197.2 11.5 C 197.16 11.51 197.2 11.5 197.2 11.5 L 194.2 11.5 L 194.2 8.6 L 200.8 8.6 L 200.8 17 L 198 17 L 197.8 15.2 C 197.8 15.2 197.78 15.16 197.8 15.2 C 196.7 16.8 195.2 17.4 193.3 17.4 C 191.1 17.4 189.2 16.6 187.9 15.2 Z M 202.7 1.3 L 214.6 1.3 L 214.6 4.5 L 206.6 4.5 L 206.6 7.3 L 213.4 7.3 L 213.4 10.4 L 206.6 10.4 L 206.6 13.7 L 214.7 13.7 L 214.7 17 L 202.7 17 L 202.7 1.3 Z " stroke="none" fill="#d12229"/>  </g></svg>