<?xml version="1.0" standalone="no"?><!DOCTYPE svg PUBLIC "-//W3C//DTD SVG 1.1//EN" "http://www.w3.org/Graphics/SVG/1.1/DTD/svg11.dtd"><svg xmlns="http://www.w3.org/2000/svg" version="1.1" width="255px" height="28.2px" viewBox="0 -3 255 28.2" style="top:-3px">  <desc>Chipotle Online Menu GDES 2324</desc>  <defs/>  <g id="Polygon3538">    <path d="M 0.3 5.8 C 0.3 2.9 2.2 0.6 5.1 0.6 C 7.6 0.6 9.1 2.1 9.3 4 C 9.3 4 7.3 4 7.3 4 C 7.1 3 6.3 2.3 5.1 2.3 C 3.3 2.3 2.4 3.8 2.4 5.8 C 2.4 7.9 3.5 9.3 5.2 9.3 C 6.3 9.3 7.2 8.6 7.3 7.6 C 7.3 7.6 9.3 7.6 9.3 7.6 C 9.2 8.5 8.9 9.3 8.2 9.9 C 7.5 10.6 6.5 11 5.2 11 C 2.3 11 0.3 8.8 0.3 5.8 Z M 12.1 4.5 C 12.1 4.5 12.14 4.55 12.1 4.5 C 12.7 3.8 13.2 3.4 14.2 3.4 C 15.7 3.4 16.7 4.5 16.7 6.1 C 16.7 6.1 16.7 10.8 16.7 10.8 L 14.8 10.8 C 14.8 10.8 14.8 6.38 14.8 6.4 C 14.8 5.6 14.4 5.1 13.6 5.1 C 12.7 5.1 12.1 5.7 12.1 6.7 C 12.09 6.72 12.1 10.8 12.1 10.8 L 10.2 10.8 L 10.2 0.8 L 12.1 0.8 L 12.1 4.5 Z M 17.9 3.6 L 19.8 3.6 L 19.8 10.8 L 17.9 10.8 L 17.9 3.6 Z M 17.9 0.8 L 19.8 0.8 L 19.8 2.5 L 17.9 2.5 L 17.9 0.8 Z M 21 3.6 L 22.8 3.6 L 22.8 4.5 C 22.8 4.5 22.89 4.51 22.9 4.5 C 23.4 3.9 24 3.4 25 3.4 C 26.9 3.4 28.1 5 28.1 7.2 C 28.1 9.5 26.9 11 25 11 C 24 11 23.4 10.6 22.9 10 C 22.94 9.98 22.9 10 22.9 10 L 22.9 13.1 L 21 13.1 L 21 3.6 Z M 26.2 7.3 C 26.2 5.9 25.7 5 24.5 5 C 23.4 5 22.9 6 22.9 7.3 C 22.9 8.6 23.5 9.4 24.6 9.4 C 25.6 9.4 26.2 8.6 26.2 7.3 Z M 28.7 7.2 C 28.7 5.1 30.2 3.4 32.4 3.4 C 34.6 3.4 36.2 5.1 36.2 7.2 C 36.2 9.4 34.6 11 32.4 11 C 30.2 11 28.7 9.4 28.7 7.2 Z M 34.2 7.2 C 34.2 5.8 33.6 4.9 32.4 4.9 C 31.2 4.9 30.6 5.8 30.6 7.2 C 30.6 8.6 31.2 9.5 32.4 9.5 C 33.6 9.5 34.2 8.6 34.2 7.2 Z M 36.5 3.6 L 37.5 3.6 L 37.5 1.4 L 39.3 1.4 L 39.3 3.6 L 40.6 3.6 L 40.6 4.9 L 39.3 4.9 C 39.3 4.9 39.34 8.67 39.3 8.7 C 39.3 9.2 39.6 9.4 40.1 9.4 C 40.29 9.38 40.6 9.4 40.6 9.4 L 40.6 10.8 C 40.6 10.8 40.18 10.79 39.4 10.8 C 38.5 10.8 37.5 10.4 37.5 9.1 C 37.48 9.07 37.5 4.9 37.5 4.9 L 36.5 4.9 L 36.5 3.6 Z M 41.6 0.8 L 43.5 0.8 L 43.5 10.8 L 41.6 10.8 L 41.6 0.8 Z M 44.4 7.2 C 44.4 5.1 45.8 3.4 47.9 3.4 C 50.2 3.4 51.5 5.2 51.5 7.7 C 51.5 7.7 46.3 7.7 46.3 7.7 C 46.4 8.8 47 9.5 48.1 9.5 C 48.8 9.5 49.3 9.2 49.5 8.7 C 49.5 8.7 51.4 8.7 51.4 8.7 C 51.1 9.9 50 11 48.1 11 C 45.7 11 44.4 9.3 44.4 7.2 Z M 46.3 6.4 C 46.3 6.4 49.5 6.4 49.5 6.4 C 49.4 5.5 48.8 4.9 48 4.9 C 47 4.9 46.5 5.5 46.3 6.4 Z M 54.4 5.8 C 54.4 2.8 56.3 0.6 59.3 0.6 C 62.2 0.6 64.1 2.8 64.1 5.8 C 64.1 8.8 62.2 11 59.3 11 C 56.3 11 54.4 8.8 54.4 5.8 Z M 62 5.8 C 62 3.8 61.1 2.3 59.3 2.3 C 57.4 2.3 56.5 3.8 56.5 5.8 C 56.5 7.8 57.4 9.4 59.3 9.4 C 61.1 9.4 62 7.8 62 5.8 Z M 66.9 4.6 C 66.9 4.6 66.93 4.59 66.9 4.6 C 67.4 3.8 68.1 3.4 69.1 3.4 C 70.5 3.4 71.5 4.5 71.5 6.1 C 71.54 6.1 71.5 10.8 71.5 10.8 L 69.6 10.8 C 69.6 10.8 69.64 6.38 69.6 6.4 C 69.6 5.6 69.2 5.1 68.4 5.1 C 67.5 5.1 66.9 5.7 66.9 6.7 C 66.93 6.72 66.9 10.8 66.9 10.8 L 65 10.8 L 65 3.6 L 66.9 3.6 L 66.9 4.6 Z M 72.7 0.8 L 74.6 0.8 L 74.6 10.8 L 72.7 10.8 L 72.7 0.8 Z M 75.9 3.6 L 77.8 3.6 L 77.8 10.8 L 75.9 10.8 L 75.9 3.6 Z M 75.9 0.8 L 77.8 0.8 L 77.8 2.5 L 75.9 2.5 L 75.9 0.8 Z M 80.9 4.6 C 80.9 4.6 80.95 4.59 80.9 4.6 C 81.4 3.8 82.1 3.4 83.1 3.4 C 84.6 3.4 85.6 4.5 85.6 6.1 C 85.55 6.1 85.6 10.8 85.6 10.8 L 83.7 10.8 C 83.7 10.8 83.65 6.38 83.7 6.4 C 83.7 5.6 83.2 5.1 82.4 5.1 C 81.6 5.1 80.9 5.7 80.9 6.7 C 80.95 6.72 80.9 10.8 80.9 10.8 L 79 10.8 L 79 3.6 L 80.9 3.6 L 80.9 4.6 Z M 86.4 7.2 C 86.4 5.1 87.8 3.4 89.9 3.4 C 92.2 3.4 93.5 5.2 93.5 7.7 C 93.5 7.7 88.3 7.7 88.3 7.7 C 88.4 8.8 89 9.5 90.1 9.5 C 90.8 9.5 91.3 9.2 91.5 8.7 C 91.5 8.7 93.4 8.7 93.4 8.7 C 93.1 9.9 92 11 90.1 11 C 87.7 11 86.4 9.3 86.4 7.2 Z M 88.3 6.4 C 88.3 6.4 91.5 6.4 91.5 6.4 C 91.4 5.5 90.8 4.9 89.9 4.9 C 88.9 4.9 88.5 5.5 88.3 6.4 Z M 96.9 0.8 L 99.7 0.8 C 99.7 0.8 101.12 5.81 101.1 5.8 C 101.47 7.07 101.8 8.5 101.8 8.5 L 101.8 8.5 C 101.8 8.5 102.05 7.07 102.4 5.8 C 102.4 5.81 103.8 0.8 103.8 0.8 L 106.7 0.8 L 106.7 10.8 L 104.8 10.8 C 104.8 10.8 104.82 5.05 104.8 5.1 C 104.82 4.24 104.9 3 104.9 3 L 104.9 3 C 104.9 3 104.65 4.16 104.4 4.9 C 104.44 4.89 102.7 10.8 102.7 10.8 L 100.8 10.8 C 100.8 10.8 99.09 4.89 99.1 4.9 C 98.88 4.16 98.7 3 98.7 3 L 98.6 3 C 98.6 3 98.71 4.24 98.7 5.1 C 98.71 5.05 98.7 10.8 98.7 10.8 L 96.9 10.8 L 96.9 0.8 Z M 107.7 7.2 C 107.7 5.1 109.2 3.4 111.3 3.4 C 113.6 3.4 114.8 5.2 114.8 7.7 C 114.8 7.7 109.6 7.7 109.6 7.7 C 109.8 8.8 110.4 9.5 111.5 9.5 C 112.2 9.5 112.6 9.2 112.8 8.7 C 112.8 8.7 114.7 8.7 114.7 8.7 C 114.4 9.9 113.3 11 111.5 11 C 109.1 11 107.7 9.3 107.7 7.2 Z M 109.6 6.4 C 109.6 6.4 112.8 6.4 112.8 6.4 C 112.8 5.5 112.2 4.9 111.3 4.9 C 110.3 4.9 109.8 5.5 109.6 6.4 Z M 117.6 4.6 C 117.6 4.6 117.61 4.59 117.6 4.6 C 118.1 3.8 118.8 3.4 119.7 3.4 C 121.2 3.4 122.2 4.5 122.2 6.1 C 122.22 6.1 122.2 10.8 122.2 10.8 L 120.3 10.8 C 120.3 10.8 120.32 6.38 120.3 6.4 C 120.3 5.6 119.9 5.1 119.1 5.1 C 118.2 5.1 117.6 5.7 117.6 6.7 C 117.61 6.72 117.6 10.8 117.6 10.8 L 115.7 10.8 L 115.7 3.6 L 117.6 3.6 L 117.6 4.6 Z M 127.9 10.8 L 127.9 10 C 127.9 10 127.89 9.95 127.9 10 C 127.4 10.6 126.8 11 125.8 11 C 124.2 11 123.3 10 123.3 8.4 C 123.34 8.4 123.3 3.6 123.3 3.6 L 125.2 3.6 C 125.2 3.6 125.23 8.08 125.2 8.1 C 125.2 8.9 125.6 9.4 126.4 9.4 C 127.3 9.4 127.9 8.7 127.9 7.8 C 127.86 7.76 127.9 3.6 127.9 3.6 L 129.8 3.6 L 129.8 10.8 L 127.9 10.8 Z M 133.6 0.2 L 134.8 0.2 L 134.8 12.6 L 133.6 12.6 L 133.6 0.2 Z M 146.1 9.5 C 146.1 9.5 146.03 9.45 146 9.5 C 145.3 10.6 144.4 11 143.2 11 C 141.7 11 140.5 10.5 139.7 9.5 C 138.9 8.6 138.4 7.3 138.4 5.8 C 138.4 4.2 139 2.7 140 1.7 C 140.9 1 141.9 0.6 143.3 0.6 C 145.8 0.6 147.2 2 147.5 3.9 C 147.5 3.9 145.6 3.9 145.6 3.9 C 145.3 3 144.6 2.3 143.3 2.3 C 141.4 2.3 140.5 3.8 140.5 5.8 C 140.5 7.9 141.6 9.4 143.3 9.4 C 144.8 9.4 145.9 8.2 145.9 7.1 C 145.85 7.1 145.9 7 145.9 7 L 143.4 7 L 143.4 5.5 L 147.7 5.5 L 147.7 10.8 L 146.1 10.8 L 146.1 9.5 Z M 149.1 0.8 C 149.1 0.8 152.98 0.78 153 0.8 C 155.7 0.8 157.4 2.9 157.4 5.9 C 157.4 7.5 156.8 8.9 155.8 9.8 C 155 10.4 154.1 10.8 152.8 10.8 C 152.81 10.79 149.1 10.8 149.1 10.8 L 149.1 0.8 Z M 152.7 9 C 154.6 9 155.3 7.9 155.3 5.9 C 155.3 3.9 154.4 2.5 152.7 2.5 C 152.72 2.52 151.1 2.5 151.1 2.5 L 151.1 9 C 151.1 9 152.67 9.04 152.7 9 Z M 158.5 0.8 L 165.8 0.8 L 165.8 2.5 L 160.5 2.5 L 160.5 4.7 L 165.2 4.7 L 165.2 6.4 L 160.5 6.4 L 160.5 9.1 L 165.9 9.1 L 165.9 10.8 L 158.5 10.8 L 158.5 0.8 Z M 166.6 7.7 C 166.6 7.7 168.6 7.7 168.6 7.7 C 168.8 8.9 169.4 9.4 170.9 9.4 C 171.9 9.4 172.8 9 172.8 8.1 C 172.8 7.1 171.9 6.9 170.3 6.6 C 168.5 6.2 166.9 5.7 166.9 3.6 C 166.9 1.6 168.5 0.6 170.7 0.6 C 173 0.6 174.5 1.7 174.6 3.7 C 174.6 3.7 172.7 3.7 172.7 3.7 C 172.5 2.7 171.8 2.2 170.7 2.2 C 169.6 2.2 168.9 2.7 168.9 3.4 C 168.9 4.2 169.6 4.4 171.1 4.8 C 173.2 5.2 174.8 5.7 174.8 7.9 C 174.8 9.9 173.2 11 171 11 C 168.2 11 166.7 9.8 166.6 7.7 Z M 182.7 7 C 183.9 6 185.2 5.4 185.2 4.1 C 185.2 3.2 184.7 2.6 183.9 2.6 C 182.9 2.6 182.3 3.3 182.3 4.6 C 182.3 4.6 180.5 4.6 180.5 4.6 C 180.5 2.4 181.6 1 183.9 1 C 186 1 187.2 2.4 187.2 4.1 C 187.2 5.9 185.9 6.7 184.8 7.5 C 184 8 183.1 8.6 182.8 9.2 C 182.82 9.23 187.2 9.2 187.2 9.2 L 187.2 10.8 C 187.2 10.8 180.36 10.79 180.4 10.8 C 180.4 9 181.6 7.8 182.7 7 Z M 187.9 7.5 C 187.9 7.5 189.7 7.5 189.7 7.5 C 189.8 8.7 190.3 9.5 191.6 9.5 C 192.6 9.5 193.3 8.9 193.3 7.9 C 193.3 7 192.7 6.4 191.5 6.4 C 191.5 6.44 190.9 6.4 190.9 6.4 L 190.9 5 C 190.9 5 191.46 5 191.5 5 C 192.4 5 193 4.5 193 3.7 C 193 3 192.5 2.5 191.7 2.5 C 190.6 2.5 190 3.2 190 4.2 C 190 4.2 188.2 4.2 188.2 4.2 C 188.2 2.3 189.4 1 191.7 1 C 193.7 1 194.9 2 194.9 3.6 C 194.9 4.7 194.3 5.3 193.3 5.6 C 193.3 5.6 193.3 5.6 193.3 5.6 C 194.5 5.9 195.3 6.7 195.3 8 C 195.3 10 193.6 11 191.6 11 C 189.2 11 187.9 9.6 187.9 7.5 Z M 198.3 7 C 199.5 6 200.8 5.4 200.8 4.1 C 200.8 3.2 200.3 2.6 199.5 2.6 C 198.5 2.6 197.9 3.3 197.9 4.6 C 197.9 4.6 196.1 4.6 196.1 4.6 C 196.1 2.4 197.2 1 199.5 1 C 201.6 1 202.8 2.4 202.8 4.1 C 202.8 5.9 201.5 6.7 200.4 7.5 C 199.6 8 198.7 8.6 198.4 9.2 C 198.42 9.23 202.8 9.2 202.8 9.2 L 202.8 10.8 C 202.8 10.8 195.96 10.79 196 10.8 C 196 9 197.2 7.8 198.3 7 Z M 207.8 8.7 L 203.4 8.7 L 203.4 6.7 L 207.7 1.1 L 209.7 1.1 L 209.7 7.2 L 211.1 7.2 L 211.1 8.7 L 209.7 8.7 L 209.7 10.8 L 207.8 10.8 L 207.8 8.7 Z M 204.9 7.2 L 207.8 7.2 L 207.8 3.5 L 207.8 3.5 L 204.9 7.1 L 204.9 7.2 Z " stroke="none" fill="#000"/>  </g></svg>