<?xml version="1.0" standalone="no"?><!DOCTYPE svg PUBLIC "-//W3C//DTD SVG 1.1//EN" "http://www.w3.org/Graphics/SVG/1.1/DTD/svg11.dtd"><svg xmlns="http://www.w3.org/2000/svg" version="1.1" width="167.2px" height="46px" viewBox="0 -5 167.2 46" style="top:-5px">  <desc>User Insights</desc>  <defs/>  <g id="Polygon2049">    <path d="M 1.3 14.1 C 1.27 14.07 1.3 1.5 1.3 1.5 L 5 1.5 C 5 1.5 5.04 14.07 5 14.1 C 5 16 6 17.3 8.5 17.3 C 10.9 17.3 12 15.9 12 14 C 12.04 14.01 12 1.5 12 1.5 L 15.8 1.5 C 15.8 1.5 15.81 14.07 15.8 14.1 C 15.8 18 13.4 20.4 8.6 20.4 C 3.8 20.4 1.3 18.1 1.3 14.1 Z M 17.4 15.7 C 17.4 15.7 20.7 15.7 20.7 15.7 C 20.9 17.3 22 17.9 23.6 17.9 C 25.1 17.9 26 17.3 26 16.4 C 26 15.1 24.3 15 22.5 14.6 C 20.1 14.2 17.8 13.5 17.8 10.6 C 17.8 7.7 20.2 6.3 23.2 6.3 C 26.7 6.3 28.7 8.1 28.9 10.8 C 28.9 10.8 25.7 10.8 25.7 10.8 C 25.6 9.3 24.7 8.8 23.2 8.8 C 21.8 8.8 20.9 9.3 20.9 10.3 C 20.9 11.4 22.6 11.5 24.5 11.9 C 26.8 12.4 29.2 13 29.2 16.1 C 29.2 18.8 27 20.4 23.6 20.4 C 19.8 20.4 17.6 18.6 17.4 15.7 Z M 30.3 13.4 C 30.3 9.4 33 6.3 36.9 6.3 C 41.2 6.3 43.5 9.6 43.5 14.4 C 43.5 14.4 33.8 14.4 33.8 14.4 C 34.1 16.4 35.2 17.7 37.2 17.7 C 38.6 17.7 39.4 17.1 39.8 16.1 C 39.8 16.1 43.3 16.1 43.3 16.1 C 42.8 18.4 40.7 20.4 37.2 20.4 C 32.8 20.4 30.3 17.3 30.3 13.4 Z M 33.9 11.9 C 33.9 11.9 39.8 11.9 39.8 11.9 C 39.7 10.2 38.6 9.1 36.9 9.1 C 35.1 9.1 34.2 10.2 33.9 11.9 Z M 48.5 8.8 C 48.5 8.8 48.59 8.84 48.6 8.8 C 49.4 7.3 50.3 6.6 51.9 6.6 C 52.3 6.6 52.5 6.6 52.7 6.7 C 52.7 6.66 52.7 9.7 52.7 9.7 C 52.7 9.7 52.62 9.75 52.6 9.7 C 50.3 9.5 48.6 10.7 48.6 13.5 C 48.65 13.55 48.6 20 48.6 20 L 45.1 20 L 45.1 6.7 L 48.5 6.7 L 48.5 8.8 Z M 58.9 1.5 L 62.7 1.5 L 62.7 20 L 58.9 20 L 58.9 1.5 Z M 68.7 8.5 C 68.7 8.5 68.82 8.53 68.8 8.5 C 69.7 7.1 71 6.3 72.8 6.3 C 75.5 6.3 77.4 8.4 77.4 11.3 C 77.37 11.34 77.4 20 77.4 20 L 73.8 20 C 73.8 20 73.84 11.86 73.8 11.9 C 73.8 10.4 73 9.4 71.5 9.4 C 70 9.4 68.8 10.7 68.8 12.5 C 68.82 12.48 68.8 20 68.8 20 L 65.3 20 L 65.3 6.7 L 68.7 6.7 L 68.7 8.5 Z M 78.7 15.7 C 78.7 15.7 82 15.7 82 15.7 C 82.2 17.3 83.3 17.9 84.9 17.9 C 86.5 17.9 87.4 17.3 87.4 16.4 C 87.4 15.1 85.7 15 83.8 14.6 C 81.5 14.2 79.1 13.5 79.1 10.6 C 79.1 7.7 81.5 6.3 84.6 6.3 C 88.1 6.3 90 8.1 90.3 10.8 C 90.3 10.8 87.1 10.8 87.1 10.8 C 86.9 9.3 86 8.8 84.5 8.8 C 83.1 8.8 82.2 9.3 82.2 10.3 C 82.2 11.4 84 11.5 85.9 11.9 C 88.1 12.4 90.6 13 90.6 16.1 C 90.6 18.8 88.3 20.4 85 20.4 C 81.1 20.4 78.9 18.6 78.7 15.7 Z M 92.2 6.7 L 95.7 6.7 L 95.7 20 L 92.2 20 L 92.2 6.7 Z M 92.2 1.5 L 95.7 1.5 L 95.7 4.6 L 92.2 4.6 L 92.2 1.5 Z M 97.6 20.4 C 97.6 20.4 101.1 20.4 101.1 20.4 C 101.4 21.3 102.2 21.9 103.8 21.9 C 105.8 21.9 106.8 21 106.8 19.1 C 106.78 19.14 106.8 17.7 106.8 17.7 C 106.8 17.7 106.7 17.68 106.7 17.7 C 105.9 18.6 104.9 19.2 103.2 19.2 C 100.3 19.2 97.3 16.9 97.3 12.9 C 97.3 8.9 99.7 6.3 103.1 6.3 C 104.8 6.3 106 7 106.8 8.1 C 106.81 8.11 106.9 8.1 106.9 8.1 L 106.9 6.7 L 110.3 6.7 C 110.3 6.7 110.26 19.03 110.3 19 C 110.3 20.9 109.7 22.2 108.7 23.1 C 107.6 24.1 105.8 24.6 103.9 24.6 C 100.2 24.6 98 23 97.6 20.4 Z M 107 12.8 C 107 10.8 105.9 9.2 103.8 9.2 C 102 9.2 100.8 10.6 100.8 12.8 C 100.8 15.1 102 16.4 103.8 16.4 C 106.1 16.4 107 14.8 107 12.8 Z M 116.1 8.4 C 116.1 8.4 116.17 8.45 116.2 8.4 C 117.1 7 118.2 6.3 120 6.3 C 122.8 6.3 124.6 8.4 124.6 11.3 C 124.64 11.34 124.6 20 124.6 20 L 121.1 20 C 121.1 20 121.11 11.86 121.1 11.9 C 121.1 10.4 120.3 9.4 118.8 9.4 C 117.2 9.4 116.1 10.7 116.1 12.5 C 116.09 12.48 116.1 20 116.1 20 L 112.6 20 L 112.6 1.5 L 116.1 1.5 L 116.1 8.4 Z M 125.8 6.7 L 127.6 6.7 L 127.6 2.5 L 131.1 2.5 L 131.1 6.7 L 133.4 6.7 L 133.4 9 L 131.1 9 C 131.1 9 131.09 16.12 131.1 16.1 C 131.1 17.1 131.6 17.4 132.4 17.4 C 132.86 17.45 133.5 17.4 133.5 17.4 L 133.5 20 C 133.5 20 132.65 20.07 131.2 20.1 C 129.5 20.1 127.6 19.4 127.6 16.9 C 127.63 16.87 127.6 9 127.6 9 L 125.8 9 L 125.8 6.7 Z M 134.5 15.7 C 134.5 15.7 137.8 15.7 137.8 15.7 C 138 17.3 139.1 17.9 140.7 17.9 C 142.2 17.9 143.1 17.3 143.1 16.4 C 143.1 15.1 141.4 15 139.6 14.6 C 137.2 14.2 134.9 13.5 134.9 10.6 C 134.9 7.7 137.3 6.3 140.3 6.3 C 143.8 6.3 145.8 8.1 146 10.8 C 146 10.8 142.8 10.8 142.8 10.8 C 142.7 9.3 141.8 8.8 140.3 8.8 C 138.9 8.8 138 9.3 138 10.3 C 138 11.4 139.7 11.5 141.6 11.9 C 143.9 12.4 146.4 13 146.4 16.1 C 146.4 18.8 144.1 20.4 140.7 20.4 C 136.9 20.4 134.7 18.6 134.5 15.7 Z " stroke="none" fill="#d12229"/>  </g></svg>