<?xml version="1.0" standalone="no"?><!DOCTYPE svg PUBLIC "-//W3C//DTD SVG 1.1//EN" "http://www.w3.org/Graphics/SVG/1.1/DTD/svg11.dtd"><svg xmlns="http://www.w3.org/2000/svg" version="1.1" width="188px" height="28.2px" viewBox="0 -3 188 28.2" style="top:-3px">  <desc>Acrylic Lamp Project</desc>  <defs/>  <g id="Polygon7221">    <path d="M 3.5 0.8 L 5.6 0.8 L 9.2 10.8 L 7 10.8 L 6.4 8.7 L 2.8 8.7 L 2.1 10.8 L 0 10.8 L 3.5 0.8 Z M 3.2 7.1 L 5.9 7.1 C 5.9 7.1 4.98 4.23 5 4.2 C 4.82 3.7 4.6 2.7 4.6 2.7 L 4.5 2.7 C 4.5 2.7 4.3 3.7 4.1 4.2 C 4.13 4.23 3.2 7.1 3.2 7.1 Z M 9.2 7.2 C 9.2 5.1 10.6 3.4 12.8 3.4 C 14.7 3.4 15.8 4.5 16.1 6 C 16.1 6 14.2 6 14.2 6 C 14.1 5.4 13.6 4.9 12.9 4.9 C 11.7 4.9 11.1 5.8 11.1 7.2 C 11.1 8.6 11.7 9.5 12.9 9.5 C 13.6 9.5 14.2 9.1 14.3 8.3 C 14.3 8.3 16.1 8.3 16.1 8.3 C 16 9.8 14.8 11 12.9 11 C 10.6 11 9.2 9.4 9.2 7.2 Z M 18.8 4.8 C 18.8 4.8 18.83 4.76 18.8 4.8 C 19.3 3.9 19.8 3.5 20.6 3.5 C 20.8 3.5 20.9 3.5 21 3.6 C 21.04 3.58 21 5.3 21 5.3 C 21 5.3 21 5.25 21 5.3 C 19.8 5.1 18.9 5.8 18.9 7.3 C 18.86 7.29 18.9 10.8 18.9 10.8 L 17 10.8 L 17 3.6 L 18.8 3.6 L 18.8 4.8 Z M 22.1 11.6 C 22.1 11.6 22.76 11.65 22.8 11.6 C 23.5 11.6 23.8 11.3 23.8 10.7 C 23.8 10.3 23.7 9.8 23.3 8.7 C 23.28 8.72 21.4 3.6 21.4 3.6 L 23.4 3.6 C 23.4 3.6 24.42 6.85 24.4 6.8 C 24.64 7.5 24.9 8.4 24.9 8.4 L 24.9 8.4 C 24.9 8.4 25.1 7.5 25.3 6.8 C 25.33 6.85 26.3 3.6 26.3 3.6 L 28.3 3.6 C 28.3 3.6 25.75 10.98 25.7 11 C 25.2 12.6 24.7 13.1 23.2 13.1 C 23.21 13.15 22.1 13.1 22.1 13.1 L 22.1 11.6 Z M 28.9 0.8 L 30.8 0.8 L 30.8 10.8 L 28.9 10.8 L 28.9 0.8 Z M 32.1 3.6 L 34 3.6 L 34 10.8 L 32.1 10.8 L 32.1 3.6 Z M 32.1 0.8 L 34 0.8 L 34 2.5 L 32.1 2.5 L 32.1 0.8 Z M 34.9 7.2 C 34.9 5.1 36.3 3.4 38.5 3.4 C 40.3 3.4 41.5 4.5 41.7 6 C 41.7 6 39.9 6 39.9 6 C 39.7 5.4 39.2 4.9 38.5 4.9 C 37.4 4.9 36.8 5.8 36.8 7.2 C 36.8 8.6 37.4 9.5 38.5 9.5 C 39.3 9.5 39.8 9.1 40 8.3 C 40 8.3 41.8 8.3 41.8 8.3 C 41.7 9.8 40.5 11 38.6 11 C 36.3 11 34.9 9.4 34.9 7.2 Z M 45.1 0.8 L 47.2 0.8 L 47.2 9.1 L 51.9 9.1 L 51.9 10.8 L 45.1 10.8 L 45.1 0.8 Z M 57.2 10 C 57.2 10 57.1 10 57.1 10 C 56.8 10.5 56.3 11 55 11 C 53.5 11 52.5 10.2 52.5 8.8 C 52.5 7.2 53.8 6.7 55.4 6.5 C 56.6 6.3 57.1 6.2 57.1 5.6 C 57.1 5.1 56.7 4.8 55.9 4.8 C 55 4.8 54.6 5.1 54.5 5.8 C 54.5 5.8 52.9 5.8 52.9 5.8 C 52.9 4.5 53.8 3.4 55.9 3.4 C 58.1 3.4 59 4.4 59 6.1 C 59 6.1 59 9.7 59 9.7 C 59 10.3 59.1 10.6 59.2 10.7 C 59.22 10.72 59.2 10.8 59.2 10.8 C 59.2 10.8 57.39 10.79 57.4 10.8 C 57.3 10.7 57.2 10.3 57.2 10 Z M 57.2 8.3 C 57.2 8.3 57.2 7.2 57.2 7.2 C 56.8 7.4 56.3 7.5 55.8 7.6 C 54.9 7.8 54.4 8.1 54.4 8.7 C 54.4 9.4 54.8 9.6 55.5 9.6 C 56.6 9.6 57.2 9 57.2 8.3 Z M 60.2 3.6 L 62 3.6 L 62 4.6 C 62 4.6 62.05 4.58 62 4.6 C 62.4 3.9 63.1 3.4 64.1 3.4 C 65 3.4 65.8 3.9 66.1 4.7 C 66.1 4.7 66.1 4.7 66.1 4.7 C 66.6 3.9 67.4 3.4 68.3 3.4 C 69.8 3.4 70.7 4.4 70.7 6 C 70.67 5.96 70.7 10.8 70.7 10.8 L 68.8 10.8 C 68.8 10.8 68.77 6.29 68.8 6.3 C 68.8 5.5 68.4 5.1 67.7 5.1 C 66.9 5.1 66.4 5.7 66.4 6.6 C 66.37 6.62 66.4 10.8 66.4 10.8 L 64.5 10.8 C 64.5 10.8 64.47 6.29 64.5 6.3 C 64.5 5.5 64.1 5.1 63.4 5.1 C 62.6 5.1 62.1 5.7 62.1 6.6 C 62.07 6.62 62.1 10.8 62.1 10.8 L 60.2 10.8 L 60.2 3.6 Z M 71.8 3.6 L 73.7 3.6 L 73.7 4.5 C 73.7 4.5 73.72 4.51 73.7 4.5 C 74.2 3.9 74.9 3.4 75.8 3.4 C 77.7 3.4 79 5 79 7.2 C 79 9.5 77.7 11 75.9 11 C 74.8 11 74.2 10.6 73.8 10 C 73.78 9.98 73.8 10 73.8 10 L 73.8 13.1 L 71.8 13.1 L 71.8 3.6 Z M 77 7.3 C 77 5.9 76.6 5 75.4 5 C 74.2 5 73.7 6 73.7 7.3 C 73.7 8.6 74.3 9.4 75.4 9.4 C 76.4 9.4 77 8.6 77 7.3 Z M 82.3 0.8 C 82.3 0.8 86.74 0.78 86.7 0.8 C 87.9 0.8 88.8 1.1 89.4 1.7 C 89.9 2.3 90.3 3.1 90.3 4 C 90.3 5.9 89 7.2 86.9 7.2 C 86.91 7.17 84.4 7.2 84.4 7.2 L 84.4 10.8 L 82.3 10.8 L 82.3 0.8 Z M 84.4 5.5 C 84.4 5.5 86.55 5.52 86.5 5.5 C 87.6 5.5 88.2 4.9 88.2 4 C 88.2 3.1 87.6 2.5 86.6 2.5 C 86.58 2.55 84.4 2.5 84.4 2.5 L 84.4 5.5 Z M 92.9 4.8 C 92.9 4.8 92.99 4.76 93 4.8 C 93.4 3.9 93.9 3.5 94.8 3.5 C 95 3.5 95.1 3.5 95.2 3.6 C 95.2 3.58 95.2 5.3 95.2 5.3 C 95.2 5.3 95.16 5.25 95.2 5.3 C 93.9 5.1 93 5.8 93 7.3 C 93.01 7.29 93 10.8 93 10.8 L 91.1 10.8 L 91.1 3.6 L 92.9 3.6 L 92.9 4.8 Z M 95.5 7.2 C 95.5 5.1 97 3.4 99.2 3.4 C 101.4 3.4 103 5.1 103 7.2 C 103 9.4 101.4 11 99.2 11 C 97 11 95.5 9.4 95.5 7.2 Z M 101 7.2 C 101 5.8 100.4 4.9 99.2 4.9 C 98 4.9 97.4 5.8 97.4 7.2 C 97.4 8.6 98 9.5 99.2 9.5 C 100.4 9.5 101 8.6 101 7.2 Z M 102.7 13.1 C 102.7 13.1 102.7 11.7 102.7 11.7 C 103.4 11.7 103.9 11.6 103.9 11 C 103.85 10.96 103.9 3.6 103.9 3.6 L 105.8 3.6 C 105.8 3.6 105.75 11.06 105.8 11.1 C 105.8 11.9 105.6 12.3 105.3 12.6 C 104.9 13 104.4 13.1 103.7 13.1 C 103.4 13.1 103 13.1 102.7 13.1 Z M 103.9 0.8 L 105.8 0.8 L 105.8 2.5 L 103.9 2.5 L 103.9 0.8 Z M 106.6 7.2 C 106.6 5.1 108.1 3.4 110.2 3.4 C 112.5 3.4 113.7 5.2 113.7 7.7 C 113.7 7.7 108.5 7.7 108.5 7.7 C 108.7 8.8 109.3 9.5 110.3 9.5 C 111.1 9.5 111.5 9.2 111.7 8.7 C 111.7 8.7 113.6 8.7 113.6 8.7 C 113.3 9.9 112.2 11 110.4 11 C 108 11 106.6 9.3 106.6 7.2 Z M 108.5 6.4 C 108.5 6.4 111.7 6.4 111.7 6.4 C 111.7 5.5 111.1 4.9 110.2 4.9 C 109.2 4.9 108.7 5.5 108.5 6.4 Z M 114.3 7.2 C 114.3 5.1 115.7 3.4 117.8 3.4 C 119.7 3.4 120.8 4.5 121.1 6 C 121.1 6 119.2 6 119.2 6 C 119.1 5.4 118.6 4.9 117.9 4.9 C 116.8 4.9 116.2 5.8 116.2 7.2 C 116.2 8.6 116.7 9.5 117.9 9.5 C 118.7 9.5 119.2 9.1 119.3 8.3 C 119.3 8.3 121.2 8.3 121.2 8.3 C 121 9.8 119.9 11 117.9 11 C 115.7 11 114.3 9.4 114.3 7.2 Z M 121.6 3.6 L 122.6 3.6 L 122.6 1.4 L 124.4 1.4 L 124.4 3.6 L 125.7 3.6 L 125.7 4.9 L 124.4 4.9 C 124.4 4.9 124.43 8.67 124.4 8.7 C 124.4 9.2 124.7 9.4 125.1 9.4 C 125.38 9.38 125.7 9.4 125.7 9.4 L 125.7 10.8 C 125.7 10.8 125.27 10.79 124.5 10.8 C 123.6 10.8 122.6 10.4 122.6 9.1 C 122.57 9.07 122.6 4.9 122.6 4.9 L 121.6 4.9 L 121.6 3.6 Z " stroke="none" fill="#fff"/>  </g></svg>