<?xml version="1.0" standalone="no"?><!DOCTYPE svg PUBLIC "-//W3C//DTD SVG 1.1//EN" "http://www.w3.org/Graphics/SVG/1.1/DTD/svg11.dtd"><svg xmlns="http://www.w3.org/2000/svg" version="1.1" width="489px" height="39.1px" viewBox="0 -5 489 39.1" style="top:-5px">  <desc>MODULAR VAN-LIFE PLANTER PDES 2703</desc>  <defs/>  <g id="Polygon2595">    <path d="M 316.4 0.5 L 318.6 0.5 L 318.6 20.1 L 316.4 20.1 L 316.4 0.5 Z M 324.8 1.3 C 324.8 1.3 331.32 1.32 331.3 1.3 C 333 1.3 334.2 1.9 335.1 2.8 C 335.7 3.6 336.1 4.6 336.1 5.8 C 336.1 8.7 334.5 10.4 331 10.4 C 331.03 10.45 326.7 10.4 326.7 10.4 L 326.7 17 L 324.8 17 L 324.8 1.3 Z M 326.7 8.8 C 326.7 8.8 330.88 8.84 330.9 8.8 C 333.1 8.8 334.2 7.7 334.2 5.9 C 334.2 4 333 3 331 3 C 330.99 3.04 326.7 3 326.7 3 L 326.7 8.8 Z M 338 1.3 C 338 1.3 343.75 1.32 343.7 1.3 C 348.5 1.3 350.7 4.5 350.7 9.2 C 350.7 13.9 348.3 17 343.6 17 C 343.59 17.05 338 17 338 17 L 338 1.3 Z M 343.5 15.3 C 347.2 15.3 348.7 12.9 348.7 9.2 C 348.7 5.5 347.4 3 343.7 3 C 343.68 3.04 340 3 340 3 L 340 15.3 C 340 15.3 343.53 15.31 343.5 15.3 Z M 353.1 1.3 L 364.2 1.3 L 364.2 3.1 L 355.1 3.1 L 355.1 8 L 363.3 8 L 363.3 9.7 L 355.1 9.7 L 355.1 15.2 L 364.4 15.2 L 364.4 17 L 353.1 17 L 353.1 1.3 Z M 365.5 11.7 C 365.5 11.7 367.5 11.7 367.5 11.7 C 367.7 14.4 369.4 15.8 372.3 15.8 C 374.5 15.8 376.1 14.8 376.1 12.8 C 376.1 10.7 374.2 10.2 371.4 9.5 C 368.6 8.9 366.2 8.1 366.2 5.2 C 366.2 2.6 368.4 1 371.6 1 C 375.5 1 377.1 3 377.5 5.9 C 377.5 5.9 375.7 5.9 375.7 5.9 C 375.4 3.7 373.9 2.6 371.6 2.6 C 369.5 2.6 368.1 3.5 368.1 5.1 C 368.1 6.9 369.8 7.4 372.2 7.9 C 375.2 8.5 378 9.2 378 12.8 C 378 15.7 375.6 17.4 372.3 17.4 C 367.8 17.4 365.7 14.9 365.5 11.7 Z M 388.7 10 C 390.6 8.9 391.9 8.1 391.9 6.3 C 391.9 4.4 390.6 3.2 388.6 3.2 C 387.5 3.2 386.7 3.5 386.2 4.1 C 385.6 4.8 385.3 5.6 385.3 7.1 C 385.3 7.1 383.4 7.1 383.4 7.1 C 383.4 5.2 383.9 4 384.8 3.1 C 385.8 2.1 387.2 1.6 388.7 1.6 C 391.8 1.6 393.8 3.6 393.8 6.3 C 393.8 9.2 391.8 10.1 389.4 11.5 C 387.7 12.4 385.7 13.6 385.2 15.3 C 385.24 15.29 393.5 15.3 393.5 15.3 L 393.5 17 C 393.5 17 383.01 17.05 383 17 C 383.2 13 386 11.5 388.7 10 Z M 403.7 3.7 C 403.67 3.67 403.7 3.6 403.7 3.6 L 395.1 3.6 L 395.1 2 L 405.6 2 C 405.6 2 405.61 3.5 405.6 3.5 C 402.5 6.2 399.5 11.1 399.2 17 C 399.2 17 397.2 17 397.2 17 C 397.5 11.8 400.3 6.4 403.7 3.7 Z M 406.5 9.5 C 406.5 4.6 408.8 1.6 412.4 1.6 C 415.9 1.6 418.2 4.6 418.2 9.5 C 418.2 14.3 416.1 17.4 412.3 17.4 C 408.6 17.4 406.5 14.3 406.5 9.5 Z M 416.3 9.5 C 416.3 5.7 415 3.2 412.4 3.2 C 409.7 3.2 408.4 5.6 408.4 9.5 C 408.4 13.3 409.7 15.8 412.4 15.8 C 415 15.8 416.3 13.4 416.3 9.5 Z M 419.6 12.1 C 419.6 12.1 421.4 12.1 421.4 12.1 C 421.4 14.5 423 15.8 425.5 15.8 C 427.6 15.8 429.1 14.8 429.1 12.7 C 429.1 10.8 427.6 9.7 425.1 9.7 C 425.1 9.75 424.2 9.7 424.2 9.7 L 424.2 8.3 C 424.2 8.3 425.08 8.32 425.1 8.3 C 427.4 8.3 428.6 7.3 428.6 5.7 C 428.6 4.1 427.1 3.1 425.3 3.1 C 423.2 3.1 421.9 4.5 421.9 6.6 C 421.9 6.6 420.1 6.6 420.1 6.6 C 420.1 3.6 422.1 1.6 425.4 1.6 C 428.2 1.6 430.4 3.1 430.4 5.8 C 430.4 7.5 429.4 8.4 427.9 8.9 C 427.9 8.9 427.9 9 427.9 9 C 430.1 9.5 431 10.9 431 12.8 C 431 15.7 428.6 17.4 425.6 17.4 C 422.2 17.4 419.6 15.5 419.6 12.1 Z " stroke="none" fill="#000"/>  </g>  <g id="Polygon2594">    <path d="M 1.1 1.3 L 6.3 1.3 C 6.3 1.3 8.23 8.21 8.2 8.2 C 8.51 9.2 9.1 11.8 9.1 11.8 L 9.2 11.8 C 9.2 11.8 9.79 9.2 10.1 8.2 C 10.05 8.21 12 1.3 12 1.3 L 17.3 1.3 L 17.3 17 L 13.7 17 C 13.7 17 13.71 9.13 13.7 9.1 C 13.71 8.49 13.8 6 13.8 6 L 13.7 6 C 13.7 6 13.18 8.34 13 8.9 C 13 8.91 10.7 17 10.7 17 L 7.5 17 C 7.5 17 5.28 8.93 5.3 8.9 C 5.1 8.36 4.6 6 4.6 6 L 4.5 6 C 4.5 6 4.58 8.51 4.6 9.2 C 4.58 9.15 4.6 17 4.6 17 L 1.1 17 L 1.1 1.3 Z M 30.4 9.2 C 30.4 6.4 29.1 4.2 26.6 4.2 C 24 4.2 22.7 6.4 22.7 9.2 C 22.7 12.1 24 14.3 26.6 14.3 C 29.1 14.3 30.4 12.1 30.4 9.2 Z M 18.8 9.2 C 18.8 4.5 21.8 1 26.6 1 C 31.3 1 34.3 4.5 34.3 9.2 C 34.3 13.9 31.3 17.4 26.6 17.4 C 21.8 17.4 18.8 13.9 18.8 9.2 Z M 42 13.8 C 44.6 13.8 45.9 12.2 45.9 9.3 C 45.9 6.4 44.5 4.6 42.1 4.6 C 42.09 4.58 39.8 4.6 39.8 4.6 L 39.8 13.8 C 39.8 13.8 42.04 13.77 42 13.8 Z M 35.9 1.3 C 35.9 1.3 42.57 1.32 42.6 1.3 C 46.9 1.3 49.9 4.5 49.9 9.3 C 49.9 12.1 48.9 14.3 47.1 15.6 C 45.9 16.5 44.3 17 42.3 17 C 42.33 17.05 35.9 17 35.9 17 L 35.9 1.3 Z M 51.3 11.5 C 51.26 11.51 51.3 1.3 51.3 1.3 L 55.2 1.3 C 55.2 1.3 55.15 11.64 55.2 11.6 C 55.2 13.2 55.9 14.2 57.9 14.2 C 59.7 14.2 60.5 13.1 60.5 11.6 C 60.52 11.57 60.5 1.3 60.5 1.3 L 64.4 1.3 C 64.4 1.3 64.42 11.51 64.4 11.5 C 64.4 15.1 62.2 17.3 57.9 17.3 C 53.5 17.3 51.3 15.2 51.3 11.5 Z M 66.5 1.3 L 70.4 1.3 L 70.4 13.7 L 77.4 13.7 L 77.4 17 L 66.5 17 L 66.5 1.3 Z M 83.7 1.3 L 87.7 1.3 L 93.3 17 L 89.3 17 L 88.3 14.2 L 82.8 14.2 L 81.9 17 L 78 17 L 83.7 1.3 Z M 87.4 11.4 C 87.4 11.4 86.24 7.61 86.2 7.6 C 85.97 6.8 85.6 5.4 85.6 5.4 L 85.6 5.4 C 85.6 5.4 85.2 6.8 84.9 7.6 C 84.94 7.61 83.7 11.4 83.7 11.4 L 87.4 11.4 Z M 94.4 1.3 C 94.4 1.3 101.97 1.32 102 1.3 C 105.1 1.3 107.5 2.9 107.5 5.9 C 107.5 7.7 106.6 9 104.7 9.7 C 104.7 9.7 104.7 9.7 104.7 9.7 C 106.1 10.2 106.8 11 107 12.6 C 107.4 14.7 107.1 16.7 107.7 16.9 C 107.69 16.85 107.7 17 107.7 17 C 107.7 17 103.9 17.05 103.9 17 C 103.5 16.8 103.6 15 103.3 13.4 C 103.1 11.9 102.4 11.2 100.7 11.2 C 100.69 11.15 98.3 11.2 98.3 11.2 L 98.3 17 L 94.4 17 L 94.4 1.3 Z M 101.3 8.3 C 102.8 8.3 103.6 7.5 103.6 6.4 C 103.6 5.2 102.8 4.4 101.4 4.4 C 101.35 4.4 98.3 4.4 98.3 4.4 L 98.3 8.3 C 98.3 8.3 101.26 8.27 101.3 8.3 Z M 111.5 1.3 L 115.5 1.3 C 115.5 1.3 118.01 9.57 118 9.6 C 118.36 10.76 118.7 12.3 118.7 12.3 L 118.8 12.3 C 118.8 12.3 119.17 10.74 119.5 9.6 C 119.5 9.57 121.9 1.3 121.9 1.3 L 125.9 1.3 L 120.7 17 L 116.7 17 L 111.5 1.3 Z M 129.7 1.3 L 133.7 1.3 L 139.4 17 L 135.3 17 L 134.4 14.2 L 128.9 14.2 L 128 17 L 124.1 17 L 129.7 1.3 Z M 133.5 11.4 C 133.5 11.4 132.31 7.61 132.3 7.6 C 132.04 6.8 131.7 5.4 131.7 5.4 L 131.6 5.4 C 131.6 5.4 131.27 6.8 131 7.6 C 131.01 7.61 129.8 11.4 129.8 11.4 L 133.5 11.4 Z M 140.5 1.3 L 144.4 1.3 C 144.4 1.3 149.09 9.22 149.1 9.2 C 149.33 9.66 150.2 11.2 150.2 11.2 L 150.2 11.2 C 150.2 11.2 150.17 9.33 150.2 8.8 C 150.17 8.78 150.2 1.3 150.2 1.3 L 154 1.3 L 154 17 L 150.1 17 C 150.1 17 145.44 9.26 145.4 9.3 C 145.18 8.84 144.3 7.1 144.3 7.1 L 144.3 7.1 C 144.3 7.1 144.32 9.17 144.3 9.7 C 144.32 9.72 144.3 17 144.3 17 L 140.5 17 L 140.5 1.3 Z M 155.8 10 L 161.7 10 L 161.7 13.1 L 155.8 13.1 L 155.8 10 Z M 163.5 1.3 L 167.4 1.3 L 167.4 13.7 L 174.5 13.7 L 174.5 17 L 163.5 17 L 163.5 1.3 Z M 176 1.3 L 179.8 1.3 L 179.8 17 L 176 17 L 176 1.3 Z M 182 1.3 L 193.7 1.3 L 193.7 4.6 L 185.9 4.6 L 185.9 7.8 L 192.4 7.8 L 192.4 10.9 L 185.9 10.9 L 185.9 17 L 182 17 L 182 1.3 Z M 195.2 1.3 L 207.2 1.3 L 207.2 4.5 L 199.1 4.5 L 199.1 7.3 L 206 7.3 L 206 10.4 L 199.1 10.4 L 199.1 13.7 L 207.3 13.7 L 207.3 17 L 195.2 17 L 195.2 1.3 Z M 212.5 1.3 C 212.5 1.3 219.56 1.32 219.6 1.3 C 221.5 1.3 222.9 1.8 223.8 2.8 C 224.9 3.7 225.4 5.1 225.4 6.6 C 225.4 9.7 223.3 11.8 220.1 11.8 C 220.11 11.79 216.4 11.8 216.4 11.8 L 216.4 17 L 212.5 17 L 212.5 1.3 Z M 219.3 8.7 C 220.7 8.7 221.5 7.9 221.5 6.6 C 221.5 5.4 220.7 4.6 219.3 4.6 C 219.31 4.6 216.4 4.6 216.4 4.6 L 216.4 8.7 C 216.4 8.7 219.31 8.71 219.3 8.7 Z M 226.8 1.3 L 230.7 1.3 L 230.7 13.7 L 237.8 13.7 L 237.8 17 L 226.8 17 L 226.8 1.3 Z M 244 1.3 L 248 1.3 L 253.7 17 L 249.6 17 L 248.7 14.2 L 243.2 14.2 L 242.3 17 L 238.4 17 L 244 1.3 Z M 247.8 11.4 C 247.8 11.4 246.59 7.61 246.6 7.6 C 246.33 6.8 246 5.4 246 5.4 L 245.9 5.4 C 245.9 5.4 245.56 6.8 245.3 7.6 C 245.3 7.61 244.1 11.4 244.1 11.4 L 247.8 11.4 Z M 254.8 1.3 L 258.7 1.3 C 258.7 1.3 263.38 9.22 263.4 9.2 C 263.62 9.66 264.5 11.2 264.5 11.2 L 264.5 11.2 C 264.5 11.2 264.46 9.33 264.5 8.8 C 264.46 8.78 264.5 1.3 264.5 1.3 L 268.3 1.3 L 268.3 17 L 264.3 17 C 264.3 17 259.73 9.26 259.7 9.3 C 259.46 8.84 258.6 7.1 258.6 7.1 L 258.6 7.1 C 258.6 7.1 258.61 9.17 258.6 9.7 C 258.61 9.72 258.6 17 258.6 17 L 254.8 17 L 254.8 1.3 Z M 274.3 4.6 L 269.7 4.6 L 269.7 1.3 L 282.8 1.3 L 282.8 4.6 L 278.2 4.6 L 278.2 17 L 274.3 17 L 274.3 4.6 Z M 284.3 1.3 L 296.2 1.3 L 296.2 4.5 L 288.2 4.5 L 288.2 7.3 L 295 7.3 L 295 10.4 L 288.2 10.4 L 288.2 13.7 L 296.3 13.7 L 296.3 17 L 284.3 17 L 284.3 1.3 Z M 298.1 1.3 C 298.1 1.3 305.6 1.32 305.6 1.3 C 308.7 1.3 311.1 2.9 311.1 5.9 C 311.1 7.7 310.2 9 308.4 9.7 C 308.4 9.7 308.4 9.7 308.4 9.7 C 309.7 10.2 310.4 11 310.7 12.6 C 311 14.7 310.8 16.7 311.3 16.9 C 311.32 16.85 311.3 17 311.3 17 C 311.3 17 307.53 17.05 307.5 17 C 307.1 16.8 307.2 15 306.9 13.4 C 306.7 11.9 306 11.2 304.3 11.2 C 304.32 11.15 302 11.2 302 11.2 L 302 17 L 298.1 17 L 298.1 1.3 Z M 304.9 8.3 C 306.4 8.3 307.2 7.5 307.2 6.4 C 307.2 5.2 306.5 4.4 305 4.4 C 304.98 4.4 302 4.4 302 4.4 L 302 8.3 C 302 8.3 304.89 8.27 304.9 8.3 Z " stroke="none" fill="#d12229"/>  </g></svg>