<?xml version="1.0" standalone="no"?><!DOCTYPE svg PUBLIC "-//W3C//DTD SVG 1.1//EN" "http://www.w3.org/Graphics/SVG/1.1/DTD/svg11.dtd"><svg xmlns="http://www.w3.org/2000/svg" version="1.1" width="483.1px" height="172.8px" viewBox="0 -6 483.1 172.8" style="top:-6px">  <desc>How might we design a squirt gun that promotes independent play without evoking the form of a gun</desc>  <defs/>  <g id="Polygon7423">    <path d="M 11.9 146.7 C 11.9 146.7 11.9 146.7 11.9 146.7 C 11 148 9.7 149 6.7 149 C 3.2 149 0.6 147.2 0.6 143.7 C 0.6 139.8 3.8 138.6 7.7 138.1 C 10.5 137.7 11.9 137.4 11.9 136.1 C 11.9 134.8 10.9 134 8.9 134 C 6.8 134 5.7 134.8 5.6 136.5 C 5.6 136.5 1.5 136.5 1.5 136.5 C 1.6 133.4 3.9 130.7 9 130.7 C 14.2 130.7 16.3 133.1 16.3 137.2 C 16.3 137.2 16.3 146 16.3 146 C 16.3 147.4 16.5 148.1 16.9 148.4 C 16.93 148.44 16.9 148.6 16.9 148.6 C 16.9 148.6 12.48 148.61 12.5 148.6 C 12.2 148.3 12 147.5 11.9 146.7 Z M 12 142.5 C 12 142.5 12 139.8 12 139.8 C 11.2 140.3 9.9 140.6 8.7 140.9 C 6.3 141.4 5.1 141.9 5.1 143.6 C 5.1 145.2 6.2 145.8 7.9 145.8 C 10.5 145.8 12 144.2 12 142.5 Z M 24.5 149.1 C 24.5 149.1 29.1 149.1 29.1 149.1 C 29.4 150.2 30.4 151.1 32.6 151.1 C 35.2 151.1 36.4 149.8 36.4 147.4 C 36.45 147.42 36.4 145.5 36.4 145.5 C 36.4 145.5 36.35 145.52 36.3 145.5 C 35.3 146.7 34 147.6 31.8 147.6 C 27.9 147.6 24.1 144.5 24.1 139.2 C 24.1 134 27.2 130.7 31.7 130.7 C 33.8 130.7 35.4 131.5 36.5 133 C 36.48 133.01 36.5 133 36.5 133 L 36.5 131.2 L 41 131.2 C 41 131.2 41 147.29 41 147.3 C 41 149.7 40.2 151.4 38.9 152.6 C 37.5 154 35.2 154.6 32.6 154.6 C 27.9 154.6 25 152.5 24.5 149.1 Z M 36.7 139.1 C 36.7 136.6 35.3 134.4 32.5 134.4 C 30.2 134.4 28.6 136.2 28.6 139.2 C 28.6 142.1 30.2 143.9 32.6 143.9 C 35.5 143.9 36.7 141.7 36.7 139.1 Z M 55 148.6 L 55 146.6 C 55 146.6 54.91 146.57 54.9 146.6 C 53.7 148.2 52.4 149.1 49.9 149.1 C 46 149.1 43.9 146.6 43.9 142.8 C 43.86 142.8 43.9 131.2 43.9 131.2 L 48.4 131.2 C 48.4 131.2 48.45 142.02 48.4 142 C 48.4 144.1 49.4 145.2 51.3 145.2 C 53.5 145.2 54.8 143.5 54.8 141.2 C 54.84 141.24 54.8 131.2 54.8 131.2 L 59.5 131.2 L 59.5 148.6 L 55 148.6 Z M 67 133.6 C 67 133.6 67.08 133.55 67.1 133.6 C 68.3 131.7 69.9 130.7 72.2 130.7 C 75.9 130.7 78.3 133.4 78.3 137.2 C 78.27 137.22 78.3 148.6 78.3 148.6 L 73.6 148.6 C 73.6 148.6 73.64 137.9 73.6 137.9 C 73.6 136 72.6 134.7 70.6 134.7 C 68.6 134.7 67.1 136.3 67.1 138.7 C 67.08 138.72 67.1 148.6 67.1 148.6 L 62.5 148.6 L 62.5 131.2 L 67 131.2 L 67 133.6 Z M 89.2 135 C 90.7 134 92 133.2 92 131.1 C 92 129 90.4 127.8 88.4 127.8 C 85.8 127.8 84.1 129.4 84.1 132 C 84.1 132 79.7 132 79.7 132 C 79.8 127.5 82.8 123.9 88.3 123.9 C 93.5 123.9 96.6 127 96.6 131 C 96.6 134.3 94.8 135.7 93.4 136.8 C 90.8 138.8 89.8 139.1 89.8 141.5 C 89.8 141.5 85.7 141.5 85.7 141.5 C 85.7 137.5 87.1 136.5 89.2 135 Z M 85.3 143.7 L 90.2 143.7 L 90.2 148.6 L 85.3 148.6 L 85.3 143.7 Z " stroke="none" fill="#000"/>  </g>  <g id="Polygon7422">    <path d="M 1.5 90.4 L 6 90.4 L 6 92.5 C 6 92.5 6.05 92.55 6.1 92.5 C 7.2 91 8.8 89.9 11.2 89.9 C 15.8 89.9 18.8 93.7 18.8 99.1 C 18.8 104.8 15.7 108.3 11.2 108.3 C 8.8 108.3 7.2 107.3 6.2 105.8 C 6.19 105.84 6.1 105.8 6.1 105.8 L 6.1 113.5 L 1.5 113.5 L 1.5 90.4 Z M 14.1 99.2 C 14.1 95.9 12.9 93.6 10.1 93.6 C 7.2 93.6 6 96.1 6 99.2 C 6 102.4 7.5 104.5 10.2 104.5 C 12.6 104.5 14.1 102.5 14.1 99.2 Z M 21 83.5 L 25.6 83.5 L 25.6 107.8 L 21 107.8 L 21 83.5 Z M 39.1 105.9 C 39.1 105.9 39 105.9 39 105.9 C 38.1 107.2 36.9 108.2 33.9 108.2 C 30.3 108.2 27.8 106.4 27.8 102.9 C 27.8 99 30.9 97.8 34.8 97.3 C 37.7 96.9 39 96.6 39 95.3 C 39 94 38 93.2 36.1 93.2 C 33.9 93.2 32.9 94 32.7 95.7 C 32.7 95.7 28.6 95.7 28.6 95.7 C 28.8 92.6 31 89.9 36.1 89.9 C 41.4 89.9 43.5 92.3 43.5 96.4 C 43.5 96.4 43.5 105.2 43.5 105.2 C 43.5 106.6 43.7 107.3 44.1 107.6 C 44.1 107.64 44.1 107.8 44.1 107.8 C 44.1 107.8 39.64 107.81 39.6 107.8 C 39.4 107.5 39.2 106.7 39.1 105.9 Z M 39.1 101.7 C 39.1 101.7 39.1 99 39.1 99 C 38.3 99.5 37.1 99.8 35.9 100.1 C 33.5 100.6 32.3 101.1 32.3 102.8 C 32.3 104.4 33.4 105 35 105 C 37.7 105 39.1 103.4 39.1 101.7 Z M 46.6 109.9 C 46.6 109.9 48.25 109.89 48.2 109.9 C 50.1 109.9 50.8 108.9 50.8 107.5 C 50.8 106.6 50.5 105.4 49.5 102.8 C 49.5 102.78 44.8 90.4 44.8 90.4 L 49.7 90.4 C 49.7 90.4 52.26 98.23 52.3 98.2 C 52.8 99.82 53.4 102 53.4 102 L 53.4 102 C 53.4 102 53.92 99.82 54.5 98.2 C 54.47 98.23 56.9 90.4 56.9 90.4 L 61.6 90.4 C 61.6 90.4 55.49 108.26 55.5 108.3 C 54.2 112.1 52.9 113.5 49.3 113.5 C 49.33 113.53 46.6 113.5 46.6 113.5 L 46.6 109.9 Z M 67.5 90.4 L 72.1 90.4 C 72.1 90.4 74.19 98.46 74.2 98.5 C 74.56 99.89 75 101.7 75 101.7 L 75 101.7 C 75 101.7 75.41 99.86 75.8 98.4 C 75.79 98.43 78 90.4 78 90.4 L 81.9 90.4 C 81.9 90.4 84.18 98.43 84.2 98.4 C 84.56 99.89 85 101.7 85 101.7 L 85.1 101.7 C 85.1 101.7 85.48 99.89 85.8 98.5 C 85.85 98.46 88.1 90.4 88.1 90.4 L 92.5 90.4 L 87.3 107.8 L 83.1 107.8 C 83.1 107.8 80.82 99.25 80.8 99.2 C 80.44 97.85 80 96.2 80 96.2 L 80 96.2 C 80 96.2 79.53 97.85 79.2 99.2 C 79.15 99.25 76.8 107.8 76.8 107.8 L 72.6 107.8 L 67.5 90.4 Z M 94.2 90.4 L 98.8 90.4 L 98.8 107.8 L 94.2 107.8 L 94.2 90.4 Z M 94.2 83.5 L 98.8 83.5 L 98.8 87.7 L 94.2 87.7 L 94.2 83.5 Z M 100.8 90.4 L 103.2 90.4 L 103.2 84.9 L 107.7 84.9 L 107.7 90.4 L 110.7 90.4 L 110.7 93.4 L 107.7 93.4 C 107.7 93.4 107.71 102.68 107.7 102.7 C 107.7 104 108.4 104.4 109.4 104.4 C 110.02 104.41 110.8 104.4 110.8 104.4 L 110.8 107.8 C 110.8 107.8 109.75 107.85 107.9 107.8 C 105.7 107.8 103.2 107 103.2 103.7 C 103.19 103.67 103.2 93.4 103.2 93.4 L 100.8 93.4 L 100.8 90.4 Z M 117.7 92.6 C 117.7 92.6 117.81 92.65 117.8 92.6 C 119.1 90.8 120.5 89.9 122.9 89.9 C 126.5 89.9 128.9 92.6 128.9 96.4 C 128.89 96.42 128.9 107.8 128.9 107.8 L 124.3 107.8 C 124.3 107.8 124.27 97.1 124.3 97.1 C 124.3 95.2 123.2 93.9 121.2 93.9 C 119.2 93.9 117.7 95.5 117.7 97.9 C 117.71 97.92 117.7 107.8 117.7 107.8 L 113.1 107.8 L 113.1 83.5 L 117.7 83.5 L 117.7 92.6 Z M 130.9 99.1 C 130.9 93.9 134.6 89.9 140 89.9 C 145.4 89.9 149.1 93.9 149.1 99.1 C 149.1 104.3 145.4 108.3 140 108.3 C 134.6 108.3 130.9 104.3 130.9 99.1 Z M 144.4 99.1 C 144.4 95.7 142.8 93.4 140 93.4 C 137.2 93.4 135.6 95.7 135.6 99.1 C 135.6 102.5 137.2 104.8 140 104.8 C 142.8 104.8 144.4 102.5 144.4 99.1 Z M 162.3 107.8 L 162.3 105.8 C 162.3 105.8 162.18 105.77 162.2 105.8 C 161 107.4 159.6 108.3 157.2 108.3 C 153.3 108.3 151.1 105.8 151.1 102 C 151.13 102 151.1 90.4 151.1 90.4 L 155.7 90.4 C 155.7 90.4 155.72 101.22 155.7 101.2 C 155.7 103.3 156.6 104.4 158.6 104.4 C 160.8 104.4 162.1 102.7 162.1 100.4 C 162.11 100.44 162.1 90.4 162.1 90.4 L 166.7 90.4 L 166.7 107.8 L 162.3 107.8 Z M 168.7 90.4 L 171.1 90.4 L 171.1 84.9 L 175.6 84.9 L 175.6 90.4 L 178.6 90.4 L 178.6 93.4 L 175.6 93.4 C 175.6 93.4 175.64 102.68 175.6 102.7 C 175.6 104 176.4 104.4 177.4 104.4 C 177.95 104.41 178.7 104.4 178.7 104.4 L 178.7 107.8 C 178.7 107.8 177.68 107.85 175.8 107.8 C 173.6 107.8 171.1 107 171.1 103.7 C 171.12 103.67 171.1 93.4 171.1 93.4 L 168.7 93.4 L 168.7 90.4 Z M 185.9 99.1 C 185.9 93.9 189.4 89.9 194.5 89.9 C 200.1 89.9 203.1 94.2 203.1 100.4 C 203.1 100.4 190.4 100.4 190.4 100.4 C 190.8 103.1 192.3 104.8 194.9 104.8 C 196.7 104.8 197.7 103.9 198.3 102.6 C 198.3 102.6 202.8 102.6 202.8 102.6 C 202.2 105.7 199.4 108.3 194.9 108.3 C 189.1 108.3 185.9 104.3 185.9 99.1 Z M 190.5 97.2 C 190.5 97.2 198.3 97.2 198.3 97.2 C 198.1 95 196.7 93.5 194.5 93.5 C 192.1 93.5 190.9 94.9 190.5 97.2 Z M 203.5 90.4 L 208.1 90.4 C 208.1 90.4 210.93 99.42 210.9 99.4 C 211.44 101.08 211.7 102.2 211.7 102.2 L 211.8 102.2 C 211.8 102.2 212.02 101.08 212.5 99.4 C 212.53 99.42 215.4 90.4 215.4 90.4 L 220 90.4 L 213.9 107.8 L 209.5 107.8 L 203.5 90.4 Z M 220.2 99.1 C 220.2 93.9 223.9 89.9 229.3 89.9 C 234.7 89.9 238.4 93.9 238.4 99.1 C 238.4 104.3 234.7 108.3 229.3 108.3 C 223.9 108.3 220.2 104.3 220.2 99.1 Z M 233.7 99.1 C 233.7 95.7 232.1 93.4 229.3 93.4 C 226.5 93.4 224.9 95.7 224.9 99.1 C 224.9 102.5 226.5 104.8 229.3 104.8 C 232.1 104.8 233.7 102.5 233.7 99.1 Z M 247.2 99.9 L 245.2 101.9 L 245.2 107.8 L 240.6 107.8 L 240.6 83.5 L 245.2 83.5 L 245.2 97 L 251.4 90.4 L 256.9 90.4 L 250.5 97 L 257.7 107.8 L 252.1 107.8 L 247.2 99.9 Z M 259.1 90.4 L 263.8 90.4 L 263.8 107.8 L 259.1 107.8 L 259.1 90.4 Z M 259.1 83.5 L 263.8 83.5 L 263.8 87.7 L 259.1 87.7 L 259.1 83.5 Z M 271.3 92.8 C 271.3 92.8 271.38 92.75 271.4 92.8 C 272.6 90.9 274.2 89.9 276.6 89.9 C 280.2 89.9 282.6 92.6 282.6 96.4 C 282.57 96.42 282.6 107.8 282.6 107.8 L 277.9 107.8 C 277.9 107.8 277.95 97.1 277.9 97.1 C 277.9 95.2 276.9 93.9 274.9 93.9 C 272.9 93.9 271.4 95.5 271.4 97.9 C 271.38 97.92 271.4 107.8 271.4 107.8 L 266.8 107.8 L 266.8 90.4 L 271.3 90.4 L 271.3 92.8 Z M 285 108.3 C 285 108.3 289.5 108.3 289.5 108.3 C 289.9 109.4 290.9 110.3 293 110.3 C 295.7 110.3 296.9 109 296.9 106.6 C 296.92 106.62 296.9 104.7 296.9 104.7 C 296.9 104.7 296.82 104.72 296.8 104.7 C 295.8 105.9 294.5 106.8 292.3 106.8 C 288.4 106.8 284.6 103.7 284.6 98.4 C 284.6 93.2 287.7 89.9 292.1 89.9 C 294.3 89.9 295.9 90.7 297 92.2 C 296.95 92.21 297 92.2 297 92.2 L 297 90.4 L 301.5 90.4 C 301.5 90.4 301.47 106.49 301.5 106.5 C 301.5 108.9 300.7 110.6 299.4 111.8 C 297.9 113.2 295.7 113.8 293.1 113.8 C 288.4 113.8 285.4 111.7 285 108.3 Z M 297.2 98.3 C 297.2 95.8 295.8 93.6 293 93.6 C 290.7 93.6 289.1 95.4 289.1 98.4 C 289.1 101.3 290.7 103.1 293 103.1 C 296 103.1 297.2 100.9 297.2 98.3 Z M 309.2 90.4 L 311.6 90.4 L 311.6 84.9 L 316.1 84.9 L 316.1 90.4 L 319.1 90.4 L 319.1 93.4 L 316.1 93.4 C 316.1 93.4 316.09 102.68 316.1 102.7 C 316.1 104 316.8 104.4 317.8 104.4 C 318.41 104.41 319.2 104.4 319.2 104.4 L 319.2 107.8 C 319.2 107.8 318.13 107.85 316.3 107.8 C 314.1 107.8 311.6 107 311.6 103.7 C 311.57 103.67 311.6 93.4 311.6 93.4 L 309.2 93.4 L 309.2 90.4 Z M 326.1 92.6 C 326.1 92.6 326.19 92.65 326.2 92.6 C 327.5 90.8 328.9 89.9 331.3 89.9 C 334.9 89.9 337.3 92.6 337.3 96.4 C 337.28 96.42 337.3 107.8 337.3 107.8 L 332.7 107.8 C 332.7 107.8 332.65 97.1 332.7 97.1 C 332.7 95.2 331.6 93.9 329.6 93.9 C 327.6 93.9 326.1 95.5 326.1 97.9 C 326.09 97.92 326.1 107.8 326.1 107.8 L 321.5 107.8 L 321.5 83.5 L 326.1 83.5 L 326.1 92.6 Z M 339.3 99.1 C 339.3 93.9 342.8 89.9 347.9 89.9 C 353.5 89.9 356.5 94.2 356.5 100.4 C 356.5 100.4 343.8 100.4 343.8 100.4 C 344.2 103.1 345.7 104.8 348.3 104.8 C 350.1 104.8 351.1 103.9 351.7 102.6 C 351.7 102.6 356.2 102.6 356.2 102.6 C 355.6 105.7 352.8 108.3 348.3 108.3 C 342.5 108.3 339.3 104.3 339.3 99.1 Z M 343.9 97.2 C 343.9 97.2 351.7 97.2 351.7 97.2 C 351.5 95 350.1 93.5 348 93.5 C 345.5 93.5 344.3 94.9 343.9 97.2 Z M 363.3 90.4 L 365.7 90.4 C 365.7 90.4 365.7 88.81 365.7 88.8 C 365.7 84.6 369 83.1 373.5 83.5 C 373.5 83.5 373.5 87.1 373.5 87.1 C 371.3 87 370.3 87.3 370.3 89.1 C 370.32 89.08 370.3 90.4 370.3 90.4 L 373.5 90.4 L 373.5 93.6 L 370.3 93.6 L 370.3 107.8 L 365.7 107.8 L 365.7 93.6 L 363.3 93.6 L 363.3 90.4 Z M 374.2 99.1 C 374.2 93.9 377.9 89.9 383.3 89.9 C 388.7 89.9 392.4 93.9 392.4 99.1 C 392.4 104.3 388.7 108.3 383.3 108.3 C 377.9 108.3 374.2 104.3 374.2 99.1 Z M 387.7 99.1 C 387.7 95.7 386.1 93.4 383.3 93.4 C 380.5 93.4 378.9 95.7 378.9 99.1 C 378.9 102.5 380.5 104.8 383.3 104.8 C 386.1 104.8 387.7 102.5 387.7 99.1 Z M 399 93.2 C 399 93.2 399.12 93.16 399.1 93.2 C 400.2 91.2 401.4 90.2 403.4 90.2 C 403.9 90.2 404.2 90.2 404.5 90.3 C 404.49 90.3 404.5 94.3 404.5 94.3 C 404.5 94.3 404.39 94.35 404.4 94.3 C 401.4 94 399.2 95.6 399.2 99.3 C 399.19 99.31 399.2 107.8 399.2 107.8 L 394.6 107.8 L 394.6 90.4 L 399 90.4 L 399 93.2 Z M 406.5 90.4 L 411 90.4 L 411 92.7 C 411 92.7 411.05 92.72 411.1 92.7 C 412 91.1 413.7 89.9 416.1 89.9 C 418.3 89.9 420.1 91.1 420.9 93 C 420.9 93 421 93 421 93 C 422.2 91.1 424 89.9 426.3 89.9 C 429.9 89.9 432 92.3 432 96.1 C 432 96.08 432 107.8 432 107.8 L 427.4 107.8 C 427.4 107.8 427.37 96.87 427.4 96.9 C 427.4 94.9 426.4 93.9 424.7 93.9 C 422.8 93.9 421.6 95.4 421.6 97.7 C 421.56 97.68 421.6 107.8 421.6 107.8 L 416.9 107.8 C 416.9 107.8 416.94 96.87 416.9 96.9 C 416.9 94.9 416 93.9 414.3 93.9 C 412.4 93.9 411.1 95.4 411.1 97.7 C 411.12 97.68 411.1 107.8 411.1 107.8 L 406.5 107.8 L 406.5 90.4 Z M 439.7 99.1 C 439.7 93.9 443.4 89.9 448.8 89.9 C 454.2 89.9 457.9 93.9 457.9 99.1 C 457.9 104.3 454.2 108.3 448.8 108.3 C 443.4 108.3 439.7 104.3 439.7 99.1 Z M 453.2 99.1 C 453.2 95.7 451.7 93.4 448.8 93.4 C 446 93.4 444.4 95.7 444.4 99.1 C 444.4 102.5 446 104.8 448.8 104.8 C 451.7 104.8 453.2 102.5 453.2 99.1 Z M 458.7 90.4 L 461.1 90.4 C 461.1 90.4 461.1 88.81 461.1 88.8 C 461.1 84.6 464.4 83.1 468.9 83.5 C 468.9 83.5 468.9 87.1 468.9 87.1 C 466.7 87 465.7 87.3 465.7 89.1 C 465.73 89.08 465.7 90.4 465.7 90.4 L 468.9 90.4 L 468.9 93.6 L 465.7 93.6 L 465.7 107.8 L 461.1 107.8 L 461.1 93.6 L 458.7 93.6 L 458.7 90.4 Z " stroke="none" fill="#000"/>  </g>  <g id="Polygon7421">    <path d="M 1 67.5 C 1 67.5 5.6 67.5 5.6 67.5 C 6 68.6 7 69.5 9.1 69.5 C 11.7 69.5 13 68.2 13 65.8 C 12.99 65.82 13 63.9 13 63.9 C 13 63.9 12.89 63.92 12.9 63.9 C 11.9 65.1 10.5 66 8.3 66 C 4.5 66 0.6 62.9 0.6 57.6 C 0.6 52.4 3.8 49.1 8.2 49.1 C 10.4 49.1 12 49.9 13 51.4 C 13.02 51.41 13.1 51.4 13.1 51.4 L 13.1 49.6 L 17.5 49.6 C 17.5 49.6 17.54 65.69 17.5 65.7 C 17.5 68.1 16.8 69.8 15.5 71 C 14 72.4 11.8 73 9.2 73 C 4.4 73 1.5 70.9 1 67.5 Z M 13.2 57.5 C 13.2 55 11.9 52.8 9.1 52.8 C 6.7 52.8 5.2 54.6 5.2 57.6 C 5.2 60.5 6.7 62.3 9.1 62.3 C 12 62.3 13.2 60.1 13.2 57.5 Z M 31.6 67 L 31.6 65 C 31.6 65 31.45 64.97 31.4 65 C 30.3 66.6 28.9 67.5 26.5 67.5 C 22.6 67.5 20.4 65 20.4 61.2 C 20.4 61.2 20.4 49.6 20.4 49.6 L 25 49.6 C 25 49.6 24.99 60.42 25 60.4 C 25 62.5 25.9 63.6 27.9 63.6 C 30.1 63.6 31.4 61.9 31.4 59.6 C 31.38 59.64 31.4 49.6 31.4 49.6 L 36 49.6 L 36 67 L 31.6 67 Z M 43.5 52 C 43.5 52 43.62 51.95 43.6 52 C 44.8 50.1 46.4 49.1 48.8 49.1 C 52.4 49.1 54.8 51.8 54.8 55.6 C 54.81 55.62 54.8 67 54.8 67 L 50.2 67 C 50.2 67 50.18 56.3 50.2 56.3 C 50.2 54.4 49.1 53.1 47.2 53.1 C 45.1 53.1 43.6 54.7 43.6 57.1 C 43.62 57.12 43.6 67 43.6 67 L 39 67 L 39 49.6 L 43.5 49.6 L 43.5 52 Z M 62.4 49.6 L 64.8 49.6 L 64.8 44.1 L 69.3 44.1 L 69.3 49.6 L 72.3 49.6 L 72.3 52.6 L 69.3 52.6 C 69.3 52.6 69.29 61.88 69.3 61.9 C 69.3 63.2 70 63.6 71 63.6 C 71.6 63.61 72.4 63.6 72.4 63.6 L 72.4 67 C 72.4 67 71.33 67.05 69.5 67 C 67.3 67 64.8 66.2 64.8 62.9 C 64.77 62.87 64.8 52.6 64.8 52.6 L 62.4 52.6 L 62.4 49.6 Z M 79.3 51.8 C 79.3 51.8 79.39 51.85 79.4 51.8 C 80.6 50 82.1 49.1 84.5 49.1 C 88.1 49.1 90.5 51.8 90.5 55.6 C 90.47 55.62 90.5 67 90.5 67 L 85.8 67 C 85.8 67 85.85 56.3 85.8 56.3 C 85.8 54.4 84.8 53.1 82.8 53.1 C 80.8 53.1 79.3 54.7 79.3 57.1 C 79.29 57.12 79.3 67 79.3 67 L 74.7 67 L 74.7 42.7 L 79.3 42.7 L 79.3 51.8 Z M 103.8 65.1 C 103.8 65.1 103.7 65.1 103.7 65.1 C 102.8 66.4 101.6 67.4 98.6 67.4 C 95 67.4 92.5 65.6 92.5 62.1 C 92.5 58.2 95.6 57 99.5 56.5 C 102.4 56.1 103.7 55.8 103.7 54.5 C 103.7 53.2 102.7 52.4 100.8 52.4 C 98.6 52.4 97.5 53.2 97.4 54.9 C 97.4 54.9 93.3 54.9 93.3 54.9 C 93.4 51.8 95.7 49.1 100.8 49.1 C 106 49.1 108.2 51.5 108.2 55.6 C 108.2 55.6 108.2 64.4 108.2 64.4 C 108.2 65.8 108.4 66.5 108.8 66.8 C 108.77 66.84 108.8 67 108.8 67 C 108.8 67 104.31 67.01 104.3 67 C 104 66.7 103.9 65.9 103.8 65.1 Z M 103.8 60.9 C 103.8 60.9 103.8 58.2 103.8 58.2 C 103 58.7 101.7 59 100.6 59.3 C 98.2 59.8 97 60.3 97 62 C 97 63.6 98.1 64.2 99.7 64.2 C 102.3 64.2 103.8 62.6 103.8 60.9 Z M 109.7 49.6 L 112.1 49.6 L 112.1 44.1 L 116.7 44.1 L 116.7 49.6 L 119.6 49.6 L 119.6 52.6 L 116.7 52.6 C 116.7 52.6 116.65 61.88 116.7 61.9 C 116.7 63.2 117.4 63.6 118.4 63.6 C 118.96 63.61 119.7 63.6 119.7 63.6 L 119.7 67 C 119.7 67 118.69 67.05 116.9 67 C 114.6 67 112.1 66.2 112.1 62.9 C 112.13 62.87 112.1 52.6 112.1 52.6 L 109.7 52.6 L 109.7 49.6 Z M 127.7 49.6 L 132.2 49.6 L 132.2 51.7 C 132.2 51.7 132.29 51.75 132.3 51.7 C 133.4 50.2 135 49.1 137.4 49.1 C 142.1 49.1 145 52.9 145 58.3 C 145 64 141.9 67.5 137.5 67.5 C 135 67.5 133.4 66.5 132.4 65 C 132.43 65.04 132.4 65 132.4 65 L 132.4 72.7 L 127.7 72.7 L 127.7 49.6 Z M 140.3 58.4 C 140.3 55.1 139.2 52.8 136.3 52.8 C 133.4 52.8 132.3 55.3 132.3 58.4 C 132.3 61.6 133.7 63.7 136.5 63.7 C 138.8 63.7 140.3 61.7 140.3 58.4 Z M 151.6 52.4 C 151.6 52.4 151.71 52.36 151.7 52.4 C 152.8 50.4 154 49.4 156 49.4 C 156.5 49.4 156.8 49.4 157.1 49.5 C 157.08 49.5 157.1 53.5 157.1 53.5 C 157.1 53.5 156.98 53.55 157 53.5 C 154 53.2 151.8 54.8 151.8 58.5 C 151.77 58.51 151.8 67 151.8 67 L 147.2 67 L 147.2 49.6 L 151.6 49.6 L 151.6 52.4 Z M 157.7 58.3 C 157.7 53.1 161.4 49.1 166.8 49.1 C 172.2 49.1 175.9 53.1 175.9 58.3 C 175.9 63.5 172.2 67.5 166.8 67.5 C 161.4 67.5 157.7 63.5 157.7 58.3 Z M 171.3 58.3 C 171.3 54.9 169.7 52.6 166.8 52.6 C 164 52.6 162.4 54.9 162.4 58.3 C 162.4 61.7 164 64 166.8 64 C 169.7 64 171.3 61.7 171.3 58.3 Z M 178.1 49.6 L 182.5 49.6 L 182.5 51.9 C 182.5 51.9 182.65 51.92 182.6 51.9 C 183.6 50.3 185.3 49.1 187.7 49.1 C 189.9 49.1 191.7 50.3 192.5 52.2 C 192.5 52.2 192.6 52.2 192.6 52.2 C 193.8 50.3 195.6 49.1 197.8 49.1 C 201.5 49.1 203.6 51.5 203.6 55.3 C 203.59 55.28 203.6 67 203.6 67 L 199 67 C 199 67 198.97 56.07 199 56.1 C 199 54.1 198 53.1 196.3 53.1 C 194.3 53.1 193.2 54.6 193.2 56.9 C 193.15 56.88 193.2 67 193.2 67 L 188.5 67 C 188.5 67 188.53 56.07 188.5 56.1 C 188.5 54.1 187.5 53.1 185.8 53.1 C 184 53.1 182.7 54.6 182.7 56.9 C 182.71 56.88 182.7 67 182.7 67 L 178.1 67 L 178.1 49.6 Z M 205.6 58.3 C 205.6 53.1 209.3 49.1 214.7 49.1 C 220.1 49.1 223.8 53.1 223.8 58.3 C 223.8 63.5 220.1 67.5 214.7 67.5 C 209.3 67.5 205.6 63.5 205.6 58.3 Z M 219.1 58.3 C 219.1 54.9 217.5 52.6 214.7 52.6 C 211.9 52.6 210.3 54.9 210.3 58.3 C 210.3 61.7 211.9 64 214.7 64 C 217.5 64 219.1 61.7 219.1 58.3 Z M 224.6 49.6 L 227 49.6 L 227 44.1 L 231.5 44.1 L 231.5 49.6 L 234.5 49.6 L 234.5 52.6 L 231.5 52.6 C 231.5 52.6 231.54 61.88 231.5 61.9 C 231.5 63.2 232.3 63.6 233.3 63.6 C 233.85 63.61 234.6 63.6 234.6 63.6 L 234.6 67 C 234.6 67 233.58 67.05 231.7 67 C 229.5 67 227 66.2 227 62.9 C 227.02 62.87 227 52.6 227 52.6 L 224.6 52.6 L 224.6 49.6 Z M 235.9 58.3 C 235.9 53.1 239.4 49.1 244.5 49.1 C 250.1 49.1 253.1 53.4 253.1 59.6 C 253.1 59.6 240.4 59.6 240.4 59.6 C 240.8 62.3 242.3 64 244.9 64 C 246.7 64 247.8 63.1 248.3 61.8 C 248.3 61.8 252.8 61.8 252.8 61.8 C 252.2 64.9 249.4 67.5 244.9 67.5 C 239.2 67.5 235.9 63.5 235.9 58.3 Z M 240.5 56.4 C 240.5 56.4 248.3 56.4 248.3 56.4 C 248.1 54.2 246.7 52.7 244.6 52.7 C 242.1 52.7 240.9 54.1 240.5 56.4 Z M 254.1 61.4 C 254.1 61.4 258.4 61.4 258.4 61.4 C 258.7 63.4 260.2 64.3 262.2 64.3 C 264.3 64.3 265.4 63.5 265.4 62.3 C 265.4 60.6 263.2 60.4 260.8 59.9 C 257.7 59.3 254.7 58.5 254.7 54.7 C 254.7 50.9 257.8 49.1 261.8 49.1 C 266.4 49.1 268.9 51.4 269.2 54.9 C 269.2 54.9 265.1 54.9 265.1 54.9 C 264.9 53 263.7 52.3 261.7 52.3 C 259.9 52.3 258.7 53 258.7 54.3 C 258.7 55.8 261 55.9 263.5 56.4 C 266.4 57 269.7 57.8 269.7 61.9 C 269.7 65.4 266.7 67.5 262.3 67.5 C 257.2 67.5 254.4 65.1 254.1 61.4 Z M 277.4 49.6 L 282.1 49.6 L 282.1 67 L 277.4 67 L 277.4 49.6 Z M 277.4 42.7 L 282.1 42.7 L 282.1 46.9 L 277.4 46.9 L 277.4 42.7 Z M 289.6 52 C 289.6 52 289.68 51.95 289.7 52 C 290.9 50.1 292.5 49.1 294.8 49.1 C 298.4 49.1 300.9 51.8 300.9 55.6 C 300.86 55.62 300.9 67 300.9 67 L 296.2 67 C 296.2 67 296.24 56.3 296.2 56.3 C 296.2 54.4 295.2 53.1 293.2 53.1 C 291.2 53.1 289.7 54.7 289.7 57.1 C 289.68 57.12 289.7 67 289.7 67 L 285.1 67 L 285.1 49.6 L 289.6 49.6 L 289.6 52 Z M 302.9 58.3 C 302.9 52.9 306 49.1 310.3 49.1 C 312.8 49.1 314.3 50.2 315.2 51.7 C 315.24 51.68 315.3 51.7 315.3 51.7 L 315.3 42.7 L 320 42.7 L 320 67 L 315.5 67 L 315.5 64.7 C 315.5 64.7 315.45 64.74 315.4 64.7 C 314.4 66.4 312.7 67.5 310.2 67.5 C 305.9 67.5 302.9 64 302.9 58.3 Z M 315.4 58.4 C 315.4 55.1 314.4 52.8 311.4 52.8 C 308.9 52.8 307.6 55.1 307.6 58.3 C 307.6 61.7 308.9 63.6 311.3 63.6 C 314 63.6 315.4 61.6 315.4 58.4 Z M 322.1 58.3 C 322.1 53.1 325.6 49.1 330.7 49.1 C 336.3 49.1 339.3 53.4 339.3 59.6 C 339.3 59.6 326.7 59.6 326.7 59.6 C 327 62.3 328.5 64 331.1 64 C 332.9 64 334 63.1 334.5 61.8 C 334.5 61.8 339 61.8 339 61.8 C 338.4 64.9 335.6 67.5 331.2 67.5 C 325.4 67.5 322.1 63.5 322.1 58.3 Z M 326.7 56.4 C 326.7 56.4 334.5 56.4 334.5 56.4 C 334.4 54.2 332.9 52.7 330.8 52.7 C 328.3 52.7 327.1 54.1 326.7 56.4 Z M 341.5 49.6 L 345.9 49.6 L 345.9 51.7 C 345.9 51.7 346.01 51.75 346 51.7 C 347.1 50.2 348.8 49.1 351.1 49.1 C 355.8 49.1 358.7 52.9 358.7 58.3 C 358.7 64 355.7 67.5 351.2 67.5 C 348.7 67.5 347.1 66.5 346.2 65 C 346.15 65.04 346.1 65 346.1 65 L 346.1 72.7 L 341.5 72.7 L 341.5 49.6 Z M 354 58.4 C 354 55.1 352.9 52.8 350 52.8 C 347.1 52.8 346 55.3 346 58.4 C 346 61.6 347.4 63.7 350.2 63.7 C 352.5 63.7 354 61.7 354 58.4 Z M 360 58.3 C 360 53.1 363.5 49.1 368.6 49.1 C 374.2 49.1 377.2 53.4 377.2 59.6 C 377.2 59.6 364.6 59.6 364.6 59.6 C 364.9 62.3 366.4 64 369 64 C 370.8 64 371.9 63.1 372.4 61.8 C 372.4 61.8 377 61.8 377 61.8 C 376.3 64.9 373.6 67.5 369.1 67.5 C 363.3 67.5 360 63.5 360 58.3 Z M 364.6 56.4 C 364.6 56.4 372.4 56.4 372.4 56.4 C 372.3 54.2 370.8 52.7 368.7 52.7 C 366.2 52.7 365.1 54.1 364.6 56.4 Z M 383.9 52 C 383.9 52 383.99 51.95 384 52 C 385.2 50.1 386.8 49.1 389.2 49.1 C 392.8 49.1 395.2 51.8 395.2 55.6 C 395.18 55.62 395.2 67 395.2 67 L 390.6 67 C 390.6 67 390.55 56.3 390.6 56.3 C 390.6 54.4 389.5 53.1 387.5 53.1 C 385.5 53.1 384 54.7 384 57.1 C 383.99 57.12 384 67 384 67 L 379.4 67 L 379.4 49.6 L 383.9 49.6 L 383.9 52 Z M 397.2 58.3 C 397.2 52.9 400.3 49.1 404.6 49.1 C 407.1 49.1 408.6 50.2 409.6 51.7 C 409.56 51.68 409.7 51.7 409.7 51.7 L 409.7 42.7 L 414.3 42.7 L 414.3 67 L 409.8 67 L 409.8 64.7 C 409.8 64.7 409.76 64.74 409.8 64.7 C 408.7 66.4 407 67.5 404.6 67.5 C 400.2 67.5 397.2 64 397.2 58.3 Z M 409.8 58.4 C 409.8 55.1 408.7 52.8 405.7 52.8 C 403.2 52.8 401.9 55.1 401.9 58.3 C 401.9 61.7 403.2 63.6 405.6 63.6 C 408.3 63.6 409.8 61.6 409.8 58.4 Z M 416.4 58.3 C 416.4 53.1 419.9 49.1 425 49.1 C 430.6 49.1 433.6 53.4 433.6 59.6 C 433.6 59.6 421 59.6 421 59.6 C 421.3 62.3 422.8 64 425.4 64 C 427.2 64 428.3 63.1 428.8 61.8 C 428.8 61.8 433.4 61.8 433.4 61.8 C 432.7 64.9 430 67.5 425.5 67.5 C 419.7 67.5 416.4 63.5 416.4 58.3 Z M 421.1 56.4 C 421.1 56.4 428.8 56.4 428.8 56.4 C 428.7 54.2 427.2 52.7 425.1 52.7 C 422.6 52.7 421.5 54.1 421.1 56.4 Z M 440.3 52 C 440.3 52 440.4 51.95 440.4 52 C 441.6 50.1 443.2 49.1 445.6 49.1 C 449.2 49.1 451.6 51.8 451.6 55.6 C 451.58 55.62 451.6 67 451.6 67 L 447 67 C 447 67 446.96 56.3 447 56.3 C 447 54.4 445.9 53.1 443.9 53.1 C 441.9 53.1 440.4 54.7 440.4 57.1 C 440.4 57.12 440.4 67 440.4 67 L 435.8 67 L 435.8 49.6 L 440.3 49.6 L 440.3 52 Z M 453.1 49.6 L 455.5 49.6 L 455.5 44.1 L 460 44.1 L 460 49.6 L 463 49.6 L 463 52.6 L 460 52.6 C 460 52.6 460.02 61.88 460 61.9 C 460 63.2 460.7 63.6 461.7 63.6 C 462.33 63.61 463.1 63.6 463.1 63.6 L 463.1 67 C 463.1 67 462.06 67.05 460.2 67 C 458 67 455.5 66.2 455.5 62.9 C 455.49 62.87 455.5 52.6 455.5 52.6 L 453.1 52.6 L 453.1 49.6 Z " stroke="none" fill="#000"/>  </g>  <g id="Polygon7420">    <path d="M 213.2 17.5 C 213.2 12.1 216.3 8.3 220.7 8.3 C 223.1 8.3 224.6 9.4 225.6 10.9 C 225.59 10.88 225.7 10.9 225.7 10.9 L 225.7 1.9 L 230.3 1.9 L 230.3 26.2 L 225.9 26.2 L 225.9 23.9 C 225.9 23.9 225.79 23.94 225.8 23.9 C 224.8 25.6 223 26.7 220.6 26.7 C 216.2 26.7 213.2 23.2 213.2 17.5 Z M 225.8 17.6 C 225.8 14.3 224.7 12 221.7 12 C 219.2 12 217.9 14.3 217.9 17.5 C 217.9 20.9 219.2 22.8 221.6 22.8 C 224.4 22.8 225.8 20.8 225.8 17.6 Z M 232.5 17.5 C 232.5 12.3 236 8.3 241.1 8.3 C 246.7 8.3 249.7 12.6 249.7 18.8 C 249.7 18.8 237 18.8 237 18.8 C 237.4 21.5 238.8 23.2 241.5 23.2 C 243.3 23.2 244.3 22.3 244.8 21 C 244.8 21 249.4 21 249.4 21 C 248.7 24.1 246 26.7 241.5 26.7 C 235.7 26.7 232.5 22.7 232.5 17.5 Z M 237.1 15.6 C 237.1 15.6 244.8 15.6 244.8 15.6 C 244.7 13.4 243.2 11.9 241.1 11.9 C 238.7 11.9 237.5 13.3 237.1 15.6 Z M 250.7 20.6 C 250.7 20.6 255 20.6 255 20.6 C 255.3 22.6 256.7 23.5 258.8 23.5 C 260.8 23.5 262 22.7 262 21.5 C 262 19.8 259.8 19.6 257.4 19.1 C 254.3 18.5 251.2 17.7 251.2 13.9 C 251.2 10.1 254.4 8.3 258.3 8.3 C 262.9 8.3 265.5 10.6 265.8 14.1 C 265.8 14.1 261.6 14.1 261.6 14.1 C 261.4 12.2 260.2 11.5 258.3 11.5 C 256.5 11.5 255.3 12.2 255.3 13.5 C 255.3 15 257.6 15.1 260.1 15.6 C 263 16.2 266.2 17 266.2 21.1 C 266.2 24.6 263.2 26.7 258.9 26.7 C 253.8 26.7 251 24.3 250.7 20.6 Z M 268.3 8.8 L 272.9 8.8 L 272.9 26.2 L 268.3 26.2 L 268.3 8.8 Z M 268.3 1.9 L 272.9 1.9 L 272.9 6.1 L 268.3 6.1 L 268.3 1.9 Z M 275.4 26.7 C 275.4 26.7 280 26.7 280 26.7 C 280.4 27.8 281.4 28.7 283.5 28.7 C 286.1 28.7 287.4 27.4 287.4 25 C 287.4 25.02 287.4 23.1 287.4 23.1 C 287.4 23.1 287.3 23.12 287.3 23.1 C 286.3 24.3 285 25.2 282.7 25.2 C 278.9 25.2 275.1 22.1 275.1 16.8 C 275.1 11.6 278.2 8.3 282.6 8.3 C 284.8 8.3 286.4 9.1 287.4 10.6 C 287.43 10.61 287.5 10.6 287.5 10.6 L 287.5 8.8 L 292 8.8 C 292 8.8 291.96 24.89 292 24.9 C 292 27.3 291.2 29 289.9 30.2 C 288.4 31.6 286.2 32.2 283.6 32.2 C 278.8 32.2 275.9 30.1 275.4 26.7 Z M 287.6 16.7 C 287.6 14.2 286.3 12 283.5 12 C 281.1 12 279.6 13.8 279.6 16.8 C 279.6 19.7 281.1 21.5 283.5 21.5 C 286.4 21.5 287.6 19.3 287.6 16.7 Z M 299.5 11.2 C 299.5 11.2 299.57 11.15 299.6 11.2 C 300.8 9.3 302.4 8.3 304.7 8.3 C 308.3 8.3 310.8 11 310.8 14.8 C 310.76 14.82 310.8 26.2 310.8 26.2 L 306.1 26.2 C 306.1 26.2 306.13 15.5 306.1 15.5 C 306.1 13.6 305 12.3 303.1 12.3 C 301.1 12.3 299.6 13.9 299.6 16.3 C 299.57 16.32 299.6 26.2 299.6 26.2 L 294.9 26.2 L 294.9 8.8 L 299.5 8.8 L 299.5 11.2 Z M 329.8 24.3 C 329.8 24.3 329.7 24.3 329.7 24.3 C 328.8 25.6 327.6 26.6 324.6 26.6 C 321 26.6 318.5 24.8 318.5 21.3 C 318.5 17.4 321.6 16.2 325.5 15.7 C 328.4 15.3 329.7 15 329.7 13.7 C 329.7 12.4 328.7 11.6 326.8 11.6 C 324.6 11.6 323.5 12.4 323.4 14.1 C 323.4 14.1 319.3 14.1 319.3 14.1 C 319.4 11 321.7 8.3 326.8 8.3 C 332 8.3 334.1 10.7 334.1 14.8 C 334.1 14.8 334.1 23.6 334.1 23.6 C 334.1 25 334.4 25.7 334.8 26 C 334.76 26.04 334.8 26.2 334.8 26.2 C 334.8 26.2 330.31 26.21 330.3 26.2 C 330 25.9 329.9 25.1 329.8 24.3 Z M 329.8 20.1 C 329.8 20.1 329.8 17.4 329.8 17.4 C 329 17.9 327.7 18.2 326.6 18.5 C 324.2 19 323 19.5 323 21.2 C 323 22.8 324.1 23.4 325.7 23.4 C 328.3 23.4 329.8 21.8 329.8 20.1 Z M 341.7 20.6 C 341.7 20.6 346 20.6 346 20.6 C 346.3 22.6 347.7 23.5 349.8 23.5 C 351.8 23.5 353 22.7 353 21.5 C 353 19.8 350.8 19.6 348.4 19.1 C 345.3 18.5 342.2 17.7 342.2 13.9 C 342.2 10.1 345.3 8.3 349.3 8.3 C 353.9 8.3 356.5 10.6 356.8 14.1 C 356.8 14.1 352.6 14.1 352.6 14.1 C 352.4 12.2 351.2 11.5 349.2 11.5 C 347.4 11.5 346.3 12.2 346.3 13.5 C 346.3 15 348.6 15.1 351 15.6 C 354 16.2 357.2 17 357.2 21.1 C 357.2 24.6 354.2 26.7 349.9 26.7 C 344.8 26.7 342 24.3 341.7 20.6 Z M 371.2 24.2 C 371.2 24.2 371.17 24.24 371.2 24.2 C 370.3 25.6 368.8 26.7 366.4 26.7 C 362.2 26.7 358.9 23.2 358.9 17.5 C 358.9 12.1 361.8 8.3 366.4 8.3 C 368.8 8.3 370.3 9.3 371.3 10.9 C 371.31 10.95 371.4 10.9 371.4 10.9 L 371.4 8.8 L 375.9 8.8 L 375.9 31.9 L 371.2 31.9 L 371.2 24.2 Z M 371.3 17.6 C 371.3 14.5 370.2 12 367.4 12 C 364.5 12 363.6 14.3 363.6 17.6 C 363.6 20.9 365 22.8 367.4 22.8 C 369.8 22.8 371.3 20.8 371.3 17.6 Z M 389.9 26.2 L 389.9 24.2 C 389.9 24.2 389.77 24.17 389.8 24.2 C 388.6 25.8 387.2 26.7 384.8 26.7 C 380.9 26.7 378.7 24.2 378.7 20.4 C 378.72 20.4 378.7 8.8 378.7 8.8 L 383.3 8.8 C 383.3 8.8 383.31 19.62 383.3 19.6 C 383.3 21.7 384.2 22.8 386.2 22.8 C 388.4 22.8 389.7 21.1 389.7 18.8 C 389.7 18.84 389.7 8.8 389.7 8.8 L 394.3 8.8 L 394.3 26.2 L 389.9 26.2 Z M 397.3 8.8 L 401.9 8.8 L 401.9 26.2 L 397.3 26.2 L 397.3 8.8 Z M 397.3 1.9 L 401.9 1.9 L 401.9 6.1 L 397.3 6.1 L 397.3 1.9 Z M 409.4 11.6 C 409.4 11.6 409.49 11.56 409.5 11.6 C 410.5 9.6 411.7 8.6 413.8 8.6 C 414.3 8.6 414.6 8.6 414.9 8.7 C 414.86 8.7 414.9 12.7 414.9 12.7 C 414.9 12.7 414.76 12.75 414.8 12.7 C 411.7 12.4 409.6 14 409.6 17.7 C 409.56 17.71 409.6 26.2 409.6 26.2 L 404.9 26.2 L 404.9 8.8 L 409.4 8.8 L 409.4 11.6 Z M 416 8.8 L 418.4 8.8 L 418.4 3.3 L 423 3.3 L 423 8.8 L 425.9 8.8 L 425.9 11.8 L 423 11.8 C 423 11.8 422.96 21.08 423 21.1 C 423 22.4 423.7 22.8 424.7 22.8 C 425.27 22.81 426 22.8 426 22.8 L 426 26.2 C 426 26.2 425 26.25 423.2 26.2 C 420.9 26.2 418.4 25.4 418.4 22.1 C 418.43 22.07 418.4 11.8 418.4 11.8 L 416 11.8 L 416 8.8 Z " stroke="none" fill="#000"/>  </g>  <g id="Polygon7419">    <path d="M 1.9 1.9 L 6.8 1.9 L 6.8 11.4 L 16.4 11.4 L 16.4 1.9 L 21.3 1.9 L 21.3 26.2 L 16.4 26.2 L 16.4 15.5 L 6.8 15.5 L 6.8 26.2 L 1.9 26.2 L 1.9 1.9 Z M 23.8 17.5 C 23.8 12.3 27.5 8.3 32.9 8.3 C 38.3 8.3 42 12.3 42 17.5 C 42 22.7 38.3 26.7 32.9 26.7 C 27.5 26.7 23.8 22.7 23.8 17.5 Z M 37.3 17.5 C 37.3 14.1 35.7 11.8 32.9 11.8 C 30.1 11.8 28.5 14.1 28.5 17.5 C 28.5 20.9 30.1 23.2 32.9 23.2 C 35.7 23.2 37.3 20.9 37.3 17.5 Z M 42.3 8.8 L 46.9 8.8 C 46.9 8.8 48.99 16.86 49 16.9 C 49.37 18.29 49.8 20.1 49.8 20.1 L 49.8 20.1 C 49.8 20.1 50.22 18.26 50.6 16.8 C 50.59 16.83 52.8 8.8 52.8 8.8 L 56.7 8.8 C 56.7 8.8 58.99 16.83 59 16.8 C 59.36 18.29 59.8 20.1 59.8 20.1 L 59.9 20.1 C 59.9 20.1 60.28 18.29 60.7 16.9 C 60.66 16.86 62.9 8.8 62.9 8.8 L 67.4 8.8 L 62.2 26.2 L 57.9 26.2 C 57.9 26.2 55.62 17.65 55.6 17.6 C 55.25 16.25 54.8 14.6 54.8 14.6 L 54.8 14.6 C 54.8 14.6 54.33 16.25 54 17.6 C 53.96 17.65 51.6 26.2 51.6 26.2 L 47.4 26.2 L 42.3 8.8 Z M 74.7 8.8 L 79.2 8.8 L 79.2 11.1 C 79.2 11.1 79.25 11.12 79.3 11.1 C 80.2 9.5 81.9 8.3 84.3 8.3 C 86.5 8.3 88.3 9.5 89.1 11.4 C 89.1 11.4 89.2 11.4 89.2 11.4 C 90.4 9.5 92.2 8.3 94.5 8.3 C 98.1 8.3 100.2 10.7 100.2 14.5 C 100.2 14.48 100.2 26.2 100.2 26.2 L 95.6 26.2 C 95.6 26.2 95.57 15.27 95.6 15.3 C 95.6 13.3 94.6 12.3 92.9 12.3 C 90.9 12.3 89.8 13.8 89.8 16.1 C 89.76 16.08 89.8 26.2 89.8 26.2 L 85.1 26.2 C 85.1 26.2 85.14 15.27 85.1 15.3 C 85.1 13.3 84.1 12.3 82.4 12.3 C 80.6 12.3 79.3 13.8 79.3 16.1 C 79.32 16.08 79.3 26.2 79.3 26.2 L 74.7 26.2 L 74.7 8.8 Z M 103.1 8.8 L 107.7 8.8 L 107.7 26.2 L 103.1 26.2 L 103.1 8.8 Z M 103.1 1.9 L 107.7 1.9 L 107.7 6.1 L 103.1 6.1 L 103.1 1.9 Z M 110.2 26.7 C 110.2 26.7 114.8 26.7 114.8 26.7 C 115.2 27.8 116.1 28.7 118.3 28.7 C 120.9 28.7 122.2 27.4 122.2 25 C 122.16 25.02 122.2 23.1 122.2 23.1 C 122.2 23.1 122.06 23.12 122.1 23.1 C 121 24.3 119.7 25.2 117.5 25.2 C 113.6 25.2 109.8 22.1 109.8 16.8 C 109.8 11.6 112.9 8.3 117.4 8.3 C 119.5 8.3 121.1 9.1 122.2 10.6 C 122.2 10.61 122.3 10.6 122.3 10.6 L 122.3 8.8 L 126.7 8.8 C 126.7 8.8 126.72 24.89 126.7 24.9 C 126.7 27.3 125.9 29 124.6 30.2 C 123.2 31.6 120.9 32.2 118.4 32.2 C 113.6 32.2 110.7 30.1 110.2 26.7 Z M 122.4 16.7 C 122.4 14.2 121 12 118.3 12 C 115.9 12 114.3 13.8 114.3 16.8 C 114.3 19.7 115.9 21.5 118.3 21.5 C 121.2 21.5 122.4 19.3 122.4 16.7 Z M 134.3 11 C 134.3 11 134.44 11.05 134.4 11 C 135.7 9.2 137.1 8.3 139.5 8.3 C 143.1 8.3 145.5 11 145.5 14.8 C 145.52 14.82 145.5 26.2 145.5 26.2 L 140.9 26.2 C 140.9 26.2 140.9 15.5 140.9 15.5 C 140.9 13.6 139.8 12.3 137.9 12.3 C 135.8 12.3 134.3 13.9 134.3 16.3 C 134.33 16.32 134.3 26.2 134.3 26.2 L 129.7 26.2 L 129.7 1.9 L 134.3 1.9 L 134.3 11 Z M 147 8.8 L 149.4 8.8 L 149.4 3.3 L 154 3.3 L 154 8.8 L 156.9 8.8 L 156.9 11.8 L 154 11.8 C 154 11.8 153.95 21.08 154 21.1 C 154 22.4 154.7 22.8 155.7 22.8 C 156.26 22.81 157 22.8 157 22.8 L 157 26.2 C 157 26.2 155.99 26.25 154.2 26.2 C 151.9 26.2 149.4 25.4 149.4 22.1 C 149.43 22.07 149.4 11.8 149.4 11.8 L 147 11.8 L 147 8.8 Z M 163.7 8.8 L 168.3 8.8 C 168.3 8.8 170.37 16.86 170.4 16.9 C 170.75 18.29 171.2 20.1 171.2 20.1 L 171.2 20.1 C 171.2 20.1 171.6 18.26 172 16.8 C 171.97 16.83 174.1 8.8 174.1 8.8 L 178.1 8.8 C 178.1 8.8 180.37 16.83 180.4 16.8 C 180.74 18.29 181.2 20.1 181.2 20.1 L 181.3 20.1 C 181.3 20.1 181.66 18.29 182 16.9 C 182.03 16.86 184.2 8.8 184.2 8.8 L 188.7 8.8 L 183.5 26.2 L 179.3 26.2 C 179.3 26.2 177 17.65 177 17.6 C 176.63 16.25 176.2 14.6 176.2 14.6 L 176.2 14.6 C 176.2 14.6 175.71 16.25 175.3 17.6 C 175.34 17.65 173 26.2 173 26.2 L 168.8 26.2 L 163.7 8.8 Z M 189 17.5 C 189 12.3 192.5 8.3 197.6 8.3 C 203.2 8.3 206.2 12.6 206.2 18.8 C 206.2 18.8 193.6 18.8 193.6 18.8 C 193.9 21.5 195.4 23.2 198 23.2 C 199.8 23.2 200.9 22.3 201.4 21 C 201.4 21 205.9 21 205.9 21 C 205.3 24.1 202.5 26.7 198 26.7 C 192.3 26.7 189 22.7 189 17.5 Z M 193.6 15.6 C 193.6 15.6 201.4 15.6 201.4 15.6 C 201.2 13.4 199.8 11.9 197.7 11.9 C 195.2 11.9 194 13.3 193.6 15.6 Z " stroke="none" fill="#fff"/>  </g></svg>