<?xml version="1.0" standalone="no"?><!DOCTYPE svg PUBLIC "-//W3C//DTD SVG 1.1//EN" "http://www.w3.org/Graphics/SVG/1.1/DTD/svg11.dtd"><svg xmlns="http://www.w3.org/2000/svg" version="1.1" width="370.1px" height="28.2px" viewBox="0 -3 370.1 28.2" style="top:-3px">  <desc>Art Deco Burr Coffee Grinder Project</desc>  <defs/>  <g id="Polygon2844">    <path d="M 3.5 0.8 L 5.6 0.8 L 9.2 10.8 L 7 10.8 L 6.4 8.7 L 2.8 8.7 L 2.1 10.8 L 0 10.8 L 3.5 0.8 Z M 3.2 7.1 L 5.9 7.1 C 5.9 7.1 4.98 4.23 5 4.2 C 4.82 3.7 4.6 2.7 4.6 2.7 L 4.5 2.7 C 4.5 2.7 4.3 3.7 4.1 4.2 C 4.13 4.23 3.2 7.1 3.2 7.1 Z M 11.7 4.8 C 11.7 4.8 11.72 4.76 11.7 4.8 C 12.2 3.9 12.6 3.5 13.5 3.5 C 13.7 3.5 13.8 3.5 13.9 3.6 C 13.93 3.58 13.9 5.3 13.9 5.3 C 13.9 5.3 13.89 5.25 13.9 5.3 C 12.6 5.1 11.7 5.8 11.7 7.3 C 11.75 7.29 11.7 10.8 11.7 10.8 L 9.8 10.8 L 9.8 3.6 L 11.7 3.6 L 11.7 4.8 Z M 14.4 3.6 L 15.4 3.6 L 15.4 1.4 L 17.3 1.4 L 17.3 3.6 L 18.5 3.6 L 18.5 4.9 L 17.3 4.9 C 17.3 4.9 17.26 8.67 17.3 8.7 C 17.3 9.2 17.6 9.4 18 9.4 C 18.21 9.38 18.5 9.4 18.5 9.4 L 18.5 10.8 C 18.5 10.8 18.1 10.79 17.3 10.8 C 16.4 10.8 15.4 10.4 15.4 9.1 C 15.4 9.07 15.4 4.9 15.4 4.9 L 14.4 4.9 L 14.4 3.6 Z M 22 0.8 C 22 0.8 25.89 0.78 25.9 0.8 C 28.6 0.8 30.3 2.9 30.3 5.9 C 30.3 7.5 29.7 8.9 28.7 9.8 C 27.9 10.4 27 10.8 25.7 10.8 C 25.72 10.79 22 10.8 22 10.8 L 22 0.8 Z M 25.6 9 C 27.5 9 28.2 7.9 28.2 5.9 C 28.2 3.9 27.4 2.5 25.6 2.5 C 25.63 2.52 24 2.5 24 2.5 L 24 9 C 24 9 25.58 9.04 25.6 9 Z M 30.9 7.2 C 30.9 5.1 32.3 3.4 34.4 3.4 C 36.7 3.4 38 5.2 38 7.7 C 38 7.7 32.8 7.7 32.8 7.7 C 32.9 8.8 33.5 9.5 34.6 9.5 C 35.3 9.5 35.8 9.2 36 8.7 C 36 8.7 37.9 8.7 37.9 8.7 C 37.6 9.9 36.5 11 34.6 11 C 32.2 11 30.9 9.3 30.9 7.2 Z M 32.8 6.4 C 32.8 6.4 36 6.4 36 6.4 C 35.9 5.5 35.3 4.9 34.5 4.9 C 33.4 4.9 33 5.5 32.8 6.4 Z M 38.5 7.2 C 38.5 5.1 39.9 3.4 42.1 3.4 C 43.9 3.4 45.1 4.5 45.3 6 C 45.3 6 43.5 6 43.5 6 C 43.4 5.4 42.9 4.9 42.2 4.9 C 41 4.9 40.4 5.8 40.4 7.2 C 40.4 8.6 41 9.5 42.1 9.5 C 42.9 9.5 43.5 9.1 43.6 8.3 C 43.6 8.3 45.4 8.3 45.4 8.3 C 45.3 9.8 44.1 11 42.2 11 C 39.9 11 38.5 9.4 38.5 7.2 Z M 45.9 7.2 C 45.9 5.1 47.4 3.4 49.6 3.4 C 51.9 3.4 53.4 5.1 53.4 7.2 C 53.4 9.4 51.9 11 49.6 11 C 47.4 11 45.9 9.4 45.9 7.2 Z M 51.5 7.2 C 51.5 5.8 50.8 4.9 49.6 4.9 C 48.5 4.9 47.8 5.8 47.8 7.2 C 47.8 8.6 48.5 9.5 49.6 9.5 C 50.8 9.5 51.5 8.6 51.5 7.2 Z M 56.8 0.8 C 56.8 0.8 61.26 0.78 61.3 0.8 C 62.3 0.8 63.2 1.1 63.7 1.5 C 64.2 2 64.5 2.6 64.5 3.4 C 64.5 4.4 63.9 5.1 62.9 5.4 C 62.9 5.4 62.9 5.4 62.9 5.4 C 64 5.8 64.8 6.7 64.8 7.9 C 64.8 8.8 64.5 9.5 63.9 10 C 63.3 10.5 62.4 10.8 61.4 10.8 C 61.38 10.79 56.8 10.8 56.8 10.8 L 56.8 0.8 Z M 58.8 9.1 C 58.8 9.1 61.15 9.11 61.2 9.1 C 62.1 9.1 62.7 8.6 62.7 7.8 C 62.7 6.8 62 6.3 61.1 6.3 C 61.1 6.31 58.8 6.3 58.8 6.3 L 58.8 9.1 Z M 61 4.8 C 61.9 4.8 62.5 4.4 62.5 3.6 C 62.5 2.9 61.9 2.4 61.1 2.4 C 61.05 2.44 58.8 2.4 58.8 2.4 L 58.8 4.8 C 58.8 4.8 61.01 4.82 61 4.8 Z M 70.3 10.8 L 70.3 10 C 70.3 10 70.31 9.95 70.3 10 C 69.8 10.6 69.3 11 68.2 11 C 66.7 11 65.8 10 65.8 8.4 C 65.76 8.4 65.8 3.6 65.8 3.6 L 67.6 3.6 C 67.6 3.6 67.65 8.08 67.6 8.1 C 67.6 8.9 68 9.4 68.8 9.4 C 69.7 9.4 70.3 8.7 70.3 7.8 C 70.28 7.76 70.3 3.6 70.3 3.6 L 72.2 3.6 L 72.2 10.8 L 70.3 10.8 Z M 75.2 4.8 C 75.2 4.8 75.29 4.76 75.3 4.8 C 75.7 3.9 76.2 3.5 77.1 3.5 C 77.3 3.5 77.4 3.5 77.5 3.6 C 77.5 3.58 77.5 5.3 77.5 5.3 C 77.5 5.3 77.46 5.25 77.5 5.3 C 76.2 5.1 75.3 5.8 75.3 7.3 C 75.32 7.29 75.3 10.8 75.3 10.8 L 73.4 10.8 L 73.4 3.6 L 75.2 3.6 L 75.2 4.8 Z M 80.2 4.8 C 80.2 4.8 80.2 4.76 80.2 4.8 C 80.6 3.9 81.1 3.5 82 3.5 C 82.2 3.5 82.3 3.5 82.4 3.6 C 82.42 3.58 82.4 5.3 82.4 5.3 C 82.4 5.3 82.37 5.25 82.4 5.3 C 81.1 5.1 80.2 5.8 80.2 7.3 C 80.23 7.29 80.2 10.8 80.2 10.8 L 78.3 10.8 L 78.3 3.6 L 80.2 3.6 L 80.2 4.8 Z M 85.3 5.8 C 85.3 2.9 87.2 0.6 90.1 0.6 C 92.6 0.6 94 2.1 94.2 4 C 94.2 4 92.2 4 92.2 4 C 92 3 91.3 2.3 90.1 2.3 C 88.3 2.3 87.4 3.8 87.4 5.8 C 87.4 7.9 88.5 9.3 90.1 9.3 C 91.3 9.3 92.2 8.6 92.3 7.6 C 92.3 7.6 94.3 7.6 94.3 7.6 C 94.2 8.5 93.8 9.3 93.2 9.9 C 92.5 10.6 91.5 11 90.1 11 C 87.3 11 85.3 8.8 85.3 5.8 Z M 94.9 7.2 C 94.9 5.1 96.4 3.4 98.6 3.4 C 100.9 3.4 102.4 5.1 102.4 7.2 C 102.4 9.4 100.9 11 98.6 11 C 96.4 11 94.9 9.4 94.9 7.2 Z M 100.5 7.2 C 100.5 5.8 99.8 4.9 98.6 4.9 C 97.5 4.9 96.8 5.8 96.8 7.2 C 96.8 8.6 97.5 9.5 98.6 9.5 C 99.8 9.5 100.5 8.6 100.5 7.2 Z M 102.7 3.6 L 103.7 3.6 C 103.7 3.6 103.7 3.02 103.7 3 C 103.7 1.3 105.1 0.6 106.8 0.8 C 106.8 0.8 106.8 2.3 106.8 2.3 C 106 2.3 105.6 2.4 105.6 3.1 C 105.6 3.13 105.6 3.6 105.6 3.6 L 107.7 3.6 C 107.7 3.6 107.74 2.97 107.7 3 C 107.7 1.2 109.1 0.6 110.9 0.8 C 110.9 0.8 110.9 2.3 110.9 2.3 C 110 2.2 109.6 2.3 109.6 3.1 C 109.65 3.08 109.6 3.6 109.6 3.6 L 110.9 3.6 L 110.9 4.9 L 109.6 4.9 L 109.6 10.8 L 107.7 10.8 L 107.7 4.9 L 105.6 4.9 L 105.6 10.8 L 103.7 10.8 L 103.7 4.9 L 102.7 4.9 L 102.7 3.6 Z M 111.2 7.2 C 111.2 5.1 112.7 3.4 114.8 3.4 C 117.1 3.4 118.3 5.2 118.3 7.7 C 118.3 7.7 113.1 7.7 113.1 7.7 C 113.3 8.8 113.9 9.5 115 9.5 C 115.7 9.5 116.1 9.2 116.3 8.7 C 116.3 8.7 118.2 8.7 118.2 8.7 C 117.9 9.9 116.8 11 115 11 C 112.6 11 111.2 9.3 111.2 7.2 Z M 113.1 6.4 C 113.1 6.4 116.3 6.4 116.3 6.4 C 116.3 5.5 115.7 4.9 114.8 4.9 C 113.8 4.9 113.3 5.5 113.1 6.4 Z M 118.9 7.2 C 118.9 5.1 120.3 3.4 122.4 3.4 C 124.7 3.4 125.9 5.2 125.9 7.7 C 125.9 7.7 120.7 7.7 120.7 7.7 C 120.9 8.8 121.5 9.5 122.6 9.5 C 123.3 9.5 123.7 9.2 124 8.7 C 124 8.7 125.8 8.7 125.8 8.7 C 125.6 9.9 124.4 11 122.6 11 C 120.2 11 118.9 9.3 118.9 7.2 Z M 120.8 6.4 C 120.8 6.4 124 6.4 124 6.4 C 123.9 5.5 123.3 4.9 122.4 4.9 C 121.4 4.9 120.9 5.5 120.8 6.4 Z M 136.6 9.5 C 136.6 9.5 136.57 9.45 136.6 9.5 C 135.9 10.6 134.9 11 133.8 11 C 132.2 11 131.1 10.5 130.2 9.5 C 129.4 8.6 128.9 7.3 128.9 5.8 C 128.9 4.2 129.5 2.7 130.6 1.7 C 131.4 1 132.5 0.6 133.8 0.6 C 136.3 0.6 137.8 2 138.1 3.9 C 138.1 3.9 136.1 3.9 136.1 3.9 C 135.9 3 135.1 2.3 133.8 2.3 C 131.9 2.3 131 3.8 131 5.8 C 131 7.9 132.1 9.4 133.8 9.4 C 135.4 9.4 136.4 8.2 136.4 7.1 C 136.39 7.1 136.4 7 136.4 7 L 134 7 L 134 5.5 L 138.2 5.5 L 138.2 10.8 L 136.7 10.8 L 136.6 9.5 Z M 141.3 4.8 C 141.3 4.8 141.33 4.76 141.3 4.8 C 141.8 3.9 142.3 3.5 143.1 3.5 C 143.3 3.5 143.4 3.5 143.5 3.6 C 143.54 3.58 143.5 5.3 143.5 5.3 C 143.5 5.3 143.5 5.25 143.5 5.3 C 142.3 5.1 141.4 5.8 141.4 7.3 C 141.36 7.29 141.4 10.8 141.4 10.8 L 139.5 10.8 L 139.5 3.6 L 141.3 3.6 L 141.3 4.8 Z M 144.4 3.6 L 146.3 3.6 L 146.3 10.8 L 144.4 10.8 L 144.4 3.6 Z M 144.4 0.8 L 146.3 0.8 L 146.3 2.5 L 144.4 2.5 L 144.4 0.8 Z M 149.4 4.6 C 149.4 4.6 149.41 4.59 149.4 4.6 C 149.9 3.8 150.6 3.4 151.5 3.4 C 153 3.4 154 4.5 154 6.1 C 154.01 6.1 154 10.8 154 10.8 L 152.1 10.8 C 152.1 10.8 152.11 6.38 152.1 6.4 C 152.1 5.6 151.7 5.1 150.9 5.1 C 150 5.1 149.4 5.7 149.4 6.7 C 149.41 6.72 149.4 10.8 149.4 10.8 L 147.5 10.8 L 147.5 3.6 L 149.4 3.6 L 149.4 4.6 Z M 154.8 7.2 C 154.8 5 156.1 3.4 157.9 3.4 C 158.9 3.4 159.5 3.9 159.9 4.5 C 159.93 4.48 160 4.5 160 4.5 L 160 0.8 L 161.9 0.8 L 161.9 10.8 L 160 10.8 L 160 9.9 C 160 9.9 160.02 9.86 160 9.9 C 159.6 10.5 158.9 11 157.9 11 C 156.1 11 154.8 9.5 154.8 7.2 Z M 160 7.3 C 160 5.9 159.6 5 158.4 5 C 157.3 5 156.8 5.9 156.8 7.2 C 156.8 8.6 157.3 9.4 158.3 9.4 C 159.4 9.4 160 8.6 160 7.3 Z M 162.8 7.2 C 162.8 5.1 164.2 3.4 166.3 3.4 C 168.6 3.4 169.8 5.2 169.8 7.7 C 169.8 7.7 164.6 7.7 164.6 7.7 C 164.8 8.8 165.4 9.5 166.5 9.5 C 167.2 9.5 167.6 9.2 167.9 8.7 C 167.9 8.7 169.7 8.7 169.7 8.7 C 169.5 9.9 168.3 11 166.5 11 C 164.1 11 162.8 9.3 162.8 7.2 Z M 164.7 6.4 C 164.7 6.4 167.9 6.4 167.9 6.4 C 167.8 5.5 167.2 4.9 166.3 4.9 C 165.3 4.9 164.8 5.5 164.7 6.4 Z M 172.6 4.8 C 172.6 4.8 172.6 4.76 172.6 4.8 C 173 3.9 173.5 3.5 174.4 3.5 C 174.6 3.5 174.7 3.5 174.8 3.6 C 174.82 3.58 174.8 5.3 174.8 5.3 C 174.8 5.3 174.77 5.25 174.8 5.3 C 173.5 5.1 172.6 5.8 172.6 7.3 C 172.63 7.29 172.6 10.8 172.6 10.8 L 170.7 10.8 L 170.7 3.6 L 172.6 3.6 L 172.6 4.8 Z M 178.1 0.8 C 178.1 0.8 182.54 0.78 182.5 0.8 C 183.7 0.8 184.6 1.1 185.2 1.7 C 185.7 2.3 186.1 3.1 186.1 4 C 186.1 5.9 184.8 7.2 182.7 7.2 C 182.71 7.17 180.2 7.2 180.2 7.2 L 180.2 10.8 L 178.1 10.8 L 178.1 0.8 Z M 180.2 5.5 C 180.2 5.5 182.35 5.52 182.3 5.5 C 183.4 5.5 184 4.9 184 4 C 184 3.1 183.4 2.5 182.4 2.5 C 182.38 2.55 180.2 2.5 180.2 2.5 L 180.2 5.5 Z M 188.7 4.8 C 188.7 4.8 188.79 4.76 188.8 4.8 C 189.2 3.9 189.7 3.5 190.6 3.5 C 190.8 3.5 190.9 3.5 191 3.6 C 191 3.58 191 5.3 191 5.3 C 191 5.3 190.96 5.25 191 5.3 C 189.7 5.1 188.8 5.8 188.8 7.3 C 188.81 7.29 188.8 10.8 188.8 10.8 L 186.9 10.8 L 186.9 3.6 L 188.7 3.6 L 188.7 4.8 Z M 191.3 7.2 C 191.3 5.1 192.8 3.4 195 3.4 C 197.2 3.4 198.8 5.1 198.8 7.2 C 198.8 9.4 197.2 11 195 11 C 192.8 11 191.3 9.4 191.3 7.2 Z M 196.8 7.2 C 196.8 5.8 196.2 4.9 195 4.9 C 193.8 4.9 193.2 5.8 193.2 7.2 C 193.2 8.6 193.8 9.5 195 9.5 C 196.2 9.5 196.8 8.6 196.8 7.2 Z M 198.5 13.1 C 198.5 13.1 198.5 11.7 198.5 11.7 C 199.2 11.7 199.7 11.6 199.7 11 C 199.65 10.96 199.7 3.6 199.7 3.6 L 201.6 3.6 C 201.6 3.6 201.55 11.06 201.6 11.1 C 201.6 11.9 201.4 12.3 201.1 12.6 C 200.7 13 200.2 13.1 199.5 13.1 C 199.2 13.1 198.8 13.1 198.5 13.1 Z M 199.7 0.8 L 201.6 0.8 L 201.6 2.5 L 199.7 2.5 L 199.7 0.8 Z M 202.4 7.2 C 202.4 5.1 203.9 3.4 206 3.4 C 208.3 3.4 209.5 5.2 209.5 7.7 C 209.5 7.7 204.3 7.7 204.3 7.7 C 204.5 8.8 205.1 9.5 206.1 9.5 C 206.9 9.5 207.3 9.2 207.5 8.7 C 207.5 8.7 209.4 8.7 209.4 8.7 C 209.1 9.9 208 11 206.2 11 C 203.8 11 202.4 9.3 202.4 7.2 Z M 204.3 6.4 C 204.3 6.4 207.5 6.4 207.5 6.4 C 207.5 5.5 206.9 4.9 206 4.9 C 205 4.9 204.5 5.5 204.3 6.4 Z M 210.1 7.2 C 210.1 5.1 211.5 3.4 213.6 3.4 C 215.5 3.4 216.6 4.5 216.9 6 C 216.9 6 215 6 215 6 C 214.9 5.4 214.4 4.9 213.7 4.9 C 212.6 4.9 212 5.8 212 7.2 C 212 8.6 212.5 9.5 213.7 9.5 C 214.5 9.5 215 9.1 215.1 8.3 C 215.1 8.3 217 8.3 217 8.3 C 216.8 9.8 215.7 11 213.7 11 C 211.5 11 210.1 9.4 210.1 7.2 Z M 217.4 3.6 L 218.4 3.6 L 218.4 1.4 L 220.2 1.4 L 220.2 3.6 L 221.5 3.6 L 221.5 4.9 L 220.2 4.9 C 220.2 4.9 220.23 8.67 220.2 8.7 C 220.2 9.2 220.5 9.4 220.9 9.4 C 221.18 9.38 221.5 9.4 221.5 9.4 L 221.5 10.8 C 221.5 10.8 221.07 10.79 220.3 10.8 C 219.4 10.8 218.4 10.4 218.4 9.1 C 218.37 9.07 218.4 4.9 218.4 4.9 L 217.4 4.9 L 217.4 3.6 Z " stroke="none" fill="#fff"/>  </g></svg>