<?xml version="1.0" standalone="no"?><!DOCTYPE svg PUBLIC "-//W3C//DTD SVG 1.1//EN" "http://www.w3.org/Graphics/SVG/1.1/DTD/svg11.dtd"><svg xmlns="http://www.w3.org/2000/svg" version="1.1" width="74.1px" height="29.6px" viewBox="0 -3 74.1 29.6" style="top:-3px">  <desc>Color Pod</desc>  <defs/>  <g id="Polygon9097">    <path d="M 0.6 6.7 C 0.6 3.3 2.7 0.7 6.1 0.7 C 8.7 0.7 10.4 2.2 10.7 4.4 C 10.7 4.4 9.2 4.4 9.2 4.4 C 9 2.9 7.8 2 6 2 C 3.5 2 2.1 4 2.1 6.7 C 2.1 9.5 3.7 11.4 6 11.4 C 8.2 11.4 9.2 9.9 9.4 8.2 C 9.4 8.2 10.8 8.2 10.8 8.2 C 10.8 9.3 10.2 10.6 9.4 11.4 C 8.6 12.2 7.5 12.6 6 12.6 C 2.8 12.6 0.6 10.1 0.6 6.7 Z M 11.8 8.3 C 11.8 5.9 13.3 3.9 15.8 3.9 C 18.2 3.9 19.7 5.9 19.7 8.3 C 19.7 10.7 18.2 12.6 15.8 12.6 C 13.3 12.6 11.8 10.7 11.8 8.3 Z M 18.4 8.3 C 18.4 6.4 17.5 5 15.8 5 C 14 5 13.1 6.4 13.1 8.3 C 13.1 10.1 14 11.5 15.8 11.5 C 17.5 11.5 18.4 10.1 18.4 8.3 Z M 21.1 1 L 22.4 1 L 22.4 12.4 L 21.1 12.4 L 21.1 1 Z M 23.7 8.3 C 23.7 5.9 25.3 3.9 27.7 3.9 C 30.2 3.9 31.7 5.9 31.7 8.3 C 31.7 10.7 30.2 12.6 27.7 12.6 C 25.3 12.6 23.7 10.7 23.7 8.3 Z M 30.4 8.3 C 30.4 6.4 29.5 5 27.7 5 C 26 5 25.1 6.4 25.1 8.3 C 25.1 10.1 26 11.5 27.7 11.5 C 29.5 11.5 30.4 10.1 30.4 8.3 Z M 34.3 5.5 C 34.3 5.5 34.34 5.5 34.3 5.5 C 34.8 4.7 35.7 4 36.8 4 C 37 4 37.2 4.1 37.3 4.1 C 37.33 4.13 37.3 5.4 37.3 5.4 C 37.3 5.4 37.28 5.38 37.3 5.4 C 37.1 5.3 37 5.3 36.7 5.3 C 35.4 5.3 34.3 6.3 34.3 7.8 C 34.3 7.81 34.3 12.4 34.3 12.4 L 33 12.4 L 33 4.1 L 34.3 4.1 L 34.3 5.5 Z M 41.2 1 C 41.2 1 46 0.96 46 1 C 47.2 1 48.1 1.4 48.7 2.1 C 49.2 2.6 49.5 3.4 49.5 4.2 C 49.5 6.3 48.3 7.6 45.8 7.6 C 45.79 7.6 42.7 7.6 42.7 7.6 L 42.7 12.4 L 41.2 12.4 L 41.2 1 Z M 42.7 6.4 C 42.7 6.4 45.68 6.43 45.7 6.4 C 47.3 6.4 48.1 5.6 48.1 4.3 C 48.1 2.9 47.2 2.2 45.8 2.2 C 45.76 2.21 42.7 2.2 42.7 2.2 L 42.7 6.4 Z M 50 8.3 C 50 5.9 51.5 3.9 54 3.9 C 56.5 3.9 58 5.9 58 8.3 C 58 10.7 56.5 12.6 54 12.6 C 51.5 12.6 50 10.7 50 8.3 Z M 56.6 8.3 C 56.6 6.4 55.7 5 54 5 C 52.2 5 51.3 6.4 51.3 8.3 C 51.3 10.1 52.2 11.5 54 11.5 C 55.7 11.5 56.6 10.1 56.6 8.3 Z M 58.8 8.3 C 58.8 5.5 60.4 3.9 62.4 3.9 C 63.6 3.9 64.5 4.5 65 5.3 C 65.02 5.3 65.1 5.3 65.1 5.3 L 65.1 1 L 66.4 1 L 66.4 12.4 L 65.1 12.4 L 65.1 11.4 C 65.1 11.4 65.02 11.39 65 11.4 C 64.4 12.2 63.6 12.6 62.5 12.6 C 60.2 12.6 58.8 10.9 58.8 8.3 Z M 65.1 8.3 C 65.1 6.4 64.2 5 62.5 5 C 60.9 5 60.1 6.4 60.1 8.3 C 60.1 10.2 60.9 11.6 62.5 11.6 C 64.4 11.6 65.1 10.2 65.1 8.3 Z " stroke="none" fill="#000"/>  </g></svg>