<?xml version="1.0" standalone="no"?><!DOCTYPE svg PUBLIC "-//W3C//DTD SVG 1.1//EN" "http://www.w3.org/Graphics/SVG/1.1/DTD/svg11.dtd"><svg xmlns="http://www.w3.org/2000/svg" version="1.1" width="120.2px" height="43.2px" viewBox="0 -3 120.2 43.2" style="top:-3px">  <desc>Electric Squirt Gun</desc>  <defs/>  <g id="Polygon8191">    <path d="M 3.6 0.8 L 10.9 0.8 L 10.9 2.5 L 5.6 2.5 L 5.6 4.7 L 10.3 4.7 L 10.3 6.4 L 5.6 6.4 L 5.6 9.1 L 11 9.1 L 11 10.8 L 3.6 10.8 L 3.6 0.8 Z M 12.1 0.8 L 14 0.8 L 14 10.8 L 12.1 10.8 L 12.1 0.8 Z M 14.9 7.2 C 14.9 5.1 16.4 3.4 18.5 3.4 C 20.8 3.4 22 5.2 22 7.7 C 22 7.7 16.8 7.7 16.8 7.7 C 17 8.8 17.6 9.5 18.6 9.5 C 19.4 9.5 19.8 9.2 20 8.7 C 20 8.7 21.9 8.7 21.9 8.7 C 21.6 9.9 20.5 11 18.7 11 C 16.3 11 14.9 9.3 14.9 7.2 Z M 16.8 6.4 C 16.8 6.4 20 6.4 20 6.4 C 20 5.5 19.4 4.9 18.5 4.9 C 17.5 4.9 17 5.5 16.8 6.4 Z M 22.6 7.2 C 22.6 5.1 24 3.4 26.1 3.4 C 28 3.4 29.1 4.5 29.4 6 C 29.4 6 27.5 6 27.5 6 C 27.4 5.4 26.9 4.9 26.2 4.9 C 25.1 4.9 24.5 5.8 24.5 7.2 C 24.5 8.6 25 9.5 26.2 9.5 C 27 9.5 27.5 9.1 27.6 8.3 C 27.6 8.3 29.5 8.3 29.5 8.3 C 29.3 9.8 28.2 11 26.2 11 C 24 11 22.6 9.4 22.6 7.2 Z M 29.9 3.6 L 30.9 3.6 L 30.9 1.4 L 32.7 1.4 L 32.7 3.6 L 34 3.6 L 34 4.9 L 32.7 4.9 C 32.7 4.9 32.73 8.67 32.7 8.7 C 32.7 9.2 33 9.4 33.4 9.4 C 33.68 9.38 34 9.4 34 9.4 L 34 10.8 C 34 10.8 33.57 10.79 32.8 10.8 C 31.9 10.8 30.9 10.4 30.9 9.1 C 30.87 9.07 30.9 4.9 30.9 4.9 L 29.9 4.9 L 29.9 3.6 Z M 36.8 4.8 C 36.8 4.8 36.82 4.76 36.8 4.8 C 37.3 3.9 37.7 3.5 38.6 3.5 C 38.8 3.5 38.9 3.5 39 3.6 C 39.03 3.58 39 5.3 39 5.3 C 39 5.3 38.99 5.25 39 5.3 C 37.7 5.1 36.8 5.8 36.8 7.3 C 36.85 7.29 36.8 10.8 36.8 10.8 L 34.9 10.8 L 34.9 3.6 L 36.8 3.6 L 36.8 4.8 Z M 39.9 3.6 L 41.8 3.6 L 41.8 10.8 L 39.9 10.8 L 39.9 3.6 Z M 39.9 0.8 L 41.8 0.8 L 41.8 2.5 L 39.9 2.5 L 39.9 0.8 Z M 42.6 7.2 C 42.6 5.1 44 3.4 46.2 3.4 C 48.1 3.4 49.2 4.5 49.5 6 C 49.5 6 47.6 6 47.6 6 C 47.5 5.4 47 4.9 46.3 4.9 C 45.2 4.9 44.6 5.8 44.6 7.2 C 44.6 8.6 45.1 9.5 46.3 9.5 C 47.1 9.5 47.6 9.1 47.7 8.3 C 47.7 8.3 49.6 8.3 49.6 8.3 C 49.4 9.8 48.2 11 46.3 11 C 44.1 11 42.6 9.4 42.6 7.2 Z M 52.4 7.7 C 52.4 7.7 54.4 7.7 54.4 7.7 C 54.6 8.9 55.3 9.4 56.7 9.4 C 57.7 9.4 58.6 9 58.6 8.1 C 58.6 7.1 57.7 6.9 56.2 6.6 C 54.4 6.2 52.7 5.7 52.7 3.6 C 52.7 1.6 54.3 0.6 56.6 0.6 C 58.8 0.6 60.3 1.7 60.4 3.7 C 60.4 3.7 58.5 3.7 58.5 3.7 C 58.4 2.7 57.6 2.2 56.5 2.2 C 55.5 2.2 54.7 2.7 54.7 3.4 C 54.7 4.2 55.4 4.4 56.9 4.8 C 59 5.2 60.7 5.7 60.7 7.9 C 60.7 9.9 59 11 56.8 11 C 54.1 11 52.5 9.8 52.4 7.7 Z M 66.6 10 C 66.6 10 66.55 9.98 66.6 10 C 66.2 10.6 65.6 11 64.6 11 C 62.9 11 61.5 9.5 61.5 7.2 C 61.5 5 62.7 3.4 64.6 3.4 C 65.6 3.4 66.2 3.8 66.6 4.5 C 66.61 4.51 66.7 4.5 66.7 4.5 L 66.7 3.6 L 68.5 3.6 L 68.5 13.1 L 66.6 13.1 L 66.6 10 Z M 66.6 7.3 C 66.6 6 66.2 4.9 65 4.9 C 63.8 4.9 63.4 5.9 63.4 7.3 C 63.4 8.6 64 9.4 65 9.4 C 66 9.4 66.6 8.6 66.6 7.3 Z M 74.3 10.8 L 74.3 10 C 74.3 10 74.21 9.95 74.2 10 C 73.7 10.6 73.2 11 72.2 11 C 70.6 11 69.7 10 69.7 8.4 C 69.66 8.4 69.7 3.6 69.7 3.6 L 71.6 3.6 C 71.6 3.6 71.55 8.08 71.6 8.1 C 71.6 8.9 71.9 9.4 72.7 9.4 C 73.6 9.4 74.2 8.7 74.2 7.8 C 74.18 7.76 74.2 3.6 74.2 3.6 L 76.1 3.6 L 76.1 10.8 L 74.3 10.8 Z M 77.3 3.6 L 79.2 3.6 L 79.2 10.8 L 77.3 10.8 L 77.3 3.6 Z M 77.3 0.8 L 79.2 0.8 L 79.2 2.5 L 77.3 2.5 L 77.3 0.8 Z M 82.3 4.8 C 82.3 4.8 82.33 4.76 82.3 4.8 C 82.8 3.9 83.3 3.5 84.1 3.5 C 84.3 3.5 84.4 3.5 84.5 3.6 C 84.54 3.58 84.5 5.3 84.5 5.3 C 84.5 5.3 84.5 5.25 84.5 5.3 C 83.3 5.1 82.4 5.8 82.4 7.3 C 82.36 7.29 82.4 10.8 82.4 10.8 L 80.5 10.8 L 80.5 3.6 L 82.3 3.6 L 82.3 4.8 Z M 85 3.6 L 86 3.6 L 86 1.4 L 87.9 1.4 L 87.9 3.6 L 89.1 3.6 L 89.1 4.9 L 87.9 4.9 C 87.9 4.9 87.87 8.67 87.9 8.7 C 87.9 9.2 88.2 9.4 88.6 9.4 C 88.83 9.38 89.1 9.4 89.1 9.4 L 89.1 10.8 C 89.1 10.8 88.71 10.79 88 10.8 C 87 10.8 86 10.4 86 9.1 C 86.01 9.07 86 4.9 86 4.9 L 85 4.9 L 85 3.6 Z M 99.9 9.5 C 99.9 9.5 99.83 9.45 99.8 9.5 C 99.1 10.6 98.2 11 97 11 C 95.5 11 94.3 10.5 93.5 9.5 C 92.7 8.6 92.2 7.3 92.2 5.8 C 92.2 4.2 92.8 2.7 93.8 1.7 C 94.7 1 95.7 0.6 97.1 0.6 C 99.6 0.6 101 2 101.3 3.9 C 101.3 3.9 99.4 3.9 99.4 3.9 C 99.1 3 98.4 2.3 97.1 2.3 C 95.2 2.3 94.3 3.8 94.3 5.8 C 94.3 7.9 95.4 9.4 97.1 9.4 C 98.6 9.4 99.7 8.2 99.7 7.1 C 99.65 7.1 99.7 7 99.7 7 L 97.2 7 L 97.2 5.5 L 101.5 5.5 L 101.5 10.8 L 99.9 10.8 L 99.9 9.5 Z M 107.3 10.8 L 107.3 10 C 107.3 10 107.21 9.95 107.2 10 C 106.7 10.6 106.2 11 105.2 11 C 103.6 11 102.7 10 102.7 8.4 C 102.66 8.4 102.7 3.6 102.7 3.6 L 104.5 3.6 C 104.5 3.6 104.55 8.08 104.5 8.1 C 104.5 8.9 104.9 9.4 105.7 9.4 C 106.6 9.4 107.2 8.7 107.2 7.8 C 107.18 7.76 107.2 3.6 107.2 3.6 L 109.1 3.6 L 109.1 10.8 L 107.3 10.8 Z M 112.2 4.6 C 112.2 4.6 112.22 4.59 112.2 4.6 C 112.7 3.8 113.4 3.4 114.3 3.4 C 115.8 3.4 116.8 4.5 116.8 6.1 C 116.83 6.1 116.8 10.8 116.8 10.8 L 114.9 10.8 C 114.9 10.8 114.92 6.38 114.9 6.4 C 114.9 5.6 114.5 5.1 113.7 5.1 C 112.8 5.1 112.2 5.7 112.2 6.7 C 112.22 6.72 112.2 10.8 112.2 10.8 L 110.3 10.8 L 110.3 3.6 L 112.2 3.6 L 112.2 4.6 Z " stroke="none" fill="#000"/>  </g></svg>