<?xml version="1.0" standalone="no"?><!DOCTYPE svg PUBLIC "-//W3C//DTD SVG 1.1//EN" "http://www.w3.org/Graphics/SVG/1.1/DTD/svg11.dtd"><svg xmlns="http://www.w3.org/2000/svg" version="1.1" width="361px" height="33.1px" viewBox="0 -5 361 33.1" style="top:-5px">  <desc>DESIGN CHALLENGE RESEARCH</desc>  <defs/>  <g id="Polygon7271">    <path d="M 220.1 0.5 L 222.3 0.5 L 222.3 20.1 L 220.1 20.1 L 220.1 0.5 Z M 228.4 1.3 C 228.4 1.3 235.75 1.32 235.7 1.3 C 238.5 1.3 240.4 3.1 240.4 5.6 C 240.4 7.5 239.6 8.9 237.7 9.5 C 237.7 9.5 237.7 9.6 237.7 9.6 C 239.3 10.2 239.8 11.3 239.9 13.6 C 240.1 16.1 240.4 16.8 240.7 17 C 240.66 16.96 240.7 17 240.7 17 C 240.7 17 238.52 17.05 238.5 17 C 238.2 16.8 238.1 16.2 237.9 13.5 C 237.8 11.2 236.9 10.4 234.8 10.4 C 234.76 10.41 230.4 10.4 230.4 10.4 L 230.4 17 L 228.4 17 L 228.4 1.3 Z M 230.4 8.8 C 230.4 8.8 235.05 8.8 235 8.8 C 237.2 8.8 238.3 7.7 238.3 5.9 C 238.3 4 237.5 3 235.2 3 C 235.16 3.04 230.4 3 230.4 3 L 230.4 8.8 Z M 242.8 1.3 L 253.9 1.3 L 253.9 3.1 L 244.8 3.1 L 244.8 8 L 253.1 8 L 253.1 9.7 L 244.8 9.7 L 244.8 15.2 L 254.2 15.2 L 254.2 17 L 242.8 17 L 242.8 1.3 Z M 255.3 11.7 C 255.3 11.7 257.2 11.7 257.2 11.7 C 257.5 14.4 259.1 15.8 262.1 15.8 C 264.2 15.8 265.8 14.8 265.8 12.8 C 265.8 10.7 263.9 10.2 261.1 9.5 C 258.3 8.9 255.9 8.1 255.9 5.2 C 255.9 2.6 258.1 1 261.3 1 C 265.2 1 266.9 3 267.3 5.9 C 267.3 5.9 265.4 5.9 265.4 5.9 C 265.1 3.7 263.6 2.6 261.3 2.6 C 259.2 2.6 257.8 3.5 257.8 5.1 C 257.8 6.9 259.6 7.4 261.9 7.9 C 265 8.5 267.8 9.2 267.8 12.8 C 267.8 15.7 265.4 17.4 262 17.4 C 257.6 17.4 255.4 14.9 255.3 11.7 Z M 270 1.3 L 281.1 1.3 L 281.1 3.1 L 272 3.1 L 272 8 L 280.3 8 L 280.3 9.7 L 272 9.7 L 272 15.2 L 281.4 15.2 L 281.4 17 L 270 17 L 270 1.3 Z M 288.5 1.3 L 290.7 1.3 L 296.5 17 L 294.3 17 L 292.7 12.3 L 286.4 12.3 L 284.7 17 L 282.7 17 L 288.5 1.3 Z M 287 10.6 L 292.1 10.6 C 292.1 10.6 290.31 5.37 290.3 5.4 C 290 4.49 289.6 3.1 289.6 3.1 L 289.6 3.1 C 289.6 3.1 289.14 4.47 288.8 5.4 C 288.83 5.37 287 10.6 287 10.6 Z M 298.2 1.3 C 298.2 1.3 305.53 1.32 305.5 1.3 C 308.3 1.3 310.2 3.1 310.2 5.6 C 310.2 7.5 309.3 8.9 307.4 9.5 C 307.4 9.5 307.4 9.6 307.4 9.6 C 309.1 10.2 309.6 11.3 309.7 13.6 C 309.9 16.1 310.2 16.8 310.4 17 C 310.44 16.96 310.4 17 310.4 17 C 310.4 17 308.3 17.05 308.3 17 C 308 16.8 307.9 16.2 307.7 13.5 C 307.6 11.2 306.7 10.4 304.5 10.4 C 304.54 10.41 300.2 10.4 300.2 10.4 L 300.2 17 L 298.2 17 L 298.2 1.3 Z M 300.2 8.8 C 300.2 8.8 304.83 8.8 304.8 8.8 C 307 8.8 308.1 7.7 308.1 5.9 C 308.1 4 307.2 3 304.9 3 C 304.94 3.04 300.2 3 300.2 3 L 300.2 8.8 Z M 312 9.2 C 312 4.6 314.8 1 319.4 1 C 323.1 1 325.3 3.1 325.8 6 C 325.8 6 323.8 6 323.8 6 C 323.4 4 321.9 2.7 319.4 2.7 C 315.9 2.7 314 5.5 314 9.2 C 314 13 316.1 15.6 319.4 15.6 C 322.4 15.6 323.8 13.6 324 11.3 C 324 11.3 325.9 11.3 325.9 11.3 C 325.9 12.8 325.2 14.6 324.1 15.7 C 323 16.8 321.4 17.4 319.3 17.4 C 314.9 17.4 312 13.9 312 9.2 Z M 328.2 1.3 L 330.2 1.3 L 330.2 8 L 338.6 8 L 338.6 1.3 L 340.5 1.3 L 340.5 17 L 338.6 17 L 338.6 9.6 L 330.2 9.6 L 330.2 17 L 328.2 17 L 328.2 1.3 Z " stroke="none" fill="#000"/>  </g>  <g id="Polygon7270">    <path d="M 7.3 13.8 C 9.8 13.8 11.1 12.2 11.1 9.3 C 11.1 6.4 9.7 4.6 7.3 4.6 C 7.3 4.58 5 4.6 5 4.6 L 5 13.8 C 5 13.8 7.26 13.77 7.3 13.8 Z M 1.1 1.3 C 1.1 1.3 7.79 1.32 7.8 1.3 C 12.1 1.3 15.1 4.5 15.1 9.3 C 15.1 12.1 14.1 14.3 12.3 15.6 C 11.1 16.5 9.5 17 7.5 17 C 7.55 17.05 1.1 17 1.1 17 L 1.1 1.3 Z M 16.6 1.3 L 28.5 1.3 L 28.5 4.5 L 20.5 4.5 L 20.5 7.3 L 27.4 7.3 L 27.4 10.4 L 20.5 10.4 L 20.5 13.7 L 28.6 13.7 L 28.6 17 L 16.6 17 L 16.6 1.3 Z M 29.5 12.1 C 29.5 12.1 33.5 12.1 33.5 12.1 C 33.6 13.7 34.7 14.3 36.5 14.3 C 37.8 14.3 39.1 13.9 39.1 12.7 C 39.1 11.4 37.8 11.2 35.6 10.6 C 32.9 10 30 9.2 30 5.9 C 30 2.5 32.8 1 36.3 1 C 39.7 1 42.3 2.6 42.5 5.9 C 42.5 5.9 38.7 5.9 38.7 5.9 C 38.5 4.7 37.6 4 36.1 4 C 34.8 4 33.9 4.6 33.9 5.5 C 33.9 6.6 35.1 6.8 37.4 7.3 C 40.4 8 43 8.9 43 12.3 C 43 15.6 40.2 17.4 36.6 17.4 C 32.4 17.4 29.6 15.6 29.5 12.1 Z M 44.6 1.3 L 48.5 1.3 L 48.5 17 L 44.6 17 L 44.6 1.3 Z M 52.2 15.2 C 50.8 13.7 50 11.6 50 9.2 C 50 6.8 50.9 4.6 52.4 3.1 C 53.7 1.8 55.5 1 57.8 1 C 61.8 1 64.2 3.2 64.7 6.5 C 64.7 6.5 61 6.5 61 6.5 C 60.7 5.2 59.6 4.2 57.9 4.2 C 55.3 4.2 54 6.4 54 9.2 C 54 12.1 55.5 14.3 58 14.3 C 60 14.3 61.2 12.9 61.4 11.5 C 61.38 11.51 61.4 11.5 61.4 11.5 L 58.4 11.5 L 58.4 8.6 L 65 8.6 L 65 17 L 62.3 17 L 62 15.2 C 62 15.2 62 15.16 62 15.2 C 61 16.8 59.4 17.4 57.5 17.4 C 55.3 17.4 53.5 16.6 52.2 15.2 Z M 66.9 1.3 L 70.8 1.3 C 70.8 1.3 75.46 9.22 75.5 9.2 C 75.7 9.66 76.5 11.2 76.5 11.2 L 76.6 11.2 C 76.6 11.2 76.54 9.33 76.5 8.8 C 76.54 8.78 76.5 1.3 76.5 1.3 L 80.3 1.3 L 80.3 17 L 76.4 17 C 76.4 17 71.81 9.26 71.8 9.3 C 71.54 8.84 70.7 7.1 70.7 7.1 L 70.6 7.1 C 70.6 7.1 70.69 9.17 70.7 9.7 C 70.69 9.72 70.7 17 70.7 17 L 66.9 17 L 66.9 1.3 Z M 85.3 9.2 C 85.3 4.6 88.3 1 93 1 C 94.8 1 96.4 1.5 97.5 2.4 C 98.9 3.4 99.7 5 99.9 6.7 C 99.9 6.7 96 6.7 96 6.7 C 95.8 5.3 94.7 4.2 93 4.2 C 90.4 4.2 89.2 6.4 89.2 9.2 C 89.2 12.1 90.7 14.2 93 14.2 C 94.8 14.2 95.9 13.1 96.1 11.6 C 96.1 11.6 100 11.6 100 11.6 C 99.9 13.2 99.2 14.6 98.1 15.6 C 96.9 16.8 95.3 17.4 93 17.4 C 88.4 17.4 85.3 13.9 85.3 9.2 Z M 101.4 1.3 L 105.2 1.3 L 105.2 7.3 L 110.8 7.3 L 110.8 1.3 L 114.7 1.3 L 114.7 17 L 110.8 17 L 110.8 10.5 L 105.2 10.5 L 105.2 17 L 101.4 17 L 101.4 1.3 Z M 121.4 1.3 L 125.4 1.3 L 131.1 17 L 127 17 L 126 14.2 L 120.5 14.2 L 119.6 17 L 115.7 17 L 121.4 1.3 Z M 125.1 11.4 C 125.1 11.4 123.95 7.61 123.9 7.6 C 123.68 6.8 123.3 5.4 123.3 5.4 L 123.3 5.4 C 123.3 5.4 122.91 6.8 122.6 7.6 C 122.65 7.61 121.4 11.4 121.4 11.4 L 125.1 11.4 Z M 132.2 1.3 L 136 1.3 L 136 13.7 L 143.1 13.7 L 143.1 17 L 132.2 17 L 132.2 1.3 Z M 144.6 1.3 L 148.5 1.3 L 148.5 13.7 L 155.5 13.7 L 155.5 17 L 144.6 17 L 144.6 1.3 Z M 157 1.3 L 168.9 1.3 L 168.9 4.5 L 160.9 4.5 L 160.9 7.3 L 167.8 7.3 L 167.8 10.4 L 160.9 10.4 L 160.9 13.7 L 169.1 13.7 L 169.1 17 L 157 17 L 157 1.3 Z M 170.8 1.3 L 174.7 1.3 C 174.7 1.3 179.41 9.22 179.4 9.2 C 179.65 9.66 180.5 11.2 180.5 11.2 L 180.5 11.2 C 180.5 11.2 180.49 9.33 180.5 8.8 C 180.49 8.78 180.5 1.3 180.5 1.3 L 184.3 1.3 L 184.3 17 L 180.4 17 C 180.4 17 175.76 9.26 175.8 9.3 C 175.49 8.84 174.6 7.1 174.6 7.1 L 174.6 7.1 C 174.6 7.1 174.63 9.17 174.6 9.7 C 174.63 9.72 174.6 17 174.6 17 L 170.8 17 L 170.8 1.3 Z M 187.9 15.2 C 186.6 13.7 185.8 11.6 185.8 9.2 C 185.8 6.8 186.7 4.6 188.2 3.1 C 189.5 1.8 191.3 1 193.6 1 C 197.6 1 200 3.2 200.5 6.5 C 200.5 6.5 196.7 6.5 196.7 6.5 C 196.5 5.2 195.4 4.2 193.7 4.2 C 191.1 4.2 189.8 6.4 189.8 9.2 C 189.8 12.1 191.3 14.3 193.8 14.3 C 195.8 14.3 197 12.9 197.2 11.5 C 197.16 11.51 197.2 11.5 197.2 11.5 L 194.2 11.5 L 194.2 8.6 L 200.8 8.6 L 200.8 17 L 198 17 L 197.8 15.2 C 197.8 15.2 197.78 15.16 197.8 15.2 C 196.7 16.8 195.2 17.4 193.3 17.4 C 191.1 17.4 189.2 16.6 187.9 15.2 Z M 202.7 1.3 L 214.6 1.3 L 214.6 4.5 L 206.6 4.5 L 206.6 7.3 L 213.4 7.3 L 213.4 10.4 L 206.6 10.4 L 206.6 13.7 L 214.7 13.7 L 214.7 17 L 202.7 17 L 202.7 1.3 Z " stroke="none" fill="#d12229"/>  </g></svg>