<?xml version="1.0" standalone="no"?><!DOCTYPE svg PUBLIC "-//W3C//DTD SVG 1.1//EN" "http://www.w3.org/Graphics/SVG/1.1/DTD/svg11.dtd"><svg xmlns="http://www.w3.org/2000/svg" version="1.1" width="300px" height="28.2px" viewBox="0 -3 300 28.2" style="top:-3px">  <desc>Acrylic Lamp AutoDesk Fusion</desc>  <defs/>  <g id="Polygon9550">    <path d="M 3.5 0.8 L 5.6 0.8 L 9.2 10.8 L 7 10.8 L 6.4 8.7 L 2.8 8.7 L 2.1 10.8 L 0 10.8 L 3.5 0.8 Z M 3.2 7.1 L 5.9 7.1 C 5.9 7.1 4.98 4.23 5 4.2 C 4.82 3.7 4.6 2.7 4.6 2.7 L 4.5 2.7 C 4.5 2.7 4.3 3.7 4.1 4.2 C 4.13 4.23 3.2 7.1 3.2 7.1 Z M 9.2 7.2 C 9.2 5.1 10.6 3.4 12.8 3.4 C 14.7 3.4 15.8 4.5 16.1 6 C 16.1 6 14.2 6 14.2 6 C 14.1 5.4 13.6 4.9 12.9 4.9 C 11.7 4.9 11.1 5.8 11.1 7.2 C 11.1 8.6 11.7 9.5 12.9 9.5 C 13.6 9.5 14.2 9.1 14.3 8.3 C 14.3 8.3 16.1 8.3 16.1 8.3 C 16 9.8 14.8 11 12.9 11 C 10.6 11 9.2 9.4 9.2 7.2 Z M 18.8 4.8 C 18.8 4.8 18.83 4.76 18.8 4.8 C 19.3 3.9 19.8 3.5 20.6 3.5 C 20.8 3.5 20.9 3.5 21 3.6 C 21.04 3.58 21 5.3 21 5.3 C 21 5.3 21 5.25 21 5.3 C 19.8 5.1 18.9 5.8 18.9 7.3 C 18.86 7.29 18.9 10.8 18.9 10.8 L 17 10.8 L 17 3.6 L 18.8 3.6 L 18.8 4.8 Z M 22.1 11.6 C 22.1 11.6 22.76 11.65 22.8 11.6 C 23.5 11.6 23.8 11.3 23.8 10.7 C 23.8 10.3 23.7 9.8 23.3 8.7 C 23.28 8.72 21.4 3.6 21.4 3.6 L 23.4 3.6 C 23.4 3.6 24.42 6.85 24.4 6.8 C 24.64 7.5 24.9 8.4 24.9 8.4 L 24.9 8.4 C 24.9 8.4 25.1 7.5 25.3 6.8 C 25.33 6.85 26.3 3.6 26.3 3.6 L 28.3 3.6 C 28.3 3.6 25.75 10.98 25.7 11 C 25.2 12.6 24.7 13.1 23.2 13.1 C 23.21 13.15 22.1 13.1 22.1 13.1 L 22.1 11.6 Z M 28.9 0.8 L 30.8 0.8 L 30.8 10.8 L 28.9 10.8 L 28.9 0.8 Z M 32.1 3.6 L 34 3.6 L 34 10.8 L 32.1 10.8 L 32.1 3.6 Z M 32.1 0.8 L 34 0.8 L 34 2.5 L 32.1 2.5 L 32.1 0.8 Z M 34.9 7.2 C 34.9 5.1 36.3 3.4 38.5 3.4 C 40.3 3.4 41.5 4.5 41.7 6 C 41.7 6 39.9 6 39.9 6 C 39.7 5.4 39.2 4.9 38.5 4.9 C 37.4 4.9 36.8 5.8 36.8 7.2 C 36.8 8.6 37.4 9.5 38.5 9.5 C 39.3 9.5 39.8 9.1 40 8.3 C 40 8.3 41.8 8.3 41.8 8.3 C 41.7 9.8 40.5 11 38.6 11 C 36.3 11 34.9 9.4 34.9 7.2 Z M 45.1 0.8 L 47.2 0.8 L 47.2 9.1 L 51.9 9.1 L 51.9 10.8 L 45.1 10.8 L 45.1 0.8 Z M 57.2 10 C 57.2 10 57.1 10 57.1 10 C 56.8 10.5 56.3 11 55 11 C 53.5 11 52.5 10.2 52.5 8.8 C 52.5 7.2 53.8 6.7 55.4 6.5 C 56.6 6.3 57.1 6.2 57.1 5.6 C 57.1 5.1 56.7 4.8 55.9 4.8 C 55 4.8 54.6 5.1 54.5 5.8 C 54.5 5.8 52.9 5.8 52.9 5.8 C 52.9 4.5 53.8 3.4 55.9 3.4 C 58.1 3.4 59 4.4 59 6.1 C 59 6.1 59 9.7 59 9.7 C 59 10.3 59.1 10.6 59.2 10.7 C 59.22 10.72 59.2 10.8 59.2 10.8 C 59.2 10.8 57.39 10.79 57.4 10.8 C 57.3 10.7 57.2 10.3 57.2 10 Z M 57.2 8.3 C 57.2 8.3 57.2 7.2 57.2 7.2 C 56.8 7.4 56.3 7.5 55.8 7.6 C 54.9 7.8 54.4 8.1 54.4 8.7 C 54.4 9.4 54.8 9.6 55.5 9.6 C 56.6 9.6 57.2 9 57.2 8.3 Z M 60.2 3.6 L 62 3.6 L 62 4.6 C 62 4.6 62.05 4.58 62 4.6 C 62.4 3.9 63.1 3.4 64.1 3.4 C 65 3.4 65.8 3.9 66.1 4.7 C 66.1 4.7 66.1 4.7 66.1 4.7 C 66.6 3.9 67.4 3.4 68.3 3.4 C 69.8 3.4 70.7 4.4 70.7 6 C 70.67 5.96 70.7 10.8 70.7 10.8 L 68.8 10.8 C 68.8 10.8 68.77 6.29 68.8 6.3 C 68.8 5.5 68.4 5.1 67.7 5.1 C 66.9 5.1 66.4 5.7 66.4 6.6 C 66.37 6.62 66.4 10.8 66.4 10.8 L 64.5 10.8 C 64.5 10.8 64.47 6.29 64.5 6.3 C 64.5 5.5 64.1 5.1 63.4 5.1 C 62.6 5.1 62.1 5.7 62.1 6.6 C 62.07 6.62 62.1 10.8 62.1 10.8 L 60.2 10.8 L 60.2 3.6 Z M 71.8 3.6 L 73.7 3.6 L 73.7 4.5 C 73.7 4.5 73.72 4.51 73.7 4.5 C 74.2 3.9 74.9 3.4 75.8 3.4 C 77.7 3.4 79 5 79 7.2 C 79 9.5 77.7 11 75.9 11 C 74.8 11 74.2 10.6 73.8 10 C 73.78 9.98 73.8 10 73.8 10 L 73.8 13.1 L 71.8 13.1 L 71.8 3.6 Z M 77 7.3 C 77 5.9 76.6 5 75.4 5 C 74.2 5 73.7 6 73.7 7.3 C 73.7 8.6 74.3 9.4 75.4 9.4 C 76.4 9.4 77 8.6 77 7.3 Z M 82.5 0.2 L 83.6 0.2 L 83.6 12.6 L 82.5 12.6 L 82.5 0.2 Z M 90.4 0.8 L 92.5 0.8 L 96 10.8 L 93.9 10.8 L 93.2 8.7 L 89.6 8.7 L 89 10.8 L 86.9 10.8 L 90.4 0.8 Z M 90.1 7.1 L 92.7 7.1 C 92.7 7.1 91.85 4.23 91.9 4.2 C 91.69 3.7 91.4 2.7 91.4 2.7 L 91.4 2.7 C 91.4 2.7 91.17 3.7 91 4.2 C 91 4.23 90.1 7.1 90.1 7.1 Z M 101 10.8 L 101 10 C 101 10 101 9.95 101 10 C 100.5 10.6 99.9 11 98.9 11 C 97.3 11 96.4 10 96.4 8.4 C 96.45 8.4 96.4 3.6 96.4 3.6 L 98.3 3.6 C 98.3 3.6 98.33 8.08 98.3 8.1 C 98.3 8.9 98.7 9.4 99.5 9.4 C 100.4 9.4 101 8.7 101 7.8 C 100.97 7.76 101 3.6 101 3.6 L 102.9 3.6 L 102.9 10.8 L 101 10.8 Z M 103.7 3.6 L 104.7 3.6 L 104.7 1.4 L 106.5 1.4 L 106.5 3.6 L 107.8 3.6 L 107.8 4.9 L 106.5 4.9 C 106.5 4.9 106.54 8.67 106.5 8.7 C 106.5 9.2 106.8 9.4 107.3 9.4 C 107.49 9.38 107.8 9.4 107.8 9.4 L 107.8 10.8 C 107.8 10.8 107.38 10.79 106.6 10.8 C 105.7 10.8 104.7 10.4 104.7 9.1 C 104.68 9.07 104.7 4.9 104.7 4.9 L 103.7 4.9 L 103.7 3.6 Z M 108.3 7.2 C 108.3 5.1 109.9 3.4 112.1 3.4 C 114.3 3.4 115.8 5.1 115.8 7.2 C 115.8 9.4 114.3 11 112.1 11 C 109.9 11 108.3 9.4 108.3 7.2 Z M 113.9 7.2 C 113.9 5.8 113.2 4.9 112.1 4.9 C 110.9 4.9 110.3 5.8 110.3 7.2 C 110.3 8.6 110.9 9.5 112.1 9.5 C 113.2 9.5 113.9 8.6 113.9 7.2 Z M 116.9 0.8 C 116.9 0.8 120.78 0.78 120.8 0.8 C 123.5 0.8 125.2 2.9 125.2 5.9 C 125.2 7.5 124.6 8.9 123.6 9.8 C 122.8 10.4 121.9 10.8 120.6 10.8 C 120.61 10.79 116.9 10.8 116.9 10.8 L 116.9 0.8 Z M 120.5 9 C 122.4 9 123.1 7.9 123.1 5.9 C 123.1 3.9 122.2 2.5 120.5 2.5 C 120.52 2.52 118.9 2.5 118.9 2.5 L 118.9 9 C 118.9 9 120.47 9.04 120.5 9 Z M 125.8 7.2 C 125.8 5.1 127.2 3.4 129.3 3.4 C 131.6 3.4 132.9 5.2 132.9 7.7 C 132.9 7.7 127.7 7.7 127.7 7.7 C 127.8 8.8 128.4 9.5 129.5 9.5 C 130.2 9.5 130.7 9.2 130.9 8.7 C 130.9 8.7 132.7 8.7 132.7 8.7 C 132.5 9.9 131.3 11 129.5 11 C 127.1 11 125.8 9.3 125.8 7.2 Z M 127.7 6.4 C 127.7 6.4 130.9 6.4 130.9 6.4 C 130.8 5.5 130.2 4.9 129.3 4.9 C 128.3 4.9 127.8 5.5 127.7 6.4 Z M 133.3 8.5 C 133.3 8.5 135.1 8.5 135.1 8.5 C 135.2 9.3 135.8 9.7 136.6 9.7 C 137.5 9.7 137.9 9.3 137.9 8.8 C 137.9 8.1 137 8.1 136.1 7.9 C 134.8 7.6 133.5 7.3 133.5 5.7 C 133.5 4.2 134.8 3.4 136.4 3.4 C 138.3 3.4 139.4 4.4 139.5 5.8 C 139.5 5.8 137.8 5.8 137.8 5.8 C 137.7 5 137.2 4.7 136.4 4.7 C 135.7 4.7 135.2 5 135.2 5.5 C 135.2 6.2 136.1 6.2 137.1 6.4 C 138.3 6.7 139.7 7 139.7 8.7 C 139.7 10.1 138.4 11 136.7 11 C 134.6 11 133.4 10 133.3 8.5 Z M 143.2 7.5 L 142.4 8.4 L 142.4 10.8 L 140.5 10.8 L 140.5 0.8 L 142.4 0.8 L 142.4 6.3 L 145 3.6 L 147.2 3.6 L 144.6 6.3 L 147.6 10.8 L 145.3 10.8 L 143.2 7.5 Z M 150.7 0.8 L 157.8 0.8 L 157.8 2.5 L 152.7 2.5 L 152.7 4.9 L 157.1 4.9 L 157.1 6.6 L 152.7 6.6 L 152.7 10.8 L 150.7 10.8 L 150.7 0.8 Z M 163 10.8 L 163 10 C 163 10 162.92 9.95 162.9 10 C 162.4 10.6 161.9 11 160.9 11 C 159.3 11 158.4 10 158.4 8.4 C 158.37 8.4 158.4 3.6 158.4 3.6 L 160.3 3.6 C 160.3 3.6 160.26 8.08 160.3 8.1 C 160.3 8.9 160.6 9.4 161.4 9.4 C 162.3 9.4 162.9 8.7 162.9 7.8 C 162.89 7.76 162.9 3.6 162.9 3.6 L 164.8 3.6 L 164.8 10.8 L 163 10.8 Z M 165.6 8.5 C 165.6 8.5 167.3 8.5 167.3 8.5 C 167.5 9.3 168.1 9.7 168.9 9.7 C 169.7 9.7 170.2 9.3 170.2 8.8 C 170.2 8.1 169.3 8.1 168.3 7.9 C 167 7.6 165.8 7.3 165.8 5.7 C 165.8 4.2 167.1 3.4 168.7 3.4 C 170.6 3.4 171.7 4.4 171.8 5.8 C 171.8 5.8 170.1 5.8 170.1 5.8 C 170 5 169.5 4.7 168.7 4.7 C 167.9 4.7 167.5 5 167.5 5.5 C 167.5 6.2 168.4 6.2 169.4 6.4 C 170.6 6.7 172 7 172 8.7 C 172 10.1 170.7 11 168.9 11 C 166.9 11 165.7 10 165.6 8.5 Z M 172.8 3.6 L 174.7 3.6 L 174.7 10.8 L 172.8 10.8 L 172.8 3.6 Z M 172.8 0.8 L 174.7 0.8 L 174.7 2.5 L 172.8 2.5 L 172.8 0.8 Z M 175.6 7.2 C 175.6 5.1 177.1 3.4 179.4 3.4 C 181.6 3.4 183.1 5.1 183.1 7.2 C 183.1 9.4 181.6 11 179.4 11 C 177.1 11 175.6 9.4 175.6 7.2 Z M 181.2 7.2 C 181.2 5.8 180.5 4.9 179.4 4.9 C 178.2 4.9 177.5 5.8 177.5 7.2 C 177.5 8.6 178.2 9.5 179.4 9.5 C 180.5 9.5 181.2 8.6 181.2 7.2 Z M 185.8 4.6 C 185.8 4.6 185.89 4.59 185.9 4.6 C 186.4 3.8 187 3.4 188 3.4 C 189.5 3.4 190.5 4.5 190.5 6.1 C 190.5 6.1 190.5 10.8 190.5 10.8 L 188.6 10.8 C 188.6 10.8 188.59 6.38 188.6 6.4 C 188.6 5.6 188.1 5.1 187.3 5.1 C 186.5 5.1 185.9 5.7 185.9 6.7 C 185.89 6.72 185.9 10.8 185.9 10.8 L 184 10.8 L 184 3.6 L 185.8 3.6 L 185.8 4.6 Z " stroke="none" fill="#000"/>  </g></svg>