<?xml version="1.0" standalone="no"?><!DOCTYPE svg PUBLIC "-//W3C//DTD SVG 1.1//EN" "http://www.w3.org/Graphics/SVG/1.1/DTD/svg11.dtd"><svg xmlns="http://www.w3.org/2000/svg" version="1.1" width="483.1px" height="37.6px" viewBox="0 -4 483.1 37.6" style="top:-4px">  <desc>Engagment - Increase in longevity of play</desc>  <defs/>  <g id="Polygon7837">    <path d="M 108.2 9.1 L 113.6 9.1 L 113.6 11.9 L 108.2 11.9 L 108.2 9.1 Z M 118.7 1.2 L 120.5 1.2 L 120.5 15.5 L 118.7 15.5 L 118.7 1.2 Z M 124.6 6.5 C 124.6 6.5 124.68 6.52 124.7 6.5 C 125.4 5.5 126.5 4.9 128 4.9 C 130.1 4.9 131.4 6.1 131.4 8.2 C 131.44 8.24 131.4 15.5 131.4 15.5 L 129.8 15.5 C 129.8 15.5 129.82 8.38 129.8 8.4 C 129.8 7 128.9 6.3 127.5 6.3 C 125.8 6.3 124.6 7.4 124.6 9.1 C 124.64 9.14 124.6 15.5 124.6 15.5 L 123 15.5 L 123 5.2 L 124.6 5.2 L 124.6 6.5 Z M 133 10.3 C 133 7.3 134.9 4.9 138 4.9 C 140.4 4.9 142.1 6.3 142.4 8.5 C 142.4 8.5 140.8 8.5 140.8 8.5 C 140.5 7.1 139.6 6.2 138 6.2 C 135.8 6.2 134.7 8.1 134.7 10.3 C 134.7 12.6 135.8 14.4 138 14.4 C 139.7 14.4 140.7 13.5 140.8 11.9 C 140.8 11.9 142.4 11.9 142.4 11.9 C 142.2 14.3 140.6 15.8 138 15.8 C 134.9 15.8 133 13.3 133 10.3 Z M 145.6 6.9 C 145.6 6.9 145.62 6.88 145.6 6.9 C 146.2 5.9 147.3 5 148.7 5 C 149 5 149.2 5.1 149.4 5.2 C 149.36 5.16 149.4 6.7 149.4 6.7 C 149.4 6.7 149.3 6.72 149.3 6.7 C 149.1 6.6 148.9 6.6 148.6 6.6 C 147 6.6 145.6 7.8 145.6 9.8 C 145.58 9.76 145.6 15.5 145.6 15.5 L 144 15.5 L 144 5.2 L 145.6 5.2 L 145.6 6.9 Z M 149.8 10.3 C 149.8 7.3 151.8 4.9 154.7 4.9 C 157.8 4.9 159.5 7.3 159.5 10.7 C 159.5 10.7 151.5 10.7 151.5 10.7 C 151.6 12.8 152.8 14.4 154.8 14.4 C 156.3 14.4 157.3 13.7 157.7 12.3 C 157.7 12.3 159.3 12.3 159.3 12.3 C 158.8 14.5 157.2 15.8 154.8 15.8 C 151.7 15.8 149.8 13.3 149.8 10.3 Z M 151.5 9.5 C 151.5 9.5 157.8 9.5 157.8 9.5 C 157.7 7.4 156.6 6.2 154.7 6.2 C 152.8 6.2 151.8 7.6 151.5 9.5 Z M 167.4 14.1 C 167.4 14.1 167.4 14.1 167.4 14.1 C 166.8 14.9 165.7 15.7 164 15.7 C 162 15.7 160.5 14.8 160.5 12.8 C 160.5 10.4 162.4 9.9 165 9.5 C 166.4 9.3 167.4 9.1 167.4 8 C 167.4 6.8 166.6 6.2 165.1 6.2 C 163.4 6.2 162.6 6.9 162.5 8.5 C 162.5 8.5 161 8.5 161 8.5 C 161 6.5 162.4 5 165.1 5 C 167.3 5 168.9 5.8 168.9 8.2 C 168.9 8.2 168.9 13.2 168.9 13.2 C 168.9 14 169.1 14.5 170 14.3 C 170.02 14.26 170.1 14.3 170.1 14.3 C 170.1 14.3 170.08 15.44 170.1 15.4 C 169.9 15.5 169.6 15.6 169.2 15.6 C 168.1 15.6 167.6 15.1 167.4 14.1 Z M 167.5 11.7 C 167.5 11.7 167.5 9.9 167.5 9.9 C 166.9 10.3 166 10.5 165.1 10.7 C 163.5 11 162.2 11.3 162.2 12.8 C 162.2 14.2 163.3 14.5 164.3 14.5 C 166.5 14.5 167.5 12.9 167.5 11.7 Z M 170.6 12.1 C 170.6 12.1 172.3 12.1 172.3 12.1 C 172.5 13.9 173.7 14.4 175.2 14.4 C 176.9 14.4 177.6 13.7 177.6 12.7 C 177.6 11.6 176.8 11.3 174.9 10.9 C 172.9 10.5 171.1 10 171.1 7.8 C 171.1 6.1 172.4 4.9 174.8 4.9 C 177.4 4.9 178.6 6.2 178.9 8.2 C 178.9 8.2 177.2 8.2 177.2 8.2 C 177 6.8 176.3 6.2 174.8 6.2 C 173.3 6.2 172.7 6.9 172.7 7.7 C 172.7 8.8 173.7 9 175.5 9.4 C 177.5 9.8 179.3 10.3 179.3 12.7 C 179.3 14.7 177.6 15.8 175.2 15.8 C 172.4 15.8 170.8 14.5 170.6 12.1 Z M 180.5 10.3 C 180.5 7.3 182.4 4.9 185.4 4.9 C 188.5 4.9 190.1 7.3 190.1 10.7 C 190.1 10.7 182.1 10.7 182.1 10.7 C 182.2 12.8 183.4 14.4 185.5 14.4 C 187 14.4 188 13.7 188.3 12.3 C 188.3 12.3 189.9 12.3 189.9 12.3 C 189.4 14.5 187.8 15.8 185.5 15.8 C 182.3 15.8 180.5 13.3 180.5 10.3 Z M 182.2 9.5 C 182.2 9.5 188.4 9.5 188.4 9.5 C 188.3 7.4 187.2 6.2 185.4 6.2 C 183.4 6.2 182.4 7.6 182.2 9.5 Z M 194.9 5.2 L 196.5 5.2 L 196.5 15.5 L 194.9 15.5 L 194.9 5.2 Z M 194.9 1.2 L 196.5 1.2 L 196.5 3.2 L 194.9 3.2 L 194.9 1.2 Z M 200.3 6.5 C 200.3 6.5 200.36 6.52 200.4 6.5 C 201.1 5.5 202.1 4.9 203.6 4.9 C 205.8 4.9 207.1 6.1 207.1 8.2 C 207.12 8.24 207.1 15.5 207.1 15.5 L 205.5 15.5 C 205.5 15.5 205.5 8.38 205.5 8.4 C 205.5 7 204.6 6.3 203.2 6.3 C 201.5 6.3 200.3 7.4 200.3 9.1 C 200.32 9.14 200.3 15.5 200.3 15.5 L 198.7 15.5 L 198.7 5.2 L 200.3 5.2 L 200.3 6.5 Z M 212.5 1.2 L 214.1 1.2 L 214.1 15.5 L 212.5 15.5 L 212.5 1.2 Z M 215.8 10.3 C 215.8 7.3 217.7 4.9 220.8 4.9 C 223.9 4.9 225.8 7.3 225.8 10.3 C 225.8 13.3 223.9 15.8 220.8 15.8 C 217.7 15.8 215.8 13.3 215.8 10.3 Z M 224.1 10.3 C 224.1 8.1 223 6.2 220.8 6.2 C 218.6 6.2 217.5 8.1 217.5 10.3 C 217.5 12.6 218.6 14.4 220.8 14.4 C 223 14.4 224.1 12.6 224.1 10.3 Z M 229 6.5 C 229 6.5 229.06 6.52 229.1 6.5 C 229.8 5.5 230.8 4.9 232.3 4.9 C 234.5 4.9 235.8 6.1 235.8 8.2 C 235.82 8.24 235.8 15.5 235.8 15.5 L 234.2 15.5 C 234.2 15.5 234.2 8.38 234.2 8.4 C 234.2 7 233.3 6.3 231.9 6.3 C 230.2 6.3 229 7.4 229 9.1 C 229.02 9.14 229 15.5 229 15.5 L 227.4 15.5 L 227.4 5.2 L 229 5.2 L 229 6.5 Z M 237.7 16.1 C 237.7 16.1 239.2 16.1 239.2 16.1 C 239.4 17.2 240.4 17.7 242 17.7 C 243.9 17.7 245 16.8 245 15 C 245 15 245 13.5 245 13.5 C 245 13.5 244.96 13.54 245 13.5 C 244.2 14.5 243.4 15.1 241.9 15.1 C 239.2 15.1 237.4 13 237.4 10 C 237.4 6.8 239.4 4.9 241.8 4.9 C 243.3 4.9 244.3 5.5 245 6.5 C 244.96 6.48 245 6.5 245 6.5 L 245 5.2 L 246.6 5.2 C 246.6 5.2 246.62 14.94 246.6 14.9 C 246.6 17.7 244.8 18.9 242.1 18.9 C 239.4 18.9 237.9 17.9 237.7 16.1 Z M 245.1 9.9 C 245.1 7.7 244.2 6.3 242 6.3 C 240 6.3 239 7.8 239 10 C 239 12.3 240.1 13.8 242 13.8 C 244.4 13.8 245.1 12.1 245.1 9.9 Z M 248.2 10.3 C 248.2 7.3 250.2 4.9 253.1 4.9 C 256.2 4.9 257.9 7.3 257.9 10.7 C 257.9 10.7 249.9 10.7 249.9 10.7 C 250 12.8 251.2 14.4 253.2 14.4 C 254.7 14.4 255.7 13.7 256.1 12.3 C 256.1 12.3 257.7 12.3 257.7 12.3 C 257.2 14.5 255.6 15.8 253.2 15.8 C 250.1 15.8 248.2 13.3 248.2 10.3 Z M 249.9 9.5 C 249.9 9.5 256.2 9.5 256.2 9.5 C 256.1 7.4 255 6.2 253.1 6.2 C 251.2 6.2 250.2 7.6 249.9 9.5 Z M 258.2 5.2 L 260 5.2 C 260 5.2 262.1 11.72 262.1 11.7 C 262.4 12.64 262.8 13.9 262.8 13.9 L 262.8 13.9 C 262.8 13.9 263.2 12.62 263.5 11.7 C 263.5 11.72 265.7 5.2 265.7 5.2 L 267.4 5.2 L 263.6 15.5 L 261.8 15.5 L 258.2 5.2 Z M 268.5 5.2 L 270.1 5.2 L 270.1 15.5 L 268.5 15.5 L 268.5 5.2 Z M 268.5 1.2 L 270.1 1.2 L 270.1 3.2 L 268.5 3.2 L 268.5 1.2 Z M 271.7 5.2 L 273.2 5.2 L 273.2 1.9 L 274.8 1.9 L 274.8 5.2 L 276.8 5.2 L 276.8 6.5 L 274.8 6.5 C 274.8 6.5 274.78 13.2 274.8 13.2 C 274.8 13.9 275.2 14.2 275.8 14.2 C 276.1 14.2 276.5 14.1 276.7 14 C 276.68 14.02 276.7 14 276.7 14 C 276.7 14 276.74 15.42 276.7 15.4 C 276.4 15.5 275.9 15.6 275.4 15.6 C 274.1 15.6 273.2 15 273.2 13.6 C 273.16 13.56 273.2 6.5 273.2 6.5 L 271.7 6.5 L 271.7 5.2 Z M 278.3 18.7 C 278.32 18.7 278.3 17.3 278.3 17.3 C 278.3 17.3 278.4 17.26 278.4 17.3 C 278.6 17.4 279 17.5 279.5 17.5 C 280.2 17.5 280.6 17.2 281 16.2 C 281.04 16.22 281.4 15.2 281.4 15.2 L 277.4 5.2 L 279.2 5.2 C 279.2 5.2 281.6 11.6 281.6 11.6 C 281.92 12.46 282.3 13.6 282.3 13.6 L 282.3 13.6 C 282.3 13.6 282.7 12.46 283 11.6 C 283.02 11.6 285.4 5.2 285.4 5.2 L 287.1 5.2 C 287.1 5.2 282.68 16.34 282.7 16.3 C 281.8 18.5 281 18.9 279.8 18.9 C 279.2 18.9 278.8 18.9 278.3 18.7 Z M 290.8 10.3 C 290.8 7.3 292.8 4.9 295.8 4.9 C 298.9 4.9 300.8 7.3 300.8 10.3 C 300.8 13.3 298.9 15.8 295.8 15.8 C 292.8 15.8 290.8 13.3 290.8 10.3 Z M 299.2 10.3 C 299.2 8.1 298 6.2 295.8 6.2 C 293.6 6.2 292.5 8.1 292.5 10.3 C 292.5 12.6 293.6 14.4 295.8 14.4 C 298 14.4 299.2 12.6 299.2 10.3 Z M 301.6 5.2 L 303 5.2 C 303 5.2 303 3.5 303 3.5 C 303 1.7 304 1.1 305.7 1.1 C 306.1 1.1 306.3 1.1 306.6 1.1 C 306.6 1.1 306.6 2.5 306.6 2.5 C 306.3 2.5 306.2 2.5 306 2.5 C 305 2.5 304.6 2.7 304.6 3.6 C 304.62 3.58 304.6 5.2 304.6 5.2 L 306.5 5.2 L 306.5 6.5 L 304.6 6.5 L 304.6 15.5 L 303 15.5 L 303 6.5 L 301.6 6.5 L 301.6 5.2 Z M 311.3 5.2 L 312.9 5.2 L 312.9 6.6 C 312.9 6.6 312.96 6.62 313 6.6 C 313.7 5.6 314.8 4.9 316.3 4.9 C 318.9 4.9 320.7 6.9 320.7 10.4 C 320.7 13.7 319 15.8 316.2 15.8 C 314.8 15.8 313.8 15.4 313 14.3 C 312.96 14.28 312.9 14.3 312.9 14.3 L 312.9 18.8 L 311.3 18.8 L 311.3 5.2 Z M 319.1 10.4 C 319.1 8.1 318.1 6.3 316.1 6.3 C 313.9 6.3 312.8 8.1 312.8 10.4 C 312.8 12.6 313.7 14.4 316.1 14.4 C 318.1 14.4 319.1 12.7 319.1 10.4 Z M 322.4 1.2 L 324 1.2 L 324 15.5 L 322.4 15.5 L 322.4 1.2 Z M 332.6 14.1 C 332.6 14.1 332.6 14.1 332.6 14.1 C 332 14.9 330.9 15.7 329.2 15.7 C 327.2 15.7 325.7 14.8 325.7 12.8 C 325.7 10.4 327.6 9.9 330.2 9.5 C 331.6 9.3 332.6 9.1 332.6 8 C 332.6 6.8 331.8 6.2 330.3 6.2 C 328.6 6.2 327.8 6.9 327.7 8.5 C 327.7 8.5 326.2 8.5 326.2 8.5 C 326.2 6.5 327.6 5 330.3 5 C 332.5 5 334.1 5.8 334.1 8.2 C 334.1 8.2 334.1 13.2 334.1 13.2 C 334.1 14 334.3 14.5 335.2 14.3 C 335.22 14.26 335.3 14.3 335.3 14.3 C 335.3 14.3 335.28 15.44 335.3 15.4 C 335.1 15.5 334.8 15.6 334.4 15.6 C 333.3 15.6 332.8 15.1 332.6 14.1 Z M 332.7 11.7 C 332.7 11.7 332.7 9.9 332.7 9.9 C 332.1 10.3 331.2 10.5 330.3 10.7 C 328.7 11 327.4 11.3 327.4 12.8 C 327.4 14.2 328.5 14.5 329.5 14.5 C 331.7 14.5 332.7 12.9 332.7 11.7 Z M 336.1 18.7 C 336.14 18.7 336.1 17.3 336.1 17.3 C 336.1 17.3 336.22 17.26 336.2 17.3 C 336.4 17.4 336.8 17.5 337.3 17.5 C 338 17.5 338.5 17.2 338.9 16.2 C 338.86 16.22 339.3 15.2 339.3 15.2 L 335.2 5.2 L 337 5.2 C 337 5.2 339.42 11.6 339.4 11.6 C 339.74 12.46 340.1 13.6 340.1 13.6 L 340.2 13.6 C 340.2 13.6 340.52 12.46 340.8 11.6 C 340.84 11.6 343.2 5.2 343.2 5.2 L 344.9 5.2 C 344.9 5.2 340.5 16.34 340.5 16.3 C 339.7 18.5 338.9 18.9 337.6 18.9 C 337 18.9 336.6 18.9 336.1 18.7 Z " stroke="none" fill="#000"/>  </g>  <g id="Polygon7836">    <path d="M 1 1.2 L 11.8 1.2 L 11.8 4.1 L 4.5 4.1 L 4.5 6.7 L 10.8 6.7 L 10.8 9.4 L 4.5 9.4 L 4.5 12.5 L 11.9 12.5 L 11.9 15.5 L 1 15.5 L 1 1.2 Z M 13.3 5.3 L 16.5 5.3 L 16.5 6.7 C 16.5 6.7 16.54 6.66 16.5 6.7 C 17.3 5.6 18.3 5 19.7 5 C 21.9 5 23.3 6.6 23.3 8.8 C 23.26 8.84 23.3 15.5 23.3 15.5 L 20 15.5 C 20 15.5 20 9.5 20 9.5 C 20 8.4 19.5 7.7 18.4 7.7 C 17.3 7.7 16.6 8.6 16.6 9.8 C 16.6 9.84 16.6 15.5 16.6 15.5 L 13.3 15.5 L 13.3 5.3 Z M 24.5 15.7 C 24.5 15.7 27.7 15.7 27.7 15.7 C 27.8 16.3 28.4 16.7 29.5 16.7 C 30.8 16.7 31.4 16 31.4 14.8 C 31.42 14.78 31.4 13.8 31.4 13.8 C 31.4 13.8 31.34 13.76 31.3 13.8 C 30.7 14.4 30 14.9 28.7 14.9 C 26.4 14.9 24.3 13.2 24.3 10.1 C 24.3 7.1 26 5 28.6 5 C 29.9 5 30.9 5.5 31.5 6.4 C 31.46 6.36 31.5 6.4 31.5 6.4 L 31.5 5.3 L 34.6 5.3 C 34.6 5.3 34.62 14.5 34.6 14.5 C 34.6 16 34.1 17.2 33.3 17.9 C 32.4 18.7 31 19 29.5 19 C 26.7 19 24.8 17.9 24.5 15.7 Z M 31.6 10 C 31.6 8.6 30.8 7.4 29.5 7.4 C 28.3 7.4 27.5 8.4 27.5 10 C 27.5 11.5 28.3 12.5 29.5 12.5 C 30.9 12.5 31.6 11.4 31.6 10 Z M 35.7 12.6 C 35.7 10.4 37.5 9.7 39.6 9.4 C 41.5 9.2 42.2 9 42.2 8.3 C 42.2 7.6 41.8 7.2 40.8 7.2 C 39.8 7.2 39.3 7.6 39.2 8.5 C 39.2 8.5 36.2 8.5 36.2 8.5 C 36.2 6.6 37.7 5 40.8 5 C 42.3 5 43.4 5.3 44.1 5.8 C 45 6.5 45.4 7.5 45.4 8.7 C 45.4 8.7 45.4 13.9 45.4 13.9 C 45.4 14.7 45.5 15.2 45.8 15.4 C 45.78 15.36 45.8 15.5 45.8 15.5 C 45.8 15.5 42.62 15.5 42.6 15.5 C 42.5 15.3 42.4 14.9 42.3 14.4 C 42.3 14.4 42.2 14.4 42.2 14.4 C 41.6 15.2 40.7 15.8 39.2 15.8 C 37.2 15.8 35.7 14.7 35.7 12.6 Z M 42.3 11.8 C 42.3 11.8 42.3 10.6 42.3 10.6 C 41.9 10.8 41.3 11 40.6 11.2 C 39.4 11.4 38.8 11.8 38.8 12.5 C 38.8 13.4 39.4 13.7 40.2 13.7 C 41.5 13.7 42.3 12.9 42.3 11.8 Z M 46.8 15.7 C 46.8 15.7 49.9 15.7 49.9 15.7 C 50.1 16.3 50.6 16.7 51.7 16.7 C 53.1 16.7 53.7 16 53.7 14.8 C 53.68 14.78 53.7 13.8 53.7 13.8 C 53.7 13.8 53.6 13.76 53.6 13.8 C 53 14.4 52.2 14.9 51 14.9 C 48.7 14.9 46.5 13.2 46.5 10.1 C 46.5 7.1 48.3 5 50.8 5 C 52.2 5 53.1 5.5 53.7 6.4 C 53.72 6.36 53.8 6.4 53.8 6.4 L 53.8 5.3 L 56.9 5.3 C 56.9 5.3 56.88 14.5 56.9 14.5 C 56.9 16 56.3 17.2 55.5 17.9 C 54.6 18.7 53.3 19 51.8 19 C 48.9 19 47.1 17.9 46.8 15.7 Z M 53.8 10 C 53.8 8.6 53.1 7.4 51.7 7.4 C 50.5 7.4 49.7 8.4 49.7 10 C 49.7 11.5 50.5 12.5 51.7 12.5 C 53.2 12.5 53.8 11.4 53.8 10 Z M 58.4 5.3 L 61.6 5.3 L 61.6 6.7 C 61.6 6.7 61.62 6.72 61.6 6.7 C 62.3 5.7 63.2 5 64.7 5 C 66.1 5 67.1 5.7 67.6 6.8 C 67.6 6.8 67.6 6.8 67.6 6.8 C 68.4 5.5 69.5 5 70.9 5 C 73.2 5 74.3 6.5 74.3 8.8 C 74.34 8.84 74.3 15.5 74.3 15.5 L 71.1 15.5 C 71.1 15.5 71.08 9.42 71.1 9.4 C 71.1 8.3 70.6 7.7 69.6 7.7 C 68.6 7.7 68 8.5 68 9.8 C 68.02 9.76 68 15.5 68 15.5 L 64.8 15.5 C 64.8 15.5 64.76 9.42 64.8 9.4 C 64.8 8.3 64.3 7.7 63.3 7.7 C 62.3 7.7 61.7 8.5 61.7 9.8 C 61.7 9.76 61.7 15.5 61.7 15.5 L 58.4 15.5 L 58.4 5.3 Z M 75.4 10.4 C 75.4 7.3 77.5 5 80.6 5 C 82.1 5 83.2 5.4 84.1 6.2 C 85.3 7.4 85.9 9.1 85.9 11.2 C 85.9 11.2 78.6 11.2 78.6 11.2 C 78.8 12.6 79.5 13.5 80.9 13.5 C 81.7 13.5 82.3 13.1 82.6 12.4 C 82.6 12.4 85.7 12.4 85.7 12.4 C 85.5 13.4 84.9 14.2 84 14.9 C 83.2 15.5 82.1 15.8 80.8 15.8 C 77.4 15.8 75.4 13.5 75.4 10.4 Z M 82.6 9.3 C 82.5 8.1 81.7 7.3 80.7 7.3 C 79.4 7.3 78.8 8.1 78.6 9.3 C 78.6 9.3 82.6 9.3 82.6 9.3 Z M 87 5.3 L 90.2 5.3 L 90.2 6.7 C 90.2 6.7 90.22 6.66 90.2 6.7 C 91 5.6 92 5 93.4 5 C 95.6 5 96.9 6.6 96.9 8.8 C 96.94 8.84 96.9 15.5 96.9 15.5 L 93.7 15.5 C 93.7 15.5 93.68 9.5 93.7 9.5 C 93.7 8.4 93.1 7.7 92.1 7.7 C 91 7.7 90.3 8.6 90.3 9.8 C 90.28 9.84 90.3 15.5 90.3 15.5 L 87 15.5 L 87 5.3 Z M 99 12.8 C 99.02 12.8 99 7.3 99 7.3 L 97.7 7.3 L 97.7 5.3 L 99 5.3 L 99 2 L 102.2 2 L 102.2 5.3 L 104.1 5.3 L 104.1 7.3 L 102.2 7.3 C 102.2 7.3 102.2 12.1 102.2 12.1 C 102.2 12.9 102.6 13.1 103.3 13.1 C 103.6 13.1 103.9 13.1 104.1 13.1 C 104.1 13.1 104.1 15.5 104.1 15.5 C 103.8 15.5 103.2 15.6 102.3 15.6 C 100.4 15.6 99 15 99 12.8 Z " stroke="none" fill="#d12229"/>  </g></svg>