<?xml version="1.0" standalone="no"?><!DOCTYPE svg PUBLIC "-//W3C//DTD SVG 1.1//EN" "http://www.w3.org/Graphics/SVG/1.1/DTD/svg11.dtd"><svg xmlns="http://www.w3.org/2000/svg" version="1.1" width="188px" height="28.2px" viewBox="0 -3 188 28.2" style="top:-3px">  <desc>Hairdryer Foam Model Project</desc>  <defs/>  <g id="Polygon7157">    <path d="M 0.8 0.8 L 2.8 0.8 L 2.8 4.7 L 6.7 4.7 L 6.7 0.8 L 8.8 0.8 L 8.8 10.8 L 6.7 10.8 L 6.7 6.4 L 2.8 6.4 L 2.8 10.8 L 0.8 10.8 L 0.8 0.8 Z M 14.4 10 C 14.4 10 14.4 10 14.4 10 C 14.1 10.5 13.5 11 12.3 11 C 10.8 11 9.8 10.2 9.8 8.8 C 9.8 7.2 11.1 6.7 12.7 6.5 C 13.9 6.3 14.4 6.2 14.4 5.6 C 14.4 5.1 14 4.8 13.2 4.8 C 12.3 4.8 11.9 5.1 11.8 5.8 C 11.8 5.8 10.1 5.8 10.1 5.8 C 10.2 4.5 11.1 3.4 13.2 3.4 C 15.4 3.4 16.3 4.4 16.3 6.1 C 16.3 6.1 16.3 9.7 16.3 9.7 C 16.3 10.3 16.3 10.6 16.5 10.7 C 16.51 10.72 16.5 10.8 16.5 10.8 C 16.5 10.8 14.67 10.79 14.7 10.8 C 14.6 10.7 14.5 10.3 14.4 10 Z M 14.5 8.3 C 14.5 8.3 14.5 7.2 14.5 7.2 C 14.1 7.4 13.6 7.5 13.1 7.6 C 12.1 7.8 11.6 8.1 11.6 8.7 C 11.6 9.4 12.1 9.6 12.8 9.6 C 13.9 9.6 14.5 9 14.5 8.3 Z M 17.5 3.6 L 19.4 3.6 L 19.4 10.8 L 17.5 10.8 L 17.5 3.6 Z M 17.5 0.8 L 19.4 0.8 L 19.4 2.5 L 17.5 2.5 L 17.5 0.8 Z M 22.4 4.8 C 22.4 4.8 22.47 4.76 22.5 4.8 C 22.9 3.9 23.4 3.5 24.2 3.5 C 24.4 3.5 24.6 3.5 24.7 3.6 C 24.68 3.58 24.7 5.3 24.7 5.3 C 24.7 5.3 24.64 5.25 24.6 5.3 C 23.4 5.1 22.5 5.8 22.5 7.3 C 22.5 7.29 22.5 10.8 22.5 10.8 L 20.6 10.8 L 20.6 3.6 L 22.4 3.6 L 22.4 4.8 Z M 24.9 7.2 C 24.9 5 26.2 3.4 28 3.4 C 29 3.4 29.7 3.9 30 4.5 C 30.04 4.48 30.1 4.5 30.1 4.5 L 30.1 0.8 L 32 0.8 L 32 10.8 L 30.2 10.8 L 30.2 9.9 C 30.2 9.9 30.13 9.86 30.1 9.9 C 29.7 10.5 29 11 28 11 C 26.2 11 24.9 9.5 24.9 7.2 Z M 30.1 7.3 C 30.1 5.9 29.7 5 28.5 5 C 27.4 5 26.9 5.9 26.9 7.2 C 26.9 8.6 27.4 9.4 28.4 9.4 C 29.5 9.4 30.1 8.6 30.1 7.3 Z M 35.1 4.8 C 35.1 4.8 35.1 4.76 35.1 4.8 C 35.5 3.9 36 3.5 36.9 3.5 C 37.1 3.5 37.2 3.5 37.3 3.6 C 37.31 3.58 37.3 5.3 37.3 5.3 C 37.3 5.3 37.27 5.25 37.3 5.3 C 36 5.1 35.1 5.8 35.1 7.3 C 35.12 7.29 35.1 10.8 35.1 10.8 L 33.2 10.8 L 33.2 3.6 L 35.1 3.6 L 35.1 4.8 Z M 38.4 11.6 C 38.4 11.6 39.03 11.65 39 11.6 C 39.8 11.6 40.1 11.3 40.1 10.7 C 40.1 10.3 40 9.8 39.5 8.7 C 39.55 8.72 37.6 3.6 37.6 3.6 L 39.6 3.6 C 39.6 3.6 40.68 6.85 40.7 6.8 C 40.91 7.5 41.1 8.4 41.1 8.4 L 41.2 8.4 C 41.2 8.4 41.37 7.5 41.6 6.8 C 41.59 6.85 42.6 3.6 42.6 3.6 L 44.5 3.6 C 44.5 3.6 42.01 10.98 42 11 C 41.5 12.6 40.9 13.1 39.5 13.1 C 39.48 13.15 38.4 13.1 38.4 13.1 L 38.4 11.6 Z M 44.6 7.2 C 44.6 5.1 46 3.4 48.1 3.4 C 50.5 3.4 51.7 5.2 51.7 7.7 C 51.7 7.7 46.5 7.7 46.5 7.7 C 46.6 8.8 47.2 9.5 48.3 9.5 C 49.1 9.5 49.5 9.2 49.7 8.7 C 49.7 8.7 51.6 8.7 51.6 8.7 C 51.3 9.9 50.2 11 48.3 11 C 45.9 11 44.6 9.3 44.6 7.2 Z M 46.5 6.4 C 46.5 6.4 49.7 6.4 49.7 6.4 C 49.6 5.5 49 4.9 48.2 4.9 C 47.2 4.9 46.7 5.5 46.5 6.4 Z M 54.4 4.8 C 54.4 4.8 54.44 4.76 54.4 4.8 C 54.9 3.9 55.4 3.5 56.2 3.5 C 56.4 3.5 56.5 3.5 56.7 3.6 C 56.66 3.58 56.7 5.3 56.7 5.3 C 56.7 5.3 56.61 5.25 56.6 5.3 C 55.4 5.1 54.5 5.8 54.5 7.3 C 54.47 7.29 54.5 10.8 54.5 10.8 L 52.6 10.8 L 52.6 3.6 L 54.4 3.6 L 54.4 4.8 Z M 60 0.8 L 67.2 0.8 L 67.2 2.5 L 62 2.5 L 62 4.9 L 66.4 4.9 L 66.4 6.6 L 62 6.6 L 62 10.8 L 60 10.8 L 60 0.8 Z M 67.2 7.2 C 67.2 5.1 68.7 3.4 70.9 3.4 C 73.1 3.4 74.7 5.1 74.7 7.2 C 74.7 9.4 73.1 11 70.9 11 C 68.7 11 67.2 9.4 67.2 7.2 Z M 72.7 7.2 C 72.7 5.8 72.1 4.9 70.9 4.9 C 69.7 4.9 69.1 5.8 69.1 7.2 C 69.1 8.6 69.7 9.5 70.9 9.5 C 72.1 9.5 72.7 8.6 72.7 7.2 Z M 79.9 10 C 79.9 10 79.8 10 79.8 10 C 79.5 10.5 78.9 11 77.7 11 C 76.2 11 75.2 10.2 75.2 8.8 C 75.2 7.2 76.5 6.7 78.1 6.5 C 79.3 6.3 79.8 6.2 79.8 5.6 C 79.8 5.1 79.4 4.8 78.6 4.8 C 77.7 4.8 77.3 5.1 77.2 5.8 C 77.2 5.8 75.5 5.8 75.5 5.8 C 75.6 4.5 76.5 3.4 78.6 3.4 C 80.8 3.4 81.7 4.4 81.7 6.1 C 81.7 6.1 81.7 9.7 81.7 9.7 C 81.7 10.3 81.7 10.6 81.9 10.7 C 81.91 10.72 81.9 10.8 81.9 10.8 C 81.9 10.8 80.08 10.79 80.1 10.8 C 80 10.7 79.9 10.3 79.9 10 Z M 79.9 8.3 C 79.9 8.3 79.9 7.2 79.9 7.2 C 79.5 7.4 79 7.5 78.5 7.6 C 77.5 7.8 77.1 8.1 77.1 8.7 C 77.1 9.4 77.5 9.6 78.2 9.6 C 79.3 9.6 79.9 9 79.9 8.3 Z M 82.9 3.6 L 84.7 3.6 L 84.7 4.6 C 84.7 4.6 84.74 4.58 84.7 4.6 C 85.1 3.9 85.8 3.4 86.8 3.4 C 87.7 3.4 88.5 3.9 88.8 4.7 C 88.8 4.7 88.8 4.7 88.8 4.7 C 89.3 3.9 90.1 3.4 91 3.4 C 92.5 3.4 93.4 4.4 93.4 6 C 93.36 5.96 93.4 10.8 93.4 10.8 L 91.5 10.8 C 91.5 10.8 91.46 6.29 91.5 6.3 C 91.5 5.5 91.1 5.1 90.4 5.1 C 89.6 5.1 89.1 5.7 89.1 6.6 C 89.07 6.62 89.1 10.8 89.1 10.8 L 87.2 10.8 C 87.2 10.8 87.16 6.29 87.2 6.3 C 87.2 5.5 86.8 5.1 86.1 5.1 C 85.3 5.1 84.8 5.7 84.8 6.6 C 84.77 6.62 84.8 10.8 84.8 10.8 L 82.9 10.8 L 82.9 3.6 Z M 97 0.8 L 99.9 0.8 C 99.9 0.8 101.32 5.81 101.3 5.8 C 101.67 7.07 101.9 8.5 101.9 8.5 L 102 8.5 C 102 8.5 102.24 7.07 102.6 5.8 C 102.59 5.81 104 0.8 104 0.8 L 106.9 0.8 L 106.9 10.8 L 105 10.8 C 105 10.8 105.01 5.05 105 5.1 C 105.01 4.24 105.1 3 105.1 3 L 105.1 3 C 105.1 3 104.85 4.16 104.6 4.9 C 104.64 4.89 102.9 10.8 102.9 10.8 L 101 10.8 C 101 10.8 99.29 4.89 99.3 4.9 C 99.08 4.16 98.9 3 98.9 3 L 98.8 3 C 98.8 3 98.91 4.24 98.9 5.1 C 98.91 5.05 98.9 10.8 98.9 10.8 L 97 10.8 L 97 0.8 Z M 107.9 7.2 C 107.9 5.1 109.5 3.4 111.7 3.4 C 113.9 3.4 115.4 5.1 115.4 7.2 C 115.4 9.4 113.9 11 111.7 11 C 109.5 11 107.9 9.4 107.9 7.2 Z M 113.5 7.2 C 113.5 5.8 112.9 4.9 111.7 4.9 C 110.5 4.9 109.9 5.8 109.9 7.2 C 109.9 8.6 110.5 9.5 111.7 9.5 C 112.9 9.5 113.5 8.6 113.5 7.2 Z M 116 7.2 C 116 5 117.2 3.4 119 3.4 C 120 3.4 120.7 3.9 121.1 4.5 C 121.07 4.48 121.1 4.5 121.1 4.5 L 121.1 0.8 L 123 0.8 L 123 10.8 L 121.2 10.8 L 121.2 9.9 C 121.2 9.9 121.16 9.86 121.2 9.9 C 120.7 10.5 120 11 119 11 C 117.2 11 116 9.5 116 7.2 Z M 121.2 7.3 C 121.2 5.9 120.7 5 119.5 5 C 118.4 5 117.9 5.9 117.9 7.2 C 117.9 8.6 118.5 9.4 119.4 9.4 C 120.6 9.4 121.2 8.6 121.2 7.3 Z M 123.9 7.2 C 123.9 5.1 125.3 3.4 127.4 3.4 C 129.8 3.4 131 5.2 131 7.7 C 131 7.7 125.8 7.7 125.8 7.7 C 125.9 8.8 126.5 9.5 127.6 9.5 C 128.4 9.5 128.8 9.2 129 8.7 C 129 8.7 130.9 8.7 130.9 8.7 C 130.6 9.9 129.5 11 127.6 11 C 125.2 11 123.9 9.3 123.9 7.2 Z M 125.8 6.4 C 125.8 6.4 129 6.4 129 6.4 C 128.9 5.5 128.3 4.9 127.5 4.9 C 126.5 4.9 126 5.5 125.8 6.4 Z M 131.9 0.8 L 133.8 0.8 L 133.8 10.8 L 131.9 10.8 L 131.9 0.8 Z M 137.6 0.8 C 137.6 0.8 141.96 0.78 142 0.8 C 143.1 0.8 144 1.1 144.6 1.7 C 145.1 2.3 145.5 3.1 145.5 4 C 145.5 5.9 144.2 7.2 142.1 7.2 C 142.13 7.17 139.7 7.2 139.7 7.2 L 139.7 10.8 L 137.6 10.8 L 137.6 0.8 Z M 139.7 5.5 C 139.7 5.5 141.76 5.52 141.8 5.5 C 142.8 5.5 143.4 4.9 143.4 4 C 143.4 3.1 142.8 2.5 141.8 2.5 C 141.79 2.55 139.7 2.5 139.7 2.5 L 139.7 5.5 Z M 148.2 4.8 C 148.2 4.8 148.2 4.76 148.2 4.8 C 148.6 3.9 149.1 3.5 150 3.5 C 150.2 3.5 150.3 3.5 150.4 3.6 C 150.41 3.58 150.4 5.3 150.4 5.3 C 150.4 5.3 150.37 5.25 150.4 5.3 C 149.1 5.1 148.2 5.8 148.2 7.3 C 148.23 7.29 148.2 10.8 148.2 10.8 L 146.3 10.8 L 146.3 3.6 L 148.2 3.6 L 148.2 4.8 Z M 150.7 7.2 C 150.7 5.1 152.2 3.4 154.4 3.4 C 156.7 3.4 158.2 5.1 158.2 7.2 C 158.2 9.4 156.7 11 154.4 11 C 152.2 11 150.7 9.4 150.7 7.2 Z M 156.3 7.2 C 156.3 5.8 155.6 4.9 154.4 4.9 C 153.3 4.9 152.6 5.8 152.6 7.2 C 152.6 8.6 153.3 9.5 154.4 9.5 C 155.6 9.5 156.3 8.6 156.3 7.2 Z M 157.9 13.1 C 157.9 13.1 157.9 11.7 157.9 11.7 C 158.6 11.7 159.1 11.6 159.1 11 C 159.07 10.96 159.1 3.6 159.1 3.6 L 161 3.6 C 161 3.6 160.97 11.06 161 11.1 C 161 11.9 160.8 12.3 160.5 12.6 C 160.1 13 159.6 13.1 159 13.1 C 158.6 13.1 158.2 13.1 157.9 13.1 Z M 159.1 0.8 L 161 0.8 L 161 2.5 L 159.1 2.5 L 159.1 0.8 Z M 161.9 7.2 C 161.9 5.1 163.3 3.4 165.4 3.4 C 167.7 3.4 168.9 5.2 168.9 7.7 C 168.9 7.7 163.7 7.7 163.7 7.7 C 163.9 8.8 164.5 9.5 165.6 9.5 C 166.3 9.5 166.7 9.2 166.9 8.7 C 166.9 8.7 168.8 8.7 168.8 8.7 C 168.6 9.9 167.4 11 165.6 11 C 163.2 11 161.9 9.3 161.9 7.2 Z M 163.8 6.4 C 163.8 6.4 166.9 6.4 166.9 6.4 C 166.9 5.5 166.3 4.9 165.4 4.9 C 164.4 4.9 163.9 5.5 163.8 6.4 Z M 169.5 7.2 C 169.5 5.1 170.9 3.4 173.1 3.4 C 174.9 3.4 176.1 4.5 176.3 6 C 176.3 6 174.5 6 174.5 6 C 174.3 5.4 173.8 4.9 173.1 4.9 C 172 4.9 171.4 5.8 171.4 7.2 C 171.4 8.6 171.9 9.5 173.1 9.5 C 173.9 9.5 174.4 9.1 174.5 8.3 C 174.5 8.3 176.4 8.3 176.4 8.3 C 176.3 9.8 175.1 11 173.1 11 C 170.9 11 169.5 9.4 169.5 7.2 Z M 176.8 3.6 L 177.8 3.6 L 177.8 1.4 L 179.6 1.4 L 179.6 3.6 L 180.9 3.6 L 180.9 4.9 L 179.6 4.9 C 179.6 4.9 179.65 8.67 179.6 8.7 C 179.6 9.2 179.9 9.4 180.4 9.4 C 180.6 9.38 180.9 9.4 180.9 9.4 L 180.9 10.8 C 180.9 10.8 180.49 10.79 179.7 10.8 C 178.8 10.8 177.8 10.4 177.8 9.1 C 177.78 9.07 177.8 4.9 177.8 4.9 L 176.8 4.9 L 176.8 3.6 Z " stroke="none" fill="#fff"/>  </g></svg>