<?xml version="1.0" standalone="no"?><!DOCTYPE svg PUBLIC "-//W3C//DTD SVG 1.1//EN" "http://www.w3.org/Graphics/SVG/1.1/DTD/svg11.dtd"><svg xmlns="http://www.w3.org/2000/svg" version="1.1" width="120.2px" height="43.2px" viewBox="0 -3 120.2 43.2" style="top:-3px">  <desc>Squirt Gun Paint</desc>  <defs/>  <g id="Polygon8036">    <path d="M 11 7.7 C 11 7.7 13 7.7 13 7.7 C 13.1 8.9 13.8 9.4 15.2 9.4 C 16.3 9.4 17.2 9 17.2 8.1 C 17.2 7.1 16.2 6.9 14.7 6.6 C 12.9 6.2 11.3 5.7 11.3 3.6 C 11.3 1.6 12.9 0.6 15.1 0.6 C 17.3 0.6 18.8 1.7 19 3.7 C 19 3.7 17 3.7 17 3.7 C 16.9 2.7 16.1 2.2 15.1 2.2 C 14 2.2 13.3 2.7 13.3 3.4 C 13.3 4.2 14 4.4 15.5 4.8 C 17.5 5.2 19.2 5.7 19.2 7.9 C 19.2 9.9 17.6 11 15.3 11 C 12.6 11 11 9.8 11 7.7 Z M 25.1 10 C 25.1 10 25.09 9.98 25.1 10 C 24.7 10.6 24.1 11 23.1 11 C 21.4 11 20 9.5 20 7.2 C 20 5 21.2 3.4 23.1 3.4 C 24.1 3.4 24.7 3.8 25.1 4.5 C 25.14 4.51 25.2 4.5 25.2 4.5 L 25.2 3.6 L 27 3.6 L 27 13.1 L 25.1 13.1 L 25.1 10 Z M 25.2 7.3 C 25.2 6 24.7 4.9 23.5 4.9 C 22.4 4.9 21.9 5.9 21.9 7.3 C 21.9 8.6 22.5 9.4 23.5 9.4 C 24.5 9.4 25.2 8.6 25.2 7.3 Z M 32.8 10.8 L 32.8 10 C 32.8 10 32.75 9.95 32.7 10 C 32.3 10.6 31.7 11 30.7 11 C 29.1 11 28.2 10 28.2 8.4 C 28.2 8.4 28.2 3.6 28.2 3.6 L 30.1 3.6 C 30.1 3.6 30.08 8.08 30.1 8.1 C 30.1 8.9 30.5 9.4 31.3 9.4 C 32.2 9.4 32.7 8.7 32.7 7.8 C 32.72 7.76 32.7 3.6 32.7 3.6 L 34.6 3.6 L 34.6 10.8 L 32.8 10.8 Z M 35.9 3.6 L 37.8 3.6 L 37.8 10.8 L 35.9 10.8 L 35.9 3.6 Z M 35.9 0.8 L 37.8 0.8 L 37.8 2.5 L 35.9 2.5 L 35.9 0.8 Z M 40.8 4.8 C 40.8 4.8 40.86 4.76 40.9 4.8 C 41.3 3.9 41.8 3.5 42.6 3.5 C 42.8 3.5 43 3.5 43.1 3.6 C 43.08 3.58 43.1 5.3 43.1 5.3 C 43.1 5.3 43.03 5.25 43 5.3 C 41.8 5.1 40.9 5.8 40.9 7.3 C 40.89 7.29 40.9 10.8 40.9 10.8 L 39 10.8 L 39 3.6 L 40.8 3.6 L 40.8 4.8 Z M 43.6 3.6 L 44.5 3.6 L 44.5 1.4 L 46.4 1.4 L 46.4 3.6 L 47.6 3.6 L 47.6 4.9 L 46.4 4.9 C 46.4 4.9 46.41 8.67 46.4 8.7 C 46.4 9.2 46.7 9.4 47.1 9.4 C 47.36 9.38 47.7 9.4 47.7 9.4 L 47.7 10.8 C 47.7 10.8 47.25 10.79 46.5 10.8 C 45.6 10.8 44.5 10.4 44.5 9.1 C 44.55 9.07 44.5 4.9 44.5 4.9 L 43.6 4.9 L 43.6 3.6 Z M 58.4 9.5 C 58.4 9.5 58.36 9.45 58.4 9.5 C 57.7 10.6 56.7 11 55.5 11 C 54 11 52.9 10.5 52 9.5 C 51.2 8.6 50.7 7.3 50.7 5.8 C 50.7 4.2 51.3 2.7 52.4 1.7 C 53.2 1 54.2 0.6 55.6 0.6 C 58.1 0.6 59.6 2 59.9 3.9 C 59.9 3.9 57.9 3.9 57.9 3.9 C 57.7 3 56.9 2.3 55.6 2.3 C 53.7 2.3 52.8 3.8 52.8 5.8 C 52.8 7.9 53.9 9.4 55.6 9.4 C 57.2 9.4 58.2 8.2 58.2 7.1 C 58.18 7.1 58.2 7 58.2 7 L 55.8 7 L 55.8 5.5 L 60 5.5 L 60 10.8 L 58.5 10.8 L 58.4 9.5 Z M 65.8 10.8 L 65.8 10 C 65.8 10 65.74 9.95 65.7 10 C 65.3 10.6 64.7 11 63.7 11 C 62.1 11 61.2 10 61.2 8.4 C 61.19 8.4 61.2 3.6 61.2 3.6 L 63.1 3.6 C 63.1 3.6 63.08 8.08 63.1 8.1 C 63.1 8.9 63.5 9.4 64.3 9.4 C 65.2 9.4 65.7 8.7 65.7 7.8 C 65.71 7.76 65.7 3.6 65.7 3.6 L 67.6 3.6 L 67.6 10.8 L 65.8 10.8 Z M 70.7 4.6 C 70.7 4.6 70.75 4.59 70.8 4.6 C 71.2 3.8 71.9 3.4 72.9 3.4 C 74.4 3.4 75.4 4.5 75.4 6.1 C 75.36 6.1 75.4 10.8 75.4 10.8 L 73.5 10.8 C 73.5 10.8 73.46 6.38 73.5 6.4 C 73.5 5.6 73 5.1 72.2 5.1 C 71.4 5.1 70.8 5.7 70.8 6.7 C 70.75 6.72 70.8 10.8 70.8 10.8 L 68.9 10.8 L 68.9 3.6 L 70.7 3.6 L 70.7 4.6 Z M 79 0.8 C 79 0.8 83.44 0.78 83.4 0.8 C 84.6 0.8 85.5 1.1 86.1 1.7 C 86.6 2.3 87 3.1 87 4 C 87 5.9 85.7 7.2 83.6 7.2 C 83.61 7.17 81.1 7.2 81.1 7.2 L 81.1 10.8 L 79 10.8 L 79 0.8 Z M 81.1 5.5 C 81.1 5.5 83.24 5.52 83.2 5.5 C 84.3 5.5 84.9 4.9 84.9 4 C 84.9 3.1 84.3 2.5 83.3 2.5 C 83.27 2.55 81.1 2.5 81.1 2.5 L 81.1 5.5 Z M 91.8 10 C 91.8 10 91.8 10 91.8 10 C 91.4 10.5 90.9 11 89.7 11 C 88.2 11 87.2 10.2 87.2 8.8 C 87.2 7.2 88.5 6.7 90.1 6.5 C 91.3 6.3 91.8 6.2 91.8 5.6 C 91.8 5.1 91.4 4.8 90.6 4.8 C 89.7 4.8 89.3 5.1 89.2 5.8 C 89.2 5.8 87.5 5.8 87.5 5.8 C 87.6 4.5 88.5 3.4 90.6 3.4 C 92.8 3.4 93.6 4.4 93.6 6.1 C 93.6 6.1 93.6 9.7 93.6 9.7 C 93.6 10.3 93.7 10.6 93.9 10.7 C 93.88 10.72 93.9 10.8 93.9 10.8 C 93.9 10.8 92.05 10.79 92 10.8 C 91.9 10.7 91.9 10.3 91.8 10 Z M 91.8 8.3 C 91.8 8.3 91.8 7.2 91.8 7.2 C 91.5 7.4 91 7.5 90.5 7.6 C 89.5 7.8 89 8.1 89 8.7 C 89 9.4 89.5 9.6 90.1 9.6 C 91.2 9.6 91.8 9 91.8 8.3 Z M 94.8 3.6 L 96.7 3.6 L 96.7 10.8 L 94.8 10.8 L 94.8 3.6 Z M 94.8 0.8 L 96.7 0.8 L 96.7 2.5 L 94.8 2.5 L 94.8 0.8 Z M 99.8 4.6 C 99.8 4.6 99.87 4.59 99.9 4.6 C 100.4 3.8 101 3.4 102 3.4 C 103.5 3.4 104.5 4.5 104.5 6.1 C 104.48 6.1 104.5 10.8 104.5 10.8 L 102.6 10.8 C 102.6 10.8 102.58 6.38 102.6 6.4 C 102.6 5.6 102.1 5.1 101.3 5.1 C 100.5 5.1 99.9 5.7 99.9 6.7 C 99.87 6.72 99.9 10.8 99.9 10.8 L 98 10.8 L 98 3.6 L 99.8 3.6 L 99.8 4.6 Z M 105.1 3.6 L 106.1 3.6 L 106.1 1.4 L 108 1.4 L 108 3.6 L 109.2 3.6 L 109.2 4.9 L 108 4.9 C 108 4.9 107.95 8.67 108 8.7 C 108 9.2 108.2 9.4 108.7 9.4 C 108.9 9.38 109.2 9.4 109.2 9.4 L 109.2 10.8 C 109.2 10.8 108.79 10.79 108 10.8 C 107.1 10.8 106.1 10.4 106.1 9.1 C 106.09 9.07 106.1 4.9 106.1 4.9 L 105.1 4.9 L 105.1 3.6 Z " stroke="none" fill="#000"/>  </g></svg>