<?xml version="1.0" standalone="no"?><!DOCTYPE svg PUBLIC "-//W3C//DTD SVG 1.1//EN" "http://www.w3.org/Graphics/SVG/1.1/DTD/svg11.dtd"><svg xmlns="http://www.w3.org/2000/svg" version="1.1" width="300px" height="28.2px" viewBox="0 -3 300 28.2" style="top:-3px">  <desc>Art Deco Coffee Grinder PDES 2777</desc>  <defs/>  <g id="Polygon3189">    <path d="M 3.5 0.8 L 5.6 0.8 L 9.2 10.8 L 7 10.8 L 6.4 8.7 L 2.8 8.7 L 2.1 10.8 L 0 10.8 L 3.5 0.8 Z M 3.2 7.1 L 5.9 7.1 C 5.9 7.1 4.98 4.23 5 4.2 C 4.82 3.7 4.6 2.7 4.6 2.7 L 4.5 2.7 C 4.5 2.7 4.3 3.7 4.1 4.2 C 4.13 4.23 3.2 7.1 3.2 7.1 Z M 11.7 4.8 C 11.7 4.8 11.72 4.76 11.7 4.8 C 12.2 3.9 12.6 3.5 13.5 3.5 C 13.7 3.5 13.8 3.5 13.9 3.6 C 13.93 3.58 13.9 5.3 13.9 5.3 C 13.9 5.3 13.89 5.25 13.9 5.3 C 12.6 5.1 11.7 5.8 11.7 7.3 C 11.75 7.29 11.7 10.8 11.7 10.8 L 9.8 10.8 L 9.8 3.6 L 11.7 3.6 L 11.7 4.8 Z M 14.4 3.6 L 15.4 3.6 L 15.4 1.4 L 17.3 1.4 L 17.3 3.6 L 18.5 3.6 L 18.5 4.9 L 17.3 4.9 C 17.3 4.9 17.26 8.67 17.3 8.7 C 17.3 9.2 17.6 9.4 18 9.4 C 18.21 9.38 18.5 9.4 18.5 9.4 L 18.5 10.8 C 18.5 10.8 18.1 10.79 17.3 10.8 C 16.4 10.8 15.4 10.4 15.4 9.1 C 15.4 9.07 15.4 4.9 15.4 4.9 L 14.4 4.9 L 14.4 3.6 Z M 22 0.8 C 22 0.8 25.89 0.78 25.9 0.8 C 28.6 0.8 30.3 2.9 30.3 5.9 C 30.3 7.5 29.7 8.9 28.7 9.8 C 27.9 10.4 27 10.8 25.7 10.8 C 25.72 10.79 22 10.8 22 10.8 L 22 0.8 Z M 25.6 9 C 27.5 9 28.2 7.9 28.2 5.9 C 28.2 3.9 27.4 2.5 25.6 2.5 C 25.63 2.52 24 2.5 24 2.5 L 24 9 C 24 9 25.58 9.04 25.6 9 Z M 30.9 7.2 C 30.9 5.1 32.3 3.4 34.4 3.4 C 36.7 3.4 38 5.2 38 7.7 C 38 7.7 32.8 7.7 32.8 7.7 C 32.9 8.8 33.5 9.5 34.6 9.5 C 35.3 9.5 35.8 9.2 36 8.7 C 36 8.7 37.9 8.7 37.9 8.7 C 37.6 9.9 36.5 11 34.6 11 C 32.2 11 30.9 9.3 30.9 7.2 Z M 32.8 6.4 C 32.8 6.4 36 6.4 36 6.4 C 35.9 5.5 35.3 4.9 34.5 4.9 C 33.4 4.9 33 5.5 32.8 6.4 Z M 38.5 7.2 C 38.5 5.1 39.9 3.4 42.1 3.4 C 43.9 3.4 45.1 4.5 45.3 6 C 45.3 6 43.5 6 43.5 6 C 43.4 5.4 42.9 4.9 42.2 4.9 C 41 4.9 40.4 5.8 40.4 7.2 C 40.4 8.6 41 9.5 42.1 9.5 C 42.9 9.5 43.5 9.1 43.6 8.3 C 43.6 8.3 45.4 8.3 45.4 8.3 C 45.3 9.8 44.1 11 42.2 11 C 39.9 11 38.5 9.4 38.5 7.2 Z M 45.9 7.2 C 45.9 5.1 47.4 3.4 49.6 3.4 C 51.9 3.4 53.4 5.1 53.4 7.2 C 53.4 9.4 51.9 11 49.6 11 C 47.4 11 45.9 9.4 45.9 7.2 Z M 51.5 7.2 C 51.5 5.8 50.8 4.9 49.6 4.9 C 48.5 4.9 47.8 5.8 47.8 7.2 C 47.8 8.6 48.5 9.5 49.6 9.5 C 50.8 9.5 51.5 8.6 51.5 7.2 Z M 56.4 5.8 C 56.4 2.9 58.2 0.6 61.2 0.6 C 63.6 0.6 65.1 2.1 65.3 4 C 65.3 4 63.3 4 63.3 4 C 63.1 3 62.3 2.3 61.2 2.3 C 59.3 2.3 58.4 3.8 58.4 5.8 C 58.4 7.9 59.5 9.3 61.2 9.3 C 62.4 9.3 63.2 8.6 63.3 7.6 C 63.3 7.6 65.3 7.6 65.3 7.6 C 65.3 8.5 64.9 9.3 64.2 9.9 C 63.5 10.6 62.6 11 61.2 11 C 58.4 11 56.4 8.8 56.4 5.8 Z M 65.9 7.2 C 65.9 5.1 67.5 3.4 69.7 3.4 C 71.9 3.4 73.4 5.1 73.4 7.2 C 73.4 9.4 71.9 11 69.7 11 C 67.5 11 65.9 9.4 65.9 7.2 Z M 71.5 7.2 C 71.5 5.8 70.8 4.9 69.7 4.9 C 68.5 4.9 67.9 5.8 67.9 7.2 C 67.9 8.6 68.5 9.5 69.7 9.5 C 70.8 9.5 71.5 8.6 71.5 7.2 Z M 73.8 3.6 L 74.7 3.6 C 74.7 3.6 74.73 3.02 74.7 3 C 74.7 1.3 76.1 0.6 77.9 0.8 C 77.9 0.8 77.9 2.3 77.9 2.3 C 77 2.3 76.6 2.4 76.6 3.1 C 76.63 3.13 76.6 3.6 76.6 3.6 L 78.8 3.6 C 78.8 3.6 78.78 2.97 78.8 3 C 78.8 1.2 80.1 0.6 82 0.8 C 82 0.8 82 2.3 82 2.3 C 81.1 2.2 80.7 2.3 80.7 3.1 C 80.68 3.08 80.7 3.6 80.7 3.6 L 82 3.6 L 82 4.9 L 80.7 4.9 L 80.7 10.8 L 78.8 10.8 L 78.8 4.9 L 76.6 4.9 L 76.6 10.8 L 74.7 10.8 L 74.7 4.9 L 73.8 4.9 L 73.8 3.6 Z M 82.3 7.2 C 82.3 5.1 83.7 3.4 85.8 3.4 C 88.1 3.4 89.4 5.2 89.4 7.7 C 89.4 7.7 84.2 7.7 84.2 7.7 C 84.3 8.8 84.9 9.5 86 9.5 C 86.7 9.5 87.2 9.2 87.4 8.7 C 87.4 8.7 89.2 8.7 89.2 8.7 C 89 9.9 87.8 11 86 11 C 83.6 11 82.3 9.3 82.3 7.2 Z M 84.2 6.4 C 84.2 6.4 87.4 6.4 87.4 6.4 C 87.3 5.5 86.7 4.9 85.8 4.9 C 84.8 4.9 84.3 5.5 84.2 6.4 Z M 89.9 7.2 C 89.9 5.1 91.3 3.4 93.4 3.4 C 95.7 3.4 97 5.2 97 7.7 C 97 7.7 91.8 7.7 91.8 7.7 C 91.9 8.8 92.5 9.5 93.6 9.5 C 94.3 9.5 94.8 9.2 95 8.7 C 95 8.7 96.9 8.7 96.9 8.7 C 96.6 9.9 95.5 11 93.6 11 C 91.2 11 89.9 9.3 89.9 7.2 Z M 91.8 6.4 C 91.8 6.4 95 6.4 95 6.4 C 94.9 5.5 94.3 4.9 93.5 4.9 C 92.5 4.9 92 5.5 91.8 6.4 Z M 107.6 9.5 C 107.6 9.5 107.6 9.45 107.6 9.5 C 106.9 10.6 106 11 104.8 11 C 103.3 11 102.1 10.5 101.3 9.5 C 100.4 8.6 100 7.3 100 5.8 C 100 4.2 100.6 2.7 101.6 1.7 C 102.4 1 103.5 0.6 104.8 0.6 C 107.4 0.6 108.8 2 109.1 3.9 C 109.1 3.9 107.1 3.9 107.1 3.9 C 106.9 3 106.2 2.3 104.9 2.3 C 103 2.3 102 3.8 102 5.8 C 102 7.9 103.1 9.4 104.8 9.4 C 106.4 9.4 107.4 8.2 107.4 7.1 C 107.42 7.1 107.4 7 107.4 7 L 105 7 L 105 5.5 L 109.2 5.5 L 109.2 10.8 L 107.7 10.8 L 107.6 9.5 Z M 112.3 4.8 C 112.3 4.8 112.36 4.76 112.4 4.8 C 112.8 3.9 113.3 3.5 114.1 3.5 C 114.3 3.5 114.5 3.5 114.6 3.6 C 114.57 3.58 114.6 5.3 114.6 5.3 C 114.6 5.3 114.53 5.25 114.5 5.3 C 113.3 5.1 112.4 5.8 112.4 7.3 C 112.39 7.29 112.4 10.8 112.4 10.8 L 110.5 10.8 L 110.5 3.6 L 112.3 3.6 L 112.3 4.8 Z M 115.4 3.6 L 117.3 3.6 L 117.3 10.8 L 115.4 10.8 L 115.4 3.6 Z M 115.4 0.8 L 117.3 0.8 L 117.3 2.5 L 115.4 2.5 L 115.4 0.8 Z M 120.4 4.6 C 120.4 4.6 120.44 4.59 120.4 4.6 C 120.9 3.8 121.6 3.4 122.6 3.4 C 124.1 3.4 125 4.5 125 6.1 C 125.05 6.1 125 10.8 125 10.8 L 123.1 10.8 C 123.1 10.8 123.14 6.38 123.1 6.4 C 123.1 5.6 122.7 5.1 121.9 5.1 C 121.1 5.1 120.4 5.7 120.4 6.7 C 120.44 6.72 120.4 10.8 120.4 10.8 L 118.5 10.8 L 118.5 3.6 L 120.4 3.6 L 120.4 4.6 Z M 125.9 7.2 C 125.9 5 127.1 3.4 128.9 3.4 C 129.9 3.4 130.6 3.9 131 4.5 C 130.97 4.48 131 4.5 131 4.5 L 131 0.8 L 132.9 0.8 L 132.9 10.8 L 131.1 10.8 L 131.1 9.9 C 131.1 9.9 131.05 9.86 131.1 9.9 C 130.6 10.5 129.9 11 128.9 11 C 127.1 11 125.9 9.5 125.9 7.2 Z M 131.1 7.3 C 131.1 5.9 130.6 5 129.4 5 C 128.3 5 127.8 5.9 127.8 7.2 C 127.8 8.6 128.3 9.4 129.3 9.4 C 130.5 9.4 131.1 8.6 131.1 7.3 Z M 133.8 7.2 C 133.8 5.1 135.2 3.4 137.3 3.4 C 139.6 3.4 140.9 5.2 140.9 7.7 C 140.9 7.7 135.7 7.7 135.7 7.7 C 135.8 8.8 136.4 9.5 137.5 9.5 C 138.2 9.5 138.7 9.2 138.9 8.7 C 138.9 8.7 140.8 8.7 140.8 8.7 C 140.5 9.9 139.4 11 137.5 11 C 135.1 11 133.8 9.3 133.8 7.2 Z M 135.7 6.4 C 135.7 6.4 138.9 6.4 138.9 6.4 C 138.8 5.5 138.2 4.9 137.4 4.9 C 136.4 4.9 135.9 5.5 135.7 6.4 Z M 143.6 4.8 C 143.6 4.8 143.64 4.76 143.6 4.8 C 144.1 3.9 144.6 3.5 145.4 3.5 C 145.6 3.5 145.7 3.5 145.8 3.6 C 145.85 3.58 145.8 5.3 145.8 5.3 C 145.8 5.3 145.81 5.25 145.8 5.3 C 144.6 5.1 143.7 5.8 143.7 7.3 C 143.67 7.29 143.7 10.8 143.7 10.8 L 141.8 10.8 L 141.8 3.6 L 143.6 3.6 L 143.6 4.8 Z M 149.3 0.2 L 150.5 0.2 L 150.5 12.6 L 149.3 12.6 L 149.3 0.2 Z M 154.5 0.8 C 154.5 0.8 158.87 0.78 158.9 0.8 C 160 0.8 160.9 1.1 161.5 1.7 C 162 2.3 162.4 3.1 162.4 4 C 162.4 5.9 161.1 7.2 159 7.2 C 159.04 7.17 156.6 7.2 156.6 7.2 L 156.6 10.8 L 154.5 10.8 L 154.5 0.8 Z M 156.6 5.5 C 156.6 5.5 158.67 5.52 158.7 5.5 C 159.7 5.5 160.3 4.9 160.3 4 C 160.3 3.1 159.7 2.5 158.7 2.5 C 158.7 2.55 156.6 2.5 156.6 2.5 L 156.6 5.5 Z M 163.4 0.8 C 163.4 0.8 167.3 0.78 167.3 0.8 C 170 0.8 171.7 2.9 171.7 5.9 C 171.7 7.5 171.1 8.9 170.1 9.8 C 169.4 10.4 168.4 10.8 167.1 10.8 C 167.13 10.79 163.4 10.8 163.4 10.8 L 163.4 0.8 Z M 167 9 C 168.9 9 169.6 7.9 169.6 5.9 C 169.6 3.9 168.8 2.5 167 2.5 C 167.05 2.52 165.4 2.5 165.4 2.5 L 165.4 9 C 165.4 9 166.99 9.04 167 9 Z M 172.8 0.8 L 180.2 0.8 L 180.2 2.5 L 174.8 2.5 L 174.8 4.7 L 179.5 4.7 L 179.5 6.4 L 174.8 6.4 L 174.8 9.1 L 180.2 9.1 L 180.2 10.8 L 172.8 10.8 L 172.8 0.8 Z M 180.9 7.7 C 180.9 7.7 182.9 7.7 182.9 7.7 C 183.1 8.9 183.8 9.4 185.2 9.4 C 186.2 9.4 187.1 9 187.1 8.1 C 187.1 7.1 186.2 6.9 184.7 6.6 C 182.9 6.2 181.2 5.7 181.2 3.6 C 181.2 1.6 182.8 0.6 185.1 0.6 C 187.3 0.6 188.8 1.7 188.9 3.7 C 188.9 3.7 187 3.7 187 3.7 C 186.9 2.7 186.1 2.2 185 2.2 C 184 2.2 183.2 2.7 183.2 3.4 C 183.2 4.2 183.9 4.4 185.4 4.8 C 187.5 5.2 189.2 5.7 189.2 7.9 C 189.2 9.9 187.5 11 185.3 11 C 182.6 11 181 9.8 180.9 7.7 Z M 197 7 C 198.2 6 199.5 5.4 199.5 4.1 C 199.5 3.2 199 2.6 198.2 2.6 C 197.2 2.6 196.6 3.3 196.6 4.6 C 196.6 4.6 194.8 4.6 194.8 4.6 C 194.8 2.4 195.9 1 198.2 1 C 200.3 1 201.5 2.4 201.5 4.1 C 201.5 5.9 200.3 6.7 199.1 7.5 C 198.3 8 197.5 8.6 197.1 9.2 C 197.15 9.23 201.6 9.2 201.6 9.2 L 201.6 10.8 C 201.6 10.8 194.68 10.79 194.7 10.8 C 194.8 9 195.9 7.8 197 7 Z M 207 2.9 C 207 2.87 207 2.8 207 2.8 L 202.2 2.8 L 202.2 1.2 L 209.1 1.2 C 209.1 1.2 209.07 2.77 209.1 2.8 C 207.4 4.5 205.8 7.3 205.6 10.8 C 205.6 10.8 203.5 10.8 203.5 10.8 C 203.7 7.3 205.5 4.4 207 2.9 Z M 214.6 2.9 C 214.63 2.87 214.6 2.8 214.6 2.8 L 209.9 2.8 L 209.9 1.2 L 216.7 1.2 C 216.7 1.2 216.7 2.77 216.7 2.8 C 215 4.5 213.4 7.3 213.2 10.8 C 213.2 10.8 211.2 10.8 211.2 10.8 C 211.3 7.3 213.2 4.4 214.6 2.9 Z M 222.3 2.9 C 222.26 2.87 222.3 2.8 222.3 2.8 L 217.5 2.8 L 217.5 1.2 L 224.3 1.2 C 224.3 1.2 224.33 2.77 224.3 2.8 C 222.6 4.5 221 7.3 220.9 10.8 C 220.9 10.8 218.8 10.8 218.8 10.8 C 218.9 7.3 220.8 4.4 222.3 2.9 Z " stroke="none" fill="#000"/>  </g></svg>