<?xml version="1.0" standalone="no"?><!DOCTYPE svg PUBLIC "-//W3C//DTD SVG 1.1//EN" "http://www.w3.org/Graphics/SVG/1.1/DTD/svg11.dtd"><svg xmlns="http://www.w3.org/2000/svg" version="1.1" width="185px" height="72.1px" viewBox="0 -4 185 72.1" style="top:-4px">  <desc>Capless reservoir allows for easy refill and lacks choking hazards</desc>  <defs/>  <g id="Polygon8998">    <path d="M 0.4 52.4 C 0.4 49.6 2 47.5 4.7 47.5 C 6.7 47.5 8.1 48.7 8.4 50.6 C 8.4 50.6 7.3 50.6 7.3 50.6 C 7.1 49.2 6.1 48.5 4.7 48.5 C 2.6 48.5 1.6 50.3 1.6 52.4 C 1.6 54.6 2.6 56.3 4.7 56.3 C 6.3 56.3 7.3 55.3 7.4 53.9 C 7.4 53.9 8.5 53.9 8.5 53.9 C 8.3 56 6.9 57.3 4.7 57.3 C 2 57.3 0.4 55.2 0.4 52.4 Z M 9.8 44.2 L 10.9 44.2 L 10.9 49.2 C 10.9 49.2 10.98 49.18 11 49.2 C 11.6 48.2 12.6 47.6 14.1 47.6 C 15.8 47.6 17.1 48.6 17.1 50.5 C 17.06 50.45 17.1 57.1 17.1 57.1 L 15.9 57.1 C 15.9 57.1 15.95 50.56 15.9 50.6 C 15.9 49.2 15.1 48.5 13.8 48.5 C 12.2 48.5 10.9 49.6 10.9 51.2 C 10.94 51.16 10.9 57.1 10.9 57.1 L 9.8 57.1 L 9.8 44.2 Z M 25.8 52.4 C 25.8 50.2 24.8 48.5 22.7 48.5 C 20.6 48.5 19.5 50.2 19.5 52.4 C 19.5 54.6 20.6 56.4 22.7 56.4 C 24.8 56.4 25.8 54.6 25.8 52.4 Z M 18.4 52.4 C 18.4 49.6 20 47.5 22.7 47.5 C 25.4 47.5 27 49.6 27 52.4 C 27 55.2 25.4 57.3 22.7 57.3 C 20 57.3 18.4 55.2 18.4 52.4 Z M 28.4 44.2 L 29.5 44.2 L 29.5 52.2 L 34.1 47.8 L 35.5 47.8 L 32 51.1 L 36 57.1 L 34.7 57.1 L 31.2 51.8 L 29.5 53.5 L 29.5 57.1 L 28.4 57.1 L 28.4 44.2 Z M 37 47.8 L 38.1 47.8 L 38.1 57.1 L 37 57.1 L 37 47.8 Z M 37 44.2 L 38.1 44.2 L 38.1 45.8 L 37 45.8 L 37 44.2 Z M 40 47.8 L 41.1 47.8 L 41.1 49.2 C 41.1 49.2 41.15 49.18 41.1 49.2 C 41.8 48.2 42.8 47.6 44.3 47.6 C 46 47.6 47.2 48.6 47.2 50.5 C 47.23 50.45 47.2 57.1 47.2 57.1 L 46.1 57.1 C 46.1 57.1 46.12 50.56 46.1 50.6 C 46.1 49.2 45.3 48.5 44 48.5 C 42.4 48.5 41.1 49.6 41.1 51.2 C 41.11 51.16 41.1 57.1 41.1 57.1 L 40 57.1 L 40 47.8 Z M 48.9 57.9 C 48.9 57.9 50 57.9 50 57.9 C 50.2 59 51.3 59.4 52.6 59.4 C 54.6 59.4 55.5 58.4 55.5 56.7 C 55.55 56.74 55.5 55.3 55.5 55.3 C 55.5 55.3 55.49 55.26 55.5 55.3 C 54.8 56.3 53.9 56.9 52.5 56.9 C 50.1 56.9 48.5 55 48.5 52.2 C 48.5 49.2 50.4 47.6 52.5 47.6 C 54 47.6 54.9 48.2 55.5 49.2 C 55.49 49.19 55.5 49.2 55.5 49.2 L 55.5 47.8 L 56.6 47.8 C 56.6 47.8 56.65 56.7 56.6 56.7 C 56.6 57.7 56.3 58.6 55.8 59.2 C 55.1 59.9 54.1 60.3 52.7 60.3 C 50.4 60.3 49.1 59.3 48.9 57.9 Z M 55.6 52.2 C 55.6 50 54.6 48.5 52.6 48.5 C 50.8 48.5 49.7 50 49.7 52.3 C 49.7 54.4 50.6 55.9 52.6 55.9 C 54.7 55.9 55.6 54.4 55.6 52.2 Z M 61.3 44.2 L 62.4 44.2 L 62.4 49.2 C 62.4 49.2 62.42 49.18 62.4 49.2 C 63.1 48.2 64.1 47.6 65.5 47.6 C 67.3 47.6 68.5 48.6 68.5 50.5 C 68.51 50.45 68.5 57.1 68.5 57.1 L 67.4 57.1 C 67.4 57.1 67.39 50.56 67.4 50.6 C 67.4 49.2 66.6 48.5 65.3 48.5 C 63.7 48.5 62.4 49.6 62.4 51.2 C 62.39 51.16 62.4 57.1 62.4 57.1 L 61.3 57.1 L 61.3 44.2 Z M 69.8 54.7 C 69.8 52.5 71.5 52 73.6 51.8 C 75.5 51.6 76.1 51.4 76.1 50.5 C 76.1 50.5 76.1 50.3 76.1 50.3 C 76.1 49.1 75.3 48.5 73.9 48.5 C 72.2 48.5 71.4 49.1 71.3 50.5 C 71.3 50.5 70.2 50.5 70.2 50.5 C 70.3 48.7 71.5 47.6 73.9 47.6 C 75.9 47.6 77.2 48.4 77.2 50.4 C 77.2 50.4 77.2 55.5 77.2 55.5 C 77.2 56.1 77.4 56.3 77.8 56.3 C 77.9 56.3 78 56.3 78.2 56.2 C 78.21 56.23 78.3 56.2 78.3 56.2 C 78.3 56.2 78.26 57.04 78.3 57 C 78.1 57.1 77.9 57.2 77.5 57.2 C 76.7 57.2 76.2 56.8 76.1 55.9 C 76.14 55.87 76.1 55.7 76.1 55.7 C 76.1 55.7 76.08 55.67 76.1 55.7 C 75.6 56.4 74.6 57.3 72.8 57.3 C 71.1 57.3 69.8 56.4 69.8 54.7 Z M 76.1 53.7 C 76.1 53.7 76.1 52 76.1 52 C 75.5 52.3 74.6 52.5 73.7 52.6 C 72.2 52.8 71 53.1 71 54.7 C 71 56 71.9 56.4 73 56.4 C 75.1 56.4 76.1 55 76.1 53.7 Z M 78.9 56.1 L 84.3 48.8 L 84.3 48.7 L 79.2 48.7 L 79.2 47.8 L 85.8 47.8 L 85.8 48.5 L 80.2 56 L 80.2 56.1 L 85.9 56.1 L 85.9 57.1 L 78.9 57.1 L 78.9 56.1 Z M 86.7 54.7 C 86.7 52.5 88.5 52 90.6 51.8 C 92.4 51.6 93.1 51.4 93.1 50.5 C 93.1 50.5 93.1 50.3 93.1 50.3 C 93.1 49.1 92.3 48.5 90.8 48.5 C 89.2 48.5 88.3 49.1 88.2 50.5 C 88.2 50.5 87.1 50.5 87.1 50.5 C 87.2 48.7 88.4 47.6 90.8 47.6 C 92.9 47.6 94.1 48.4 94.1 50.4 C 94.1 50.4 94.1 55.5 94.1 55.5 C 94.1 56.1 94.3 56.3 94.7 56.3 C 94.9 56.3 95 56.3 95.1 56.2 C 95.15 56.23 95.2 56.2 95.2 56.2 C 95.2 56.2 95.2 57.04 95.2 57 C 95 57.1 94.8 57.2 94.4 57.2 C 93.6 57.2 93.1 56.8 93.1 55.9 C 93.08 55.87 93.1 55.7 93.1 55.7 C 93.1 55.7 93.02 55.67 93 55.7 C 92.5 56.4 91.5 57.3 89.8 57.3 C 88 57.3 86.7 56.4 86.7 54.7 Z M 93.1 53.7 C 93.1 53.7 93.1 52 93.1 52 C 92.5 52.3 91.6 52.5 90.7 52.6 C 89.1 52.8 87.9 53.1 87.9 54.7 C 87.9 56 88.9 56.4 90 56.4 C 92 56.4 93.1 55 93.1 53.7 Z M 96.2 47.8 L 97.3 47.8 L 97.3 49.5 C 97.3 49.5 97.38 49.48 97.4 49.5 C 98 48.4 98.9 47.7 100.2 47.7 C 100.4 47.7 100.5 47.7 100.5 47.7 C 100.5 47.7 100.5 48.8 100.5 48.8 C 99.9 48.7 99.1 48.9 98.5 49.3 C 97.8 49.8 97.3 50.7 97.3 51.8 C 97.34 51.77 97.3 57.1 97.3 57.1 L 96.2 57.1 L 96.2 47.8 Z M 100.8 52.4 C 100.8 49.3 102.6 47.6 104.8 47.6 C 106.2 47.6 107.3 48.2 107.9 49.3 C 107.87 49.3 107.9 49.3 107.9 49.3 L 107.9 44.2 L 109 44.2 L 109 57.1 L 107.9 57.1 L 107.9 55.7 C 107.9 55.7 107.87 55.67 107.9 55.7 C 107.2 56.7 106.3 57.3 104.8 57.3 C 102.3 57.3 100.8 55.3 100.8 52.4 Z M 108 52.5 C 108 50.2 106.9 48.5 104.9 48.5 C 103 48.5 102 50.1 102 52.5 C 102 54.6 102.9 56.4 104.9 56.4 C 106.9 56.4 108 54.8 108 52.5 Z M 110.3 54.2 C 110.3 54.2 111.4 54.2 111.4 54.2 C 111.6 55.7 112.7 56.4 114.2 56.4 C 115.7 56.4 116.5 55.6 116.5 54.6 C 116.5 53.5 116 53.2 114 52.8 C 112.2 52.3 110.6 51.9 110.6 50.1 C 110.6 48.5 112 47.6 113.9 47.6 C 116.1 47.6 117.1 48.7 117.3 50.3 C 117.3 50.3 116.2 50.3 116.2 50.3 C 116.1 49.1 115.3 48.5 113.9 48.5 C 112.4 48.5 111.8 49.2 111.8 50 C 111.8 51.1 112.6 51.3 114.4 51.7 C 116.3 52.1 117.6 52.6 117.6 54.5 C 117.6 56.2 116.3 57.3 114.2 57.3 C 111.7 57.3 110.4 56 110.3 54.2 Z " stroke="none" fill="#000"/>  </g>  <g id="Polygon8997">    <path d="M 1.6 27.1 L 0.3 27.1 L 0.3 26.2 L 1.6 26.2 C 1.6 26.2 1.64 24.5 1.6 24.5 C 1.6 23.1 2.4 22.5 3.8 22.5 C 3.9 22.5 4.4 22.5 4.4 22.5 C 4.45 22.52 4.4 23.5 4.4 23.5 C 4.4 23.5 3.96 23.47 4 23.5 C 3 23.5 2.7 23.8 2.7 24.5 C 2.74 24.53 2.7 26.2 2.7 26.2 L 4.5 26.2 L 4.5 27.1 L 2.7 27.1 L 2.7 35.5 L 1.6 35.5 L 1.6 27.1 Z M 12.3 30.8 C 12.3 28.6 11.2 26.9 9.2 26.9 C 7.1 26.9 6 28.6 6 30.8 C 6 33 7.1 34.8 9.2 34.8 C 11.2 34.8 12.3 33 12.3 30.8 Z M 4.8 30.8 C 4.8 28 6.5 25.9 9.2 25.9 C 11.8 25.9 13.4 28 13.4 30.8 C 13.4 33.6 11.8 35.7 9.2 35.7 C 6.5 35.7 4.8 33.6 4.8 30.8 Z M 14.8 26.2 L 16 26.2 L 16 27.9 C 16 27.9 16 27.88 16 27.9 C 16.6 26.8 17.5 26.1 18.8 26.1 C 19 26.1 19.1 26.1 19.2 26.1 C 19.2 26.1 19.2 27.2 19.2 27.2 C 18.5 27.1 17.7 27.3 17.2 27.7 C 16.5 28.2 16 29.1 16 30.2 C 15.97 30.17 16 35.5 16 35.5 L 14.8 35.5 L 14.8 26.2 Z M 22.6 30.8 C 22.6 28 24.3 25.9 26.9 25.9 C 29.8 25.9 30.9 28.4 30.9 31 C 30.9 31 23.8 31 23.8 31 C 23.8 33.1 24.8 34.7 26.9 34.7 C 28.5 34.7 29.3 33.9 29.7 32.7 C 29.7 32.7 30.7 32.7 30.7 32.7 C 30.3 34.5 29 35.7 26.9 35.7 C 24.2 35.7 22.6 33.6 22.6 30.8 Z M 29.7 30.1 C 29.6 28.3 28.8 26.9 26.9 26.9 C 25 26.9 24 28.3 23.8 30.1 C 23.8 30.1 29.7 30.1 29.7 30.1 Z M 31.7 33.1 C 31.7 30.9 33.4 30.4 35.5 30.2 C 37.4 30 38.1 29.8 38.1 28.9 C 38.1 28.9 38.1 28.7 38.1 28.7 C 38.1 27.5 37.3 26.9 35.8 26.9 C 34.2 26.9 33.3 27.5 33.2 28.9 C 33.2 28.9 32.1 28.9 32.1 28.9 C 32.2 27.1 33.4 26 35.8 26 C 37.9 26 39.1 26.8 39.1 28.8 C 39.1 28.8 39.1 33.9 39.1 33.9 C 39.1 34.5 39.3 34.7 39.7 34.7 C 39.9 34.7 40 34.7 40.1 34.6 C 40.14 34.63 40.2 34.6 40.2 34.6 C 40.2 34.6 40.19 35.44 40.2 35.4 C 40 35.5 39.8 35.6 39.4 35.6 C 38.6 35.6 38.1 35.2 38.1 34.3 C 38.07 34.27 38.1 34.1 38.1 34.1 C 38.1 34.1 38.02 34.07 38 34.1 C 37.5 34.8 36.5 35.7 34.8 35.7 C 33 35.7 31.7 34.8 31.7 33.1 Z M 38.1 32.1 C 38.1 32.1 38.1 30.4 38.1 30.4 C 37.5 30.7 36.6 30.9 35.7 31 C 34.1 31.2 32.9 31.5 32.9 33.1 C 32.9 34.4 33.9 34.8 35 34.8 C 37 34.8 38.1 33.4 38.1 32.1 Z M 40.5 32.6 C 40.5 32.6 41.7 32.6 41.7 32.6 C 41.8 34.1 42.9 34.8 44.4 34.8 C 46 34.8 46.8 34 46.8 33 C 46.8 31.9 46.2 31.6 44.3 31.2 C 42.4 30.7 40.9 30.3 40.9 28.5 C 40.9 26.9 42.2 26 44.1 26 C 46.3 26 47.4 27.1 47.6 28.7 C 47.6 28.7 46.5 28.7 46.5 28.7 C 46.3 27.5 45.5 26.9 44.1 26.9 C 42.7 26.9 42 27.6 42 28.4 C 42 29.5 42.9 29.7 44.7 30.1 C 46.5 30.5 47.9 31 47.9 32.9 C 47.9 34.6 46.5 35.7 44.4 35.7 C 41.9 35.7 40.6 34.4 40.5 32.6 Z M 49.1 38.4 C 49.09 38.39 49.1 37.4 49.1 37.4 C 49.1 37.4 49.14 37.4 49.1 37.4 C 49.3 37.5 49.6 37.5 50 37.5 C 50.7 37.5 51.2 37.2 51.5 36.3 C 51.53 36.27 51.8 35.4 51.8 35.4 L 48.3 26.2 L 49.4 26.2 C 49.4 26.2 51.68 32.17 51.7 32.2 C 52 33.03 52.4 34.3 52.4 34.3 L 52.5 34.3 C 52.5 34.3 52.85 33.03 53.2 32.2 C 53.15 32.17 55.3 26.2 55.3 26.2 L 56.4 26.2 C 56.4 26.2 52.61 36.43 52.6 36.4 C 52 38.1 51.2 38.5 50 38.5 C 49.6 38.5 49.4 38.5 49.1 38.4 Z M 60.2 26.2 L 61.3 26.2 L 61.3 27.9 C 61.3 27.9 61.36 27.88 61.4 27.9 C 61.9 26.8 62.9 26.1 64.2 26.1 C 64.3 26.1 64.4 26.1 64.5 26.1 C 64.5 26.1 64.5 27.2 64.5 27.2 C 63.8 27.1 63.1 27.3 62.5 27.7 C 61.8 28.2 61.3 29.1 61.3 30.2 C 61.33 30.17 61.3 35.5 61.3 35.5 L 60.2 35.5 L 60.2 26.2 Z M 64.8 30.8 C 64.8 28 66.5 25.9 69.1 25.9 C 72.1 25.9 73.1 28.4 73.1 31 C 73.1 31 66 31 66 31 C 66 33.1 67 34.7 69.2 34.7 C 70.7 34.7 71.5 33.9 71.9 32.7 C 71.9 32.7 73 32.7 73 32.7 C 72.6 34.5 71.2 35.7 69.2 35.7 C 66.4 35.7 64.8 33.6 64.8 30.8 Z M 71.9 30.1 C 71.8 28.3 71 26.9 69.1 26.9 C 67.2 26.9 66.2 28.3 66 30.1 C 66 30.1 71.9 30.1 71.9 30.1 Z M 75 27.1 L 73.6 27.1 L 73.6 26.2 L 75 26.2 C 75 26.2 74.97 24.5 75 24.5 C 75 23.1 75.7 22.5 77.1 22.5 C 77.3 22.5 77.7 22.5 77.8 22.5 C 77.78 22.52 77.8 23.5 77.8 23.5 C 77.8 23.5 77.29 23.47 77.3 23.5 C 76.4 23.5 76.1 23.8 76.1 24.5 C 76.07 24.53 76.1 26.2 76.1 26.2 L 77.8 26.2 L 77.8 27.1 L 76.1 27.1 L 76.1 35.5 L 75 35.5 L 75 27.1 Z M 79 26.2 L 80.1 26.2 L 80.1 35.5 L 79 35.5 L 79 26.2 Z M 79 22.6 L 80.1 22.6 L 80.1 24.2 L 79 24.2 L 79 22.6 Z M 82.1 22.6 L 83.2 22.6 L 83.2 35.5 L 82.1 35.5 L 82.1 22.6 Z M 85.2 22.6 L 86.3 22.6 L 86.3 35.5 L 85.2 35.5 L 85.2 22.6 Z M 90.4 33.1 C 90.4 30.9 92.1 30.4 94.2 30.2 C 96.1 30 96.7 29.8 96.7 28.9 C 96.7 28.9 96.7 28.7 96.7 28.7 C 96.7 27.5 95.9 26.9 94.5 26.9 C 92.8 26.9 92 27.5 91.9 28.9 C 91.9 28.9 90.8 28.9 90.8 28.9 C 90.9 27.1 92.1 26 94.5 26 C 96.5 26 97.8 26.8 97.8 28.8 C 97.8 28.8 97.8 33.9 97.8 33.9 C 97.8 34.5 98 34.7 98.4 34.7 C 98.5 34.7 98.7 34.7 98.8 34.6 C 98.82 34.63 98.9 34.6 98.9 34.6 C 98.9 34.6 98.87 35.44 98.9 35.4 C 98.7 35.5 98.5 35.6 98.1 35.6 C 97.3 35.6 96.8 35.2 96.7 34.3 C 96.75 34.27 96.7 34.1 96.7 34.1 C 96.7 34.1 96.7 34.07 96.7 34.1 C 96.2 34.8 95.2 35.7 93.4 35.7 C 91.7 35.7 90.4 34.8 90.4 33.1 Z M 96.7 32.1 C 96.7 32.1 96.7 30.4 96.7 30.4 C 96.2 30.7 95.2 30.9 94.3 31 C 92.8 31.2 91.6 31.5 91.6 33.1 C 91.6 34.4 92.5 34.8 93.6 34.8 C 95.7 34.8 96.7 33.4 96.7 32.1 Z M 99.9 26.2 L 101 26.2 L 101 27.6 C 101 27.6 101.05 27.58 101.1 27.6 C 101.7 26.6 102.7 26 104.2 26 C 105.9 26 107.1 27 107.1 28.9 C 107.14 28.85 107.1 35.5 107.1 35.5 L 106 35.5 C 106 35.5 106.02 28.96 106 29 C 106 27.6 105.2 26.9 103.9 26.9 C 102.3 26.9 101 28 101 29.6 C 101.02 29.56 101 35.5 101 35.5 L 99.9 35.5 L 99.9 26.2 Z M 108.4 30.8 C 108.4 27.7 110.2 26 112.4 26 C 113.8 26 114.9 26.6 115.5 27.7 C 115.49 27.7 115.5 27.7 115.5 27.7 L 115.5 22.6 L 116.6 22.6 L 116.6 35.5 L 115.5 35.5 L 115.5 34.1 C 115.5 34.1 115.49 34.07 115.5 34.1 C 114.8 35.1 113.9 35.7 112.5 35.7 C 110 35.7 108.4 33.7 108.4 30.8 Z M 115.6 30.9 C 115.6 28.6 114.5 26.9 112.5 26.9 C 110.7 26.9 109.6 28.5 109.6 30.9 C 109.6 33 110.5 34.8 112.5 34.8 C 114.5 34.8 115.6 33.2 115.6 30.9 Z M 121.3 22.6 L 122.4 22.6 L 122.4 35.5 L 121.3 35.5 L 121.3 22.6 Z M 123.8 33.1 C 123.8 30.9 125.5 30.4 127.6 30.2 C 129.5 30 130.1 29.8 130.1 28.9 C 130.1 28.9 130.1 28.7 130.1 28.7 C 130.1 27.5 129.3 26.9 127.9 26.9 C 126.2 26.9 125.4 27.5 125.3 28.9 C 125.3 28.9 124.2 28.9 124.2 28.9 C 124.3 27.1 125.5 26 127.9 26 C 129.9 26 131.2 26.8 131.2 28.8 C 131.2 28.8 131.2 33.9 131.2 33.9 C 131.2 34.5 131.4 34.7 131.8 34.7 C 131.9 34.7 132 34.7 132.2 34.6 C 132.21 34.63 132.3 34.6 132.3 34.6 C 132.3 34.6 132.26 35.44 132.3 35.4 C 132.1 35.5 131.9 35.6 131.5 35.6 C 130.7 35.6 130.2 35.2 130.1 34.3 C 130.14 34.27 130.1 34.1 130.1 34.1 C 130.1 34.1 130.08 34.07 130.1 34.1 C 129.6 34.8 128.6 35.7 126.8 35.7 C 125.1 35.7 123.8 34.8 123.8 33.1 Z M 130.1 32.1 C 130.1 32.1 130.1 30.4 130.1 30.4 C 129.5 30.7 128.6 30.9 127.7 31 C 126.2 31.2 125 31.5 125 33.1 C 125 34.4 125.9 34.8 127 34.8 C 129.1 34.8 130.1 33.4 130.1 32.1 Z M 132.7 30.8 C 132.7 28 134.3 25.9 137 25.9 C 139 25.9 140.4 27.1 140.7 29 C 140.7 29 139.6 29 139.6 29 C 139.3 27.6 138.4 26.9 137 26.9 C 134.8 26.9 133.9 28.7 133.9 30.8 C 133.9 33 134.8 34.7 136.9 34.7 C 138.5 34.7 139.5 33.7 139.7 32.3 C 139.7 32.3 140.8 32.3 140.8 32.3 C 140.5 34.4 139.2 35.7 136.9 35.7 C 134.2 35.7 132.7 33.6 132.7 30.8 Z M 142 22.6 L 143.2 22.6 L 143.2 30.6 L 147.8 26.2 L 149.2 26.2 L 145.6 29.5 L 149.6 35.5 L 148.3 35.5 L 144.9 30.2 L 143.2 31.9 L 143.2 35.5 L 142 35.5 L 142 22.6 Z M 149.7 32.6 C 149.7 32.6 150.8 32.6 150.8 32.6 C 150.9 34.1 152 34.8 153.5 34.8 C 155.1 34.8 155.9 34 155.9 33 C 155.9 31.9 155.3 31.6 153.4 31.2 C 151.5 30.7 150 30.3 150 28.5 C 150 26.9 151.3 26 153.2 26 C 155.4 26 156.5 27.1 156.7 28.7 C 156.7 28.7 155.6 28.7 155.6 28.7 C 155.4 27.5 154.6 26.9 153.2 26.9 C 151.8 26.9 151.1 27.6 151.1 28.4 C 151.1 29.5 152 29.7 153.8 30.1 C 155.6 30.5 157 31 157 32.9 C 157 34.6 155.7 35.7 153.5 35.7 C 151 35.7 149.8 34.4 149.7 32.6 Z " stroke="none" fill="#000"/>  </g>  <g id="Polygon8996">    <path d="M 0.6 7.4 C 0.6 3.5 2.9 0.7 6.5 0.7 C 9.2 0.7 11 2.2 11.4 4.6 C 11.4 4.6 10.3 4.6 10.3 4.6 C 9.9 3 8.6 1.8 6.5 1.8 C 3.5 1.8 1.9 4.3 1.9 7.4 C 1.9 10.7 3.5 13 6.5 13 C 8.9 13 10.3 11.3 10.5 9.2 C 10.5 9.2 11.7 9.2 11.7 9.2 C 11.6 10.4 11.1 11.7 10.3 12.5 C 9.4 13.6 8.1 14.1 6.4 14.1 C 2.9 14.1 0.6 11.4 0.6 7.4 Z M 12.6 11.5 C 12.6 9.3 14.3 8.8 16.4 8.6 C 18.3 8.4 18.9 8.2 18.9 7.3 C 18.9 7.3 18.9 7.1 18.9 7.1 C 18.9 5.9 18.1 5.3 16.7 5.3 C 15 5.3 14.2 5.9 14.1 7.3 C 14.1 7.3 13 7.3 13 7.3 C 13.1 5.5 14.3 4.4 16.7 4.4 C 18.7 4.4 20 5.2 20 7.2 C 20 7.2 20 12.3 20 12.3 C 20 12.9 20.2 13.1 20.6 13.1 C 20.7 13.1 20.9 13.1 21 13 C 21.02 13.03 21.1 13 21.1 13 C 21.1 13 21.08 13.84 21.1 13.8 C 20.9 13.9 20.7 14 20.3 14 C 19.5 14 19 13.6 19 12.7 C 18.95 12.67 19 12.5 19 12.5 C 19 12.5 18.9 12.47 18.9 12.5 C 18.4 13.2 17.4 14.1 15.6 14.1 C 13.9 14.1 12.6 13.2 12.6 11.5 Z M 19 10.5 C 19 10.5 19 8.8 19 8.8 C 18.4 9.1 17.4 9.3 16.5 9.4 C 15 9.6 13.8 9.9 13.8 11.5 C 13.8 12.8 14.7 13.2 15.8 13.2 C 17.9 13.2 19 11.8 19 10.5 Z M 22.1 4.6 L 23.2 4.6 L 23.2 6.2 C 23.2 6.2 23.26 6.16 23.3 6.2 C 23.9 5.1 24.9 4.4 26.4 4.4 C 28.6 4.4 30.3 6.1 30.3 9.2 C 30.3 12.1 28.8 14.1 26.3 14.1 C 24.9 14.1 24 13.5 23.3 12.5 C 23.26 12.51 23.2 12.5 23.2 12.5 L 23.2 16.8 L 22.1 16.8 L 22.1 4.6 Z M 29.1 9.2 C 29.1 6.9 28.1 5.3 26.3 5.3 C 24.2 5.3 23.1 7 23.1 9.3 C 23.1 11.5 24.2 13.2 26.3 13.2 C 28.2 13.2 29.1 11.4 29.1 9.2 Z M 31.7 1 L 32.8 1 L 32.8 13.9 L 31.7 13.9 L 31.7 1 Z M 34.3 9.2 C 34.3 6.4 35.9 4.3 38.5 4.3 C 41.5 4.3 42.5 6.8 42.5 9.4 C 42.5 9.4 35.4 9.4 35.4 9.4 C 35.5 11.5 36.5 13.1 38.6 13.1 C 40.1 13.1 40.9 12.3 41.3 11.1 C 41.3 11.1 42.4 11.1 42.4 11.1 C 42 12.9 40.7 14.1 38.6 14.1 C 35.8 14.1 34.3 12 34.3 9.2 Z M 41.3 8.5 C 41.3 6.7 40.4 5.3 38.5 5.3 C 36.6 5.3 35.6 6.7 35.4 8.5 C 35.4 8.5 41.3 8.5 41.3 8.5 Z M 43.3 11 C 43.3 11 44.4 11 44.4 11 C 44.6 12.5 45.7 13.2 47.2 13.2 C 48.7 13.2 49.5 12.4 49.5 11.4 C 49.5 10.3 48.9 10 47 9.6 C 45.1 9.1 43.6 8.7 43.6 6.9 C 43.6 5.3 45 4.4 46.9 4.4 C 49.1 4.4 50.1 5.5 50.3 7.1 C 50.3 7.1 49.2 7.1 49.2 7.1 C 49.1 5.9 48.3 5.3 46.9 5.3 C 45.4 5.3 44.7 6 44.7 6.8 C 44.7 7.9 45.6 8.1 47.4 8.5 C 49.3 8.9 50.6 9.4 50.6 11.3 C 50.6 13 49.3 14.1 47.1 14.1 C 44.7 14.1 43.4 12.8 43.3 11 Z M 51.4 11 C 51.4 11 52.5 11 52.5 11 C 52.7 12.5 53.8 13.2 55.3 13.2 C 56.8 13.2 57.6 12.4 57.6 11.4 C 57.6 10.3 57.1 10 55.2 9.6 C 53.3 9.1 51.7 8.7 51.7 6.9 C 51.7 5.3 53.1 4.4 55 4.4 C 57.2 4.4 58.2 5.5 58.4 7.1 C 58.4 7.1 57.3 7.1 57.3 7.1 C 57.2 5.9 56.4 5.3 55 5.3 C 53.5 5.3 52.9 6 52.9 6.8 C 52.9 7.9 53.7 8.1 55.5 8.5 C 57.4 8.9 58.8 9.4 58.8 11.3 C 58.8 13 57.4 14.1 55.3 14.1 C 52.8 14.1 51.5 12.8 51.4 11 Z M 62.8 4.6 L 63.9 4.6 L 63.9 6.3 C 63.9 6.3 63.97 6.28 64 6.3 C 64.5 5.2 65.5 4.5 66.8 4.5 C 67 4.5 67 4.5 67.1 4.5 C 67.1 4.5 67.1 5.6 67.1 5.6 C 66.5 5.5 65.7 5.7 65.1 6.1 C 64.4 6.6 63.9 7.5 63.9 8.6 C 63.93 8.57 63.9 13.9 63.9 13.9 L 62.8 13.9 L 62.8 4.6 Z M 67.4 9.2 C 67.4 6.4 69.1 4.3 71.7 4.3 C 74.7 4.3 75.7 6.8 75.7 9.4 C 75.7 9.4 68.6 9.4 68.6 9.4 C 68.6 11.5 69.6 13.1 71.8 13.1 C 73.3 13.1 74.1 12.3 74.5 11.1 C 74.5 11.1 75.6 11.1 75.6 11.1 C 75.2 12.9 73.9 14.1 71.8 14.1 C 69 14.1 67.4 12 67.4 9.2 Z M 74.5 8.5 C 74.4 6.7 73.6 5.3 71.7 5.3 C 69.8 5.3 68.8 6.7 68.6 8.5 C 68.6 8.5 74.5 8.5 74.5 8.5 Z M 76.5 11 C 76.5 11 77.6 11 77.6 11 C 77.8 12.5 78.8 13.2 80.3 13.2 C 81.9 13.2 82.7 12.4 82.7 11.4 C 82.7 10.3 82.1 10 80.2 9.6 C 78.3 9.1 76.8 8.7 76.8 6.9 C 76.8 5.3 78.1 4.4 80 4.4 C 82.3 4.4 83.3 5.5 83.5 7.1 C 83.5 7.1 82.4 7.1 82.4 7.1 C 82.3 5.9 81.4 5.3 80 5.3 C 78.6 5.3 77.9 6 77.9 6.8 C 77.9 7.9 78.8 8.1 80.6 8.5 C 82.5 8.9 83.8 9.4 83.8 11.3 C 83.8 13 82.5 14.1 80.3 14.1 C 77.8 14.1 76.6 12.8 76.5 11 Z M 84.8 9.2 C 84.8 6.4 86.5 4.3 89 4.3 C 92 4.3 93 6.8 93 9.4 C 93 9.4 85.9 9.4 85.9 9.4 C 86 11.5 87 13.1 89.1 13.1 C 90.7 13.1 91.5 12.3 91.8 11.1 C 91.8 11.1 92.9 11.1 92.9 11.1 C 92.5 12.9 91.2 14.1 89.1 14.1 C 86.3 14.1 84.8 12 84.8 9.2 Z M 91.9 8.5 C 91.8 6.7 90.9 5.3 89 5.3 C 87.1 5.3 86.1 6.7 85.9 8.5 C 85.9 8.5 91.9 8.5 91.9 8.5 Z M 94.4 4.6 L 95.5 4.6 L 95.5 6.3 C 95.5 6.3 95.56 6.28 95.6 6.3 C 96.1 5.2 97.1 4.5 98.4 4.5 C 98.5 4.5 98.6 4.5 98.7 4.5 C 98.7 4.5 98.7 5.6 98.7 5.6 C 98 5.5 97.3 5.7 96.7 6.1 C 96 6.6 95.5 7.5 95.5 8.6 C 95.52 8.57 95.5 13.9 95.5 13.9 L 94.4 13.9 L 94.4 4.6 Z M 99.2 4.6 L 100.4 4.6 C 100.4 4.6 102.4 10.46 102.4 10.5 C 102.71 11.36 103.2 12.8 103.2 12.8 L 103.2 12.8 C 103.2 12.8 103.66 11.36 104 10.5 C 103.97 10.46 106.1 4.6 106.1 4.6 L 107.2 4.6 L 103.8 13.9 L 102.5 13.9 L 99.2 4.6 Z M 115 9.2 C 115 7 113.9 5.3 111.8 5.3 C 109.7 5.3 108.6 7 108.6 9.2 C 108.6 11.4 109.7 13.2 111.8 13.2 C 113.9 13.2 115 11.4 115 9.2 Z M 107.5 9.2 C 107.5 6.4 109.1 4.3 111.8 4.3 C 114.5 4.3 116.1 6.4 116.1 9.2 C 116.1 12 114.5 14.1 111.8 14.1 C 109.1 14.1 107.5 12 107.5 9.2 Z M 117.5 4.6 L 118.7 4.6 L 118.7 13.9 L 117.5 13.9 L 117.5 4.6 Z M 117.5 1 L 118.7 1 L 118.7 2.6 L 117.5 2.6 L 117.5 1 Z M 120.5 4.6 L 121.7 4.6 L 121.7 6.3 C 121.7 6.3 121.7 6.28 121.7 6.3 C 122.3 5.2 123.2 4.5 124.5 4.5 C 124.7 4.5 124.8 4.5 124.8 4.5 C 124.8 4.5 124.8 5.6 124.8 5.6 C 124.2 5.5 123.4 5.7 122.9 6.1 C 122.1 6.6 121.7 7.5 121.7 8.6 C 121.66 8.57 121.7 13.9 121.7 13.9 L 120.5 13.9 L 120.5 4.6 Z M 128.3 11.5 C 128.3 9.3 130 8.8 132.1 8.6 C 133.9 8.4 134.6 8.2 134.6 7.3 C 134.6 7.3 134.6 7.1 134.6 7.1 C 134.6 5.9 133.8 5.3 132.4 5.3 C 130.7 5.3 129.8 5.9 129.8 7.3 C 129.8 7.3 128.7 7.3 128.7 7.3 C 128.8 5.5 130 4.4 132.4 4.4 C 134.4 4.4 135.7 5.2 135.7 7.2 C 135.7 7.2 135.7 12.3 135.7 12.3 C 135.7 12.9 135.9 13.1 136.3 13.1 C 136.4 13.1 136.5 13.1 136.7 13 C 136.69 13.03 136.7 13 136.7 13 C 136.7 13 136.74 13.84 136.7 13.8 C 136.6 13.9 136.3 14 136 14 C 135.2 14 134.7 13.6 134.6 12.7 C 134.62 12.67 134.6 12.5 134.6 12.5 C 134.6 12.5 134.57 12.47 134.6 12.5 C 134 13.2 133.1 14.1 131.3 14.1 C 129.6 14.1 128.3 13.2 128.3 11.5 Z M 134.6 10.5 C 134.6 10.5 134.6 8.8 134.6 8.8 C 134 9.1 133.1 9.3 132.2 9.4 C 130.6 9.6 129.4 9.9 129.4 11.5 C 129.4 12.8 130.4 13.2 131.5 13.2 C 133.5 13.2 134.6 11.8 134.6 10.5 Z M 137.8 1 L 138.9 1 L 138.9 13.9 L 137.8 13.9 L 137.8 1 Z M 140.9 1 L 142 1 L 142 13.9 L 140.9 13.9 L 140.9 1 Z M 150.9 9.2 C 150.9 7 149.9 5.3 147.8 5.3 C 145.7 5.3 144.6 7 144.6 9.2 C 144.6 11.4 145.7 13.2 147.8 13.2 C 149.9 13.2 150.9 11.4 150.9 9.2 Z M 143.5 9.2 C 143.5 6.4 145.1 4.3 147.8 4.3 C 150.5 4.3 152.1 6.4 152.1 9.2 C 152.1 12 150.5 14.1 147.8 14.1 C 145.1 14.1 143.5 12 143.5 9.2 Z M 152.5 4.6 L 153.6 4.6 C 153.6 4.6 155.25 10.31 155.2 10.3 C 155.5 11.23 155.8 12.7 155.8 12.7 L 155.9 12.7 C 155.9 12.7 156.24 11.25 156.5 10.4 C 156.47 10.4 158.1 4.6 158.1 4.6 L 159.3 4.6 C 159.3 4.6 160.79 10.4 160.8 10.4 C 161.01 11.25 161.3 12.7 161.3 12.7 L 161.4 12.7 C 161.4 12.7 161.76 11.21 162 10.3 C 162.03 10.31 163.8 4.6 163.8 4.6 L 164.9 4.6 L 162 13.9 L 160.7 13.9 C 160.7 13.9 159.14 7.92 159.1 7.9 C 158.9 7.04 158.6 5.8 158.6 5.8 L 158.6 5.8 C 158.6 5.8 158.36 7.04 158.1 7.9 C 158.13 7.92 156.5 13.9 156.5 13.9 L 155.2 13.9 L 152.5 4.6 Z M 165.2 11 C 165.2 11 166.4 11 166.4 11 C 166.5 12.5 167.6 13.2 169.1 13.2 C 170.7 13.2 171.5 12.4 171.5 11.4 C 171.5 10.3 170.9 10 169 9.6 C 167.1 9.1 165.6 8.7 165.6 6.9 C 165.6 5.3 166.9 4.4 168.8 4.4 C 171 4.4 172.1 5.5 172.3 7.1 C 172.3 7.1 171.2 7.1 171.2 7.1 C 171 5.9 170.2 5.3 168.8 5.3 C 167.4 5.3 166.7 6 166.7 6.8 C 166.7 7.9 167.6 8.1 169.4 8.5 C 171.2 8.9 172.6 9.4 172.6 11.3 C 172.6 13 171.2 14.1 169.1 14.1 C 166.6 14.1 165.3 12.8 165.2 11 Z " stroke="none" fill="#000"/>  </g></svg>