<?xml version="1.0" standalone="no"?><!DOCTYPE svg PUBLIC "-//W3C//DTD SVG 1.1//EN" "http://www.w3.org/Graphics/SVG/1.1/DTD/svg11.dtd"><svg xmlns="http://www.w3.org/2000/svg" version="1.1" width="134.1px" height="29.6px" viewBox="0 -3 134.1 29.6" style="top:-3px">  <desc>Resevoir Release</desc>  <defs/>  <g id="Polygon9048">    <path d="M 1.1 1 C 1.1 1 6.42 0.96 6.4 1 C 8.4 1 9.8 2.2 9.8 4.1 C 9.8 5.5 9.2 6.5 7.8 6.9 C 7.8 6.9 7.8 7 7.8 7 C 9 7.4 9.3 8.2 9.5 9.9 C 9.6 11.7 9.8 12.2 10 12.3 C 9.98 12.34 10 12.4 10 12.4 C 10 12.4 8.43 12.4 8.4 12.4 C 8.2 12.2 8.1 11.8 8 9.8 C 7.9 8.2 7.2 7.6 5.7 7.6 C 5.7 7.57 2.5 7.6 2.5 7.6 L 2.5 12.4 L 1.1 12.4 L 1.1 1 Z M 2.5 6.4 C 2.5 6.4 5.9 6.4 5.9 6.4 C 7.5 6.4 8.3 5.6 8.3 4.3 C 8.3 2.9 7.7 2.2 6 2.2 C 5.98 2.21 2.5 2.2 2.5 2.2 L 2.5 6.4 Z M 10.8 8.3 C 10.8 5.9 12.4 3.9 14.7 3.9 C 17.2 3.9 18.5 5.8 18.5 8.6 C 18.5 8.6 12.1 8.6 12.1 8.6 C 12.2 10.3 13.1 11.5 14.8 11.5 C 16 11.5 16.8 11 17.1 9.8 C 17.1 9.8 18.4 9.8 18.4 9.8 C 18 11.6 16.7 12.6 14.8 12.6 C 12.3 12.6 10.8 10.7 10.8 8.3 Z M 12.2 7.6 C 12.2 7.6 17.1 7.6 17.1 7.6 C 17.1 6 16.2 4.9 14.7 4.9 C 13.2 4.9 12.4 6.1 12.2 7.6 Z M 19.3 9.7 C 19.3 9.7 20.6 9.7 20.6 9.7 C 20.8 11.2 21.7 11.6 23 11.6 C 24.3 11.6 24.9 11 24.9 10.2 C 24.9 9.3 24.2 9 22.7 8.7 C 21.1 8.4 19.6 8 19.6 6.2 C 19.6 4.8 20.7 4 22.6 4 C 24.7 4 25.7 4.9 25.9 6.5 C 25.9 6.5 24.5 6.5 24.5 6.5 C 24.4 5.5 23.8 5 22.6 5 C 21.4 5 20.9 5.5 20.9 6.2 C 20.9 7.1 21.7 7.2 23.1 7.5 C 24.8 7.9 26.2 8.2 26.2 10.1 C 26.2 11.8 24.8 12.6 22.9 12.6 C 20.7 12.6 19.4 11.6 19.3 9.7 Z M 27.1 8.3 C 27.1 5.9 28.7 3.9 31.1 3.9 C 33.5 3.9 34.9 5.8 34.9 8.6 C 34.9 8.6 28.5 8.6 28.5 8.6 C 28.6 10.3 29.5 11.5 31.1 11.5 C 32.3 11.5 33.1 11 33.4 9.8 C 33.4 9.8 34.7 9.8 34.7 9.8 C 34.3 11.6 33 12.6 31.1 12.6 C 28.6 12.6 27.1 10.7 27.1 8.3 Z M 28.5 7.6 C 28.5 7.6 33.5 7.6 33.5 7.6 C 33.4 6 32.5 4.9 31.1 4.9 C 29.5 4.9 28.7 6.1 28.5 7.6 Z M 35.1 4.1 L 36.5 4.1 C 36.5 4.1 38.22 9.38 38.2 9.4 C 38.46 10.11 38.8 11.1 38.8 11.1 L 38.8 11.1 C 38.8 11.1 39.1 10.1 39.3 9.4 C 39.34 9.38 41.1 4.1 41.1 4.1 L 42.4 4.1 L 39.5 12.4 L 38 12.4 L 35.1 4.1 Z M 42.7 8.3 C 42.7 5.9 44.3 3.9 46.7 3.9 C 49.2 3.9 50.7 5.9 50.7 8.3 C 50.7 10.7 49.2 12.6 46.7 12.6 C 44.3 12.6 42.7 10.7 42.7 8.3 Z M 49.4 8.3 C 49.4 6.4 48.5 5 46.7 5 C 45 5 44 6.4 44 8.3 C 44 10.1 45 11.5 46.7 11.5 C 48.5 11.5 49.4 10.1 49.4 8.3 Z M 52 4.1 L 53.3 4.1 L 53.3 12.4 L 52 12.4 L 52 4.1 Z M 52 1 L 53.3 1 L 53.3 2.6 L 52 2.6 L 52 1 Z M 56.4 5.5 C 56.4 5.5 56.38 5.5 56.4 5.5 C 56.9 4.7 57.7 4 58.8 4 C 59.1 4 59.2 4.1 59.4 4.1 C 59.38 4.13 59.4 5.4 59.4 5.4 C 59.4 5.4 59.33 5.38 59.3 5.4 C 59.1 5.3 59 5.3 58.8 5.3 C 57.5 5.3 56.4 6.3 56.4 7.8 C 56.35 7.81 56.4 12.4 56.4 12.4 L 55.1 12.4 L 55.1 4.1 L 56.4 4.1 L 56.4 5.5 Z M 63.3 1 C 63.3 1 68.62 0.96 68.6 1 C 70.6 1 72 2.2 72 4.1 C 72 5.5 71.4 6.5 70 6.9 C 70 6.9 70 7 70 7 C 71.2 7.4 71.6 8.2 71.7 9.9 C 71.8 11.7 72 12.2 72.2 12.3 C 72.19 12.34 72.2 12.4 72.2 12.4 C 72.2 12.4 70.64 12.4 70.6 12.4 C 70.4 12.2 70.4 11.8 70.2 9.8 C 70.1 8.2 69.4 7.6 67.9 7.6 C 67.9 7.57 64.7 7.6 64.7 7.6 L 64.7 12.4 L 63.3 12.4 L 63.3 1 Z M 64.7 6.4 C 64.7 6.4 68.11 6.4 68.1 6.4 C 69.7 6.4 70.5 5.6 70.5 4.3 C 70.5 2.9 69.9 2.2 68.2 2.2 C 68.19 2.21 64.7 2.2 64.7 2.2 L 64.7 6.4 Z M 73 8.3 C 73 5.9 74.6 3.9 76.9 3.9 C 79.4 3.9 80.7 5.8 80.7 8.6 C 80.7 8.6 74.3 8.6 74.3 8.6 C 74.4 10.3 75.3 11.5 77 11.5 C 78.2 11.5 79 11 79.3 9.8 C 79.3 9.8 80.6 9.8 80.6 9.8 C 80.2 11.6 78.9 12.6 77 12.6 C 74.5 12.6 73 10.7 73 8.3 Z M 74.4 7.6 C 74.4 7.6 79.3 7.6 79.3 7.6 C 79.3 6 78.4 4.9 76.9 4.9 C 75.4 4.9 74.6 6.1 74.4 7.6 Z M 82 1 L 83.3 1 L 83.3 12.4 L 82 12.4 L 82 1 Z M 84.7 8.3 C 84.7 5.9 86.3 3.9 88.6 3.9 C 91.1 3.9 92.4 5.8 92.4 8.6 C 92.4 8.6 86 8.6 86 8.6 C 86.1 10.3 87 11.5 88.7 11.5 C 89.9 11.5 90.7 11 91 9.8 C 91 9.8 92.2 9.8 92.2 9.8 C 91.9 11.6 90.6 12.6 88.7 12.6 C 86.2 12.6 84.7 10.7 84.7 8.3 Z M 86 7.6 C 86 7.6 91 7.6 91 7.6 C 90.9 6 90.1 4.9 88.6 4.9 C 87.1 4.9 86.2 6.1 86 7.6 Z M 98.8 11.2 C 98.8 11.2 98.7 11.2 98.7 11.2 C 98.2 11.9 97.4 12.6 96 12.6 C 94.4 12.6 93.2 11.8 93.2 10.3 C 93.2 8.3 94.7 7.9 96.8 7.6 C 98 7.4 98.8 7.3 98.8 6.4 C 98.8 5.5 98.1 4.9 96.9 4.9 C 95.6 4.9 94.9 5.5 94.8 6.8 C 94.8 6.8 93.6 6.8 93.6 6.8 C 93.6 5.2 94.7 4 96.9 4 C 98.7 4 100 4.6 100 6.6 C 100 6.6 100 10.5 100 10.5 C 100 11.2 100.1 11.6 100.8 11.4 C 100.83 11.41 100.9 11.4 100.9 11.4 C 100.9 11.4 100.88 12.35 100.9 12.4 C 100.7 12.4 100.5 12.5 100.2 12.5 C 99.3 12.5 98.9 12.1 98.8 11.2 Z M 98.8 9.3 C 98.8 9.3 98.8 7.9 98.8 7.9 C 98.4 8.2 97.6 8.4 96.9 8.5 C 95.6 8.8 94.6 9 94.6 10.2 C 94.6 11.3 95.4 11.6 96.3 11.6 C 98 11.6 98.8 10.3 98.8 9.3 Z M 101.3 9.7 C 101.3 9.7 102.6 9.7 102.6 9.7 C 102.8 11.2 103.8 11.6 105 11.6 C 106.4 11.6 106.9 11 106.9 10.2 C 106.9 9.3 106.3 9 104.8 8.7 C 103.1 8.4 101.7 8 101.7 6.2 C 101.7 4.8 102.7 4 104.7 4 C 106.7 4 107.7 4.9 107.9 6.5 C 107.9 6.5 106.6 6.5 106.6 6.5 C 106.4 5.5 105.9 5 104.6 5 C 103.4 5 103 5.5 103 6.2 C 103 7.1 103.8 7.2 105.2 7.5 C 106.8 7.9 108.2 8.2 108.2 10.1 C 108.2 11.8 106.9 12.6 105 12.6 C 102.7 12.6 101.4 11.6 101.3 9.7 Z M 109.2 8.3 C 109.2 5.9 110.8 3.9 113.1 3.9 C 115.6 3.9 116.9 5.8 116.9 8.6 C 116.9 8.6 110.5 8.6 110.5 8.6 C 110.6 10.3 111.5 11.5 113.2 11.5 C 114.4 11.5 115.2 11 115.5 9.8 C 115.5 9.8 116.7 9.8 116.7 9.8 C 116.4 11.6 115.1 12.6 113.2 12.6 C 110.7 12.6 109.2 10.7 109.2 8.3 Z M 110.5 7.6 C 110.5 7.6 115.5 7.6 115.5 7.6 C 115.4 6 114.6 4.9 113.1 4.9 C 111.6 4.9 110.7 6.1 110.5 7.6 Z " stroke="none" fill="#000"/>  </g></svg>