<?xml version="1.0" standalone="no"?><!DOCTYPE svg PUBLIC "-//W3C//DTD SVG 1.1//EN" "http://www.w3.org/Graphics/SVG/1.1/DTD/svg11.dtd"><svg xmlns="http://www.w3.org/2000/svg" version="1.1" width="153px" height="46.9px" viewBox="0 -6 153 46.9" style="top:-6px">  <desc>Color Pods</desc>  <defs/>  <g id="Polygon8842">    <path d="M 0.7 12.5 C 0.7 6.1 4.7 1.3 11 1.3 C 16.3 1.3 19.4 4.4 19.9 8.5 C 19.9 8.5 15.5 8.5 15.5 8.5 C 15.1 6.3 13.5 4.9 11 4.9 C 7 4.9 5.2 8.2 5.2 12.5 C 5.2 16.9 7.4 20 11 20 C 13.6 20 15.4 18.5 15.7 16.2 C 15.7 16.2 19.9 16.2 19.9 16.2 C 19.8 18.1 19 19.9 17.5 21.3 C 16.1 22.7 14 23.6 11 23.6 C 5 23.6 0.7 18.9 0.7 12.5 Z M 21.2 15.4 C 21.2 10.9 24.5 7.3 29.3 7.3 C 34 7.3 37.3 10.9 37.3 15.4 C 37.3 20 34 23.6 29.3 23.6 C 24.5 23.6 21.2 20 21.2 15.4 Z M 33.2 15.4 C 33.2 12.4 31.8 10.4 29.3 10.4 C 26.8 10.4 25.4 12.4 25.4 15.4 C 25.4 18.4 26.8 20.5 29.3 20.5 C 31.8 20.5 33.2 18.4 33.2 15.4 Z M 39.3 1.7 L 43.3 1.7 L 43.3 23.1 L 39.3 23.1 L 39.3 1.7 Z M 45.3 15.4 C 45.3 10.9 48.6 7.3 53.3 7.3 C 58.1 7.3 61.4 10.9 61.4 15.4 C 61.4 20 58.1 23.6 53.3 23.6 C 48.6 23.6 45.3 20 45.3 15.4 Z M 57.2 15.4 C 57.2 12.4 55.8 10.4 53.3 10.4 C 50.8 10.4 49.4 12.4 49.4 15.4 C 49.4 18.4 50.8 20.5 53.3 20.5 C 55.8 20.5 57.2 18.4 57.2 15.4 Z M 67.2 10.2 C 67.2 10.2 67.29 10.2 67.3 10.2 C 68.2 8.5 69.3 7.6 71.1 7.6 C 71.5 7.6 71.8 7.6 72 7.7 C 72.03 7.68 72 11.2 72 11.2 C 72 11.2 71.94 11.25 71.9 11.2 C 69.3 11 67.3 12.4 67.3 15.6 C 67.35 15.63 67.3 23.1 67.3 23.1 L 63.3 23.1 L 63.3 7.7 L 67.2 7.7 L 67.2 10.2 Z M 79.2 1.7 C 79.2 1.7 88.59 1.68 88.6 1.7 C 91.1 1.7 92.9 2.4 94.2 3.7 C 95.4 4.9 96.1 6.6 96.1 8.6 C 96.1 12.6 93.4 15.4 88.9 15.4 C 88.95 15.36 83.7 15.4 83.7 15.4 L 83.7 23.1 L 79.2 23.1 L 79.2 1.7 Z M 83.7 11.8 C 83.7 11.8 88.17 11.82 88.2 11.8 C 90.4 11.8 91.6 10.6 91.6 8.6 C 91.6 6.6 90.4 5.5 88.2 5.5 C 88.23 5.46 83.7 5.5 83.7 5.5 L 83.7 11.8 Z M 96.7 15.4 C 96.7 10.9 100 7.3 104.8 7.3 C 109.6 7.3 112.8 10.9 112.8 15.4 C 112.8 20 109.6 23.6 104.8 23.6 C 100 23.6 96.7 20 96.7 15.4 Z M 108.7 15.4 C 108.7 12.4 107.3 10.4 104.8 10.4 C 102.3 10.4 100.9 12.4 100.9 15.4 C 100.9 18.4 102.3 20.5 104.8 20.5 C 107.3 20.5 108.7 18.4 108.7 15.4 Z M 114 15.4 C 114 10.6 116.7 7.3 120.5 7.3 C 122.7 7.3 124 8.3 124.9 9.6 C 124.89 9.6 125 9.6 125 9.6 L 125 1.7 L 129.1 1.7 L 129.1 23.1 L 125.1 23.1 L 125.1 21.1 C 125.1 21.1 125.07 21.12 125.1 21.1 C 124.2 22.6 122.6 23.6 120.5 23.6 C 116.6 23.6 114 20.4 114 15.4 Z M 125.1 15.5 C 125.1 12.6 124.1 10.6 121.5 10.6 C 119.2 10.6 118.1 12.6 118.1 15.4 C 118.1 18.4 119.3 20.2 121.4 20.2 C 123.8 20.2 125.1 18.4 125.1 15.5 Z M 130.7 18.1 C 130.7 18.1 134.5 18.1 134.5 18.1 C 134.8 19.9 136 20.7 137.9 20.7 C 139.7 20.7 140.7 20 140.7 18.9 C 140.7 17.5 138.7 17.3 136.6 16.9 C 133.9 16.3 131.2 15.6 131.2 12.2 C 131.2 8.9 133.9 7.3 137.5 7.3 C 141.5 7.3 143.8 9.3 144.1 12.4 C 144.1 12.4 140.4 12.4 140.4 12.4 C 140.2 10.8 139.1 10.2 137.4 10.2 C 135.8 10.2 134.8 10.8 134.8 11.9 C 134.8 13.2 136.8 13.3 139 13.8 C 141.6 14.3 144.4 15 144.4 18.6 C 144.4 21.7 141.8 23.6 137.9 23.6 C 133.5 23.6 131 21.4 130.7 18.1 Z " stroke="none" fill="#d12229"/>  </g></svg>