<?xml version="1.0" standalone="no"?><!DOCTYPE svg PUBLIC "-//W3C//DTD SVG 1.1//EN" "http://www.w3.org/Graphics/SVG/1.1/DTD/svg11.dtd"><svg xmlns="http://www.w3.org/2000/svg" version="1.1" width="267.5px" height="46.9px" viewBox="0 -6 267.5 46.9" style="top:-6px">  <desc>Kid-Friendly Design</desc>  <defs/>  <g id="Polygon9244">    <path d="M 1.6 1.7 L 6 1.7 L 6 10.2 L 14.3 1.7 L 19.6 1.7 L 11.3 10.3 L 20.2 23.1 L 15.1 23.1 L 8.2 13.1 L 6 15.3 L 6 23.1 L 1.6 23.1 L 1.6 1.7 Z M 21.5 7.7 L 25.6 7.7 L 25.6 23.1 L 21.5 23.1 L 21.5 7.7 Z M 21.5 1.7 L 25.6 1.7 L 25.6 5.3 L 21.5 5.3 L 21.5 1.7 Z M 27.5 15.4 C 27.5 10.6 30.2 7.3 34.1 7.3 C 36.2 7.3 37.6 8.3 38.4 9.6 C 38.43 9.6 38.5 9.6 38.5 9.6 L 38.5 1.7 L 42.6 1.7 L 42.6 23.1 L 38.7 23.1 L 38.7 21.1 C 38.7 21.1 38.61 21.12 38.6 21.1 C 37.7 22.6 36.2 23.6 34 23.6 C 30.1 23.6 27.5 20.4 27.5 15.4 Z M 38.6 15.5 C 38.6 12.6 37.6 10.6 35 10.6 C 32.8 10.6 31.6 12.6 31.6 15.4 C 31.6 18.4 32.8 20.2 34.9 20.2 C 37.3 20.2 38.6 18.4 38.6 15.5 Z M 44.9 13.9 L 53.1 13.9 L 53.1 17.5 L 44.9 17.5 L 44.9 13.9 Z M 55.7 1.7 L 71.1 1.7 L 71.1 5.4 L 60.1 5.4 L 60.1 10.5 L 69.4 10.5 L 69.4 14.2 L 60.1 14.2 L 60.1 23.1 L 55.7 23.1 L 55.7 1.7 Z M 76.3 10.2 C 76.3 10.2 76.35 10.2 76.3 10.2 C 77.3 8.5 78.3 7.6 80.1 7.6 C 80.6 7.6 80.8 7.6 81.1 7.7 C 81.09 7.68 81.1 11.2 81.1 11.2 C 81.1 11.2 81 11.25 81 11.2 C 78.3 11 76.4 12.4 76.4 15.6 C 76.41 15.63 76.4 23.1 76.4 23.1 L 72.3 23.1 L 72.3 7.7 L 76.3 7.7 L 76.3 10.2 Z M 82.9 7.7 L 86.9 7.7 L 86.9 23.1 L 82.9 23.1 L 82.9 7.7 Z M 82.9 1.7 L 86.9 1.7 L 86.9 5.3 L 82.9 5.3 L 82.9 1.7 Z M 88.8 15.4 C 88.8 10.9 91.9 7.3 96.4 7.3 C 101.4 7.3 104 11.1 104 16.6 C 104 16.6 92.8 16.6 92.8 16.6 C 93.1 19 94.5 20.4 96.8 20.4 C 98.4 20.4 99.3 19.7 99.7 18.5 C 99.7 18.5 103.8 18.5 103.8 18.5 C 103.2 21.3 100.8 23.6 96.8 23.6 C 91.7 23.6 88.8 20 88.8 15.4 Z M 92.9 13.8 C 92.9 13.8 99.7 13.8 99.7 13.8 C 99.6 11.8 98.3 10.5 96.5 10.5 C 94.3 10.5 93.3 11.8 92.9 13.8 Z M 109.9 9.8 C 109.9 9.8 109.98 9.84 110 9.8 C 111 8.2 112.4 7.3 114.5 7.3 C 117.7 7.3 119.8 9.7 119.8 13.1 C 119.85 13.08 119.8 23.1 119.8 23.1 L 115.8 23.1 C 115.8 23.1 115.77 13.68 115.8 13.7 C 115.8 12 114.8 10.9 113.1 10.9 C 111.3 10.9 110 12.3 110 14.4 C 109.98 14.4 110 23.1 110 23.1 L 105.9 23.1 L 105.9 7.7 L 109.9 7.7 L 109.9 9.8 Z M 121.6 15.4 C 121.6 10.6 124.3 7.3 128.2 7.3 C 130.3 7.3 131.7 8.3 132.5 9.6 C 132.54 9.6 132.6 9.6 132.6 9.6 L 132.6 1.7 L 136.7 1.7 L 136.7 23.1 L 132.8 23.1 L 132.8 21.1 C 132.8 21.1 132.72 21.12 132.7 21.1 C 131.8 22.6 130.3 23.6 128.1 23.6 C 124.3 23.6 121.6 20.4 121.6 15.4 Z M 132.7 15.5 C 132.7 12.6 131.8 10.6 129.1 10.6 C 126.9 10.6 125.8 12.6 125.8 15.4 C 125.8 18.4 126.9 20.2 129 20.2 C 131.5 20.2 132.7 18.4 132.7 15.5 Z M 139.4 1.7 L 143.5 1.7 L 143.5 23.1 L 139.4 23.1 L 139.4 1.7 Z M 146.5 25 C 146.5 25 147.96 24.96 148 25 C 149.6 25 150.2 24.1 150.2 22.9 C 150.2 22 149.9 21 149.1 18.7 C 149.07 18.69 144.9 7.7 144.9 7.7 L 149.2 7.7 C 149.2 7.7 151.5 14.67 151.5 14.7 C 151.98 16.08 152.5 18 152.5 18 L 152.5 18 C 152.5 18 152.97 16.08 153.4 14.7 C 153.45 14.67 155.6 7.7 155.6 7.7 L 159.7 7.7 C 159.7 7.7 154.35 23.52 154.3 23.5 C 153.2 26.9 152 28.2 148.9 28.2 C 148.92 28.17 146.5 28.2 146.5 28.2 L 146.5 25 Z M 166.5 1.7 C 166.5 1.7 174.84 1.68 174.8 1.7 C 180.6 1.7 184.3 6.3 184.3 12.6 C 184.3 16.1 183.1 19.2 180.8 21.1 C 179.2 22.4 177.2 23.1 174.5 23.1 C 174.48 23.13 166.5 23.1 166.5 23.1 L 166.5 1.7 Z M 174.2 19.4 C 178.3 19.4 179.8 16.9 179.8 12.6 C 179.8 8.4 178 5.4 174.3 5.4 C 174.3 5.4 170.8 5.4 170.8 5.4 L 170.8 19.4 C 170.8 19.4 174.18 19.38 174.2 19.4 Z M 185.5 15.4 C 185.5 10.9 188.6 7.3 193.1 7.3 C 198.1 7.3 200.7 11.1 200.7 16.6 C 200.7 16.6 189.6 16.6 189.6 16.6 C 189.9 19 191.2 20.4 193.5 20.4 C 195.1 20.4 196 19.7 196.5 18.5 C 196.5 18.5 200.5 18.5 200.5 18.5 C 199.9 21.3 197.5 23.6 193.5 23.6 C 188.4 23.6 185.5 20 185.5 15.4 Z M 189.6 13.8 C 189.6 13.8 196.5 13.8 196.5 13.8 C 196.3 11.8 195.1 10.5 193.2 10.5 C 191 10.5 190 11.8 189.6 13.8 Z M 201.7 18.1 C 201.7 18.1 205.4 18.1 205.4 18.1 C 205.7 19.9 207 20.7 208.8 20.7 C 210.6 20.7 211.6 20 211.6 18.9 C 211.6 17.5 209.7 17.3 207.6 16.9 C 204.8 16.3 202.1 15.6 202.1 12.2 C 202.1 8.9 204.9 7.3 208.4 7.3 C 212.4 7.3 214.7 9.3 215 12.4 C 215 12.4 211.3 12.4 211.3 12.4 C 211.1 10.8 210.1 10.2 208.3 10.2 C 206.7 10.2 205.7 10.8 205.7 11.9 C 205.7 13.2 207.7 13.3 209.9 13.8 C 212.5 14.3 215.3 15 215.3 18.6 C 215.3 21.7 212.7 23.6 208.9 23.6 C 204.4 23.6 201.9 21.4 201.7 18.1 Z M 217.2 7.7 L 221.2 7.7 L 221.2 23.1 L 217.2 23.1 L 217.2 7.7 Z M 217.2 1.7 L 221.2 1.7 L 221.2 5.3 L 217.2 5.3 L 217.2 1.7 Z M 223.5 23.6 C 223.5 23.6 227.5 23.6 227.5 23.6 C 227.8 24.5 228.7 25.3 230.6 25.3 C 232.9 25.3 234 24.2 234 22.1 C 234.03 22.08 234 20.4 234 20.4 C 234 20.4 233.94 20.4 233.9 20.4 C 233 21.4 231.9 22.2 229.9 22.2 C 226.5 22.2 223.1 19.5 223.1 14.8 C 223.1 10.3 225.9 7.3 229.8 7.3 C 231.7 7.3 233.1 8.1 234.1 9.4 C 234.06 9.36 234.1 9.4 234.1 9.4 L 234.1 7.7 L 238 7.7 C 238 7.7 238.05 21.96 238 22 C 238 24.1 237.4 25.6 236.2 26.6 C 234.9 27.8 232.9 28.4 230.7 28.4 C 226.5 28.4 223.9 26.6 223.5 23.6 Z M 234.2 14.8 C 234.2 12.5 233 10.6 230.6 10.6 C 228.5 10.6 227.1 12.2 227.1 14.8 C 227.1 17.4 228.5 18.9 230.6 18.9 C 233.2 18.9 234.2 17 234.2 14.8 Z M 244.7 9.8 C 244.7 9.8 244.77 9.84 244.8 9.8 C 245.8 8.2 247.2 7.3 249.3 7.3 C 252.5 7.3 254.6 9.7 254.6 13.1 C 254.64 13.08 254.6 23.1 254.6 23.1 L 250.6 23.1 C 250.6 23.1 250.56 13.68 250.6 13.7 C 250.6 12 249.6 10.9 247.9 10.9 C 246.1 10.9 244.8 12.3 244.8 14.4 C 244.77 14.4 244.8 23.1 244.8 23.1 L 240.7 23.1 L 240.7 7.7 L 244.7 7.7 L 244.7 9.8 Z " stroke="none" fill="#d12229"/>  </g></svg>