<?xml version="1.0" standalone="no"?><!DOCTYPE svg PUBLIC "-//W3C//DTD SVG 1.1//EN" "http://www.w3.org/Graphics/SVG/1.1/DTD/svg11.dtd"><svg xmlns="http://www.w3.org/2000/svg" version="1.1" width="483.1px" height="164.3px" viewBox="0 -6 483.1 164.3" style="top:-6px">  <desc>How might we</desc>  <defs/>  <g id="Polygon2197">    <path d="M 344.3 127.1 C 345.6 126.1 346.8 125.3 346.8 123.4 C 346.8 121.4 345.4 120.3 343.5 120.3 C 341.1 120.3 339.5 121.8 339.5 124.3 C 339.5 124.3 335.3 124.3 335.3 124.3 C 335.4 120 338.2 116.6 343.4 116.6 C 348.3 116.6 351.2 119.5 351.2 123.3 C 351.2 126.4 349.5 127.7 348.2 128.8 C 345.8 130.6 344.8 130.9 344.8 133.2 C 344.8 133.2 340.9 133.2 340.9 133.2 C 340.9 129.4 342.3 128.5 344.3 127.1 Z M 340.5 135.2 L 345.2 135.2 L 345.2 139.9 L 340.5 139.9 L 340.5 135.2 Z " stroke="none" fill="#000"/>  </g>  <g id="Polygon2196">    <path d="M 1.8 1.8 L 6.4 1.8 L 6.4 10.8 L 15.4 10.8 L 15.4 1.8 L 20 1.8 L 20 24.7 L 15.4 24.7 L 15.4 14.6 L 6.4 14.6 L 6.4 24.7 L 1.8 24.7 L 1.8 1.8 Z M 22.4 16.5 C 22.4 11.6 25.9 7.8 31 7.8 C 36.1 7.8 39.6 11.6 39.6 16.5 C 39.6 21.4 36.1 25.2 31 25.2 C 25.9 25.2 22.4 21.4 22.4 16.5 Z M 35.1 16.5 C 35.1 13.3 33.6 11.1 31 11.1 C 28.3 11.1 26.8 13.3 26.8 16.5 C 26.8 19.7 28.3 21.8 31 21.8 C 33.6 21.8 35.1 19.7 35.1 16.5 Z M 39.8 8.3 L 44.1 8.3 C 44.1 8.3 46.11 15.87 46.1 15.9 C 46.46 17.22 46.8 18.9 46.8 18.9 L 46.9 18.9 C 46.9 18.9 47.26 17.18 47.6 15.8 C 47.62 15.84 49.7 8.3 49.7 8.3 L 53.4 8.3 C 53.4 8.3 55.52 15.84 55.5 15.8 C 55.87 17.22 56.3 18.9 56.3 18.9 L 56.4 18.9 C 56.4 18.9 56.74 17.22 57.1 15.9 C 57.09 15.87 59.2 8.3 59.2 8.3 L 63.4 8.3 L 58.5 24.7 L 54.5 24.7 C 54.5 24.7 52.35 16.61 52.4 16.6 C 52 15.3 51.6 13.8 51.6 13.8 L 51.6 13.8 C 51.6 13.8 51.14 15.3 50.8 16.6 C 50.78 16.61 48.5 24.7 48.5 24.7 L 44.6 24.7 L 39.8 8.3 Z M 70.3 8.3 L 74.5 8.3 L 74.5 10.5 C 74.5 10.5 74.59 10.46 74.6 10.5 C 75.5 9 77.1 7.8 79.4 7.8 C 81.4 7.8 83.1 9 83.9 10.7 C 83.9 10.7 84 10.7 84 10.7 C 85.1 8.9 86.8 7.8 88.9 7.8 C 92.4 7.8 94.3 10 94.3 13.6 C 94.3 13.63 94.3 24.7 94.3 24.7 L 90 24.7 C 90 24.7 89.95 14.37 90 14.4 C 90 12.5 89 11.6 87.4 11.6 C 85.6 11.6 84.5 13 84.5 15.1 C 84.48 15.14 84.5 24.7 84.5 24.7 L 80.1 24.7 C 80.1 24.7 80.13 14.37 80.1 14.4 C 80.1 12.5 79.2 11.6 77.6 11.6 C 75.8 11.6 74.7 13 74.7 15.1 C 74.66 15.14 74.7 24.7 74.7 24.7 L 70.3 24.7 L 70.3 8.3 Z M 97 8.3 L 101.3 8.3 L 101.3 24.7 L 97 24.7 L 97 8.3 Z M 97 1.8 L 101.3 1.8 L 101.3 5.7 L 97 5.7 L 97 1.8 Z M 103.7 25.2 C 103.7 25.2 108 25.2 108 25.2 C 108.4 26.2 109.3 27 111.3 27 C 113.8 27 115 25.8 115 23.6 C 114.98 23.55 115 21.8 115 21.8 C 115 21.8 114.88 21.76 114.9 21.8 C 113.9 22.8 112.7 23.7 110.6 23.7 C 106.9 23.7 103.4 20.8 103.4 15.8 C 103.4 10.9 106.3 7.8 110.5 7.8 C 112.5 7.8 114 8.6 115 10 C 115.01 9.98 115.1 10 115.1 10 L 115.1 8.3 L 119.3 8.3 C 119.3 8.3 119.26 23.42 119.3 23.4 C 119.3 25.7 118.5 27.3 117.3 28.4 C 115.9 29.7 113.8 30.3 111.4 30.3 C 106.9 30.3 104.2 28.4 103.7 25.2 Z M 115.2 15.7 C 115.2 13.3 113.9 11.3 111.3 11.3 C 109.1 11.3 107.6 13 107.6 15.8 C 107.6 18.6 109.1 20.2 111.3 20.2 C 114.1 20.2 115.2 18.2 115.2 15.7 Z M 126.4 10.4 C 126.4 10.4 126.53 10.4 126.5 10.4 C 127.7 8.7 129.1 7.8 131.3 7.8 C 134.7 7.8 137 10.4 137 14 C 136.96 13.95 137 24.7 137 24.7 L 132.6 24.7 C 132.6 24.7 132.61 14.59 132.6 14.6 C 132.6 12.8 131.6 11.6 129.8 11.6 C 127.8 11.6 126.4 13.1 126.4 15.4 C 126.43 15.36 126.4 24.7 126.4 24.7 L 122.1 24.7 L 122.1 1.8 L 126.4 1.8 L 126.4 10.4 Z M 138.4 8.3 L 140.6 8.3 L 140.6 3.1 L 144.9 3.1 L 144.9 8.3 L 147.7 8.3 L 147.7 11.1 L 144.9 11.1 C 144.9 11.1 144.9 19.84 144.9 19.8 C 144.9 21.1 145.6 21.5 146.5 21.5 C 147.07 21.47 147.8 21.4 147.8 21.4 L 147.8 24.6 C 147.8 24.6 146.82 24.7 145.1 24.7 C 143 24.7 140.6 23.9 140.6 20.8 C 140.64 20.77 140.6 11.1 140.6 11.1 L 138.4 11.1 L 138.4 8.3 Z M 154 8.3 L 158.4 8.3 C 158.4 8.3 160.35 15.87 160.4 15.9 C 160.7 17.22 161.1 18.9 161.1 18.9 L 161.2 18.9 C 161.2 18.9 161.5 17.18 161.9 15.8 C 161.85 15.84 163.9 8.3 163.9 8.3 L 167.6 8.3 C 167.6 8.3 169.76 15.84 169.8 15.8 C 170.11 17.22 170.5 18.9 170.5 18.9 L 170.6 18.9 C 170.6 18.9 170.97 17.22 171.3 15.9 C 171.33 15.87 173.4 8.3 173.4 8.3 L 177.6 8.3 L 172.7 24.7 L 168.8 24.7 C 168.8 24.7 166.59 16.61 166.6 16.6 C 166.24 15.3 165.9 13.8 165.9 13.8 L 165.8 13.8 C 165.8 13.8 165.37 15.3 165 16.6 C 165.02 16.61 162.8 24.7 162.8 24.7 L 158.8 24.7 L 154 8.3 Z M 177.9 16.4 C 177.9 11.6 181.2 7.8 186 7.8 C 191.3 7.8 194.1 11.8 194.1 17.7 C 194.1 17.7 182.2 17.7 182.2 17.7 C 182.5 20.2 183.9 21.8 186.4 21.8 C 188.1 21.8 189.1 21 189.5 19.8 C 189.5 19.8 193.8 19.8 193.8 19.8 C 193.2 22.7 190.6 25.2 186.4 25.2 C 181 25.2 177.9 21.3 177.9 16.4 Z M 182.2 14.7 C 182.2 14.7 189.5 14.7 189.5 14.7 C 189.4 12.6 188 11.2 186 11.2 C 183.7 11.2 182.6 12.5 182.2 14.7 Z " stroke="none" fill="#fff"/>  </g></svg>