<?xml version="1.0" standalone="no"?><!DOCTYPE svg PUBLIC "-//W3C//DTD SVG 1.1//EN" "http://www.w3.org/Graphics/SVG/1.1/DTD/svg11.dtd"><svg xmlns="http://www.w3.org/2000/svg" version="1.1" width="256px" height="50.8px" viewBox="0 -6 256 50.8" style="top:-6px">  <desc>User Research</desc>  <defs/>  <g id="Polygon7370">    <path d="M 1.7 18.4 C 1.67 18.39 1.7 1.9 1.7 1.9 L 6.6 1.9 C 6.6 1.9 6.6 18.39 6.6 18.4 C 6.6 20.9 7.9 22.7 11.2 22.7 C 14.3 22.7 15.7 20.8 15.7 18.3 C 15.74 18.33 15.7 1.9 15.7 1.9 L 20.7 1.9 C 20.7 1.9 20.67 18.39 20.7 18.4 C 20.7 23.6 17.5 26.6 11.3 26.6 C 5 26.6 1.7 23.7 1.7 18.4 Z M 22.7 20.6 C 22.7 20.6 27 20.6 27 20.6 C 27.3 22.6 28.8 23.5 30.8 23.5 C 32.9 23.5 34 22.7 34 21.5 C 34 19.8 31.8 19.6 29.4 19.1 C 26.3 18.5 23.3 17.7 23.3 13.9 C 23.3 10.1 26.4 8.3 30.4 8.3 C 35 8.3 37.5 10.6 37.8 14.1 C 37.8 14.1 33.7 14.1 33.7 14.1 C 33.5 12.2 32.3 11.5 30.3 11.5 C 28.5 11.5 27.3 12.2 27.3 13.5 C 27.3 15 29.6 15.1 32.1 15.6 C 35 16.2 38.2 17 38.2 21.1 C 38.2 24.6 35.3 26.7 30.9 26.7 C 25.8 26.7 23 24.3 22.7 20.6 Z M 39.6 17.5 C 39.6 12.3 43.1 8.3 48.2 8.3 C 53.9 8.3 56.8 12.6 56.8 18.8 C 56.8 18.8 44.2 18.8 44.2 18.8 C 44.5 21.5 46 23.2 48.7 23.2 C 50.5 23.2 51.5 22.3 52 21 C 52 21 56.6 21 56.6 21 C 55.9 24.1 53.2 26.7 48.7 26.7 C 42.9 26.7 39.6 22.7 39.6 17.5 Z M 44.3 15.6 C 44.3 15.6 52 15.6 52 15.6 C 51.9 13.4 50.4 11.9 48.3 11.9 C 45.9 11.9 44.7 13.3 44.3 15.6 Z M 63.4 11.6 C 63.4 11.6 63.54 11.56 63.5 11.6 C 64.6 9.6 65.8 8.6 67.8 8.6 C 68.3 8.6 68.6 8.6 68.9 8.7 C 68.92 8.7 68.9 12.7 68.9 12.7 C 68.9 12.7 68.81 12.75 68.8 12.7 C 65.8 12.4 63.6 14 63.6 17.7 C 63.61 17.71 63.6 26.2 63.6 26.2 L 59 26.2 L 59 8.8 L 63.4 8.8 L 63.4 11.6 Z M 77 1.9 C 77 1.9 88.16 1.9 88.2 1.9 C 92.9 1.9 96 4.6 96 8.7 C 96 11.5 94.7 13.7 91.5 14.6 C 91.5 14.6 91.5 14.7 91.5 14.7 C 93.8 15.3 94.9 16.6 95.2 19.5 C 95.6 23 95.4 25.6 96.3 26 C 96.29 25.98 96.3 26.2 96.3 26.2 C 96.3 26.2 91.56 26.21 91.6 26.2 C 90.9 25.9 90.9 23.2 90.7 20.6 C 90.5 18 89 16.5 85.9 16.5 C 85.92 16.46 81.9 16.5 81.9 16.5 L 81.9 26.2 L 77 26.2 L 77 1.9 Z M 81.9 12.6 C 81.9 12.6 87.17 12.65 87.2 12.6 C 89.9 12.6 91.2 11.3 91.2 9.3 C 91.2 7.3 89.9 5.9 87.3 5.9 C 87.31 5.88 81.9 5.9 81.9 5.9 L 81.9 12.6 Z M 97.7 17.5 C 97.7 12.3 101.3 8.3 106.4 8.3 C 112 8.3 115 12.6 115 18.8 C 115 18.8 102.3 18.8 102.3 18.8 C 102.6 21.5 104.1 23.2 106.8 23.2 C 108.6 23.2 109.6 22.3 110.1 21 C 110.1 21 114.7 21 114.7 21 C 114 24.1 111.3 26.7 106.8 26.7 C 101 26.7 97.7 22.7 97.7 17.5 Z M 102.4 15.6 C 102.4 15.6 110.1 15.6 110.1 15.6 C 110 13.4 108.5 11.9 106.4 11.9 C 104 11.9 102.8 13.3 102.4 15.6 Z M 116 20.6 C 116 20.6 120.3 20.6 120.3 20.6 C 120.6 22.6 122 23.5 124.1 23.5 C 126.1 23.5 127.3 22.7 127.3 21.5 C 127.3 19.8 125.1 19.6 122.7 19.1 C 119.6 18.5 116.5 17.7 116.5 13.9 C 116.5 10.1 119.6 8.3 123.6 8.3 C 128.2 8.3 130.8 10.6 131.1 14.1 C 131.1 14.1 126.9 14.1 126.9 14.1 C 126.7 12.2 125.5 11.5 123.6 11.5 C 121.8 11.5 120.6 12.2 120.6 13.5 C 120.6 15 122.9 15.1 125.4 15.6 C 128.3 16.2 131.5 17 131.5 21.1 C 131.5 24.6 128.5 26.7 124.2 26.7 C 119.1 26.7 116.3 24.3 116 20.6 Z M 132.9 17.5 C 132.9 12.3 136.4 8.3 141.5 8.3 C 147.1 8.3 150.1 12.6 150.1 18.8 C 150.1 18.8 137.5 18.8 137.5 18.8 C 137.8 21.5 139.3 23.2 141.9 23.2 C 143.7 23.2 144.8 22.3 145.3 21 C 145.3 21 149.8 21 149.8 21 C 149.2 24.1 146.4 26.7 141.9 26.7 C 136.2 26.7 132.9 22.7 132.9 17.5 Z M 137.5 15.6 C 137.5 15.6 145.3 15.6 145.3 15.6 C 145.1 13.4 143.7 11.9 141.6 11.9 C 139.1 11.9 137.9 13.3 137.5 15.6 Z M 162.7 24.3 C 162.7 24.3 162.6 24.3 162.6 24.3 C 161.7 25.6 160.5 26.6 157.5 26.6 C 153.9 26.6 151.4 24.8 151.4 21.3 C 151.4 17.4 154.5 16.2 158.4 15.7 C 161.3 15.3 162.6 15 162.6 13.7 C 162.6 12.4 161.6 11.6 159.7 11.6 C 157.5 11.6 156.5 12.4 156.3 14.1 C 156.3 14.1 152.2 14.1 152.2 14.1 C 152.4 11 154.6 8.3 159.7 8.3 C 165 8.3 167.1 10.7 167.1 14.8 C 167.1 14.8 167.1 23.6 167.1 23.6 C 167.1 25 167.3 25.7 167.7 26 C 167.69 26.04 167.7 26.2 167.7 26.2 C 167.7 26.2 163.23 26.21 163.2 26.2 C 163 25.9 162.8 25.1 162.7 24.3 Z M 162.7 20.1 C 162.7 20.1 162.7 17.4 162.7 17.4 C 161.9 17.9 160.6 18.2 159.5 18.5 C 157.1 19 155.9 19.5 155.9 21.2 C 155.9 22.8 157 23.4 158.6 23.4 C 161.3 23.4 162.7 21.8 162.7 20.1 Z M 174.5 11.6 C 174.5 11.6 174.55 11.56 174.6 11.6 C 175.6 9.6 176.8 8.6 178.8 8.6 C 179.3 8.6 179.7 8.6 179.9 8.7 C 179.92 8.7 179.9 12.7 179.9 12.7 C 179.9 12.7 179.82 12.75 179.8 12.7 C 176.8 12.4 174.6 14 174.6 17.7 C 174.62 17.71 174.6 26.2 174.6 26.2 L 170 26.2 L 170 8.8 L 174.5 8.8 L 174.5 11.6 Z M 180.6 17.5 C 180.6 12.3 184 8.3 189.3 8.3 C 193.8 8.3 196.6 10.9 197.2 14.7 C 197.2 14.7 192.7 14.7 192.7 14.7 C 192.4 13.2 191.2 12 189.5 12 C 186.7 12 185.3 14.1 185.3 17.5 C 185.3 20.8 186.6 23 189.4 23 C 191.3 23 192.6 22 192.9 20.1 C 192.9 20.1 197.4 20.1 197.4 20.1 C 197.1 23.8 194.2 26.7 189.5 26.7 C 184 26.7 180.6 22.7 180.6 17.5 Z M 204 11 C 204 11 204.1 11.05 204.1 11 C 205.4 9.2 206.8 8.3 209.2 8.3 C 212.8 8.3 215.2 11 215.2 14.8 C 215.18 14.82 215.2 26.2 215.2 26.2 L 210.6 26.2 C 210.6 26.2 210.56 15.5 210.6 15.5 C 210.6 13.6 209.5 12.3 207.5 12.3 C 205.5 12.3 204 13.9 204 16.3 C 204 16.32 204 26.2 204 26.2 L 199.4 26.2 L 199.4 1.9 L 204 1.9 L 204 11 Z " stroke="none" fill="#d12229"/>  </g></svg>