<?xml version="1.0" standalone="no"?><!DOCTYPE svg PUBLIC "-//W3C//DTD SVG 1.1//EN" "http://www.w3.org/Graphics/SVG/1.1/DTD/svg11.dtd"><svg xmlns="http://www.w3.org/2000/svg" version="1.1" width="300px" height="28.2px" viewBox="0 -3 300 28.2" style="top:-3px">  <desc>Power Dish Brush Canson Paper</desc>  <defs/>  <g id="Polygon6936">    <path d="M 0.8 0.8 C 0.8 0.8 5.17 0.78 5.2 0.8 C 6.3 0.8 7.2 1.1 7.8 1.7 C 8.3 2.3 8.7 3.1 8.7 4 C 8.7 5.9 7.4 7.2 5.3 7.2 C 5.33 7.17 2.9 7.2 2.9 7.2 L 2.9 10.8 L 0.8 10.8 L 0.8 0.8 Z M 2.9 5.5 C 2.9 5.5 4.97 5.52 5 5.5 C 6 5.5 6.6 4.9 6.6 4 C 6.6 3.1 6 2.5 5 2.5 C 5 2.55 2.9 2.5 2.9 2.5 L 2.9 5.5 Z M 9 7.2 C 9 5.1 10.5 3.4 12.7 3.4 C 15 3.4 16.5 5.1 16.5 7.2 C 16.5 9.4 15 11 12.7 11 C 10.5 11 9 9.4 9 7.2 Z M 14.5 7.2 C 14.5 5.8 13.9 4.9 12.7 4.9 C 11.5 4.9 10.9 5.8 10.9 7.2 C 10.9 8.6 11.5 9.5 12.7 9.5 C 13.9 9.5 14.5 8.6 14.5 7.2 Z M 16.6 3.6 L 18.5 3.6 C 18.5 3.6 19.35 6.94 19.3 6.9 C 19.5 7.53 19.7 8.3 19.7 8.3 L 19.7 8.3 C 19.7 8.3 19.85 7.52 20 6.9 C 20.01 6.93 20.9 3.6 20.9 3.6 L 22.5 3.6 C 22.5 3.6 23.46 6.93 23.5 6.9 C 23.62 7.53 23.8 8.3 23.8 8.3 L 23.8 8.3 C 23.8 8.3 24 7.53 24.1 6.9 C 24.15 6.94 25.1 3.6 25.1 3.6 L 26.9 3.6 L 24.8 10.8 L 23 10.8 C 23 10.8 22.08 7.27 22.1 7.3 C 21.92 6.69 21.8 6 21.8 6 L 21.7 6 C 21.7 6 21.55 6.69 21.4 7.3 C 21.39 7.27 20.4 10.8 20.4 10.8 L 18.7 10.8 L 16.6 3.6 Z M 27 7.2 C 27 5.1 28.5 3.4 30.6 3.4 C 32.9 3.4 34.1 5.2 34.1 7.7 C 34.1 7.7 28.9 7.7 28.9 7.7 C 29 8.8 29.7 9.5 30.7 9.5 C 31.5 9.5 31.9 9.2 32.1 8.7 C 32.1 8.7 34 8.7 34 8.7 C 33.7 9.9 32.6 11 30.7 11 C 28.4 11 27 9.3 27 7.2 Z M 28.9 6.4 C 28.9 6.4 32.1 6.4 32.1 6.4 C 32.1 5.5 31.5 4.9 30.6 4.9 C 29.6 4.9 29.1 5.5 28.9 6.4 Z M 36.8 4.8 C 36.8 4.8 36.86 4.76 36.9 4.8 C 37.3 3.9 37.8 3.5 38.6 3.5 C 38.8 3.5 39 3.5 39.1 3.6 C 39.07 3.58 39.1 5.3 39.1 5.3 C 39.1 5.3 39.03 5.25 39 5.3 C 37.8 5.1 36.9 5.8 36.9 7.3 C 36.89 7.29 36.9 10.8 36.9 10.8 L 35 10.8 L 35 3.6 L 36.8 3.6 L 36.8 4.8 Z M 42.4 0.8 C 42.4 0.8 46.31 0.78 46.3 0.8 C 49 0.8 50.7 2.9 50.7 5.9 C 50.7 7.5 50.2 8.9 49.1 9.8 C 48.4 10.4 47.4 10.8 46.1 10.8 C 46.14 10.79 42.4 10.8 42.4 10.8 L 42.4 0.8 Z M 46 9 C 47.9 9 48.7 7.9 48.7 5.9 C 48.7 3.9 47.8 2.5 46.1 2.5 C 46.06 2.52 44.4 2.5 44.4 2.5 L 44.4 9 C 44.4 9 46 9.04 46 9 Z M 51.7 3.6 L 53.6 3.6 L 53.6 10.8 L 51.7 10.8 L 51.7 3.6 Z M 51.7 0.8 L 53.6 0.8 L 53.6 2.5 L 51.7 2.5 L 51.7 0.8 Z M 54.3 8.5 C 54.3 8.5 56.1 8.5 56.1 8.5 C 56.2 9.3 56.8 9.7 57.7 9.7 C 58.5 9.7 59 9.3 59 8.8 C 59 8.1 58.1 8.1 57.1 7.9 C 55.8 7.6 54.6 7.3 54.6 5.7 C 54.6 4.2 55.8 3.4 57.5 3.4 C 59.4 3.4 60.4 4.4 60.6 5.8 C 60.6 5.8 58.8 5.8 58.8 5.8 C 58.8 5 58.3 4.7 57.5 4.7 C 56.7 4.7 56.2 5 56.2 5.5 C 56.2 6.2 57.2 6.2 58.2 6.4 C 59.4 6.7 60.7 7 60.7 8.7 C 60.7 10.1 59.5 11 57.7 11 C 55.6 11 54.5 10 54.3 8.5 Z M 63.5 4.5 C 63.5 4.5 63.53 4.55 63.5 4.5 C 64 3.8 64.6 3.4 65.6 3.4 C 67.1 3.4 68.1 4.5 68.1 6.1 C 68.09 6.1 68.1 10.8 68.1 10.8 L 66.2 10.8 C 66.2 10.8 66.19 6.38 66.2 6.4 C 66.2 5.6 65.7 5.1 64.9 5.1 C 64.1 5.1 63.5 5.7 63.5 6.7 C 63.49 6.72 63.5 10.8 63.5 10.8 L 61.6 10.8 L 61.6 0.8 L 63.5 0.8 L 63.5 4.5 Z M 71.8 0.8 C 71.8 0.8 76.26 0.78 76.3 0.8 C 77.3 0.8 78.2 1.1 78.7 1.5 C 79.2 2 79.5 2.6 79.5 3.4 C 79.5 4.4 78.8 5.1 77.9 5.4 C 77.9 5.4 77.9 5.4 77.9 5.4 C 79 5.8 79.8 6.7 79.8 7.9 C 79.8 8.8 79.5 9.5 78.9 10 C 78.3 10.5 77.4 10.8 76.4 10.8 C 76.37 10.79 71.8 10.8 71.8 10.8 L 71.8 0.8 Z M 73.8 9.1 C 73.8 9.1 76.15 9.11 76.1 9.1 C 77.1 9.1 77.7 8.6 77.7 7.8 C 77.7 6.8 77 6.3 76.1 6.3 C 76.09 6.31 73.8 6.3 73.8 6.3 L 73.8 9.1 Z M 76 4.8 C 76.9 4.8 77.5 4.4 77.5 3.6 C 77.5 2.9 76.9 2.4 76 2.4 C 76.05 2.44 73.8 2.4 73.8 2.4 L 73.8 4.8 C 73.8 4.8 76.01 4.82 76 4.8 Z M 82.6 4.8 C 82.6 4.8 82.68 4.76 82.7 4.8 C 83.1 3.9 83.6 3.5 84.4 3.5 C 84.7 3.5 84.8 3.5 84.9 3.6 C 84.89 3.58 84.9 5.3 84.9 5.3 C 84.9 5.3 84.85 5.25 84.9 5.3 C 83.6 5.1 82.7 5.8 82.7 7.3 C 82.71 7.29 82.7 10.8 82.7 10.8 L 80.8 10.8 L 80.8 3.6 L 82.6 3.6 L 82.6 4.8 Z M 90.3 10.8 L 90.3 10 C 90.3 10 90.22 9.95 90.2 10 C 89.7 10.6 89.2 11 88.2 11 C 86.6 11 85.7 10 85.7 8.4 C 85.67 8.4 85.7 3.6 85.7 3.6 L 87.6 3.6 C 87.6 3.6 87.55 8.08 87.6 8.1 C 87.6 8.9 87.9 9.4 88.7 9.4 C 89.6 9.4 90.2 8.7 90.2 7.8 C 90.19 7.76 90.2 3.6 90.2 3.6 L 92.1 3.6 L 92.1 10.8 L 90.3 10.8 Z M 92.9 8.5 C 92.9 8.5 94.6 8.5 94.6 8.5 C 94.8 9.3 95.4 9.7 96.2 9.7 C 97 9.7 97.5 9.3 97.5 8.8 C 97.5 8.1 96.6 8.1 95.6 7.9 C 94.3 7.6 93.1 7.3 93.1 5.7 C 93.1 4.2 94.4 3.4 96 3.4 C 97.9 3.4 99 4.4 99.1 5.8 C 99.1 5.8 97.4 5.8 97.4 5.8 C 97.3 5 96.8 4.7 96 4.7 C 95.2 4.7 94.8 5 94.8 5.5 C 94.8 6.2 95.7 6.2 96.7 6.4 C 97.9 6.7 99.3 7 99.3 8.7 C 99.3 10.1 98 11 96.2 11 C 94.1 11 93 10 92.9 8.5 Z M 102 4.5 C 102 4.5 102.06 4.55 102.1 4.5 C 102.6 3.8 103.2 3.4 104.1 3.4 C 105.6 3.4 106.6 4.5 106.6 6.1 C 106.62 6.1 106.6 10.8 106.6 10.8 L 104.7 10.8 C 104.7 10.8 104.72 6.38 104.7 6.4 C 104.7 5.6 104.3 5.1 103.5 5.1 C 102.6 5.1 102 5.7 102 6.7 C 102.02 6.72 102 10.8 102 10.8 L 100.1 10.8 L 100.1 0.8 L 102 0.8 L 102 4.5 Z M 110.4 0.2 L 111.6 0.2 L 111.6 12.6 L 110.4 12.6 L 110.4 0.2 Z M 115.2 5.8 C 115.2 2.9 117 0.6 120 0.6 C 122.4 0.6 123.9 2.1 124.1 4 C 124.1 4 122.1 4 122.1 4 C 121.9 3 121.1 2.3 120 2.3 C 118.1 2.3 117.2 3.8 117.2 5.8 C 117.2 7.9 118.3 9.3 120 9.3 C 121.2 9.3 122 8.6 122.1 7.6 C 122.1 7.6 124.1 7.6 124.1 7.6 C 124.1 8.5 123.7 9.3 123 9.9 C 122.3 10.6 121.4 11 120 11 C 117.2 11 115.2 8.8 115.2 5.8 Z M 129.3 10 C 129.3 10 129.3 10 129.3 10 C 128.9 10.5 128.4 11 127.2 11 C 125.7 11 124.7 10.2 124.7 8.8 C 124.7 7.2 126 6.7 127.6 6.5 C 128.7 6.3 129.3 6.2 129.3 5.6 C 129.3 5.1 128.9 4.8 128.1 4.8 C 127.2 4.8 126.8 5.1 126.7 5.8 C 126.7 5.8 125 5.8 125 5.8 C 125.1 4.5 126 3.4 128.1 3.4 C 130.3 3.4 131.1 4.4 131.1 6.1 C 131.1 6.1 131.1 9.7 131.1 9.7 C 131.1 10.3 131.2 10.6 131.4 10.7 C 131.37 10.72 131.4 10.8 131.4 10.8 C 131.4 10.8 129.54 10.79 129.5 10.8 C 129.4 10.7 129.4 10.3 129.3 10 Z M 129.3 8.3 C 129.3 8.3 129.3 7.2 129.3 7.2 C 129 7.4 128.5 7.5 128 7.6 C 127 7.8 126.5 8.1 126.5 8.7 C 126.5 9.4 127 9.6 127.6 9.6 C 128.7 9.6 129.3 9 129.3 8.3 Z M 134.2 4.6 C 134.2 4.6 134.23 4.59 134.2 4.6 C 134.7 3.8 135.4 3.4 136.4 3.4 C 137.8 3.4 138.8 4.5 138.8 6.1 C 138.84 6.1 138.8 10.8 138.8 10.8 L 136.9 10.8 C 136.9 10.8 136.93 6.38 136.9 6.4 C 136.9 5.6 136.5 5.1 135.7 5.1 C 134.8 5.1 134.2 5.7 134.2 6.7 C 134.23 6.72 134.2 10.8 134.2 10.8 L 132.3 10.8 L 132.3 3.6 L 134.2 3.6 L 134.2 4.6 Z M 139.6 8.5 C 139.6 8.5 141.3 8.5 141.3 8.5 C 141.5 9.3 142 9.7 142.9 9.7 C 143.7 9.7 144.2 9.3 144.2 8.8 C 144.2 8.1 143.3 8.1 142.3 7.9 C 141 7.6 139.8 7.3 139.8 5.7 C 139.8 4.2 141.1 3.4 142.7 3.4 C 144.6 3.4 145.6 4.4 145.8 5.8 C 145.8 5.8 144.1 5.8 144.1 5.8 C 144 5 143.5 4.7 142.7 4.7 C 141.9 4.7 141.4 5 141.4 5.5 C 141.4 6.2 142.4 6.2 143.4 6.4 C 144.6 6.7 145.9 7 145.9 8.7 C 145.9 10.1 144.7 11 142.9 11 C 140.8 11 139.7 10 139.6 8.5 Z M 146.5 7.2 C 146.5 5.1 148 3.4 150.3 3.4 C 152.5 3.4 154 5.1 154 7.2 C 154 9.4 152.5 11 150.3 11 C 148 11 146.5 9.4 146.5 7.2 Z M 152.1 7.2 C 152.1 5.8 151.4 4.9 150.3 4.9 C 149.1 4.9 148.5 5.8 148.5 7.2 C 148.5 8.6 149.1 9.5 150.3 9.5 C 151.4 9.5 152.1 8.6 152.1 7.2 Z M 156.8 4.6 C 156.8 4.6 156.81 4.59 156.8 4.6 C 157.3 3.8 158 3.4 158.9 3.4 C 160.4 3.4 161.4 4.5 161.4 6.1 C 161.42 6.1 161.4 10.8 161.4 10.8 L 159.5 10.8 C 159.5 10.8 159.51 6.38 159.5 6.4 C 159.5 5.6 159.1 5.1 158.3 5.1 C 157.4 5.1 156.8 5.7 156.8 6.7 C 156.81 6.72 156.8 10.8 156.8 10.8 L 154.9 10.8 L 154.9 3.6 L 156.8 3.6 L 156.8 4.6 Z M 165.1 0.8 C 165.1 0.8 169.5 0.78 169.5 0.8 C 170.7 0.8 171.5 1.1 172.1 1.7 C 172.7 2.3 173 3.1 173 4 C 173 5.9 171.8 7.2 169.7 7.2 C 169.66 7.17 167.2 7.2 167.2 7.2 L 167.2 10.8 L 165.1 10.8 L 165.1 0.8 Z M 167.2 5.5 C 167.2 5.5 169.3 5.52 169.3 5.5 C 170.4 5.5 170.9 4.9 170.9 4 C 170.9 3.1 170.3 2.5 169.3 2.5 C 169.33 2.55 167.2 2.5 167.2 2.5 L 167.2 5.5 Z M 177.9 10 C 177.9 10 177.9 10 177.9 10 C 177.5 10.5 177 11 175.7 11 C 174.3 11 173.2 10.2 173.2 8.8 C 173.2 7.2 174.5 6.7 176.1 6.5 C 177.3 6.3 177.9 6.2 177.9 5.6 C 177.9 5.1 177.4 4.8 176.6 4.8 C 175.8 4.8 175.3 5.1 175.3 5.8 C 175.3 5.8 173.6 5.8 173.6 5.8 C 173.6 4.5 174.6 3.4 176.7 3.4 C 178.8 3.4 179.7 4.4 179.7 6.1 C 179.7 6.1 179.7 9.7 179.7 9.7 C 179.7 10.3 179.8 10.6 179.9 10.7 C 179.94 10.72 179.9 10.8 179.9 10.8 C 179.9 10.8 178.11 10.79 178.1 10.8 C 178 10.7 177.9 10.3 177.9 10 Z M 177.9 8.3 C 177.9 8.3 177.9 7.2 177.9 7.2 C 177.6 7.4 177 7.5 176.6 7.6 C 175.6 7.8 175.1 8.1 175.1 8.7 C 175.1 9.4 175.5 9.6 176.2 9.6 C 177.3 9.6 177.9 9 177.9 8.3 Z M 180.9 3.6 L 182.7 3.6 L 182.7 4.5 C 182.7 4.5 182.77 4.51 182.8 4.5 C 183.2 3.9 183.9 3.4 184.9 3.4 C 186.8 3.4 188 5 188 7.2 C 188 9.5 186.7 11 184.9 11 C 183.9 11 183.2 10.6 182.8 10 C 182.82 9.98 182.8 10 182.8 10 L 182.8 13.1 L 180.9 13.1 L 180.9 3.6 Z M 186.1 7.3 C 186.1 5.9 185.6 5 184.4 5 C 183.2 5 182.8 6 182.8 7.3 C 182.8 8.6 183.4 9.4 184.5 9.4 C 185.5 9.4 186.1 8.6 186.1 7.3 Z M 188.5 7.2 C 188.5 5.1 190 3.4 192.1 3.4 C 194.4 3.4 195.6 5.2 195.6 7.7 C 195.6 7.7 190.4 7.7 190.4 7.7 C 190.6 8.8 191.2 9.5 192.2 9.5 C 193 9.5 193.4 9.2 193.6 8.7 C 193.6 8.7 195.5 8.7 195.5 8.7 C 195.2 9.9 194.1 11 192.3 11 C 189.9 11 188.5 9.3 188.5 7.2 Z M 190.4 6.4 C 190.4 6.4 193.6 6.4 193.6 6.4 C 193.6 5.5 193 4.9 192.1 4.9 C 191.1 4.9 190.6 5.5 190.4 6.4 Z M 198.3 4.8 C 198.3 4.8 198.38 4.76 198.4 4.8 C 198.8 3.9 199.3 3.5 200.1 3.5 C 200.4 3.5 200.5 3.5 200.6 3.6 C 200.59 3.58 200.6 5.3 200.6 5.3 C 200.6 5.3 200.55 5.25 200.5 5.3 C 199.3 5.1 198.4 5.8 198.4 7.3 C 198.4 7.29 198.4 10.8 198.4 10.8 L 196.5 10.8 L 196.5 3.6 L 198.3 3.6 L 198.3 4.8 Z " stroke="none" fill="#000"/>  </g></svg>