<?xml version="1.0" standalone="no"?><!DOCTYPE svg PUBLIC "-//W3C//DTD SVG 1.1//EN" "http://www.w3.org/Graphics/SVG/1.1/DTD/svg11.dtd"><svg xmlns="http://www.w3.org/2000/svg" version="1.1" width="300px" height="28.2px" viewBox="0 -3 300 28.2" style="top:-3px">  <desc>Solar Camp Stove</desc>  <defs/>  <g id="Polygon6887">    <path d="M 0.3 7.7 C 0.3 7.7 2.3 7.7 2.3 7.7 C 2.4 8.9 3.1 9.4 4.6 9.4 C 5.6 9.4 6.5 9 6.5 8.1 C 6.5 7.1 5.6 6.9 4 6.6 C 2.2 6.2 0.6 5.7 0.6 3.6 C 0.6 1.6 2.2 0.6 4.4 0.6 C 6.7 0.6 8.1 1.7 8.3 3.7 C 8.3 3.7 6.4 3.7 6.4 3.7 C 6.2 2.7 5.5 2.2 4.4 2.2 C 3.3 2.2 2.6 2.7 2.6 3.4 C 2.6 4.2 3.3 4.4 4.8 4.8 C 6.9 5.2 8.5 5.7 8.5 7.9 C 8.5 9.9 6.9 11 4.6 11 C 1.9 11 0.4 9.8 0.3 7.7 Z M 9.3 7.2 C 9.3 5.1 10.8 3.4 13 3.4 C 15.2 3.4 16.8 5.1 16.8 7.2 C 16.8 9.4 15.2 11 13 11 C 10.8 11 9.3 9.4 9.3 7.2 Z M 14.8 7.2 C 14.8 5.8 14.2 4.9 13 4.9 C 11.8 4.9 11.2 5.8 11.2 7.2 C 11.2 8.6 11.8 9.5 13 9.5 C 14.2 9.5 14.8 8.6 14.8 7.2 Z M 17.7 0.8 L 19.6 0.8 L 19.6 10.8 L 17.7 10.8 L 17.7 0.8 Z M 25.1 10 C 25.1 10 25.1 10 25.1 10 C 24.7 10.5 24.2 11 23 11 C 21.5 11 20.5 10.2 20.5 8.8 C 20.5 7.2 21.8 6.7 23.4 6.5 C 24.6 6.3 25.1 6.2 25.1 5.6 C 25.1 5.1 24.7 4.8 23.9 4.8 C 23 4.8 22.6 5.1 22.5 5.8 C 22.5 5.8 20.8 5.8 20.8 5.8 C 20.9 4.5 21.8 3.4 23.9 3.4 C 26.1 3.4 26.9 4.4 26.9 6.1 C 26.9 6.1 26.9 9.7 26.9 9.7 C 26.9 10.3 27 10.6 27.2 10.7 C 27.19 10.72 27.2 10.8 27.2 10.8 C 27.2 10.8 25.35 10.79 25.4 10.8 C 25.2 10.7 25.2 10.3 25.1 10 Z M 25.1 8.3 C 25.1 8.3 25.1 7.2 25.1 7.2 C 24.8 7.4 24.3 7.5 23.8 7.6 C 22.8 7.8 22.3 8.1 22.3 8.7 C 22.3 9.4 22.8 9.6 23.4 9.6 C 24.5 9.6 25.1 9 25.1 8.3 Z M 30 4.8 C 30 4.8 30.01 4.76 30 4.8 C 30.4 3.9 30.9 3.5 31.8 3.5 C 32 3.5 32.1 3.5 32.2 3.6 C 32.23 3.58 32.2 5.3 32.2 5.3 C 32.2 5.3 32.18 5.25 32.2 5.3 C 30.9 5.1 30 5.8 30 7.3 C 30.04 7.29 30 10.8 30 10.8 L 28.1 10.8 L 28.1 3.6 L 30 3.6 L 30 4.8 Z M 35.1 5.8 C 35.1 2.9 37 0.6 39.9 0.6 C 42.4 0.6 43.8 2.1 44.1 4 C 44.1 4 42 4 42 4 C 41.9 3 41.1 2.3 39.9 2.3 C 38.1 2.3 37.2 3.8 37.2 5.8 C 37.2 7.9 38.3 9.3 39.9 9.3 C 41.1 9.3 42 8.6 42.1 7.6 C 42.1 7.6 44.1 7.6 44.1 7.6 C 44 8.5 43.7 9.3 43 9.9 C 42.3 10.6 41.3 11 39.9 11 C 37.1 11 35.1 8.8 35.1 5.8 Z M 49.3 10 C 49.3 10 49.3 10 49.3 10 C 48.9 10.5 48.4 11 47.1 11 C 45.7 11 44.6 10.2 44.6 8.8 C 44.6 7.2 45.9 6.7 47.5 6.5 C 48.7 6.3 49.3 6.2 49.3 5.6 C 49.3 5.1 48.8 4.8 48 4.8 C 47.2 4.8 46.7 5.1 46.7 5.8 C 46.7 5.8 45 5.8 45 5.8 C 45 4.5 46 3.4 48.1 3.4 C 50.2 3.4 51.1 4.4 51.1 6.1 C 51.1 6.1 51.1 9.7 51.1 9.7 C 51.1 10.3 51.2 10.6 51.3 10.7 C 51.34 10.72 51.3 10.8 51.3 10.8 C 51.3 10.8 49.5 10.79 49.5 10.8 C 49.4 10.7 49.3 10.3 49.3 10 Z M 49.3 8.3 C 49.3 8.3 49.3 7.2 49.3 7.2 C 49 7.4 48.4 7.5 48 7.6 C 47 7.8 46.5 8.1 46.5 8.7 C 46.5 9.4 46.9 9.6 47.6 9.6 C 48.7 9.6 49.3 9 49.3 8.3 Z M 52.3 3.6 L 54.1 3.6 L 54.1 4.6 C 54.1 4.6 54.16 4.58 54.2 4.6 C 54.6 3.9 55.3 3.4 56.3 3.4 C 57.2 3.4 57.9 3.9 58.2 4.7 C 58.2 4.7 58.3 4.7 58.3 4.7 C 58.8 3.9 59.5 3.4 60.4 3.4 C 61.9 3.4 62.8 4.4 62.8 6 C 62.79 5.96 62.8 10.8 62.8 10.8 L 60.9 10.8 C 60.9 10.8 60.89 6.29 60.9 6.3 C 60.9 5.5 60.5 5.1 59.8 5.1 C 59 5.1 58.5 5.7 58.5 6.6 C 58.49 6.62 58.5 10.8 58.5 10.8 L 56.6 10.8 C 56.6 10.8 56.59 6.29 56.6 6.3 C 56.6 5.5 56.2 5.1 55.5 5.1 C 54.7 5.1 54.2 5.7 54.2 6.6 C 54.19 6.62 54.2 10.8 54.2 10.8 L 52.3 10.8 L 52.3 3.6 Z M 64 3.6 L 65.8 3.6 L 65.8 4.5 C 65.8 4.5 65.84 4.51 65.8 4.5 C 66.3 3.9 67 3.4 68 3.4 C 69.9 3.4 71.1 5 71.1 7.2 C 71.1 9.5 69.8 11 68 11 C 67 11 66.3 10.6 65.9 10 C 65.9 9.98 65.9 10 65.9 10 L 65.9 13.1 L 64 13.1 L 64 3.6 Z M 69.1 7.3 C 69.1 5.9 68.7 5 67.5 5 C 66.3 5 65.8 6 65.8 7.3 C 65.8 8.6 66.4 9.4 67.6 9.4 C 68.5 9.4 69.1 8.6 69.1 7.3 Z M 74 7.7 C 74 7.7 76 7.7 76 7.7 C 76.1 8.9 76.8 9.4 78.3 9.4 C 79.3 9.4 80.2 9 80.2 8.1 C 80.2 7.1 79.3 6.9 77.7 6.6 C 75.9 6.2 74.3 5.7 74.3 3.6 C 74.3 1.6 75.9 0.6 78.1 0.6 C 80.4 0.6 81.8 1.7 82 3.7 C 82 3.7 80.1 3.7 80.1 3.7 C 79.9 2.7 79.2 2.2 78.1 2.2 C 77 2.2 76.3 2.7 76.3 3.4 C 76.3 4.2 77 4.4 78.5 4.8 C 80.6 5.2 82.2 5.7 82.2 7.9 C 82.2 9.9 80.6 11 78.3 11 C 75.6 11 74.1 9.8 74 7.7 Z M 82.8 3.6 L 83.8 3.6 L 83.8 1.4 L 85.7 1.4 L 85.7 3.6 L 86.9 3.6 L 86.9 4.9 L 85.7 4.9 C 85.7 4.9 85.66 8.67 85.7 8.7 C 85.7 9.2 86 9.4 86.4 9.4 C 86.62 9.38 86.9 9.4 86.9 9.4 L 86.9 10.8 C 86.9 10.8 86.5 10.79 85.7 10.8 C 84.8 10.8 83.8 10.4 83.8 9.1 C 83.8 9.07 83.8 4.9 83.8 4.9 L 82.8 4.9 L 82.8 3.6 Z M 87.5 7.2 C 87.5 5.1 89 3.4 91.2 3.4 C 93.4 3.4 95 5.1 95 7.2 C 95 9.4 93.4 11 91.2 11 C 89 11 87.5 9.4 87.5 7.2 Z M 93 7.2 C 93 5.8 92.4 4.9 91.2 4.9 C 90 4.9 89.4 5.8 89.4 7.2 C 89.4 8.6 90 9.5 91.2 9.5 C 92.4 9.5 93 8.6 93 7.2 Z M 95 3.6 L 97 3.6 C 97 3.6 98.13 7.34 98.1 7.3 C 98.34 8.02 98.4 8.5 98.4 8.5 L 98.5 8.5 C 98.5 8.5 98.57 8.02 98.8 7.3 C 98.78 7.34 100 3.6 100 3.6 L 101.9 3.6 L 99.4 10.8 L 97.5 10.8 L 95 3.6 Z M 101.9 7.2 C 101.9 5.1 103.4 3.4 105.5 3.4 C 107.8 3.4 109 5.2 109 7.7 C 109 7.7 103.8 7.7 103.8 7.7 C 104 8.8 104.6 9.5 105.7 9.5 C 106.4 9.5 106.8 9.2 107 8.7 C 107 8.7 108.9 8.7 108.9 8.7 C 108.7 9.9 107.5 11 105.7 11 C 103.3 11 101.9 9.3 101.9 7.2 Z M 103.9 6.4 C 103.9 6.4 107 6.4 107 6.4 C 107 5.5 106.4 4.9 105.5 4.9 C 104.5 4.9 104 5.5 103.9 6.4 Z " stroke="none" fill="#000"/>  </g></svg>