<?xml version="1.0" standalone="no"?><!DOCTYPE svg PUBLIC "-//W3C//DTD SVG 1.1//EN" "http://www.w3.org/Graphics/SVG/1.1/DTD/svg11.dtd"><svg xmlns="http://www.w3.org/2000/svg" version="1.1" width="256px" height="78.6px" viewBox="0 -4 256 78.6" style="top:-4px">  <desc>Water fights are lots of fun, but we re uncomfortable giving our children guns</desc>  <defs/>  <g id="Polygon7632">    <path d="M 0.6 63.7 C 0.6 63.7 3.3 63.7 3.3 63.7 C 3.5 64.4 4.1 64.9 5.4 64.9 C 6.9 64.9 7.6 64.1 7.6 62.7 C 7.64 62.72 7.6 61.6 7.6 61.6 C 7.6 61.6 7.58 61.6 7.6 61.6 C 7 62.3 6.2 62.8 4.9 62.8 C 2.6 62.8 0.4 61 0.4 57.9 C 0.4 54.8 2.2 52.9 4.8 52.9 C 6.1 52.9 7 53.4 7.7 54.2 C 7.66 54.24 7.7 54.2 7.7 54.2 L 7.7 53.2 L 10.3 53.2 C 10.3 53.2 10.32 62.64 10.3 62.6 C 10.3 64.1 9.9 65.1 9.1 65.8 C 8.2 66.6 6.9 66.9 5.4 66.9 C 2.6 66.9 0.9 65.7 0.6 63.7 Z M 7.8 57.8 C 7.8 56.3 7 55.1 5.3 55.1 C 4 55.1 3 56.1 3 57.9 C 3 59.6 4 60.6 5.4 60.6 C 7.1 60.6 7.8 59.4 7.8 57.8 Z M 12.1 53.2 L 14.8 53.2 L 14.8 63.4 L 12.1 63.4 L 12.1 53.2 Z M 12.1 49.1 L 14.8 49.1 L 14.8 51.6 L 12.1 51.6 L 12.1 49.1 Z M 15.7 53.2 L 18.5 53.2 C 18.5 53.2 20.12 58.48 20.1 58.5 C 20.42 59.46 20.6 60.1 20.6 60.1 L 20.6 60.1 C 20.6 60.1 20.76 59.46 21.1 58.5 C 21.06 58.48 22.7 53.2 22.7 53.2 L 25.5 53.2 L 21.9 63.4 L 19.3 63.4 L 15.7 53.2 Z M 26.4 53.2 L 29.1 53.2 L 29.1 63.4 L 26.4 63.4 L 26.4 53.2 Z M 26.4 49.1 L 29.1 49.1 L 29.1 51.6 L 26.4 51.6 L 26.4 49.1 Z M 33.5 54.6 C 33.5 54.6 33.58 54.56 33.6 54.6 C 34.3 53.5 35.2 52.9 36.6 52.9 C 38.7 52.9 40.2 54.5 40.2 56.7 C 40.16 56.72 40.2 63.4 40.2 63.4 L 37.4 63.4 C 37.4 63.4 37.44 57.12 37.4 57.1 C 37.4 56 36.8 55.2 35.7 55.2 C 34.5 55.2 33.6 56.2 33.6 57.6 C 33.58 57.6 33.6 63.4 33.6 63.4 L 30.9 63.4 L 30.9 53.2 L 33.5 53.2 L 33.5 54.6 Z M 41.6 63.7 C 41.6 63.7 44.3 63.7 44.3 63.7 C 44.5 64.4 45.1 64.9 46.3 64.9 C 47.9 64.9 48.6 64.1 48.6 62.7 C 48.6 62.72 48.6 61.6 48.6 61.6 C 48.6 61.6 48.54 61.6 48.5 61.6 C 47.9 62.3 47.2 62.8 45.9 62.8 C 43.6 62.8 41.3 61 41.3 57.9 C 41.3 54.8 43.2 52.9 45.8 52.9 C 47.1 52.9 48 53.4 48.6 54.2 C 48.62 54.24 48.7 54.2 48.7 54.2 L 48.7 53.2 L 51.3 53.2 C 51.3 53.2 51.28 62.64 51.3 62.6 C 51.3 64.1 50.8 65.1 50.1 65.8 C 49.2 66.6 47.9 66.9 46.4 66.9 C 43.6 66.9 41.8 65.7 41.6 63.7 Z M 48.7 57.8 C 48.7 56.3 47.9 55.1 46.3 55.1 C 44.9 55.1 44 56.1 44 57.9 C 44 59.6 44.9 60.6 46.3 60.6 C 48 60.6 48.7 59.4 48.7 57.8 Z M 55.9 58.3 C 55.9 55.2 58.1 52.9 61.3 52.9 C 64.4 52.9 66.6 55.2 66.6 58.3 C 66.6 61.4 64.4 63.7 61.3 63.7 C 58.1 63.7 55.9 61.4 55.9 58.3 Z M 63.9 58.3 C 63.9 56.3 62.9 54.9 61.3 54.9 C 59.6 54.9 58.7 56.3 58.7 58.3 C 58.7 60.3 59.6 61.6 61.3 61.6 C 62.9 61.6 63.9 60.3 63.9 58.3 Z M 74.4 63.4 L 74.4 62.2 C 74.4 62.2 74.3 62.22 74.3 62.2 C 73.6 63.2 72.8 63.7 71.4 63.7 C 69.1 63.7 67.8 62.2 67.8 60 C 67.8 60 67.8 53.2 67.8 53.2 L 70.5 53.2 C 70.5 53.2 70.5 59.54 70.5 59.5 C 70.5 60.7 71 61.4 72.2 61.4 C 73.5 61.4 74.3 60.4 74.3 59.1 C 74.26 59.08 74.3 53.2 74.3 53.2 L 77 53.2 L 77 63.4 L 74.4 63.4 Z M 81.4 54.8 C 81.4 54.8 81.42 54.8 81.4 54.8 C 82 53.6 82.7 53 83.9 53 C 84.2 53 84.4 53.1 84.6 53.1 C 84.58 53.12 84.6 55.5 84.6 55.5 C 84.6 55.5 84.52 55.5 84.5 55.5 C 82.7 55.3 81.5 56.3 81.5 58.4 C 81.46 58.42 81.5 63.4 81.5 63.4 L 78.7 63.4 L 78.7 53.2 L 81.4 53.2 L 81.4 54.8 Z M 88.6 58.3 C 88.6 55.2 90.6 52.9 93.7 52.9 C 96.4 52.9 98 54.4 98.4 56.6 C 98.4 56.6 95.7 56.6 95.7 56.6 C 95.6 55.7 94.9 55.1 93.9 55.1 C 92.2 55.1 91.4 56.3 91.4 58.3 C 91.4 60.2 92.2 61.5 93.8 61.5 C 94.9 61.5 95.7 61 95.9 59.8 C 95.9 59.8 98.5 59.8 98.5 59.8 C 98.3 62 96.6 63.7 93.9 63.7 C 90.6 63.7 88.6 61.4 88.6 58.3 Z M 102.4 54.5 C 102.4 54.5 102.46 54.5 102.5 54.5 C 103.2 53.4 104 52.9 105.4 52.9 C 107.6 52.9 109 54.5 109 56.7 C 108.98 56.72 109 63.4 109 63.4 L 106.3 63.4 C 106.3 63.4 106.26 57.12 106.3 57.1 C 106.3 56 105.6 55.2 104.5 55.2 C 103.3 55.2 102.4 56.2 102.4 57.6 C 102.4 57.6 102.4 63.4 102.4 63.4 L 99.7 63.4 L 99.7 49.1 L 102.4 49.1 L 102.4 54.5 Z M 110.7 53.2 L 113.4 53.2 L 113.4 63.4 L 110.7 63.4 L 110.7 53.2 Z M 110.7 49.1 L 113.4 49.1 L 113.4 51.6 L 110.7 51.6 L 110.7 49.1 Z M 115.2 49.1 L 117.9 49.1 L 117.9 63.4 L 115.2 63.4 L 115.2 49.1 Z M 119.2 58.3 C 119.2 55.1 121 52.9 123.6 52.9 C 125 52.9 125.9 53.5 126.5 54.4 C 126.48 54.4 126.5 54.4 126.5 54.4 L 126.5 49.1 L 129.3 49.1 L 129.3 63.4 L 126.6 63.4 L 126.6 62.1 C 126.6 62.1 126.6 62.08 126.6 62.1 C 126 63.1 125 63.7 123.5 63.7 C 121 63.7 119.2 61.6 119.2 58.3 Z M 126.6 58.4 C 126.6 56.4 126 55.1 124.2 55.1 C 122.7 55.1 122 56.4 122 58.3 C 122 60.3 122.7 61.4 124.1 61.4 C 125.8 61.4 126.6 60.2 126.6 58.4 Z M 133.6 54.8 C 133.6 54.8 133.7 54.8 133.7 54.8 C 134.3 53.6 135 53 136.2 53 C 136.5 53 136.7 53.1 136.9 53.1 C 136.86 53.12 136.9 55.5 136.9 55.5 C 136.9 55.5 136.8 55.5 136.8 55.5 C 135 55.3 133.7 56.3 133.7 58.4 C 133.74 58.42 133.7 63.4 133.7 63.4 L 131 63.4 L 131 53.2 L 133.6 53.2 L 133.6 54.8 Z M 137.2 58.3 C 137.2 55.2 139.3 52.9 142.3 52.9 C 145.6 52.9 147.4 55.4 147.4 59.1 C 147.4 59.1 139.9 59.1 139.9 59.1 C 140.1 60.6 141 61.6 142.5 61.6 C 143.6 61.6 144.2 61.1 144.5 60.4 C 144.5 60.4 147.2 60.4 147.2 60.4 C 146.8 62.2 145.2 63.7 142.6 63.7 C 139.2 63.7 137.2 61.3 137.2 58.3 Z M 140 57.2 C 140 57.2 144.5 57.2 144.5 57.2 C 144.4 55.9 143.6 55 142.3 55 C 140.9 55 140.2 55.8 140 57.2 Z M 151.3 54.6 C 151.3 54.6 151.34 54.56 151.3 54.6 C 152 53.5 153 52.9 154.4 52.9 C 156.5 52.9 157.9 54.5 157.9 56.7 C 157.92 56.72 157.9 63.4 157.9 63.4 L 155.2 63.4 C 155.2 63.4 155.2 57.12 155.2 57.1 C 155.2 56 154.6 55.2 153.4 55.2 C 152.2 55.2 151.3 56.2 151.3 57.6 C 151.34 57.6 151.3 63.4 151.3 63.4 L 148.6 63.4 L 148.6 53.2 L 151.3 53.2 L 151.3 54.6 Z M 162.7 63.7 C 162.7 63.7 165.4 63.7 165.4 63.7 C 165.6 64.4 166.2 64.9 167.4 64.9 C 169 64.9 169.7 64.1 169.7 62.7 C 169.72 62.72 169.7 61.6 169.7 61.6 C 169.7 61.6 169.66 61.6 169.7 61.6 C 169.1 62.3 168.3 62.8 167 62.8 C 164.7 62.8 162.5 61 162.5 57.9 C 162.5 54.8 164.3 52.9 166.9 52.9 C 168.2 52.9 169.1 53.4 169.7 54.2 C 169.74 54.24 169.8 54.2 169.8 54.2 L 169.8 53.2 L 172.4 53.2 C 172.4 53.2 172.4 62.64 172.4 62.6 C 172.4 64.1 171.9 65.1 171.2 65.8 C 170.3 66.6 169 66.9 167.5 66.9 C 164.7 66.9 163 65.7 162.7 63.7 Z M 169.9 57.8 C 169.9 56.3 169.1 55.1 167.4 55.1 C 166 55.1 165.1 56.1 165.1 57.9 C 165.1 59.6 166 60.6 167.4 60.6 C 169.2 60.6 169.9 59.4 169.9 57.8 Z M 180.6 63.4 L 180.6 62.2 C 180.6 62.2 180.58 62.22 180.6 62.2 C 179.9 63.2 179.1 63.7 177.6 63.7 C 175.4 63.7 174.1 62.2 174.1 60 C 174.08 60 174.1 53.2 174.1 53.2 L 176.8 53.2 C 176.8 53.2 176.78 59.54 176.8 59.5 C 176.8 60.7 177.3 61.4 178.5 61.4 C 179.8 61.4 180.5 60.4 180.5 59.1 C 180.54 59.08 180.5 53.2 180.5 53.2 L 183.3 53.2 L 183.3 63.4 L 180.6 63.4 Z M 187.7 54.6 C 187.7 54.6 187.74 54.56 187.7 54.6 C 188.4 53.5 189.4 52.9 190.8 52.9 C 192.9 52.9 194.3 54.5 194.3 56.7 C 194.32 56.72 194.3 63.4 194.3 63.4 L 191.6 63.4 C 191.6 63.4 191.6 57.12 191.6 57.1 C 191.6 56 191 55.2 189.8 55.2 C 188.6 55.2 187.7 56.2 187.7 57.6 C 187.74 57.6 187.7 63.4 187.7 63.4 L 185 63.4 L 185 53.2 L 187.7 53.2 L 187.7 54.6 Z M 195.4 60.1 C 195.4 60.1 197.9 60.1 197.9 60.1 C 198.1 61.3 198.9 61.8 200.1 61.8 C 201.3 61.8 202 61.3 202 60.6 C 202 59.6 200.7 59.5 199.3 59.3 C 197.5 58.9 195.7 58.4 195.7 56.2 C 195.7 53.9 197.5 52.9 199.8 52.9 C 202.5 52.9 204 54.2 204.2 56.3 C 204.2 56.3 201.8 56.3 201.8 56.3 C 201.7 55.2 201 54.8 199.8 54.8 C 198.7 54.8 198 55.2 198 55.9 C 198 56.8 199.4 56.9 200.9 57.2 C 202.6 57.5 204.5 58 204.5 60.4 C 204.5 62.5 202.7 63.7 200.2 63.7 C 197.2 63.7 195.5 62.3 195.4 60.1 Z M 209.1 53.5 C 209.7 53.3 210.5 52.7 210.5 51.7 C 210.48 51.72 209.2 51.7 209.2 51.7 L 209.2 49.1 L 211.9 49.1 C 211.9 49.1 211.86 51.48 211.9 51.5 C 211.9 53.3 210.5 54.3 209.1 54.5 C 209.1 54.5 209.1 53.5 209.1 53.5 Z M 205.2 53.5 C 205.8 53.3 206.5 52.7 206.5 51.7 C 206.52 51.72 205.2 51.7 205.2 51.7 L 205.2 49.1 L 207.9 49.1 C 207.9 49.1 207.9 51.48 207.9 51.5 C 207.9 53.3 206.5 54.3 205.2 54.5 C 205.2 54.5 205.2 53.5 205.2 53.5 Z " stroke="none" fill="#000"/>  </g>  <g id="Polygon7631">    <path d="M 3.5 38.1 C 3.54 38.14 3.5 38.1 3.5 38.1 L 3.5 39.4 L 0.9 39.4 L 0.9 25.1 L 3.6 25.1 L 3.6 30.4 C 3.6 30.4 3.66 30.4 3.7 30.4 C 4.2 29.5 5.1 28.9 6.5 28.9 C 9.1 28.9 10.9 31.1 10.9 34.3 C 10.9 37.6 9.2 39.7 6.6 39.7 C 5.2 39.7 4.1 39.1 3.5 38.1 Z M 8.2 34.3 C 8.2 32.4 7.4 31.1 5.9 31.1 C 4.2 31.1 3.5 32.5 3.5 34.4 C 3.5 36.2 4.5 37.4 6 37.4 C 7.4 37.4 8.2 36.3 8.2 34.3 Z M 18.7 39.4 L 18.7 38.2 C 18.7 38.2 18.62 38.22 18.6 38.2 C 17.9 39.2 17.1 39.7 15.7 39.7 C 13.4 39.7 12.1 38.2 12.1 36 C 12.12 36 12.1 29.2 12.1 29.2 L 14.8 29.2 C 14.8 29.2 14.82 35.54 14.8 35.5 C 14.8 36.7 15.4 37.4 16.5 37.4 C 17.8 37.4 18.6 36.4 18.6 35.1 C 18.58 35.08 18.6 29.2 18.6 29.2 L 21.3 29.2 L 21.3 39.4 L 18.7 39.4 Z M 22.5 29.2 L 23.9 29.2 L 23.9 26 L 26.5 26 L 26.5 29.2 L 28.3 29.2 L 28.3 31 L 26.5 31 C 26.5 31 26.54 36.4 26.5 36.4 C 26.5 37.2 27 37.4 27.6 37.4 C 27.9 37.42 28.4 37.4 28.4 37.4 L 28.4 39.4 C 28.4 39.4 27.74 39.44 26.7 39.4 C 25.3 39.4 23.9 38.9 23.9 37 C 23.88 36.98 23.9 31 23.9 31 L 22.5 31 L 22.5 29.2 Z M 32.3 29.2 L 35 29.2 C 35 29.2 36.2 33.92 36.2 33.9 C 36.42 34.76 36.7 35.8 36.7 35.8 L 36.7 35.8 C 36.7 35.8 36.92 34.74 37.1 33.9 C 37.14 33.9 38.4 29.2 38.4 29.2 L 40.7 29.2 C 40.7 29.2 42.08 33.9 42.1 33.9 C 42.3 34.76 42.6 35.8 42.6 35.8 L 42.6 35.8 C 42.6 35.8 42.84 34.76 43.1 33.9 C 43.06 33.92 44.4 29.2 44.4 29.2 L 47 29.2 L 43.9 39.4 L 41.5 39.4 C 41.5 39.4 40.1 34.38 40.1 34.4 C 39.88 33.56 39.6 32.6 39.6 32.6 L 39.6 32.6 C 39.6 32.6 39.34 33.56 39.1 34.4 C 39.12 34.38 37.7 39.4 37.7 39.4 L 35.3 39.4 L 32.3 29.2 Z M 47.2 34.3 C 47.2 31.2 49.2 28.9 52.2 28.9 C 55.5 28.9 57.3 31.4 57.3 35.1 C 57.3 35.1 49.8 35.1 49.8 35.1 C 50 36.6 50.9 37.6 52.5 37.6 C 53.5 37.6 54.1 37.1 54.4 36.4 C 54.4 36.4 57.1 36.4 57.1 36.4 C 56.7 38.2 55.1 39.7 52.5 39.7 C 49.1 39.7 47.2 37.3 47.2 34.3 Z M 49.9 33.2 C 49.9 33.2 54.4 33.2 54.4 33.2 C 54.4 31.9 53.5 31 52.3 31 C 50.8 31 50.1 31.8 49.9 33.2 Z M 57.9 29.5 C 58.5 29.3 59.3 28.7 59.3 27.7 C 59.26 27.72 57.9 27.7 57.9 27.7 L 57.9 25.1 L 60.6 25.1 C 60.6 25.1 60.64 27.48 60.6 27.5 C 60.6 29.3 59.2 30.3 57.9 30.5 C 57.9 30.5 57.9 29.5 57.9 29.5 Z M 64.7 30.8 C 64.7 30.8 64.74 30.8 64.7 30.8 C 65.4 29.6 66.1 29 67.3 29 C 67.6 29 67.7 29.1 67.9 29.1 C 67.9 29.12 67.9 31.5 67.9 31.5 C 67.9 31.5 67.84 31.5 67.8 31.5 C 66.1 31.3 64.8 32.3 64.8 34.4 C 64.78 34.42 64.8 39.4 64.8 39.4 L 62.1 39.4 L 62.1 29.2 L 64.7 29.2 L 64.7 30.8 Z M 68.3 34.3 C 68.3 31.2 70.3 28.9 73.3 28.9 C 76.6 28.9 78.4 31.4 78.4 35.1 C 78.4 35.1 71 35.1 71 35.1 C 71.2 36.6 72 37.6 73.6 37.6 C 74.6 37.6 75.3 37.1 75.6 36.4 C 75.6 36.4 78.2 36.4 78.2 36.4 C 77.9 38.2 76.2 39.7 73.6 39.7 C 70.2 39.7 68.3 37.3 68.3 34.3 Z M 71 33.2 C 71 33.2 75.6 33.2 75.6 33.2 C 75.5 31.9 74.6 31 73.4 31 C 71.9 31 71.2 31.8 71 33.2 Z M 89.5 39.4 L 89.5 38.2 C 89.5 38.2 89.44 38.22 89.4 38.2 C 88.7 39.2 87.9 39.7 86.5 39.7 C 84.2 39.7 82.9 38.2 82.9 36 C 82.94 36 82.9 29.2 82.9 29.2 L 85.6 29.2 C 85.6 29.2 85.64 35.54 85.6 35.5 C 85.6 36.7 86.2 37.4 87.3 37.4 C 88.6 37.4 89.4 36.4 89.4 35.1 C 89.4 35.08 89.4 29.2 89.4 29.2 L 92.1 29.2 L 92.1 39.4 L 89.5 39.4 Z M 96.5 30.6 C 96.5 30.6 96.6 30.56 96.6 30.6 C 97.3 29.5 98.2 28.9 99.6 28.9 C 101.8 28.9 103.2 30.5 103.2 32.7 C 103.18 32.72 103.2 39.4 103.2 39.4 L 100.5 39.4 C 100.5 39.4 100.46 33.12 100.5 33.1 C 100.5 32 99.8 31.2 98.7 31.2 C 97.5 31.2 96.6 32.2 96.6 33.6 C 96.6 33.6 96.6 39.4 96.6 39.4 L 93.9 39.4 L 93.9 29.2 L 96.5 29.2 L 96.5 30.6 Z M 104.4 34.3 C 104.4 31.2 106.4 28.9 109.5 28.9 C 112.1 28.9 113.8 30.4 114.1 32.6 C 114.1 32.6 111.5 32.6 111.5 32.6 C 111.3 31.7 110.6 31.1 109.6 31.1 C 108 31.1 107.1 32.3 107.1 34.3 C 107.1 36.2 107.9 37.5 109.6 37.5 C 110.7 37.5 111.4 37 111.6 35.8 C 111.6 35.8 114.2 35.8 114.2 35.8 C 114.1 38 112.4 39.7 109.6 39.7 C 106.4 39.7 104.4 37.4 104.4 34.3 Z M 114.9 34.3 C 114.9 31.2 117.1 28.9 120.3 28.9 C 123.5 28.9 125.6 31.2 125.6 34.3 C 125.6 37.4 123.5 39.7 120.3 39.7 C 117.1 39.7 114.9 37.4 114.9 34.3 Z M 122.9 34.3 C 122.9 32.3 121.9 30.9 120.3 30.9 C 118.6 30.9 117.7 32.3 117.7 34.3 C 117.7 36.3 118.6 37.6 120.3 37.6 C 121.9 37.6 122.9 36.3 122.9 34.3 Z M 126.9 29.2 L 129.5 29.2 L 129.5 30.5 C 129.5 30.5 129.58 30.54 129.6 30.5 C 130.1 29.6 131.1 28.9 132.6 28.9 C 133.9 28.9 134.9 29.6 135.4 30.7 C 135.4 30.7 135.4 30.7 135.4 30.7 C 136.1 29.6 137.2 28.9 138.5 28.9 C 140.7 28.9 141.9 30.3 141.9 32.5 C 141.9 32.52 141.9 39.4 141.9 39.4 L 139.2 39.4 C 139.2 39.4 139.18 32.98 139.2 33 C 139.2 31.8 138.6 31.2 137.6 31.2 C 136.5 31.2 135.8 32.1 135.8 33.5 C 135.76 33.46 135.8 39.4 135.8 39.4 L 133 39.4 C 133 39.4 133.04 32.98 133 33 C 133 31.8 132.5 31.2 131.5 31.2 C 130.4 31.2 129.6 32.1 129.6 33.5 C 129.62 33.46 129.6 39.4 129.6 39.4 L 126.9 39.4 L 126.9 29.2 Z M 142.9 29.2 L 144.3 29.2 C 144.3 29.2 144.28 28.24 144.3 28.2 C 144.3 25.7 146.2 24.9 148.8 25.1 C 148.8 25.1 148.8 27.2 148.8 27.2 C 147.6 27.2 147 27.3 147 28.4 C 147 28.4 147 29.2 147 29.2 L 148.8 29.2 L 148.8 31 L 147 31 L 147 39.4 L 144.3 39.4 L 144.3 31 L 142.9 31 L 142.9 29.2 Z M 149.3 34.3 C 149.3 31.2 151.5 28.9 154.6 28.9 C 157.8 28.9 160 31.2 160 34.3 C 160 37.4 157.8 39.7 154.6 39.7 C 151.5 39.7 149.3 37.4 149.3 34.3 Z M 157.2 34.3 C 157.2 32.3 156.3 30.9 154.6 30.9 C 153 30.9 152 32.3 152 34.3 C 152 36.3 153 37.6 154.6 37.6 C 156.3 37.6 157.2 36.3 157.2 34.3 Z M 163.9 30.8 C 163.9 30.8 163.94 30.8 163.9 30.8 C 164.6 29.6 165.3 29 166.5 29 C 166.8 29 166.9 29.1 167.1 29.1 C 167.1 29.12 167.1 31.5 167.1 31.5 C 167.1 31.5 167.04 31.5 167 31.5 C 165.3 31.3 164 32.3 164 34.4 C 163.98 34.42 164 39.4 164 39.4 L 161.3 39.4 L 161.3 29.2 L 163.9 29.2 L 163.9 30.8 Z M 167.8 29.2 L 169.2 29.2 L 169.2 26 L 171.9 26 L 171.9 29.2 L 173.6 29.2 L 173.6 31 L 171.9 31 C 171.9 31 171.86 36.4 171.9 36.4 C 171.9 37.2 172.3 37.4 172.9 37.4 C 173.22 37.42 173.7 37.4 173.7 37.4 L 173.7 39.4 C 173.7 39.4 173.06 39.44 172 39.4 C 170.7 39.4 169.2 38.9 169.2 37 C 169.2 36.98 169.2 31 169.2 31 L 167.8 31 L 167.8 29.2 Z M 181.3 38.3 C 181.3 38.3 181.2 38.3 181.2 38.3 C 180.7 39.1 180 39.7 178.2 39.7 C 176.1 39.7 174.6 38.6 174.6 36.5 C 174.6 34.3 176.5 33.5 178.7 33.2 C 180.4 33 181.2 32.8 181.2 32.1 C 181.2 31.3 180.6 30.8 179.5 30.8 C 178.2 30.8 177.6 31.3 177.5 32.3 C 177.5 32.3 175.1 32.3 175.1 32.3 C 175.2 30.5 176.5 28.9 179.5 28.9 C 182.6 28.9 183.8 30.3 183.8 32.7 C 183.8 32.7 183.8 37.9 183.8 37.9 C 183.8 38.7 184 39.1 184.2 39.3 C 184.2 39.32 184.2 39.4 184.2 39.4 C 184.2 39.4 181.58 39.42 181.6 39.4 C 181.4 39.2 181.3 38.7 181.3 38.3 Z M 181.3 35.8 C 181.3 35.8 181.3 34.3 181.3 34.3 C 180.8 34.5 180.1 34.7 179.4 34.9 C 178 35.2 177.3 35.5 177.3 36.5 C 177.3 37.4 177.9 37.8 178.9 37.8 C 180.4 37.8 181.3 36.8 181.3 35.8 Z M 188.2 38.1 C 188.22 38.14 188.2 38.1 188.2 38.1 L 188.2 39.4 L 185.6 39.4 L 185.6 25.1 L 188.3 25.1 L 188.3 30.4 C 188.3 30.4 188.34 30.4 188.3 30.4 C 188.9 29.5 189.8 28.9 191.2 28.9 C 193.8 28.9 195.6 31.1 195.6 34.3 C 195.6 37.6 193.9 39.7 191.3 39.7 C 189.8 39.7 188.8 39.1 188.2 38.1 Z M 192.9 34.3 C 192.9 32.4 192.1 31.1 190.6 31.1 C 188.9 31.1 188.2 32.5 188.2 34.4 C 188.2 36.2 189.2 37.4 190.7 37.4 C 192.1 37.4 192.9 36.3 192.9 34.3 Z M 196.9 25.1 L 199.6 25.1 L 199.6 39.4 L 196.9 39.4 L 196.9 25.1 Z M 200.9 34.3 C 200.9 31.2 203 28.9 206 28.9 C 209.3 28.9 211.1 31.4 211.1 35.1 C 211.1 35.1 203.6 35.1 203.6 35.1 C 203.8 36.6 204.7 37.6 206.2 37.6 C 207.3 37.6 207.9 37.1 208.2 36.4 C 208.2 36.4 210.9 36.4 210.9 36.4 C 210.5 38.2 208.9 39.7 206.3 39.7 C 202.9 39.7 200.9 37.3 200.9 34.3 Z M 203.7 33.2 C 203.7 33.2 208.2 33.2 208.2 33.2 C 208.1 31.9 207.3 31 206 31 C 204.6 31 203.9 31.8 203.7 33.2 Z " stroke="none" fill="#000"/>  </g>  <g id="Polygon7630">    <path d="M 4.6 4.1 C 4.6 2.2 6 1.3 7.3 1.1 C 7.3 1.1 7.3 2 7.3 2 C 6.7 2.2 6 2.8 6 3.8 C 5.98 3.82 7.3 3.8 7.3 3.8 L 7.3 6.4 L 4.6 6.4 C 4.6 6.4 4.6 4.06 4.6 4.1 Z M 0.6 4.1 C 0.6 2.2 2 1.3 3.4 1.1 C 3.4 1.1 3.4 2 3.4 2 C 2.8 2.2 2 2.8 2 3.8 C 2.02 3.82 3.3 3.8 3.3 3.8 L 3.3 6.4 L 0.6 6.4 C 0.6 6.4 0.64 4.06 0.6 4.1 Z M 8.3 1.1 L 11.2 1.1 C 11.2 1.1 13.1 8.22 13.1 8.2 C 13.38 9.44 13.7 11.3 13.7 11.3 L 13.8 11.3 C 13.8 11.3 14.12 9.56 14.4 8.3 C 14.42 8.3 16 1.1 16 1.1 L 18.8 1.1 C 18.8 1.1 20.34 8.28 20.3 8.3 C 20.64 9.54 21 11.3 21 11.3 L 21 11.3 C 21 11.3 21.46 9.44 21.7 8.2 C 21.74 8.2 23.5 1.1 23.5 1.1 L 26.4 1.1 L 22.3 15.4 L 19.6 15.4 C 19.6 15.4 17.88 7.76 17.9 7.8 C 17.64 6.72 17.4 5.2 17.4 5.2 L 17.3 5.2 C 17.3 5.2 17.12 6.72 16.9 7.8 C 16.88 7.76 15.1 15.4 15.1 15.4 L 12.4 15.4 L 8.3 1.1 Z M 32.4 14.3 C 32.4 14.3 32.4 14.3 32.4 14.3 C 31.9 15.1 31.1 15.7 29.4 15.7 C 27.3 15.7 25.8 14.6 25.8 12.5 C 25.8 10.3 27.6 9.5 29.9 9.2 C 31.6 9 32.4 8.8 32.4 8.1 C 32.4 7.3 31.8 6.8 30.7 6.8 C 29.4 6.8 28.8 7.3 28.7 8.3 C 28.7 8.3 26.3 8.3 26.3 8.3 C 26.3 6.5 27.7 4.9 30.7 4.9 C 33.8 4.9 35 6.3 35 8.7 C 35 8.7 35 13.9 35 13.9 C 35 14.7 35.1 15.1 35.4 15.3 C 35.36 15.32 35.4 15.4 35.4 15.4 C 35.4 15.4 32.74 15.42 32.7 15.4 C 32.6 15.2 32.5 14.7 32.4 14.3 Z M 32.4 11.8 C 32.4 11.8 32.4 10.3 32.4 10.3 C 32 10.5 31.2 10.7 30.5 10.9 C 29.1 11.2 28.4 11.5 28.4 12.5 C 28.4 13.4 29.1 13.8 30 13.8 C 31.6 13.8 32.4 12.8 32.4 11.8 Z M 35.9 5.2 L 37.3 5.2 L 37.3 2 L 40 2 L 40 5.2 L 41.8 5.2 L 41.8 7 L 40 7 C 40 7 40 12.4 40 12.4 C 40 13.2 40.4 13.4 41 13.4 C 41.36 13.42 41.8 13.4 41.8 13.4 L 41.8 15.4 C 41.8 15.4 41.2 15.44 40.1 15.4 C 38.8 15.4 37.3 14.9 37.3 13 C 37.34 12.98 37.3 7 37.3 7 L 35.9 7 L 35.9 5.2 Z M 42.6 10.3 C 42.6 7.2 44.6 4.9 47.6 4.9 C 50.9 4.9 52.7 7.4 52.7 11.1 C 52.7 11.1 45.2 11.1 45.2 11.1 C 45.4 12.6 46.3 13.6 47.9 13.6 C 48.9 13.6 49.5 13.1 49.8 12.4 C 49.8 12.4 52.5 12.4 52.5 12.4 C 52.1 14.2 50.5 15.7 47.9 15.7 C 44.5 15.7 42.6 13.3 42.6 10.3 Z M 45.3 9.2 C 45.3 9.2 49.8 9.2 49.8 9.2 C 49.8 7.9 48.9 7 47.7 7 C 46.2 7 45.5 7.8 45.3 9.2 Z M 56.6 6.8 C 56.6 6.8 56.62 6.8 56.6 6.8 C 57.2 5.6 57.9 5 59.1 5 C 59.4 5 59.6 5.1 59.8 5.1 C 59.78 5.12 59.8 7.5 59.8 7.5 C 59.8 7.5 59.72 7.5 59.7 7.5 C 57.9 7.3 56.7 8.3 56.7 10.4 C 56.66 10.42 56.7 15.4 56.7 15.4 L 53.9 15.4 L 53.9 5.2 L 56.6 5.2 L 56.6 6.8 Z M 63.7 5.2 L 65.1 5.2 C 65.1 5.2 65.06 4.24 65.1 4.2 C 65.1 1.7 67 0.9 69.6 1.1 C 69.6 1.1 69.6 3.2 69.6 3.2 C 68.3 3.2 67.8 3.3 67.8 4.4 C 67.78 4.4 67.8 5.2 67.8 5.2 L 69.6 5.2 L 69.6 7 L 67.8 7 L 67.8 15.4 L 65.1 15.4 L 65.1 7 L 63.7 7 L 63.7 5.2 Z M 70.8 5.2 L 73.6 5.2 L 73.6 15.4 L 70.8 15.4 L 70.8 5.2 Z M 70.8 1.1 L 73.6 1.1 L 73.6 3.6 L 70.8 3.6 L 70.8 1.1 Z M 75 15.7 C 75 15.7 77.7 15.7 77.7 15.7 C 78 16.4 78.5 16.9 79.8 16.9 C 81.3 16.9 82.1 16.1 82.1 14.7 C 82.08 14.72 82.1 13.6 82.1 13.6 C 82.1 13.6 82.02 13.6 82 13.6 C 81.4 14.3 80.6 14.8 79.3 14.8 C 77.1 14.8 74.8 13 74.8 9.9 C 74.8 6.8 76.7 4.9 79.3 4.9 C 80.5 4.9 81.5 5.4 82.1 6.2 C 82.1 6.24 82.1 6.2 82.1 6.2 L 82.1 5.2 L 84.8 5.2 C 84.8 5.2 84.76 14.64 84.8 14.6 C 84.8 16.1 84.3 17.1 83.5 17.8 C 82.7 18.6 81.4 18.9 79.8 18.9 C 77 18.9 75.3 17.7 75 15.7 Z M 82.2 9.8 C 82.2 8.3 81.4 7.1 79.8 7.1 C 78.4 7.1 77.5 8.1 77.5 9.9 C 77.5 11.6 78.4 12.6 79.8 12.6 C 81.5 12.6 82.2 11.4 82.2 9.8 Z M 89.2 6.5 C 89.2 6.5 89.3 6.5 89.3 6.5 C 90 5.4 90.9 4.9 92.3 4.9 C 94.4 4.9 95.8 6.5 95.8 8.7 C 95.82 8.72 95.8 15.4 95.8 15.4 L 93.1 15.4 C 93.1 15.4 93.1 9.12 93.1 9.1 C 93.1 8 92.5 7.2 91.3 7.2 C 90.1 7.2 89.2 8.2 89.2 9.6 C 89.24 9.6 89.2 15.4 89.2 15.4 L 86.5 15.4 L 86.5 1.1 L 89.2 1.1 L 89.2 6.5 Z M 96.7 5.2 L 98.1 5.2 L 98.1 2 L 100.8 2 L 100.8 5.2 L 102.5 5.2 L 102.5 7 L 100.8 7 C 100.8 7 100.78 12.4 100.8 12.4 C 100.8 13.2 101.2 13.4 101.8 13.4 C 102.14 13.42 102.6 13.4 102.6 13.4 L 102.6 15.4 C 102.6 15.4 101.98 15.44 100.9 15.4 C 99.6 15.4 98.1 14.9 98.1 13 C 98.12 12.98 98.1 7 98.1 7 L 96.7 7 L 96.7 5.2 Z M 103.4 12.1 C 103.4 12.1 105.9 12.1 105.9 12.1 C 106.1 13.3 106.9 13.8 108.2 13.8 C 109.4 13.8 110 13.3 110 12.6 C 110 11.6 108.7 11.5 107.3 11.3 C 105.5 10.9 103.7 10.4 103.7 8.2 C 103.7 5.9 105.5 4.9 107.9 4.9 C 110.6 4.9 112.1 6.2 112.3 8.3 C 112.3 8.3 109.8 8.3 109.8 8.3 C 109.7 7.2 109 6.8 107.8 6.8 C 106.8 6.8 106.1 7.2 106.1 7.9 C 106.1 8.8 107.4 8.9 108.9 9.2 C 110.6 9.5 112.5 10 112.5 12.4 C 112.5 14.5 110.8 15.7 108.2 15.7 C 105.2 15.7 103.6 14.3 103.4 12.1 Z M 123.2 14.3 C 123.2 14.3 123.2 14.3 123.2 14.3 C 122.7 15.1 121.9 15.7 120.2 15.7 C 118.1 15.7 116.6 14.6 116.6 12.5 C 116.6 10.3 118.4 9.5 120.7 9.2 C 122.4 9 123.2 8.8 123.2 8.1 C 123.2 7.3 122.6 6.8 121.5 6.8 C 120.2 6.8 119.6 7.3 119.5 8.3 C 119.5 8.3 117.1 8.3 117.1 8.3 C 117.2 6.5 118.5 4.9 121.5 4.9 C 124.6 4.9 125.8 6.3 125.8 8.7 C 125.8 8.7 125.8 13.9 125.8 13.9 C 125.8 14.7 125.9 15.1 126.2 15.3 C 126.18 15.32 126.2 15.4 126.2 15.4 C 126.2 15.4 123.56 15.42 123.6 15.4 C 123.4 15.2 123.3 14.7 123.2 14.3 Z M 123.3 11.8 C 123.3 11.8 123.3 10.3 123.3 10.3 C 122.8 10.5 122 10.7 121.4 10.9 C 119.9 11.2 119.2 11.5 119.2 12.5 C 119.2 13.4 119.9 13.8 120.8 13.8 C 122.4 13.8 123.3 12.8 123.3 11.8 Z M 130.2 6.8 C 130.2 6.8 130.22 6.8 130.2 6.8 C 130.8 5.6 131.5 5 132.7 5 C 133 5 133.2 5.1 133.4 5.1 C 133.38 5.12 133.4 7.5 133.4 7.5 C 133.4 7.5 133.32 7.5 133.3 7.5 C 131.5 7.3 130.3 8.3 130.3 10.4 C 130.26 10.42 130.3 15.4 130.3 15.4 L 127.5 15.4 L 127.5 5.2 L 130.2 5.2 L 130.2 6.8 Z M 133.8 10.3 C 133.8 7.2 135.8 4.9 138.8 4.9 C 142.1 4.9 143.9 7.4 143.9 11.1 C 143.9 11.1 136.4 11.1 136.4 11.1 C 136.6 12.6 137.5 13.6 139.1 13.6 C 140.1 13.6 140.7 13.1 141 12.4 C 141 12.4 143.7 12.4 143.7 12.4 C 143.3 14.2 141.7 15.7 139.1 15.7 C 135.7 15.7 133.8 13.3 133.8 10.3 Z M 136.5 9.2 C 136.5 9.2 141 9.2 141 9.2 C 141 7.9 140.1 7 138.9 7 C 137.4 7 136.7 7.8 136.5 9.2 Z M 148.5 1.1 L 151.3 1.1 L 151.3 15.4 L 148.5 15.4 L 148.5 1.1 Z M 152.6 10.3 C 152.6 7.2 154.7 4.9 157.9 4.9 C 161.1 4.9 163.3 7.2 163.3 10.3 C 163.3 13.4 161.1 15.7 157.9 15.7 C 154.7 15.7 152.6 13.4 152.6 10.3 Z M 160.5 10.3 C 160.5 8.3 159.6 6.9 157.9 6.9 C 156.2 6.9 155.3 8.3 155.3 10.3 C 155.3 12.3 156.2 13.6 157.9 13.6 C 159.6 13.6 160.5 12.3 160.5 10.3 Z M 163.7 5.2 L 165.2 5.2 L 165.2 2 L 167.8 2 L 167.8 5.2 L 169.6 5.2 L 169.6 7 L 167.8 7 C 167.8 7 167.82 12.4 167.8 12.4 C 167.8 13.2 168.2 13.4 168.8 13.4 C 169.18 13.42 169.6 13.4 169.6 13.4 L 169.6 15.4 C 169.6 15.4 169.02 15.44 167.9 15.4 C 166.6 15.4 165.2 14.9 165.2 13 C 165.16 12.98 165.2 7 165.2 7 L 163.7 7 L 163.7 5.2 Z M 170.4 12.1 C 170.4 12.1 173 12.1 173 12.1 C 173.1 13.3 174 13.8 175.2 13.8 C 176.4 13.8 177.1 13.3 177.1 12.6 C 177.1 11.6 175.8 11.5 174.4 11.3 C 172.5 10.9 170.7 10.4 170.7 8.2 C 170.7 5.9 172.6 4.9 174.9 4.9 C 177.6 4.9 179.1 6.2 179.3 8.3 C 179.3 8.3 176.9 8.3 176.9 8.3 C 176.7 7.2 176 6.8 174.9 6.8 C 173.8 6.8 173.1 7.2 173.1 7.9 C 173.1 8.8 174.5 8.9 175.9 9.2 C 177.7 9.5 179.6 10 179.6 12.4 C 179.6 14.5 177.8 15.7 175.2 15.7 C 172.3 15.7 170.6 14.3 170.4 12.1 Z M 183.6 10.3 C 183.6 7.2 185.8 4.9 189 4.9 C 192.2 4.9 194.4 7.2 194.4 10.3 C 194.4 13.4 192.2 15.7 189 15.7 C 185.8 15.7 183.6 13.4 183.6 10.3 Z M 191.6 10.3 C 191.6 8.3 190.7 6.9 189 6.9 C 187.3 6.9 186.4 8.3 186.4 10.3 C 186.4 12.3 187.3 13.6 189 13.6 C 190.7 13.6 191.6 12.3 191.6 10.3 Z M 194.8 5.2 L 196.2 5.2 C 196.2 5.2 196.22 4.24 196.2 4.2 C 196.2 1.7 198.2 0.9 200.8 1.1 C 200.8 1.1 200.8 3.2 200.8 3.2 C 199.5 3.2 198.9 3.3 198.9 4.4 C 198.94 4.4 198.9 5.2 198.9 5.2 L 200.8 5.2 L 200.8 7 L 198.9 7 L 198.9 15.4 L 196.2 15.4 L 196.2 7 L 194.8 7 L 194.8 5.2 Z M 204.8 5.2 L 206.2 5.2 C 206.2 5.2 206.18 4.24 206.2 4.2 C 206.2 1.7 208.1 0.9 210.7 1.1 C 210.7 1.1 210.7 3.2 210.7 3.2 C 209.5 3.2 208.9 3.3 208.9 4.4 C 208.9 4.4 208.9 5.2 208.9 5.2 L 210.7 5.2 L 210.7 7 L 208.9 7 L 208.9 15.4 L 206.2 15.4 L 206.2 7 L 204.8 7 L 204.8 5.2 Z M 218.5 15.4 L 218.5 14.2 C 218.5 14.2 218.4 14.22 218.4 14.2 C 217.7 15.2 216.9 15.7 215.5 15.7 C 213.2 15.7 211.9 14.2 211.9 12 C 211.9 12 211.9 5.2 211.9 5.2 L 214.6 5.2 C 214.6 5.2 214.6 11.54 214.6 11.5 C 214.6 12.7 215.1 13.4 216.3 13.4 C 217.6 13.4 218.4 12.4 218.4 11.1 C 218.36 11.08 218.4 5.2 218.4 5.2 L 221.1 5.2 L 221.1 15.4 L 218.5 15.4 Z M 225.5 6.6 C 225.5 6.6 225.56 6.56 225.6 6.6 C 226.3 5.5 227.2 4.9 228.6 4.9 C 230.7 4.9 232.1 6.5 232.1 8.7 C 232.14 8.72 232.1 15.4 232.1 15.4 L 229.4 15.4 C 229.4 15.4 229.42 9.12 229.4 9.1 C 229.4 8 228.8 7.2 227.6 7.2 C 226.4 7.2 225.6 8.2 225.6 9.6 C 225.56 9.6 225.6 15.4 225.6 15.4 L 222.8 15.4 L 222.8 5.2 L 225.5 5.2 L 225.5 6.6 Z M 233.7 17.8 C 234.5 17.4 235.1 16.7 235.1 15.4 C 235.12 15.42 233.7 15.4 233.7 15.4 L 233.7 12.5 L 236.6 12.5 C 236.6 12.5 236.58 15.26 236.6 15.3 C 236.6 17.3 235.2 18.5 233.7 18.7 C 233.7 18.7 233.7 17.8 233.7 17.8 Z " stroke="none" fill="#000"/>  </g></svg>