<?xml version="1.0" standalone="no"?><!DOCTYPE svg PUBLIC "-//W3C//DTD SVG 1.1//EN" "http://www.w3.org/Graphics/SVG/1.1/DTD/svg11.dtd"><svg xmlns="http://www.w3.org/2000/svg" version="1.1" width="156px" height="82.7px" viewBox="0 -4 156 82.7" style="top:-4px">  <desc>45% of survey respondents feel uncomfortable with gun-like toys</desc>  <defs/>  <g id="Polygon7580">    <path d="M 0.4 70.2 C 0.4 70.2 3 70.2 3 70.2 C 3.1 70.6 3.5 71 4.4 71 C 5.5 71 6 70.4 6 69.4 C 5.97 69.42 6 68.6 6 68.6 C 6 68.6 5.9 68.61 5.9 68.6 C 5.4 69.2 4.8 69.6 3.8 69.6 C 2 69.6 0.3 68.2 0.3 65.7 C 0.3 63.3 1.7 61.6 3.7 61.6 C 4.8 61.6 5.5 62 6 62.7 C 6 62.69 6 62.7 6 62.7 L 6 61.8 L 8.5 61.8 C 8.5 61.8 8.53 69.2 8.5 69.2 C 8.5 70.4 8.1 71.3 7.4 71.9 C 6.7 72.6 5.6 72.8 4.4 72.8 C 2.2 72.8 0.7 71.9 0.4 70.2 Z M 6.1 65.6 C 6.1 64.5 5.5 63.5 4.4 63.5 C 3.4 63.5 2.8 64.3 2.8 65.6 C 2.8 66.8 3.4 67.6 4.4 67.6 C 5.6 67.6 6.1 66.7 6.1 65.6 Z M 9.7 67.2 C 9.71 67.18 9.7 61.8 9.7 61.8 L 12.3 61.8 C 12.3 61.8 12.3 66.64 12.3 66.6 C 12.3 67.5 12.7 68 13.5 68 C 14.4 68 15 67.4 15 66.4 C 14.98 66.38 15 61.8 15 61.8 L 17.6 61.8 L 17.6 70 L 15.1 70 L 15.1 69 C 15.1 69 15.04 68.99 15 69 C 14.4 69.8 13.7 70.2 12.6 70.2 C 10.7 70.2 9.7 69 9.7 67.2 Z M 18.8 61.8 L 21.3 61.8 L 21.3 62.9 C 21.3 62.9 21.39 62.93 21.4 62.9 C 22 62 22.8 61.6 23.9 61.6 C 25.7 61.6 26.8 62.8 26.8 64.7 C 26.77 64.67 26.8 70 26.8 70 L 24.2 70 C 24.2 70 24.16 65.2 24.2 65.2 C 24.2 64.3 23.7 63.7 22.9 63.7 C 22 63.7 21.4 64.5 21.4 65.5 C 21.44 65.47 21.4 70 21.4 70 L 18.8 70 L 18.8 61.8 Z M 27.8 64.9 L 32.2 64.9 L 32.2 67.1 L 27.8 67.1 L 27.8 64.9 Z M 33.3 58.6 L 36 58.6 L 36 70 L 33.3 70 L 33.3 58.6 Z M 37.2 61.8 L 39.8 61.8 L 39.8 70 L 37.2 70 L 37.2 61.8 Z M 37.2 58.6 L 39.8 58.6 L 39.8 60.7 L 37.2 60.7 L 37.2 58.6 Z M 41.1 58.6 L 43.7 58.6 L 43.7 64.6 L 46.1 61.8 L 49.1 61.8 L 46.2 64.9 L 49.4 70 L 46.4 70 L 44.4 66.7 L 43.7 67.5 L 43.7 70 L 41.1 70 L 41.1 58.6 Z M 49 65.9 C 49 63.4 50.8 61.6 53.2 61.6 C 54.4 61.6 55.3 62 56 62.6 C 57 63.5 57.5 64.9 57.5 66.6 C 57.5 66.6 51.6 66.6 51.6 66.6 C 51.8 67.7 52.4 68.4 53.4 68.4 C 54.1 68.4 54.6 68.1 54.8 67.6 C 54.8 67.6 57.3 67.6 57.3 67.6 C 57.2 68.3 56.7 69 56 69.5 C 55.3 70 54.4 70.2 53.4 70.2 C 50.7 70.2 49 68.4 49 65.9 Z M 54.8 65 C 54.8 64 54.1 63.4 53.3 63.4 C 52.3 63.4 51.8 64 51.6 65 C 51.6 65 54.8 65 54.8 65 Z M 61.5 67.8 C 61.49 67.84 61.5 63.4 61.5 63.4 L 60.4 63.4 L 60.4 61.8 L 61.5 61.8 L 61.5 59.2 L 64 59.2 L 64 61.8 L 65.5 61.8 L 65.5 63.4 L 64 63.4 C 64 63.4 64.03 67.28 64 67.3 C 64 67.9 64.4 68.1 64.9 68.1 C 65.2 68.1 65.4 68.1 65.5 68.1 C 65.5 68.1 65.5 70 65.5 70 C 65.3 70 64.8 70.1 64.1 70.1 C 62.6 70.1 61.5 69.6 61.5 67.8 Z M 72.1 65.9 C 72.1 64.4 71.5 63.4 70.4 63.4 C 69.2 63.4 68.7 64.4 68.7 65.9 C 68.7 67.4 69.2 68.4 70.4 68.4 C 71.5 68.4 72.1 67.4 72.1 65.9 Z M 66 65.9 C 66 63.5 67.8 61.6 70.4 61.6 C 73 61.6 74.8 63.5 74.8 65.9 C 74.8 68.4 73 70.3 70.4 70.3 C 67.8 70.3 66 68.4 66 65.9 Z M 75.6 70.7 C 75.6 70.7 76.5 70.67 76.5 70.7 C 77.3 70.7 77.6 70.4 77.6 69.8 C 77.6 69.5 77.4 69 77.1 68.1 C 77.07 68.11 74.7 61.8 74.7 61.8 L 77.4 61.8 C 77.4 61.8 78.51 65.3 78.5 65.3 C 78.77 66.1 79 67.2 79 67.2 L 79.1 67.2 C 79.1 67.2 79.28 66.1 79.5 65.3 C 79.54 65.3 80.6 61.8 80.6 61.8 L 83.2 61.8 C 83.2 61.8 80.38 70.11 80.4 70.1 C 79.7 72 78.9 72.7 77.3 72.7 C 77.3 72.7 75.6 72.7 75.6 72.7 L 75.6 70.7 Z M 83.2 67.3 C 83.2 67.3 85.7 67.3 85.7 67.3 C 85.8 68.2 86.3 68.6 87.2 68.6 C 88 68.6 88.5 68.3 88.5 67.7 C 88.5 67 87.5 66.9 86.4 66.7 C 85 66.5 83.4 66.1 83.4 64.2 C 83.4 62.5 85 61.6 87 61.6 C 89.3 61.6 90.5 62.6 90.7 64.2 C 90.7 64.2 88.3 64.2 88.3 64.2 C 88.2 63.5 87.7 63.2 87 63.2 C 86.3 63.2 85.8 63.5 85.8 64 C 85.8 64.6 86.8 64.6 87.8 64.8 C 89.2 65.1 90.9 65.4 90.9 67.5 C 90.9 69.3 89.3 70.3 87.2 70.3 C 84.8 70.3 83.3 69.2 83.2 67.3 Z " stroke="none" fill="#000"/>  </g>  <g id="Polygon7579">    <path d="M 0.6 48 C 0.56 47.98 0.6 42.6 0.6 42.6 L 3.2 42.6 C 3.2 42.6 3.15 47.44 3.2 47.4 C 3.2 48.3 3.6 48.8 4.4 48.8 C 5.3 48.8 5.8 48.2 5.8 47.2 C 5.82 47.18 5.8 42.6 5.8 42.6 L 8.4 42.6 L 8.4 50.8 L 5.9 50.8 L 5.9 49.8 C 5.9 49.8 5.89 49.79 5.9 49.8 C 5.3 50.6 4.6 51 3.4 51 C 1.6 51 0.6 49.8 0.6 48 Z M 9.7 42.6 L 12.2 42.6 L 12.2 43.7 C 12.2 43.7 12.24 43.73 12.2 43.7 C 12.8 42.8 13.6 42.4 14.8 42.4 C 16.6 42.4 17.6 43.6 17.6 45.5 C 17.62 45.47 17.6 50.8 17.6 50.8 L 15 50.8 C 15 50.8 15.01 46 15 46 C 15 45.1 14.6 44.5 13.7 44.5 C 12.9 44.5 12.3 45.3 12.3 46.3 C 12.29 46.27 12.3 50.8 12.3 50.8 L 9.7 50.8 L 9.7 42.6 Z M 18.4 46.7 C 18.4 44.3 20.1 42.4 22.7 42.4 C 24.9 42.4 26.4 43.7 26.6 45.5 C 26.6 45.5 24.1 45.5 24.1 45.5 C 23.9 44.8 23.5 44.3 22.8 44.3 C 21.6 44.3 21.1 45.2 21.1 46.7 C 21.1 48.2 21.6 49.1 22.8 49.1 C 23.6 49.1 24.1 48.6 24.2 47.7 C 24.2 47.7 26.7 47.7 26.7 47.7 C 26.6 49.6 25.1 51.1 22.8 51.1 C 20.1 51.1 18.4 49.2 18.4 46.7 Z M 33.2 46.7 C 33.2 45.2 32.6 44.2 31.5 44.2 C 30.4 44.2 29.8 45.2 29.8 46.7 C 29.8 48.2 30.4 49.2 31.5 49.2 C 32.6 49.2 33.2 48.2 33.2 46.7 Z M 27.1 46.7 C 27.1 44.3 28.9 42.4 31.5 42.4 C 34.2 42.4 35.9 44.3 35.9 46.7 C 35.9 49.2 34.2 51.1 31.5 51.1 C 28.9 51.1 27.1 49.2 27.1 46.7 Z M 36.8 42.6 L 39.3 42.6 L 39.3 43.8 C 39.3 43.8 39.31 43.78 39.3 43.8 C 39.8 42.9 40.6 42.4 41.8 42.4 C 42.9 42.4 43.7 42.9 44.1 43.8 C 44.1 43.8 44.1 43.8 44.1 43.8 C 44.8 42.8 45.6 42.4 46.7 42.4 C 48.6 42.4 49.5 43.6 49.5 45.5 C 49.49 45.47 49.5 50.8 49.5 50.8 L 46.9 50.8 C 46.9 50.8 46.88 45.94 46.9 45.9 C 46.9 45.1 46.5 44.5 45.7 44.5 C 44.9 44.5 44.4 45.2 44.4 46.2 C 44.43 46.21 44.4 50.8 44.4 50.8 L 41.8 50.8 C 41.8 50.8 41.82 45.94 41.8 45.9 C 41.8 45.1 41.5 44.5 40.7 44.5 C 39.9 44.5 39.4 45.2 39.4 46.2 C 39.38 46.21 39.4 50.8 39.4 50.8 L 36.8 50.8 L 36.8 42.6 Z M 51.1 44.3 L 50.1 44.3 L 50.1 42.6 L 51.1 42.6 C 51.1 42.6 51.12 42.02 51.1 42 C 51.1 41.2 51.4 40.5 51.8 40.1 C 52.5 39.4 53.9 39.3 55.3 39.4 C 55.3 39.4 55.3 41.2 55.3 41.2 C 54.3 41.2 53.7 41.3 53.7 42.2 C 53.73 42.21 53.7 42.6 53.7 42.6 L 55.3 42.6 L 55.3 44.3 L 53.7 44.3 L 53.7 50.8 L 51.1 50.8 L 51.1 44.3 Z M 61.6 46.7 C 61.6 45.2 61 44.2 59.9 44.2 C 58.7 44.2 58.1 45.2 58.1 46.7 C 58.1 48.2 58.7 49.2 59.9 49.2 C 61 49.2 61.6 48.2 61.6 46.7 Z M 55.5 46.7 C 55.5 44.3 57.2 42.4 59.9 42.4 C 62.5 42.4 64.2 44.3 64.2 46.7 C 64.2 49.2 62.5 51.1 59.9 51.1 C 57.2 51.1 55.5 49.2 55.5 46.7 Z M 65.1 42.6 L 67.6 42.6 L 67.6 43.9 C 67.6 43.9 67.66 43.89 67.7 43.9 C 68.2 42.9 68.9 42.5 69.9 42.5 C 70.1 42.5 70.3 42.5 70.4 42.5 C 70.42 42.54 70.4 44.8 70.4 44.8 C 70.4 44.8 70.35 44.78 70.4 44.8 C 68.8 44.6 67.7 45.3 67.7 47.1 C 67.73 47.12 67.7 50.8 67.7 50.8 L 65.1 50.8 L 65.1 42.6 Z M 72 48.6 C 72.05 48.64 72 44.2 72 44.2 L 71 44.2 L 71 42.6 L 72 42.6 L 72 40 L 74.6 40 L 74.6 42.6 L 76.1 42.6 L 76.1 44.2 L 74.6 44.2 C 74.6 44.2 74.59 48.08 74.6 48.1 C 74.6 48.7 74.9 48.9 75.5 48.9 C 75.7 48.9 76 48.9 76.1 48.9 C 76.1 48.9 76.1 50.8 76.1 50.8 C 75.9 50.8 75.4 50.9 74.7 50.9 C 73.1 50.9 72 50.4 72 48.6 Z M 76.8 48.5 C 76.8 46.7 78.2 46.2 79.9 45.9 C 81.5 45.7 82 45.6 82 45 C 82 44.5 81.7 44.1 80.9 44.1 C 80.1 44.1 79.6 44.5 79.6 45.2 C 79.6 45.2 77.2 45.2 77.2 45.2 C 77.2 43.7 78.4 42.4 80.9 42.4 C 82.1 42.4 82.9 42.6 83.5 43.1 C 84.2 43.6 84.6 44.4 84.6 45.4 C 84.6 45.4 84.6 49.5 84.6 49.5 C 84.6 50.2 84.6 50.5 84.9 50.7 C 84.86 50.69 84.9 50.8 84.9 50.8 C 84.9 50.8 82.34 50.8 82.3 50.8 C 82.2 50.6 82.1 50.3 82.1 49.9 C 82.1 49.9 82 49.9 82 49.9 C 81.6 50.6 80.8 51 79.6 51 C 78 51 76.8 50.1 76.8 48.5 Z M 82.1 47.9 C 82.1 47.9 82.1 46.9 82.1 46.9 C 81.7 47.1 81.3 47.2 80.7 47.3 C 79.7 47.6 79.3 47.8 79.3 48.4 C 79.3 49.1 79.8 49.3 80.4 49.3 C 81.4 49.3 82.1 48.8 82.1 47.9 Z M 88.4 49.8 C 88.37 49.76 88.3 49.8 88.3 49.8 L 88.3 50.8 L 85.8 50.8 L 85.8 39.4 L 88.4 39.4 L 88.4 43.5 C 88.4 43.5 88.49 43.54 88.5 43.5 C 89 42.8 89.7 42.4 90.8 42.4 C 93 42.4 94.3 44.2 94.3 46.7 C 94.3 49.4 93 51.1 90.8 51.1 C 89.8 51.1 88.9 50.6 88.4 49.8 Z M 91.7 46.7 C 91.7 45.3 91.1 44.4 90.1 44.4 C 88.9 44.4 88.4 45.4 88.4 46.7 C 88.4 48.1 89 49 90.1 49 C 91.1 49 91.7 48.1 91.7 46.7 Z M 95.2 39.4 L 97.9 39.4 L 97.9 50.8 L 95.2 50.8 L 95.2 39.4 Z M 98.8 46.7 C 98.8 44.2 100.5 42.4 103 42.4 C 104.1 42.4 105.1 42.8 105.8 43.4 C 106.8 44.3 107.2 45.7 107.2 47.4 C 107.2 47.4 101.3 47.4 101.3 47.4 C 101.5 48.5 102.1 49.2 103.2 49.2 C 103.9 49.2 104.3 48.9 104.5 48.4 C 104.5 48.4 107.1 48.4 107.1 48.4 C 106.9 49.1 106.4 49.8 105.7 50.3 C 105 50.8 104.2 51 103.1 51 C 100.4 51 98.8 49.2 98.8 46.7 Z M 104.6 45.8 C 104.5 44.8 103.9 44.2 103 44.2 C 102 44.2 101.5 44.8 101.3 45.8 C 101.3 45.8 104.6 45.8 104.6 45.8 Z M 110.1 42.5 L 111.5 42.5 C 111.5 42.5 112.93 47.63 112.9 47.6 C 113.12 48.32 113.4 49.4 113.4 49.4 L 113.4 49.4 C 113.4 49.4 113.65 48.32 113.8 47.7 C 113.82 47.66 115.2 42.5 115.2 42.5 L 116.6 42.5 C 116.6 42.5 117.92 47.66 117.9 47.7 C 118.09 48.34 118.3 49.4 118.3 49.4 L 118.4 49.4 C 118.4 49.4 118.61 48.32 118.8 47.6 C 118.81 47.63 120.4 42.5 120.4 42.5 L 121.7 42.5 L 119 50.8 L 117.7 50.8 C 117.7 50.8 116.29 45.79 116.3 45.8 C 116.09 45.1 115.9 44.1 115.9 44.1 L 115.9 44.1 C 115.9 44.1 115.63 45.1 115.4 45.8 C 115.44 45.79 114 50.8 114 50.8 L 112.7 50.8 L 110.1 42.5 Z M 122.6 42.5 L 123.9 42.5 L 123.9 50.8 L 122.6 50.8 L 122.6 42.5 Z M 122.6 39.4 L 123.9 39.4 L 123.9 41 L 122.6 41 L 122.6 39.4 Z M 125.2 42.5 L 126.4 42.5 L 126.4 39.9 L 127.7 39.9 L 127.7 42.5 L 129.3 42.5 L 129.3 43.6 L 127.7 43.6 C 127.7 43.6 127.66 48.96 127.7 49 C 127.7 49.5 128 49.7 128.5 49.7 C 128.8 49.7 129 49.7 129.2 49.6 C 129.18 49.62 129.2 49.6 129.2 49.6 C 129.2 49.6 129.23 50.74 129.2 50.7 C 128.9 50.8 128.6 50.8 128.2 50.8 C 127.1 50.8 126.4 50.4 126.4 49.2 C 126.37 49.25 126.4 43.6 126.4 43.6 L 125.2 43.6 L 125.2 42.5 Z M 131.9 43.6 C 131.9 43.6 131.93 43.62 131.9 43.6 C 132.5 42.8 133.4 42.3 134.6 42.3 C 136.3 42.3 137.3 43.3 137.3 45 C 137.34 44.99 137.3 50.8 137.3 50.8 L 136 50.8 C 136 50.8 136.05 45.1 136 45.1 C 136 44 135.3 43.4 134.2 43.4 C 132.9 43.4 131.9 44.4 131.9 45.7 C 131.9 45.71 131.9 50.8 131.9 50.8 L 130.6 50.8 L 130.6 39.4 L 131.9 39.4 L 131.9 43.6 Z " stroke="none" fill="#000"/>  </g>  <g id="Polygon7578">    <path d="M 2.2 24.7 C 2.2 24.7 2.21 24.7 2.2 24.7 C 2.7 23.9 3.6 23.2 4.7 23.2 C 4.9 23.2 5 23.3 5.2 23.3 C 5.2 23.33 5.2 24.6 5.2 24.6 C 5.2 24.6 5.15 24.58 5.2 24.6 C 5 24.5 4.8 24.5 4.6 24.5 C 3.3 24.5 2.2 25.5 2.2 27 C 2.18 27.01 2.2 31.6 2.2 31.6 L 0.9 31.6 L 0.9 23.3 L 2.2 23.3 L 2.2 24.7 Z M 5.6 27.5 C 5.6 25.1 7.2 23.1 9.5 23.1 C 12 23.1 13.3 25 13.3 27.8 C 13.3 27.8 6.9 27.8 6.9 27.8 C 7 29.5 7.9 30.7 9.6 30.7 C 10.8 30.7 11.6 30.2 11.9 29 C 11.9 29 13.1 29 13.1 29 C 12.8 30.8 11.5 31.8 9.6 31.8 C 7.1 31.8 5.6 29.9 5.6 27.5 Z M 6.9 26.8 C 6.9 26.8 11.9 26.8 11.9 26.8 C 11.8 25.2 11 24.1 9.5 24.1 C 8 24.1 7.1 25.3 6.9 26.8 Z M 14 28.9 C 14 28.9 15.4 28.9 15.4 28.9 C 15.6 30.4 16.5 30.8 17.7 30.8 C 19.1 30.8 19.7 30.2 19.7 29.4 C 19.7 28.5 19 28.2 17.5 27.9 C 15.9 27.6 14.4 27.2 14.4 25.4 C 14.4 24 15.5 23.2 17.4 23.2 C 19.4 23.2 20.4 24.1 20.6 25.7 C 20.6 25.7 19.3 25.7 19.3 25.7 C 19.2 24.7 18.6 24.2 17.4 24.2 C 16.2 24.2 15.7 24.7 15.7 25.4 C 15.7 26.3 16.5 26.4 17.9 26.7 C 19.6 27.1 21 27.4 21 29.3 C 21 31 19.6 31.8 17.7 31.8 C 15.4 31.8 14.2 30.8 14 28.9 Z M 22.2 23.3 L 23.5 23.3 L 23.5 24.5 C 23.5 24.5 23.55 24.5 23.6 24.5 C 24.2 23.6 25 23.1 26.2 23.1 C 28.3 23.1 29.8 24.7 29.8 27.5 C 29.8 30.1 28.4 31.8 26.2 31.8 C 25 31.8 24.2 31.5 23.6 30.6 C 23.55 30.62 23.5 30.6 23.5 30.6 L 23.5 34.3 L 22.2 34.3 L 22.2 23.3 Z M 28.4 27.5 C 28.4 25.6 27.6 24.2 26.1 24.2 C 24.3 24.2 23.4 25.7 23.4 27.5 C 23.4 29.3 24.2 30.8 26.1 30.8 C 27.6 30.8 28.4 29.4 28.4 27.5 Z M 30.6 27.5 C 30.6 25.1 32.1 23.1 34.6 23.1 C 37.1 23.1 38.6 25.1 38.6 27.5 C 38.6 29.9 37.1 31.8 34.6 31.8 C 32.1 31.8 30.6 29.9 30.6 27.5 Z M 37.2 27.5 C 37.2 25.6 36.4 24.2 34.6 24.2 C 32.8 24.2 31.9 25.6 31.9 27.5 C 31.9 29.3 32.8 30.7 34.6 30.7 C 36.4 30.7 37.2 29.3 37.2 27.5 Z M 41.2 24.4 C 41.2 24.4 41.2 24.42 41.2 24.4 C 41.8 23.6 42.6 23.1 43.8 23.1 C 45.6 23.1 46.6 24.1 46.6 25.8 C 46.61 25.79 46.6 31.6 46.6 31.6 L 45.3 31.6 C 45.3 31.6 45.31 25.9 45.3 25.9 C 45.3 24.8 44.6 24.2 43.4 24.2 C 42.1 24.2 41.2 25.2 41.2 26.5 C 41.17 26.51 41.2 31.6 41.2 31.6 L 39.9 31.6 L 39.9 23.3 L 41.2 23.3 L 41.2 24.4 Z M 47.9 27.5 C 47.9 24.7 49.4 23.1 51.5 23.1 C 52.7 23.1 53.6 23.7 54.1 24.5 C 54.08 24.5 54.1 24.5 54.1 24.5 L 54.1 20.2 L 55.4 20.2 L 55.4 31.6 L 54.1 31.6 L 54.1 30.6 C 54.1 30.6 54.08 30.59 54.1 30.6 C 53.5 31.4 52.7 31.8 51.5 31.8 C 49.3 31.8 47.9 30.1 47.9 27.5 Z M 54.2 27.5 C 54.2 25.6 53.3 24.2 51.6 24.2 C 50 24.2 49.2 25.6 49.2 27.5 C 49.2 29.4 50 30.8 51.6 30.8 C 53.4 30.8 54.2 29.4 54.2 27.5 Z M 56.7 27.5 C 56.7 25.1 58.3 23.1 60.6 23.1 C 63.1 23.1 64.4 25 64.4 27.8 C 64.4 27.8 58 27.8 58 27.8 C 58.1 29.5 59 30.7 60.7 30.7 C 61.9 30.7 62.7 30.2 63 29 C 63 29 64.3 29 64.3 29 C 63.9 30.8 62.6 31.8 60.7 31.8 C 58.2 31.8 56.7 29.9 56.7 27.5 Z M 58.1 26.8 C 58.1 26.8 63 26.8 63 26.8 C 63 25.2 62.1 24.1 60.6 24.1 C 59.1 24.1 58.3 25.3 58.1 26.8 Z M 67 24.4 C 67 24.4 67.02 24.42 67 24.4 C 67.6 23.6 68.4 23.1 69.6 23.1 C 71.4 23.1 72.4 24.1 72.4 25.8 C 72.43 25.79 72.4 31.6 72.4 31.6 L 71.1 31.6 C 71.1 31.6 71.14 25.9 71.1 25.9 C 71.1 24.8 70.4 24.2 69.3 24.2 C 68 24.2 67 25.2 67 26.5 C 66.99 26.51 67 31.6 67 31.6 L 65.7 31.6 L 65.7 23.3 L 67 23.3 L 67 24.4 Z M 73.5 23.3 L 74.7 23.3 L 74.7 20.7 L 76 20.7 L 76 23.3 L 77.6 23.3 L 77.6 24.4 L 76 24.4 C 76 24.4 75.95 29.76 76 29.8 C 76 30.3 76.3 30.5 76.8 30.5 C 77 30.5 77.3 30.5 77.5 30.4 C 77.47 30.42 77.5 30.4 77.5 30.4 C 77.5 30.4 77.52 31.54 77.5 31.5 C 77.2 31.6 76.9 31.6 76.5 31.6 C 75.4 31.6 74.7 31.2 74.7 30 C 74.66 30.05 74.7 24.4 74.7 24.4 L 73.5 24.4 L 73.5 23.3 Z M 78.4 28.9 C 78.4 28.9 79.7 28.9 79.7 28.9 C 79.9 30.4 80.8 30.8 82.1 30.8 C 83.4 30.8 84 30.2 84 29.4 C 84 28.5 83.3 28.2 81.8 27.9 C 80.2 27.6 78.7 27.2 78.7 25.4 C 78.7 24 79.8 23.2 81.7 23.2 C 83.8 23.2 84.8 24.1 85 25.7 C 85 25.7 83.6 25.7 83.6 25.7 C 83.5 24.7 82.9 24.2 81.7 24.2 C 80.5 24.2 80 24.7 80 25.4 C 80 26.3 80.8 26.4 82.2 26.7 C 83.9 27.1 85.3 27.4 85.3 29.3 C 85.3 31 83.9 31.8 82 31.8 C 79.8 31.8 78.5 30.8 78.4 28.9 Z M 88.6 23.3 L 89.7 23.3 C 89.7 23.3 89.7 22 89.7 22 C 89.7 20.6 90.5 20.1 91.9 20.1 C 92.2 20.1 92.4 20.1 92.5 20.1 C 92.5 20.1 92.5 21.2 92.5 21.2 C 92.3 21.2 92.3 21.2 92.1 21.2 C 91.3 21.2 91 21.4 91 22.1 C 90.99 22.06 91 23.3 91 23.3 L 92.5 23.3 L 92.5 24.4 L 91 24.4 L 91 31.6 L 89.7 31.6 L 89.7 24.4 L 88.6 24.4 L 88.6 23.3 Z M 93.1 27.5 C 93.1 25.1 94.7 23.1 97 23.1 C 99.5 23.1 100.8 25 100.8 27.8 C 100.8 27.8 94.4 27.8 94.4 27.8 C 94.5 29.5 95.4 30.7 97.1 30.7 C 98.3 30.7 99.1 30.2 99.4 29 C 99.4 29 100.6 29 100.6 29 C 100.3 30.8 99 31.8 97.1 31.8 C 94.6 31.8 93.1 29.9 93.1 27.5 Z M 94.4 26.8 C 94.4 26.8 99.4 26.8 99.4 26.8 C 99.3 25.2 98.5 24.1 97 24.1 C 95.5 24.1 94.6 25.3 94.4 26.8 Z M 101.6 27.5 C 101.6 25.1 103.2 23.1 105.5 23.1 C 108 23.1 109.3 25 109.3 27.8 C 109.3 27.8 102.9 27.8 102.9 27.8 C 103 29.5 104 30.7 105.6 30.7 C 106.8 30.7 107.6 30.2 107.9 29 C 107.9 29 109.2 29 109.2 29 C 108.8 30.8 107.5 31.8 105.6 31.8 C 103.1 31.8 101.6 29.9 101.6 27.5 Z M 103 26.8 C 103 26.8 108 26.8 108 26.8 C 107.9 25.2 107 24.1 105.5 24.1 C 104 24.1 103.2 25.3 103 26.8 Z M 110.7 20.2 L 112 20.2 L 112 31.6 L 110.7 31.6 L 110.7 20.2 Z " stroke="none" fill="#000"/>  </g>  <g id="Polygon7577">    <path d="M 5.4 10 L 0.3 10 L 0.3 7.5 L 5.4 1.3 L 8.1 1.3 L 8.1 7.9 L 9.6 7.9 L 9.6 10 L 8.1 10 L 8.1 12.4 L 5.4 12.4 L 5.4 10 Z M 5.4 7.9 L 5.4 4.2 L 5.4 4.2 L 2.4 7.9 L 2.4 7.9 L 5.4 7.9 Z M 10.1 9.1 C 10.1 9.1 12.8 9.1 12.8 9.1 C 12.9 10 13.7 10.5 14.7 10.5 C 15.8 10.5 16.5 9.7 16.5 8.6 C 16.5 7.5 15.7 6.8 14.7 6.8 C 14 6.8 13.4 7.1 13.1 7.5 C 13.12 7.5 10.6 7.5 10.6 7.5 L 11.7 1.4 L 18.5 1.4 L 18.5 3.6 L 13.6 3.6 L 13.3 5.6 C 13.3 5.6 13.3 5.55 13.3 5.6 C 13.7 5.2 14.4 4.9 15.4 4.9 C 17.5 4.9 19.2 6.3 19.2 8.7 C 19.2 11.1 17.4 12.7 14.8 12.7 C 12.3 12.7 10.4 11.5 10.1 9.1 Z M 23.5 4.4 C 23.5 3.3 23.2 2.6 22.6 2.6 C 21.9 2.6 21.6 3.3 21.6 4.4 C 21.6 5.5 21.9 6.2 22.6 6.2 C 23.2 6.2 23.5 5.5 23.5 4.4 Z M 19.6 4.4 C 19.6 2.5 20.9 1.2 22.6 1.2 C 24.3 1.2 25.5 2.5 25.5 4.4 C 25.5 6.4 24.3 7.6 22.6 7.6 C 20.9 7.6 19.6 6.4 19.6 4.4 Z M 28.5 1.4 L 30 1.4 L 24.1 12.4 L 22.6 12.4 L 28.5 1.4 Z M 30.9 9.5 C 30.9 8.4 30.6 7.6 30 7.6 C 29.3 7.6 29 8.4 29 9.5 C 29 10.5 29.3 11.3 30 11.3 C 30.7 11.3 30.9 10.5 30.9 9.5 Z M 27 9.5 C 27 7.5 28.3 6.3 30 6.3 C 31.7 6.3 32.9 7.5 32.9 9.5 C 32.9 11.4 31.7 12.7 30 12.7 C 28.3 12.7 27 11.4 27 9.5 Z M 36 8.3 C 36 5.9 37.6 3.9 40 3.9 C 42.5 3.9 44 5.9 44 8.3 C 44 10.7 42.5 12.6 40 12.6 C 37.6 12.6 36 10.7 36 8.3 Z M 42.7 8.3 C 42.7 6.4 41.8 5 40 5 C 38.3 5 37.3 6.4 37.3 8.3 C 37.3 10.1 38.3 11.5 40 11.5 C 41.8 11.5 42.7 10.1 42.7 8.3 Z M 44.6 4.1 L 45.7 4.1 C 45.7 4.1 45.74 2.8 45.7 2.8 C 45.7 1.4 46.6 0.9 47.9 0.9 C 48.2 0.9 48.4 0.9 48.6 0.9 C 48.6 0.9 48.6 2 48.6 2 C 48.4 2 48.3 2 48.2 2 C 47.3 2 47 2.2 47 2.9 C 47.04 2.86 47 4.1 47 4.1 L 48.6 4.1 L 48.6 5.2 L 47 5.2 L 47 12.4 L 45.7 12.4 L 45.7 5.2 L 44.6 5.2 L 44.6 4.1 Z M 51.9 9.7 C 51.9 9.7 53.2 9.7 53.2 9.7 C 53.4 11.2 54.3 11.6 55.6 11.6 C 56.9 11.6 57.5 11 57.5 10.2 C 57.5 9.3 56.8 9 55.3 8.7 C 53.7 8.4 52.2 8 52.2 6.2 C 52.2 4.8 53.3 4 55.2 4 C 57.2 4 58.3 4.9 58.4 6.5 C 58.4 6.5 57.1 6.5 57.1 6.5 C 57 5.5 56.4 5 55.2 5 C 54 5 53.5 5.5 53.5 6.2 C 53.5 7.1 54.3 7.2 55.7 7.5 C 57.4 7.9 58.8 8.2 58.8 10.1 C 58.8 11.8 57.4 12.6 55.5 12.6 C 53.2 12.6 52 11.6 51.9 9.7 Z M 65.3 12.4 L 65.3 11.3 C 65.3 11.3 65.26 11.26 65.3 11.3 C 64.7 12.1 64 12.6 62.8 12.6 C 61.1 12.6 60 11.6 60 9.9 C 59.98 9.86 60 4.1 60 4.1 L 61.3 4.1 C 61.3 4.1 61.28 9.82 61.3 9.8 C 61.3 10.9 62 11.5 63.1 11.5 C 64.4 11.5 65.3 10.5 65.3 9.2 C 65.3 9.22 65.3 4.1 65.3 4.1 L 66.6 4.1 L 66.6 12.4 L 65.3 12.4 Z M 69.6 5.5 C 69.6 5.5 69.68 5.5 69.7 5.5 C 70.2 4.7 71 4 72.1 4 C 72.4 4 72.5 4.1 72.7 4.1 C 72.67 4.13 72.7 5.4 72.7 5.4 C 72.7 5.4 72.62 5.38 72.6 5.4 C 72.4 5.3 72.3 5.3 72 5.3 C 70.8 5.3 69.6 6.3 69.6 7.8 C 69.65 7.81 69.6 12.4 69.6 12.4 L 68.4 12.4 L 68.4 4.1 L 69.6 4.1 L 69.6 5.5 Z M 73 4.1 L 74.4 4.1 C 74.4 4.1 76.09 9.38 76.1 9.4 C 76.33 10.11 76.6 11.1 76.6 11.1 L 76.7 11.1 C 76.7 11.1 76.97 10.1 77.2 9.4 C 77.21 9.38 79 4.1 79 4.1 L 80.3 4.1 L 77.3 12.4 L 75.9 12.4 L 73 4.1 Z M 80.6 8.3 C 80.6 5.9 82.2 3.9 84.5 3.9 C 87 3.9 88.3 5.8 88.3 8.6 C 88.3 8.6 81.9 8.6 81.9 8.6 C 82 10.3 82.9 11.5 84.6 11.5 C 85.8 11.5 86.6 11 86.9 9.8 C 86.9 9.8 88.1 9.8 88.1 9.8 C 87.8 11.6 86.5 12.6 84.6 12.6 C 82.1 12.6 80.6 10.7 80.6 8.3 Z M 82 7.6 C 82 7.6 86.9 7.6 86.9 7.6 C 86.8 6 86 4.9 84.5 4.9 C 83 4.9 82.1 6.1 82 7.6 Z M 89.3 15 C 89.31 14.96 89.3 13.8 89.3 13.8 C 89.3 13.8 89.37 13.81 89.4 13.8 C 89.6 13.9 89.8 14 90.3 14 C 90.8 14 91.2 13.8 91.5 13 C 91.49 12.98 91.8 12.2 91.8 12.2 L 88.6 4.1 L 90 4.1 C 90 4.1 91.93 9.28 91.9 9.3 C 92.19 9.97 92.5 10.9 92.5 10.9 L 92.5 10.9 C 92.5 10.9 92.81 9.97 93.1 9.3 C 93.07 9.28 95 4.1 95 4.1 L 96.3 4.1 C 96.3 4.1 92.8 13.07 92.8 13.1 C 92.1 14.8 91.5 15.1 90.5 15.1 C 90 15.1 89.7 15.1 89.3 15 Z " stroke="none" fill="#000"/>  </g></svg>