<?xml version="1.0" standalone="no"?><!DOCTYPE svg PUBLIC "-//W3C//DTD SVG 1.1//EN" "http://www.w3.org/Graphics/SVG/1.1/DTD/svg11.dtd"><svg xmlns="http://www.w3.org/2000/svg" version="1.1" width="255px" height="28.2px" viewBox="0 -3 255 28.2" style="top:-3px">  <desc>STOKD Redesign GDES 2324</desc>  <defs/>  <g id="Polygon3440">    <path d="M 0.3 7.7 C 0.3 7.7 2.3 7.7 2.3 7.7 C 2.4 8.9 3.1 9.4 4.6 9.4 C 5.6 9.4 6.5 9 6.5 8.1 C 6.5 7.1 5.6 6.9 4 6.6 C 2.2 6.2 0.6 5.7 0.6 3.6 C 0.6 1.6 2.2 0.6 4.4 0.6 C 6.7 0.6 8.1 1.7 8.3 3.7 C 8.3 3.7 6.4 3.7 6.4 3.7 C 6.2 2.7 5.5 2.2 4.4 2.2 C 3.3 2.2 2.6 2.7 2.6 3.4 C 2.6 4.2 3.3 4.4 4.8 4.8 C 6.9 5.2 8.5 5.7 8.5 7.9 C 8.5 9.9 6.9 11 4.6 11 C 1.9 11 0.4 9.8 0.3 7.7 Z M 8.8 0.8 L 16.9 0.8 L 16.9 2.5 L 13.9 2.5 L 13.9 10.8 L 11.8 10.8 L 11.8 2.5 L 8.8 2.5 L 8.8 0.8 Z M 17 5.8 C 17 2.8 18.8 0.6 21.8 0.6 C 24.8 0.6 26.6 2.8 26.6 5.8 C 26.6 8.8 24.8 11 21.8 11 C 18.8 11 17 8.8 17 5.8 Z M 24.5 5.8 C 24.5 3.8 23.6 2.3 21.8 2.3 C 20 2.3 19 3.8 19 5.8 C 19 7.8 20 9.4 21.8 9.4 C 23.6 9.4 24.5 7.8 24.5 5.8 Z M 27.7 0.8 L 29.7 0.8 L 29.7 4.8 L 33.6 0.8 L 36.1 0.8 L 32.2 4.8 L 36.4 10.8 L 34 10.8 L 30.8 6.1 L 29.7 7.2 L 29.7 10.8 L 27.7 10.8 L 27.7 0.8 Z M 37.2 0.8 C 37.2 0.8 41.06 0.78 41.1 0.8 C 43.7 0.8 45.5 2.9 45.5 5.9 C 45.5 7.5 44.9 8.9 43.9 9.8 C 43.1 10.4 42.2 10.8 40.9 10.8 C 40.89 10.79 37.2 10.8 37.2 10.8 L 37.2 0.8 Z M 40.8 9 C 42.7 9 43.4 7.9 43.4 5.9 C 43.4 3.9 42.5 2.5 40.8 2.5 C 40.81 2.52 39.2 2.5 39.2 2.5 L 39.2 9 C 39.2 9 40.75 9.04 40.8 9 Z M 48.9 0.8 C 48.9 0.8 53.51 0.78 53.5 0.8 C 55.4 0.8 56.7 1.9 56.7 3.6 C 56.7 4.7 56.2 5.6 54.9 6 C 54.9 6 54.9 6 54.9 6 C 55.8 6.3 56.3 6.8 56.4 8 C 56.6 9.5 56.5 10.5 56.9 10.7 C 56.85 10.7 56.9 10.8 56.9 10.8 C 56.9 10.8 54.91 10.79 54.9 10.8 C 54.7 10.7 54.6 9.6 54.5 8.5 C 54.5 7.4 53.8 6.8 52.6 6.8 C 52.58 6.78 50.9 6.8 50.9 6.8 L 50.9 10.8 L 48.9 10.8 L 48.9 0.8 Z M 50.9 5.2 C 50.9 5.2 53.1 5.21 53.1 5.2 C 54.2 5.2 54.8 4.6 54.8 3.8 C 54.8 3 54.2 2.4 53.2 2.4 C 53.16 2.42 50.9 2.4 50.9 2.4 L 50.9 5.2 Z M 57.5 7.2 C 57.5 5.1 58.9 3.4 61 3.4 C 63.3 3.4 64.5 5.2 64.5 7.7 C 64.5 7.7 59.3 7.7 59.3 7.7 C 59.5 8.8 60.1 9.5 61.2 9.5 C 61.9 9.5 62.3 9.2 62.6 8.7 C 62.6 8.7 64.4 8.7 64.4 8.7 C 64.2 9.9 63 11 61.2 11 C 58.8 11 57.5 9.3 57.5 7.2 Z M 59.4 6.4 C 59.4 6.4 62.6 6.4 62.6 6.4 C 62.5 5.5 61.9 4.9 61 4.9 C 60 4.9 59.5 5.5 59.4 6.4 Z M 65.1 7.2 C 65.1 5 66.3 3.4 68.1 3.4 C 69.1 3.4 69.8 3.9 70.2 4.5 C 70.17 4.48 70.2 4.5 70.2 4.5 L 70.2 0.8 L 72.1 0.8 L 72.1 10.8 L 70.3 10.8 L 70.3 9.9 C 70.3 9.9 70.25 9.86 70.3 9.9 C 69.8 10.5 69.1 11 68.1 11 C 66.3 11 65.1 9.5 65.1 7.2 Z M 70.3 7.3 C 70.3 5.9 69.8 5 68.6 5 C 67.5 5 67 5.9 67 7.2 C 67 8.6 67.5 9.4 68.5 9.4 C 69.7 9.4 70.3 8.6 70.3 7.3 Z M 73 7.2 C 73 5.1 74.4 3.4 76.5 3.4 C 78.8 3.4 80.1 5.2 80.1 7.7 C 80.1 7.7 74.9 7.7 74.9 7.7 C 75 8.8 75.6 9.5 76.7 9.5 C 77.4 9.5 77.9 9.2 78.1 8.7 C 78.1 8.7 80 8.7 80 8.7 C 79.7 9.9 78.6 11 76.7 11 C 74.3 11 73 9.3 73 7.2 Z M 74.9 6.4 C 74.9 6.4 78.1 6.4 78.1 6.4 C 78 5.5 77.4 4.9 76.6 4.9 C 75.6 4.9 75.1 5.5 74.9 6.4 Z M 80.5 8.5 C 80.5 8.5 82.3 8.5 82.3 8.5 C 82.4 9.3 83 9.7 83.8 9.7 C 84.7 9.7 85.2 9.3 85.2 8.8 C 85.2 8.1 84.3 8.1 83.3 7.9 C 82 7.6 80.7 7.3 80.7 5.7 C 80.7 4.2 82 3.4 83.6 3.4 C 85.5 3.4 86.6 4.4 86.7 5.8 C 86.7 5.8 85 5.8 85 5.8 C 84.9 5 84.4 4.7 83.6 4.7 C 82.9 4.7 82.4 5 82.4 5.5 C 82.4 6.2 83.3 6.2 84.4 6.4 C 85.6 6.7 86.9 7 86.9 8.7 C 86.9 10.1 85.7 11 83.9 11 C 81.8 11 80.6 10 80.5 8.5 Z M 87.8 3.6 L 89.7 3.6 L 89.7 10.8 L 87.8 10.8 L 87.8 3.6 Z M 87.8 0.8 L 89.7 0.8 L 89.7 2.5 L 87.8 2.5 L 87.8 0.8 Z M 90.7 11 C 90.7 11 92.6 11 92.6 11 C 92.7 11.5 93.1 11.8 94 11.8 C 95.1 11.8 95.6 11.3 95.6 10.3 C 95.62 10.3 95.6 9.5 95.6 9.5 C 95.6 9.5 95.58 9.52 95.6 9.5 C 95.2 10 94.6 10.4 93.7 10.4 C 92.1 10.4 90.5 9.1 90.5 6.9 C 90.5 4.8 91.8 3.4 93.6 3.4 C 94.5 3.4 95.2 3.8 95.6 4.4 C 95.63 4.37 95.7 4.4 95.7 4.4 L 95.7 3.6 L 97.5 3.6 C 97.5 3.6 97.49 10.25 97.5 10.2 C 97.5 11.3 97.2 11.9 96.6 12.4 C 96 13 95.1 13.2 94.1 13.2 C 92.1 13.2 90.9 12.4 90.7 11 Z M 95.7 6.9 C 95.7 5.8 95.2 4.9 94 4.9 C 93 4.9 92.4 5.7 92.4 6.9 C 92.4 8.1 93 8.8 94 8.8 C 95.2 8.8 95.7 8 95.7 6.9 Z M 100.6 4.6 C 100.6 4.6 100.63 4.59 100.6 4.6 C 101.1 3.8 101.8 3.4 102.8 3.4 C 104.2 3.4 105.2 4.5 105.2 6.1 C 105.24 6.1 105.2 10.8 105.2 10.8 L 103.3 10.8 C 103.3 10.8 103.33 6.38 103.3 6.4 C 103.3 5.6 102.9 5.1 102.1 5.1 C 101.2 5.1 100.6 5.7 100.6 6.7 C 100.63 6.72 100.6 10.8 100.6 10.8 L 98.7 10.8 L 98.7 3.6 L 100.6 3.6 L 100.6 4.6 Z M 109 0.2 L 110.2 0.2 L 110.2 12.6 L 109 12.6 L 109 0.2 Z M 121.5 9.5 C 121.5 9.5 121.45 9.45 121.4 9.5 C 120.8 10.6 119.8 11 118.6 11 C 117.1 11 115.9 10.5 115.1 9.5 C 114.3 8.6 113.8 7.3 113.8 5.8 C 113.8 4.2 114.4 2.7 115.5 1.7 C 116.3 1 117.3 0.6 118.7 0.6 C 121.2 0.6 122.6 2 123 3.9 C 123 3.9 121 3.9 121 3.9 C 120.7 3 120 2.3 118.7 2.3 C 116.8 2.3 115.9 3.8 115.9 5.8 C 115.9 7.9 117 9.4 118.7 9.4 C 120.2 9.4 121.3 8.2 121.3 7.1 C 121.27 7.1 121.3 7 121.3 7 L 118.9 7 L 118.9 5.5 L 123.1 5.5 L 123.1 10.8 L 121.5 10.8 L 121.5 9.5 Z M 124.5 0.8 C 124.5 0.8 128.39 0.78 128.4 0.8 C 131.1 0.8 132.8 2.9 132.8 5.9 C 132.8 7.5 132.2 8.9 131.2 9.8 C 130.5 10.4 129.5 10.8 128.2 10.8 C 128.22 10.79 124.5 10.8 124.5 10.8 L 124.5 0.8 Z M 128.1 9 C 130 9 130.7 7.9 130.7 5.9 C 130.7 3.9 129.9 2.5 128.1 2.5 C 128.14 2.52 126.5 2.5 126.5 2.5 L 126.5 9 C 126.5 9 128.08 9.04 128.1 9 Z M 133.9 0.8 L 141.3 0.8 L 141.3 2.5 L 135.9 2.5 L 135.9 4.7 L 140.6 4.7 L 140.6 6.4 L 135.9 6.4 L 135.9 9.1 L 141.3 9.1 L 141.3 10.8 L 133.9 10.8 L 133.9 0.8 Z M 142 7.7 C 142 7.7 144 7.7 144 7.7 C 144.2 8.9 144.9 9.4 146.3 9.4 C 147.3 9.4 148.2 9 148.2 8.1 C 148.2 7.1 147.3 6.9 145.8 6.6 C 144 6.2 142.3 5.7 142.3 3.6 C 142.3 1.6 143.9 0.6 146.2 0.6 C 148.4 0.6 149.9 1.7 150 3.7 C 150 3.7 148.1 3.7 148.1 3.7 C 148 2.7 147.2 2.2 146.1 2.2 C 145.1 2.2 144.3 2.7 144.3 3.4 C 144.3 4.2 145 4.4 146.5 4.8 C 148.6 5.2 150.3 5.7 150.3 7.9 C 150.3 9.9 148.6 11 146.4 11 C 143.7 11 142.1 9.8 142 7.7 Z M 158.1 7 C 159.3 6 160.6 5.4 160.6 4.1 C 160.6 3.2 160.1 2.6 159.3 2.6 C 158.3 2.6 157.7 3.3 157.7 4.6 C 157.7 4.6 155.9 4.6 155.9 4.6 C 155.9 2.4 157 1 159.3 1 C 161.4 1 162.6 2.4 162.6 4.1 C 162.6 5.9 161.3 6.7 160.2 7.5 C 159.4 8 158.6 8.6 158.2 9.2 C 158.24 9.23 162.7 9.2 162.7 9.2 L 162.7 10.8 C 162.7 10.8 155.78 10.79 155.8 10.8 C 155.8 9 157 7.8 158.1 7 Z M 163.3 7.5 C 163.3 7.5 165.1 7.5 165.1 7.5 C 165.2 8.7 165.7 9.5 167 9.5 C 168.1 9.5 168.7 8.9 168.7 7.9 C 168.7 7 168.1 6.4 166.9 6.4 C 166.92 6.44 166.3 6.4 166.3 6.4 L 166.3 5 C 166.3 5 166.88 5 166.9 5 C 167.8 5 168.4 4.5 168.4 3.7 C 168.4 3 167.9 2.5 167.1 2.5 C 166 2.5 165.5 3.2 165.4 4.2 C 165.4 4.2 163.6 4.2 163.6 4.2 C 163.7 2.3 164.8 1 167.1 1 C 169.1 1 170.4 2 170.4 3.6 C 170.4 4.7 169.7 5.3 168.7 5.6 C 168.7 5.6 168.7 5.6 168.7 5.6 C 169.9 5.9 170.7 6.7 170.7 8 C 170.7 10 169 11 167.1 11 C 164.6 11 163.3 9.6 163.3 7.5 Z M 173.7 7 C 174.9 6 176.2 5.4 176.2 4.1 C 176.2 3.2 175.7 2.6 174.9 2.6 C 173.9 2.6 173.3 3.3 173.3 4.6 C 173.3 4.6 171.5 4.6 171.5 4.6 C 171.5 2.4 172.6 1 174.9 1 C 177 1 178.2 2.4 178.2 4.1 C 178.2 5.9 176.9 6.7 175.8 7.5 C 175 8 174.2 8.6 173.8 9.2 C 173.84 9.23 178.3 9.2 178.3 9.2 L 178.3 10.8 C 178.3 10.8 171.37 10.79 171.4 10.8 C 171.4 9 172.6 7.8 173.7 7 Z M 183.2 8.7 L 178.8 8.7 L 178.8 6.7 L 183.1 1.1 L 185.1 1.1 L 185.1 7.2 L 186.5 7.2 L 186.5 8.7 L 185.1 8.7 L 185.1 10.8 L 183.2 10.8 L 183.2 8.7 Z M 180.3 7.2 L 183.2 7.2 L 183.2 3.5 L 183.2 3.5 L 180.3 7.1 L 180.3 7.2 Z " stroke="none" fill="#000"/>  </g></svg>