<?xml version="1.0" standalone="no"?><!DOCTYPE svg PUBLIC "-//W3C//DTD SVG 1.1//EN" "http://www.w3.org/Graphics/SVG/1.1/DTD/svg11.dtd"><svg xmlns="http://www.w3.org/2000/svg" version="1.1" width="300px" height="28.2px" viewBox="0 -3 300 28.2" style="top:-3px">  <desc>Art Deco Coffee Grinder AutoDesk Fusion</desc>  <defs/>  <g id="Polygon9501">    <path d="M 3.5 0.8 L 5.6 0.8 L 9.2 10.8 L 7 10.8 L 6.4 8.7 L 2.8 8.7 L 2.1 10.8 L 0 10.8 L 3.5 0.8 Z M 3.2 7.1 L 5.9 7.1 C 5.9 7.1 4.98 4.23 5 4.2 C 4.82 3.7 4.6 2.7 4.6 2.7 L 4.5 2.7 C 4.5 2.7 4.3 3.7 4.1 4.2 C 4.13 4.23 3.2 7.1 3.2 7.1 Z M 11.7 4.8 C 11.7 4.8 11.72 4.76 11.7 4.8 C 12.2 3.9 12.6 3.5 13.5 3.5 C 13.7 3.5 13.8 3.5 13.9 3.6 C 13.93 3.58 13.9 5.3 13.9 5.3 C 13.9 5.3 13.89 5.25 13.9 5.3 C 12.6 5.1 11.7 5.8 11.7 7.3 C 11.75 7.29 11.7 10.8 11.7 10.8 L 9.8 10.8 L 9.8 3.6 L 11.7 3.6 L 11.7 4.8 Z M 14.4 3.6 L 15.4 3.6 L 15.4 1.4 L 17.3 1.4 L 17.3 3.6 L 18.5 3.6 L 18.5 4.9 L 17.3 4.9 C 17.3 4.9 17.26 8.67 17.3 8.7 C 17.3 9.2 17.6 9.4 18 9.4 C 18.21 9.38 18.5 9.4 18.5 9.4 L 18.5 10.8 C 18.5 10.8 18.1 10.79 17.3 10.8 C 16.4 10.8 15.4 10.4 15.4 9.1 C 15.4 9.07 15.4 4.9 15.4 4.9 L 14.4 4.9 L 14.4 3.6 Z M 22 0.8 C 22 0.8 25.89 0.78 25.9 0.8 C 28.6 0.8 30.3 2.9 30.3 5.9 C 30.3 7.5 29.7 8.9 28.7 9.8 C 27.9 10.4 27 10.8 25.7 10.8 C 25.72 10.79 22 10.8 22 10.8 L 22 0.8 Z M 25.6 9 C 27.5 9 28.2 7.9 28.2 5.9 C 28.2 3.9 27.4 2.5 25.6 2.5 C 25.63 2.52 24 2.5 24 2.5 L 24 9 C 24 9 25.58 9.04 25.6 9 Z M 30.9 7.2 C 30.9 5.1 32.3 3.4 34.4 3.4 C 36.7 3.4 38 5.2 38 7.7 C 38 7.7 32.8 7.7 32.8 7.7 C 32.9 8.8 33.5 9.5 34.6 9.5 C 35.3 9.5 35.8 9.2 36 8.7 C 36 8.7 37.9 8.7 37.9 8.7 C 37.6 9.9 36.5 11 34.6 11 C 32.2 11 30.9 9.3 30.9 7.2 Z M 32.8 6.4 C 32.8 6.4 36 6.4 36 6.4 C 35.9 5.5 35.3 4.9 34.5 4.9 C 33.4 4.9 33 5.5 32.8 6.4 Z M 38.5 7.2 C 38.5 5.1 39.9 3.4 42.1 3.4 C 43.9 3.4 45.1 4.5 45.3 6 C 45.3 6 43.5 6 43.5 6 C 43.4 5.4 42.9 4.9 42.2 4.9 C 41 4.9 40.4 5.8 40.4 7.2 C 40.4 8.6 41 9.5 42.1 9.5 C 42.9 9.5 43.5 9.1 43.6 8.3 C 43.6 8.3 45.4 8.3 45.4 8.3 C 45.3 9.8 44.1 11 42.2 11 C 39.9 11 38.5 9.4 38.5 7.2 Z M 45.9 7.2 C 45.9 5.1 47.4 3.4 49.6 3.4 C 51.9 3.4 53.4 5.1 53.4 7.2 C 53.4 9.4 51.9 11 49.6 11 C 47.4 11 45.9 9.4 45.9 7.2 Z M 51.5 7.2 C 51.5 5.8 50.8 4.9 49.6 4.9 C 48.5 4.9 47.8 5.8 47.8 7.2 C 47.8 8.6 48.5 9.5 49.6 9.5 C 50.8 9.5 51.5 8.6 51.5 7.2 Z M 56.4 5.8 C 56.4 2.9 58.2 0.6 61.2 0.6 C 63.6 0.6 65.1 2.1 65.3 4 C 65.3 4 63.3 4 63.3 4 C 63.1 3 62.3 2.3 61.2 2.3 C 59.3 2.3 58.4 3.8 58.4 5.8 C 58.4 7.9 59.5 9.3 61.2 9.3 C 62.4 9.3 63.2 8.6 63.3 7.6 C 63.3 7.6 65.3 7.6 65.3 7.6 C 65.3 8.5 64.9 9.3 64.2 9.9 C 63.5 10.6 62.6 11 61.2 11 C 58.4 11 56.4 8.8 56.4 5.8 Z M 65.9 7.2 C 65.9 5.1 67.5 3.4 69.7 3.4 C 71.9 3.4 73.4 5.1 73.4 7.2 C 73.4 9.4 71.9 11 69.7 11 C 67.5 11 65.9 9.4 65.9 7.2 Z M 71.5 7.2 C 71.5 5.8 70.8 4.9 69.7 4.9 C 68.5 4.9 67.9 5.8 67.9 7.2 C 67.9 8.6 68.5 9.5 69.7 9.5 C 70.8 9.5 71.5 8.6 71.5 7.2 Z M 73.8 3.6 L 74.7 3.6 C 74.7 3.6 74.73 3.02 74.7 3 C 74.7 1.3 76.1 0.6 77.9 0.8 C 77.9 0.8 77.9 2.3 77.9 2.3 C 77 2.3 76.6 2.4 76.6 3.1 C 76.63 3.13 76.6 3.6 76.6 3.6 L 78.8 3.6 C 78.8 3.6 78.78 2.97 78.8 3 C 78.8 1.2 80.1 0.6 82 0.8 C 82 0.8 82 2.3 82 2.3 C 81.1 2.2 80.7 2.3 80.7 3.1 C 80.68 3.08 80.7 3.6 80.7 3.6 L 82 3.6 L 82 4.9 L 80.7 4.9 L 80.7 10.8 L 78.8 10.8 L 78.8 4.9 L 76.6 4.9 L 76.6 10.8 L 74.7 10.8 L 74.7 4.9 L 73.8 4.9 L 73.8 3.6 Z M 82.3 7.2 C 82.3 5.1 83.7 3.4 85.8 3.4 C 88.1 3.4 89.4 5.2 89.4 7.7 C 89.4 7.7 84.2 7.7 84.2 7.7 C 84.3 8.8 84.9 9.5 86 9.5 C 86.7 9.5 87.2 9.2 87.4 8.7 C 87.4 8.7 89.2 8.7 89.2 8.7 C 89 9.9 87.8 11 86 11 C 83.6 11 82.3 9.3 82.3 7.2 Z M 84.2 6.4 C 84.2 6.4 87.4 6.4 87.4 6.4 C 87.3 5.5 86.7 4.9 85.8 4.9 C 84.8 4.9 84.3 5.5 84.2 6.4 Z M 89.9 7.2 C 89.9 5.1 91.3 3.4 93.4 3.4 C 95.7 3.4 97 5.2 97 7.7 C 97 7.7 91.8 7.7 91.8 7.7 C 91.9 8.8 92.5 9.5 93.6 9.5 C 94.3 9.5 94.8 9.2 95 8.7 C 95 8.7 96.9 8.7 96.9 8.7 C 96.6 9.9 95.5 11 93.6 11 C 91.2 11 89.9 9.3 89.9 7.2 Z M 91.8 6.4 C 91.8 6.4 95 6.4 95 6.4 C 94.9 5.5 94.3 4.9 93.5 4.9 C 92.5 4.9 92 5.5 91.8 6.4 Z M 107.6 9.5 C 107.6 9.5 107.6 9.45 107.6 9.5 C 106.9 10.6 106 11 104.8 11 C 103.3 11 102.1 10.5 101.3 9.5 C 100.4 8.6 100 7.3 100 5.8 C 100 4.2 100.6 2.7 101.6 1.7 C 102.4 1 103.5 0.6 104.8 0.6 C 107.4 0.6 108.8 2 109.1 3.9 C 109.1 3.9 107.1 3.9 107.1 3.9 C 106.9 3 106.2 2.3 104.9 2.3 C 103 2.3 102 3.8 102 5.8 C 102 7.9 103.1 9.4 104.8 9.4 C 106.4 9.4 107.4 8.2 107.4 7.1 C 107.42 7.1 107.4 7 107.4 7 L 105 7 L 105 5.5 L 109.2 5.5 L 109.2 10.8 L 107.7 10.8 L 107.6 9.5 Z M 112.3 4.8 C 112.3 4.8 112.36 4.76 112.4 4.8 C 112.8 3.9 113.3 3.5 114.1 3.5 C 114.3 3.5 114.5 3.5 114.6 3.6 C 114.57 3.58 114.6 5.3 114.6 5.3 C 114.6 5.3 114.53 5.25 114.5 5.3 C 113.3 5.1 112.4 5.8 112.4 7.3 C 112.39 7.29 112.4 10.8 112.4 10.8 L 110.5 10.8 L 110.5 3.6 L 112.3 3.6 L 112.3 4.8 Z M 115.4 3.6 L 117.3 3.6 L 117.3 10.8 L 115.4 10.8 L 115.4 3.6 Z M 115.4 0.8 L 117.3 0.8 L 117.3 2.5 L 115.4 2.5 L 115.4 0.8 Z M 120.4 4.6 C 120.4 4.6 120.44 4.59 120.4 4.6 C 120.9 3.8 121.6 3.4 122.6 3.4 C 124.1 3.4 125 4.5 125 6.1 C 125.05 6.1 125 10.8 125 10.8 L 123.1 10.8 C 123.1 10.8 123.14 6.38 123.1 6.4 C 123.1 5.6 122.7 5.1 121.9 5.1 C 121.1 5.1 120.4 5.7 120.4 6.7 C 120.44 6.72 120.4 10.8 120.4 10.8 L 118.5 10.8 L 118.5 3.6 L 120.4 3.6 L 120.4 4.6 Z M 125.9 7.2 C 125.9 5 127.1 3.4 128.9 3.4 C 129.9 3.4 130.6 3.9 131 4.5 C 130.97 4.48 131 4.5 131 4.5 L 131 0.8 L 132.9 0.8 L 132.9 10.8 L 131.1 10.8 L 131.1 9.9 C 131.1 9.9 131.05 9.86 131.1 9.9 C 130.6 10.5 129.9 11 128.9 11 C 127.1 11 125.9 9.5 125.9 7.2 Z M 131.1 7.3 C 131.1 5.9 130.6 5 129.4 5 C 128.3 5 127.8 5.9 127.8 7.2 C 127.8 8.6 128.3 9.4 129.3 9.4 C 130.5 9.4 131.1 8.6 131.1 7.3 Z M 133.8 7.2 C 133.8 5.1 135.2 3.4 137.3 3.4 C 139.6 3.4 140.9 5.2 140.9 7.7 C 140.9 7.7 135.7 7.7 135.7 7.7 C 135.8 8.8 136.4 9.5 137.5 9.5 C 138.2 9.5 138.7 9.2 138.9 8.7 C 138.9 8.7 140.8 8.7 140.8 8.7 C 140.5 9.9 139.4 11 137.5 11 C 135.1 11 133.8 9.3 133.8 7.2 Z M 135.7 6.4 C 135.7 6.4 138.9 6.4 138.9 6.4 C 138.8 5.5 138.2 4.9 137.4 4.9 C 136.4 4.9 135.9 5.5 135.7 6.4 Z M 143.6 4.8 C 143.6 4.8 143.64 4.76 143.6 4.8 C 144.1 3.9 144.6 3.5 145.4 3.5 C 145.6 3.5 145.7 3.5 145.8 3.6 C 145.85 3.58 145.8 5.3 145.8 5.3 C 145.8 5.3 145.81 5.25 145.8 5.3 C 144.6 5.1 143.7 5.8 143.7 7.3 C 143.67 7.29 143.7 10.8 143.7 10.8 L 141.8 10.8 L 141.8 3.6 L 143.6 3.6 L 143.6 4.8 Z M 149.3 0.2 L 150.5 0.2 L 150.5 12.6 L 149.3 12.6 L 149.3 0.2 Z M 157.2 0.8 L 159.3 0.8 L 162.9 10.8 L 160.7 10.8 L 160.1 8.7 L 156.5 8.7 L 155.8 10.8 L 153.7 10.8 L 157.2 0.8 Z M 156.9 7.1 L 159.6 7.1 C 159.6 7.1 158.69 4.23 158.7 4.2 C 158.52 3.7 158.3 2.7 158.3 2.7 L 158.3 2.7 C 158.3 2.7 158 3.7 157.8 4.2 C 157.83 4.23 156.9 7.1 156.9 7.1 Z M 167.9 10.8 L 167.9 10 C 167.9 10 167.83 9.95 167.8 10 C 167.3 10.6 166.8 11 165.8 11 C 164.2 11 163.3 10 163.3 8.4 C 163.28 8.4 163.3 3.6 163.3 3.6 L 165.2 3.6 C 165.2 3.6 165.17 8.08 165.2 8.1 C 165.2 8.9 165.5 9.4 166.4 9.4 C 167.3 9.4 167.8 8.7 167.8 7.8 C 167.8 7.76 167.8 3.6 167.8 3.6 L 169.7 3.6 L 169.7 10.8 L 167.9 10.8 Z M 170.5 3.6 L 171.5 3.6 L 171.5 1.4 L 173.4 1.4 L 173.4 3.6 L 174.6 3.6 L 174.6 4.9 L 173.4 4.9 C 173.4 4.9 173.37 8.67 173.4 8.7 C 173.4 9.2 173.7 9.4 174.1 9.4 C 174.32 9.38 174.6 9.4 174.6 9.4 L 174.6 10.8 C 174.6 10.8 174.21 10.79 173.5 10.8 C 172.5 10.8 171.5 10.4 171.5 9.1 C 171.51 9.07 171.5 4.9 171.5 4.9 L 170.5 4.9 L 170.5 3.6 Z M 175.2 7.2 C 175.2 5.1 176.7 3.4 178.9 3.4 C 181.1 3.4 182.7 5.1 182.7 7.2 C 182.7 9.4 181.1 11 178.9 11 C 176.7 11 175.2 9.4 175.2 7.2 Z M 180.7 7.2 C 180.7 5.8 180.1 4.9 178.9 4.9 C 177.7 4.9 177.1 5.8 177.1 7.2 C 177.1 8.6 177.7 9.5 178.9 9.5 C 180.1 9.5 180.7 8.6 180.7 7.2 Z M 183.7 0.8 C 183.7 0.8 187.61 0.78 187.6 0.8 C 190.3 0.8 192 2.9 192 5.9 C 192 7.5 191.5 8.9 190.4 9.8 C 189.7 10.4 188.7 10.8 187.4 10.8 C 187.44 10.79 183.7 10.8 183.7 10.8 L 183.7 0.8 Z M 187.3 9 C 189.2 9 190 7.9 190 5.9 C 190 3.9 189.1 2.5 187.4 2.5 C 187.36 2.52 185.7 2.5 185.7 2.5 L 185.7 9 C 185.7 9 187.3 9.04 187.3 9 Z M 192.6 7.2 C 192.6 5.1 194.1 3.4 196.2 3.4 C 198.5 3.4 199.7 5.2 199.7 7.7 C 199.7 7.7 194.5 7.7 194.5 7.7 C 194.6 8.8 195.2 9.5 196.3 9.5 C 197.1 9.5 197.5 9.2 197.7 8.7 C 197.7 8.7 199.6 8.7 199.6 8.7 C 199.3 9.9 198.2 11 196.3 11 C 194 11 192.6 9.3 192.6 7.2 Z M 194.5 6.4 C 194.5 6.4 197.7 6.4 197.7 6.4 C 197.7 5.5 197 4.9 196.2 4.9 C 195.2 4.9 194.7 5.5 194.5 6.4 Z M 200.1 8.5 C 200.1 8.5 201.9 8.5 201.9 8.5 C 202 9.3 202.6 9.7 203.5 9.7 C 204.3 9.7 204.8 9.3 204.8 8.8 C 204.8 8.1 203.9 8.1 202.9 7.9 C 201.6 7.6 200.3 7.3 200.3 5.7 C 200.3 4.2 201.6 3.4 203.3 3.4 C 205.2 3.4 206.2 4.4 206.3 5.8 C 206.3 5.8 204.6 5.8 204.6 5.8 C 204.5 5 204 4.7 203.2 4.7 C 202.5 4.7 202 5 202 5.5 C 202 6.2 203 6.2 204 6.4 C 205.2 6.7 206.5 7 206.5 8.7 C 206.5 10.1 205.3 11 203.5 11 C 201.4 11 200.2 10 200.1 8.5 Z M 210.1 7.5 L 209.3 8.4 L 209.3 10.8 L 207.4 10.8 L 207.4 0.8 L 209.3 0.8 L 209.3 6.3 L 211.8 3.6 L 214.1 3.6 L 211.4 6.3 L 214.4 10.8 L 212.1 10.8 L 210.1 7.5 Z M 217.5 0.8 L 224.7 0.8 L 224.7 2.5 L 219.5 2.5 L 219.5 4.9 L 223.9 4.9 L 223.9 6.6 L 219.5 6.6 L 219.5 10.8 L 217.5 10.8 L 217.5 0.8 Z M 229.8 10.8 L 229.8 10 C 229.8 10 229.75 9.95 229.8 10 C 229.3 10.6 228.7 11 227.7 11 C 226.1 11 225.2 10 225.2 8.4 C 225.2 8.4 225.2 3.6 225.2 3.6 L 227.1 3.6 C 227.1 3.6 227.09 8.08 227.1 8.1 C 227.1 8.9 227.5 9.4 228.3 9.4 C 229.2 9.4 229.7 8.7 229.7 7.8 C 229.72 7.76 229.7 3.6 229.7 3.6 L 231.6 3.6 L 231.6 10.8 L 229.8 10.8 Z M 232.4 8.5 C 232.4 8.5 234.2 8.5 234.2 8.5 C 234.3 9.3 234.9 9.7 235.7 9.7 C 236.6 9.7 237.1 9.3 237.1 8.8 C 237.1 8.1 236.1 8.1 235.2 7.9 C 233.9 7.6 232.6 7.3 232.6 5.7 C 232.6 4.2 233.9 3.4 235.5 3.4 C 237.4 3.4 238.5 4.4 238.6 5.8 C 238.6 5.8 236.9 5.8 236.9 5.8 C 236.8 5 236.3 4.7 235.5 4.7 C 234.8 4.7 234.3 5 234.3 5.5 C 234.3 6.2 235.2 6.2 236.3 6.4 C 237.5 6.7 238.8 7 238.8 8.7 C 238.8 10.1 237.6 11 235.8 11 C 233.7 11 232.5 10 232.4 8.5 Z M 239.6 3.6 L 241.6 3.6 L 241.6 10.8 L 239.6 10.8 L 239.6 3.6 Z M 239.6 0.8 L 241.6 0.8 L 241.6 2.5 L 239.6 2.5 L 239.6 0.8 Z M 242.4 7.2 C 242.4 5.1 244 3.4 246.2 3.4 C 248.4 3.4 249.9 5.1 249.9 7.2 C 249.9 9.4 248.4 11 246.2 11 C 244 11 242.4 9.4 242.4 7.2 Z M 248 7.2 C 248 5.8 247.3 4.9 246.2 4.9 C 245 4.9 244.4 5.8 244.4 7.2 C 244.4 8.6 245 9.5 246.2 9.5 C 247.3 9.5 248 8.6 248 7.2 Z M 252.7 4.6 C 252.7 4.6 252.72 4.59 252.7 4.6 C 253.2 3.8 253.9 3.4 254.9 3.4 C 256.3 3.4 257.3 4.5 257.3 6.1 C 257.33 6.1 257.3 10.8 257.3 10.8 L 255.4 10.8 C 255.4 10.8 255.43 6.38 255.4 6.4 C 255.4 5.6 255 5.1 254.2 5.1 C 253.3 5.1 252.7 5.7 252.7 6.7 C 252.72 6.72 252.7 10.8 252.7 10.8 L 250.8 10.8 L 250.8 3.6 L 252.7 3.6 L 252.7 4.6 Z " stroke="none" fill="#000"/>  </g></svg>