<?xml version="1.0" standalone="no"?><!DOCTYPE svg PUBLIC "-//W3C//DTD SVG 1.1//EN" "http://www.w3.org/Graphics/SVG/1.1/DTD/svg11.dtd"><svg xmlns="http://www.w3.org/2000/svg" version="1.1" width="484px" height="30.6px" viewBox="0 -4 484 30.6" style="top:-4px">  <desc>Simplicity - Ease of initial setup and increase in durability</desc>  <defs/>  <g id="Polygon7786">    <path d="M 94 9.1 L 99.5 9.1 L 99.5 11.9 L 94 11.9 L 94 9.1 Z M 104.5 1.2 L 114.6 1.2 L 114.6 2.8 L 106.3 2.8 L 106.3 7.3 L 113.9 7.3 L 113.9 8.8 L 106.3 8.8 L 106.3 13.8 L 114.9 13.8 L 114.9 15.5 L 104.5 15.5 L 104.5 1.2 Z M 123.1 14.1 C 123.1 14.1 123 14.1 123 14.1 C 122.4 14.9 121.4 15.7 119.6 15.7 C 117.6 15.7 116.1 14.8 116.1 12.8 C 116.1 10.4 118 9.9 120.6 9.5 C 122.1 9.3 123.1 9.1 123.1 8 C 123.1 6.8 122.2 6.2 120.8 6.2 C 119.1 6.2 118.2 6.9 118.2 8.5 C 118.2 8.5 116.6 8.5 116.6 8.5 C 116.7 6.5 118 5 120.7 5 C 122.9 5 124.6 5.8 124.6 8.2 C 124.6 8.2 124.6 13.2 124.6 13.2 C 124.6 14 124.8 14.5 125.7 14.3 C 125.66 14.26 125.7 14.3 125.7 14.3 C 125.7 14.3 125.72 15.44 125.7 15.4 C 125.5 15.5 125.3 15.6 124.8 15.6 C 123.8 15.6 123.2 15.1 123.1 14.1 Z M 123.1 11.7 C 123.1 11.7 123.1 9.9 123.1 9.9 C 122.6 10.3 121.6 10.5 120.7 10.7 C 119.1 11 117.8 11.3 117.8 12.8 C 117.8 14.2 118.9 14.5 120 14.5 C 122.1 14.5 123.1 12.9 123.1 11.7 Z M 126.3 12.1 C 126.3 12.1 127.9 12.1 127.9 12.1 C 128.1 13.9 129.3 14.4 130.9 14.4 C 132.6 14.4 133.3 13.7 133.3 12.7 C 133.3 11.6 132.5 11.3 130.6 10.9 C 128.5 10.5 126.7 10 126.7 7.8 C 126.7 6.1 128 4.9 130.4 4.9 C 133 4.9 134.3 6.2 134.5 8.2 C 134.5 8.2 132.8 8.2 132.8 8.2 C 132.7 6.8 131.9 6.2 130.4 6.2 C 128.9 6.2 128.3 6.9 128.3 7.7 C 128.3 8.8 129.3 9 131.1 9.4 C 133.2 9.8 134.9 10.3 134.9 12.7 C 134.9 14.7 133.2 15.8 130.8 15.8 C 128 15.8 126.4 14.5 126.3 12.1 Z M 136.1 10.3 C 136.1 7.3 138.1 4.9 141 4.9 C 144.1 4.9 145.8 7.3 145.8 10.7 C 145.8 10.7 137.8 10.7 137.8 10.7 C 137.9 12.8 139 14.4 141.1 14.4 C 142.6 14.4 143.6 13.7 144 12.3 C 144 12.3 145.5 12.3 145.5 12.3 C 145.1 14.5 143.4 15.8 141.1 15.8 C 137.9 15.8 136.1 13.3 136.1 10.3 Z M 137.8 9.5 C 137.8 9.5 144 9.5 144 9.5 C 143.9 7.4 142.9 6.2 141 6.2 C 139.1 6.2 138 7.6 137.8 9.5 Z M 149.9 10.3 C 149.9 7.3 151.9 4.9 154.9 4.9 C 158 4.9 159.9 7.3 159.9 10.3 C 159.9 13.3 158 15.8 154.9 15.8 C 151.9 15.8 149.9 13.3 149.9 10.3 Z M 158.3 10.3 C 158.3 8.1 157.1 6.2 154.9 6.2 C 152.7 6.2 151.6 8.1 151.6 10.3 C 151.6 12.6 152.7 14.4 154.9 14.4 C 157.1 14.4 158.3 12.6 158.3 10.3 Z M 160.7 5.2 L 162.1 5.2 C 162.1 5.2 162.1 3.5 162.1 3.5 C 162.1 1.7 163.1 1.1 164.8 1.1 C 165.2 1.1 165.4 1.1 165.7 1.1 C 165.7 1.1 165.7 2.5 165.7 2.5 C 165.4 2.5 165.3 2.5 165.1 2.5 C 164.1 2.5 163.7 2.7 163.7 3.6 C 163.72 3.58 163.7 5.2 163.7 5.2 L 165.6 5.2 L 165.6 6.5 L 163.7 6.5 L 163.7 15.5 L 162.1 15.5 L 162.1 6.5 L 160.7 6.5 L 160.7 5.2 Z M 170.4 5.2 L 172 5.2 L 172 15.5 L 170.4 15.5 L 170.4 5.2 Z M 170.4 1.2 L 172 1.2 L 172 3.2 L 170.4 3.2 L 170.4 1.2 Z M 175.8 6.5 C 175.8 6.5 175.88 6.52 175.9 6.5 C 176.6 5.5 177.7 4.9 179.2 4.9 C 181.3 4.9 182.6 6.1 182.6 8.2 C 182.64 8.24 182.6 15.5 182.6 15.5 L 181 15.5 C 181 15.5 181.02 8.38 181 8.4 C 181 7 180.1 6.3 178.7 6.3 C 177 6.3 175.8 7.4 175.8 9.1 C 175.84 9.14 175.8 15.5 175.8 15.5 L 174.2 15.5 L 174.2 5.2 L 175.8 5.2 L 175.8 6.5 Z M 184.8 5.2 L 186.4 5.2 L 186.4 15.5 L 184.8 15.5 L 184.8 5.2 Z M 184.8 1.2 L 186.4 1.2 L 186.4 3.2 L 184.8 3.2 L 184.8 1.2 Z M 187.9 5.2 L 189.4 5.2 L 189.4 1.9 L 191.1 1.9 L 191.1 5.2 L 193.1 5.2 L 193.1 6.5 L 191.1 6.5 C 191.1 6.5 191.06 13.2 191.1 13.2 C 191.1 13.9 191.4 14.2 192.1 14.2 C 192.4 14.2 192.8 14.1 193 14 C 192.96 14.02 193 14 193 14 C 193 14 193.02 15.42 193 15.4 C 192.6 15.5 192.2 15.6 191.7 15.6 C 190.4 15.6 189.4 15 189.4 13.6 C 189.44 13.56 189.4 6.5 189.4 6.5 L 187.9 6.5 L 187.9 5.2 Z M 194.7 5.2 L 196.4 5.2 L 196.4 15.5 L 194.7 15.5 L 194.7 5.2 Z M 194.7 1.2 L 196.4 1.2 L 196.4 3.2 L 194.7 3.2 L 194.7 1.2 Z M 204.9 14.1 C 204.9 14.1 204.9 14.1 204.9 14.1 C 204.3 14.9 203.2 15.7 201.4 15.7 C 199.5 15.7 197.9 14.8 197.9 12.8 C 197.9 10.4 199.9 9.9 202.4 9.5 C 203.9 9.3 204.9 9.1 204.9 8 C 204.9 6.8 204.1 6.2 202.6 6.2 C 200.9 6.2 200.1 6.9 200 8.5 C 200 8.5 198.5 8.5 198.5 8.5 C 198.5 6.5 199.8 5 202.6 5 C 204.8 5 206.4 5.8 206.4 8.2 C 206.4 8.2 206.4 13.2 206.4 13.2 C 206.4 14 206.6 14.5 207.5 14.3 C 207.5 14.26 207.6 14.3 207.6 14.3 C 207.6 14.3 207.56 15.44 207.6 15.4 C 207.4 15.5 207.1 15.6 206.7 15.6 C 205.6 15.6 205.1 15.1 204.9 14.1 Z M 204.9 11.7 C 204.9 11.7 204.9 9.9 204.9 9.9 C 204.4 10.3 203.5 10.5 202.6 10.7 C 201 11 199.7 11.3 199.7 12.8 C 199.7 14.2 200.7 14.5 201.8 14.5 C 204 14.5 204.9 12.9 204.9 11.7 Z M 208.8 1.2 L 210.4 1.2 L 210.4 15.5 L 208.8 15.5 L 208.8 1.2 Z M 215.2 12.1 C 215.2 12.1 216.9 12.1 216.9 12.1 C 217.1 13.9 218.3 14.4 219.8 14.4 C 221.5 14.4 222.2 13.7 222.2 12.7 C 222.2 11.6 221.4 11.3 219.5 10.9 C 217.5 10.5 215.7 10 215.7 7.8 C 215.7 6.1 217 4.9 219.4 4.9 C 222 4.9 223.2 6.2 223.5 8.2 C 223.5 8.2 221.8 8.2 221.8 8.2 C 221.6 6.8 220.9 6.2 219.4 6.2 C 217.9 6.2 217.3 6.9 217.3 7.7 C 217.3 8.8 218.3 9 220.1 9.4 C 222.1 9.8 223.9 10.3 223.9 12.7 C 223.9 14.7 222.2 15.8 219.8 15.8 C 217 15.8 215.4 14.5 215.2 12.1 Z M 225.1 10.3 C 225.1 7.3 227 4.9 230 4.9 C 233.1 4.9 234.7 7.3 234.7 10.7 C 234.7 10.7 226.7 10.7 226.7 10.7 C 226.8 12.8 228 14.4 230.1 14.4 C 231.6 14.4 232.6 13.7 232.9 12.3 C 232.9 12.3 234.5 12.3 234.5 12.3 C 234 14.5 232.4 15.8 230.1 15.8 C 226.9 15.8 225.1 13.3 225.1 10.3 Z M 226.8 9.5 C 226.8 9.5 233 9.5 233 9.5 C 232.9 7.4 231.8 6.2 230 6.2 C 228 6.2 227 7.6 226.8 9.5 Z M 235.4 5.2 L 236.9 5.2 L 236.9 1.9 L 238.6 1.9 L 238.6 5.2 L 240.6 5.2 L 240.6 6.5 L 238.6 6.5 C 238.6 6.5 238.56 13.2 238.6 13.2 C 238.6 13.9 238.9 14.2 239.6 14.2 C 239.9 14.2 240.3 14.1 240.5 14 C 240.46 14.02 240.5 14 240.5 14 C 240.5 14 240.52 15.42 240.5 15.4 C 240.1 15.5 239.7 15.6 239.2 15.6 C 237.9 15.6 236.9 15 236.9 13.6 C 236.94 13.56 236.9 6.5 236.9 6.5 L 235.4 6.5 L 235.4 5.2 Z M 248.8 15.5 L 248.8 14.1 C 248.8 14.1 248.78 14.08 248.8 14.1 C 248 15.1 247.2 15.7 245.7 15.7 C 243.5 15.7 242.2 14.5 242.2 12.3 C 242.18 12.32 242.2 5.2 242.2 5.2 L 243.8 5.2 C 243.8 5.2 243.8 12.28 243.8 12.3 C 243.8 13.6 244.7 14.4 246.1 14.4 C 247.8 14.4 248.8 13.2 248.8 11.5 C 248.82 11.52 248.8 5.2 248.8 5.2 L 250.4 5.2 L 250.4 15.5 L 248.8 15.5 Z M 252.6 5.2 L 254.3 5.2 L 254.3 6.6 C 254.3 6.6 254.3 6.62 254.3 6.6 C 255.1 5.6 256.1 4.9 257.6 4.9 C 260.2 4.9 262.1 6.9 262.1 10.4 C 262.1 13.7 260.4 15.8 257.6 15.8 C 256.2 15.8 255.2 15.4 254.3 14.3 C 254.3 14.28 254.3 14.3 254.3 14.3 L 254.3 18.8 L 252.6 18.8 L 252.6 5.2 Z M 260.4 10.4 C 260.4 8.1 259.4 6.3 257.5 6.3 C 255.2 6.3 254.2 8.1 254.2 10.4 C 254.2 12.6 255.1 14.4 257.4 14.4 C 259.4 14.4 260.4 12.7 260.4 10.4 Z M 273.2 14.1 C 273.2 14.1 273.2 14.1 273.2 14.1 C 272.6 14.9 271.5 15.7 269.7 15.7 C 267.8 15.7 266.2 14.8 266.2 12.8 C 266.2 10.4 268.2 9.9 270.7 9.5 C 272.2 9.3 273.2 9.1 273.2 8 C 273.2 6.8 272.4 6.2 270.9 6.2 C 269.2 6.2 268.4 6.9 268.3 8.5 C 268.3 8.5 266.8 8.5 266.8 8.5 C 266.8 6.5 268.1 5 270.9 5 C 273.1 5 274.7 5.8 274.7 8.2 C 274.7 8.2 274.7 13.2 274.7 13.2 C 274.7 14 274.9 14.5 275.8 14.3 C 275.8 14.26 275.9 14.3 275.9 14.3 C 275.9 14.3 275.86 15.44 275.9 15.4 C 275.7 15.5 275.4 15.6 275 15.6 C 273.9 15.6 273.4 15.1 273.2 14.1 Z M 273.2 11.7 C 273.2 11.7 273.2 9.9 273.2 9.9 C 272.7 10.3 271.8 10.5 270.9 10.7 C 269.3 11 268 11.3 268 12.8 C 268 14.2 269 14.5 270.1 14.5 C 272.3 14.5 273.2 12.9 273.2 11.7 Z M 278.7 6.5 C 278.7 6.5 278.72 6.52 278.7 6.5 C 279.5 5.5 280.5 4.9 282 4.9 C 284.2 4.9 285.5 6.1 285.5 8.2 C 285.48 8.24 285.5 15.5 285.5 15.5 L 283.9 15.5 C 283.9 15.5 283.86 8.38 283.9 8.4 C 283.9 7 283 6.3 281.5 6.3 C 279.9 6.3 278.7 7.4 278.7 9.1 C 278.68 9.14 278.7 15.5 278.7 15.5 L 277.1 15.5 L 277.1 5.2 L 278.7 5.2 L 278.7 6.5 Z M 287 10.4 C 287 6.9 289 4.9 291.6 4.9 C 293 4.9 294.2 5.6 294.8 6.6 C 294.82 6.62 294.9 6.6 294.9 6.6 L 294.9 1.2 L 296.5 1.2 L 296.5 15.5 L 294.9 15.5 L 294.9 14.2 C 294.9 14.2 294.82 14.24 294.8 14.2 C 294 15.2 293.1 15.8 291.6 15.8 C 288.8 15.8 287 13.7 287 10.4 Z M 295 10.4 C 295 8 293.8 6.3 291.7 6.3 C 289.7 6.3 288.7 8.1 288.7 10.4 C 288.7 12.7 289.7 14.4 291.7 14.4 C 294 14.4 295 12.7 295 10.4 Z M 301.9 5.2 L 303.5 5.2 L 303.5 15.5 L 301.9 15.5 L 301.9 5.2 Z M 301.9 1.2 L 303.5 1.2 L 303.5 3.2 L 301.9 3.2 L 301.9 1.2 Z M 307.3 6.5 C 307.3 6.5 307.34 6.52 307.3 6.5 C 308.1 5.5 309.1 4.9 310.6 4.9 C 312.8 4.9 314.1 6.1 314.1 8.2 C 314.1 8.24 314.1 15.5 314.1 15.5 L 312.5 15.5 C 312.5 15.5 312.48 8.38 312.5 8.4 C 312.5 7 311.6 6.3 310.1 6.3 C 308.5 6.3 307.3 7.4 307.3 9.1 C 307.3 9.14 307.3 15.5 307.3 15.5 L 305.7 15.5 L 305.7 5.2 L 307.3 5.2 L 307.3 6.5 Z M 315.7 10.3 C 315.7 7.3 317.6 4.9 320.7 4.9 C 323.1 4.9 324.7 6.3 325.1 8.5 C 325.1 8.5 323.4 8.5 323.4 8.5 C 323.2 7.1 322.2 6.2 320.7 6.2 C 318.5 6.2 317.3 8.1 317.3 10.3 C 317.3 12.6 318.5 14.4 320.7 14.4 C 322.3 14.4 323.3 13.5 323.5 11.9 C 323.5 11.9 325.1 11.9 325.1 11.9 C 324.9 14.3 323.2 15.8 320.7 15.8 C 317.6 15.8 315.7 13.3 315.7 10.3 Z M 328.2 6.9 C 328.2 6.9 328.28 6.88 328.3 6.9 C 328.9 5.9 330 5 331.4 5 C 331.7 5 331.8 5.1 332 5.2 C 332.02 5.16 332 6.7 332 6.7 C 332 6.7 331.96 6.72 332 6.7 C 331.7 6.6 331.6 6.6 331.2 6.6 C 329.6 6.6 328.2 7.8 328.2 9.8 C 328.24 9.76 328.2 15.5 328.2 15.5 L 326.6 15.5 L 326.6 5.2 L 328.2 5.2 L 328.2 6.9 Z M 332.5 10.3 C 332.5 7.3 334.5 4.9 337.4 4.9 C 340.5 4.9 342.2 7.3 342.2 10.7 C 342.2 10.7 334.2 10.7 334.2 10.7 C 334.3 12.8 335.4 14.4 337.5 14.4 C 339 14.4 340 13.7 340.4 12.3 C 340.4 12.3 341.9 12.3 341.9 12.3 C 341.5 14.5 339.8 15.8 337.5 15.8 C 334.3 15.8 332.5 13.3 332.5 10.3 Z M 334.2 9.5 C 334.2 9.5 340.4 9.5 340.4 9.5 C 340.3 7.4 339.3 6.2 337.4 6.2 C 335.5 6.2 334.4 7.6 334.2 9.5 Z M 350.1 14.1 C 350.1 14.1 350.1 14.1 350.1 14.1 C 349.4 14.9 348.4 15.7 346.6 15.7 C 344.7 15.7 343.1 14.8 343.1 12.8 C 343.1 10.4 345 9.9 347.6 9.5 C 349.1 9.3 350.1 9.1 350.1 8 C 350.1 6.8 349.3 6.2 347.8 6.2 C 346.1 6.2 345.3 6.9 345.2 8.5 C 345.2 8.5 343.6 8.5 343.6 8.5 C 343.7 6.5 345 5 347.8 5 C 350 5 351.6 5.8 351.6 8.2 C 351.6 8.2 351.6 13.2 351.6 13.2 C 351.6 14 351.8 14.5 352.7 14.3 C 352.68 14.26 352.7 14.3 352.7 14.3 C 352.7 14.3 352.74 15.44 352.7 15.4 C 352.5 15.5 352.3 15.6 351.9 15.6 C 350.8 15.6 350.2 15.1 350.1 14.1 Z M 350.1 11.7 C 350.1 11.7 350.1 9.9 350.1 9.9 C 349.6 10.3 348.6 10.5 347.8 10.7 C 346.1 11 344.8 11.3 344.8 12.8 C 344.8 14.2 345.9 14.5 347 14.5 C 349.1 14.5 350.1 12.9 350.1 11.7 Z M 353.3 12.1 C 353.3 12.1 354.9 12.1 354.9 12.1 C 355.2 13.9 356.4 14.4 357.9 14.4 C 359.6 14.4 360.3 13.7 360.3 12.7 C 360.3 11.6 359.5 11.3 357.6 10.9 C 355.6 10.5 353.7 10 353.7 7.8 C 353.7 6.1 355.1 4.9 357.5 4.9 C 360 4.9 361.3 6.2 361.5 8.2 C 361.5 8.2 359.9 8.2 359.9 8.2 C 359.7 6.8 359 6.2 357.4 6.2 C 355.9 6.2 355.3 6.9 355.3 7.7 C 355.3 8.8 356.3 9 358.1 9.4 C 360.2 9.8 361.9 10.3 361.9 12.7 C 361.9 14.7 360.2 15.8 357.9 15.8 C 355 15.8 353.4 14.5 353.3 12.1 Z M 363.1 10.3 C 363.1 7.3 365.1 4.9 368 4.9 C 371.1 4.9 372.8 7.3 372.8 10.7 C 372.8 10.7 364.8 10.7 364.8 10.7 C 364.9 12.8 366 14.4 368.1 14.4 C 369.6 14.4 370.6 13.7 371 12.3 C 371 12.3 372.6 12.3 372.6 12.3 C 372.1 14.5 370.5 15.8 368.1 15.8 C 365 15.8 363.1 13.3 363.1 10.3 Z M 364.8 9.5 C 364.8 9.5 371 9.5 371 9.5 C 370.9 7.4 369.9 6.2 368 6.2 C 366.1 6.2 365.1 7.6 364.8 9.5 Z M 377.5 5.2 L 379.2 5.2 L 379.2 15.5 L 377.5 15.5 L 377.5 5.2 Z M 377.5 1.2 L 379.2 1.2 L 379.2 3.2 L 377.5 3.2 L 377.5 1.2 Z M 383 6.5 C 383 6.5 383.01 6.52 383 6.5 C 383.8 5.5 384.8 4.9 386.3 4.9 C 388.5 4.9 389.8 6.1 389.8 8.2 C 389.77 8.24 389.8 15.5 389.8 15.5 L 388.2 15.5 C 388.2 15.5 388.15 8.38 388.2 8.4 C 388.2 7 387.3 6.3 385.8 6.3 C 384.2 6.3 383 7.4 383 9.1 C 382.97 9.14 383 15.5 383 15.5 L 381.4 15.5 L 381.4 5.2 L 383 5.2 L 383 6.5 Z M 394.5 10.4 C 394.5 6.9 396.5 4.9 399.1 4.9 C 400.5 4.9 401.6 5.6 402.3 6.6 C 402.29 6.62 402.3 6.6 402.3 6.6 L 402.3 1.2 L 404 1.2 L 404 15.5 L 402.3 15.5 L 402.3 14.2 C 402.3 14.2 402.29 14.24 402.3 14.2 C 401.5 15.2 400.6 15.8 399.1 15.8 C 396.3 15.8 394.5 13.7 394.5 10.4 Z M 402.4 10.4 C 402.4 8 401.3 6.3 399.1 6.3 C 397.2 6.3 396.2 8.1 396.2 10.4 C 396.2 12.7 397.2 14.4 399.2 14.4 C 401.5 14.4 402.4 12.7 402.4 10.4 Z M 412.7 15.5 L 412.7 14.1 C 412.7 14.1 412.69 14.08 412.7 14.1 C 412 15.1 411.1 15.7 409.6 15.7 C 407.5 15.7 406.1 14.5 406.1 12.3 C 406.09 12.32 406.1 5.2 406.1 5.2 L 407.7 5.2 C 407.7 5.2 407.71 12.28 407.7 12.3 C 407.7 13.6 408.6 14.4 410 14.4 C 411.7 14.4 412.7 13.2 412.7 11.5 C 412.73 11.52 412.7 5.2 412.7 5.2 L 414.4 5.2 L 414.4 15.5 L 412.7 15.5 Z M 418.2 6.9 C 418.2 6.9 418.21 6.88 418.2 6.9 C 418.8 5.9 419.9 5 421.3 5 C 421.6 5 421.8 5.1 422 5.2 C 421.95 5.16 422 6.7 422 6.7 C 422 6.7 421.89 6.72 421.9 6.7 C 421.7 6.6 421.5 6.6 421.2 6.6 C 419.6 6.6 418.2 7.8 418.2 9.8 C 418.17 9.76 418.2 15.5 418.2 15.5 L 416.6 15.5 L 416.6 5.2 L 418.2 5.2 L 418.2 6.9 Z M 429.4 14.1 C 429.4 14.1 429.3 14.1 429.3 14.1 C 428.7 14.9 427.7 15.7 425.9 15.7 C 423.9 15.7 422.4 14.8 422.4 12.8 C 422.4 10.4 424.3 9.9 426.9 9.5 C 428.4 9.3 429.4 9.1 429.4 8 C 429.4 6.8 428.5 6.2 427.1 6.2 C 425.4 6.2 424.5 6.9 424.5 8.5 C 424.5 8.5 422.9 8.5 422.9 8.5 C 423 6.5 424.3 5 427 5 C 429.2 5 430.9 5.8 430.9 8.2 C 430.9 8.2 430.9 13.2 430.9 13.2 C 430.9 14 431.1 14.5 432 14.3 C 431.95 14.26 432 14.3 432 14.3 C 432 14.3 432.01 15.44 432 15.4 C 431.8 15.5 431.6 15.6 431.1 15.6 C 430.1 15.6 429.5 15.1 429.4 14.1 Z M 429.4 11.7 C 429.4 11.7 429.4 9.9 429.4 9.9 C 428.9 10.3 427.9 10.5 427 10.7 C 425.4 11 424.1 11.3 424.1 12.8 C 424.1 14.2 425.2 14.5 426.3 14.5 C 428.4 14.5 429.4 12.9 429.4 11.7 Z M 434.9 14.1 C 434.87 14.14 434.8 14.1 434.8 14.1 L 434.8 15.5 L 433.2 15.5 L 433.2 1.2 L 434.8 1.2 L 434.8 6.6 C 434.8 6.6 434.87 6.64 434.9 6.6 C 435.7 5.6 436.7 4.9 438.2 4.9 C 440.8 4.9 442.6 6.9 442.6 10.4 C 442.6 13.7 440.9 15.8 438.1 15.8 C 436.7 15.8 435.7 15.3 434.9 14.1 Z M 440.9 10.4 C 440.9 8.1 440 6.3 438 6.3 C 435.8 6.3 434.7 8.1 434.7 10.4 C 434.7 12.7 435.8 14.4 438 14.4 C 440 14.4 440.9 12.7 440.9 10.4 Z M 444.2 5.2 L 445.8 5.2 L 445.8 15.5 L 444.2 15.5 L 444.2 5.2 Z M 444.2 1.2 L 445.8 1.2 L 445.8 3.2 L 444.2 3.2 L 444.2 1.2 Z M 448.1 1.2 L 449.7 1.2 L 449.7 15.5 L 448.1 15.5 L 448.1 1.2 Z M 452 5.2 L 453.6 5.2 L 453.6 15.5 L 452 15.5 L 452 5.2 Z M 452 1.2 L 453.6 1.2 L 453.6 3.2 L 452 3.2 L 452 1.2 Z M 455.1 5.2 L 456.6 5.2 L 456.6 1.9 L 458.3 1.9 L 458.3 5.2 L 460.3 5.2 L 460.3 6.5 L 458.3 6.5 C 458.3 6.5 458.25 13.2 458.3 13.2 C 458.3 13.9 458.6 14.2 459.3 14.2 C 459.6 14.2 460 14.1 460.2 14 C 460.15 14.02 460.2 14 460.2 14 C 460.2 14 460.21 15.42 460.2 15.4 C 459.8 15.5 459.4 15.6 458.9 15.6 C 457.6 15.6 456.6 15 456.6 13.6 C 456.63 13.56 456.6 6.5 456.6 6.5 L 455.1 6.5 L 455.1 5.2 Z M 461.8 18.7 C 461.79 18.7 461.8 17.3 461.8 17.3 C 461.8 17.3 461.87 17.26 461.9 17.3 C 462.1 17.4 462.4 17.5 463 17.5 C 463.7 17.5 464.1 17.2 464.5 16.2 C 464.51 16.22 464.9 15.2 464.9 15.2 L 460.9 5.2 L 462.6 5.2 C 462.6 5.2 465.07 11.6 465.1 11.6 C 465.39 12.46 465.8 13.6 465.8 13.6 L 465.8 13.6 C 465.8 13.6 466.17 12.46 466.5 11.6 C 466.49 11.6 468.9 5.2 468.9 5.2 L 470.6 5.2 C 470.6 5.2 466.15 16.34 466.2 16.3 C 465.3 18.5 464.5 18.9 463.3 18.9 C 462.6 18.9 462.2 18.9 461.8 18.7 Z " stroke="none" fill="#000"/>  </g>  <g id="Polygon7785">    <path d="M 0.3 11 C 0.3 11 3.9 11 3.9 11 C 4 12.4 5 13 6.7 13 C 7.8 13 9 12.6 9 11.5 C 9 10.4 7.8 10.2 5.8 9.7 C 3.4 9.1 0.7 8.3 0.7 5.3 C 0.7 2.3 3.2 0.9 6.4 0.9 C 9.5 0.9 11.9 2.3 12.1 5.3 C 12.1 5.3 8.6 5.3 8.6 5.3 C 8.5 4.2 7.6 3.6 6.3 3.6 C 5.1 3.6 4.2 4.2 4.2 5 C 4.2 6 5.3 6.2 7.5 6.7 C 10.1 7.3 12.5 8.1 12.5 11.2 C 12.5 14.2 10 15.8 6.7 15.8 C 2.9 15.8 0.4 14.2 0.3 11 Z M 13.8 5.3 L 17 5.3 L 17 15.5 L 13.8 15.5 L 13.8 5.3 Z M 13.8 1.2 L 17 1.2 L 17 3.8 L 13.8 3.8 L 13.8 1.2 Z M 18.6 5.3 L 21.7 5.3 L 21.7 6.7 C 21.7 6.7 21.78 6.72 21.8 6.7 C 22.4 5.7 23.4 5 24.9 5 C 26.2 5 27.2 5.7 27.8 6.8 C 27.8 6.8 27.8 6.8 27.8 6.8 C 28.6 5.5 29.7 5 31 5 C 33.3 5 34.5 6.5 34.5 8.8 C 34.5 8.84 34.5 15.5 34.5 15.5 L 31.2 15.5 C 31.2 15.5 31.24 9.42 31.2 9.4 C 31.2 8.3 30.8 7.7 29.8 7.7 C 28.8 7.7 28.2 8.5 28.2 9.8 C 28.18 9.76 28.2 15.5 28.2 15.5 L 24.9 15.5 C 24.9 15.5 24.92 9.42 24.9 9.4 C 24.9 8.3 24.5 7.7 23.5 7.7 C 22.5 7.7 21.9 8.5 21.9 9.8 C 21.86 9.76 21.9 15.5 21.9 15.5 L 18.6 15.5 L 18.6 5.3 Z M 36 5.3 L 39.1 5.3 L 39.1 6.5 C 39.1 6.5 39.16 6.5 39.2 6.5 C 39.9 5.6 40.9 5 42.3 5 C 45 5 46.6 7.3 46.6 10.4 C 46.6 13.7 44.9 15.8 42.2 15.8 C 40.9 15.8 39.9 15.3 39.3 14.4 C 39.28 14.44 39.2 14.4 39.2 14.4 L 39.2 18.9 L 36 18.9 L 36 5.3 Z M 43.3 10.5 C 43.3 8.7 42.7 7.6 41.3 7.6 C 39.9 7.6 39.1 8.8 39.1 10.5 C 39.1 12.2 39.9 13.3 41.3 13.3 C 42.6 13.3 43.3 12.2 43.3 10.5 Z M 47.8 1.2 L 51.1 1.2 L 51.1 15.5 L 47.8 15.5 L 47.8 1.2 Z M 52.6 5.3 L 55.9 5.3 L 55.9 15.5 L 52.6 15.5 L 52.6 5.3 Z M 52.6 1.2 L 55.9 1.2 L 55.9 3.8 L 52.6 3.8 L 52.6 1.2 Z M 57 10.4 C 57 7.3 59.1 5 62.4 5 C 65.1 5 66.9 6.6 67.2 8.9 C 67.2 8.9 64.1 8.9 64.1 8.9 C 63.9 8 63.3 7.4 62.4 7.4 C 61 7.4 60.3 8.5 60.3 10.4 C 60.3 12.2 61 13.4 62.4 13.4 C 63.4 13.4 64 12.8 64.2 11.6 C 64.2 11.6 67.3 11.6 67.3 11.6 C 67.2 14 65.3 15.8 62.4 15.8 C 59.1 15.8 57 13.5 57 10.4 Z M 68.3 5.3 L 71.6 5.3 L 71.6 15.5 L 68.3 15.5 L 68.3 5.3 Z M 68.3 1.2 L 71.6 1.2 L 71.6 3.8 L 68.3 3.8 L 68.3 1.2 Z M 74 12.8 C 73.96 12.8 74 7.3 74 7.3 L 72.6 7.3 L 72.6 5.3 L 74 5.3 L 74 2 L 77.1 2 L 77.1 5.3 L 79 5.3 L 79 7.3 L 77.1 7.3 C 77.1 7.3 77.14 12.1 77.1 12.1 C 77.1 12.9 77.6 13.1 78.3 13.1 C 78.6 13.1 78.9 13.1 79 13.1 C 79 13.1 79 15.5 79 15.5 C 78.7 15.5 78.1 15.6 77.2 15.6 C 75.3 15.6 74 15 74 12.8 Z M 80.8 16.3 C 80.8 16.3 81.94 16.34 81.9 16.3 C 82.9 16.3 83.3 16 83.3 15.3 C 83.3 14.8 83.1 14.2 82.7 13.1 C 82.66 13.14 79.6 5.3 79.6 5.3 L 83.1 5.3 C 83.1 5.3 84.46 9.62 84.5 9.6 C 84.78 10.62 85.1 12 85.1 12 L 85.1 12 C 85.1 12 85.42 10.62 85.7 9.6 C 85.74 9.62 87.1 5.3 87.1 5.3 L 90.3 5.3 C 90.3 5.3 86.8 15.64 86.8 15.6 C 86 18 85 18.9 82.9 18.9 C 82.94 18.88 80.8 18.9 80.8 18.9 L 80.8 16.3 Z " stroke="none" fill="#d12229"/>  </g></svg>