<?xml version="1.0" standalone="no"?><!DOCTYPE svg PUBLIC "-//W3C//DTD SVG 1.1//EN" "http://www.w3.org/Graphics/SVG/1.1/DTD/svg11.dtd"><svg xmlns="http://www.w3.org/2000/svg" version="1.1" width="489px" height="39.1px" viewBox="0 -5 489 39.1" style="top:-5px">  <desc>SKETCHING RENDING PDES 2703</desc>  <defs/>  <g id="Polygon6739">    <path d="M 237.4 0.5 L 239.5 0.5 L 239.5 20.1 L 237.4 20.1 L 237.4 0.5 Z M 245.7 1.3 C 245.7 1.3 252.23 1.32 252.2 1.3 C 253.9 1.3 255.2 1.9 256 2.8 C 256.6 3.6 257 4.6 257 5.8 C 257 8.7 255.4 10.4 251.9 10.4 C 251.94 10.45 247.7 10.4 247.7 10.4 L 247.7 17 L 245.7 17 L 245.7 1.3 Z M 247.7 8.8 C 247.7 8.8 251.79 8.84 251.8 8.8 C 254 8.8 255.1 7.7 255.1 5.9 C 255.1 4 253.9 3 251.9 3 C 251.9 3.04 247.7 3 247.7 3 L 247.7 8.8 Z M 258.9 1.3 C 258.9 1.3 264.66 1.32 264.7 1.3 C 269.4 1.3 271.6 4.5 271.6 9.2 C 271.6 13.9 269.2 17 264.5 17 C 264.5 17.05 258.9 17 258.9 17 L 258.9 1.3 Z M 264.4 15.3 C 268.1 15.3 269.6 12.9 269.6 9.2 C 269.6 5.5 268.3 3 264.6 3 C 264.59 3.04 260.9 3 260.9 3 L 260.9 15.3 C 260.9 15.3 264.44 15.31 264.4 15.3 Z M 274 1.3 L 285.1 1.3 L 285.1 3.1 L 276 3.1 L 276 8 L 284.3 8 L 284.3 9.7 L 276 9.7 L 276 15.2 L 285.4 15.2 L 285.4 17 L 274 17 L 274 1.3 Z M 286.5 11.7 C 286.5 11.7 288.4 11.7 288.4 11.7 C 288.7 14.4 290.3 15.8 293.3 15.8 C 295.4 15.8 297 14.8 297 12.8 C 297 10.7 295.1 10.2 292.3 9.5 C 289.5 8.9 287.1 8.1 287.1 5.2 C 287.1 2.6 289.3 1 292.5 1 C 296.4 1 298.1 3 298.4 5.9 C 298.4 5.9 296.6 5.9 296.6 5.9 C 296.3 3.7 294.8 2.6 292.5 2.6 C 290.4 2.6 289 3.5 289 5.1 C 289 6.9 290.7 7.4 293.1 7.9 C 296.2 8.5 299 9.2 299 12.8 C 299 15.7 296.6 17.4 293.2 17.4 C 288.7 17.4 286.6 14.9 286.5 11.7 Z M 309.6 10 C 311.6 8.9 312.8 8.1 312.8 6.3 C 312.8 4.4 311.5 3.2 309.5 3.2 C 308.4 3.2 307.6 3.5 307.1 4.1 C 306.5 4.8 306.2 5.6 306.2 7.1 C 306.2 7.1 304.3 7.1 304.3 7.1 C 304.3 5.2 304.8 4 305.7 3.1 C 306.7 2.1 308.1 1.6 309.6 1.6 C 312.7 1.6 314.7 3.6 314.7 6.3 C 314.7 9.2 312.7 10.1 310.3 11.5 C 308.7 12.4 306.6 13.6 306.1 15.3 C 306.15 15.29 314.4 15.3 314.4 15.3 L 314.4 17 C 314.4 17 303.93 17.05 303.9 17 C 304.1 13 306.9 11.5 309.6 10 Z M 324.6 3.7 C 324.58 3.67 324.6 3.6 324.6 3.6 L 316 3.6 L 316 2 L 326.5 2 C 326.5 2 326.52 3.5 326.5 3.5 C 323.4 6.2 320.4 11.1 320.1 17 C 320.1 17 318.1 17 318.1 17 C 318.4 11.8 321.2 6.4 324.6 3.7 Z M 327.4 9.5 C 327.4 4.6 329.7 1.6 333.3 1.6 C 336.8 1.6 339.1 4.6 339.1 9.5 C 339.1 14.3 337 17.4 333.3 17.4 C 329.5 17.4 327.4 14.3 327.4 9.5 Z M 337.2 9.5 C 337.2 5.7 335.9 3.2 333.3 3.2 C 330.6 3.2 329.3 5.6 329.3 9.5 C 329.3 13.3 330.6 15.8 333.3 15.8 C 336 15.8 337.2 13.4 337.2 9.5 Z M 340.5 12.1 C 340.5 12.1 342.3 12.1 342.3 12.1 C 342.4 14.5 343.9 15.8 346.4 15.8 C 348.5 15.8 350 14.8 350 12.7 C 350 10.8 348.5 9.7 346 9.7 C 346.01 9.75 345.1 9.7 345.1 9.7 L 345.1 8.3 C 345.1 8.3 345.99 8.32 346 8.3 C 348.3 8.3 349.5 7.3 349.5 5.7 C 349.5 4.1 348.1 3.1 346.3 3.1 C 344.1 3.1 342.8 4.5 342.8 6.6 C 342.8 6.6 341 6.6 341 6.6 C 341 3.6 343 1.6 346.3 1.6 C 349.1 1.6 351.3 3.1 351.3 5.8 C 351.3 7.5 350.3 8.4 348.8 8.9 C 348.8 8.9 348.8 9 348.8 9 C 351 9.5 351.9 10.9 351.9 12.8 C 351.9 15.7 349.5 17.4 346.5 17.4 C 343.2 17.4 340.5 15.5 340.5 12.1 Z " stroke="none" fill="#000"/>  </g>  <g id="Polygon6738">    <path d="M 0.3 12.1 C 0.3 12.1 4.2 12.1 4.2 12.1 C 4.4 13.7 5.5 14.3 7.3 14.3 C 8.6 14.3 9.9 13.9 9.9 12.7 C 9.9 11.4 8.6 11.2 6.4 10.6 C 3.7 10 0.8 9.2 0.8 5.9 C 0.8 2.5 3.5 1 7.1 1 C 10.5 1 13.1 2.6 13.3 5.9 C 13.3 5.9 9.5 5.9 9.5 5.9 C 9.3 4.7 8.4 4 6.9 4 C 5.6 4 4.7 4.6 4.7 5.5 C 4.7 6.6 5.9 6.8 8.2 7.3 C 11.2 8 13.8 8.9 13.8 12.3 C 13.8 15.6 11 17.4 7.3 17.4 C 3.2 17.4 0.4 15.6 0.3 12.1 Z M 15.4 1.3 L 19.3 1.3 L 19.3 7 L 24.7 1.3 L 29.3 1.3 L 23.3 7.6 L 29.7 17 L 25.1 17 L 20.6 10.3 L 19.3 11.6 L 19.3 17 L 15.4 17 L 15.4 1.3 Z M 30.7 1.3 L 42.6 1.3 L 42.6 4.5 L 34.6 4.5 L 34.6 7.3 L 41.5 7.3 L 41.5 10.4 L 34.6 10.4 L 34.6 13.7 L 42.8 13.7 L 42.8 17 L 30.7 17 L 30.7 1.3 Z M 48.4 4.6 L 43.8 4.6 L 43.8 1.3 L 56.9 1.3 L 56.9 4.6 L 52.3 4.6 L 52.3 17 L 48.4 17 L 48.4 4.6 Z M 57.1 9.2 C 57.1 4.6 60.1 1 64.8 1 C 66.6 1 68.2 1.5 69.3 2.4 C 70.7 3.4 71.5 5 71.7 6.7 C 71.7 6.7 67.8 6.7 67.8 6.7 C 67.6 5.3 66.5 4.2 64.8 4.2 C 62.2 4.2 61 6.4 61 9.2 C 61 12.1 62.5 14.2 64.8 14.2 C 66.5 14.2 67.7 13.1 67.9 11.6 C 67.9 11.6 71.8 11.6 71.8 11.6 C 71.7 13.2 70.9 14.6 69.9 15.6 C 68.7 16.8 67.1 17.4 64.8 17.4 C 60.2 17.4 57.1 13.9 57.1 9.2 Z M 73.1 1.3 L 77 1.3 L 77 7.3 L 82.6 7.3 L 82.6 1.3 L 86.5 1.3 L 86.5 17 L 82.6 17 L 82.6 10.5 L 77 10.5 L 77 17 L 73.1 17 L 73.1 1.3 Z M 88.6 1.3 L 92.5 1.3 L 92.5 17 L 88.6 17 L 88.6 1.3 Z M 94.7 1.3 L 98.6 1.3 C 98.6 1.3 103.27 9.22 103.3 9.2 C 103.51 9.66 104.3 11.2 104.3 11.2 L 104.4 11.2 C 104.4 11.2 104.34 9.33 104.3 8.8 C 104.34 8.78 104.3 1.3 104.3 1.3 L 108.2 1.3 L 108.2 17 L 104.2 17 C 104.2 17 99.61 9.26 99.6 9.3 C 99.35 8.84 98.5 7.1 98.5 7.1 L 98.4 7.1 C 98.4 7.1 98.49 9.17 98.5 9.7 C 98.49 9.72 98.5 17 98.5 17 L 94.7 17 L 94.7 1.3 Z M 111.8 15.2 C 110.4 13.7 109.7 11.6 109.7 9.2 C 109.7 6.8 110.5 4.6 112 3.1 C 113.3 1.8 115.1 1 117.4 1 C 121.5 1 123.9 3.2 124.4 6.5 C 124.4 6.5 120.6 6.5 120.6 6.5 C 120.3 5.2 119.3 4.2 117.5 4.2 C 114.9 4.2 113.7 6.4 113.7 9.2 C 113.7 12.1 115.1 14.3 117.6 14.3 C 119.7 14.3 120.9 12.9 121 11.5 C 121.02 11.51 121 11.5 121 11.5 L 118.1 11.5 L 118.1 8.6 L 124.6 8.6 L 124.6 17 L 121.9 17 L 121.7 15.2 C 121.7 15.2 121.64 15.16 121.6 15.2 C 120.6 16.8 119.1 17.4 117.2 17.4 C 114.9 17.4 113.1 16.6 111.8 15.2 Z M 131.6 1.3 L 134.7 1.3 L 128.8 17 L 125.7 17 L 131.6 1.3 Z M 136.1 1.3 C 136.1 1.3 143.66 1.32 143.7 1.3 C 146.8 1.3 149.2 2.9 149.2 5.9 C 149.2 7.7 148.3 9 146.4 9.7 C 146.4 9.7 146.4 9.7 146.4 9.7 C 147.8 10.2 148.5 11 148.7 12.6 C 149 14.7 148.8 16.7 149.4 16.9 C 149.38 16.85 149.4 17 149.4 17 C 149.4 17 145.59 17.05 145.6 17 C 145.2 16.8 145.2 15 145 13.4 C 144.8 11.9 144.1 11.2 142.4 11.2 C 142.38 11.15 140 11.2 140 11.2 L 140 17 L 136.1 17 L 136.1 1.3 Z M 143 8.3 C 144.5 8.3 145.3 7.5 145.3 6.4 C 145.3 5.2 144.5 4.4 143 4.4 C 143.04 4.4 140 4.4 140 4.4 L 140 8.3 C 140 8.3 142.95 8.27 143 8.3 Z M 150.9 1.3 L 162.8 1.3 L 162.8 4.5 L 154.8 4.5 L 154.8 7.3 L 161.7 7.3 L 161.7 10.4 L 154.8 10.4 L 154.8 13.7 L 163 13.7 L 163 17 L 150.9 17 L 150.9 1.3 Z M 164.7 1.3 L 168.6 1.3 C 168.6 1.3 173.29 9.22 173.3 9.2 C 173.53 9.66 174.4 11.2 174.4 11.2 L 174.4 11.2 C 174.4 11.2 174.37 9.33 174.4 8.8 C 174.37 8.78 174.4 1.3 174.4 1.3 L 178.2 1.3 L 178.2 17 L 174.3 17 C 174.3 17 169.64 9.26 169.6 9.3 C 169.38 8.84 168.5 7.1 168.5 7.1 L 168.5 7.1 C 168.5 7.1 168.52 9.17 168.5 9.7 C 168.52 9.72 168.5 17 168.5 17 L 164.7 17 L 164.7 1.3 Z M 186.5 13.8 C 189.1 13.8 190.4 12.2 190.4 9.3 C 190.4 6.4 189 4.6 186.6 4.6 C 186.56 4.58 184.2 4.6 184.2 4.6 L 184.2 13.8 C 184.2 13.8 186.51 13.77 186.5 13.8 Z M 180.3 1.3 C 180.3 1.3 187.04 1.32 187 1.3 C 191.4 1.3 194.3 4.5 194.3 9.3 C 194.3 12.1 193.4 14.3 191.6 15.6 C 190.4 16.5 188.8 17 186.8 17 C 186.8 17.05 180.3 17 180.3 17 L 180.3 1.3 Z M 195.9 1.3 L 199.8 1.3 L 199.8 17 L 195.9 17 L 195.9 1.3 Z M 201.9 1.3 L 205.8 1.3 C 205.8 1.3 210.49 9.22 210.5 9.2 C 210.74 9.66 211.6 11.2 211.6 11.2 L 211.6 11.2 C 211.6 11.2 211.57 9.33 211.6 8.8 C 211.57 8.78 211.6 1.3 211.6 1.3 L 215.4 1.3 L 215.4 17 L 211.5 17 C 211.5 17 206.84 9.26 206.8 9.3 C 206.58 8.84 205.7 7.1 205.7 7.1 L 205.7 7.1 C 205.7 7.1 205.72 9.17 205.7 9.7 C 205.72 9.72 205.7 17 205.7 17 L 201.9 17 L 201.9 1.3 Z M 219 15.2 C 217.7 13.7 216.9 11.6 216.9 9.2 C 216.9 6.8 217.8 4.6 219.2 3.1 C 220.5 1.8 222.4 1 224.6 1 C 228.7 1 231.1 3.2 231.6 6.5 C 231.6 6.5 227.8 6.5 227.8 6.5 C 227.5 5.2 226.5 4.2 224.8 4.2 C 222.2 4.2 220.9 6.4 220.9 9.2 C 220.9 12.1 222.4 14.3 224.8 14.3 C 226.9 14.3 228.1 12.9 228.2 11.5 C 228.25 11.51 228.2 11.5 228.2 11.5 L 225.3 11.5 L 225.3 8.6 L 231.9 8.6 L 231.9 17 L 229.1 17 L 228.9 15.2 C 228.9 15.2 228.86 15.16 228.9 15.2 C 227.8 16.8 226.3 17.4 224.4 17.4 C 222.2 17.4 220.3 16.6 219 15.2 Z " stroke="none" fill="#d12229"/>  </g></svg>