<?xml version="1.0" standalone="no"?><!DOCTYPE svg PUBLIC "-//W3C//DTD SVG 1.1//EN" "http://www.w3.org/Graphics/SVG/1.1/DTD/svg11.dtd"><svg xmlns="http://www.w3.org/2000/svg" version="1.1" width="42.5px" height="29.6px" viewBox="0 -3 42.5 29.6" style="top:-3px">  <desc>Pump</desc>  <defs/>  <g id="Polygon9195">    <path d="M 1.1 1 C 1.1 1 5.84 0.96 5.8 1 C 7 1 8 1.4 8.6 2.1 C 9 2.6 9.3 3.4 9.3 4.2 C 9.3 6.3 8.1 7.6 5.6 7.6 C 5.63 7.6 2.5 7.6 2.5 7.6 L 2.5 12.4 L 1.1 12.4 L 1.1 1 Z M 2.5 6.4 C 2.5 6.4 5.52 6.43 5.5 6.4 C 7.1 6.4 7.9 5.6 7.9 4.3 C 7.9 2.9 7.1 2.2 5.6 2.2 C 5.6 2.21 2.5 2.2 2.5 2.2 L 2.5 6.4 Z M 15.8 12.4 L 15.8 11.3 C 15.8 11.3 15.76 11.26 15.8 11.3 C 15.2 12.1 14.5 12.6 13.3 12.6 C 11.6 12.6 10.5 11.6 10.5 9.9 C 10.48 9.86 10.5 4.1 10.5 4.1 L 11.8 4.1 C 11.8 4.1 11.78 9.82 11.8 9.8 C 11.8 10.9 12.5 11.5 13.6 11.5 C 14.9 11.5 15.8 10.5 15.8 9.2 C 15.79 9.22 15.8 4.1 15.8 4.1 L 17.1 4.1 L 17.1 12.4 L 15.8 12.4 Z M 18.8 4.1 L 20.1 4.1 L 20.1 5.3 C 20.1 5.3 20.18 5.31 20.2 5.3 C 20.7 4.5 21.6 3.9 22.6 3.9 C 23.6 3.9 24.4 4.4 24.8 5.4 C 24.8 5.4 24.8 5.4 24.8 5.4 C 25.3 4.5 26.3 3.9 27.3 3.9 C 28.8 3.9 29.8 4.9 29.8 6.6 C 29.84 6.59 29.8 12.4 29.8 12.4 L 28.5 12.4 C 28.5 12.4 28.54 6.66 28.5 6.7 C 28.5 5.6 27.9 5 27 5 C 26 5 25 6 25 7.2 C 24.99 7.25 25 12.4 25 12.4 L 23.7 12.4 C 23.7 12.4 23.7 6.66 23.7 6.7 C 23.7 5.6 23.1 5 22.3 5 C 21.3 5 20.1 6 20.1 7.2 C 20.14 7.25 20.1 12.4 20.1 12.4 L 18.8 12.4 L 18.8 4.1 Z M 31.6 4.1 L 32.8 4.1 L 32.8 5.3 C 32.8 5.3 32.88 5.3 32.9 5.3 C 33.5 4.4 34.3 3.9 35.5 3.9 C 37.6 3.9 39.1 5.5 39.1 8.3 C 39.1 10.9 37.7 12.6 35.5 12.6 C 34.4 12.6 33.6 12.3 32.9 11.4 C 32.88 11.42 32.8 11.4 32.8 11.4 L 32.8 15.1 L 31.6 15.1 L 31.6 4.1 Z M 37.8 8.3 C 37.8 6.4 37 5 35.4 5 C 33.6 5 32.8 6.5 32.8 8.3 C 32.8 10.1 33.5 11.6 35.4 11.6 C 37 11.6 37.8 10.2 37.8 8.3 Z " stroke="none" fill="#000"/>  </g></svg>