<?xml version="1.0" standalone="no"?><!DOCTYPE svg PUBLIC "-//W3C//DTD SVG 1.1//EN" "http://www.w3.org/Graphics/SVG/1.1/DTD/svg11.dtd"><svg xmlns="http://www.w3.org/2000/svg" version="1.1" width="163px" height="114.7px" viewBox="0 -17 163 114.7" style="top:-17px">  <desc>WIP</desc>  <defs/>  <g id="Polygon2694">    <path d="M -0.4 3.8 L 14.7 3.8 C 14.7 3.8 18.43 21.46 18.4 21.5 C 19.66 27.07 21 35.8 21 35.8 L 21.1 35.8 C 21.1 35.8 22.46 28.08 23.8 22.2 C 23.76 22.18 27.7 3.8 27.7 3.8 L 41.3 3.8 C 41.3 3.8 45.29 22.03 45.3 22 C 46.58 28.01 47.9 35.8 47.9 35.8 L 48 35.8 C 48 35.8 49.39 27.07 50.6 21.3 C 50.62 21.31 54.4 3.8 54.4 3.8 L 69.8 3.8 L 56.2 55.3 L 41 55.3 C 41 55.3 36.43 33.48 36.4 33.5 C 35.5 29.02 34.6 23.5 34.6 23.5 L 34.5 23.5 C 34.5 23.5 33.62 29.02 32.7 33.5 C 32.69 33.48 28.2 55.3 28.2 55.3 L 12.8 55.3 L -0.4 3.8 Z M 72.5 3.8 L 87.6 3.8 L 87.6 55.3 L 72.5 55.3 L 72.5 3.8 Z M 93.7 3.8 C 93.7 3.8 117.43 3.82 117.4 3.8 C 124 3.8 128.7 5.5 132.1 8.6 C 135.8 11.8 137.9 16.5 137.9 22.2 C 137.9 32.1 130.5 39.6 120.2 39.6 C 120.17 39.6 108.8 39.6 108.8 39.6 L 108.8 55.3 L 93.7 55.3 L 93.7 3.8 Z M 108.8 27.9 C 108.8 27.9 116.93 27.94 116.9 27.9 C 120.6 27.9 122.9 25.5 122.9 22 C 122.9 18.5 120.7 16.3 116.8 16.3 C 116.78 16.27 108.8 16.3 108.8 16.3 L 108.8 27.9 Z " style="stroke-width:1pt; stroke:#000;" fill="#9d9fa1"/>  </g></svg>