<?xml version="1.0" standalone="no"?><!DOCTYPE svg PUBLIC "-//W3C//DTD SVG 1.1//EN" "http://www.w3.org/Graphics/SVG/1.1/DTD/svg11.dtd"><svg xmlns="http://www.w3.org/2000/svg" version="1.1" width="108.3px" height="107.4px" viewBox="0 -3 108.3 107.4" style="top:-3px">  <desc>Increases play factor Requires parental setup</desc>  <defs/>  <g id="Polygon8141">    <path d="M 0.7 66.9 L 2.6 66.9 L 2.6 67.8 C 2.6 67.8 2.67 67.83 2.7 67.8 C 3.2 67.2 3.9 66.7 4.9 66.7 C 7 66.7 8.3 68.3 8.3 70.7 C 8.3 73.2 6.9 74.8 5 74.8 C 3.9 74.8 3.2 74.4 2.7 73.7 C 2.73 73.7 2.7 73.7 2.7 73.7 L 2.7 77.1 L 0.7 77.1 L 0.7 66.9 Z M 6.2 70.8 C 6.2 69.3 5.7 68.3 4.4 68.3 C 3.2 68.3 2.7 69.4 2.7 70.8 C 2.7 72.2 3.3 73.1 4.5 73.1 C 5.6 73.1 6.2 72.2 6.2 70.8 Z M 13.8 73.7 C 13.8 73.7 13.8 73.7 13.8 73.7 C 13.4 74.3 12.9 74.7 11.5 74.7 C 10 74.7 8.9 73.9 8.9 72.4 C 8.9 70.7 10.2 70.2 11.9 69.9 C 13.2 69.7 13.8 69.6 13.8 69 C 13.8 68.5 13.4 68.1 12.5 68.1 C 11.5 68.1 11.1 68.5 11 69.2 C 11 69.2 9.2 69.2 9.2 69.2 C 9.3 67.9 10.3 66.7 12.5 66.7 C 14.8 66.7 15.8 67.7 15.8 69.5 C 15.8 69.5 15.8 73.4 15.8 73.4 C 15.8 74 15.9 74.4 16 74.5 C 16.03 74.49 16 74.6 16 74.6 C 16 74.6 14.07 74.56 14.1 74.6 C 14 74.4 13.9 74.1 13.8 73.7 Z M 13.8 71.9 C 13.8 71.9 13.8 70.7 13.8 70.7 C 13.5 70.9 12.9 71 12.4 71.1 C 11.4 71.4 10.8 71.6 10.8 72.3 C 10.8 73.1 11.3 73.3 12 73.3 C 13.2 73.3 13.8 72.6 13.8 71.9 Z M 19 68.1 C 19 68.1 19.06 68.1 19.1 68.1 C 19.5 67.2 20.1 66.8 21 66.8 C 21.2 66.8 21.3 66.8 21.4 66.8 C 21.43 66.84 21.4 68.6 21.4 68.6 C 21.4 68.6 21.39 68.63 21.4 68.6 C 20.1 68.5 19.1 69.2 19.1 70.8 C 19.09 70.81 19.1 74.6 19.1 74.6 L 17.1 74.6 L 17.1 66.9 L 19 66.9 L 19 68.1 Z M 21.7 70.7 C 21.7 68.4 23.3 66.7 25.5 66.7 C 28 66.7 29.3 68.5 29.3 71.3 C 29.3 71.3 23.7 71.3 23.7 71.3 C 23.9 72.5 24.5 73.2 25.7 73.2 C 26.5 73.2 27 72.9 27.2 72.3 C 27.2 72.3 29.2 72.3 29.2 72.3 C 28.9 73.6 27.7 74.8 25.7 74.8 C 23.2 74.8 21.7 73 21.7 70.7 Z M 23.8 69.9 C 23.8 69.9 27.2 69.9 27.2 69.9 C 27.1 68.9 26.5 68.2 25.5 68.2 C 24.5 68.2 23.9 68.9 23.8 69.9 Z M 32.2 67.9 C 32.2 67.9 32.29 67.92 32.3 67.9 C 32.8 67.1 33.5 66.7 34.6 66.7 C 36.2 66.7 37.2 67.9 37.2 69.5 C 37.23 69.54 37.2 74.6 37.2 74.6 L 35.2 74.6 C 35.2 74.6 35.19 69.84 35.2 69.8 C 35.2 69 34.7 68.4 33.9 68.4 C 33 68.4 32.3 69.1 32.3 70.2 C 32.29 70.2 32.3 74.6 32.3 74.6 L 30.3 74.6 L 30.3 66.9 L 32.2 66.9 L 32.2 67.9 Z M 37.9 66.9 L 39 66.9 L 39 64.5 L 40.9 64.5 L 40.9 66.9 L 42.3 66.9 L 42.3 68.2 L 40.9 68.2 C 40.9 68.2 40.95 72.29 40.9 72.3 C 40.9 72.9 41.3 73.1 41.7 73.1 C 41.97 73.05 42.3 73 42.3 73 L 42.3 74.5 C 42.3 74.5 41.85 74.56 41 74.6 C 40 74.6 39 74.2 39 72.7 C 38.96 72.72 39 68.2 39 68.2 L 37.9 68.2 L 37.9 66.9 Z M 48 73.7 C 48 73.7 48 73.7 48 73.7 C 47.6 74.3 47 74.7 45.7 74.7 C 44.1 74.7 43 73.9 43 72.4 C 43 70.7 44.4 70.2 46.1 69.9 C 47.4 69.7 48 69.6 48 69 C 48 68.5 47.5 68.1 46.7 68.1 C 45.7 68.1 45.3 68.5 45.2 69.2 C 45.2 69.2 43.4 69.2 43.4 69.2 C 43.4 67.9 44.4 66.7 46.7 66.7 C 49 66.7 49.9 67.7 49.9 69.5 C 49.9 69.5 49.9 73.4 49.9 73.4 C 49.9 74 50 74.4 50.2 74.5 C 50.2 74.49 50.2 74.6 50.2 74.6 C 50.2 74.6 48.24 74.56 48.2 74.6 C 48.1 74.4 48 74.1 48 73.7 Z M 48 71.9 C 48 71.9 48 70.7 48 70.7 C 47.7 70.9 47.1 71 46.6 71.1 C 45.5 71.4 45 71.6 45 72.3 C 45 73.1 45.5 73.3 46.2 73.3 C 47.4 73.3 48 72.6 48 71.9 Z M 51.3 63.8 L 53.3 63.8 L 53.3 74.6 L 51.3 74.6 L 51.3 63.8 Z M 56.7 72.1 C 56.7 72.1 58.6 72.1 58.6 72.1 C 58.7 73 59.3 73.4 60.3 73.4 C 61.2 73.4 61.7 73 61.7 72.5 C 61.7 71.7 60.7 71.7 59.6 71.4 C 58.3 71.2 56.9 70.8 56.9 69.1 C 56.9 67.5 58.3 66.7 60 66.7 C 62.1 66.7 63.2 67.7 63.3 69.2 C 63.3 69.2 61.5 69.2 61.5 69.2 C 61.4 68.4 60.9 68.1 60 68.1 C 59.2 68.1 58.7 68.4 58.7 68.9 C 58.7 69.6 59.7 69.7 60.8 69.9 C 62.1 70.2 63.5 70.5 63.5 72.3 C 63.5 73.9 62.2 74.8 60.3 74.8 C 58 74.8 56.8 73.7 56.7 72.1 Z M 64.1 70.7 C 64.1 68.4 65.7 66.7 67.9 66.7 C 70.4 66.7 71.7 68.5 71.7 71.3 C 71.7 71.3 66.1 71.3 66.1 71.3 C 66.3 72.5 67 73.2 68.1 73.2 C 68.9 73.2 69.4 72.9 69.6 72.3 C 69.6 72.3 71.6 72.3 71.6 72.3 C 71.3 73.6 70.1 74.8 68.1 74.8 C 65.6 74.8 64.1 73 64.1 70.7 Z M 66.2 69.9 C 66.2 69.9 69.6 69.9 69.6 69.9 C 69.5 68.9 68.9 68.2 68 68.2 C 66.9 68.2 66.4 68.9 66.2 69.9 Z M 72.1 66.9 L 73.1 66.9 L 73.1 64.5 L 75.1 64.5 L 75.1 66.9 L 76.5 66.9 L 76.5 68.2 L 75.1 68.2 C 75.1 68.2 75.13 72.29 75.1 72.3 C 75.1 72.9 75.4 73.1 75.9 73.1 C 76.15 73.05 76.5 73 76.5 73 L 76.5 74.5 C 76.5 74.5 76.03 74.56 75.2 74.6 C 74.2 74.6 73.1 74.2 73.1 72.7 C 73.14 72.72 73.1 68.2 73.1 68.2 L 72.1 68.2 L 72.1 66.9 Z M 82.4 74.6 L 82.4 73.7 C 82.4 73.7 82.32 73.67 82.3 73.7 C 81.8 74.4 81.2 74.8 80.1 74.8 C 78.4 74.8 77.4 73.7 77.4 72 C 77.44 72 77.4 66.9 77.4 66.9 L 79.5 66.9 C 79.5 66.9 79.47 71.66 79.5 71.7 C 79.5 72.6 79.9 73.1 80.7 73.1 C 81.7 73.1 82.3 72.3 82.3 71.3 C 82.29 71.31 82.3 66.9 82.3 66.9 L 84.3 66.9 L 84.3 74.6 L 82.4 74.6 Z M 85.6 66.9 L 87.6 66.9 L 87.6 67.8 C 87.6 67.8 87.66 67.83 87.7 67.8 C 88.2 67.2 88.9 66.7 89.9 66.7 C 92 66.7 93.3 68.3 93.3 70.7 C 93.3 73.2 91.9 74.8 89.9 74.8 C 88.9 74.8 88.2 74.4 87.7 73.7 C 87.72 73.7 87.7 73.7 87.7 73.7 L 87.7 77.1 L 85.6 77.1 L 85.6 66.9 Z M 91.2 70.8 C 91.2 69.3 90.7 68.3 89.4 68.3 C 88.2 68.3 87.6 69.4 87.6 70.8 C 87.6 72.2 88.3 73.1 89.5 73.1 C 90.5 73.1 91.2 72.2 91.2 70.8 Z " stroke="none" fill="#d12229"/>  </g>  <g id="Polygon8140">    <path d="M 0.8 45.8 C 0.8 45.8 5.75 45.84 5.7 45.8 C 7.8 45.8 9.2 47 9.2 48.8 C 9.2 50.1 8.6 51 7.2 51.4 C 7.2 51.4 7.2 51.5 7.2 51.5 C 8.2 51.7 8.7 52.3 8.9 53.6 C 9 55.1 9 56.3 9.3 56.5 C 9.33 56.46 9.3 56.6 9.3 56.6 C 9.3 56.6 7.25 56.56 7.2 56.6 C 7 56.4 6.9 55.2 6.9 54.1 C 6.8 52.9 6.1 52.3 4.8 52.3 C 4.75 52.26 3 52.3 3 52.3 L 3 56.6 L 0.8 56.6 L 0.8 45.8 Z M 3 50.6 C 3 50.6 5.31 50.58 5.3 50.6 C 6.5 50.6 7.1 50 7.1 49.1 C 7.1 48.2 6.5 47.6 5.4 47.6 C 5.37 47.59 3 47.6 3 47.6 L 3 50.6 Z M 10 52.7 C 10 50.4 11.5 48.7 13.8 48.7 C 16.2 48.7 17.6 50.5 17.6 53.3 C 17.6 53.3 12 53.3 12 53.3 C 12.1 54.5 12.8 55.2 14 55.2 C 14.7 55.2 15.2 54.9 15.4 54.3 C 15.4 54.3 17.4 54.3 17.4 54.3 C 17.2 55.6 15.9 56.8 14 56.8 C 11.4 56.8 10 55 10 52.7 Z M 12 51.9 C 12 51.9 15.4 51.9 15.4 51.9 C 15.4 50.9 14.7 50.2 13.8 50.2 C 12.7 50.2 12.2 50.9 12 51.9 Z M 23.7 55.7 C 23.7 55.7 23.69 55.7 23.7 55.7 C 23.3 56.3 22.6 56.8 21.6 56.8 C 19.7 56.8 18.3 55.2 18.3 52.7 C 18.3 50.3 19.5 48.7 21.6 48.7 C 22.6 48.7 23.3 49.1 23.7 49.8 C 23.75 49.83 23.8 49.8 23.8 49.8 L 23.8 48.9 L 25.8 48.9 L 25.8 59.1 L 23.7 59.1 L 23.7 55.7 Z M 23.8 52.8 C 23.8 51.4 23.3 50.3 22 50.3 C 20.8 50.3 20.3 51.3 20.3 52.8 C 20.3 54.2 20.9 55.1 22 55.1 C 23.1 55.1 23.8 54.2 23.8 52.8 Z M 31.9 56.6 L 31.9 55.7 C 31.9 55.7 31.89 55.67 31.9 55.7 C 31.4 56.4 30.8 56.8 29.7 56.8 C 28 56.8 27 55.7 27 54 C 27.02 54 27 48.9 27 48.9 L 29 48.9 C 29 48.9 29.04 53.66 29 53.7 C 29 54.6 29.4 55.1 30.3 55.1 C 31.3 55.1 31.9 54.3 31.9 53.3 C 31.86 53.31 31.9 48.9 31.9 48.9 L 33.9 48.9 L 33.9 56.6 L 31.9 56.6 Z M 35.2 48.9 L 37.3 48.9 L 37.3 56.6 L 35.2 56.6 L 35.2 48.9 Z M 35.2 45.8 L 37.3 45.8 L 37.3 47.7 L 35.2 47.7 L 35.2 45.8 Z M 40.5 50.1 C 40.5 50.1 40.59 50.1 40.6 50.1 C 41.1 49.2 41.6 48.8 42.5 48.8 C 42.7 48.8 42.8 48.8 43 48.8 C 42.96 48.84 43 50.6 43 50.6 C 43 50.6 42.91 50.63 42.9 50.6 C 41.6 50.5 40.6 51.2 40.6 52.8 C 40.62 52.81 40.6 56.6 40.6 56.6 L 38.6 56.6 L 38.6 48.9 L 40.5 48.9 L 40.5 50.1 Z M 43.2 52.7 C 43.2 50.4 44.8 48.7 47 48.7 C 49.5 48.7 50.8 50.5 50.8 53.3 C 50.8 53.3 45.3 53.3 45.3 53.3 C 45.4 54.5 46.1 55.2 47.2 55.2 C 48 55.2 48.5 54.9 48.7 54.3 C 48.7 54.3 50.7 54.3 50.7 54.3 C 50.4 55.6 49.2 56.8 47.2 56.8 C 44.7 56.8 43.2 55 43.2 52.7 Z M 45.3 51.9 C 45.3 51.9 48.7 51.9 48.7 51.9 C 48.6 50.9 48 50.2 47.1 50.2 C 46 50.2 45.5 50.9 45.3 51.9 Z M 51.3 54.1 C 51.3 54.1 53.2 54.1 53.2 54.1 C 53.3 55 54 55.4 54.9 55.4 C 55.8 55.4 56.3 55 56.3 54.5 C 56.3 53.7 55.3 53.7 54.3 53.4 C 52.9 53.2 51.5 52.8 51.5 51.1 C 51.5 49.5 52.9 48.7 54.7 48.7 C 56.7 48.7 57.8 49.7 58 51.2 C 58 51.2 56.1 51.2 56.1 51.2 C 56 50.4 55.5 50.1 54.6 50.1 C 53.8 50.1 53.3 50.4 53.3 50.9 C 53.3 51.6 54.3 51.7 55.4 51.9 C 56.7 52.2 58.1 52.5 58.1 54.3 C 58.1 55.9 56.8 56.8 54.9 56.8 C 52.7 56.8 51.4 55.7 51.3 54.1 Z " stroke="none" fill="#d12229"/>  </g>  <g id="Polygon8139">    <path d="M 0.2 21.9 L 1.3 21.9 C 1.3 21.9 1.26 21.18 1.3 21.2 C 1.3 19.3 2.7 18.6 4.7 18.8 C 4.7 18.8 4.7 20.4 4.7 20.4 C 3.7 20.4 3.3 20.5 3.3 21.3 C 3.3 21.3 3.3 21.9 3.3 21.9 L 4.7 21.9 L 4.7 23.3 L 3.3 23.3 L 3.3 29.6 L 1.3 29.6 L 1.3 23.3 L 0.2 23.3 L 0.2 21.9 Z M 10 28.7 C 10 28.7 10 28.7 10 28.7 C 9.6 29.3 9 29.7 7.7 29.7 C 6.1 29.7 5 28.9 5 27.4 C 5 25.7 6.4 25.2 8.1 24.9 C 9.4 24.7 10 24.6 10 24 C 10 23.5 9.5 23.1 8.7 23.1 C 7.7 23.1 7.2 23.5 7.2 24.2 C 7.2 24.2 5.4 24.2 5.4 24.2 C 5.4 22.9 6.4 21.7 8.7 21.7 C 11 21.7 11.9 22.7 11.9 24.5 C 11.9 24.5 11.9 28.4 11.9 28.4 C 11.9 29 12 29.4 12.2 29.5 C 12.19 29.49 12.2 29.6 12.2 29.6 C 12.2 29.6 10.23 29.56 10.2 29.6 C 10.1 29.4 10 29.1 10 28.7 Z M 10 26.9 C 10 26.9 10 25.7 10 25.7 C 9.6 25.9 9.1 26 8.6 26.1 C 7.5 26.4 7 26.6 7 27.3 C 7 28.1 7.5 28.3 8.2 28.3 C 9.4 28.3 10 27.6 10 26.9 Z M 12.8 25.7 C 12.8 23.4 14.3 21.7 16.7 21.7 C 18.7 21.7 19.9 22.8 20.2 24.5 C 20.2 24.5 18.2 24.5 18.2 24.5 C 18 23.8 17.5 23.3 16.8 23.3 C 15.5 23.3 14.9 24.2 14.9 25.7 C 14.9 27.2 15.5 28.2 16.7 28.2 C 17.6 28.2 18.1 27.7 18.3 26.9 C 18.3 26.9 20.2 26.9 20.2 26.9 C 20.1 28.5 18.8 29.8 16.8 29.8 C 14.4 29.8 12.8 28 12.8 25.7 Z M 20.7 21.9 L 21.8 21.9 L 21.8 19.5 L 23.7 19.5 L 23.7 21.9 L 25.1 21.9 L 25.1 23.2 L 23.7 23.2 C 23.7 23.2 23.74 27.29 23.7 27.3 C 23.7 27.9 24.1 28.1 24.5 28.1 C 24.76 28.05 25.1 28 25.1 28 L 25.1 29.5 C 25.1 29.5 24.64 29.56 23.8 29.6 C 22.8 29.6 21.8 29.2 21.8 27.7 C 21.75 27.72 21.8 23.2 21.8 23.2 L 20.7 23.2 L 20.7 21.9 Z M 25.7 25.7 C 25.7 23.4 27.3 21.7 29.7 21.7 C 32.1 21.7 33.7 23.4 33.7 25.7 C 33.7 28 32.1 29.8 29.7 29.8 C 27.3 29.8 25.7 28 25.7 25.7 Z M 31.6 25.7 C 31.6 24.2 30.9 23.2 29.7 23.2 C 28.4 23.2 27.7 24.2 27.7 25.7 C 27.7 27.2 28.4 28.2 29.7 28.2 C 30.9 28.2 31.6 27.2 31.6 25.7 Z M 36.6 23.1 C 36.6 23.1 36.66 23.1 36.7 23.1 C 37.1 22.2 37.6 21.8 38.5 21.8 C 38.8 21.8 38.9 21.8 39 21.8 C 39.03 21.84 39 23.6 39 23.6 C 39 23.6 38.98 23.63 39 23.6 C 37.6 23.5 36.7 24.2 36.7 25.8 C 36.69 25.81 36.7 29.6 36.7 29.6 L 34.7 29.6 L 34.7 21.9 L 36.6 21.9 L 36.6 23.1 Z " stroke="none" fill="#40ad48"/>  </g>  <g id="Polygon8138">    <path d="M 0.8 0.8 L 3 0.8 L 3 11.6 L 0.8 11.6 L 0.8 0.8 Z M 6.5 4.9 C 6.5 4.9 6.55 4.92 6.6 4.9 C 7.1 4.1 7.8 3.7 8.8 3.7 C 10.4 3.7 11.5 4.9 11.5 6.5 C 11.49 6.54 11.5 11.6 11.5 11.6 L 9.5 11.6 C 9.5 11.6 9.45 6.84 9.5 6.8 C 9.5 6 9 5.4 8.1 5.4 C 7.2 5.4 6.6 6.1 6.6 7.2 C 6.55 7.2 6.6 11.6 6.6 11.6 L 4.5 11.6 L 4.5 3.9 L 6.5 3.9 L 6.5 4.9 Z M 12.4 7.7 C 12.4 5.4 13.9 3.7 16.2 3.7 C 18.2 3.7 19.4 4.8 19.7 6.5 C 19.7 6.5 17.7 6.5 17.7 6.5 C 17.6 5.8 17.1 5.3 16.3 5.3 C 15.1 5.3 14.4 6.2 14.4 7.7 C 14.4 9.2 15 10.2 16.3 10.2 C 17.1 10.2 17.7 9.7 17.8 8.9 C 17.8 8.9 19.8 8.9 19.8 8.9 C 19.6 10.5 18.4 11.8 16.3 11.8 C 13.9 11.8 12.4 10 12.4 7.7 Z M 22.6 5.1 C 22.6 5.1 22.68 5.1 22.7 5.1 C 23.1 4.2 23.7 3.8 24.6 3.8 C 24.8 3.8 24.9 3.8 25 3.8 C 25.05 3.84 25 5.6 25 5.6 C 25 5.6 25 5.63 25 5.6 C 23.7 5.5 22.7 6.2 22.7 7.8 C 22.71 7.81 22.7 11.6 22.7 11.6 L 20.7 11.6 L 20.7 3.9 L 22.6 3.9 L 22.6 5.1 Z M 25.3 7.7 C 25.3 5.4 26.9 3.7 29.1 3.7 C 31.6 3.7 32.9 5.5 32.9 8.3 C 32.9 8.3 27.3 8.3 27.3 8.3 C 27.5 9.5 28.2 10.2 29.3 10.2 C 30.1 10.2 30.6 9.9 30.8 9.3 C 30.8 9.3 32.8 9.3 32.8 9.3 C 32.5 10.6 31.3 11.8 29.3 11.8 C 26.8 11.8 25.3 10 25.3 7.7 Z M 27.4 6.9 C 27.4 6.9 30.8 6.9 30.8 6.9 C 30.7 5.9 30.1 5.2 29.2 5.2 C 28.1 5.2 27.6 5.9 27.4 6.9 Z M 38.5 10.7 C 38.5 10.7 38.4 10.7 38.4 10.7 C 38.1 11.3 37.5 11.7 36.2 11.7 C 34.6 11.7 33.5 10.9 33.5 9.4 C 33.5 7.7 34.9 7.2 36.6 6.9 C 37.9 6.7 38.4 6.6 38.4 6 C 38.4 5.5 38 5.1 37.2 5.1 C 36.2 5.1 35.7 5.5 35.7 6.2 C 35.7 6.2 33.9 6.2 33.9 6.2 C 33.9 4.9 34.9 3.7 37.2 3.7 C 39.5 3.7 40.4 4.7 40.4 6.5 C 40.4 6.5 40.4 10.4 40.4 10.4 C 40.4 11 40.5 11.4 40.7 11.5 C 40.68 11.49 40.7 11.6 40.7 11.6 C 40.7 11.6 38.72 11.56 38.7 11.6 C 38.6 11.4 38.5 11.1 38.5 10.7 Z M 38.5 8.9 C 38.5 8.9 38.5 7.7 38.5 7.7 C 38.1 7.9 37.6 8 37.1 8.1 C 36 8.4 35.5 8.6 35.5 9.3 C 35.5 10.1 36 10.3 36.7 10.3 C 37.8 10.3 38.5 9.6 38.5 8.9 Z M 41.2 9.1 C 41.2 9.1 43.1 9.1 43.1 9.1 C 43.2 10 43.9 10.4 44.8 10.4 C 45.7 10.4 46.2 10 46.2 9.5 C 46.2 8.7 45.2 8.7 44.2 8.4 C 42.8 8.2 41.4 7.8 41.4 6.1 C 41.4 4.5 42.8 3.7 44.6 3.7 C 46.6 3.7 47.7 4.7 47.9 6.2 C 47.9 6.2 46 6.2 46 6.2 C 45.9 5.4 45.4 5.1 44.5 5.1 C 43.8 5.1 43.2 5.4 43.2 5.9 C 43.2 6.6 44.2 6.7 45.3 6.9 C 46.6 7.2 48.1 7.5 48.1 9.3 C 48.1 10.9 46.7 11.8 44.8 11.8 C 42.6 11.8 41.3 10.7 41.2 9.1 Z M 48.7 7.7 C 48.7 5.4 50.2 3.7 52.5 3.7 C 54.9 3.7 56.3 5.5 56.3 8.3 C 56.3 8.3 50.7 8.3 50.7 8.3 C 50.8 9.5 51.5 10.2 52.6 10.2 C 53.4 10.2 53.9 9.9 54.1 9.3 C 54.1 9.3 56.1 9.3 56.1 9.3 C 55.9 10.6 54.6 11.8 52.7 11.8 C 50.1 11.8 48.7 10 48.7 7.7 Z M 50.7 6.9 C 50.7 6.9 54.1 6.9 54.1 6.9 C 54.1 5.9 53.4 5.2 52.5 5.2 C 51.4 5.2 50.9 5.9 50.7 6.9 Z M 56.7 9.1 C 56.7 9.1 58.6 9.1 58.6 9.1 C 58.8 10 59.4 10.4 60.3 10.4 C 61.2 10.4 61.7 10 61.7 9.5 C 61.7 8.7 60.7 8.7 59.7 8.4 C 58.3 8.2 57 7.8 57 6.1 C 57 4.5 58.3 3.7 60.1 3.7 C 62.1 3.7 63.2 4.7 63.4 6.2 C 63.4 6.2 61.5 6.2 61.5 6.2 C 61.5 5.4 60.9 5.1 60.1 5.1 C 59.3 5.1 58.7 5.4 58.7 5.9 C 58.7 6.6 59.8 6.7 60.9 6.9 C 62.1 7.2 63.6 7.5 63.6 9.3 C 63.6 10.9 62.2 11.8 60.3 11.8 C 58.1 11.8 56.8 10.7 56.7 9.1 Z M 67 3.9 L 69 3.9 L 69 4.8 C 69 4.8 69.01 4.83 69 4.8 C 69.5 4.2 70.2 3.7 71.3 3.7 C 73.3 3.7 74.6 5.3 74.6 7.7 C 74.6 10.2 73.3 11.8 71.3 11.8 C 70.2 11.8 69.5 11.4 69.1 10.7 C 69.07 10.7 69 10.7 69 10.7 L 69 14.1 L 67 14.1 L 67 3.9 Z M 72.6 7.8 C 72.6 6.3 72 5.3 70.8 5.3 C 69.5 5.3 69 6.4 69 7.8 C 69 9.2 69.6 10.1 70.9 10.1 C 71.9 10.1 72.6 9.2 72.6 7.8 Z M 75.6 0.8 L 77.6 0.8 L 77.6 11.6 L 75.6 11.6 L 75.6 0.8 Z M 83.6 10.7 C 83.6 10.7 83.6 10.7 83.6 10.7 C 83.2 11.3 82.6 11.7 81.3 11.7 C 79.7 11.7 78.6 10.9 78.6 9.4 C 78.6 7.7 80 7.2 81.7 6.9 C 83 6.7 83.6 6.6 83.6 6 C 83.6 5.5 83.1 5.1 82.3 5.1 C 81.3 5.1 80.8 5.5 80.8 6.2 C 80.8 6.2 79 6.2 79 6.2 C 79 4.9 80 3.7 82.3 3.7 C 84.6 3.7 85.5 4.7 85.5 6.5 C 85.5 6.5 85.5 10.4 85.5 10.4 C 85.5 11 85.6 11.4 85.8 11.5 C 85.8 11.49 85.8 11.6 85.8 11.6 C 85.8 11.6 83.83 11.56 83.8 11.6 C 83.7 11.4 83.6 11.1 83.6 10.7 Z M 83.6 8.9 C 83.6 8.9 83.6 7.7 83.6 7.7 C 83.2 7.9 82.7 8 82.2 8.1 C 81.1 8.4 80.6 8.6 80.6 9.3 C 80.6 10.1 81.1 10.3 81.8 10.3 C 83 10.3 83.6 9.6 83.6 8.9 Z M 86.9 12.5 C 86.9 12.5 87.63 12.48 87.6 12.5 C 88.4 12.5 88.8 12.1 88.8 11.4 C 88.8 11 88.6 10.5 88.2 9.3 C 88.18 9.35 86.1 3.9 86.1 3.9 L 88.3 3.9 C 88.3 3.9 89.4 7.34 89.4 7.3 C 89.64 8.04 89.9 9 89.9 9 L 89.9 9 C 89.9 9 90.13 8.04 90.4 7.3 C 90.37 7.34 91.5 3.9 91.5 3.9 L 93.5 3.9 C 93.5 3.9 90.82 11.76 90.8 11.8 C 90.2 13.5 89.7 14.1 88.1 14.1 C 88.11 14.08 86.9 14.1 86.9 14.1 L 86.9 12.5 Z " stroke="none" fill="#40ad48"/>  </g></svg>