<?xml version="1.0" standalone="no"?><!DOCTYPE svg PUBLIC "-//W3C//DTD SVG 1.1//EN" "http://www.w3.org/Graphics/SVG/1.1/DTD/svg11.dtd"><svg xmlns="http://www.w3.org/2000/svg" version="1.1" width="545px" height="110.7px" viewBox="0 -13 545 110.7" style="top:-13px">  <desc>PLACEHOLDER</desc>  <defs/>  <g id="Polygon2247">    <path d="M 3.1 3.8 C 3.1 3.8 26.78 3.82 26.8 3.8 C 33.3 3.8 38.1 5.5 41.5 8.6 C 45.1 11.8 47.2 16.5 47.2 22.2 C 47.2 32.1 39.9 39.6 29.5 39.6 C 29.52 39.6 18.1 39.6 18.1 39.6 L 18.1 55.3 L 3.1 55.3 L 3.1 3.8 Z M 18.1 27.9 C 18.1 27.9 26.28 27.94 26.3 27.9 C 30 27.9 32.3 25.5 32.3 22 C 32.3 18.5 30 16.3 26.1 16.3 C 26.14 16.27 18.1 16.3 18.1 16.3 L 18.1 27.9 Z M 51 3.8 L 66.1 3.8 L 66.1 42.4 L 88.1 42.4 L 88.1 55.3 L 51 55.3 L 51 3.8 Z M 108.8 3.8 L 124.1 3.8 L 143.2 55.3 L 127.2 55.3 L 124.7 47.7 L 107.3 47.7 L 104.8 55.3 L 89.8 55.3 L 108.8 3.8 Z M 110.7 37.4 L 121.3 37.4 C 121.3 37.4 118.08 27.29 118.1 27.3 C 117.29 24.77 116.1 20.7 116.1 20.7 L 116 20.7 C 116 20.7 114.91 24.77 114 27.3 C 114.05 27.29 110.7 37.4 110.7 37.4 Z M 140.4 29.7 C 140.4 14.3 151 2.9 166.5 2.9 C 172.1 2.9 177.1 4.3 180.9 6.9 C 186.2 10.6 189.3 16.3 189.9 22.9 C 189.9 22.9 174.9 22.9 174.9 22.9 C 174.5 18.9 171.1 15.3 166.2 15.3 C 159.1 15.3 155.7 21.3 155.7 29.7 C 155.7 38.2 159.7 44.2 166.4 44.2 C 171.6 44.2 174.8 40.8 175.3 36.1 C 175.3 36.1 190.5 36.1 190.5 36.1 C 190.1 41.8 187.5 46.9 183.8 50.4 C 179.4 54.6 174 56.5 166.5 56.5 C 150.8 56.5 140.4 45.1 140.4 29.7 Z M 194.2 3.8 L 234.3 3.8 L 234.3 16.1 L 209.2 16.1 L 209.2 23 L 230.2 23 L 230.2 34.3 L 209.2 34.3 L 209.2 42.4 L 235 42.4 L 235 55.3 L 194.2 55.3 L 194.2 3.8 Z M 240 3.8 L 255.1 3.8 L 255.1 22.7 L 270.9 22.7 L 270.9 3.8 L 286 3.8 L 286 55.3 L 270.9 55.3 L 270.9 35.1 L 255.1 35.1 L 255.1 55.3 L 240 55.3 L 240 3.8 Z M 290.2 29.7 C 290.2 14.3 300.2 2.9 316.2 2.9 C 332.2 2.9 342.4 14.3 342.4 29.7 C 342.4 45.1 332.2 56.5 316.2 56.5 C 300.2 56.5 290.2 45.1 290.2 29.7 Z M 327.2 29.7 C 327.2 21.3 323.5 14.9 316.3 14.9 C 309.1 14.9 305.4 21.3 305.4 29.7 C 305.4 38.2 309.1 44.5 316.3 44.5 C 323.5 44.5 327.2 38.2 327.2 29.7 Z M 346.6 3.8 L 361.7 3.8 L 361.7 42.4 L 383.7 42.4 L 383.7 55.3 L 346.6 55.3 L 346.6 3.8 Z M 387.6 3.8 C 387.6 3.8 411.4 3.82 411.4 3.8 C 426.2 3.8 436.5 13.3 436.5 29.7 C 436.5 46.1 426.7 55.3 410.8 55.3 C 410.76 55.3 387.6 55.3 387.6 55.3 L 387.6 3.8 Z M 409.5 42.8 C 416.4 42.8 421.3 38.4 421.3 29.7 C 421.3 21.2 416.7 16.3 409.5 16.3 C 409.53 16.27 402.7 16.3 402.7 16.3 L 402.7 42.8 C 402.7 42.8 409.53 42.84 409.5 42.8 Z M 440.7 3.8 L 480.8 3.8 L 480.8 16.1 L 455.8 16.1 L 455.8 23 L 476.7 23 L 476.7 34.3 L 455.8 34.3 L 455.8 42.4 L 481.5 42.4 L 481.5 55.3 L 440.7 55.3 L 440.7 3.8 Z M 486.6 3.8 C 486.6 3.8 512.13 3.82 512.1 3.8 C 522.6 3.8 531.6 8.6 531.6 19.2 C 531.6 25.1 528.5 29.2 523.1 31.7 C 523.1 31.7 523.1 31.9 523.1 31.9 C 527.3 33.5 529.5 36.4 530.3 40.4 C 531.7 46.6 530.6 54 532.4 54.5 C 532.44 54.5 532.4 55.3 532.4 55.3 C 532.4 55.3 517.6 55.3 517.6 55.3 C 516.2 54.3 516.7 48 515.7 43.3 C 514.7 39.4 513 37.4 508.6 37.4 C 508.6 37.37 501.6 37.4 501.6 37.4 L 501.6 55.3 L 486.6 55.3 L 486.6 3.8 Z M 501.6 26.6 C 501.6 26.6 509.68 26.64 509.7 26.6 C 514 26.6 516.4 24.8 516.4 21.2 C 516.4 17.8 514.2 15.6 509.9 15.6 C 509.9 15.62 501.6 15.6 501.6 15.6 L 501.6 26.6 Z " stroke="none" fill="#9d9fa1"/>  </g></svg>