<?xml version="1.0" standalone="no"?><!DOCTYPE svg PUBLIC "-//W3C//DTD SVG 1.1//EN" "http://www.w3.org/Graphics/SVG/1.1/DTD/svg11.dtd"><svg xmlns="http://www.w3.org/2000/svg" version="1.1" width="108.3px" height="91.4px" viewBox="0 -3 108.3 91.4" style="top:-3px">  <desc>Non-gun-like form No water resevoir</desc>  <defs/>  <g id="Polygon8088">    <path d="M 2.6 63.6 C 2.6 63.6 2.67 63.6 2.7 63.6 C 3.1 62.7 3.7 62.3 4.6 62.3 C 4.8 62.3 4.9 62.3 5 62.3 C 5.04 62.34 5 64.1 5 64.1 C 5 64.1 4.99 64.13 5 64.1 C 3.7 64 2.7 64.7 2.7 66.3 C 2.7 66.31 2.7 70.1 2.7 70.1 L 0.7 70.1 L 0.7 62.4 L 2.6 62.4 L 2.6 63.6 Z M 5.3 66.2 C 5.3 63.9 6.9 62.2 9.1 62.2 C 11.6 62.2 12.9 64 12.9 66.8 C 12.9 66.8 7.3 66.8 7.3 66.8 C 7.5 68 8.1 68.7 9.3 68.7 C 10.1 68.7 10.6 68.4 10.8 67.8 C 10.8 67.8 12.8 67.8 12.8 67.8 C 12.5 69.1 11.3 70.3 9.3 70.3 C 6.8 70.3 5.3 68.5 5.3 66.2 Z M 7.4 65.4 C 7.4 65.4 10.8 65.4 10.8 65.4 C 10.7 64.4 10.1 63.7 9.2 63.7 C 8.1 63.7 7.5 64.4 7.4 65.4 Z M 13.4 67.6 C 13.4 67.6 15.3 67.6 15.3 67.6 C 15.4 68.5 16 68.9 16.9 68.9 C 17.9 68.9 18.4 68.5 18.4 68 C 18.4 67.2 17.4 67.2 16.3 66.9 C 15 66.7 13.6 66.3 13.6 64.6 C 13.6 63 15 62.2 16.7 62.2 C 18.8 62.2 19.9 63.2 20 64.7 C 20 64.7 18.2 64.7 18.2 64.7 C 18.1 63.9 17.6 63.6 16.7 63.6 C 15.9 63.6 15.4 63.9 15.4 64.4 C 15.4 65.1 16.4 65.2 17.5 65.4 C 18.8 65.7 20.2 66 20.2 67.8 C 20.2 69.4 18.9 70.3 17 70.3 C 14.7 70.3 13.5 69.2 13.4 67.6 Z M 20.8 66.2 C 20.8 63.9 22.4 62.2 24.6 62.2 C 27.1 62.2 28.4 64 28.4 66.8 C 28.4 66.8 22.8 66.8 22.8 66.8 C 23 68 23.7 68.7 24.8 68.7 C 25.6 68.7 26.1 68.4 26.3 67.8 C 26.3 67.8 28.3 67.8 28.3 67.8 C 28 69.1 26.8 70.3 24.8 70.3 C 22.3 70.3 20.8 68.5 20.8 66.2 Z M 22.9 65.4 C 22.9 65.4 26.3 65.4 26.3 65.4 C 26.2 64.4 25.6 63.7 24.7 63.7 C 23.6 63.7 23.1 64.4 22.9 65.4 Z M 28.6 62.4 L 30.7 62.4 C 30.7 62.4 31.89 66.36 31.9 66.4 C 32.11 67.09 32.2 67.6 32.2 67.6 L 32.3 67.6 C 32.3 67.6 32.37 67.09 32.6 66.4 C 32.59 66.36 33.9 62.4 33.9 62.4 L 35.9 62.4 L 33.2 70.1 L 31.3 70.1 L 28.6 62.4 Z M 36 66.2 C 36 63.9 37.6 62.2 40 62.2 C 42.4 62.2 44 63.9 44 66.2 C 44 68.5 42.4 70.3 40 70.3 C 37.6 70.3 36 68.5 36 66.2 Z M 42 66.2 C 42 64.7 41.3 63.7 40 63.7 C 38.7 63.7 38.1 64.7 38.1 66.2 C 38.1 67.7 38.7 68.7 40 68.7 C 41.3 68.7 42 67.7 42 66.2 Z M 45 62.4 L 47 62.4 L 47 70.1 L 45 70.1 L 45 62.4 Z M 45 59.3 L 47 59.3 L 47 61.2 L 45 61.2 L 45 59.3 Z M 50.3 63.6 C 50.3 63.6 50.34 63.6 50.3 63.6 C 50.8 62.7 51.3 62.3 52.2 62.3 C 52.5 62.3 52.6 62.3 52.7 62.3 C 52.71 62.34 52.7 64.1 52.7 64.1 C 52.7 64.1 52.66 64.13 52.7 64.1 C 51.3 64 50.4 64.7 50.4 66.3 C 50.37 66.31 50.4 70.1 50.4 70.1 L 48.3 70.1 L 48.3 62.4 L 50.3 62.4 L 50.3 63.6 Z " stroke="none" fill="#d12229"/>  </g>  <g id="Polygon8087">    <path d="M 0.8 41.3 L 3 41.3 C 3 41.3 6.6 47.32 6.6 47.3 C 6.95 47.91 7.4 48.8 7.4 48.8 L 7.4 48.8 C 7.4 48.8 7.32 47.71 7.3 47 C 7.32 46.96 7.3 41.3 7.3 41.3 L 9.5 41.3 L 9.5 52.1 L 7.4 52.1 C 7.4 52.1 3.7 46.14 3.7 46.1 C 3.36 45.57 2.9 44.7 2.9 44.7 L 2.9 44.7 C 2.9 44.7 2.97 45.78 3 46.5 C 2.97 46.53 3 52.1 3 52.1 L 0.8 52.1 L 0.8 41.3 Z M 10.6 48.2 C 10.6 45.9 12.2 44.2 14.6 44.2 C 17 44.2 18.6 45.9 18.6 48.2 C 18.6 50.5 17 52.3 14.6 52.3 C 12.2 52.3 10.6 50.5 10.6 48.2 Z M 16.5 48.2 C 16.5 46.7 15.8 45.7 14.6 45.7 C 13.3 45.7 12.6 46.7 12.6 48.2 C 12.6 49.7 13.3 50.7 14.6 50.7 C 15.8 50.7 16.5 49.7 16.5 48.2 Z M 21.5 44.4 L 23.5 44.4 C 23.5 44.4 24.44 47.94 24.4 47.9 C 24.6 48.57 24.8 49.4 24.8 49.4 L 24.8 49.4 C 24.8 49.4 24.98 48.55 25.1 47.9 C 25.14 47.92 26.1 44.4 26.1 44.4 L 27.8 44.4 C 27.8 44.4 28.84 47.92 28.8 47.9 C 29.01 48.57 29.2 49.4 29.2 49.4 L 29.2 49.4 C 29.2 49.4 29.41 48.57 29.6 47.9 C 29.58 47.94 30.6 44.4 30.6 44.4 L 32.5 44.4 L 30.2 52.1 L 28.4 52.1 C 28.4 52.1 27.36 48.28 27.4 48.3 C 27.19 47.67 27 47 27 47 L 27 47 C 27 47 26.79 47.67 26.6 48.3 C 26.62 48.28 25.6 52.1 25.6 52.1 L 23.7 52.1 L 21.5 44.4 Z M 37.6 51.2 C 37.6 51.2 37.6 51.2 37.6 51.2 C 37.2 51.8 36.7 52.2 35.3 52.2 C 33.8 52.2 32.7 51.4 32.7 49.9 C 32.7 48.2 34 47.7 35.7 47.4 C 37 47.2 37.6 47.1 37.6 46.5 C 37.6 46 37.2 45.6 36.3 45.6 C 35.4 45.6 34.9 46 34.8 46.7 C 34.8 46.7 33 46.7 33 46.7 C 33.1 45.4 34.1 44.2 36.3 44.2 C 38.6 44.2 39.6 45.2 39.6 47 C 39.6 47 39.6 50.9 39.6 50.9 C 39.6 51.5 39.7 51.9 39.8 52 C 39.84 51.99 39.8 52.1 39.8 52.1 C 39.8 52.1 37.88 52.06 37.9 52.1 C 37.8 51.9 37.7 51.6 37.6 51.2 Z M 37.7 49.4 C 37.7 49.4 37.7 48.2 37.7 48.2 C 37.3 48.4 36.7 48.5 36.2 48.6 C 35.2 48.9 34.6 49.1 34.6 49.8 C 34.6 50.6 35.1 50.8 35.8 50.8 C 37 50.8 37.7 50.1 37.7 49.4 Z M 40.3 44.4 L 41.3 44.4 L 41.3 42 L 43.3 42 L 43.3 44.4 L 44.6 44.4 L 44.6 45.7 L 43.3 45.7 C 43.3 45.7 43.32 49.79 43.3 49.8 C 43.3 50.4 43.6 50.6 44.1 50.6 C 44.34 50.55 44.7 50.5 44.7 50.5 L 44.7 52 C 44.7 52 44.22 52.06 43.4 52.1 C 42.4 52.1 41.3 51.7 41.3 50.2 C 41.33 50.22 41.3 45.7 41.3 45.7 L 40.3 45.7 L 40.3 44.4 Z M 45.2 48.2 C 45.2 45.9 46.8 44.2 49 44.2 C 51.5 44.2 52.8 46 52.8 48.8 C 52.8 48.8 47.2 48.8 47.2 48.8 C 47.4 50 48.1 50.7 49.2 50.7 C 50 50.7 50.5 50.4 50.7 49.8 C 50.7 49.8 52.7 49.8 52.7 49.8 C 52.4 51.1 51.2 52.3 49.2 52.3 C 46.7 52.3 45.2 50.5 45.2 48.2 Z M 47.3 47.4 C 47.3 47.4 50.7 47.4 50.7 47.4 C 50.6 46.4 50 45.7 49.1 45.7 C 48 45.7 47.5 46.4 47.3 47.4 Z M 55.7 45.6 C 55.7 45.6 55.78 45.6 55.8 45.6 C 56.2 44.7 56.8 44.3 57.7 44.3 C 57.9 44.3 58 44.3 58.2 44.3 C 58.15 44.34 58.2 46.1 58.2 46.1 C 58.2 46.1 58.11 46.13 58.1 46.1 C 56.8 46 55.8 46.7 55.8 48.3 C 55.81 48.31 55.8 52.1 55.8 52.1 L 53.8 52.1 L 53.8 44.4 L 55.7 44.4 L 55.7 45.6 Z " stroke="none" fill="#d12229"/>  </g>  <g id="Polygon8086">    <path d="M 0.2 21.9 L 1.3 21.9 C 1.3 21.9 1.26 21.18 1.3 21.2 C 1.3 19.3 2.7 18.6 4.7 18.8 C 4.7 18.8 4.7 20.4 4.7 20.4 C 3.7 20.4 3.3 20.5 3.3 21.3 C 3.3 21.3 3.3 21.9 3.3 21.9 L 4.7 21.9 L 4.7 23.3 L 3.3 23.3 L 3.3 29.6 L 1.3 29.6 L 1.3 23.3 L 0.2 23.3 L 0.2 21.9 Z M 5 25.7 C 5 23.4 6.6 21.7 9 21.7 C 11.4 21.7 13 23.4 13 25.7 C 13 28 11.4 29.8 9 29.8 C 6.6 29.8 5 28 5 25.7 Z M 11 25.7 C 11 24.2 10.3 23.2 9 23.2 C 7.8 23.2 7.1 24.2 7.1 25.7 C 7.1 27.2 7.8 28.2 9 28.2 C 10.3 28.2 11 27.2 11 25.7 Z M 16 23.1 C 16 23.1 16 23.1 16 23.1 C 16.5 22.2 17 21.8 17.9 21.8 C 18.1 21.8 18.3 21.8 18.4 21.8 C 18.37 21.84 18.4 23.6 18.4 23.6 C 18.4 23.6 18.33 23.63 18.3 23.6 C 17 23.5 16 24.2 16 25.8 C 16.03 25.81 16 29.6 16 29.6 L 14 29.6 L 14 21.9 L 16 21.9 L 16 23.1 Z M 19.3 21.9 L 21.2 21.9 L 21.2 22.9 C 21.2 22.9 21.27 22.9 21.3 22.9 C 21.7 22.2 22.4 21.7 23.5 21.7 C 24.5 21.7 25.3 22.2 25.6 23 C 25.6 23 25.7 23 25.7 23 C 26.2 22.2 27 21.7 28 21.7 C 29.6 21.7 30.5 22.7 30.5 24.4 C 30.51 24.39 30.5 29.6 30.5 29.6 L 28.5 29.6 C 28.5 29.6 28.47 24.73 28.5 24.7 C 28.5 23.9 28 23.4 27.3 23.4 C 26.4 23.4 25.9 24.1 25.9 25.1 C 25.9 25.09 25.9 29.6 25.9 29.6 L 23.9 29.6 C 23.9 29.6 23.87 24.73 23.9 24.7 C 23.9 23.9 23.4 23.4 22.7 23.4 C 21.9 23.4 21.3 24.1 21.3 25.1 C 21.3 25.09 21.3 29.6 21.3 29.6 L 19.3 29.6 L 19.3 21.9 Z " stroke="none" fill="#40ad48"/>  </g>  <g id="Polygon8085">    <path d="M 0.8 0.8 L 3 0.8 C 3 0.8 6.6 6.82 6.6 6.8 C 6.95 7.41 7.4 8.3 7.4 8.3 L 7.4 8.3 C 7.4 8.3 7.32 7.21 7.3 6.5 C 7.32 6.46 7.3 0.8 7.3 0.8 L 9.5 0.8 L 9.5 11.6 L 7.4 11.6 C 7.4 11.6 3.7 5.64 3.7 5.6 C 3.36 5.07 2.9 4.2 2.9 4.2 L 2.9 4.2 C 2.9 4.2 2.97 5.28 3 6 C 2.97 6.03 3 11.6 3 11.6 L 0.8 11.6 L 0.8 0.8 Z M 10.6 7.7 C 10.6 5.4 12.2 3.7 14.6 3.7 C 17 3.7 18.6 5.4 18.6 7.7 C 18.6 10 17 11.8 14.6 11.8 C 12.2 11.8 10.6 10 10.6 7.7 Z M 16.5 7.7 C 16.5 6.2 15.8 5.2 14.6 5.2 C 13.3 5.2 12.6 6.2 12.6 7.7 C 12.6 9.2 13.3 10.2 14.6 10.2 C 15.8 10.2 16.5 9.2 16.5 7.7 Z M 21.6 4.9 C 21.6 4.9 21.6 4.92 21.6 4.9 C 22.1 4.1 22.8 3.7 23.9 3.7 C 25.5 3.7 26.5 4.9 26.5 6.5 C 26.53 6.54 26.5 11.6 26.5 11.6 L 24.5 11.6 C 24.5 11.6 24.5 6.84 24.5 6.8 C 24.5 6 24 5.4 23.2 5.4 C 22.3 5.4 21.6 6.1 21.6 7.2 C 21.6 7.2 21.6 11.6 21.6 11.6 L 19.6 11.6 L 19.6 3.9 L 21.6 3.9 L 21.6 4.9 Z M 27.6 7 L 31.7 7 L 31.7 8.7 L 27.6 8.7 L 27.6 7 Z M 32.7 11.8 C 32.7 11.8 34.7 11.8 34.7 11.8 C 34.9 12.3 35.3 12.6 36.2 12.6 C 37.4 12.6 38 12.1 38 11 C 37.95 11.04 38 10.2 38 10.2 C 38 10.2 37.91 10.2 37.9 10.2 C 37.5 10.7 36.9 11.1 35.9 11.1 C 34.2 11.1 32.5 9.8 32.5 7.4 C 32.5 5.1 33.9 3.7 35.8 3.7 C 36.8 3.7 37.5 4 38 4.7 C 37.97 4.68 38 4.7 38 4.7 L 38 3.9 L 40 3.9 C 40 3.9 39.96 10.98 40 11 C 40 12.1 39.6 12.8 39 13.3 C 38.4 13.9 37.4 14.2 36.3 14.2 C 34.2 14.2 32.9 13.3 32.7 11.8 Z M 38.1 7.4 C 38.1 6.3 37.5 5.3 36.2 5.3 C 35.2 5.3 34.5 6.1 34.5 7.4 C 34.5 8.7 35.2 9.5 36.2 9.5 C 37.5 9.5 38.1 8.5 38.1 7.4 Z M 46.1 11.6 L 46.1 10.7 C 46.1 10.7 46.1 10.67 46.1 10.7 C 45.6 11.4 45 11.8 43.9 11.8 C 42.2 11.8 41.2 10.7 41.2 9 C 41.22 9 41.2 3.9 41.2 3.9 L 43.2 3.9 C 43.2 3.9 43.24 8.66 43.2 8.7 C 43.2 9.6 43.6 10.1 44.5 10.1 C 45.5 10.1 46.1 9.3 46.1 8.3 C 46.07 8.31 46.1 3.9 46.1 3.9 L 48.1 3.9 L 48.1 11.6 L 46.1 11.6 Z M 51.4 4.9 C 51.4 4.9 51.46 4.92 51.5 4.9 C 52 4.1 52.7 3.7 53.7 3.7 C 55.3 3.7 56.4 4.9 56.4 6.5 C 56.4 6.54 56.4 11.6 56.4 11.6 L 54.4 11.6 C 54.4 11.6 54.36 6.84 54.4 6.8 C 54.4 6 53.9 5.4 53 5.4 C 52.1 5.4 51.5 6.1 51.5 7.2 C 51.46 7.2 51.5 11.6 51.5 11.6 L 49.4 11.6 L 49.4 3.9 L 51.4 3.9 L 51.4 4.9 Z M 57.5 7 L 61.6 7 L 61.6 8.7 L 57.5 8.7 L 57.5 7 Z M 62.8 0.8 L 64.8 0.8 L 64.8 11.6 L 62.8 11.6 L 62.8 0.8 Z M 66.2 3.9 L 68.2 3.9 L 68.2 11.6 L 66.2 11.6 L 66.2 3.9 Z M 66.2 0.8 L 68.2 0.8 L 68.2 2.7 L 66.2 2.7 L 66.2 0.8 Z M 72.4 8.1 L 71.5 9 L 71.5 11.6 L 69.5 11.6 L 69.5 0.8 L 71.5 0.8 L 71.5 6.8 L 74.3 3.9 L 76.7 3.9 L 73.9 6.8 L 77.1 11.6 L 74.6 11.6 L 72.4 8.1 Z M 76.8 7.7 C 76.8 5.4 78.4 3.7 80.6 3.7 C 83.1 3.7 84.4 5.5 84.4 8.3 C 84.4 8.3 78.8 8.3 78.8 8.3 C 79 9.5 79.6 10.2 80.8 10.2 C 81.6 10.2 82 9.9 82.3 9.3 C 82.3 9.3 84.3 9.3 84.3 9.3 C 84 10.6 82.8 11.8 80.8 11.8 C 78.3 11.8 76.8 10 76.8 7.7 Z M 78.9 6.9 C 78.9 6.9 82.3 6.9 82.3 6.9 C 82.2 5.9 81.6 5.2 80.6 5.2 C 79.6 5.2 79 5.9 78.9 6.9 Z " stroke="none" fill="#40ad48"/>  </g></svg>