<?xml version="1.0" standalone="no"?><!DOCTYPE svg PUBLIC "-//W3C//DTD SVG 1.1//EN" "http://www.w3.org/Graphics/SVG/1.1/DTD/svg11.dtd"><svg xmlns="http://www.w3.org/2000/svg" version="1.1" width="483.1px" height="59.6px" viewBox="0 -4 483.1 59.6" style="top:-4px">  <desc>85% of parents consider 3 factors promoting independent play to be determening for their choice in</desc>  <defs/>  <g id="Polygon7684">    <path d="M 159.3 29.2 L 160.8 29.2 L 160.8 25.9 L 162.4 25.9 L 162.4 29.2 L 164.4 29.2 L 164.4 30.5 L 162.4 30.5 C 162.4 30.5 162.42 37.2 162.4 37.2 C 162.4 37.9 162.8 38.2 163.5 38.2 C 163.8 38.2 164.1 38.1 164.3 38 C 164.32 38.02 164.4 38 164.4 38 C 164.4 38 164.38 39.42 164.4 39.4 C 164 39.5 163.6 39.6 163.1 39.6 C 161.8 39.6 160.8 39 160.8 37.6 C 160.8 37.56 160.8 30.5 160.8 30.5 L 159.3 30.5 L 159.3 29.2 Z M 165.4 34.3 C 165.4 31.3 167.3 28.9 170.4 28.9 C 173.5 28.9 175.4 31.3 175.4 34.3 C 175.4 37.3 173.5 39.8 170.4 39.8 C 167.3 39.8 165.4 37.3 165.4 34.3 Z M 173.7 34.3 C 173.7 32.1 172.6 30.2 170.4 30.2 C 168.2 30.2 167.1 32.1 167.1 34.3 C 167.1 36.6 168.2 38.4 170.4 38.4 C 172.6 38.4 173.7 36.6 173.7 34.3 Z M 181.9 38.1 C 181.86 38.14 181.8 38.1 181.8 38.1 L 181.8 39.5 L 180.2 39.5 L 180.2 25.2 L 181.8 25.2 L 181.8 30.6 C 181.8 30.6 181.86 30.64 181.9 30.6 C 182.6 29.6 183.7 28.9 185.2 28.9 C 187.8 28.9 189.6 30.9 189.6 34.4 C 189.6 37.7 187.9 39.8 185.1 39.8 C 183.7 39.8 182.7 39.3 181.9 38.1 Z M 187.9 34.4 C 187.9 32.1 187 30.3 185 30.3 C 182.8 30.3 181.7 32.1 181.7 34.4 C 181.7 36.7 182.8 38.4 185 38.4 C 187 38.4 187.9 36.7 187.9 34.4 Z M 190.6 34.3 C 190.6 31.3 192.6 28.9 195.5 28.9 C 198.6 28.9 200.3 31.3 200.3 34.7 C 200.3 34.7 192.3 34.7 192.3 34.7 C 192.4 36.8 193.5 38.4 195.6 38.4 C 197.1 38.4 198.1 37.7 198.5 36.3 C 198.5 36.3 200.1 36.3 200.1 36.3 C 199.6 38.5 198 39.8 195.6 39.8 C 192.5 39.8 190.6 37.3 190.6 34.3 Z M 192.3 33.5 C 192.3 33.5 198.5 33.5 198.5 33.5 C 198.4 31.4 197.4 30.2 195.5 30.2 C 193.6 30.2 192.6 31.6 192.3 33.5 Z M 204.5 34.4 C 204.5 30.9 206.4 28.9 209 28.9 C 210.5 28.9 211.6 29.6 212.2 30.6 C 212.24 30.62 212.3 30.6 212.3 30.6 L 212.3 25.2 L 213.9 25.2 L 213.9 39.5 L 212.3 39.5 L 212.3 38.2 C 212.3 38.2 212.24 38.24 212.2 38.2 C 211.5 39.2 210.5 39.8 209 39.8 C 206.2 39.8 204.5 37.7 204.5 34.4 Z M 212.4 34.4 C 212.4 32 211.2 30.3 209.1 30.3 C 207.1 30.3 206.1 32.1 206.1 34.4 C 206.1 36.7 207.1 38.4 209.1 38.4 C 211.4 38.4 212.4 36.7 212.4 34.4 Z M 215.5 34.3 C 215.5 31.3 217.5 28.9 220.4 28.9 C 223.5 28.9 225.2 31.3 225.2 34.7 C 225.2 34.7 217.2 34.7 217.2 34.7 C 217.3 36.8 218.4 38.4 220.5 38.4 C 222 38.4 223 37.7 223.4 36.3 C 223.4 36.3 225 36.3 225 36.3 C 224.5 38.5 222.9 39.8 220.5 39.8 C 217.4 39.8 215.5 37.3 215.5 34.3 Z M 217.2 33.5 C 217.2 33.5 223.4 33.5 223.4 33.5 C 223.3 31.4 222.3 30.2 220.4 30.2 C 218.5 30.2 217.5 31.6 217.2 33.5 Z M 225.9 29.2 L 227.4 29.2 L 227.4 25.9 L 229 25.9 L 229 29.2 L 231 29.2 L 231 30.5 L 229 30.5 C 229 30.5 229.02 37.2 229 37.2 C 229 37.9 229.4 38.2 230.1 38.2 C 230.4 38.2 230.7 38.1 230.9 38 C 230.92 38.02 231 38 231 38 C 231 38 230.98 39.42 231 39.4 C 230.6 39.5 230.2 39.6 229.7 39.6 C 228.4 39.6 227.4 39 227.4 37.6 C 227.4 37.56 227.4 30.5 227.4 30.5 L 225.9 30.5 L 225.9 29.2 Z M 232 34.3 C 232 31.3 234 28.9 236.9 28.9 C 240 28.9 241.7 31.3 241.7 34.7 C 241.7 34.7 233.7 34.7 233.7 34.7 C 233.8 36.8 234.9 38.4 237 38.4 C 238.5 38.4 239.5 37.7 239.9 36.3 C 239.9 36.3 241.5 36.3 241.5 36.3 C 241 38.5 239.4 39.8 237 39.8 C 233.9 39.8 232 37.3 232 34.3 Z M 233.7 33.5 C 233.7 33.5 239.9 33.5 239.9 33.5 C 239.8 31.4 238.8 30.2 236.9 30.2 C 235 30.2 234 31.6 233.7 33.5 Z M 244.9 30.9 C 244.9 30.9 244.92 30.88 244.9 30.9 C 245.5 29.9 246.6 29 248 29 C 248.3 29 248.5 29.1 248.7 29.2 C 248.66 29.16 248.7 30.7 248.7 30.7 C 248.7 30.7 248.6 30.72 248.6 30.7 C 248.4 30.6 248.2 30.6 247.9 30.6 C 246.3 30.6 244.9 31.8 244.9 33.8 C 244.88 33.76 244.9 39.5 244.9 39.5 L 243.3 39.5 L 243.3 29.2 L 244.9 29.2 L 244.9 30.9 Z M 250.1 29.2 L 251.7 29.2 L 251.7 30.6 C 251.7 30.6 251.78 30.64 251.8 30.6 C 252.4 29.6 253.5 28.9 254.8 28.9 C 256.1 28.9 257.1 29.6 257.5 30.8 C 257.5 30.8 257.6 30.8 257.6 30.8 C 258.2 29.6 259.5 28.9 260.7 28.9 C 262.6 28.9 263.9 30.1 263.9 32.2 C 263.86 32.24 263.9 39.5 263.9 39.5 L 262.2 39.5 C 262.2 39.5 262.24 32.32 262.2 32.3 C 262.2 31 261.4 30.3 260.3 30.3 C 259 30.3 257.8 31.4 257.8 33.1 C 257.8 33.06 257.8 39.5 257.8 39.5 L 256.2 39.5 C 256.2 39.5 256.18 32.32 256.2 32.3 C 256.2 31 255.5 30.3 254.4 30.3 C 253.1 30.3 251.7 31.4 251.7 33.1 C 251.74 33.06 251.7 39.5 251.7 39.5 L 250.1 39.5 L 250.1 29.2 Z M 265.4 34.3 C 265.4 31.3 267.4 28.9 270.3 28.9 C 273.4 28.9 275.1 31.3 275.1 34.7 C 275.1 34.7 267.1 34.7 267.1 34.7 C 267.2 36.8 268.3 38.4 270.4 38.4 C 271.9 38.4 272.9 37.7 273.3 36.3 C 273.3 36.3 274.9 36.3 274.9 36.3 C 274.4 38.5 272.8 39.8 270.4 39.8 C 267.3 39.8 265.4 37.3 265.4 34.3 Z M 267.1 33.5 C 267.1 33.5 273.3 33.5 273.3 33.5 C 273.2 31.4 272.2 30.2 270.3 30.2 C 268.4 30.2 267.4 31.6 267.1 33.5 Z M 278.3 30.5 C 278.3 30.5 278.32 30.52 278.3 30.5 C 279.1 29.5 280.1 28.9 281.6 28.9 C 283.8 28.9 285.1 30.1 285.1 32.2 C 285.08 32.24 285.1 39.5 285.1 39.5 L 283.5 39.5 C 283.5 39.5 283.46 32.38 283.5 32.4 C 283.5 31 282.6 30.3 281.1 30.3 C 279.5 30.3 278.3 31.4 278.3 33.1 C 278.28 33.14 278.3 39.5 278.3 39.5 L 276.7 39.5 L 276.7 29.2 L 278.3 29.2 L 278.3 30.5 Z M 287.2 29.2 L 288.8 29.2 L 288.8 39.5 L 287.2 39.5 L 287.2 29.2 Z M 287.2 25.2 L 288.8 25.2 L 288.8 27.2 L 287.2 27.2 L 287.2 25.2 Z M 292.7 30.5 C 292.7 30.5 292.7 30.52 292.7 30.5 C 293.4 29.5 294.5 28.9 296 28.9 C 298.1 28.9 299.5 30.1 299.5 32.2 C 299.46 32.24 299.5 39.5 299.5 39.5 L 297.8 39.5 C 297.8 39.5 297.84 32.38 297.8 32.4 C 297.8 31 297 30.3 295.5 30.3 C 293.9 30.3 292.7 31.4 292.7 33.1 C 292.66 33.14 292.7 39.5 292.7 39.5 L 291 39.5 L 291 29.2 L 292.7 29.2 L 292.7 30.5 Z M 301.3 40.1 C 301.3 40.1 302.8 40.1 302.8 40.1 C 303 41.2 304.1 41.7 305.7 41.7 C 307.6 41.7 308.6 40.8 308.6 39 C 308.64 39 308.6 37.5 308.6 37.5 C 308.6 37.5 308.6 37.54 308.6 37.5 C 307.8 38.5 307 39.1 305.5 39.1 C 302.9 39.1 301 37 301 34 C 301 30.8 303 28.9 305.4 28.9 C 306.9 28.9 307.9 29.5 308.6 30.5 C 308.6 30.48 308.6 30.5 308.6 30.5 L 308.6 29.2 L 310.3 29.2 C 310.3 29.2 310.26 38.94 310.3 38.9 C 310.3 41.7 308.5 42.9 305.7 42.9 C 303 42.9 301.5 41.9 301.3 40.1 Z M 308.8 33.9 C 308.8 31.7 307.8 30.3 305.6 30.3 C 303.7 30.3 302.7 31.8 302.7 34 C 302.7 36.3 303.7 37.8 305.6 37.8 C 308 37.8 308.8 36.1 308.8 33.9 Z M 315 29.2 L 316.4 29.2 C 316.4 29.2 316.4 27.5 316.4 27.5 C 316.4 25.7 317.4 25.1 319.1 25.1 C 319.5 25.1 319.7 25.1 320 25.1 C 320 25.1 320 26.5 320 26.5 C 319.7 26.5 319.6 26.5 319.4 26.5 C 318.4 26.5 318 26.7 318 27.6 C 318.02 27.58 318 29.2 318 29.2 L 319.9 29.2 L 319.9 30.5 L 318 30.5 L 318 39.5 L 316.4 39.5 L 316.4 30.5 L 315 30.5 L 315 29.2 Z M 320.6 34.3 C 320.6 31.3 322.6 28.9 325.6 28.9 C 328.7 28.9 330.6 31.3 330.6 34.3 C 330.6 37.3 328.7 39.8 325.6 39.8 C 322.6 39.8 320.6 37.3 320.6 34.3 Z M 329 34.3 C 329 32.1 327.8 30.2 325.6 30.2 C 323.4 30.2 322.3 32.1 322.3 34.3 C 322.3 36.6 323.4 38.4 325.6 38.4 C 327.8 38.4 329 36.6 329 34.3 Z M 333.9 30.9 C 333.9 30.9 333.9 30.88 333.9 30.9 C 334.5 29.9 335.6 29 337 29 C 337.3 29 337.4 29.1 337.6 29.2 C 337.64 29.16 337.6 30.7 337.6 30.7 C 337.6 30.7 337.58 30.72 337.6 30.7 C 337.3 30.6 337.2 30.6 336.9 30.6 C 335.3 30.6 333.9 31.8 333.9 33.8 C 333.86 33.76 333.9 39.5 333.9 39.5 L 332.2 39.5 L 332.2 29.2 L 333.9 29.2 L 333.9 30.9 Z M 341.6 29.2 L 343.1 29.2 L 343.1 25.9 L 344.7 25.9 L 344.7 29.2 L 346.7 29.2 L 346.7 30.5 L 344.7 30.5 C 344.7 30.5 344.74 37.2 344.7 37.2 C 344.7 37.9 345.1 38.2 345.8 38.2 C 346.1 38.2 346.5 38.1 346.6 38 C 346.64 38.02 346.7 38 346.7 38 C 346.7 38 346.7 39.42 346.7 39.4 C 346.3 39.5 345.9 39.6 345.4 39.6 C 344.1 39.6 343.1 39 343.1 37.6 C 343.12 37.56 343.1 30.5 343.1 30.5 L 341.6 30.5 L 341.6 29.2 Z M 350 30.5 C 350 30.5 350.08 30.52 350.1 30.5 C 350.8 29.5 351.9 28.9 353.4 28.9 C 355.5 28.9 356.8 30.1 356.8 32.2 C 356.84 32.24 356.8 39.5 356.8 39.5 L 355.2 39.5 C 355.2 39.5 355.22 32.38 355.2 32.4 C 355.2 31 354.3 30.3 352.9 30.3 C 351.2 30.3 350 31.4 350 33.1 C 350.04 33.14 350 39.5 350 39.5 L 348.4 39.5 L 348.4 25.2 L 350 25.2 L 350 30.5 Z M 358.4 34.3 C 358.4 31.3 360.4 28.9 363.3 28.9 C 366.4 28.9 368.1 31.3 368.1 34.7 C 368.1 34.7 360.1 34.7 360.1 34.7 C 360.2 36.8 361.3 38.4 363.4 38.4 C 364.9 38.4 365.9 37.7 366.3 36.3 C 366.3 36.3 367.8 36.3 367.8 36.3 C 367.4 38.5 365.7 39.8 363.4 39.8 C 360.2 39.8 358.4 37.3 358.4 34.3 Z M 360.1 33.5 C 360.1 33.5 366.3 33.5 366.3 33.5 C 366.2 31.4 365.2 30.2 363.3 30.2 C 361.4 30.2 360.3 31.6 360.1 33.5 Z M 369.6 29.2 L 371.3 29.2 L 371.3 39.5 L 369.6 39.5 L 369.6 29.2 Z M 369.6 25.2 L 371.3 25.2 L 371.3 27.2 L 369.6 27.2 L 369.6 25.2 Z M 375.1 30.9 C 375.1 30.9 375.12 30.88 375.1 30.9 C 375.7 29.9 376.8 29 378.2 29 C 378.5 29 378.7 29.1 378.9 29.2 C 378.86 29.16 378.9 30.7 378.9 30.7 C 378.9 30.7 378.8 30.72 378.8 30.7 C 378.6 30.6 378.4 30.6 378.1 30.6 C 376.5 30.6 375.1 31.8 375.1 33.8 C 375.08 33.76 375.1 39.5 375.1 39.5 L 373.5 39.5 L 373.5 29.2 L 375.1 29.2 L 375.1 30.9 Z M 382.9 34.3 C 382.9 31.3 384.8 28.9 387.9 28.9 C 390.4 28.9 392 30.3 392.3 32.5 C 392.3 32.5 390.7 32.5 390.7 32.5 C 390.5 31.1 389.5 30.2 387.9 30.2 C 385.7 30.2 384.6 32.1 384.6 34.3 C 384.6 36.6 385.7 38.4 387.9 38.4 C 389.6 38.4 390.6 37.5 390.7 35.9 C 390.7 35.9 392.3 35.9 392.3 35.9 C 392.1 38.3 390.5 39.8 387.9 39.8 C 384.8 39.8 382.9 37.3 382.9 34.3 Z M 395.5 30.5 C 395.5 30.5 395.54 30.52 395.5 30.5 C 396.3 29.5 397.3 28.9 398.8 28.9 C 401 28.9 402.3 30.1 402.3 32.2 C 402.3 32.24 402.3 39.5 402.3 39.5 L 400.7 39.5 C 400.7 39.5 400.68 32.38 400.7 32.4 C 400.7 31 399.8 30.3 398.3 30.3 C 396.7 30.3 395.5 31.4 395.5 33.1 C 395.5 33.14 395.5 39.5 395.5 39.5 L 393.9 39.5 L 393.9 25.2 L 395.5 25.2 L 395.5 30.5 Z M 403.9 34.3 C 403.9 31.3 405.8 28.9 408.9 28.9 C 412 28.9 413.8 31.3 413.8 34.3 C 413.8 37.3 412 39.8 408.9 39.8 C 405.8 39.8 403.9 37.3 403.9 34.3 Z M 412.2 34.3 C 412.2 32.1 411.1 30.2 408.9 30.2 C 406.7 30.2 405.5 32.1 405.5 34.3 C 405.5 36.6 406.7 38.4 408.9 38.4 C 411.1 38.4 412.2 36.6 412.2 34.3 Z M 415.5 29.2 L 417.1 29.2 L 417.1 39.5 L 415.5 39.5 L 415.5 29.2 Z M 415.5 25.2 L 417.1 25.2 L 417.1 27.2 L 415.5 27.2 L 415.5 25.2 Z M 418.7 34.3 C 418.7 31.3 420.6 28.9 423.7 28.9 C 426.1 28.9 427.8 30.3 428.1 32.5 C 428.1 32.5 426.5 32.5 426.5 32.5 C 426.2 31.1 425.3 30.2 423.7 30.2 C 421.5 30.2 420.4 32.1 420.4 34.3 C 420.4 36.6 421.5 38.4 423.7 38.4 C 425.4 38.4 426.4 37.5 426.5 35.9 C 426.5 35.9 428.1 35.9 428.1 35.9 C 427.9 38.3 426.3 39.8 423.7 39.8 C 420.6 39.8 418.7 37.3 418.7 34.3 Z M 429.1 34.3 C 429.1 31.3 431 28.9 434 28.9 C 437.1 28.9 438.7 31.3 438.7 34.7 C 438.7 34.7 430.7 34.7 430.7 34.7 C 430.9 36.8 432 38.4 434.1 38.4 C 435.6 38.4 436.6 37.7 436.9 36.3 C 436.9 36.3 438.5 36.3 438.5 36.3 C 438 38.5 436.4 39.8 434.1 39.8 C 430.9 39.8 429.1 37.3 429.1 34.3 Z M 430.8 33.5 C 430.8 33.5 437 33.5 437 33.5 C 436.9 31.4 435.8 30.2 434 30.2 C 432.1 30.2 431 31.6 430.8 33.5 Z M 443.5 29.2 L 445.1 29.2 L 445.1 39.5 L 443.5 39.5 L 443.5 29.2 Z M 443.5 25.2 L 445.1 25.2 L 445.1 27.2 L 443.5 27.2 L 443.5 25.2 Z M 448.9 30.5 C 448.9 30.5 448.97 30.52 449 30.5 C 449.7 29.5 450.8 28.9 452.3 28.9 C 454.4 28.9 455.7 30.1 455.7 32.2 C 455.73 32.24 455.7 39.5 455.7 39.5 L 454.1 39.5 C 454.1 39.5 454.11 32.38 454.1 32.4 C 454.1 31 453.2 30.3 451.8 30.3 C 450.1 30.3 448.9 31.4 448.9 33.1 C 448.93 33.14 448.9 39.5 448.9 39.5 L 447.3 39.5 L 447.3 29.2 L 448.9 29.2 L 448.9 30.5 Z " stroke="none" fill="#000"/>  </g>  <g id="Polygon7683">    <path d="M 0.8 29.3 L 4 29.3 L 4 39.5 L 0.8 39.5 L 0.8 29.3 Z M 0.8 25.2 L 4 25.2 L 4 27.8 L 0.8 27.8 L 0.8 25.2 Z M 5.6 29.3 L 8.7 29.3 L 8.7 30.7 C 8.7 30.7 8.8 30.66 8.8 30.7 C 9.6 29.6 10.5 29 12 29 C 14.2 29 15.5 30.6 15.5 32.8 C 15.52 32.84 15.5 39.5 15.5 39.5 L 12.3 39.5 C 12.3 39.5 12.26 33.5 12.3 33.5 C 12.3 32.4 11.7 31.7 10.7 31.7 C 9.6 31.7 8.9 32.6 8.9 33.8 C 8.86 33.84 8.9 39.5 8.9 39.5 L 5.6 39.5 L 5.6 29.3 Z M 16.5 34.4 C 16.5 31.2 18.4 29 21 29 C 22.5 29 23.3 29.6 23.9 30.4 C 23.88 30.42 23.9 30.4 23.9 30.4 L 23.9 25.2 L 27.2 25.2 L 27.2 39.5 L 24.1 39.5 L 24.1 38.1 C 24.1 38.1 24.04 38.12 24 38.1 C 23.4 39.2 22.4 39.8 21 39.8 C 18.4 39.8 16.5 37.8 16.5 34.4 Z M 24 34.4 C 24 32.7 23.3 31.4 21.9 31.4 C 20.6 31.4 19.8 32.6 19.8 34.3 C 19.8 36.1 20.6 37.2 21.9 37.2 C 23.2 37.2 24 36.1 24 34.4 Z M 28.3 34.4 C 28.3 31.3 30.4 29 33.6 29 C 35 29 36.2 29.4 37.1 30.2 C 38.3 31.4 38.9 33.1 38.9 35.2 C 38.9 35.2 31.5 35.2 31.5 35.2 C 31.7 36.6 32.5 37.5 33.8 37.5 C 34.7 37.5 35.2 37.1 35.5 36.4 C 35.5 36.4 38.7 36.4 38.7 36.4 C 38.5 37.4 37.9 38.2 37 38.9 C 36.1 39.5 35.1 39.8 33.8 39.8 C 30.4 39.8 28.3 37.5 28.3 34.4 Z M 35.6 33.3 C 35.4 32.1 34.7 31.3 33.6 31.3 C 32.4 31.3 31.7 32.1 31.5 33.3 C 31.5 33.3 35.6 33.3 35.6 33.3 Z M 40 29.3 L 43.1 29.3 L 43.1 30.5 C 43.1 30.5 43.14 30.5 43.1 30.5 C 43.8 29.6 44.8 29 46.2 29 C 49 29 50.6 31.3 50.6 34.4 C 50.6 37.7 48.8 39.8 46.2 39.8 C 44.8 39.8 43.9 39.3 43.3 38.4 C 43.26 38.44 43.2 38.4 43.2 38.4 L 43.2 42.9 L 40 42.9 L 40 29.3 Z M 47.3 34.5 C 47.3 32.7 46.7 31.6 45.3 31.6 C 43.8 31.6 43.1 32.8 43.1 34.5 C 43.1 36.2 43.9 37.3 45.3 37.3 C 46.6 37.3 47.3 36.2 47.3 34.5 Z M 51.3 34.4 C 51.3 31.3 53.4 29 56.5 29 C 58 29 59.1 29.4 60 30.2 C 61.2 31.4 61.8 33.1 61.8 35.2 C 61.8 35.2 54.5 35.2 54.5 35.2 C 54.7 36.6 55.4 37.5 56.8 37.5 C 57.6 37.5 58.2 37.1 58.5 36.4 C 58.5 36.4 61.6 36.4 61.6 36.4 C 61.4 37.4 60.8 38.2 59.9 38.9 C 59.1 39.5 58 39.8 56.7 39.8 C 53.3 39.8 51.3 37.5 51.3 34.4 Z M 58.5 33.3 C 58.4 32.1 57.6 31.3 56.6 31.3 C 55.3 31.3 54.7 32.1 54.5 33.3 C 54.5 33.3 58.5 33.3 58.5 33.3 Z M 62.9 29.3 L 66.1 29.3 L 66.1 30.7 C 66.1 30.7 66.12 30.66 66.1 30.7 C 66.9 29.6 67.9 29 69.3 29 C 71.5 29 72.8 30.6 72.8 32.8 C 72.84 32.84 72.8 39.5 72.8 39.5 L 69.6 39.5 C 69.6 39.5 69.58 33.5 69.6 33.5 C 69.6 32.4 69 31.7 68 31.7 C 66.9 31.7 66.2 32.6 66.2 33.8 C 66.18 33.84 66.2 39.5 66.2 39.5 L 62.9 39.5 L 62.9 29.3 Z M 73.9 34.4 C 73.9 31.2 75.7 29 78.3 29 C 79.8 29 80.6 29.6 81.2 30.4 C 81.2 30.42 81.3 30.4 81.3 30.4 L 81.3 25.2 L 84.5 25.2 L 84.5 39.5 L 81.4 39.5 L 81.4 38.1 C 81.4 38.1 81.36 38.12 81.4 38.1 C 80.7 39.2 79.7 39.8 78.3 39.8 C 75.7 39.8 73.9 37.8 73.9 34.4 Z M 81.3 34.4 C 81.3 32.7 80.6 31.4 79.2 31.4 C 77.9 31.4 77.2 32.6 77.2 34.3 C 77.2 36.1 77.9 37.2 79.2 37.2 C 80.5 37.2 81.3 36.1 81.3 34.4 Z M 85.6 34.4 C 85.6 31.3 87.8 29 90.9 29 C 92.3 29 93.5 29.4 94.4 30.2 C 95.6 31.4 96.2 33.1 96.2 35.2 C 96.2 35.2 88.8 35.2 88.8 35.2 C 89 36.6 89.8 37.5 91.1 37.5 C 92 37.5 92.5 37.1 92.8 36.4 C 92.8 36.4 96 36.4 96 36.4 C 95.8 37.4 95.2 38.2 94.3 38.9 C 93.4 39.5 92.4 39.8 91.1 39.8 C 87.7 39.8 85.6 37.5 85.6 34.4 Z M 92.9 33.3 C 92.8 32.1 92 31.3 90.9 31.3 C 89.7 31.3 89.1 32.1 88.8 33.3 C 88.8 33.3 92.9 33.3 92.9 33.3 Z M 97.3 29.3 L 100.4 29.3 L 100.4 30.7 C 100.4 30.7 100.48 30.66 100.5 30.7 C 101.2 29.6 102.2 29 103.6 29 C 105.9 29 107.2 30.6 107.2 32.8 C 107.2 32.84 107.2 39.5 107.2 39.5 L 103.9 39.5 C 103.9 39.5 103.94 33.5 103.9 33.5 C 103.9 32.4 103.4 31.7 102.3 31.7 C 101.3 31.7 100.5 32.6 100.5 33.8 C 100.54 33.84 100.5 39.5 100.5 39.5 L 97.3 39.5 L 97.3 29.3 Z M 109.3 36.8 C 109.28 36.8 109.3 31.3 109.3 31.3 L 107.9 31.3 L 107.9 29.3 L 109.3 29.3 L 109.3 26 L 112.5 26 L 112.5 29.3 L 114.3 29.3 L 114.3 31.3 L 112.5 31.3 C 112.5 31.3 112.46 36.1 112.5 36.1 C 112.5 36.9 112.9 37.1 113.6 37.1 C 113.9 37.1 114.2 37.1 114.3 37.1 C 114.3 37.1 114.3 39.5 114.3 39.5 C 114 39.5 113.4 39.6 112.5 39.6 C 110.6 39.6 109.3 39 109.3 36.8 Z M 118.6 29.3 L 121.7 29.3 L 121.7 30.5 C 121.7 30.5 121.78 30.5 121.8 30.5 C 122.5 29.6 123.5 29 124.9 29 C 127.6 29 129.3 31.3 129.3 34.4 C 129.3 37.7 127.5 39.8 124.8 39.8 C 123.5 39.8 122.5 39.3 121.9 38.4 C 121.9 38.44 121.9 38.4 121.9 38.4 L 121.9 42.9 L 118.6 42.9 L 118.6 29.3 Z M 126 34.5 C 126 32.7 125.3 31.6 123.9 31.6 C 122.5 31.6 121.8 32.8 121.8 34.5 C 121.8 36.2 122.6 37.3 124 37.3 C 125.2 37.3 126 36.2 126 34.5 Z M 130.4 25.2 L 133.7 25.2 L 133.7 39.5 L 130.4 39.5 L 130.4 25.2 Z M 134.8 36.6 C 134.8 34.4 136.6 33.7 138.7 33.4 C 140.6 33.2 141.3 33 141.3 32.3 C 141.3 31.6 140.9 31.2 139.9 31.2 C 138.9 31.2 138.3 31.6 138.2 32.5 C 138.2 32.5 135.2 32.5 135.2 32.5 C 135.3 30.6 136.8 29 139.9 29 C 141.4 29 142.5 29.3 143.2 29.8 C 144.1 30.5 144.5 31.5 144.5 32.7 C 144.5 32.7 144.5 37.9 144.5 37.9 C 144.5 38.7 144.6 39.2 144.9 39.4 C 144.86 39.36 144.9 39.5 144.9 39.5 C 144.9 39.5 141.7 39.5 141.7 39.5 C 141.5 39.3 141.4 38.9 141.4 38.4 C 141.4 38.4 141.3 38.4 141.3 38.4 C 140.7 39.2 139.8 39.8 138.3 39.8 C 136.2 39.8 134.8 38.7 134.8 36.6 Z M 141.4 35.8 C 141.4 35.8 141.4 34.6 141.4 34.6 C 141 34.8 140.4 35 139.7 35.2 C 138.4 35.4 137.9 35.8 137.9 36.5 C 137.9 37.4 138.5 37.7 139.3 37.7 C 140.5 37.7 141.4 36.9 141.4 35.8 Z M 146.2 40.3 C 146.2 40.3 147.34 40.34 147.3 40.3 C 148.3 40.3 148.7 40 148.7 39.3 C 148.7 38.8 148.5 38.2 148.1 37.1 C 148.06 37.14 145 29.3 145 29.3 L 148.5 29.3 C 148.5 29.3 149.86 33.62 149.9 33.6 C 150.18 34.62 150.5 36 150.5 36 L 150.5 36 C 150.5 36 150.82 34.62 151.1 33.6 C 151.14 33.62 152.5 29.3 152.5 29.3 L 155.7 29.3 C 155.7 29.3 152.2 39.64 152.2 39.6 C 151.4 42 150.4 42.9 148.3 42.9 C 148.34 42.88 146.2 42.9 146.2 42.9 L 146.2 40.3 Z " stroke="none" fill="#000"/>  </g>  <g id="Polygon7682">    <path d="M 0.4 11.6 C 0.4 10 1.3 8.8 2.8 8.2 C 2.8 8.2 2.8 8.1 2.8 8.1 C 1.6 7.5 0.9 6.6 0.9 5.3 C 0.9 3.1 2.9 1.5 6.1 1.5 C 9.3 1.5 11.2 3 11.2 5.3 C 11.2 6.5 10.6 7.4 9.4 8 C 9.4 8 9.4 8.1 9.4 8.1 C 11 8.7 11.8 9.9 11.8 11.5 C 11.8 14.2 9.5 15.8 6.1 15.8 C 2.7 15.8 0.4 14.2 0.4 11.6 Z M 8.5 11.4 C 8.5 10.1 7.6 9.3 6.1 9.3 C 4.7 9.3 3.7 10.1 3.7 11.4 C 3.7 12.6 4.7 13.3 6.1 13.3 C 7.5 13.3 8.5 12.5 8.5 11.4 Z M 8.1 5.5 C 8.1 4.5 7.3 3.8 6.1 3.8 C 4.8 3.8 4.1 4.5 4.1 5.5 C 4.1 6.5 4.8 7.2 6.1 7.2 C 7.3 7.2 8.1 6.5 8.1 5.5 Z M 12.4 11.4 C 12.4 11.4 15.7 11.4 15.7 11.4 C 16 12.6 16.9 13.1 18.2 13.1 C 19.5 13.1 20.4 12.2 20.4 10.8 C 20.4 9.4 19.5 8.5 18.1 8.5 C 17.3 8.5 16.5 8.9 16.2 9.4 C 16.18 9.38 13 9.4 13 9.4 L 14.4 1.8 L 22.9 1.8 L 22.9 4.5 L 16.8 4.5 L 16.4 6.9 C 16.4 6.9 16.4 6.94 16.4 6.9 C 16.9 6.5 17.8 6.1 19.1 6.1 C 21.7 6.1 23.8 7.9 23.8 10.8 C 23.8 13.9 21.5 15.8 18.2 15.8 C 15.1 15.8 12.8 14.3 12.4 11.4 Z M 29.2 5.5 C 29.2 4.2 28.8 3.2 28 3.2 C 27.2 3.2 26.8 4.2 26.8 5.5 C 26.8 6.8 27.2 7.8 28 7.8 C 28.8 7.8 29.2 6.9 29.2 5.5 Z M 24.3 5.5 C 24.3 3.1 25.9 1.5 28 1.5 C 30.2 1.5 31.7 3.1 31.7 5.5 C 31.7 7.9 30.1 9.5 28 9.5 C 25.9 9.5 24.3 7.9 24.3 5.5 Z M 35.4 1.8 L 37.3 1.8 L 29.9 15.5 L 28 15.5 L 35.4 1.8 Z M 38.5 11.8 C 38.5 10.5 38.1 9.5 37.3 9.5 C 36.4 9.5 36.1 10.5 36.1 11.8 C 36.1 13.2 36.4 14.1 37.3 14.1 C 38.1 14.1 38.5 13.2 38.5 11.8 Z M 33.6 11.8 C 33.6 9.4 35.1 7.8 37.2 7.8 C 39.4 7.8 40.9 9.4 40.9 11.8 C 40.9 14.3 39.4 15.8 37.2 15.8 C 35.1 15.8 33.6 14.3 33.6 11.8 Z M 45.2 10.3 C 45.2 7.3 47.1 4.9 50.2 4.9 C 53.3 4.9 55.2 7.3 55.2 10.3 C 55.2 13.3 53.3 15.8 50.2 15.8 C 47.1 15.8 45.2 13.3 45.2 10.3 Z M 53.5 10.3 C 53.5 8.1 52.4 6.2 50.2 6.2 C 48 6.2 46.8 8.1 46.8 10.3 C 46.8 12.6 48 14.4 50.2 14.4 C 52.4 14.4 53.5 12.6 53.5 10.3 Z M 55.9 5.2 L 57.3 5.2 C 57.3 5.2 57.34 3.5 57.3 3.5 C 57.3 1.7 58.4 1.1 60.1 1.1 C 60.4 1.1 60.7 1.1 60.9 1.1 C 60.9 1.1 60.9 2.5 60.9 2.5 C 60.6 2.5 60.5 2.5 60.4 2.5 C 59.3 2.5 59 2.7 59 3.6 C 58.96 3.58 59 5.2 59 5.2 L 60.9 5.2 L 60.9 6.5 L 59 6.5 L 59 15.5 L 57.3 15.5 L 57.3 6.5 L 55.9 6.5 L 55.9 5.2 Z M 65.6 5.2 L 67.3 5.2 L 67.3 6.6 C 67.3 6.6 67.3 6.62 67.3 6.6 C 68.1 5.6 69.1 4.9 70.6 4.9 C 73.2 4.9 75.1 6.9 75.1 10.4 C 75.1 13.7 73.4 15.8 70.6 15.8 C 69.2 15.8 68.2 15.4 67.3 14.3 C 67.3 14.28 67.3 14.3 67.3 14.3 L 67.3 18.8 L 65.6 18.8 L 65.6 5.2 Z M 73.4 10.4 C 73.4 8.1 72.4 6.3 70.5 6.3 C 68.2 6.3 67.2 8.1 67.2 10.4 C 67.2 12.6 68.1 14.4 70.4 14.4 C 72.4 14.4 73.4 12.7 73.4 10.4 Z M 83 14.1 C 83 14.1 83 14.1 83 14.1 C 82.4 14.9 81.3 15.7 79.6 15.7 C 77.6 15.7 76.1 14.8 76.1 12.8 C 76.1 10.4 78 9.9 80.6 9.5 C 82 9.3 83 9.1 83 8 C 83 6.8 82.2 6.2 80.7 6.2 C 79 6.2 78.2 6.9 78.1 8.5 C 78.1 8.5 76.6 8.5 76.6 8.5 C 76.6 6.5 78 5 80.7 5 C 82.9 5 84.5 5.8 84.5 8.2 C 84.5 8.2 84.5 13.2 84.5 13.2 C 84.5 14 84.7 14.5 85.6 14.3 C 85.62 14.26 85.7 14.3 85.7 14.3 C 85.7 14.3 85.68 15.44 85.7 15.4 C 85.5 15.5 85.2 15.6 84.8 15.6 C 83.7 15.6 83.2 15.1 83 14.1 Z M 83.1 11.7 C 83.1 11.7 83.1 9.9 83.1 9.9 C 82.5 10.3 81.6 10.5 80.7 10.7 C 79.1 11 77.8 11.3 77.8 12.8 C 77.8 14.2 78.9 14.5 79.9 14.5 C 82.1 14.5 83.1 12.9 83.1 11.7 Z M 88.5 6.9 C 88.5 6.9 88.54 6.88 88.5 6.9 C 89.2 5.9 90.2 5 91.6 5 C 91.9 5 92.1 5.1 92.3 5.2 C 92.28 5.16 92.3 6.7 92.3 6.7 C 92.3 6.7 92.22 6.72 92.2 6.7 C 92 6.6 91.8 6.6 91.5 6.6 C 89.9 6.6 88.5 7.8 88.5 9.8 C 88.5 9.76 88.5 15.5 88.5 15.5 L 86.9 15.5 L 86.9 5.2 L 88.5 5.2 L 88.5 6.9 Z M 92.8 10.3 C 92.8 7.3 94.7 4.9 97.7 4.9 C 100.8 4.9 102.4 7.3 102.4 10.7 C 102.4 10.7 94.4 10.7 94.4 10.7 C 94.5 12.8 95.7 14.4 97.8 14.4 C 99.3 14.4 100.3 13.7 100.6 12.3 C 100.6 12.3 102.2 12.3 102.2 12.3 C 101.7 14.5 100.1 15.8 97.8 15.8 C 94.6 15.8 92.8 13.3 92.8 10.3 Z M 94.5 9.5 C 94.5 9.5 100.7 9.5 100.7 9.5 C 100.6 7.4 99.5 6.2 97.7 6.2 C 95.7 6.2 94.7 7.6 94.5 9.5 Z M 105.6 6.5 C 105.6 6.5 105.66 6.52 105.7 6.5 C 106.4 5.5 107.4 4.9 108.9 4.9 C 111.1 4.9 112.4 6.1 112.4 8.2 C 112.42 8.24 112.4 15.5 112.4 15.5 L 110.8 15.5 C 110.8 15.5 110.8 8.38 110.8 8.4 C 110.8 7 109.9 6.3 108.5 6.3 C 106.8 6.3 105.6 7.4 105.6 9.1 C 105.62 9.14 105.6 15.5 105.6 15.5 L 104 15.5 L 104 5.2 L 105.6 5.2 L 105.6 6.5 Z M 113.7 5.2 L 115.2 5.2 L 115.2 1.9 L 116.8 1.9 L 116.8 5.2 L 118.8 5.2 L 118.8 6.5 L 116.8 6.5 C 116.8 6.5 116.82 13.2 116.8 13.2 C 116.8 13.9 117.2 14.2 117.9 14.2 C 118.2 14.2 118.5 14.1 118.7 14 C 118.72 14.02 118.8 14 118.8 14 C 118.8 14 118.78 15.42 118.8 15.4 C 118.4 15.5 118 15.6 117.5 15.6 C 116.2 15.6 115.2 15 115.2 13.6 C 115.2 13.56 115.2 6.5 115.2 6.5 L 113.7 6.5 L 113.7 5.2 Z M 119.8 12.1 C 119.8 12.1 121.5 12.1 121.5 12.1 C 121.7 13.9 122.9 14.4 124.5 14.4 C 126.2 14.4 126.9 13.7 126.9 12.7 C 126.9 11.6 126.1 11.3 124.2 10.9 C 122.1 10.5 120.3 10 120.3 7.8 C 120.3 6.1 121.6 4.9 124 4.9 C 126.6 4.9 127.8 6.2 128.1 8.2 C 128.1 8.2 126.4 8.2 126.4 8.2 C 126.3 6.8 125.5 6.2 124 6.2 C 122.5 6.2 121.9 6.9 121.9 7.7 C 121.9 8.8 122.9 9 124.7 9.4 C 126.8 9.8 128.5 10.3 128.5 12.7 C 128.5 14.7 126.8 15.8 124.4 15.8 C 121.6 15.8 120 14.5 119.8 12.1 Z M 132.7 10.3 C 132.7 7.3 134.6 4.9 137.7 4.9 C 140.1 4.9 141.7 6.3 142.1 8.5 C 142.1 8.5 140.4 8.5 140.4 8.5 C 140.2 7.1 139.2 6.2 137.7 6.2 C 135.5 6.2 134.3 8.1 134.3 10.3 C 134.3 12.6 135.5 14.4 137.7 14.4 C 139.3 14.4 140.3 13.5 140.5 11.9 C 140.5 11.9 142.1 11.9 142.1 11.9 C 141.9 14.3 140.2 15.8 137.7 15.8 C 134.6 15.8 132.7 13.3 132.7 10.3 Z M 143 10.3 C 143 7.3 145 4.9 148 4.9 C 151.1 4.9 153 7.3 153 10.3 C 153 13.3 151.1 15.8 148 15.8 C 145 15.8 143 13.3 143 10.3 Z M 151.4 10.3 C 151.4 8.1 150.2 6.2 148 6.2 C 145.8 6.2 144.7 8.1 144.7 10.3 C 144.7 12.6 145.8 14.4 148 14.4 C 150.2 14.4 151.4 12.6 151.4 10.3 Z M 156.3 6.5 C 156.3 6.5 156.3 6.52 156.3 6.5 C 157 5.5 158.1 4.9 159.6 4.9 C 161.7 4.9 163.1 6.1 163.1 8.2 C 163.06 8.24 163.1 15.5 163.1 15.5 L 161.4 15.5 C 161.4 15.5 161.44 8.38 161.4 8.4 C 161.4 7 160.6 6.3 159.1 6.3 C 157.5 6.3 156.3 7.4 156.3 9.1 C 156.26 9.14 156.3 15.5 156.3 15.5 L 154.6 15.5 L 154.6 5.2 L 156.3 5.2 L 156.3 6.5 Z M 164.5 12.1 C 164.5 12.1 166.2 12.1 166.2 12.1 C 166.4 13.9 167.6 14.4 169.2 14.4 C 170.9 14.4 171.6 13.7 171.6 12.7 C 171.6 11.6 170.8 11.3 168.9 10.9 C 166.8 10.5 165 10 165 7.8 C 165 6.1 166.3 4.9 168.7 4.9 C 171.3 4.9 172.5 6.2 172.8 8.2 C 172.8 8.2 171.1 8.2 171.1 8.2 C 171 6.8 170.2 6.2 168.7 6.2 C 167.2 6.2 166.6 6.9 166.6 7.7 C 166.6 8.8 167.6 9 169.4 9.4 C 171.5 9.8 173.2 10.3 173.2 12.7 C 173.2 14.7 171.5 15.8 169.1 15.8 C 166.3 15.8 164.7 14.5 164.5 12.1 Z M 174.8 5.2 L 176.4 5.2 L 176.4 15.5 L 174.8 15.5 L 174.8 5.2 Z M 174.8 1.2 L 176.4 1.2 L 176.4 3.2 L 174.8 3.2 L 174.8 1.2 Z M 178 10.4 C 178 6.9 180 4.9 182.5 4.9 C 184 4.9 185.1 5.6 185.8 6.6 C 185.78 6.62 185.8 6.6 185.8 6.6 L 185.8 1.2 L 187.4 1.2 L 187.4 15.5 L 185.8 15.5 L 185.8 14.2 C 185.8 14.2 185.78 14.24 185.8 14.2 C 185 15.2 184 15.8 182.6 15.8 C 179.8 15.8 178 13.7 178 10.4 Z M 185.9 10.4 C 185.9 8 184.8 6.3 182.6 6.3 C 180.7 6.3 179.7 8.1 179.7 10.4 C 179.7 12.7 180.7 14.4 182.6 14.4 C 184.9 14.4 185.9 12.7 185.9 10.4 Z M 189.1 10.3 C 189.1 7.3 191 4.9 194 4.9 C 197.1 4.9 198.7 7.3 198.7 10.7 C 198.7 10.7 190.7 10.7 190.7 10.7 C 190.8 12.8 192 14.4 194.1 14.4 C 195.6 14.4 196.6 13.7 196.9 12.3 C 196.9 12.3 198.5 12.3 198.5 12.3 C 198 14.5 196.4 15.8 194.1 15.8 C 190.9 15.8 189.1 13.3 189.1 10.3 Z M 190.8 9.5 C 190.8 9.5 197 9.5 197 9.5 C 196.9 7.4 195.8 6.2 194 6.2 C 192 6.2 191 7.6 190.8 9.5 Z M 201.9 6.9 C 201.9 6.9 201.96 6.88 202 6.9 C 202.6 5.9 203.7 5 205 5 C 205.3 5 205.5 5.1 205.7 5.2 C 205.7 5.16 205.7 6.7 205.7 6.7 C 205.7 6.7 205.64 6.72 205.6 6.7 C 205.4 6.6 205.2 6.6 204.9 6.6 C 203.3 6.6 201.9 7.8 201.9 9.8 C 201.92 9.76 201.9 15.5 201.9 15.5 L 200.3 15.5 L 200.3 5.2 L 201.9 5.2 L 201.9 6.9 Z M 209.6 11 C 209.6 11 211.3 11 211.3 11 C 211.3 13.2 212.7 14.4 215 14.4 C 216.9 14.4 218.2 13.5 218.2 11.5 C 218.2 9.8 216.9 8.9 214.6 8.9 C 214.64 8.86 213.8 8.9 213.8 8.9 L 213.8 7.6 C 213.8 7.6 214.62 7.56 214.6 7.6 C 216.8 7.6 217.8 6.7 217.8 5.2 C 217.8 3.7 216.5 2.8 214.9 2.8 C 212.9 2.8 211.7 4.1 211.7 6 C 211.7 6 210.1 6 210.1 6 C 210.1 3.3 211.9 1.5 214.9 1.5 C 217.5 1.5 219.5 2.9 219.5 5.2 C 219.5 6.8 218.5 7.7 217.2 8.1 C 217.2 8.1 217.2 8.2 217.2 8.2 C 219.1 8.7 220 9.9 220 11.7 C 220 14.3 217.8 15.8 215.1 15.8 C 212 15.8 209.7 14.1 209.6 11 Z M 224.2 5.2 L 225.7 5.2 C 225.7 5.2 225.66 3.5 225.7 3.5 C 225.7 1.7 226.7 1.1 228.4 1.1 C 228.7 1.1 229 1.1 229.2 1.1 C 229.2 1.1 229.2 2.5 229.2 2.5 C 228.9 2.5 228.9 2.5 228.7 2.5 C 227.7 2.5 227.3 2.7 227.3 3.6 C 227.28 3.58 227.3 5.2 227.3 5.2 L 229.2 5.2 L 229.2 6.5 L 227.3 6.5 L 227.3 15.5 L 225.7 15.5 L 225.7 6.5 L 224.2 6.5 L 224.2 5.2 Z M 236.8 14.1 C 236.8 14.1 236.8 14.1 236.8 14.1 C 236.2 14.9 235.1 15.7 233.4 15.7 C 231.4 15.7 229.9 14.8 229.9 12.8 C 229.9 10.4 231.8 9.9 234.4 9.5 C 235.8 9.3 236.8 9.1 236.8 8 C 236.8 6.8 236 6.2 234.5 6.2 C 232.8 6.2 232 6.9 231.9 8.5 C 231.9 8.5 230.4 8.5 230.4 8.5 C 230.4 6.5 231.8 5 234.5 5 C 236.7 5 238.3 5.8 238.3 8.2 C 238.3 8.2 238.3 13.2 238.3 13.2 C 238.3 14 238.5 14.5 239.4 14.3 C 239.42 14.26 239.5 14.3 239.5 14.3 C 239.5 14.3 239.48 15.44 239.5 15.4 C 239.3 15.5 239 15.6 238.6 15.6 C 237.5 15.6 237 15.1 236.8 14.1 Z M 236.9 11.7 C 236.9 11.7 236.9 9.9 236.9 9.9 C 236.3 10.3 235.4 10.5 234.5 10.7 C 232.9 11 231.6 11.3 231.6 12.8 C 231.6 14.2 232.7 14.5 233.7 14.5 C 235.9 14.5 236.9 12.9 236.9 11.7 Z M 240.1 10.3 C 240.1 7.3 242 4.9 245.1 4.9 C 247.5 4.9 249.2 6.3 249.5 8.5 C 249.5 8.5 247.9 8.5 247.9 8.5 C 247.6 7.1 246.7 6.2 245.1 6.2 C 242.9 6.2 241.8 8.1 241.8 10.3 C 241.8 12.6 242.9 14.4 245.1 14.4 C 246.8 14.4 247.8 13.5 247.9 11.9 C 247.9 11.9 249.5 11.9 249.5 11.9 C 249.3 14.3 247.7 15.8 245.1 15.8 C 242 15.8 240.1 13.3 240.1 10.3 Z M 250.4 5.2 L 251.9 5.2 L 251.9 1.9 L 253.5 1.9 L 253.5 5.2 L 255.5 5.2 L 255.5 6.5 L 253.5 6.5 C 253.5 6.5 253.52 13.2 253.5 13.2 C 253.5 13.9 253.9 14.2 254.6 14.2 C 254.9 14.2 255.2 14.1 255.4 14 C 255.42 14.02 255.5 14 255.5 14 C 255.5 14 255.48 15.42 255.5 15.4 C 255.1 15.5 254.7 15.6 254.2 15.6 C 252.9 15.6 251.9 15 251.9 13.6 C 251.9 13.56 251.9 6.5 251.9 6.5 L 250.4 6.5 L 250.4 5.2 Z M 256.5 10.3 C 256.5 7.3 258.4 4.9 261.5 4.9 C 264.6 4.9 266.5 7.3 266.5 10.3 C 266.5 13.3 264.6 15.8 261.5 15.8 C 258.4 15.8 256.5 13.3 256.5 10.3 Z M 264.8 10.3 C 264.8 8.1 263.7 6.2 261.5 6.2 C 259.3 6.2 258.2 8.1 258.2 10.3 C 258.2 12.6 259.3 14.4 261.5 14.4 C 263.7 14.4 264.8 12.6 264.8 10.3 Z M 269.7 6.9 C 269.7 6.9 269.78 6.88 269.8 6.9 C 270.4 5.9 271.5 5 272.9 5 C 273.2 5 273.3 5.1 273.5 5.2 C 273.52 5.16 273.5 6.7 273.5 6.7 C 273.5 6.7 273.46 6.72 273.5 6.7 C 273.2 6.6 273.1 6.6 272.7 6.6 C 271.1 6.6 269.7 7.8 269.7 9.8 C 269.74 9.76 269.7 15.5 269.7 15.5 L 268.1 15.5 L 268.1 5.2 L 269.7 5.2 L 269.7 6.9 Z M 274.3 12.1 C 274.3 12.1 276 12.1 276 12.1 C 276.2 13.9 277.4 14.4 278.9 14.4 C 280.6 14.4 281.3 13.7 281.3 12.7 C 281.3 11.6 280.5 11.3 278.6 10.9 C 276.6 10.5 274.8 10 274.8 7.8 C 274.8 6.1 276.1 4.9 278.5 4.9 C 281.1 4.9 282.3 6.2 282.6 8.2 C 282.6 8.2 280.9 8.2 280.9 8.2 C 280.7 6.8 280 6.2 278.5 6.2 C 277 6.2 276.4 6.9 276.4 7.7 C 276.4 8.8 277.4 9 279.2 9.4 C 281.2 9.8 283 10.3 283 12.7 C 283 14.7 281.3 15.8 278.9 15.8 C 276.1 15.8 274.5 14.5 274.3 12.1 Z M 287.7 5.2 L 289.3 5.2 L 289.3 6.6 C 289.3 6.6 289.38 6.62 289.4 6.6 C 290.2 5.6 291.2 4.9 292.7 4.9 C 295.3 4.9 297.1 6.9 297.1 10.4 C 297.1 13.7 295.4 15.8 292.6 15.8 C 291.2 15.8 290.2 15.4 289.4 14.3 C 289.38 14.28 289.3 14.3 289.3 14.3 L 289.3 18.8 L 287.7 18.8 L 287.7 5.2 Z M 295.5 10.4 C 295.5 8.1 294.5 6.3 292.5 6.3 C 290.3 6.3 289.2 8.1 289.2 10.4 C 289.2 12.6 290.1 14.4 292.5 14.4 C 294.5 14.4 295.5 12.7 295.5 10.4 Z M 300.4 6.9 C 300.4 6.9 300.42 6.88 300.4 6.9 C 301 5.9 302.1 5 303.5 5 C 303.8 5 304 5.1 304.2 5.2 C 304.16 5.16 304.2 6.7 304.2 6.7 C 304.2 6.7 304.1 6.72 304.1 6.7 C 303.9 6.6 303.7 6.6 303.4 6.6 C 301.8 6.6 300.4 7.8 300.4 9.8 C 300.38 9.76 300.4 15.5 300.4 15.5 L 298.8 15.5 L 298.8 5.2 L 300.4 5.2 L 300.4 6.9 Z M 304.6 10.3 C 304.6 7.3 306.6 4.9 309.6 4.9 C 312.7 4.9 314.6 7.3 314.6 10.3 C 314.6 13.3 312.7 15.8 309.6 15.8 C 306.6 15.8 304.6 13.3 304.6 10.3 Z M 313 10.3 C 313 8.1 311.8 6.2 309.6 6.2 C 307.4 6.2 306.3 8.1 306.3 10.3 C 306.3 12.6 307.4 14.4 309.6 14.4 C 311.8 14.4 313 12.6 313 10.3 Z M 316.2 5.2 L 317.9 5.2 L 317.9 6.6 C 317.9 6.6 317.9 6.64 317.9 6.6 C 318.5 5.6 319.6 4.9 320.9 4.9 C 322.2 4.9 323.2 5.6 323.6 6.8 C 323.6 6.8 323.7 6.8 323.7 6.8 C 324.3 5.6 325.6 4.9 326.8 4.9 C 328.7 4.9 330 6.1 330 8.2 C 329.98 8.24 330 15.5 330 15.5 L 328.4 15.5 C 328.4 15.5 328.36 8.32 328.4 8.3 C 328.4 7 327.5 6.3 326.5 6.3 C 325.1 6.3 323.9 7.4 323.9 9.1 C 323.92 9.06 323.9 15.5 323.9 15.5 L 322.3 15.5 C 322.3 15.5 322.3 8.32 322.3 8.3 C 322.3 7 321.6 6.3 320.5 6.3 C 319.3 6.3 317.9 7.4 317.9 9.1 C 317.86 9.06 317.9 15.5 317.9 15.5 L 316.2 15.5 L 316.2 5.2 Z M 331.5 10.3 C 331.5 7.3 333.5 4.9 336.5 4.9 C 339.6 4.9 341.5 7.3 341.5 10.3 C 341.5 13.3 339.6 15.8 336.5 15.8 C 333.5 15.8 331.5 13.3 331.5 10.3 Z M 339.9 10.3 C 339.9 8.1 338.7 6.2 336.5 6.2 C 334.3 6.2 333.2 8.1 333.2 10.3 C 333.2 12.6 334.3 14.4 336.5 14.4 C 338.7 14.4 339.9 12.6 339.9 10.3 Z M 342.3 5.2 L 343.8 5.2 L 343.8 1.9 L 345.4 1.9 L 345.4 5.2 L 347.4 5.2 L 347.4 6.5 L 345.4 6.5 C 345.4 6.5 345.4 13.2 345.4 13.2 C 345.4 13.9 345.8 14.2 346.4 14.2 C 346.8 14.2 347.1 14.1 347.3 14 C 347.3 14.02 347.4 14 347.4 14 C 347.4 14 347.36 15.42 347.4 15.4 C 347 15.5 346.5 15.6 346.1 15.6 C 344.7 15.6 343.8 15 343.8 13.6 C 343.78 13.56 343.8 6.5 343.8 6.5 L 342.3 6.5 L 342.3 5.2 Z M 349.1 5.2 L 350.7 5.2 L 350.7 15.5 L 349.1 15.5 L 349.1 5.2 Z M 349.1 1.2 L 350.7 1.2 L 350.7 3.2 L 349.1 3.2 L 349.1 1.2 Z M 354.5 6.5 C 354.5 6.5 354.56 6.52 354.6 6.5 C 355.3 5.5 356.3 4.9 357.8 4.9 C 360 4.9 361.3 6.1 361.3 8.2 C 361.32 8.24 361.3 15.5 361.3 15.5 L 359.7 15.5 C 359.7 15.5 359.7 8.38 359.7 8.4 C 359.7 7 358.8 6.3 357.4 6.3 C 355.7 6.3 354.5 7.4 354.5 9.1 C 354.52 9.14 354.5 15.5 354.5 15.5 L 352.9 15.5 L 352.9 5.2 L 354.5 5.2 L 354.5 6.5 Z M 363.2 16.1 C 363.2 16.1 364.7 16.1 364.7 16.1 C 364.9 17.2 365.9 17.7 367.5 17.7 C 369.4 17.7 370.5 16.8 370.5 15 C 370.5 15 370.5 13.5 370.5 13.5 C 370.5 13.5 370.46 13.54 370.5 13.5 C 369.7 14.5 368.9 15.1 367.4 15.1 C 364.7 15.1 362.9 13 362.9 10 C 362.9 6.8 364.9 4.9 367.3 4.9 C 368.8 4.9 369.8 5.5 370.5 6.5 C 370.46 6.48 370.5 6.5 370.5 6.5 L 370.5 5.2 L 372.1 5.2 C 372.1 5.2 372.12 14.94 372.1 14.9 C 372.1 17.7 370.3 18.9 367.6 18.9 C 364.9 18.9 363.4 17.9 363.2 16.1 Z M 370.6 9.9 C 370.6 7.7 369.7 6.3 367.5 6.3 C 365.5 6.3 364.5 7.8 364.5 10 C 364.5 12.3 365.6 13.8 367.5 13.8 C 369.9 13.8 370.6 12.1 370.6 9.9 Z " stroke="none" fill="#000"/>  </g></svg>