<?xml version="1.0" standalone="no"?><!DOCTYPE svg PUBLIC "-//W3C//DTD SVG 1.1//EN" "http://www.w3.org/Graphics/SVG/1.1/DTD/svg11.dtd"><svg xmlns="http://www.w3.org/2000/svg" version="1.1" width="108.3px" height="107.4px" viewBox="0 -3 108.3 107.4" style="top:-3px">  <desc>Complicated setup use Realistic gun-like form</desc>  <defs/>  <g id="Polygon8243">    <path d="M 0.7 63.8 L 2.7 63.8 L 2.7 74.6 L 0.7 74.6 L 0.7 63.8 Z M 4.1 66.9 L 6.1 66.9 L 6.1 74.6 L 4.1 74.6 L 4.1 66.9 Z M 4.1 63.8 L 6.1 63.8 L 6.1 65.7 L 4.1 65.7 L 4.1 63.8 Z M 10.3 71.1 L 9.5 72 L 9.5 74.6 L 7.4 74.6 L 7.4 63.8 L 9.5 63.8 L 9.5 69.8 L 12.2 66.9 L 14.6 66.9 L 11.8 69.8 L 15 74.6 L 12.5 74.6 L 10.3 71.1 Z M 14.7 70.7 C 14.7 68.4 16.3 66.7 18.5 66.7 C 21 66.7 22.3 68.5 22.3 71.3 C 22.3 71.3 16.7 71.3 16.7 71.3 C 16.9 72.5 17.5 73.2 18.7 73.2 C 19.5 73.2 20 72.9 20.2 72.3 C 20.2 72.3 22.2 72.3 22.2 72.3 C 21.9 73.6 20.7 74.8 18.7 74.8 C 16.2 74.8 14.7 73 14.7 70.7 Z M 16.8 69.9 C 16.8 69.9 20.2 69.9 20.2 69.9 C 20.1 68.9 19.5 68.2 18.6 68.2 C 17.5 68.2 16.9 68.9 16.8 69.9 Z M 25.3 66.9 L 26.4 66.9 C 26.4 66.9 26.39 66.18 26.4 66.2 C 26.4 64.3 27.8 63.6 29.8 63.8 C 29.8 63.8 29.8 65.4 29.8 65.4 C 28.8 65.4 28.4 65.5 28.4 66.3 C 28.42 66.3 28.4 66.9 28.4 66.9 L 29.8 66.9 L 29.8 68.3 L 28.4 68.3 L 28.4 74.6 L 26.4 74.6 L 26.4 68.3 L 25.3 68.3 L 25.3 66.9 Z M 30.1 70.7 C 30.1 68.4 31.8 66.7 34.2 66.7 C 36.5 66.7 38.2 68.4 38.2 70.7 C 38.2 73 36.5 74.8 34.2 74.8 C 31.8 74.8 30.1 73 30.1 70.7 Z M 36.1 70.7 C 36.1 69.2 35.4 68.2 34.2 68.2 C 32.9 68.2 32.2 69.2 32.2 70.7 C 32.2 72.2 32.9 73.2 34.2 73.2 C 35.4 73.2 36.1 72.2 36.1 70.7 Z M 41.1 68.1 C 41.1 68.1 41.13 68.1 41.1 68.1 C 41.6 67.2 42.1 66.8 43 66.8 C 43.2 66.8 43.4 66.8 43.5 66.8 C 43.5 66.84 43.5 68.6 43.5 68.6 C 43.5 68.6 43.45 68.63 43.5 68.6 C 42.1 68.5 41.2 69.2 41.2 70.8 C 41.16 70.81 41.2 74.6 41.2 74.6 L 39.1 74.6 L 39.1 66.9 L 41.1 66.9 L 41.1 68.1 Z M 44.4 66.9 L 46.3 66.9 L 46.3 67.9 C 46.3 67.9 46.39 67.9 46.4 67.9 C 46.8 67.2 47.6 66.7 48.6 66.7 C 49.6 66.7 50.4 67.2 50.8 68 C 50.8 68 50.8 68 50.8 68 C 51.3 67.2 52.1 66.7 53.1 66.7 C 54.7 66.7 55.6 67.7 55.6 69.4 C 55.63 69.39 55.6 74.6 55.6 74.6 L 53.6 74.6 C 53.6 74.6 53.6 69.73 53.6 69.7 C 53.6 68.9 53.2 68.4 52.4 68.4 C 51.6 68.4 51 69.1 51 70.1 C 51.03 70.09 51 74.6 51 74.6 L 49 74.6 C 49 74.6 48.99 69.73 49 69.7 C 49 68.9 48.6 68.4 47.8 68.4 C 47 68.4 46.4 69.1 46.4 70.1 C 46.42 70.09 46.4 74.6 46.4 74.6 L 44.4 74.6 L 44.4 66.9 Z " stroke="none" fill="#d12229"/>  </g>  <g id="Polygon8242">    <path d="M 0.8 45.8 C 0.8 45.8 5.75 45.84 5.7 45.8 C 7.8 45.8 9.2 47 9.2 48.8 C 9.2 50.1 8.6 51 7.2 51.4 C 7.2 51.4 7.2 51.5 7.2 51.5 C 8.2 51.7 8.7 52.3 8.9 53.6 C 9 55.1 9 56.3 9.3 56.5 C 9.33 56.46 9.3 56.6 9.3 56.6 C 9.3 56.6 7.25 56.56 7.2 56.6 C 7 56.4 6.9 55.2 6.9 54.1 C 6.8 52.9 6.1 52.3 4.8 52.3 C 4.75 52.26 3 52.3 3 52.3 L 3 56.6 L 0.8 56.6 L 0.8 45.8 Z M 3 50.6 C 3 50.6 5.31 50.58 5.3 50.6 C 6.5 50.6 7.1 50 7.1 49.1 C 7.1 48.2 6.5 47.6 5.4 47.6 C 5.37 47.59 3 47.6 3 47.6 L 3 50.6 Z M 10 52.7 C 10 50.4 11.5 48.7 13.8 48.7 C 16.2 48.7 17.6 50.5 17.6 53.3 C 17.6 53.3 12 53.3 12 53.3 C 12.1 54.5 12.8 55.2 14 55.2 C 14.7 55.2 15.2 54.9 15.4 54.3 C 15.4 54.3 17.4 54.3 17.4 54.3 C 17.2 55.6 15.9 56.8 14 56.8 C 11.4 56.8 10 55 10 52.7 Z M 12 51.9 C 12 51.9 15.4 51.9 15.4 51.9 C 15.4 50.9 14.7 50.2 13.8 50.2 C 12.7 50.2 12.2 50.9 12 51.9 Z M 23.1 55.7 C 23.1 55.7 23.1 55.7 23.1 55.7 C 22.7 56.3 22.1 56.7 20.8 56.7 C 19.2 56.7 18.1 55.9 18.1 54.4 C 18.1 52.7 19.5 52.2 21.2 51.9 C 22.5 51.7 23.1 51.6 23.1 51 C 23.1 50.5 22.7 50.1 21.8 50.1 C 20.8 50.1 20.4 50.5 20.3 51.2 C 20.3 51.2 18.5 51.2 18.5 51.2 C 18.6 49.9 19.6 48.7 21.8 48.7 C 24.1 48.7 25 49.7 25 51.5 C 25 51.5 25 55.4 25 55.4 C 25 56 25.1 56.4 25.3 56.5 C 25.32 56.49 25.3 56.6 25.3 56.6 C 25.3 56.6 23.36 56.56 23.4 56.6 C 23.2 56.4 23.2 56.1 23.1 55.7 Z M 23.1 53.9 C 23.1 53.9 23.1 52.7 23.1 52.7 C 22.8 52.9 22.2 53 21.7 53.1 C 20.6 53.4 20.1 53.6 20.1 54.3 C 20.1 55.1 20.6 55.3 21.3 55.3 C 22.5 55.3 23.1 54.6 23.1 53.9 Z M 26.4 45.8 L 28.4 45.8 L 28.4 56.6 L 26.4 56.6 L 26.4 45.8 Z M 29.8 48.9 L 31.8 48.9 L 31.8 56.6 L 29.8 56.6 L 29.8 48.9 Z M 29.8 45.8 L 31.8 45.8 L 31.8 47.7 L 29.8 47.7 L 29.8 45.8 Z M 32.6 54.1 C 32.6 54.1 34.5 54.1 34.5 54.1 C 34.7 55 35.3 55.4 36.2 55.4 C 37.1 55.4 37.6 55 37.6 54.5 C 37.6 53.7 36.6 53.7 35.6 53.4 C 34.2 53.2 32.9 52.8 32.9 51.1 C 32.9 49.5 34.2 48.7 36 48.7 C 38 48.7 39.1 49.7 39.3 51.2 C 39.3 51.2 37.5 51.2 37.5 51.2 C 37.4 50.4 36.8 50.1 36 50.1 C 35.2 50.1 34.6 50.4 34.6 50.9 C 34.6 51.6 35.7 51.7 36.8 51.9 C 38.1 52.2 39.5 52.5 39.5 54.3 C 39.5 55.9 38.2 56.8 36.2 56.8 C 34 56.8 32.8 55.7 32.6 54.1 Z M 39.8 48.9 L 40.9 48.9 L 40.9 46.5 L 42.9 46.5 L 42.9 48.9 L 44.2 48.9 L 44.2 50.2 L 42.9 50.2 C 42.9 50.2 42.85 54.29 42.9 54.3 C 42.9 54.9 43.2 55.1 43.6 55.1 C 43.87 55.05 44.2 55 44.2 55 L 44.2 56.5 C 44.2 56.5 43.75 56.56 42.9 56.6 C 42 56.6 40.9 56.2 40.9 54.7 C 40.86 54.72 40.9 50.2 40.9 50.2 L 39.8 50.2 L 39.8 48.9 Z M 45.2 48.9 L 47.3 48.9 L 47.3 56.6 L 45.2 56.6 L 45.2 48.9 Z M 45.2 45.8 L 47.3 45.8 L 47.3 47.7 L 45.2 47.7 L 45.2 45.8 Z M 48.2 52.7 C 48.2 50.4 49.7 48.7 52 48.7 C 54 48.7 55.3 49.8 55.5 51.5 C 55.5 51.5 53.5 51.5 53.5 51.5 C 53.4 50.8 52.9 50.3 52.1 50.3 C 50.9 50.3 50.3 51.2 50.3 52.7 C 50.3 54.2 50.9 55.2 52.1 55.2 C 52.9 55.2 53.5 54.7 53.7 53.9 C 53.7 53.9 55.6 53.9 55.6 53.9 C 55.5 55.5 54.2 56.8 52.2 56.8 C 49.7 56.8 48.2 55 48.2 52.7 Z M 58.8 56.8 C 58.8 56.8 60.8 56.8 60.8 56.8 C 61 57.3 61.4 57.6 62.4 57.6 C 63.5 57.6 64.1 57.1 64.1 56 C 64.1 56.04 64.1 55.2 64.1 55.2 C 64.1 55.2 64.05 55.2 64.1 55.2 C 63.6 55.7 63 56.1 62 56.1 C 60.3 56.1 58.7 54.8 58.7 52.4 C 58.7 50.1 60 48.7 62 48.7 C 62.9 48.7 63.6 49 64.1 49.7 C 64.11 49.68 64.1 49.7 64.1 49.7 L 64.1 48.9 L 66.1 48.9 C 66.1 48.9 66.1 55.98 66.1 56 C 66.1 57.1 65.8 57.8 65.2 58.3 C 64.5 58.9 63.6 59.2 62.4 59.2 C 60.3 59.2 59 58.3 58.8 56.8 Z M 64.2 52.4 C 64.2 51.3 63.6 50.3 62.4 50.3 C 61.3 50.3 60.6 51.1 60.6 52.4 C 60.6 53.7 61.3 54.5 62.4 54.5 C 63.7 54.5 64.2 53.5 64.2 52.4 Z M 72.3 56.6 L 72.3 55.7 C 72.3 55.7 72.24 55.67 72.2 55.7 C 71.7 56.4 71.1 56.8 70 56.8 C 68.3 56.8 67.4 55.7 67.4 54 C 67.37 54 67.4 48.9 67.4 48.9 L 69.4 48.9 C 69.4 48.9 69.39 53.66 69.4 53.7 C 69.4 54.6 69.8 55.1 70.7 55.1 C 71.6 55.1 72.2 54.3 72.2 53.3 C 72.21 53.31 72.2 48.9 72.2 48.9 L 74.2 48.9 L 74.2 56.6 L 72.3 56.6 Z M 77.6 49.9 C 77.6 49.9 77.61 49.92 77.6 49.9 C 78.1 49.1 78.8 48.7 79.9 48.7 C 81.5 48.7 82.5 49.9 82.5 51.5 C 82.54 51.54 82.5 56.6 82.5 56.6 L 80.5 56.6 C 80.5 56.6 80.51 51.84 80.5 51.8 C 80.5 51 80 50.4 79.2 50.4 C 78.3 50.4 77.6 51.1 77.6 52.2 C 77.61 52.2 77.6 56.6 77.6 56.6 L 75.6 56.6 L 75.6 48.9 L 77.6 48.9 L 77.6 49.9 Z M 83.7 52 L 87.7 52 L 87.7 53.7 L 83.7 53.7 L 83.7 52 Z " stroke="none" fill="#d12229"/>  </g>  <g id="Polygon8241">    <path d="M 0.2 27.1 C 0.2 27.1 2.1 27.1 2.1 27.1 C 2.2 28 2.8 28.4 3.8 28.4 C 4.7 28.4 5.2 28 5.2 27.5 C 5.2 26.7 4.2 26.7 3.1 26.4 C 1.8 26.2 0.4 25.8 0.4 24.1 C 0.4 22.5 1.8 21.7 3.5 21.7 C 5.6 21.7 6.7 22.7 6.8 24.2 C 6.8 24.2 5 24.2 5 24.2 C 4.9 23.4 4.4 23.1 3.5 23.1 C 2.7 23.1 2.2 23.4 2.2 23.9 C 2.2 24.6 3.2 24.7 4.3 24.9 C 5.6 25.2 7 25.5 7 27.3 C 7 28.9 5.7 29.8 3.8 29.8 C 1.5 29.8 0.3 28.7 0.2 27.1 Z M 7.6 25.7 C 7.6 23.4 9.2 21.7 11.4 21.7 C 13.9 21.7 15.2 23.5 15.2 26.3 C 15.2 26.3 9.6 26.3 9.6 26.3 C 9.8 27.5 10.5 28.2 11.6 28.2 C 12.4 28.2 12.9 27.9 13.1 27.3 C 13.1 27.3 15.1 27.3 15.1 27.3 C 14.8 28.6 13.6 29.8 11.6 29.8 C 9.1 29.8 7.6 28 7.6 25.7 Z M 9.7 24.9 C 9.7 24.9 13.1 24.9 13.1 24.9 C 13 23.9 12.4 23.2 11.5 23.2 C 10.4 23.2 9.9 23.9 9.7 24.9 Z M 15.6 21.9 L 16.6 21.9 L 16.6 19.5 L 18.6 19.5 L 18.6 21.9 L 19.9 21.9 L 19.9 23.2 L 18.6 23.2 C 18.6 23.2 18.63 27.29 18.6 27.3 C 18.6 27.9 18.9 28.1 19.4 28.1 C 19.65 28.05 20 28 20 28 L 20 29.5 C 20 29.5 19.53 29.56 18.7 29.6 C 17.7 29.6 16.6 29.2 16.6 27.7 C 16.64 27.72 16.6 23.2 16.6 23.2 L 15.6 23.2 L 15.6 21.9 Z M 25.9 29.6 L 25.9 28.7 C 25.9 28.7 25.82 28.67 25.8 28.7 C 25.3 29.4 24.7 29.8 23.6 29.8 C 21.9 29.8 20.9 28.7 20.9 27 C 20.94 27 20.9 21.9 20.9 21.9 L 23 21.9 C 23 21.9 22.96 26.66 23 26.7 C 23 27.6 23.4 28.1 24.2 28.1 C 25.2 28.1 25.8 27.3 25.8 26.3 C 25.79 26.31 25.8 21.9 25.8 21.9 L 27.8 21.9 L 27.8 29.6 L 25.9 29.6 Z M 29.1 21.9 L 31.1 21.9 L 31.1 22.8 C 31.1 22.8 31.15 22.83 31.2 22.8 C 31.6 22.2 32.4 21.7 33.4 21.7 C 35.5 21.7 36.8 23.3 36.8 25.7 C 36.8 28.2 35.4 29.8 33.4 29.8 C 32.4 29.8 31.6 29.4 31.2 28.7 C 31.21 28.7 31.2 28.7 31.2 28.7 L 31.2 32.1 L 29.1 32.1 L 29.1 21.9 Z M 34.7 25.8 C 34.7 24.3 34.2 23.3 32.9 23.3 C 31.6 23.3 31.1 24.4 31.1 25.8 C 31.1 27.2 31.8 28.1 33 28.1 C 34 28.1 34.7 27.2 34.7 25.8 Z M 41.3 18.8 L 42.9 18.8 L 38.7 29.6 L 37.1 29.6 L 41.3 18.8 Z M 47.9 29.6 L 47.9 28.7 C 47.9 28.7 47.84 28.67 47.8 28.7 C 47.3 29.4 46.7 29.8 45.6 29.8 C 43.9 29.8 43 28.7 43 27 C 42.96 27 43 21.9 43 21.9 L 45 21.9 C 45 21.9 44.98 26.66 45 26.7 C 45 27.6 45.4 28.1 46.3 28.1 C 47.2 28.1 47.8 27.3 47.8 26.3 C 47.81 26.31 47.8 21.9 47.8 21.9 L 49.8 21.9 L 49.8 29.6 L 47.9 29.6 Z M 50.7 27.1 C 50.7 27.1 52.6 27.1 52.6 27.1 C 52.7 28 53.3 28.4 54.3 28.4 C 55.2 28.4 55.7 28 55.7 27.5 C 55.7 26.7 54.7 26.7 53.6 26.4 C 52.3 26.2 50.9 25.8 50.9 24.1 C 50.9 22.5 52.3 21.7 54 21.7 C 56.1 21.7 57.2 22.7 57.3 24.2 C 57.3 24.2 55.5 24.2 55.5 24.2 C 55.4 23.4 54.9 23.1 54 23.1 C 53.2 23.1 52.7 23.4 52.7 23.9 C 52.7 24.6 53.7 24.7 54.8 24.9 C 56.1 25.2 57.5 25.5 57.5 27.3 C 57.5 28.9 56.2 29.8 54.3 29.8 C 52 29.8 50.8 28.7 50.7 27.1 Z M 58.1 25.7 C 58.1 23.4 59.7 21.7 61.9 21.7 C 64.4 21.7 65.7 23.5 65.7 26.3 C 65.7 26.3 60.1 26.3 60.1 26.3 C 60.3 27.5 61 28.2 62.1 28.2 C 62.9 28.2 63.4 27.9 63.6 27.3 C 63.6 27.3 65.6 27.3 65.6 27.3 C 65.3 28.6 64.1 29.8 62.1 29.8 C 59.6 29.8 58.1 28 58.1 25.7 Z M 60.2 24.9 C 60.2 24.9 63.6 24.9 63.6 24.9 C 63.5 23.9 62.9 23.2 62 23.2 C 60.9 23.2 60.4 23.9 60.2 24.9 Z " stroke="none" fill="#d12229"/>  </g>  <g id="Polygon8240">    <path d="M 0.4 6.2 C 0.4 3.1 2.3 0.6 5.5 0.6 C 8.1 0.6 9.7 2.2 9.9 4.2 C 9.9 4.2 7.8 4.2 7.8 4.2 C 7.6 3.2 6.8 2.5 5.5 2.5 C 3.5 2.5 2.6 4.1 2.6 6.2 C 2.6 8.4 3.7 10 5.5 10 C 6.8 10 7.7 9.2 7.8 8.1 C 7.8 8.1 10 8.1 10 8.1 C 9.9 9.1 9.5 10 8.8 10.7 C 8 11.3 7 11.8 5.5 11.8 C 2.5 11.8 0.4 9.5 0.4 6.2 Z M 10.6 7.7 C 10.6 5.4 12.3 3.7 14.6 3.7 C 17 3.7 18.7 5.4 18.7 7.7 C 18.7 10 17 11.8 14.6 11.8 C 12.3 11.8 10.6 10 10.6 7.7 Z M 16.6 7.7 C 16.6 6.2 15.9 5.2 14.6 5.2 C 13.4 5.2 12.7 6.2 12.7 7.7 C 12.7 9.2 13.4 10.2 14.6 10.2 C 15.9 10.2 16.6 9.2 16.6 7.7 Z M 19.6 3.9 L 21.6 3.9 L 21.6 4.9 C 21.6 4.9 21.61 4.9 21.6 4.9 C 22 4.2 22.8 3.7 23.9 3.7 C 24.8 3.7 25.6 4.2 26 5 C 26 5 26 5 26 5 C 26.5 4.2 27.3 3.7 28.3 3.7 C 29.9 3.7 30.9 4.7 30.9 6.4 C 30.85 6.39 30.9 11.6 30.9 11.6 L 28.8 11.6 C 28.8 11.6 28.82 6.73 28.8 6.7 C 28.8 5.9 28.4 5.4 27.6 5.4 C 26.8 5.4 26.2 6.1 26.2 7.1 C 26.25 7.09 26.2 11.6 26.2 11.6 L 24.2 11.6 C 24.2 11.6 24.21 6.73 24.2 6.7 C 24.2 5.9 23.8 5.4 23 5.4 C 22.2 5.4 21.6 6.1 21.6 7.1 C 21.64 7.09 21.6 11.6 21.6 11.6 L 19.6 11.6 L 19.6 3.9 Z M 32.1 3.9 L 34.1 3.9 L 34.1 4.8 C 34.1 4.8 34.12 4.83 34.1 4.8 C 34.6 4.2 35.3 3.7 36.4 3.7 C 38.4 3.7 39.7 5.3 39.7 7.7 C 39.7 10.2 38.4 11.8 36.4 11.8 C 35.3 11.8 34.6 11.4 34.2 10.7 C 34.18 10.7 34.2 10.7 34.2 10.7 L 34.2 14.1 L 32.1 14.1 L 32.1 3.9 Z M 37.7 7.8 C 37.7 6.3 37.2 5.3 35.9 5.3 C 34.6 5.3 34.1 6.4 34.1 7.8 C 34.1 9.2 34.8 10.1 36 10.1 C 37 10.1 37.7 9.2 37.7 7.8 Z M 40.7 0.8 L 42.7 0.8 L 42.7 11.6 L 40.7 11.6 L 40.7 0.8 Z M 44.1 3.9 L 46.1 3.9 L 46.1 11.6 L 44.1 11.6 L 44.1 3.9 Z M 44.1 0.8 L 46.1 0.8 L 46.1 2.7 L 44.1 2.7 L 44.1 0.8 Z M 47.1 7.7 C 47.1 5.4 48.6 3.7 50.9 3.7 C 52.9 3.7 54.1 4.8 54.4 6.5 C 54.4 6.5 52.4 6.5 52.4 6.5 C 52.3 5.8 51.8 5.3 51 5.3 C 49.8 5.3 49.2 6.2 49.2 7.7 C 49.2 9.2 49.7 10.2 51 10.2 C 51.8 10.2 52.4 9.7 52.5 8.9 C 52.5 8.9 54.5 8.9 54.5 8.9 C 54.4 10.5 53.1 11.8 51 11.8 C 48.6 11.8 47.1 10 47.1 7.7 Z M 60.1 10.7 C 60.1 10.7 60.1 10.7 60.1 10.7 C 59.7 11.3 59.2 11.7 57.8 11.7 C 56.3 11.7 55.2 10.9 55.2 9.4 C 55.2 7.7 56.5 7.2 58.2 6.9 C 59.5 6.7 60.1 6.6 60.1 6 C 60.1 5.5 59.7 5.1 58.8 5.1 C 57.9 5.1 57.4 5.5 57.3 6.2 C 57.3 6.2 55.5 6.2 55.5 6.2 C 55.6 4.9 56.6 3.7 58.8 3.7 C 61.1 3.7 62.1 4.7 62.1 6.5 C 62.1 6.5 62.1 10.4 62.1 10.4 C 62.1 11 62.2 11.4 62.3 11.5 C 62.34 11.49 62.3 11.6 62.3 11.6 C 62.3 11.6 60.38 11.56 60.4 11.6 C 60.3 11.4 60.2 11.1 60.1 10.7 Z M 60.2 8.9 C 60.2 8.9 60.2 7.7 60.2 7.7 C 59.8 7.9 59.2 8 58.7 8.1 C 57.7 8.4 57.1 8.6 57.1 9.3 C 57.1 10.1 57.6 10.3 58.3 10.3 C 59.5 10.3 60.2 9.6 60.2 8.9 Z M 62.8 3.9 L 63.8 3.9 L 63.8 1.5 L 65.8 1.5 L 65.8 3.9 L 67.1 3.9 L 67.1 5.2 L 65.8 5.2 C 65.8 5.2 65.82 9.29 65.8 9.3 C 65.8 9.9 66.1 10.1 66.6 10.1 C 66.84 10.05 67.2 10 67.2 10 L 67.2 11.5 C 67.2 11.5 66.72 11.56 65.9 11.6 C 64.9 11.6 63.8 11.2 63.8 9.7 C 63.83 9.72 63.8 5.2 63.8 5.2 L 62.8 5.2 L 62.8 3.9 Z M 67.7 7.7 C 67.7 5.4 69.3 3.7 71.5 3.7 C 74 3.7 75.3 5.5 75.3 8.3 C 75.3 8.3 69.7 8.3 69.7 8.3 C 69.9 9.5 70.6 10.2 71.7 10.2 C 72.5 10.2 73 9.9 73.2 9.3 C 73.2 9.3 75.2 9.3 75.2 9.3 C 74.9 10.6 73.7 11.8 71.7 11.8 C 69.2 11.8 67.7 10 67.7 7.7 Z M 69.8 6.9 C 69.8 6.9 73.2 6.9 73.2 6.9 C 73.1 5.9 72.5 5.2 71.6 5.2 C 70.5 5.2 70 5.9 69.8 6.9 Z M 75.9 7.7 C 75.9 5.3 77.3 3.7 79.2 3.7 C 80.3 3.7 80.9 4.2 81.4 4.8 C 81.36 4.8 81.4 4.8 81.4 4.8 L 81.4 0.8 L 83.4 0.8 L 83.4 11.6 L 81.5 11.6 L 81.5 10.6 C 81.5 10.6 81.45 10.56 81.4 10.6 C 81 11.3 80.2 11.8 79.2 11.8 C 77.2 11.8 75.9 10.2 75.9 7.7 Z M 81.4 7.8 C 81.4 6.3 81 5.3 79.7 5.3 C 78.5 5.3 78 6.3 78 7.7 C 78 9.2 78.6 10.1 79.6 10.1 C 80.8 10.1 81.4 9.2 81.4 7.8 Z " stroke="none" fill="#d12229"/>  </g></svg>