<?xml version="1.0" standalone="no"?><!DOCTYPE svg PUBLIC "-//W3C//DTD SVG 1.1//EN" "http://www.w3.org/Graphics/SVG/1.1/DTD/svg11.dtd"><svg xmlns="http://www.w3.org/2000/svg" version="1.1" width="300px" height="28.2px" viewBox="0 -3 300 28.2" style="top:-3px">  <desc>Smart Bike Stem PDES 2701</desc>  <defs/>  <g id="Polygon3140">    <path d="M 0.3 7.7 C 0.3 7.7 2.3 7.7 2.3 7.7 C 2.4 8.9 3.1 9.4 4.6 9.4 C 5.6 9.4 6.5 9 6.5 8.1 C 6.5 7.1 5.6 6.9 4 6.6 C 2.2 6.2 0.6 5.7 0.6 3.6 C 0.6 1.6 2.2 0.6 4.4 0.6 C 6.7 0.6 8.1 1.7 8.3 3.7 C 8.3 3.7 6.4 3.7 6.4 3.7 C 6.2 2.7 5.5 2.2 4.4 2.2 C 3.3 2.2 2.6 2.7 2.6 3.4 C 2.6 4.2 3.3 4.4 4.8 4.8 C 6.9 5.2 8.5 5.7 8.5 7.9 C 8.5 9.9 6.9 11 4.6 11 C 1.9 11 0.4 9.8 0.3 7.7 Z M 9.6 3.6 L 11.4 3.6 L 11.4 4.6 C 11.4 4.6 11.48 4.58 11.5 4.6 C 11.9 3.9 12.6 3.4 13.6 3.4 C 14.5 3.4 15.2 3.9 15.6 4.7 C 15.6 4.7 15.6 4.7 15.6 4.7 C 16.1 3.9 16.8 3.4 17.7 3.4 C 19.2 3.4 20.1 4.4 20.1 6 C 20.1 5.96 20.1 10.8 20.1 10.8 L 18.2 10.8 C 18.2 10.8 18.2 6.29 18.2 6.3 C 18.2 5.5 17.8 5.1 17.1 5.1 C 16.3 5.1 15.8 5.7 15.8 6.6 C 15.81 6.62 15.8 10.8 15.8 10.8 L 13.9 10.8 C 13.9 10.8 13.9 6.29 13.9 6.3 C 13.9 5.5 13.5 5.1 12.8 5.1 C 12 5.1 11.5 5.7 11.5 6.6 C 11.51 6.62 11.5 10.8 11.5 10.8 L 9.6 10.8 L 9.6 3.6 Z M 25.6 10 C 25.6 10 25.6 10 25.6 10 C 25.2 10.5 24.7 11 23.4 11 C 22 11 20.9 10.2 20.9 8.8 C 20.9 7.2 22.2 6.7 23.8 6.5 C 25 6.3 25.6 6.2 25.6 5.6 C 25.6 5.1 25.1 4.8 24.3 4.8 C 23.4 4.8 23 5.1 23 5.8 C 23 5.8 21.3 5.8 21.3 5.8 C 21.3 4.5 22.3 3.4 24.4 3.4 C 26.5 3.4 27.4 4.4 27.4 6.1 C 27.4 6.1 27.4 9.7 27.4 9.7 C 27.4 10.3 27.5 10.6 27.6 10.7 C 27.64 10.72 27.6 10.8 27.6 10.8 C 27.6 10.8 25.8 10.79 25.8 10.8 C 25.7 10.7 25.6 10.3 25.6 10 Z M 25.6 8.3 C 25.6 8.3 25.6 7.2 25.6 7.2 C 25.3 7.4 24.7 7.5 24.3 7.6 C 23.3 7.8 22.8 8.1 22.8 8.7 C 22.8 9.4 23.2 9.6 23.9 9.6 C 25 9.6 25.6 9 25.6 8.3 Z M 30.4 4.8 C 30.4 4.8 30.46 4.76 30.5 4.8 C 30.9 3.9 31.4 3.5 32.2 3.5 C 32.4 3.5 32.6 3.5 32.7 3.6 C 32.67 3.58 32.7 5.3 32.7 5.3 C 32.7 5.3 32.63 5.25 32.6 5.3 C 31.4 5.1 30.5 5.8 30.5 7.3 C 30.49 7.29 30.5 10.8 30.5 10.8 L 28.6 10.8 L 28.6 3.6 L 30.4 3.6 L 30.4 4.8 Z M 33.2 3.6 L 34.1 3.6 L 34.1 1.4 L 36 1.4 L 36 3.6 L 37.2 3.6 L 37.2 4.9 L 36 4.9 C 36 4.9 36.01 8.67 36 8.7 C 36 9.2 36.3 9.4 36.7 9.4 C 36.96 9.38 37.3 9.4 37.3 9.4 L 37.3 10.8 C 37.3 10.8 36.85 10.79 36.1 10.8 C 35.2 10.8 34.1 10.4 34.1 9.1 C 34.15 9.07 34.1 4.9 34.1 4.9 L 33.2 4.9 L 33.2 3.6 Z M 40.7 0.8 C 40.7 0.8 45.21 0.78 45.2 0.8 C 46.3 0.8 47.1 1.1 47.6 1.5 C 48.2 2 48.4 2.6 48.4 3.4 C 48.4 4.4 47.8 5.1 46.9 5.4 C 46.9 5.4 46.9 5.4 46.9 5.4 C 48 5.8 48.7 6.7 48.7 7.9 C 48.7 8.8 48.4 9.5 47.8 10 C 47.3 10.5 46.4 10.8 45.3 10.8 C 45.32 10.79 40.7 10.8 40.7 10.8 L 40.7 0.8 Z M 42.8 9.1 C 42.8 9.1 45.09 9.11 45.1 9.1 C 46.1 9.1 46.7 8.6 46.7 7.8 C 46.7 6.8 46 6.3 45 6.3 C 45.04 6.31 42.8 6.3 42.8 6.3 L 42.8 9.1 Z M 45 4.8 C 45.8 4.8 46.4 4.4 46.4 3.6 C 46.4 2.9 45.9 2.4 45 2.4 C 45 2.44 42.8 2.4 42.8 2.4 L 42.8 4.8 C 42.8 4.8 44.95 4.82 45 4.8 Z M 49.8 3.6 L 51.7 3.6 L 51.7 10.8 L 49.8 10.8 L 49.8 3.6 Z M 49.8 0.8 L 51.7 0.8 L 51.7 2.5 L 49.8 2.5 L 49.8 0.8 Z M 55.6 7.5 L 54.8 8.4 L 54.8 10.8 L 52.9 10.8 L 52.9 0.8 L 54.8 0.8 L 54.8 6.3 L 57.3 3.6 L 59.6 3.6 L 57 6.3 L 59.9 10.8 L 57.6 10.8 L 55.6 7.5 Z M 59.7 7.2 C 59.7 5.1 61.1 3.4 63.2 3.4 C 65.5 3.4 66.8 5.2 66.8 7.7 C 66.8 7.7 61.6 7.7 61.6 7.7 C 61.7 8.8 62.3 9.5 63.4 9.5 C 64.1 9.5 64.6 9.2 64.8 8.7 C 64.8 8.7 66.7 8.7 66.7 8.7 C 66.4 9.9 65.3 11 63.4 11 C 61 11 59.7 9.3 59.7 7.2 Z M 61.6 6.4 C 61.6 6.4 64.8 6.4 64.8 6.4 C 64.7 5.5 64.1 4.9 63.3 4.9 C 62.3 4.9 61.8 5.5 61.6 6.4 Z M 69.7 7.7 C 69.7 7.7 71.7 7.7 71.7 7.7 C 71.8 8.9 72.5 9.4 74 9.4 C 75 9.4 75.9 9 75.9 8.1 C 75.9 7.1 75 6.9 73.4 6.6 C 71.6 6.2 70 5.7 70 3.6 C 70 1.6 71.6 0.6 73.8 0.6 C 76.1 0.6 77.5 1.7 77.7 3.7 C 77.7 3.7 75.8 3.7 75.8 3.7 C 75.6 2.7 74.9 2.2 73.8 2.2 C 72.7 2.2 72 2.7 72 3.4 C 72 4.2 72.7 4.4 74.2 4.8 C 76.3 5.2 77.9 5.7 77.9 7.9 C 77.9 9.9 76.3 11 74 11 C 71.3 11 69.8 9.8 69.7 7.7 Z M 78.5 3.6 L 79.5 3.6 L 79.5 1.4 L 81.4 1.4 L 81.4 3.6 L 82.6 3.6 L 82.6 4.9 L 81.4 4.9 C 81.4 4.9 81.37 8.67 81.4 8.7 C 81.4 9.2 81.7 9.4 82.1 9.4 C 82.32 9.38 82.6 9.4 82.6 9.4 L 82.6 10.8 C 82.6 10.8 82.21 10.79 81.5 10.8 C 80.5 10.8 79.5 10.4 79.5 9.1 C 79.51 9.07 79.5 4.9 79.5 4.9 L 78.5 4.9 L 78.5 3.6 Z M 83.2 7.2 C 83.2 5.1 84.6 3.4 86.7 3.4 C 89 3.4 90.2 5.2 90.2 7.7 C 90.2 7.7 85 7.7 85 7.7 C 85.2 8.8 85.8 9.5 86.9 9.5 C 87.6 9.5 88 9.2 88.3 8.7 C 88.3 8.7 90.1 8.7 90.1 8.7 C 89.9 9.9 88.7 11 86.9 11 C 84.5 11 83.2 9.3 83.2 7.2 Z M 85.1 6.4 C 85.1 6.4 88.3 6.4 88.3 6.4 C 88.2 5.5 87.6 4.9 86.7 4.9 C 85.7 4.9 85.2 5.5 85.1 6.4 Z M 91.1 3.6 L 93 3.6 L 93 4.6 C 93 4.6 93 4.58 93 4.6 C 93.4 3.9 94.1 3.4 95.1 3.4 C 96 3.4 96.7 3.9 97.1 4.7 C 97.1 4.7 97.1 4.7 97.1 4.7 C 97.6 3.9 98.3 3.4 99.3 3.4 C 100.8 3.4 101.6 4.4 101.6 6 C 101.62 5.96 101.6 10.8 101.6 10.8 L 99.7 10.8 C 99.7 10.8 99.72 6.29 99.7 6.3 C 99.7 5.5 99.3 5.1 98.6 5.1 C 97.8 5.1 97.3 5.7 97.3 6.6 C 97.33 6.62 97.3 10.8 97.3 10.8 L 95.4 10.8 C 95.4 10.8 95.42 6.29 95.4 6.3 C 95.4 5.5 95 5.1 94.3 5.1 C 93.5 5.1 93 5.7 93 6.6 C 93.03 6.62 93 10.8 93 10.8 L 91.1 10.8 L 91.1 3.6 Z M 105.4 0.2 L 106.6 0.2 L 106.6 12.6 L 105.4 12.6 L 105.4 0.2 Z M 110.6 0.8 C 110.6 0.8 115 0.78 115 0.8 C 116.2 0.8 117 1.1 117.6 1.7 C 118.2 2.3 118.5 3.1 118.5 4 C 118.5 5.9 117.3 7.2 115.2 7.2 C 115.16 7.17 112.7 7.2 112.7 7.2 L 112.7 10.8 L 110.6 10.8 L 110.6 0.8 Z M 112.7 5.5 C 112.7 5.5 114.8 5.52 114.8 5.5 C 115.9 5.5 116.4 4.9 116.4 4 C 116.4 3.1 115.8 2.5 114.8 2.5 C 114.83 2.55 112.7 2.5 112.7 2.5 L 112.7 5.5 Z M 119.5 0.8 C 119.5 0.8 123.42 0.78 123.4 0.8 C 126.1 0.8 127.8 2.9 127.8 5.9 C 127.8 7.5 127.3 8.9 126.2 9.8 C 125.5 10.4 124.5 10.8 123.3 10.8 C 123.25 10.79 119.5 10.8 119.5 10.8 L 119.5 0.8 Z M 123.1 9 C 125 9 125.8 7.9 125.8 5.9 C 125.8 3.9 124.9 2.5 123.2 2.5 C 123.17 2.52 121.5 2.5 121.5 2.5 L 121.5 9 C 121.5 9 123.11 9.04 123.1 9 Z M 128.9 0.8 L 136.3 0.8 L 136.3 2.5 L 131 2.5 L 131 4.7 L 135.6 4.7 L 135.6 6.4 L 131 6.4 L 131 9.1 L 136.3 9.1 L 136.3 10.8 L 128.9 10.8 L 128.9 0.8 Z M 137.1 7.7 C 137.1 7.7 139.1 7.7 139.1 7.7 C 139.2 8.9 139.9 9.4 141.3 9.4 C 142.4 9.4 143.3 9 143.3 8.1 C 143.3 7.1 142.3 6.9 140.8 6.6 C 139 6.2 137.4 5.7 137.4 3.6 C 137.4 1.6 139 0.6 141.2 0.6 C 143.4 0.6 144.9 1.7 145.1 3.7 C 145.1 3.7 143.1 3.7 143.1 3.7 C 143 2.7 142.2 2.2 141.2 2.2 C 140.1 2.2 139.4 2.7 139.4 3.4 C 139.4 4.2 140.1 4.4 141.6 4.8 C 143.6 5.2 145.3 5.7 145.3 7.9 C 145.3 9.9 143.7 11 141.4 11 C 138.7 11 137.1 9.8 137.1 7.7 Z M 153.1 7 C 154.3 6 155.6 5.4 155.6 4.1 C 155.6 3.2 155.2 2.6 154.3 2.6 C 153.3 2.6 152.8 3.3 152.7 4.6 C 152.7 4.6 150.9 4.6 150.9 4.6 C 150.9 2.4 152.1 1 154.3 1 C 156.4 1 157.6 2.4 157.6 4.1 C 157.6 5.9 156.4 6.7 155.2 7.5 C 154.5 8 153.6 8.6 153.3 9.2 C 153.27 9.23 157.7 9.2 157.7 9.2 L 157.7 10.8 C 157.7 10.8 150.81 10.79 150.8 10.8 C 150.9 9 152 7.8 153.1 7 Z M 163.1 2.9 C 163.13 2.87 163.1 2.8 163.1 2.8 L 158.4 2.8 L 158.4 1.2 L 165.2 1.2 C 165.2 1.2 165.2 2.77 165.2 2.8 C 163.5 4.5 161.9 7.3 161.7 10.8 C 161.7 10.8 159.7 10.8 159.7 10.8 C 159.8 7.3 161.7 4.4 163.1 2.9 Z M 165.7 6 C 165.7 2.9 167.3 1 169.7 1 C 172.2 1 173.7 2.9 173.7 6 C 173.7 9.1 172.2 11 169.7 11 C 167.3 11 165.7 9.1 165.7 6 Z M 171.8 6 C 171.8 4 171.2 2.6 169.7 2.6 C 168.3 2.6 167.7 4 167.7 6 C 167.7 8 168.3 9.4 169.7 9.4 C 171.2 9.4 171.8 8.1 171.8 6 Z M 176.6 4.1 L 174.4 4.1 C 174.4 4.1 174.4 2.84 174.4 2.8 C 175.6 2.8 176.6 2.4 176.8 1.1 C 176.82 1.13 178.5 1.1 178.5 1.1 L 178.5 10.8 L 176.6 10.8 L 176.6 4.1 Z " stroke="none" fill="#000"/>  </g></svg>