<?xml version="1.0" standalone="no"?><!DOCTYPE svg PUBLIC "-//W3C//DTD SVG 1.1//EN" "http://www.w3.org/Graphics/SVG/1.1/DTD/svg11.dtd"><svg xmlns="http://www.w3.org/2000/svg" version="1.1" width="212px" height="46px" viewBox="0 -5 212 46" style="top:-5px">  <desc>Market Insights</desc>  <defs/>  <g id="Polygon2098">    <path d="M 1.4 1.5 L 6.7 1.5 C 6.7 1.5 9.36 10.79 9.4 10.8 C 10.01 13.13 10.5 15.8 10.5 15.8 L 10.6 15.8 C 10.6 15.8 11.08 13.13 11.7 10.8 C 11.73 10.79 14.4 1.5 14.4 1.5 L 19.7 1.5 L 19.7 20 L 16.2 20 C 16.2 20 16.22 9.39 16.2 9.4 C 16.22 7.88 16.4 5.5 16.4 5.5 L 16.3 5.5 C 16.3 5.5 15.91 7.72 15.5 9.1 C 15.52 9.07 12.3 20 12.3 20 L 8.7 20 C 8.7 20 5.59 9.07 5.6 9.1 C 5.2 7.72 4.8 5.5 4.8 5.5 L 4.7 5.5 C 4.7 5.5 4.89 7.88 4.9 9.4 C 4.89 9.39 4.9 20 4.9 20 L 1.4 20 L 1.4 1.5 Z M 30.3 18.6 C 30.3 18.6 30.2 18.6 30.2 18.6 C 29.6 19.6 28.6 20.4 26.3 20.4 C 23.6 20.4 21.7 18.9 21.7 16.3 C 21.7 13.3 24 12.4 27 12 C 29.2 11.7 30.2 11.5 30.2 10.5 C 30.2 9.5 29.5 8.9 28 8.9 C 26.3 8.9 25.5 9.5 25.4 10.8 C 25.4 10.8 22.3 10.8 22.3 10.8 C 22.4 8.4 24.1 6.4 28 6.4 C 32 6.4 33.6 8.2 33.6 11.3 C 33.6 11.3 33.6 18.1 33.6 18.1 C 33.6 19.1 33.8 19.7 34.1 19.9 C 34.11 19.92 34.1 20 34.1 20 C 34.1 20 30.71 20.05 30.7 20 C 30.5 19.8 30.4 19.2 30.3 18.6 Z M 30.3 15.3 C 30.3 15.3 30.3 13.3 30.3 13.3 C 29.7 13.7 28.7 13.9 27.8 14.1 C 26 14.5 25.1 14.9 25.1 16.2 C 25.1 17.4 25.9 17.9 27.2 17.9 C 29.2 17.9 30.3 16.6 30.3 15.3 Z M 39.3 8.8 C 39.3 8.8 39.36 8.84 39.4 8.8 C 40.2 7.3 41.1 6.6 42.6 6.6 C 43 6.6 43.3 6.6 43.5 6.7 C 43.47 6.66 43.5 9.7 43.5 9.7 C 43.5 9.7 43.39 9.75 43.4 9.7 C 41.1 9.5 39.4 10.7 39.4 13.5 C 39.42 13.55 39.4 20 39.4 20 L 35.9 20 L 35.9 6.7 L 39.3 6.7 L 39.3 8.8 Z M 50 14 L 48.5 15.5 L 48.5 20 L 45 20 L 45 1.5 L 48.5 1.5 L 48.5 11.8 L 53.2 6.7 L 57.5 6.7 L 52.6 11.8 L 58.1 20 L 53.8 20 L 50 14 Z M 57.6 13.4 C 57.6 9.4 60.3 6.3 64.2 6.3 C 68.5 6.3 70.8 9.6 70.8 14.4 C 70.8 14.4 61.1 14.4 61.1 14.4 C 61.4 16.4 62.5 17.7 64.5 17.7 C 65.9 17.7 66.7 17.1 67.1 16.1 C 67.1 16.1 70.6 16.1 70.6 16.1 C 70.1 18.4 68 20.4 64.6 20.4 C 60.1 20.4 57.6 17.3 57.6 13.4 Z M 61.2 11.9 C 61.2 11.9 67.1 11.9 67.1 11.9 C 67 10.2 65.9 9.1 64.3 9.1 C 62.4 9.1 61.5 10.2 61.2 11.9 Z M 71.4 6.7 L 73.2 6.7 L 73.2 2.5 L 76.7 2.5 L 76.7 6.7 L 79 6.7 L 79 9 L 76.7 9 C 76.7 9 76.7 16.12 76.7 16.1 C 76.7 17.1 77.2 17.4 78 17.4 C 78.47 17.45 79.1 17.4 79.1 17.4 L 79.1 20 C 79.1 20 78.26 20.07 76.9 20.1 C 75.1 20.1 73.2 19.4 73.2 16.9 C 73.24 16.87 73.2 9 73.2 9 L 71.4 9 L 71.4 6.7 Z M 85.5 1.5 L 89.3 1.5 L 89.3 20 L 85.5 20 L 85.5 1.5 Z M 95.3 8.5 C 95.3 8.5 95.39 8.53 95.4 8.5 C 96.3 7.1 97.5 6.3 99.3 6.3 C 102.1 6.3 103.9 8.4 103.9 11.3 C 103.95 11.34 103.9 20 103.9 20 L 100.4 20 C 100.4 20 100.41 11.86 100.4 11.9 C 100.4 10.4 99.6 9.4 98.1 9.4 C 96.5 9.4 95.4 10.7 95.4 12.5 C 95.39 12.48 95.4 20 95.4 20 L 91.9 20 L 91.9 6.7 L 95.3 6.7 L 95.3 8.5 Z M 105.3 15.7 C 105.3 15.7 108.6 15.7 108.6 15.7 C 108.8 17.3 109.9 17.9 111.5 17.9 C 113 17.9 113.9 17.3 113.9 16.4 C 113.9 15.1 112.2 15 110.4 14.6 C 108 14.2 105.7 13.5 105.7 10.6 C 105.7 7.7 108.1 6.3 111.1 6.3 C 114.6 6.3 116.6 8.1 116.8 10.8 C 116.8 10.8 113.6 10.8 113.6 10.8 C 113.5 9.3 112.6 8.8 111.1 8.8 C 109.7 8.8 108.8 9.3 108.8 10.3 C 108.8 11.4 110.6 11.5 112.4 11.9 C 114.7 12.4 117.2 13 117.2 16.1 C 117.2 18.8 114.9 20.4 111.5 20.4 C 107.7 20.4 105.5 18.6 105.3 15.7 Z M 118.7 6.7 L 122.3 6.7 L 122.3 20 L 118.7 20 L 118.7 6.7 Z M 118.7 1.5 L 122.3 1.5 L 122.3 4.6 L 118.7 4.6 L 118.7 1.5 Z M 124.2 20.4 C 124.2 20.4 127.7 20.4 127.7 20.4 C 128 21.3 128.8 21.9 130.4 21.9 C 132.4 21.9 133.4 21 133.4 19.1 C 133.35 19.14 133.4 17.7 133.4 17.7 C 133.4 17.7 133.27 17.68 133.3 17.7 C 132.5 18.6 131.5 19.2 129.8 19.2 C 126.8 19.2 123.9 16.9 123.9 12.9 C 123.9 8.9 126.3 6.3 129.7 6.3 C 131.4 6.3 132.6 7 133.4 8.1 C 133.38 8.11 133.4 8.1 133.4 8.1 L 133.4 6.7 L 136.8 6.7 C 136.8 6.7 136.84 19.03 136.8 19 C 136.8 20.9 136.2 22.2 135.3 23.1 C 134.1 24.1 132.4 24.6 130.4 24.6 C 126.8 24.6 124.6 23 124.2 20.4 Z M 133.5 12.8 C 133.5 10.8 132.5 9.2 130.4 9.2 C 128.6 9.2 127.4 10.6 127.4 12.8 C 127.4 15.1 128.6 16.4 130.4 16.4 C 132.6 16.4 133.5 14.8 133.5 12.8 Z M 142.7 8.4 C 142.7 8.4 142.74 8.45 142.7 8.4 C 143.7 7 144.8 6.3 146.6 6.3 C 149.4 6.3 151.2 8.4 151.2 11.3 C 151.21 11.34 151.2 20 151.2 20 L 147.7 20 C 147.7 20 147.68 11.86 147.7 11.9 C 147.7 10.4 146.8 9.4 145.4 9.4 C 143.8 9.4 142.7 10.7 142.7 12.5 C 142.66 12.48 142.7 20 142.7 20 L 139.1 20 L 139.1 1.5 L 142.7 1.5 L 142.7 8.4 Z M 152.4 6.7 L 154.2 6.7 L 154.2 2.5 L 157.7 2.5 L 157.7 6.7 L 160 6.7 L 160 9 L 157.7 9 C 157.7 9 157.66 16.12 157.7 16.1 C 157.7 17.1 158.2 17.4 159 17.4 C 159.43 17.45 160 17.4 160 17.4 L 160 20 C 160 20 159.22 20.07 157.8 20.1 C 156.1 20.1 154.2 19.4 154.2 16.9 C 154.2 16.87 154.2 9 154.2 9 L 152.4 9 L 152.4 6.7 Z M 161.1 15.7 C 161.1 15.7 164.3 15.7 164.3 15.7 C 164.6 17.3 165.7 17.9 167.3 17.9 C 168.8 17.9 169.7 17.3 169.7 16.4 C 169.7 15.1 168 15 166.2 14.6 C 163.8 14.2 161.5 13.5 161.5 10.6 C 161.5 7.7 163.8 6.3 166.9 6.3 C 170.4 6.3 172.4 8.1 172.6 10.8 C 172.6 10.8 169.4 10.8 169.4 10.8 C 169.3 9.3 168.3 8.8 166.8 8.8 C 165.5 8.8 164.6 9.3 164.6 10.3 C 164.6 11.4 166.3 11.5 168.2 11.9 C 170.5 12.4 172.9 13 172.9 16.1 C 172.9 18.8 170.6 20.4 167.3 20.4 C 163.4 20.4 161.3 18.6 161.1 15.7 Z " stroke="none" fill="#d12229"/>  </g></svg>