<?xml version="1.0" standalone="no"?><!DOCTYPE svg PUBLIC "-//W3C//DTD SVG 1.1//EN" "http://www.w3.org/Graphics/SVG/1.1/DTD/svg11.dtd"><svg xmlns="http://www.w3.org/2000/svg" version="1.1" width="489px" height="39.1px" viewBox="0 -5 489 39.1" style="top:-5px">  <desc>CAD WORK SUPPLEMENTAL WORK</desc>  <defs/>  <g id="Polygon9350">    <path d="M 123.8 0.5 L 126 0.5 L 126 20.1 L 123.8 20.1 L 123.8 0.5 Z M 131.1 11.7 C 131.1 11.7 133.1 11.7 133.1 11.7 C 133.3 14.4 134.9 15.8 137.9 15.8 C 140.1 15.8 141.7 14.8 141.7 12.8 C 141.7 10.7 139.8 10.2 136.9 9.5 C 134.2 8.9 131.8 8.1 131.8 5.2 C 131.8 2.6 134 1 137.1 1 C 141.1 1 142.7 3 143.1 5.9 C 143.1 5.9 141.2 5.9 141.2 5.9 C 141 3.7 139.5 2.6 137.2 2.6 C 135.1 2.6 133.6 3.5 133.6 5.1 C 133.6 6.9 135.4 7.4 137.8 7.9 C 140.8 8.5 143.6 9.2 143.6 12.8 C 143.6 15.7 141.2 17.4 137.8 17.4 C 133.4 17.4 131.3 14.9 131.1 11.7 Z M 145.8 12 C 145.84 11.97 145.8 1.3 145.8 1.3 L 147.8 1.3 C 147.8 1.3 147.82 11.77 147.8 11.8 C 147.8 14.5 149.3 15.6 151.9 15.6 C 154.4 15.6 155.9 14.5 155.9 11.8 C 155.91 11.77 155.9 1.3 155.9 1.3 L 157.9 1.3 C 157.9 1.3 157.89 11.97 157.9 12 C 157.9 15.8 155.2 17.3 151.9 17.3 C 148.4 17.3 145.8 15.8 145.8 12 Z M 160.6 1.3 C 160.6 1.3 167.13 1.32 167.1 1.3 C 168.8 1.3 170.1 1.9 170.9 2.8 C 171.5 3.6 171.9 4.6 171.9 5.8 C 171.9 8.7 170.3 10.4 166.8 10.4 C 166.85 10.45 162.6 10.4 162.6 10.4 L 162.6 17 L 160.6 17 L 160.6 1.3 Z M 162.6 8.8 C 162.6 8.8 166.69 8.84 166.7 8.8 C 168.9 8.8 170 7.7 170 5.9 C 170 4 168.8 3 166.8 3 C 166.8 3.04 162.6 3 162.6 3 L 162.6 8.8 Z M 173.8 1.3 C 173.8 1.3 180.4 1.32 180.4 1.3 C 182 1.3 183.3 1.9 184.1 2.8 C 184.8 3.6 185.2 4.6 185.2 5.8 C 185.2 8.7 183.5 10.4 180.1 10.4 C 180.11 10.45 175.8 10.4 175.8 10.4 L 175.8 17 L 173.8 17 L 173.8 1.3 Z M 175.8 8.8 C 175.8 8.8 179.96 8.84 180 8.8 C 182.2 8.8 183.2 7.7 183.2 5.9 C 183.2 4 182.1 3 180.1 3 C 180.07 3.04 175.8 3 175.8 3 L 175.8 8.8 Z M 187.1 1.3 L 189.1 1.3 L 189.1 15.2 L 197.3 15.2 L 197.3 17 L 187.1 17 L 187.1 1.3 Z M 199.3 1.3 L 210.4 1.3 L 210.4 3.1 L 201.3 3.1 L 201.3 8 L 209.6 8 L 209.6 9.7 L 201.3 9.7 L 201.3 15.2 L 210.7 15.2 L 210.7 17 L 199.3 17 L 199.3 1.3 Z M 213 1.3 L 215.5 1.3 L 220.6 14.4 L 220.7 14.4 L 225.7 1.3 L 228.3 1.3 L 228.3 17 L 226.4 17 L 226.4 4.1 L 226.4 4.1 C 226.4 4.1 225.94 5.35 225.7 6.1 C 225.65 6.09 221.3 17 221.3 17 L 219.8 17 C 219.8 17 215.51 6.09 215.5 6.1 C 215.2 5.3 214.8 4.1 214.8 4.1 L 214.8 4.1 L 214.8 17 L 213 17 L 213 1.3 Z M 231.2 1.3 L 242.3 1.3 L 242.3 3.1 L 233.2 3.1 L 233.2 8 L 241.5 8 L 241.5 9.7 L 233.2 9.7 L 233.2 15.2 L 242.6 15.2 L 242.6 17 L 231.2 17 L 231.2 1.3 Z M 244.9 1.3 L 247 1.3 C 247 1.3 254.18 12.25 254.2 12.3 C 254.71 13.07 255.3 14.3 255.3 14.3 L 255.4 14.3 L 255.4 1.3 L 257.2 1.3 L 257.2 17 L 255.2 17 C 255.2 17 247.98 6.09 248 6.1 C 247.47 5.32 246.8 4.1 246.8 4.1 L 246.8 4.1 L 246.8 17 L 244.9 17 L 244.9 1.3 Z M 259.2 1.3 L 271.6 1.3 L 271.6 3.1 L 266.4 3.1 L 266.4 17 L 264.4 17 L 264.4 3.1 L 259.2 3.1 L 259.2 1.3 Z M 276.1 1.3 L 278.4 1.3 L 284.2 17 L 282 17 L 280.3 12.3 L 274.1 12.3 L 272.4 17 L 270.4 17 L 276.1 1.3 Z M 274.6 10.6 L 279.8 10.6 C 279.8 10.6 277.99 5.37 278 5.4 C 277.68 4.49 277.3 3.1 277.3 3.1 L 277.2 3.1 C 277.2 3.1 276.82 4.47 276.5 5.4 C 276.51 5.37 274.6 10.6 274.6 10.6 Z M 285.9 1.3 L 287.8 1.3 L 287.8 15.2 L 296.1 15.2 L 296.1 17 L 285.9 17 L 285.9 1.3 Z M 300.4 1.3 L 302.5 1.3 C 302.5 1.3 304.94 11.55 304.9 11.5 C 305.2 12.61 305.5 14.2 305.5 14.2 L 305.6 14.2 C 305.6 14.2 305.95 12.54 306.2 11.5 C 306.24 11.51 309.1 1.3 309.1 1.3 L 311.2 1.3 C 311.2 1.3 313.96 11.51 314 11.5 C 314.24 12.56 314.6 14.2 314.6 14.2 L 314.6 14.2 C 314.6 14.2 315.01 12.52 315.3 11.5 C 315.26 11.55 317.9 1.3 317.9 1.3 L 319.9 1.3 L 315.5 17 L 313.6 17 C 313.6 17 310.72 5.96 310.7 6 C 310.48 5.04 310.2 3.6 310.2 3.6 L 310.1 3.6 C 310.1 3.6 309.78 5.04 309.5 6 C 309.51 5.96 306.4 17 306.4 17 L 304.5 17 L 300.4 1.3 Z M 320.4 9.2 C 320.4 4.5 323.4 1 328.1 1 C 332.9 1 335.8 4.5 335.8 9.2 C 335.8 13.9 332.9 17.4 328.1 17.4 C 323.4 17.4 320.4 13.9 320.4 9.2 Z M 333.8 9.2 C 333.8 5.5 331.8 2.7 328.1 2.7 C 324.4 2.7 322.4 5.5 322.4 9.2 C 322.4 12.9 324.4 15.6 328.1 15.6 C 331.8 15.6 333.8 12.9 333.8 9.2 Z M 338.2 1.3 C 338.2 1.3 345.51 1.32 345.5 1.3 C 348.3 1.3 350.1 3.1 350.1 5.6 C 350.1 7.5 349.3 8.9 347.4 9.5 C 347.4 9.5 347.4 9.6 347.4 9.6 C 349 10.2 349.5 11.3 349.7 13.6 C 349.9 16.1 350.1 16.8 350.4 17 C 350.41 16.96 350.4 17 350.4 17 C 350.4 17 348.28 17.05 348.3 17 C 347.9 16.8 347.9 16.2 347.7 13.5 C 347.6 11.2 346.6 10.4 344.5 10.4 C 344.52 10.41 340.1 10.4 340.1 10.4 L 340.1 17 L 338.2 17 L 338.2 1.3 Z M 340.1 8.8 C 340.1 8.8 344.8 8.8 344.8 8.8 C 347 8.8 348.1 7.7 348.1 5.9 C 348.1 4 347.2 3 344.9 3 C 344.91 3.04 340.1 3 340.1 3 L 340.1 8.8 Z M 352.5 1.3 L 354.5 1.3 L 354.5 9.1 L 362.3 1.3 L 364.8 1.3 L 358.4 7.6 L 365.3 17 L 363 17 L 357.1 9 L 354.5 11.5 L 354.5 17 L 352.5 17 L 352.5 1.3 Z " stroke="none" fill="#000"/>  </g>  <g id="Polygon9349">    <path d="M 0.4 9.2 C 0.4 4.6 3.5 1 8.2 1 C 10 1 11.6 1.5 12.7 2.4 C 14 3.4 14.8 5 15 6.7 C 15 6.7 11.1 6.7 11.1 6.7 C 10.9 5.3 9.8 4.2 8.2 4.2 C 5.6 4.2 4.4 6.4 4.4 9.2 C 4.4 12.1 5.9 14.2 8.2 14.2 C 9.9 14.2 11.1 13.1 11.2 11.6 C 11.2 11.6 15.1 11.6 15.1 11.6 C 15 13.2 14.3 14.6 13.2 15.6 C 12 16.8 10.4 17.4 8.2 17.4 C 3.6 17.4 0.4 13.9 0.4 9.2 Z M 20.5 1.3 L 24.5 1.3 L 30.2 17 L 26.1 17 L 25.2 14.2 L 19.7 14.2 L 18.8 17 L 14.9 17 L 20.5 1.3 Z M 24.3 11.4 C 24.3 11.4 23.1 7.61 23.1 7.6 C 22.84 6.8 22.5 5.4 22.5 5.4 L 22.4 5.4 C 22.4 5.4 22.07 6.8 21.8 7.6 C 21.8 7.61 20.6 11.4 20.6 11.4 L 24.3 11.4 Z M 37.5 13.8 C 40 13.8 41.4 12.2 41.4 9.3 C 41.4 6.4 40 4.6 37.5 4.6 C 37.53 4.58 35.2 4.6 35.2 4.6 L 35.2 13.8 C 35.2 13.8 37.49 13.77 37.5 13.8 Z M 31.3 1.3 C 31.3 1.3 38.02 1.32 38 1.3 C 42.4 1.3 45.3 4.5 45.3 9.3 C 45.3 12.1 44.3 14.3 42.6 15.6 C 41.3 16.5 39.8 17 37.8 17 C 37.77 17.05 31.3 17 31.3 17 L 31.3 1.3 Z M 52.6 1.3 L 56.5 1.3 C 56.5 1.3 58.08 7.92 58.1 7.9 C 58.43 9.44 58.8 11.8 58.8 11.8 L 58.8 11.8 C 58.8 11.8 59.27 9.66 59.6 8.1 C 59.62 8.07 61.1 1.3 61.1 1.3 L 64.7 1.3 C 64.7 1.3 66.18 8.03 66.2 8 C 66.53 9.64 66.9 11.8 66.9 11.8 L 67 11.8 C 67 11.8 67.41 9.44 67.8 7.9 C 67.76 7.88 69.3 1.3 69.3 1.3 L 73.2 1.3 L 68.9 17 L 65.1 17 C 65.1 17 63.47 9.5 63.5 9.5 C 63.18 8.25 62.9 6.6 62.9 6.6 L 62.9 6.6 C 62.9 6.6 62.61 8.25 62.3 9.5 C 62.35 9.5 60.7 17 60.7 17 L 56.9 17 L 52.6 1.3 Z M 84.6 9.2 C 84.6 6.4 83.4 4.2 80.8 4.2 C 78.3 4.2 77 6.4 77 9.2 C 77 12.1 78.3 14.3 80.8 14.3 C 83.4 14.3 84.6 12.1 84.6 9.2 Z M 73 9.2 C 73 4.5 76 1 80.8 1 C 85.6 1 88.6 4.5 88.6 9.2 C 88.6 13.9 85.6 17.4 80.8 17.4 C 76 17.4 73 13.9 73 9.2 Z M 90.1 1.3 C 90.1 1.3 97.61 1.32 97.6 1.3 C 100.7 1.3 103.1 2.9 103.1 5.9 C 103.1 7.7 102.2 9 100.4 9.7 C 100.4 9.7 100.4 9.7 100.4 9.7 C 101.7 10.2 102.5 11 102.7 12.6 C 103 14.7 102.8 16.7 103.3 16.9 C 103.33 16.85 103.3 17 103.3 17 C 103.3 17 99.55 17.05 99.5 17 C 99.1 16.8 99.2 15 99 13.4 C 98.8 11.9 98 11.2 96.3 11.2 C 96.34 11.15 94 11.2 94 11.2 L 94 17 L 90.1 17 L 90.1 1.3 Z M 96.9 8.3 C 98.4 8.3 99.2 7.5 99.2 6.4 C 99.2 5.2 98.5 4.4 97 4.4 C 97 4.4 94 4.4 94 4.4 L 94 8.3 C 94 8.3 96.91 8.27 96.9 8.3 Z M 104.9 1.3 L 108.7 1.3 L 108.7 7 L 114.2 1.3 L 118.8 1.3 L 112.7 7.6 L 119.1 17 L 114.6 17 L 110.1 10.3 L 108.7 11.6 L 108.7 17 L 104.9 17 L 104.9 1.3 Z " stroke="none" fill="#d12229"/>  </g></svg>