<?xml version="1.0" standalone="no"?><!DOCTYPE svg PUBLIC "-//W3C//DTD SVG 1.1//EN" "http://www.w3.org/Graphics/SVG/1.1/DTD/svg11.dtd"><svg xmlns="http://www.w3.org/2000/svg" version="1.1" width="256px" height="46.9px" viewBox="0 -6 256 46.9" style="top:-6px">  <desc>Independent Play</desc>  <defs/>  <g id="Polygon7887">    <path d="M 1.7 1.7 L 6 1.7 L 6 23.1 L 1.7 23.1 L 1.7 1.7 Z M 13 9.8 C 13 9.8 13.11 9.84 13.1 9.8 C 14.2 8.2 15.6 7.3 17.7 7.3 C 20.8 7.3 23 9.7 23 13.1 C 22.98 13.08 23 23.1 23 23.1 L 18.9 23.1 C 18.9 23.1 18.9 13.68 18.9 13.7 C 18.9 12 17.9 10.9 16.2 10.9 C 14.4 10.9 13.1 12.3 13.1 14.4 C 13.11 14.4 13.1 23.1 13.1 23.1 L 9 23.1 L 9 7.7 L 13 7.7 L 13 9.8 Z M 24.7 15.4 C 24.7 10.6 27.5 7.3 31.3 7.3 C 33.5 7.3 34.8 8.3 35.7 9.6 C 35.67 9.6 35.8 9.6 35.8 9.6 L 35.8 1.7 L 39.8 1.7 L 39.8 23.1 L 35.9 23.1 L 35.9 21.1 C 35.9 21.1 35.85 21.12 35.8 21.1 C 34.9 22.6 33.4 23.6 31.3 23.6 C 27.4 23.6 24.7 20.4 24.7 15.4 Z M 35.8 15.5 C 35.8 12.6 34.9 10.6 32.3 10.6 C 30 10.6 28.9 12.6 28.9 15.4 C 28.9 18.4 30.1 20.2 32.2 20.2 C 34.6 20.2 35.8 18.4 35.8 15.5 Z M 41.7 15.4 C 41.7 10.9 44.8 7.3 49.3 7.3 C 54.3 7.3 56.9 11.1 56.9 16.6 C 56.9 16.6 45.7 16.6 45.7 16.6 C 46 19 47.4 20.4 49.7 20.4 C 51.3 20.4 52.2 19.7 52.6 18.5 C 52.6 18.5 56.7 18.5 56.7 18.5 C 56.1 21.3 53.7 23.6 49.7 23.6 C 44.6 23.6 41.7 20 41.7 15.4 Z M 45.8 13.8 C 45.8 13.8 52.6 13.8 52.6 13.8 C 52.5 11.8 51.2 10.5 49.4 10.5 C 47.2 10.5 46.2 11.8 45.8 13.8 Z M 58.8 7.7 L 62.7 7.7 L 62.7 9.7 C 62.7 9.7 62.82 9.66 62.8 9.7 C 63.8 8.3 65.2 7.3 67.3 7.3 C 71.4 7.3 74 10.6 74 15.4 C 74 20.4 71.3 23.6 67.4 23.6 C 65.2 23.6 63.8 22.7 62.9 21.4 C 62.94 21.39 62.9 21.4 62.9 21.4 L 62.9 28.2 L 58.8 28.2 L 58.8 7.7 Z M 69.9 15.6 C 69.9 12.7 68.9 10.6 66.4 10.6 C 63.8 10.6 62.8 12.8 62.8 15.6 C 62.8 18.4 64.1 20.2 66.5 20.2 C 68.6 20.2 69.9 18.5 69.9 15.6 Z M 75.2 15.4 C 75.2 10.9 78.3 7.3 82.8 7.3 C 87.7 7.3 90.4 11.1 90.4 16.6 C 90.4 16.6 79.2 16.6 79.2 16.6 C 79.5 19 80.8 20.4 83.1 20.4 C 84.7 20.4 85.6 19.7 86.1 18.5 C 86.1 18.5 90.1 18.5 90.1 18.5 C 89.5 21.3 87.1 23.6 83.2 23.6 C 78.1 23.6 75.2 20 75.2 15.4 Z M 79.3 13.8 C 79.3 13.8 86.1 13.8 86.1 13.8 C 86 11.8 84.7 10.5 82.8 10.5 C 80.7 10.5 79.6 11.8 79.3 13.8 Z M 96.2 9.8 C 96.2 9.8 96.33 9.84 96.3 9.8 C 97.4 8.2 98.8 7.3 100.9 7.3 C 104.1 7.3 106.2 9.7 106.2 13.1 C 106.2 13.08 106.2 23.1 106.2 23.1 L 102.1 23.1 C 102.1 23.1 102.12 13.68 102.1 13.7 C 102.1 12 101.2 10.9 99.4 10.9 C 97.6 10.9 96.3 12.3 96.3 14.4 C 96.33 14.4 96.3 23.1 96.3 23.1 L 92.2 23.1 L 92.2 7.7 L 96.2 7.7 L 96.2 9.8 Z M 108 15.4 C 108 10.6 110.7 7.3 114.5 7.3 C 116.7 7.3 118 8.3 118.9 9.6 C 118.89 9.6 119 9.6 119 9.6 L 119 1.7 L 123.1 1.7 L 123.1 23.1 L 119.1 23.1 L 119.1 21.1 C 119.1 21.1 119.07 21.12 119.1 21.1 C 118.2 22.6 116.6 23.6 114.5 23.6 C 110.6 23.6 108 20.4 108 15.4 Z M 119.1 15.5 C 119.1 12.6 118.1 10.6 115.5 10.6 C 113.2 10.6 112.1 12.6 112.1 15.4 C 112.1 18.4 113.3 20.2 115.4 20.2 C 117.8 20.2 119.1 18.4 119.1 15.5 Z M 124.9 15.4 C 124.9 10.9 128 7.3 132.5 7.3 C 137.5 7.3 140.1 11.1 140.1 16.6 C 140.1 16.6 129 16.6 129 16.6 C 129.3 19 130.6 20.4 132.9 20.4 C 134.5 20.4 135.4 19.7 135.9 18.5 C 135.9 18.5 139.9 18.5 139.9 18.5 C 139.3 21.3 136.9 23.6 132.9 23.6 C 127.8 23.6 124.9 20 124.9 15.4 Z M 129 13.8 C 129 13.8 135.9 13.8 135.9 13.8 C 135.7 11.8 134.5 10.5 132.6 10.5 C 130.4 10.5 129.4 11.8 129 13.8 Z M 146 9.8 C 146 9.8 146.1 9.84 146.1 9.8 C 147.1 8.2 148.6 7.3 150.7 7.3 C 153.8 7.3 156 9.7 156 13.1 C 155.97 13.08 156 23.1 156 23.1 L 151.9 23.1 C 151.9 23.1 151.89 13.68 151.9 13.7 C 151.9 12 150.9 10.9 149.2 10.9 C 147.4 10.9 146.1 12.3 146.1 14.4 C 146.1 14.4 146.1 23.1 146.1 23.1 L 142 23.1 L 142 7.7 L 146 7.7 L 146 9.8 Z M 157.3 7.7 L 159.4 7.7 L 159.4 2.9 L 163.4 2.9 L 163.4 7.7 L 166 7.7 L 166 10.4 L 163.4 10.4 C 163.4 10.4 163.41 18.6 163.4 18.6 C 163.4 19.7 164 20.1 164.9 20.1 C 165.45 20.13 166.1 20.1 166.1 20.1 L 166.1 23.1 C 166.1 23.1 165.21 23.16 163.6 23.2 C 161.6 23.2 159.4 22.4 159.4 19.5 C 159.42 19.47 159.4 10.4 159.4 10.4 L 157.3 10.4 L 157.3 7.7 Z M 173.5 1.7 C 173.5 1.7 182.94 1.68 182.9 1.7 C 185.4 1.7 187.3 2.4 188.5 3.7 C 189.7 4.9 190.5 6.6 190.5 8.6 C 190.5 12.6 187.8 15.4 183.3 15.4 C 183.3 15.36 178 15.4 178 15.4 L 178 23.1 L 173.5 23.1 L 173.5 1.7 Z M 178 11.8 C 178 11.8 182.52 11.82 182.5 11.8 C 184.8 11.8 186 10.6 186 8.6 C 186 6.6 184.7 5.5 182.6 5.5 C 182.58 5.46 178 5.5 178 5.5 L 178 11.8 Z M 192.4 1.7 L 196.4 1.7 L 196.4 23.1 L 192.4 23.1 L 192.4 1.7 Z M 208.3 21.4 C 208.3 21.4 208.3 21.4 208.3 21.4 C 207.5 22.6 206.4 23.5 203.8 23.5 C 200.6 23.5 198.4 21.8 198.4 18.8 C 198.4 15.4 201.1 14.3 204.6 13.8 C 207.1 13.5 208.3 13.3 208.3 12.1 C 208.3 11 207.4 10.3 205.7 10.3 C 203.8 10.3 202.9 10.9 202.7 12.4 C 202.7 12.4 199.1 12.4 199.1 12.4 C 199.2 9.7 201.2 7.3 205.7 7.3 C 210.4 7.3 212.2 9.4 212.2 13 C 212.2 13 212.2 20.8 212.2 20.8 C 212.2 22 212.4 22.7 212.8 23 C 212.76 22.98 212.8 23.1 212.8 23.1 C 212.8 23.1 208.83 23.13 208.8 23.1 C 208.6 22.8 208.4 22.1 208.3 21.4 Z M 208.4 17.7 C 208.4 17.7 208.4 15.4 208.4 15.4 C 207.7 15.8 206.5 16 205.5 16.3 C 203.4 16.8 202.3 17.2 202.3 18.7 C 202.3 20.1 203.3 20.6 204.7 20.6 C 207.1 20.6 208.4 19.2 208.4 17.7 Z M 215 25 C 215 25 216.42 24.96 216.4 25 C 218 25 218.7 24.1 218.7 22.9 C 218.7 22 218.4 21 217.5 18.7 C 217.53 18.69 213.4 7.7 213.4 7.7 L 217.7 7.7 C 217.7 7.7 219.96 14.67 220 14.7 C 220.44 16.08 220.9 18 220.9 18 L 221 18 C 221 18 221.43 16.08 221.9 14.7 C 221.91 14.67 224.1 7.7 224.1 7.7 L 228.2 7.7 C 228.2 7.7 222.81 23.52 222.8 23.5 C 221.6 26.9 220.5 28.2 217.4 28.2 C 217.38 28.17 215 28.2 215 28.2 L 215 25 Z " stroke="none" fill="#d12229"/>  </g></svg>