<?xml version="1.0" standalone="no"?><!DOCTYPE svg PUBLIC "-//W3C//DTD SVG 1.1//EN" "http://www.w3.org/Graphics/SVG/1.1/DTD/svg11.dtd"><svg xmlns="http://www.w3.org/2000/svg" version="1.1" width="300px" height="28.2px" viewBox="0 -3 300 28.2" style="top:-3px">  <desc>Acrylic Lamp PDES 2777</desc>  <defs/>  <g id="Polygon3238">    <path d="M 3.5 0.8 L 5.6 0.8 L 9.2 10.8 L 7 10.8 L 6.4 8.7 L 2.8 8.7 L 2.1 10.8 L 0 10.8 L 3.5 0.8 Z M 3.2 7.1 L 5.9 7.1 C 5.9 7.1 4.98 4.23 5 4.2 C 4.82 3.7 4.6 2.7 4.6 2.7 L 4.5 2.7 C 4.5 2.7 4.3 3.7 4.1 4.2 C 4.13 4.23 3.2 7.1 3.2 7.1 Z M 9.2 7.2 C 9.2 5.1 10.6 3.4 12.8 3.4 C 14.7 3.4 15.8 4.5 16.1 6 C 16.1 6 14.2 6 14.2 6 C 14.1 5.4 13.6 4.9 12.9 4.9 C 11.7 4.9 11.1 5.8 11.1 7.2 C 11.1 8.6 11.7 9.5 12.9 9.5 C 13.6 9.5 14.2 9.1 14.3 8.3 C 14.3 8.3 16.1 8.3 16.1 8.3 C 16 9.8 14.8 11 12.9 11 C 10.6 11 9.2 9.4 9.2 7.2 Z M 18.8 4.8 C 18.8 4.8 18.83 4.76 18.8 4.8 C 19.3 3.9 19.8 3.5 20.6 3.5 C 20.8 3.5 20.9 3.5 21 3.6 C 21.04 3.58 21 5.3 21 5.3 C 21 5.3 21 5.25 21 5.3 C 19.8 5.1 18.9 5.8 18.9 7.3 C 18.86 7.29 18.9 10.8 18.9 10.8 L 17 10.8 L 17 3.6 L 18.8 3.6 L 18.8 4.8 Z M 22.1 11.6 C 22.1 11.6 22.76 11.65 22.8 11.6 C 23.5 11.6 23.8 11.3 23.8 10.7 C 23.8 10.3 23.7 9.8 23.3 8.7 C 23.28 8.72 21.4 3.6 21.4 3.6 L 23.4 3.6 C 23.4 3.6 24.42 6.85 24.4 6.8 C 24.64 7.5 24.9 8.4 24.9 8.4 L 24.9 8.4 C 24.9 8.4 25.1 7.5 25.3 6.8 C 25.33 6.85 26.3 3.6 26.3 3.6 L 28.3 3.6 C 28.3 3.6 25.75 10.98 25.7 11 C 25.2 12.6 24.7 13.1 23.2 13.1 C 23.21 13.15 22.1 13.1 22.1 13.1 L 22.1 11.6 Z M 28.9 0.8 L 30.8 0.8 L 30.8 10.8 L 28.9 10.8 L 28.9 0.8 Z M 32.1 3.6 L 34 3.6 L 34 10.8 L 32.1 10.8 L 32.1 3.6 Z M 32.1 0.8 L 34 0.8 L 34 2.5 L 32.1 2.5 L 32.1 0.8 Z M 34.9 7.2 C 34.9 5.1 36.3 3.4 38.5 3.4 C 40.3 3.4 41.5 4.5 41.7 6 C 41.7 6 39.9 6 39.9 6 C 39.7 5.4 39.2 4.9 38.5 4.9 C 37.4 4.9 36.8 5.8 36.8 7.2 C 36.8 8.6 37.4 9.5 38.5 9.5 C 39.3 9.5 39.8 9.1 40 8.3 C 40 8.3 41.8 8.3 41.8 8.3 C 41.7 9.8 40.5 11 38.6 11 C 36.3 11 34.9 9.4 34.9 7.2 Z M 45.1 0.8 L 47.2 0.8 L 47.2 9.1 L 51.9 9.1 L 51.9 10.8 L 45.1 10.8 L 45.1 0.8 Z M 57.2 10 C 57.2 10 57.1 10 57.1 10 C 56.8 10.5 56.3 11 55 11 C 53.5 11 52.5 10.2 52.5 8.8 C 52.5 7.2 53.8 6.7 55.4 6.5 C 56.6 6.3 57.1 6.2 57.1 5.6 C 57.1 5.1 56.7 4.8 55.9 4.8 C 55 4.8 54.6 5.1 54.5 5.8 C 54.5 5.8 52.9 5.8 52.9 5.8 C 52.9 4.5 53.8 3.4 55.9 3.4 C 58.1 3.4 59 4.4 59 6.1 C 59 6.1 59 9.7 59 9.7 C 59 10.3 59.1 10.6 59.2 10.7 C 59.22 10.72 59.2 10.8 59.2 10.8 C 59.2 10.8 57.39 10.79 57.4 10.8 C 57.3 10.7 57.2 10.3 57.2 10 Z M 57.2 8.3 C 57.2 8.3 57.2 7.2 57.2 7.2 C 56.8 7.4 56.3 7.5 55.8 7.6 C 54.9 7.8 54.4 8.1 54.4 8.7 C 54.4 9.4 54.8 9.6 55.5 9.6 C 56.6 9.6 57.2 9 57.2 8.3 Z M 60.2 3.6 L 62 3.6 L 62 4.6 C 62 4.6 62.05 4.58 62 4.6 C 62.4 3.9 63.1 3.4 64.1 3.4 C 65 3.4 65.8 3.9 66.1 4.7 C 66.1 4.7 66.1 4.7 66.1 4.7 C 66.6 3.9 67.4 3.4 68.3 3.4 C 69.8 3.4 70.7 4.4 70.7 6 C 70.67 5.96 70.7 10.8 70.7 10.8 L 68.8 10.8 C 68.8 10.8 68.77 6.29 68.8 6.3 C 68.8 5.5 68.4 5.1 67.7 5.1 C 66.9 5.1 66.4 5.7 66.4 6.6 C 66.37 6.62 66.4 10.8 66.4 10.8 L 64.5 10.8 C 64.5 10.8 64.47 6.29 64.5 6.3 C 64.5 5.5 64.1 5.1 63.4 5.1 C 62.6 5.1 62.1 5.7 62.1 6.6 C 62.07 6.62 62.1 10.8 62.1 10.8 L 60.2 10.8 L 60.2 3.6 Z M 71.8 3.6 L 73.7 3.6 L 73.7 4.5 C 73.7 4.5 73.72 4.51 73.7 4.5 C 74.2 3.9 74.9 3.4 75.8 3.4 C 77.7 3.4 79 5 79 7.2 C 79 9.5 77.7 11 75.9 11 C 74.8 11 74.2 10.6 73.8 10 C 73.78 9.98 73.8 10 73.8 10 L 73.8 13.1 L 71.8 13.1 L 71.8 3.6 Z M 77 7.3 C 77 5.9 76.6 5 75.4 5 C 74.2 5 73.7 6 73.7 7.3 C 73.7 8.6 74.3 9.4 75.4 9.4 C 76.4 9.4 77 8.6 77 7.3 Z M 82.5 0.2 L 83.6 0.2 L 83.6 12.6 L 82.5 12.6 L 82.5 0.2 Z M 87.6 0.8 C 87.6 0.8 92.04 0.78 92 0.8 C 93.2 0.8 94.1 1.1 94.7 1.7 C 95.2 2.3 95.5 3.1 95.5 4 C 95.5 5.9 94.3 7.2 92.2 7.2 C 92.2 7.17 89.7 7.2 89.7 7.2 L 89.7 10.8 L 87.6 10.8 L 87.6 0.8 Z M 89.7 5.5 C 89.7 5.5 91.84 5.52 91.8 5.5 C 92.9 5.5 93.5 4.9 93.5 4 C 93.5 3.1 92.9 2.5 91.9 2.5 C 91.87 2.55 89.7 2.5 89.7 2.5 L 89.7 5.5 Z M 96.6 0.8 C 96.6 0.8 100.46 0.78 100.5 0.8 C 103.1 0.8 104.9 2.9 104.9 5.9 C 104.9 7.5 104.3 8.9 103.3 9.8 C 102.5 10.4 101.6 10.8 100.3 10.8 C 100.29 10.79 96.6 10.8 96.6 10.8 L 96.6 0.8 Z M 100.2 9 C 102.1 9 102.8 7.9 102.8 5.9 C 102.8 3.9 101.9 2.5 100.2 2.5 C 100.21 2.52 98.6 2.5 98.6 2.5 L 98.6 9 C 98.6 9 100.15 9.04 100.2 9 Z M 106 0.8 L 113.3 0.8 L 113.3 2.5 L 108 2.5 L 108 4.7 L 112.7 4.7 L 112.7 6.4 L 108 6.4 L 108 9.1 L 113.4 9.1 L 113.4 10.8 L 106 10.8 L 106 0.8 Z M 114.1 7.7 C 114.1 7.7 116.1 7.7 116.1 7.7 C 116.2 8.9 116.9 9.4 118.4 9.4 C 119.4 9.4 120.3 9 120.3 8.1 C 120.3 7.1 119.3 6.9 117.8 6.6 C 116 6.2 114.4 5.7 114.4 3.6 C 114.4 1.6 116 0.6 118.2 0.6 C 120.5 0.6 121.9 1.7 122.1 3.7 C 122.1 3.7 120.1 3.7 120.1 3.7 C 120 2.7 119.3 2.2 118.2 2.2 C 117.1 2.2 116.4 2.7 116.4 3.4 C 116.4 4.2 117.1 4.4 118.6 4.8 C 120.7 5.2 122.3 5.7 122.3 7.9 C 122.3 9.9 120.7 11 118.4 11 C 115.7 11 114.2 9.8 114.1 7.7 Z M 130.2 7 C 131.4 6 132.7 5.4 132.7 4.1 C 132.7 3.2 132.2 2.6 131.3 2.6 C 130.4 2.6 129.8 3.3 129.8 4.6 C 129.8 4.6 128 4.6 128 4.6 C 128 2.4 129.1 1 131.4 1 C 133.5 1 134.7 2.4 134.7 4.1 C 134.7 5.9 133.4 6.7 132.2 7.5 C 131.5 8 130.6 8.6 130.3 9.2 C 130.31 9.23 134.7 9.2 134.7 9.2 L 134.7 10.8 C 134.7 10.8 127.85 10.79 127.8 10.8 C 127.9 9 129.1 7.8 130.2 7 Z M 140.2 2.9 C 140.17 2.87 140.2 2.8 140.2 2.8 L 135.4 2.8 L 135.4 1.2 L 142.2 1.2 C 142.2 1.2 142.24 2.77 142.2 2.8 C 140.5 4.5 138.9 7.3 138.8 10.8 C 138.8 10.8 136.7 10.8 136.7 10.8 C 136.8 7.3 138.7 4.4 140.2 2.9 Z M 147.8 2.9 C 147.8 2.87 147.8 2.8 147.8 2.8 L 143 2.8 L 143 1.2 L 149.9 1.2 C 149.9 1.2 149.87 2.77 149.9 2.8 C 148.1 4.5 146.6 7.3 146.4 10.8 C 146.4 10.8 144.3 10.8 144.3 10.8 C 144.5 7.3 146.3 4.4 147.8 2.9 Z M 155.4 2.9 C 155.43 2.87 155.4 2.8 155.4 2.8 L 150.7 2.8 L 150.7 1.2 L 157.5 1.2 C 157.5 1.2 157.5 2.77 157.5 2.8 C 155.8 4.5 154.2 7.3 154 10.8 C 154 10.8 152 10.8 152 10.8 C 152.1 7.3 154 4.4 155.4 2.9 Z " stroke="none" fill="#000"/>  </g></svg>