<?xml version="1.0" standalone="no"?><!DOCTYPE svg PUBLIC "-//W3C//DTD SVG 1.1//EN" "http://www.w3.org/Graphics/SVG/1.1/DTD/svg11.dtd"><svg xmlns="http://www.w3.org/2000/svg" version="1.1" width="275px" height="105.1px" viewBox="0 -4 275 105.1" style="top:-4px">  <desc>The Color Blaster features a form removed from the tradition gun-like squirt guns, with easy to learn and safe mechan</desc>  <defs/>  <g id="Polygon9296">    <path d="M 0.9 69.4 L 2.1 69.4 L 2.1 70.8 C 2.1 70.8 2.09 70.76 2.1 70.8 C 2.7 69.8 3.6 69.2 4.9 69.2 C 6 69.2 7 69.7 7.4 70.8 C 7.4 70.8 7.4 70.8 7.4 70.8 C 8 69.8 9.1 69.2 10.4 69.2 C 12 69.2 13.2 70.2 13.2 72.1 C 13.23 72.05 13.2 78.7 13.2 78.7 L 12.1 78.7 C 12.1 78.7 12.13 72.14 12.1 72.1 C 12.1 70.8 11.3 70.1 10.2 70.1 C 8.8 70.1 7.6 71.1 7.6 72.7 C 7.65 72.74 7.6 78.7 7.6 78.7 L 6.5 78.7 C 6.5 78.7 6.53 72.14 6.5 72.1 C 6.5 70.8 5.7 70.1 4.7 70.1 C 3.3 70.1 2.1 71.2 2.1 72.7 C 2.05 72.74 2.1 78.7 2.1 78.7 L 0.9 78.7 L 0.9 69.4 Z M 14.6 74 C 14.6 71.2 16.2 69.1 18.8 69.1 C 21.8 69.1 22.8 71.6 22.8 74.2 C 22.8 74.2 15.7 74.2 15.7 74.2 C 15.8 76.3 16.8 77.9 18.9 77.9 C 20.4 77.9 21.3 77.1 21.6 75.9 C 21.6 75.9 22.7 75.9 22.7 75.9 C 22.3 77.7 21 78.9 18.9 78.9 C 16.1 78.9 14.6 76.8 14.6 74 Z M 21.6 73.3 C 21.6 71.5 20.7 70.1 18.8 70.1 C 16.9 70.1 15.9 71.5 15.7 73.3 C 15.7 73.3 21.6 73.3 21.6 73.3 Z M 23.7 74 C 23.7 71.2 25.3 69.1 28 69.1 C 30 69.1 31.4 70.3 31.7 72.2 C 31.7 72.2 30.6 72.2 30.6 72.2 C 30.3 70.8 29.4 70.1 28 70.1 C 25.8 70.1 24.9 71.9 24.9 74 C 24.9 76.2 25.8 77.9 27.9 77.9 C 29.5 77.9 30.5 76.9 30.7 75.5 C 30.7 75.5 31.8 75.5 31.8 75.5 C 31.5 77.6 30.1 78.9 27.9 78.9 C 25.2 78.9 23.7 76.8 23.7 74 Z M 33.1 65.8 L 34.2 65.8 L 34.2 70.8 C 34.2 70.8 34.24 70.78 34.2 70.8 C 34.9 69.8 35.9 69.2 37.3 69.2 C 39.1 69.2 40.3 70.2 40.3 72.1 C 40.32 72.05 40.3 78.7 40.3 78.7 L 39.2 78.7 C 39.2 78.7 39.2 72.16 39.2 72.2 C 39.2 70.8 38.4 70.1 37.1 70.1 C 35.5 70.1 34.2 71.2 34.2 72.8 C 34.2 72.76 34.2 78.7 34.2 78.7 L 33.1 78.7 L 33.1 65.8 Z M 41.6 76.3 C 41.6 74.1 43.3 73.6 45.4 73.4 C 47.3 73.2 47.9 73 47.9 72.1 C 47.9 72.1 47.9 71.9 47.9 71.9 C 47.9 70.7 47.1 70.1 45.7 70.1 C 44 70.1 43.2 70.7 43.1 72.1 C 43.1 72.1 42 72.1 42 72.1 C 42.1 70.3 43.3 69.2 45.7 69.2 C 47.7 69.2 49 70 49 72 C 49 72 49 77.1 49 77.1 C 49 77.7 49.2 77.9 49.6 77.9 C 49.7 77.9 49.9 77.9 50 77.8 C 50.02 77.83 50.1 77.8 50.1 77.8 C 50.1 77.8 50.08 78.64 50.1 78.6 C 49.9 78.7 49.7 78.8 49.3 78.8 C 48.5 78.8 48 78.4 48 77.5 C 47.95 77.47 48 77.3 48 77.3 C 48 77.3 47.9 77.27 47.9 77.3 C 47.4 78 46.4 78.9 44.6 78.9 C 42.9 78.9 41.6 78 41.6 76.3 Z M 48 75.3 C 48 75.3 48 73.6 48 73.6 C 47.4 73.9 46.4 74.1 45.5 74.2 C 44 74.4 42.8 74.7 42.8 76.3 C 42.8 77.6 43.7 78 44.8 78 C 46.9 78 48 76.6 48 75.3 Z M 51.1 69.4 L 52.2 69.4 L 52.2 70.8 C 52.2 70.8 52.25 70.78 52.3 70.8 C 52.9 69.8 53.9 69.2 55.4 69.2 C 57.1 69.2 58.3 70.2 58.3 72.1 C 58.34 72.05 58.3 78.7 58.3 78.7 L 57.2 78.7 C 57.2 78.7 57.22 72.16 57.2 72.2 C 57.2 70.8 56.4 70.1 55.1 70.1 C 53.5 70.1 52.2 71.2 52.2 72.8 C 52.22 72.76 52.2 78.7 52.2 78.7 L 51.1 78.7 L 51.1 69.4 Z M 60.2 69.4 L 61.3 69.4 L 61.3 78.7 L 60.2 78.7 L 60.2 69.4 Z M 60.2 65.8 L 61.3 65.8 L 61.3 67.4 L 60.2 67.4 L 60.2 65.8 Z M 62.6 75.8 C 62.6 75.8 63.7 75.8 63.7 75.8 C 63.9 77.3 65 78 66.5 78 C 68 78 68.8 77.2 68.8 76.2 C 68.8 75.1 68.2 74.8 66.3 74.4 C 64.4 73.9 62.9 73.5 62.9 71.7 C 62.9 70.1 64.3 69.2 66.2 69.2 C 68.4 69.2 69.4 70.3 69.6 71.9 C 69.6 71.9 68.5 71.9 68.5 71.9 C 68.4 70.7 67.6 70.1 66.2 70.1 C 64.7 70.1 64 70.8 64 71.6 C 64 72.7 64.9 72.9 66.7 73.3 C 68.6 73.7 69.9 74.2 69.9 76.1 C 69.9 77.8 68.6 78.9 66.4 78.9 C 64 78.9 62.7 77.6 62.6 75.8 Z M 71.3 69.4 L 72.4 69.4 L 72.4 70.8 C 72.4 70.8 72.45 70.76 72.4 70.8 C 73 69.8 73.9 69.2 75.3 69.2 C 76.4 69.2 77.4 69.7 77.8 70.8 C 77.8 70.8 77.8 70.8 77.8 70.8 C 78.4 69.8 79.5 69.2 80.8 69.2 C 82.4 69.2 83.6 70.2 83.6 72.1 C 83.59 72.05 83.6 78.7 83.6 78.7 L 82.5 78.7 C 82.5 78.7 82.49 72.14 82.5 72.1 C 82.5 70.8 81.7 70.1 80.5 70.1 C 79.2 70.1 78 71.1 78 72.7 C 78.01 72.74 78 78.7 78 78.7 L 76.9 78.7 C 76.9 78.7 76.9 72.14 76.9 72.1 C 76.9 70.8 76.1 70.1 75 70.1 C 73.7 70.1 72.4 71.2 72.4 72.7 C 72.41 72.74 72.4 78.7 72.4 78.7 L 71.3 78.7 L 71.3 69.4 Z M 84.8 75.8 C 84.8 75.8 85.9 75.8 85.9 75.8 C 86.1 77.3 87.2 78 88.7 78 C 90.2 78 91 77.2 91 76.2 C 91 75.1 90.5 74.8 88.6 74.4 C 86.7 73.9 85.2 73.5 85.2 71.7 C 85.2 70.1 86.5 69.2 88.4 69.2 C 90.6 69.2 91.6 70.3 91.9 71.9 C 91.9 71.9 90.7 71.9 90.7 71.9 C 90.6 70.7 89.8 70.1 88.4 70.1 C 87 70.1 86.3 70.8 86.3 71.6 C 86.3 72.7 87.2 72.9 88.9 73.3 C 90.8 73.7 92.2 74.2 92.2 76.1 C 92.2 77.8 90.8 78.9 88.7 78.9 C 86.2 78.9 84.9 77.6 84.8 75.8 Z " stroke="none" fill="#000"/>  </g>  <g id="Polygon9295">    <path d="M 0.3 54.2 C 0.3 54.2 1.5 54.2 1.5 54.2 C 1.6 55.7 2.7 56.4 4.2 56.4 C 5.8 56.4 6.6 55.6 6.6 54.6 C 6.6 53.5 6 53.2 4.1 52.8 C 2.2 52.3 0.7 51.9 0.7 50.1 C 0.7 48.5 2 47.6 3.9 47.6 C 6.1 47.6 7.2 48.7 7.4 50.3 C 7.4 50.3 6.3 50.3 6.3 50.3 C 6.1 49.1 5.3 48.5 3.9 48.5 C 2.5 48.5 1.8 49.2 1.8 50 C 1.8 51.1 2.7 51.3 4.5 51.7 C 6.3 52.1 7.7 52.6 7.7 54.5 C 7.7 56.2 6.4 57.3 4.2 57.3 C 1.7 57.3 0.4 56 0.3 54.2 Z M 15.7 55.7 C 15.7 55.7 15.7 55.67 15.7 55.7 C 15 56.7 14.1 57.3 12.7 57.3 C 10.2 57.3 8.7 55.3 8.7 52.4 C 8.7 49.3 10.5 47.6 12.7 47.6 C 14.1 47.6 15.1 48.2 15.7 49.2 C 15.7 49.23 15.7 49.2 15.7 49.2 L 15.7 47.8 L 16.8 47.8 L 16.8 60 L 15.7 60 L 15.7 55.7 Z M 15.8 52.5 C 15.8 50.2 14.8 48.5 12.7 48.5 C 10.9 48.5 9.8 50.1 9.8 52.5 C 9.8 54.6 10.7 56.4 12.7 56.4 C 14.8 56.4 15.8 54.8 15.8 52.5 Z M 18.6 54.3 C 18.65 54.32 18.6 47.8 18.6 47.8 L 19.8 47.8 C 19.8 47.8 19.76 54.25 19.8 54.3 C 19.8 55.7 20.6 56.3 22 56.3 C 23.5 56.3 24.7 55.2 24.7 53.6 C 24.66 53.57 24.7 47.8 24.7 47.8 L 25.8 47.8 L 25.8 57.1 L 24.7 57.1 L 24.7 55.7 C 24.7 55.7 24.62 55.69 24.6 55.7 C 24 56.6 23.2 57.3 21.7 57.3 C 19.9 57.3 18.6 56.2 18.6 54.3 Z M 27.7 47.8 L 28.8 47.8 L 28.8 57.1 L 27.7 57.1 L 27.7 47.8 Z M 27.7 44.2 L 28.8 44.2 L 28.8 45.8 L 27.7 45.8 L 27.7 44.2 Z M 30.7 47.8 L 31.8 47.8 L 31.8 49.5 C 31.8 49.5 31.82 49.48 31.8 49.5 C 32.4 48.4 33.4 47.7 34.7 47.7 C 34.8 47.7 34.9 47.7 35 47.7 C 35 47.7 35 48.8 35 48.8 C 34.3 48.7 33.6 48.9 33 49.3 C 32.3 49.8 31.8 50.7 31.8 51.8 C 31.79 51.77 31.8 57.1 31.8 57.1 L 30.7 57.1 L 30.7 47.8 Z M 37.1 55.5 C 37.08 55.46 37.1 48.7 37.1 48.7 L 35.7 48.7 L 35.7 47.8 L 37.1 47.8 L 37.1 44.9 L 38.2 44.9 L 38.2 47.8 L 39.9 47.8 L 39.9 48.7 L 38.2 48.7 C 38.2 48.7 38.2 55.28 38.2 55.3 C 38.2 55.9 38.5 56.2 39.1 56.2 C 39.3 56.2 39.7 56.1 39.8 56 C 39.83 56.02 39.9 56 39.9 56 C 39.9 56 39.89 56.97 39.9 57 C 39.6 57.1 39.3 57.1 38.9 57.1 C 37.8 57.1 37.1 56.6 37.1 55.5 Z M 44 57.9 C 44 57.9 45.1 57.9 45.1 57.9 C 45.3 59 46.3 59.4 47.7 59.4 C 49.7 59.4 50.6 58.4 50.6 56.7 C 50.6 56.74 50.6 55.3 50.6 55.3 C 50.6 55.3 50.54 55.26 50.5 55.3 C 49.9 56.3 49 56.9 47.6 56.9 C 45.1 56.9 43.6 55 43.6 52.2 C 43.6 49.2 45.4 47.6 47.6 47.6 C 49 47.6 49.9 48.2 50.5 49.2 C 50.54 49.19 50.6 49.2 50.6 49.2 L 50.6 47.8 L 51.7 47.8 C 51.7 47.8 51.69 56.7 51.7 56.7 C 51.7 57.7 51.4 58.6 50.8 59.2 C 50.1 59.9 49.1 60.3 47.7 60.3 C 45.4 60.3 44.2 59.3 44 57.9 Z M 50.7 52.2 C 50.7 50 49.7 48.5 47.7 48.5 C 45.8 48.5 44.7 50 44.7 52.3 C 44.7 54.4 45.7 55.9 47.6 55.9 C 49.7 55.9 50.7 54.4 50.7 52.2 Z M 53.5 54.3 C 53.49 54.32 53.5 47.8 53.5 47.8 L 54.6 47.8 C 54.6 47.8 54.61 54.25 54.6 54.3 C 54.6 55.7 55.5 56.3 56.8 56.3 C 58.4 56.3 59.5 55.2 59.5 53.6 C 59.51 53.57 59.5 47.8 59.5 47.8 L 60.6 47.8 L 60.6 57.1 L 59.5 57.1 L 59.5 55.7 C 59.5 55.7 59.47 55.69 59.5 55.7 C 58.8 56.6 58 57.3 56.6 57.3 C 54.8 57.3 53.5 56.2 53.5 54.3 Z M 62.5 47.8 L 63.6 47.8 L 63.6 49.2 C 63.6 49.2 63.63 49.18 63.6 49.2 C 64.3 48.2 65.3 47.6 66.7 47.6 C 68.5 47.6 69.7 48.6 69.7 50.5 C 69.71 50.45 69.7 57.1 69.7 57.1 L 68.6 57.1 C 68.6 57.1 68.6 50.56 68.6 50.6 C 68.6 49.2 67.8 48.5 66.5 48.5 C 64.9 48.5 63.6 49.6 63.6 51.2 C 63.59 51.16 63.6 57.1 63.6 57.1 L 62.5 57.1 L 62.5 47.8 Z M 70.9 54.2 C 70.9 54.2 72.1 54.2 72.1 54.2 C 72.2 55.7 73.3 56.4 74.8 56.4 C 76.3 56.4 77.1 55.6 77.1 54.6 C 77.1 53.5 76.6 53.2 74.7 52.8 C 72.8 52.3 71.3 51.9 71.3 50.1 C 71.3 48.5 72.6 47.6 74.5 47.6 C 76.7 47.6 77.7 48.7 78 50.3 C 78 50.3 76.8 50.3 76.8 50.3 C 76.7 49.1 75.9 48.5 74.5 48.5 C 73.1 48.5 72.4 49.2 72.4 50 C 72.4 51.1 73.3 51.3 75 51.7 C 76.9 52.1 78.3 52.6 78.3 54.5 C 78.3 56.2 76.9 57.3 74.8 57.3 C 72.3 57.3 71 56 70.9 54.2 Z M 79.5 58.4 C 79.8 58.2 80.1 58 80.1 57.1 C 80.06 57.13 80.1 57.1 80.1 57.1 L 79.5 57.1 L 79.5 55.5 L 80.8 55.5 C 80.8 55.5 80.82 57.11 80.8 57.1 C 80.8 58.3 80.3 58.8 79.5 59 C 79.5 59 79.5 58.4 79.5 58.4 Z M 84.5 47.8 L 85.6 47.8 C 85.6 47.8 87.24 53.51 87.2 53.5 C 87.5 54.43 87.8 55.9 87.8 55.9 L 87.9 55.9 C 87.9 55.9 88.23 54.45 88.5 53.6 C 88.47 53.6 90.1 47.8 90.1 47.8 L 91.3 47.8 C 91.3 47.8 92.79 53.6 92.8 53.6 C 93 54.45 93.3 55.9 93.3 55.9 L 93.4 55.9 C 93.4 55.9 93.76 54.41 94 53.5 C 94.03 53.51 95.8 47.8 95.8 47.8 L 96.9 47.8 L 94 57.1 L 92.7 57.1 C 92.7 57.1 91.13 51.12 91.1 51.1 C 90.9 50.24 90.6 49 90.6 49 L 90.6 49 C 90.6 49 90.36 50.24 90.1 51.1 C 90.12 51.12 88.5 57.1 88.5 57.1 L 87.2 57.1 L 84.5 47.8 Z M 98 47.8 L 99.2 47.8 L 99.2 57.1 L 98 57.1 L 98 47.8 Z M 98 44.2 L 99.2 44.2 L 99.2 45.8 L 98 45.8 L 98 44.2 Z M 101.8 55.5 C 101.82 55.46 101.8 48.7 101.8 48.7 L 100.4 48.7 L 100.4 47.8 L 101.8 47.8 L 101.8 44.9 L 102.9 44.9 L 102.9 47.8 L 104.7 47.8 L 104.7 48.7 L 102.9 48.7 C 102.9 48.7 102.94 55.28 102.9 55.3 C 102.9 55.9 103.2 56.2 103.8 56.2 C 104.1 56.2 104.4 56.1 104.6 56 C 104.58 56.02 104.6 56 104.6 56 C 104.6 56 104.63 56.97 104.6 57 C 104.3 57.1 104 57.1 103.6 57.1 C 102.5 57.1 101.8 56.6 101.8 55.5 Z M 106.2 44.2 L 107.3 44.2 L 107.3 49.2 C 107.3 49.2 107.33 49.18 107.3 49.2 C 108 48.2 109 47.6 110.4 47.6 C 112.2 47.6 113.4 48.6 113.4 50.5 C 113.42 50.45 113.4 57.1 113.4 57.1 L 112.3 57.1 C 112.3 57.1 112.3 50.56 112.3 50.6 C 112.3 49.2 111.5 48.5 110.2 48.5 C 108.6 48.5 107.3 49.6 107.3 51.2 C 107.3 51.16 107.3 57.1 107.3 57.1 L 106.2 57.1 L 106.2 44.2 Z M 117.4 52.4 C 117.4 49.6 119.1 47.5 121.7 47.5 C 124.7 47.5 125.7 50 125.7 52.6 C 125.7 52.6 118.6 52.6 118.6 52.6 C 118.6 54.7 119.6 56.3 121.8 56.3 C 123.3 56.3 124.1 55.5 124.5 54.3 C 124.5 54.3 125.6 54.3 125.6 54.3 C 125.2 56.1 123.9 57.3 121.8 57.3 C 119 57.3 117.4 55.2 117.4 52.4 Z M 124.5 51.7 C 124.4 49.9 123.6 48.5 121.7 48.5 C 119.8 48.5 118.8 49.9 118.6 51.7 C 118.6 51.7 124.5 51.7 124.5 51.7 Z M 126.5 54.7 C 126.5 52.5 128.3 52 130.4 51.8 C 132.2 51.6 132.9 51.4 132.9 50.5 C 132.9 50.5 132.9 50.3 132.9 50.3 C 132.9 49.1 132.1 48.5 130.6 48.5 C 129 48.5 128.1 49.1 128 50.5 C 128 50.5 126.9 50.5 126.9 50.5 C 127.1 48.7 128.2 47.6 130.6 47.6 C 132.7 47.6 133.9 48.4 133.9 50.4 C 133.9 50.4 133.9 55.5 133.9 55.5 C 133.9 56.1 134.2 56.3 134.5 56.3 C 134.7 56.3 134.8 56.3 135 56.2 C 134.96 56.23 135 56.2 135 56.2 C 135 56.2 135.02 57.04 135 57 C 134.9 57.1 134.6 57.2 134.3 57.2 C 133.4 57.2 132.9 56.8 132.9 55.9 C 132.89 55.87 132.9 55.7 132.9 55.7 C 132.9 55.7 132.84 55.67 132.8 55.7 C 132.3 56.4 131.4 57.3 129.6 57.3 C 127.9 57.3 126.5 56.4 126.5 54.7 Z M 132.9 53.7 C 132.9 53.7 132.9 52 132.9 52 C 132.3 52.3 131.4 52.5 130.5 52.6 C 128.9 52.8 127.7 53.1 127.7 54.7 C 127.7 56 128.7 56.4 129.8 56.4 C 131.8 56.4 132.9 55 132.9 53.7 Z M 135.4 54.2 C 135.4 54.2 136.5 54.2 136.5 54.2 C 136.7 55.7 137.7 56.4 139.2 56.4 C 140.8 56.4 141.6 55.6 141.6 54.6 C 141.6 53.5 141 53.2 139.1 52.8 C 137.2 52.3 135.7 51.9 135.7 50.1 C 135.7 48.5 137 47.6 138.9 47.6 C 141.2 47.6 142.2 48.7 142.4 50.3 C 142.4 50.3 141.3 50.3 141.3 50.3 C 141.2 49.1 140.3 48.5 138.9 48.5 C 137.5 48.5 136.8 49.2 136.8 50 C 136.8 51.1 137.7 51.3 139.5 51.7 C 141.4 52.1 142.7 52.6 142.7 54.5 C 142.7 56.2 141.4 57.3 139.2 57.3 C 136.7 57.3 135.5 56 135.4 54.2 Z M 143.9 60 C 143.91 59.99 143.9 59 143.9 59 C 143.9 59 143.96 59 144 59 C 144.1 59.1 144.4 59.1 144.8 59.1 C 145.5 59.1 146 58.8 146.4 57.9 C 146.36 57.87 146.7 57 146.7 57 L 143.1 47.8 L 144.3 47.8 C 144.3 47.8 146.5 53.77 146.5 53.8 C 146.82 54.63 147.2 55.9 147.2 55.9 L 147.3 55.9 C 147.3 55.9 147.67 54.63 148 53.8 C 147.98 53.77 150.1 47.8 150.1 47.8 L 151.3 47.8 C 151.3 47.8 147.44 58.03 147.4 58 C 146.8 59.7 146.1 60.1 144.9 60.1 C 144.4 60.1 144.2 60.1 143.9 60 Z M 155.8 55.5 C 155.81 55.46 155.8 48.7 155.8 48.7 L 154.4 48.7 L 154.4 47.8 L 155.8 47.8 L 155.8 44.9 L 156.9 44.9 L 156.9 47.8 L 158.6 47.8 L 158.6 48.7 L 156.9 48.7 C 156.9 48.7 156.92 55.28 156.9 55.3 C 156.9 55.9 157.2 56.2 157.8 56.2 C 158.1 56.2 158.4 56.1 158.6 56 C 158.56 56.02 158.6 56 158.6 56 C 158.6 56 158.61 56.97 158.6 57 C 158.3 57.1 158 57.1 157.6 57.1 C 156.5 57.1 155.8 56.6 155.8 55.5 Z M 166.9 52.4 C 166.9 50.2 165.8 48.5 163.8 48.5 C 161.7 48.5 160.6 50.2 160.6 52.4 C 160.6 54.6 161.7 56.4 163.8 56.4 C 165.8 56.4 166.9 54.6 166.9 52.4 Z M 159.4 52.4 C 159.4 49.6 161.1 47.5 163.8 47.5 C 166.4 47.5 168 49.6 168 52.4 C 168 55.2 166.4 57.3 163.8 57.3 C 161.1 57.3 159.4 55.2 159.4 52.4 Z M 172.2 44.2 L 173.3 44.2 L 173.3 57.1 L 172.2 57.1 L 172.2 44.2 Z M 174.8 52.4 C 174.8 49.6 176.4 47.5 179 47.5 C 182 47.5 183 50 183 52.6 C 183 52.6 175.9 52.6 175.9 52.6 C 176 54.7 177 56.3 179.1 56.3 C 180.6 56.3 181.5 55.5 181.8 54.3 C 181.8 54.3 182.9 54.3 182.9 54.3 C 182.5 56.1 181.2 57.3 179.1 57.3 C 176.3 57.3 174.8 55.2 174.8 52.4 Z M 181.8 51.7 C 181.8 49.9 180.9 48.5 179 48.5 C 177.1 48.5 176.1 49.9 175.9 51.7 C 175.9 51.7 181.8 51.7 181.8 51.7 Z M 183.9 54.7 C 183.9 52.5 185.6 52 187.7 51.8 C 189.5 51.6 190.2 51.4 190.2 50.5 C 190.2 50.5 190.2 50.3 190.2 50.3 C 190.2 49.1 189.4 48.5 188 48.5 C 186.3 48.5 185.5 49.1 185.4 50.5 C 185.4 50.5 184.3 50.5 184.3 50.5 C 184.4 48.7 185.6 47.6 188 47.6 C 190 47.6 191.3 48.4 191.3 50.4 C 191.3 50.4 191.3 55.5 191.3 55.5 C 191.3 56.1 191.5 56.3 191.9 56.3 C 192 56.3 192.1 56.3 192.3 56.2 C 192.29 56.23 192.3 56.2 192.3 56.2 C 192.3 56.2 192.35 57.04 192.3 57 C 192.2 57.1 191.9 57.2 191.6 57.2 C 190.8 57.2 190.3 56.8 190.2 55.9 C 190.22 55.87 190.2 55.7 190.2 55.7 C 190.2 55.7 190.17 55.67 190.2 55.7 C 189.6 56.4 188.7 57.3 186.9 57.3 C 185.2 57.3 183.9 56.4 183.9 54.7 Z M 190.2 53.7 C 190.2 53.7 190.2 52 190.2 52 C 189.6 52.3 188.7 52.5 187.8 52.6 C 186.2 52.8 185 53.1 185 54.7 C 185 56 186 56.4 187.1 56.4 C 189.1 56.4 190.2 55 190.2 53.7 Z M 193.4 47.8 L 194.5 47.8 L 194.5 49.5 C 194.5 49.5 194.52 49.48 194.5 49.5 C 195.1 48.4 196.1 47.7 197.4 47.7 C 197.5 47.7 197.6 47.7 197.7 47.7 C 197.7 47.7 197.7 48.8 197.7 48.8 C 197 48.7 196.3 48.9 195.7 49.3 C 195 49.8 194.5 50.7 194.5 51.8 C 194.49 51.77 194.5 57.1 194.5 57.1 L 193.4 57.1 L 193.4 47.8 Z M 198.9 47.8 L 200 47.8 L 200 49.2 C 200 49.2 200.07 49.18 200.1 49.2 C 200.7 48.2 201.7 47.6 203.2 47.6 C 204.9 47.6 206.2 48.6 206.2 50.5 C 206.15 50.45 206.2 57.1 206.2 57.1 L 205 57.1 C 205 57.1 205.03 50.56 205 50.6 C 205 49.2 204.2 48.5 202.9 48.5 C 201.3 48.5 200 49.6 200 51.2 C 200.03 51.16 200 57.1 200 57.1 L 198.9 57.1 L 198.9 47.8 Z M 210.1 54.7 C 210.1 52.5 211.9 52 214 51.8 C 215.8 51.6 216.5 51.4 216.5 50.5 C 216.5 50.5 216.5 50.3 216.5 50.3 C 216.5 49.1 215.7 48.5 214.2 48.5 C 212.6 48.5 211.7 49.1 211.6 50.5 C 211.6 50.5 210.5 50.5 210.5 50.5 C 210.7 48.7 211.8 47.6 214.2 47.6 C 216.3 47.6 217.5 48.4 217.5 50.4 C 217.5 50.4 217.5 55.5 217.5 55.5 C 217.5 56.1 217.7 56.3 218.1 56.3 C 218.3 56.3 218.4 56.3 218.6 56.2 C 218.55 56.23 218.6 56.2 218.6 56.2 C 218.6 56.2 218.61 57.04 218.6 57 C 218.4 57.1 218.2 57.2 217.9 57.2 C 217 57.2 216.5 56.8 216.5 55.9 C 216.48 55.87 216.5 55.7 216.5 55.7 C 216.5 55.7 216.43 55.67 216.4 55.7 C 215.9 56.4 215 57.3 213.2 57.3 C 211.4 57.3 210.1 56.4 210.1 54.7 Z M 216.5 53.7 C 216.5 53.7 216.5 52 216.5 52 C 215.9 52.3 215 52.5 214.1 52.6 C 212.5 52.8 211.3 53.1 211.3 54.7 C 211.3 56 212.3 56.4 213.4 56.4 C 215.4 56.4 216.5 55 216.5 53.7 Z M 219.6 47.8 L 220.7 47.8 L 220.7 49.2 C 220.7 49.2 220.78 49.18 220.8 49.2 C 221.4 48.2 222.4 47.6 223.9 47.6 C 225.6 47.6 226.9 48.6 226.9 50.5 C 226.87 50.45 226.9 57.1 226.9 57.1 L 225.8 57.1 C 225.8 57.1 225.75 50.56 225.8 50.6 C 225.8 49.2 224.9 48.5 223.6 48.5 C 222 48.5 220.7 49.6 220.7 51.2 C 220.75 51.16 220.7 57.1 220.7 57.1 L 219.6 57.1 L 219.6 47.8 Z M 228.2 52.4 C 228.2 49.3 229.9 47.6 232.2 47.6 C 233.6 47.6 234.6 48.2 235.2 49.3 C 235.22 49.3 235.3 49.3 235.3 49.3 L 235.3 44.2 L 236.4 44.2 L 236.4 57.1 L 235.3 57.1 L 235.3 55.7 C 235.3 55.7 235.22 55.67 235.2 55.7 C 234.5 56.7 233.6 57.3 232.2 57.3 C 229.7 57.3 228.2 55.3 228.2 52.4 Z M 235.3 52.5 C 235.3 50.2 234.2 48.5 232.2 48.5 C 230.4 48.5 229.3 50.1 229.3 52.5 C 229.3 54.6 230.3 56.4 232.2 56.4 C 234.3 56.4 235.3 54.8 235.3 52.5 Z M 240.4 54.2 C 240.4 54.2 241.5 54.2 241.5 54.2 C 241.6 55.7 242.7 56.4 244.2 56.4 C 245.8 56.4 246.6 55.6 246.6 54.6 C 246.6 53.5 246 53.2 244.1 52.8 C 242.2 52.3 240.7 51.9 240.7 50.1 C 240.7 48.5 242 47.6 243.9 47.6 C 246.1 47.6 247.2 48.7 247.4 50.3 C 247.4 50.3 246.3 50.3 246.3 50.3 C 246.1 49.1 245.3 48.5 243.9 48.5 C 242.5 48.5 241.8 49.2 241.8 50 C 241.8 51.1 242.7 51.3 244.5 51.7 C 246.3 52.1 247.7 52.6 247.7 54.5 C 247.7 56.2 246.4 57.3 244.2 57.3 C 241.7 57.3 240.5 56 240.4 54.2 Z M 248.6 54.7 C 248.6 52.5 250.4 52 252.5 51.8 C 254.3 51.6 255 51.4 255 50.5 C 255 50.5 255 50.3 255 50.3 C 255 49.1 254.2 48.5 252.7 48.5 C 251.1 48.5 250.2 49.1 250.1 50.5 C 250.1 50.5 249 50.5 249 50.5 C 249.2 48.7 250.3 47.6 252.7 47.6 C 254.8 47.6 256 48.4 256 50.4 C 256 50.4 256 55.5 256 55.5 C 256 56.1 256.2 56.3 256.6 56.3 C 256.8 56.3 256.9 56.3 257.1 56.2 C 257.05 56.23 257.1 56.2 257.1 56.2 C 257.1 56.2 257.11 57.04 257.1 57 C 256.9 57.1 256.7 57.2 256.4 57.2 C 255.5 57.2 255 56.8 255 55.9 C 254.98 55.87 255 55.7 255 55.7 C 255 55.7 254.93 55.67 254.9 55.7 C 254.4 56.4 253.5 57.3 251.7 57.3 C 249.9 57.3 248.6 56.4 248.6 54.7 Z M 255 53.7 C 255 53.7 255 52 255 52 C 254.4 52.3 253.5 52.5 252.6 52.6 C 251 52.8 249.8 53.1 249.8 54.7 C 249.8 56 250.8 56.4 251.9 56.4 C 253.9 56.4 255 55 255 53.7 Z M 258.7 48.7 L 257.3 48.7 L 257.3 47.8 L 258.7 47.8 C 258.7 47.8 258.66 46.1 258.7 46.1 C 258.7 44.7 259.4 44.1 260.8 44.1 C 261 44.1 261.4 44.1 261.5 44.1 C 261.46 44.12 261.5 45.1 261.5 45.1 C 261.5 45.1 260.98 45.07 261 45.1 C 260 45.1 259.8 45.4 259.8 46.1 C 259.75 46.13 259.8 47.8 259.8 47.8 L 261.5 47.8 L 261.5 48.7 L 259.8 48.7 L 259.8 57.1 L 258.7 57.1 L 258.7 48.7 Z M 261.9 52.4 C 261.9 49.6 263.5 47.5 266.1 47.5 C 269.1 47.5 270.1 50 270.1 52.6 C 270.1 52.6 263 52.6 263 52.6 C 263.1 54.7 264.1 56.3 266.2 56.3 C 267.7 56.3 268.6 55.5 268.9 54.3 C 268.9 54.3 270 54.3 270 54.3 C 269.6 56.1 268.3 57.3 266.2 57.3 C 263.4 57.3 261.9 55.2 261.9 52.4 Z M 268.9 51.7 C 268.9 49.9 268 48.5 266.1 48.5 C 264.2 48.5 263.2 49.9 263 51.7 C 263 51.7 268.9 51.7 268.9 51.7 Z " stroke="none" fill="#000"/>  </g>  <g id="Polygon9294">    <path d="M 0.9 26.2 L 2.1 26.2 L 2.1 27.9 C 2.1 27.9 2.09 27.88 2.1 27.9 C 2.7 26.8 3.6 26.1 4.9 26.1 C 5.1 26.1 5.2 26.1 5.2 26.1 C 5.2 26.1 5.2 27.2 5.2 27.2 C 4.6 27.1 3.8 27.3 3.3 27.7 C 2.5 28.2 2.1 29.1 2.1 30.2 C 2.05 30.17 2.1 35.5 2.1 35.5 L 0.9 35.5 L 0.9 26.2 Z M 5.5 30.8 C 5.5 28 7.2 25.9 9.8 25.9 C 12.8 25.9 13.8 28.4 13.8 31 C 13.8 31 6.7 31 6.7 31 C 6.8 33.1 7.8 34.7 9.9 34.7 C 11.4 34.7 12.2 33.9 12.6 32.7 C 12.6 32.7 13.7 32.7 13.7 32.7 C 13.3 34.5 12 35.7 9.9 35.7 C 7.1 35.7 5.5 33.6 5.5 30.8 Z M 12.6 30.1 C 12.6 28.3 11.7 26.9 9.8 26.9 C 7.9 26.9 6.9 28.3 6.7 30.1 C 6.7 30.1 12.6 30.1 12.6 30.1 Z M 15.2 26.2 L 16.3 26.2 L 16.3 27.6 C 16.3 27.6 16.33 27.56 16.3 27.6 C 16.9 26.6 17.8 26 19.2 26 C 20.3 26 21.3 26.5 21.6 27.6 C 21.6 27.6 21.7 27.6 21.7 27.6 C 22.3 26.6 23.3 26 24.7 26 C 26.2 26 27.5 27 27.5 28.9 C 27.47 28.85 27.5 35.5 27.5 35.5 L 26.4 35.5 C 26.4 35.5 26.37 28.94 26.4 28.9 C 26.4 27.6 25.5 26.9 24.4 26.9 C 23 26.9 21.9 27.9 21.9 29.5 C 21.89 29.54 21.9 35.5 21.9 35.5 L 20.8 35.5 C 20.8 35.5 20.77 28.94 20.8 28.9 C 20.8 27.6 20 26.9 18.9 26.9 C 17.6 26.9 16.3 28 16.3 29.5 C 16.29 29.54 16.3 35.5 16.3 35.5 L 15.2 35.5 L 15.2 26.2 Z M 36.3 30.8 C 36.3 28.6 35.2 26.9 33.1 26.9 C 31 26.9 30 28.6 30 30.8 C 30 33 31 34.8 33.1 34.8 C 35.2 34.8 36.3 33 36.3 30.8 Z M 28.8 30.8 C 28.8 28 30.4 25.9 33.1 25.9 C 35.8 25.9 37.4 28 37.4 30.8 C 37.4 33.6 35.8 35.7 33.1 35.7 C 30.4 35.7 28.8 33.6 28.8 30.8 Z M 37.7 26.2 L 38.9 26.2 C 38.9 26.2 40.9 32.06 40.9 32.1 C 41.2 32.96 41.7 34.4 41.7 34.4 L 41.7 34.4 C 41.7 34.4 42.16 32.96 42.5 32.1 C 42.46 32.06 44.5 26.2 44.5 26.2 L 45.7 26.2 L 42.3 35.5 L 41 35.5 L 37.7 26.2 Z M 46 30.8 C 46 28 47.7 25.9 50.2 25.9 C 53.2 25.9 54.3 28.4 54.2 31 C 54.2 31 47.1 31 47.1 31 C 47.2 33.1 48.2 34.7 50.3 34.7 C 51.9 34.7 52.7 33.9 53 32.7 C 53 32.7 54.1 32.7 54.1 32.7 C 53.7 34.5 52.4 35.7 50.3 35.7 C 47.5 35.7 46 33.6 46 30.8 Z M 53.1 30.1 C 53 28.3 52.1 26.9 50.2 26.9 C 48.3 26.9 47.4 28.3 47.2 30.1 C 47.2 30.1 53.1 30.1 53.1 30.1 Z M 55.1 30.8 C 55.1 27.7 56.9 26 59.1 26 C 60.5 26 61.6 26.6 62.2 27.7 C 62.17 27.7 62.2 27.7 62.2 27.7 L 62.2 22.6 L 63.3 22.6 L 63.3 35.5 L 62.2 35.5 L 62.2 34.1 C 62.2 34.1 62.17 34.07 62.2 34.1 C 61.5 35.1 60.6 35.7 59.1 35.7 C 56.6 35.7 55.1 33.7 55.1 30.8 Z M 62.3 30.9 C 62.3 28.6 61.2 26.9 59.2 26.9 C 57.3 26.9 56.3 28.5 56.3 30.9 C 56.3 33 57.2 34.8 59.2 34.8 C 61.2 34.8 62.3 33.2 62.3 30.9 Z M 68.6 27.1 L 67.2 27.1 L 67.2 26.2 L 68.6 26.2 C 68.6 26.2 68.6 24.5 68.6 24.5 C 68.6 23.1 69.4 22.5 70.8 22.5 C 70.9 22.5 71.3 22.5 71.4 22.5 C 71.41 22.52 71.4 23.5 71.4 23.5 C 71.4 23.5 70.92 23.47 70.9 23.5 C 70 23.5 69.7 23.8 69.7 24.5 C 69.7 24.53 69.7 26.2 69.7 26.2 L 71.4 26.2 L 71.4 27.1 L 69.7 27.1 L 69.7 35.5 L 68.6 35.5 L 68.6 27.1 Z M 72.7 26.2 L 73.9 26.2 L 73.9 27.9 C 73.9 27.9 73.89 27.88 73.9 27.9 C 74.5 26.8 75.4 26.1 76.7 26.1 C 76.9 26.1 77 26.1 77 26.1 C 77 26.1 77 27.2 77 27.2 C 76.4 27.1 75.6 27.3 75.1 27.7 C 74.3 28.2 73.9 29.1 73.9 30.2 C 73.85 30.17 73.9 35.5 73.9 35.5 L 72.7 35.5 L 72.7 26.2 Z M 84.8 30.8 C 84.8 28.6 83.7 26.9 81.7 26.9 C 79.6 26.9 78.5 28.6 78.5 30.8 C 78.5 33 79.6 34.8 81.7 34.8 C 83.7 34.8 84.8 33 84.8 30.8 Z M 77.3 30.8 C 77.3 28 79 25.9 81.7 25.9 C 84.3 25.9 85.9 28 85.9 30.8 C 85.9 33.6 84.3 35.7 81.7 35.7 C 79 35.7 77.3 33.6 77.3 30.8 Z M 87.4 26.2 L 88.5 26.2 L 88.5 27.6 C 88.5 27.6 88.51 27.56 88.5 27.6 C 89.1 26.6 90 26 91.3 26 C 92.5 26 93.4 26.5 93.8 27.6 C 93.8 27.6 93.9 27.6 93.9 27.6 C 94.5 26.6 95.5 26 96.8 26 C 98.4 26 99.6 27 99.6 28.9 C 99.65 28.85 99.6 35.5 99.6 35.5 L 98.5 35.5 C 98.5 35.5 98.55 28.94 98.5 28.9 C 98.5 27.6 97.7 26.9 96.6 26.9 C 95.2 26.9 94.1 27.9 94.1 29.5 C 94.07 29.54 94.1 35.5 94.1 35.5 L 93 35.5 C 93 35.5 92.95 28.94 93 28.9 C 93 27.6 92.2 26.9 91.1 26.9 C 89.7 26.9 88.5 28 88.5 29.5 C 88.47 29.54 88.5 35.5 88.5 35.5 L 87.4 35.5 L 87.4 26.2 Z M 104.9 33.9 C 104.94 33.86 104.9 27.1 104.9 27.1 L 103.5 27.1 L 103.5 26.2 L 104.9 26.2 L 104.9 23.3 L 106.1 23.3 L 106.1 26.2 L 107.8 26.2 L 107.8 27.1 L 106.1 27.1 C 106.1 27.1 106.06 33.68 106.1 33.7 C 106.1 34.3 106.4 34.6 107 34.6 C 107.2 34.6 107.5 34.5 107.7 34.4 C 107.69 34.42 107.7 34.4 107.7 34.4 C 107.7 34.4 107.75 35.37 107.7 35.4 C 107.4 35.5 107.1 35.5 106.7 35.5 C 105.7 35.5 104.9 35 104.9 33.9 Z M 109.3 22.6 L 110.4 22.6 L 110.4 27.6 C 110.4 27.6 110.45 27.58 110.4 27.6 C 111.1 26.6 112.1 26 113.6 26 C 115.3 26 116.5 27 116.5 28.9 C 116.53 28.85 116.5 35.5 116.5 35.5 L 115.4 35.5 C 115.4 35.5 115.42 28.96 115.4 29 C 115.4 27.6 114.6 26.9 113.3 26.9 C 111.7 26.9 110.4 28 110.4 29.6 C 110.41 29.56 110.4 35.5 110.4 35.5 L 109.3 35.5 L 109.3 22.6 Z M 117.8 30.8 C 117.8 28 119.5 25.9 122.1 25.9 C 125.1 25.9 126.1 28.4 126.1 31 C 126.1 31 119 31 119 31 C 119.1 33.1 120.1 34.7 122.2 34.7 C 123.7 34.7 124.5 33.9 124.9 32.7 C 124.9 32.7 126 32.7 126 32.7 C 125.6 34.5 124.3 35.7 122.2 35.7 C 119.4 35.7 117.8 33.6 117.8 30.8 Z M 124.9 30.1 C 124.9 28.3 124 26.9 122.1 26.9 C 120.2 26.9 119.2 28.3 119 30.1 C 119 30.1 124.9 30.1 124.9 30.1 Z M 130.9 33.9 C 130.95 33.86 130.9 27.1 130.9 27.1 L 129.5 27.1 L 129.5 26.2 L 130.9 26.2 L 130.9 23.3 L 132.1 23.3 L 132.1 26.2 L 133.8 26.2 L 133.8 27.1 L 132.1 27.1 C 132.1 27.1 132.06 33.68 132.1 33.7 C 132.1 34.3 132.4 34.6 133 34.6 C 133.2 34.6 133.5 34.5 133.7 34.4 C 133.7 34.42 133.8 34.4 133.8 34.4 C 133.8 34.4 133.76 35.37 133.8 35.4 C 133.5 35.5 133.1 35.5 132.7 35.5 C 131.7 35.5 130.9 35 130.9 33.9 Z M 135.3 26.2 L 136.4 26.2 L 136.4 27.9 C 136.4 27.9 136.4 27.88 136.4 27.9 C 137 26.8 138 26.1 139.2 26.1 C 139.4 26.1 139.5 26.1 139.6 26.1 C 139.6 26.1 139.6 27.2 139.6 27.2 C 138.9 27.1 138.1 27.3 137.6 27.7 C 136.9 28.2 136.4 29.1 136.4 30.2 C 136.37 30.17 136.4 35.5 136.4 35.5 L 135.3 35.5 L 135.3 26.2 Z M 139.8 33.1 C 139.8 30.9 141.6 30.4 143.7 30.2 C 145.5 30 146.2 29.8 146.2 28.9 C 146.2 28.9 146.2 28.7 146.2 28.7 C 146.2 27.5 145.4 26.9 143.9 26.9 C 142.3 26.9 141.4 27.5 141.3 28.9 C 141.3 28.9 140.2 28.9 140.2 28.9 C 140.3 27.1 141.5 26 143.9 26 C 146 26 147.2 26.8 147.2 28.8 C 147.2 28.8 147.2 33.9 147.2 33.9 C 147.2 34.5 147.4 34.7 147.8 34.7 C 148 34.7 148.1 34.7 148.2 34.6 C 148.25 34.63 148.3 34.6 148.3 34.6 C 148.3 34.6 148.3 35.44 148.3 35.4 C 148.1 35.5 147.9 35.6 147.5 35.6 C 146.7 35.6 146.2 35.2 146.2 34.3 C 146.18 34.27 146.2 34.1 146.2 34.1 C 146.2 34.1 146.12 34.07 146.1 34.1 C 145.6 34.8 144.6 35.7 142.9 35.7 C 141.1 35.7 139.8 34.8 139.8 33.1 Z M 146.2 32.1 C 146.2 32.1 146.2 30.4 146.2 30.4 C 145.6 30.7 144.7 30.9 143.8 31 C 142.2 31.2 141 31.5 141 33.1 C 141 34.4 142 34.8 143.1 34.8 C 145.1 34.8 146.2 33.4 146.2 32.1 Z M 148.8 30.8 C 148.8 27.7 150.5 26 152.7 26 C 154.2 26 155.2 26.6 155.8 27.7 C 155.79 27.7 155.8 27.7 155.8 27.7 L 155.8 22.6 L 156.9 22.6 L 156.9 35.5 L 155.8 35.5 L 155.8 34.1 C 155.8 34.1 155.79 34.07 155.8 34.1 C 155.1 35.1 154.2 35.7 152.8 35.7 C 150.3 35.7 148.8 33.7 148.8 30.8 Z M 155.9 30.9 C 155.9 28.6 154.8 26.9 152.8 26.9 C 151 26.9 149.9 28.5 149.9 30.9 C 149.9 33 150.8 34.8 152.8 34.8 C 154.8 34.8 155.9 33.2 155.9 30.9 Z M 158.8 26.2 L 160 26.2 L 160 35.5 L 158.8 35.5 L 158.8 26.2 Z M 158.8 22.6 L 160 22.6 L 160 24.2 L 158.8 24.2 L 158.8 22.6 Z M 162.6 33.9 C 162.63 33.86 162.6 27.1 162.6 27.1 L 161.2 27.1 L 161.2 26.2 L 162.6 26.2 L 162.6 23.3 L 163.7 23.3 L 163.7 26.2 L 165.5 26.2 L 165.5 27.1 L 163.7 27.1 C 163.7 27.1 163.74 33.68 163.7 33.7 C 163.7 34.3 164.1 34.6 164.6 34.6 C 164.9 34.6 165.2 34.5 165.4 34.4 C 165.38 34.42 165.4 34.4 165.4 34.4 C 165.4 34.4 165.44 35.37 165.4 35.4 C 165.1 35.5 164.8 35.5 164.4 35.5 C 163.3 35.5 162.6 35 162.6 33.9 Z M 167 26.2 L 168.1 26.2 L 168.1 35.5 L 167 35.5 L 167 26.2 Z M 167 22.6 L 168.1 22.6 L 168.1 24.2 L 167 24.2 L 167 22.6 Z M 177 30.8 C 177 28.6 175.9 26.9 173.8 26.9 C 171.7 26.9 170.6 28.6 170.6 30.8 C 170.6 33 171.7 34.8 173.8 34.8 C 175.9 34.8 177 33 177 30.8 Z M 169.5 30.8 C 169.5 28 171.1 25.9 173.8 25.9 C 176.5 25.9 178.1 28 178.1 30.8 C 178.1 33.6 176.5 35.7 173.8 35.7 C 171.1 35.7 169.5 33.6 169.5 30.8 Z M 179.5 26.2 L 180.6 26.2 L 180.6 27.6 C 180.6 27.6 180.65 27.58 180.6 27.6 C 181.3 26.6 182.3 26 183.8 26 C 185.5 26 186.7 27 186.7 28.9 C 186.73 28.85 186.7 35.5 186.7 35.5 L 185.6 35.5 C 185.6 35.5 185.61 28.96 185.6 29 C 185.6 27.6 184.8 26.9 183.5 26.9 C 181.9 26.9 180.6 28 180.6 29.6 C 180.61 29.56 180.6 35.5 180.6 35.5 L 179.5 35.5 L 179.5 26.2 Z M 191.1 36.3 C 191.1 36.3 192.2 36.3 192.2 36.3 C 192.4 37.4 193.5 37.8 194.8 37.8 C 196.8 37.8 197.7 36.8 197.7 35.1 C 197.75 35.14 197.7 33.7 197.7 33.7 C 197.7 33.7 197.69 33.66 197.7 33.7 C 197 34.7 196.1 35.3 194.7 35.3 C 192.3 35.3 190.7 33.4 190.7 30.6 C 190.7 27.6 192.6 26 194.7 26 C 196.2 26 197.1 26.6 197.7 27.6 C 197.69 27.59 197.7 27.6 197.7 27.6 L 197.7 26.2 L 198.8 26.2 C 198.8 26.2 198.84 35.1 198.8 35.1 C 198.8 36.1 198.5 37 198 37.6 C 197.3 38.3 196.3 38.7 194.9 38.7 C 192.6 38.7 191.3 37.7 191.1 36.3 Z M 197.8 30.6 C 197.8 28.4 196.8 26.9 194.8 26.9 C 193 26.9 191.9 28.4 191.9 30.7 C 191.9 32.8 192.8 34.3 194.8 34.3 C 196.9 34.3 197.8 32.8 197.8 30.6 Z M 200.6 32.7 C 200.64 32.72 200.6 26.2 200.6 26.2 L 201.8 26.2 C 201.8 26.2 201.76 32.65 201.8 32.7 C 201.8 34.1 202.6 34.7 204 34.7 C 205.5 34.7 206.7 33.6 206.7 32 C 206.66 31.97 206.7 26.2 206.7 26.2 L 207.8 26.2 L 207.8 35.5 L 206.7 35.5 L 206.7 34.1 C 206.7 34.1 206.62 34.09 206.6 34.1 C 206 35 205.2 35.7 203.7 35.7 C 201.9 35.7 200.6 34.6 200.6 32.7 Z M 209.6 26.2 L 210.7 26.2 L 210.7 27.6 C 210.7 27.6 210.78 27.58 210.8 27.6 C 211.4 26.6 212.4 26 213.9 26 C 215.6 26 216.9 27 216.9 28.9 C 216.86 28.85 216.9 35.5 216.9 35.5 L 215.7 35.5 C 215.7 35.5 215.75 28.96 215.7 29 C 215.7 27.6 214.9 26.9 213.6 26.9 C 212 26.9 210.7 28 210.7 29.6 C 210.74 29.56 210.7 35.5 210.7 35.5 L 209.6 35.5 L 209.6 26.2 Z M 218.4 29.9 L 223 29.9 L 223 30.9 L 218.4 30.9 L 218.4 29.9 Z M 224.6 22.6 L 225.7 22.6 L 225.7 35.5 L 224.6 35.5 L 224.6 22.6 Z M 227.7 26.2 L 228.8 26.2 L 228.8 35.5 L 227.7 35.5 L 227.7 26.2 Z M 227.7 22.6 L 228.8 22.6 L 228.8 24.2 L 227.7 24.2 L 227.7 22.6 Z M 230.7 22.6 L 231.8 22.6 L 231.8 30.6 L 236.4 26.2 L 237.8 26.2 L 234.3 29.5 L 238.3 35.5 L 237 35.5 L 233.5 30.2 L 231.8 31.9 L 231.8 35.5 L 230.7 35.5 L 230.7 22.6 Z M 238.1 30.8 C 238.1 28 239.8 25.9 242.4 25.9 C 245.4 25.9 246.4 28.4 246.4 31 C 246.4 31 239.3 31 239.3 31 C 239.3 33.1 240.3 34.7 242.5 34.7 C 244 34.7 244.8 33.9 245.2 32.7 C 245.2 32.7 246.3 32.7 246.3 32.7 C 245.9 34.5 244.5 35.7 242.5 35.7 C 239.7 35.7 238.1 33.6 238.1 30.8 Z M 245.2 30.1 C 245.1 28.3 244.3 26.9 242.4 26.9 C 240.5 26.9 239.5 28.3 239.3 30.1 C 239.3 30.1 245.2 30.1 245.2 30.1 Z " stroke="none" fill="#000"/>  </g>  <g id="Polygon9293">    <path d="M 4.7 2.1 L 0.3 2.1 L 0.3 1 L 10.2 1 L 10.2 2.1 L 5.9 2.1 L 5.9 13.9 L 4.7 13.9 L 4.7 2.1 Z M 11.5 1 L 12.6 1 L 12.6 6 C 12.6 6 12.64 5.98 12.6 6 C 13.3 5 14.3 4.4 15.8 4.4 C 17.5 4.4 18.7 5.4 18.7 7.3 C 18.72 7.25 18.7 13.9 18.7 13.9 L 17.6 13.9 C 17.6 13.9 17.6 7.36 17.6 7.4 C 17.6 6 16.8 5.3 15.5 5.3 C 13.9 5.3 12.6 6.4 12.6 8 C 12.6 7.96 12.6 13.9 12.6 13.9 L 11.5 13.9 L 11.5 1 Z M 20 9.2 C 20 6.4 21.7 4.3 24.3 4.3 C 27.3 4.3 28.3 6.8 28.3 9.4 C 28.3 9.4 21.2 9.4 21.2 9.4 C 21.2 11.5 22.2 13.1 24.4 13.1 C 25.9 13.1 26.7 12.3 27.1 11.1 C 27.1 11.1 28.2 11.1 28.2 11.1 C 27.8 12.9 26.5 14.1 24.4 14.1 C 21.6 14.1 20 12 20 9.2 Z M 27.1 8.5 C 27.1 6.7 26.2 5.3 24.3 5.3 C 22.4 5.3 21.4 6.7 21.2 8.5 C 21.2 8.5 27.1 8.5 27.1 8.5 Z M 32.1 7.4 C 32.1 3.5 34.3 0.7 37.9 0.7 C 40.6 0.7 42.4 2.2 42.9 4.6 C 42.9 4.6 41.7 4.6 41.7 4.6 C 41.3 3 40 1.8 37.9 1.8 C 34.9 1.8 33.3 4.3 33.3 7.4 C 33.3 10.7 34.9 13 37.9 13 C 40.4 13 41.7 11.3 41.9 9.2 C 41.9 9.2 43.1 9.2 43.1 9.2 C 43 10.4 42.5 11.7 41.8 12.5 C 40.9 13.6 39.5 14.1 37.9 14.1 C 34.3 14.1 32.1 11.4 32.1 7.4 Z M 51.5 9.2 C 51.5 7 50.5 5.3 48.4 5.3 C 46.3 5.3 45.2 7 45.2 9.2 C 45.2 11.4 46.3 13.2 48.4 13.2 C 50.5 13.2 51.5 11.4 51.5 9.2 Z M 44.1 9.2 C 44.1 6.4 45.7 4.3 48.4 4.3 C 51.1 4.3 52.7 6.4 52.7 9.2 C 52.7 12 51.1 14.1 48.4 14.1 C 45.7 14.1 44.1 12 44.1 9.2 Z M 54.1 1 L 55.2 1 L 55.2 13.9 L 54.1 13.9 L 54.1 1 Z M 64.2 9.2 C 64.2 7 63.1 5.3 61 5.3 C 58.9 5.3 57.8 7 57.8 9.2 C 57.8 11.4 58.9 13.2 61 13.2 C 63.1 13.2 64.2 11.4 64.2 9.2 Z M 56.7 9.2 C 56.7 6.4 58.3 4.3 61 4.3 C 63.7 4.3 65.3 6.4 65.3 9.2 C 65.3 12 63.7 14.1 61 14.1 C 58.3 14.1 56.7 12 56.7 9.2 Z M 66.7 4.6 L 67.8 4.6 L 67.8 6.3 C 67.8 6.3 67.84 6.28 67.8 6.3 C 68.4 5.2 69.4 4.5 70.7 4.5 C 70.8 4.5 70.9 4.5 71 4.5 C 71 4.5 71 5.6 71 5.6 C 70.3 5.5 69.6 5.7 69 6.1 C 68.3 6.6 67.8 7.5 67.8 8.6 C 67.81 8.57 67.8 13.9 67.8 13.9 L 66.7 13.9 L 66.7 4.6 Z M 75.1 1 C 75.1 1 80.5 0.99 80.5 1 C 81.6 1 82.6 1.3 83.2 1.9 C 83.8 2.5 84.2 3.3 84.2 4.2 C 84.2 5.7 83.5 6.6 82.2 7 C 82.2 7 82.2 7.1 82.2 7.1 C 83.7 7.5 84.7 8.5 84.7 10.2 C 84.7 11.3 84.4 12.1 83.8 12.8 C 83.1 13.4 82.1 13.9 80.7 13.9 C 80.73 13.86 75.1 13.9 75.1 13.9 L 75.1 1 Z M 80.7 12.8 C 81.6 12.8 82.4 12.5 82.8 12 C 83.2 11.6 83.5 11 83.5 10.3 C 83.5 8.6 82.3 7.7 80.7 7.7 C 80.66 7.69 76.4 7.7 76.4 7.7 L 76.4 12.8 C 76.4 12.8 80.66 12.76 80.7 12.8 Z M 80.5 6.6 C 82 6.6 82.9 5.7 82.9 4.3 C 82.9 2.9 82 2.1 80.5 2.1 C 80.51 2.05 76.4 2.1 76.4 2.1 L 76.4 6.6 C 76.4 6.6 80.48 6.64 80.5 6.6 Z M 86.2 1 L 87.3 1 L 87.3 13.9 L 86.2 13.9 L 86.2 1 Z M 88.7 11.5 C 88.7 9.3 90.4 8.8 92.6 8.6 C 94.4 8.4 95.1 8.2 95.1 7.3 C 95.1 7.3 95.1 7.1 95.1 7.1 C 95.1 5.9 94.3 5.3 92.8 5.3 C 91.2 5.3 90.3 5.9 90.2 7.3 C 90.2 7.3 89.1 7.3 89.1 7.3 C 89.2 5.5 90.4 4.4 92.8 4.4 C 94.9 4.4 96.1 5.2 96.1 7.2 C 96.1 7.2 96.1 12.3 96.1 12.3 C 96.1 12.9 96.3 13.1 96.7 13.1 C 96.9 13.1 97 13.1 97.1 13 C 97.14 13.03 97.2 13 97.2 13 C 97.2 13 97.2 13.84 97.2 13.8 C 97 13.9 96.8 14 96.4 14 C 95.6 14 95.1 13.6 95.1 12.7 C 95.07 12.67 95.1 12.5 95.1 12.5 C 95.1 12.5 95.02 12.47 95 12.5 C 94.5 13.2 93.5 14.1 91.8 14.1 C 90 14.1 88.7 13.2 88.7 11.5 Z M 95.1 10.5 C 95.1 10.5 95.1 8.8 95.1 8.8 C 94.5 9.1 93.6 9.3 92.7 9.4 C 91.1 9.6 89.9 9.9 89.9 11.5 C 89.9 12.8 90.9 13.2 92 13.2 C 94 13.2 95.1 11.8 95.1 10.5 Z M 97.5 11 C 97.5 11 98.7 11 98.7 11 C 98.8 12.5 99.9 13.2 101.4 13.2 C 103 13.2 103.8 12.4 103.8 11.4 C 103.8 10.3 103.2 10 101.3 9.6 C 99.4 9.1 97.9 8.7 97.9 6.9 C 97.9 5.3 99.2 4.4 101.1 4.4 C 103.3 4.4 104.4 5.5 104.6 7.1 C 104.6 7.1 103.5 7.1 103.5 7.1 C 103.3 5.9 102.5 5.3 101.1 5.3 C 99.7 5.3 99 6 99 6.8 C 99 7.9 99.9 8.1 101.7 8.5 C 103.5 8.9 104.9 9.4 104.9 11.3 C 104.9 13 103.6 14.1 101.4 14.1 C 98.9 14.1 97.6 12.8 97.5 11 Z M 106.8 12.3 C 106.76 12.26 106.8 5.5 106.8 5.5 L 105.4 5.5 L 105.4 4.6 L 106.8 4.6 L 106.8 1.7 L 107.9 1.7 L 107.9 4.6 L 109.6 4.6 L 109.6 5.5 L 107.9 5.5 C 107.9 5.5 107.87 12.08 107.9 12.1 C 107.9 12.7 108.2 13 108.8 13 C 109 13 109.3 12.9 109.5 12.8 C 109.51 12.82 109.6 12.8 109.6 12.8 C 109.6 12.8 109.56 13.77 109.6 13.8 C 109.3 13.9 108.9 13.9 108.5 13.9 C 107.5 13.9 106.8 13.4 106.8 12.3 Z M 110.4 9.2 C 110.4 6.4 112.1 4.3 114.6 4.3 C 117.6 4.3 118.7 6.8 118.6 9.4 C 118.6 9.4 111.5 9.4 111.5 9.4 C 111.6 11.5 112.6 13.1 114.7 13.1 C 116.3 13.1 117.1 12.3 117.4 11.1 C 117.4 11.1 118.5 11.1 118.5 11.1 C 118.1 12.9 116.8 14.1 114.7 14.1 C 111.9 14.1 110.4 12 110.4 9.2 Z M 117.5 8.5 C 117.4 6.7 116.5 5.3 114.6 5.3 C 112.8 5.3 111.8 6.7 111.6 8.5 C 111.6 8.5 117.5 8.5 117.5 8.5 Z M 120 4.6 L 121.1 4.6 L 121.1 6.3 C 121.1 6.3 121.17 6.28 121.2 6.3 C 121.8 5.2 122.7 4.5 124 4.5 C 124.2 4.5 124.3 4.5 124.3 4.5 C 124.3 4.5 124.3 5.6 124.3 5.6 C 123.7 5.5 122.9 5.7 122.3 6.1 C 121.6 6.6 121.1 7.5 121.1 8.6 C 121.14 8.57 121.1 13.9 121.1 13.9 L 120 13.9 L 120 4.6 Z M 129 5.5 L 127.6 5.5 L 127.6 4.6 L 129 4.6 C 129 4.6 128.97 2.9 129 2.9 C 129 1.5 129.7 0.9 131.1 0.9 C 131.3 0.9 131.7 0.9 131.8 0.9 C 131.78 0.92 131.8 1.9 131.8 1.9 C 131.8 1.9 131.29 1.87 131.3 1.9 C 130.4 1.9 130.1 2.2 130.1 2.9 C 130.07 2.93 130.1 4.6 130.1 4.6 L 131.8 4.6 L 131.8 5.5 L 130.1 5.5 L 130.1 13.9 L 129 13.9 L 129 5.5 Z M 132.2 9.2 C 132.2 6.4 133.8 4.3 136.4 4.3 C 139.4 4.3 140.4 6.8 140.4 9.4 C 140.4 9.4 133.3 9.4 133.3 9.4 C 133.4 11.5 134.4 13.1 136.5 13.1 C 138.1 13.1 138.9 12.3 139.2 11.1 C 139.2 11.1 140.3 11.1 140.3 11.1 C 139.9 12.9 138.6 14.1 136.5 14.1 C 133.7 14.1 132.2 12 132.2 9.2 Z M 139.2 8.5 C 139.2 6.7 138.3 5.3 136.4 5.3 C 134.5 5.3 133.5 6.7 133.3 8.5 C 133.3 8.5 139.2 8.5 139.2 8.5 Z M 141.3 11.5 C 141.3 9.3 143 8.8 145.1 8.6 C 147 8.4 147.6 8.2 147.6 7.3 C 147.6 7.3 147.6 7.1 147.6 7.1 C 147.6 5.9 146.8 5.3 145.4 5.3 C 143.7 5.3 142.9 5.9 142.8 7.3 C 142.8 7.3 141.7 7.3 141.7 7.3 C 141.8 5.5 143 4.4 145.4 4.4 C 147.4 4.4 148.7 5.2 148.7 7.2 C 148.7 7.2 148.7 12.3 148.7 12.3 C 148.7 12.9 148.9 13.1 149.3 13.1 C 149.4 13.1 149.5 13.1 149.7 13 C 149.7 13.03 149.8 13 149.8 13 C 149.8 13 149.76 13.84 149.8 13.8 C 149.6 13.9 149.4 14 149 14 C 148.2 14 147.7 13.6 147.6 12.7 C 147.63 12.67 147.6 12.5 147.6 12.5 C 147.6 12.5 147.58 12.47 147.6 12.5 C 147.1 13.2 146.1 14.1 144.3 14.1 C 142.6 14.1 141.3 13.2 141.3 11.5 Z M 147.6 10.5 C 147.6 10.5 147.6 8.8 147.6 8.8 C 147 9.1 146.1 9.3 145.2 9.4 C 143.7 9.6 142.5 9.9 142.5 11.5 C 142.5 12.8 143.4 13.2 144.5 13.2 C 146.6 13.2 147.6 11.8 147.6 10.5 Z M 151.3 12.3 C 151.29 12.26 151.3 5.5 151.3 5.5 L 149.9 5.5 L 149.9 4.6 L 151.3 4.6 L 151.3 1.7 L 152.4 1.7 L 152.4 4.6 L 154.1 4.6 L 154.1 5.5 L 152.4 5.5 C 152.4 5.5 152.4 12.08 152.4 12.1 C 152.4 12.7 152.7 13 153.3 13 C 153.6 13 153.9 12.9 154 12.8 C 154.04 12.82 154.1 12.8 154.1 12.8 C 154.1 12.8 154.1 13.77 154.1 13.8 C 153.8 13.9 153.5 13.9 153.1 13.9 C 152 13.9 151.3 13.4 151.3 12.3 Z M 155.5 11.1 C 155.52 11.12 155.5 4.6 155.5 4.6 L 156.6 4.6 C 156.6 4.6 156.63 11.05 156.6 11.1 C 156.6 12.5 157.5 13.1 158.8 13.1 C 160.4 13.1 161.5 12 161.5 10.4 C 161.53 10.37 161.5 4.6 161.5 4.6 L 162.6 4.6 L 162.6 13.9 L 161.5 13.9 L 161.5 12.5 C 161.5 12.5 161.49 12.49 161.5 12.5 C 160.8 13.4 160.1 14.1 158.6 14.1 C 156.8 14.1 155.5 13 155.5 11.1 Z M 164.5 4.6 L 165.6 4.6 L 165.6 6.3 C 165.6 6.3 165.65 6.28 165.7 6.3 C 166.2 5.2 167.2 4.5 168.5 4.5 C 168.6 4.5 168.7 4.5 168.8 4.5 C 168.8 4.5 168.8 5.6 168.8 5.6 C 168.1 5.5 167.4 5.7 166.8 6.1 C 166.1 6.6 165.6 7.5 165.6 8.6 C 165.62 8.57 165.6 13.9 165.6 13.9 L 164.5 13.9 L 164.5 4.6 Z M 169.1 9.2 C 169.1 6.4 170.8 4.3 173.4 4.3 C 176.3 4.3 177.4 6.8 177.4 9.4 C 177.4 9.4 170.3 9.4 170.3 9.4 C 170.3 11.5 171.3 13.1 173.4 13.1 C 175 13.1 175.8 12.3 176.2 11.1 C 176.2 11.1 177.2 11.1 177.2 11.1 C 176.8 12.9 175.5 14.1 173.4 14.1 C 170.7 14.1 169.1 12 169.1 9.2 Z M 176.2 8.5 C 176.1 6.7 175.3 5.3 173.4 5.3 C 171.5 5.3 170.5 6.7 170.3 8.5 C 170.3 8.5 176.2 8.5 176.2 8.5 Z M 178.1 11 C 178.1 11 179.3 11 179.3 11 C 179.4 12.5 180.5 13.2 182 13.2 C 183.6 13.2 184.4 12.4 184.4 11.4 C 184.4 10.3 183.8 10 181.9 9.6 C 180 9.1 178.5 8.7 178.5 6.9 C 178.5 5.3 179.8 4.4 181.7 4.4 C 183.9 4.4 185 5.5 185.2 7.1 C 185.2 7.1 184.1 7.1 184.1 7.1 C 183.9 5.9 183.1 5.3 181.7 5.3 C 180.3 5.3 179.6 6 179.6 6.8 C 179.6 7.9 180.5 8.1 182.3 8.5 C 184.1 8.9 185.5 9.4 185.5 11.3 C 185.5 13 184.2 14.1 182 14.1 C 179.5 14.1 178.3 12.8 178.1 11 Z M 189 11.5 C 189 9.3 190.8 8.8 192.9 8.6 C 194.7 8.4 195.4 8.2 195.4 7.3 C 195.4 7.3 195.4 7.1 195.4 7.1 C 195.4 5.9 194.6 5.3 193.1 5.3 C 191.5 5.3 190.6 5.9 190.5 7.3 C 190.5 7.3 189.4 7.3 189.4 7.3 C 189.6 5.5 190.7 4.4 193.1 4.4 C 195.2 4.4 196.4 5.2 196.4 7.2 C 196.4 7.2 196.4 12.3 196.4 12.3 C 196.4 12.9 196.6 13.1 197 13.1 C 197.2 13.1 197.3 13.1 197.5 13 C 197.46 13.03 197.5 13 197.5 13 C 197.5 13 197.51 13.84 197.5 13.8 C 197.3 13.9 197.1 14 196.8 14 C 195.9 14 195.4 13.6 195.4 12.7 C 195.39 12.67 195.4 12.5 195.4 12.5 C 195.4 12.5 195.33 12.47 195.3 12.5 C 194.8 13.2 193.9 14.1 192.1 14.1 C 190.3 14.1 189 13.2 189 11.5 Z M 195.4 10.5 C 195.4 10.5 195.4 8.8 195.4 8.8 C 194.8 9.1 193.9 9.3 193 9.4 C 191.4 9.6 190.2 9.9 190.2 11.5 C 190.2 12.8 191.2 13.2 192.3 13.2 C 194.3 13.2 195.4 11.8 195.4 10.5 Z M 201.9 5.5 L 200.6 5.5 L 200.6 4.6 L 201.9 4.6 C 201.9 4.6 201.94 2.9 201.9 2.9 C 201.9 1.5 202.7 0.9 204.1 0.9 C 204.2 0.9 204.7 0.9 204.7 0.9 C 204.75 0.92 204.7 1.9 204.7 1.9 C 204.7 1.9 204.26 1.87 204.3 1.9 C 203.3 1.9 203 2.2 203 2.9 C 203.04 2.93 203 4.6 203 4.6 L 204.8 4.6 L 204.8 5.5 L 203 5.5 L 203 13.9 L 201.9 13.9 L 201.9 5.5 Z M 212.6 9.2 C 212.6 7 211.5 5.3 209.5 5.3 C 207.4 5.3 206.3 7 206.3 9.2 C 206.3 11.4 207.4 13.2 209.5 13.2 C 211.5 13.2 212.6 11.4 212.6 9.2 Z M 205.1 9.2 C 205.1 6.4 206.8 4.3 209.5 4.3 C 212.1 4.3 213.7 6.4 213.7 9.2 C 213.7 12 212.1 14.1 209.5 14.1 C 206.8 14.1 205.1 12 205.1 9.2 Z M 215.2 4.6 L 216.3 4.6 L 216.3 6.3 C 216.3 6.3 216.3 6.28 216.3 6.3 C 216.9 5.2 217.9 4.5 219.1 4.5 C 219.3 4.5 219.4 4.5 219.5 4.5 C 219.5 4.5 219.5 5.6 219.5 5.6 C 218.8 5.5 218 5.7 217.5 6.1 C 216.8 6.6 216.3 7.5 216.3 8.6 C 216.27 8.57 216.3 13.9 216.3 13.9 L 215.2 13.9 L 215.2 4.6 Z M 220.7 4.6 L 221.8 4.6 L 221.8 6 C 221.8 6 221.85 5.96 221.8 6 C 222.4 5 223.3 4.4 224.7 4.4 C 225.8 4.4 226.8 4.9 227.2 6 C 227.2 6 227.2 6 227.2 6 C 227.8 5 228.9 4.4 230.2 4.4 C 231.8 4.4 233 5.4 233 7.3 C 232.99 7.25 233 13.9 233 13.9 L 231.9 13.9 C 231.9 13.9 231.89 7.34 231.9 7.3 C 231.9 6 231.1 5.3 229.9 5.3 C 228.6 5.3 227.4 6.3 227.4 7.9 C 227.41 7.94 227.4 13.9 227.4 13.9 L 226.3 13.9 C 226.3 13.9 226.29 7.34 226.3 7.3 C 226.3 6 225.5 5.3 224.4 5.3 C 223.1 5.3 221.8 6.4 221.8 7.9 C 221.81 7.94 221.8 13.9 221.8 13.9 L 220.7 13.9 L 220.7 4.6 Z " stroke="none" fill="#000"/>  </g></svg>