<?xml version="1.0" standalone="no"?><!DOCTYPE svg PUBLIC "-//W3C//DTD SVG 1.1//EN" "http://www.w3.org/Graphics/SVG/1.1/DTD/svg11.dtd"><svg xmlns="http://www.w3.org/2000/svg" version="1.1" width="37px" height="29.6px" viewBox="0 -3 37 29.6" style="top:-3px">  <desc>Grip</desc>  <defs/>  <g id="Polygon9146">    <path d="M 9.6 10.9 C 9.6 10.9 9.58 10.9 9.6 10.9 C 8.8 12.1 7.5 12.6 6 12.6 C 2.8 12.6 0.6 10.2 0.6 6.7 C 0.6 3.4 2.5 0.7 6.1 0.7 C 8.8 0.7 10.4 2.2 10.8 4.4 C 10.8 4.4 9.3 4.4 9.3 4.4 C 9 2.9 7.9 2 6.1 2 C 3.4 2 2.1 4 2.1 6.7 C 2.1 9.5 3.7 11.4 6.1 11.4 C 8.4 11.4 9.5 9.8 9.5 7.9 C 9.52 7.87 9.5 7.6 9.5 7.6 L 6.1 7.6 L 6.1 6.4 L 11 6.4 L 11 12.4 L 10 12.4 L 9.6 10.9 Z M 14 5.5 C 14 5.5 14.08 5.5 14.1 5.5 C 14.6 4.7 15.4 4 16.5 4 C 16.8 4 16.9 4.1 17.1 4.1 C 17.07 4.13 17.1 5.4 17.1 5.4 C 17.1 5.4 17.02 5.38 17 5.4 C 16.8 5.3 16.7 5.3 16.4 5.3 C 15.2 5.3 14 6.3 14 7.8 C 14.05 7.81 14 12.4 14 12.4 L 12.8 12.4 L 12.8 4.1 L 14 4.1 L 14 5.5 Z M 18.2 4.1 L 19.5 4.1 L 19.5 12.4 L 18.2 12.4 L 18.2 4.1 Z M 18.2 1 L 19.5 1 L 19.5 2.6 L 18.2 2.6 L 18.2 1 Z M 21.3 4.1 L 22.6 4.1 L 22.6 5.3 C 22.6 5.3 22.62 5.3 22.6 5.3 C 23.2 4.4 24.1 3.9 25.3 3.9 C 27.4 3.9 28.8 5.5 28.8 8.3 C 28.8 10.9 27.5 12.6 25.2 12.6 C 24.1 12.6 23.3 12.3 22.6 11.4 C 22.62 11.42 22.6 11.4 22.6 11.4 L 22.6 15.1 L 21.3 15.1 L 21.3 4.1 Z M 27.5 8.3 C 27.5 6.4 26.7 5 25.2 5 C 23.3 5 22.5 6.5 22.5 8.3 C 22.5 10.1 23.2 11.6 25.1 11.6 C 26.7 11.6 27.5 10.2 27.5 8.3 Z " stroke="none" fill="#000"/>  </g></svg>