<?xml version="1.0" standalone="no"?><!DOCTYPE svg PUBLIC "-//W3C//DTD SVG 1.1//EN" "http://www.w3.org/Graphics/SVG/1.1/DTD/svg11.dtd"><svg xmlns="http://www.w3.org/2000/svg" version="1.1" width="153px" height="80.9px" viewBox="0 -6 153 80.9" style="top:-6px">  <desc>Easy Refill Reservoir</desc>  <defs/>  <g id="Polygon8946">    <path d="M 1.6 37.7 C 1.6 37.7 11.49 37.68 11.5 37.7 C 15.6 37.7 18.4 40.1 18.4 43.6 C 18.4 46.2 17.2 48.1 14.5 48.8 C 14.5 48.8 14.5 48.9 14.5 48.9 C 16.4 49.5 17.5 50.6 17.7 53.2 C 18 56.3 17.9 58.6 18.7 58.9 C 18.66 58.92 18.7 59.1 18.7 59.1 C 18.7 59.1 14.49 59.13 14.5 59.1 C 13.9 58.9 13.9 56.5 13.7 54.2 C 13.5 51.8 12.2 50.5 9.5 50.5 C 9.51 50.52 6 50.5 6 50.5 L 6 59.1 L 1.6 59.1 L 1.6 37.7 Z M 6 47.2 C 6 47.2 10.62 47.16 10.6 47.2 C 13 47.2 14.2 45.9 14.2 44.2 C 14.2 42.5 13 41.2 10.7 41.2 C 10.74 41.19 6 41.2 6 41.2 L 6 47.2 Z M 19.9 51.4 C 19.9 46.9 23 43.3 27.5 43.3 C 32.5 43.3 35.1 47.1 35.1 52.6 C 35.1 52.6 24 52.6 24 52.6 C 24.3 55 25.6 56.4 27.9 56.4 C 29.5 56.4 30.4 55.7 30.9 54.5 C 30.9 54.5 34.9 54.5 34.9 54.5 C 34.3 57.3 31.9 59.6 27.9 59.6 C 22.8 59.6 19.9 56 19.9 51.4 Z M 24 49.8 C 24 49.8 30.9 49.8 30.9 49.8 C 30.7 47.8 29.5 46.5 27.6 46.5 C 25.4 46.5 24.4 47.8 24 49.8 Z M 36.1 54.1 C 36.1 54.1 39.8 54.1 39.8 54.1 C 40.1 55.9 41.4 56.7 43.2 56.7 C 45 56.7 46 56 46 54.9 C 46 53.5 44.1 53.3 42 52.9 C 39.2 52.3 36.5 51.6 36.5 48.2 C 36.5 44.9 39.3 43.3 42.8 43.3 C 46.8 43.3 49.1 45.3 49.4 48.4 C 49.4 48.4 45.7 48.4 45.7 48.4 C 45.5 46.8 44.5 46.2 42.7 46.2 C 41.1 46.2 40.1 46.8 40.1 47.9 C 40.1 49.2 42.1 49.3 44.3 49.8 C 46.9 50.3 49.7 51 49.7 54.6 C 49.7 57.7 47.1 59.6 43.3 59.6 C 38.8 59.6 36.3 57.4 36.1 54.1 Z M 51 51.4 C 51 46.9 54.1 43.3 58.6 43.3 C 63.5 43.3 66.1 47.1 66.1 52.6 C 66.1 52.6 55 52.6 55 52.6 C 55.3 55 56.6 56.4 58.9 56.4 C 60.5 56.4 61.4 55.7 61.9 54.5 C 61.9 54.5 65.9 54.5 65.9 54.5 C 65.3 57.3 62.9 59.6 58.9 59.6 C 53.8 59.6 51 56 51 51.4 Z M 55 49.8 C 55 49.8 61.9 49.8 61.9 49.8 C 61.8 47.8 60.5 46.5 58.6 46.5 C 56.5 46.5 55.4 47.8 55 49.8 Z M 72 46.2 C 72 46.2 72.06 46.2 72.1 46.2 C 73 44.5 74 43.6 75.8 43.6 C 76.3 43.6 76.6 43.6 76.8 43.7 C 76.8 43.68 76.8 47.2 76.8 47.2 C 76.8 47.2 76.71 47.25 76.7 47.2 C 74 47 72.1 48.4 72.1 51.6 C 72.12 51.63 72.1 59.1 72.1 59.1 L 68 59.1 L 68 43.7 L 72 43.7 L 72 46.2 Z M 77.6 43.7 L 81.7 43.7 C 81.7 43.7 84.21 51.72 84.2 51.7 C 84.66 53.19 84.9 54.2 84.9 54.2 L 85 54.2 C 85 54.2 85.17 53.19 85.6 51.7 C 85.62 51.72 88.1 43.7 88.1 43.7 L 92.2 43.7 L 86.8 59.1 L 82.9 59.1 L 77.6 43.7 Z M 92.4 51.4 C 92.4 46.9 95.7 43.3 100.4 43.3 C 105.2 43.3 108.5 46.9 108.5 51.4 C 108.5 56 105.2 59.6 100.4 59.6 C 95.7 59.6 92.4 56 92.4 51.4 Z M 104.3 51.4 C 104.3 48.4 102.9 46.4 100.4 46.4 C 97.9 46.4 96.5 48.4 96.5 51.4 C 96.5 54.4 97.9 56.5 100.4 56.5 C 102.9 56.5 104.3 54.4 104.3 51.4 Z M 110.4 43.7 L 114.4 43.7 L 114.4 59.1 L 110.4 59.1 L 110.4 43.7 Z M 110.4 37.7 L 114.4 37.7 L 114.4 41.3 L 110.4 41.3 L 110.4 37.7 Z M 121 46.2 C 121 46.2 121.11 46.2 121.1 46.2 C 122 44.5 123.1 43.6 124.9 43.6 C 125.3 43.6 125.6 43.6 125.8 43.7 C 125.85 43.68 125.8 47.2 125.8 47.2 C 125.8 47.2 125.76 47.25 125.8 47.2 C 123.1 47 121.2 48.4 121.2 51.6 C 121.17 51.63 121.2 59.1 121.2 59.1 L 117.1 59.1 L 117.1 43.7 L 121 43.7 L 121 46.2 Z " stroke="none" fill="#d12229"/>  </g>  <g id="Polygon8945">    <path d="M 1.6 1.7 L 17.4 1.7 L 17.4 5.3 L 6 5.3 L 6 10.1 L 16 10.1 L 16 13.7 L 6 13.7 L 6 19.5 L 17.5 19.5 L 17.5 23.1 L 1.6 23.1 L 1.6 1.7 Z M 29.1 21.4 C 29.1 21.4 29 21.4 29 21.4 C 28.3 22.6 27.1 23.5 24.5 23.5 C 21.4 23.5 19.1 21.8 19.1 18.8 C 19.1 15.4 21.9 14.3 25.3 13.8 C 27.9 13.5 29 13.3 29 12.1 C 29 11 28.2 10.3 26.5 10.3 C 24.5 10.3 23.6 10.9 23.5 12.4 C 23.5 12.4 19.9 12.4 19.9 12.4 C 20 9.7 22 7.3 26.5 7.3 C 31.1 7.3 33 9.4 33 13 C 33 13 33 20.8 33 20.8 C 33 22 33.1 22.7 33.5 23 C 33.51 22.98 33.5 23.1 33.5 23.1 C 33.5 23.1 29.58 23.13 29.6 23.1 C 29.3 22.8 29.2 22.1 29.1 21.4 Z M 29.1 17.7 C 29.1 17.7 29.1 15.4 29.1 15.4 C 28.4 15.8 27.3 16 26.3 16.3 C 24.1 16.8 23.1 17.2 23.1 18.7 C 23.1 20.1 24.1 20.6 25.5 20.6 C 27.8 20.6 29.1 19.2 29.1 17.7 Z M 34.6 18.1 C 34.6 18.1 38.4 18.1 38.4 18.1 C 38.6 19.9 39.9 20.7 41.7 20.7 C 43.5 20.7 44.5 20 44.5 18.9 C 44.5 17.5 42.6 17.3 40.5 16.9 C 37.7 16.3 35 15.6 35 12.2 C 35 8.9 37.8 7.3 41.3 7.3 C 45.4 7.3 47.6 9.3 47.9 12.4 C 47.9 12.4 44.2 12.4 44.2 12.4 C 44 10.8 43 10.2 41.2 10.2 C 39.7 10.2 38.6 10.8 38.6 11.9 C 38.6 13.2 40.6 13.3 42.8 13.8 C 45.4 14.3 48.3 15 48.3 18.6 C 48.3 21.7 45.6 23.6 41.8 23.6 C 37.3 23.6 34.8 21.4 34.6 18.1 Z M 50.1 25 C 50.1 25 51.57 24.96 51.6 25 C 53.2 25 53.8 24.1 53.8 22.9 C 53.8 22 53.5 21 52.7 18.7 C 52.68 18.69 48.5 7.7 48.5 7.7 L 52.8 7.7 C 52.8 7.7 55.11 14.67 55.1 14.7 C 55.59 16.08 56.1 18 56.1 18 L 56.2 18 C 56.2 18 56.58 16.08 57.1 14.7 C 57.06 14.67 59.2 7.7 59.2 7.7 L 63.3 7.7 C 63.3 7.7 57.96 23.52 58 23.5 C 56.8 26.9 55.6 28.2 52.5 28.2 C 52.53 28.17 50.1 28.2 50.1 28.2 L 50.1 25 Z M 70.1 1.7 C 70.1 1.7 79.92 1.68 79.9 1.7 C 84.1 1.7 86.8 4.1 86.8 7.6 C 86.8 10.2 85.6 12.1 82.9 12.8 C 82.9 12.8 82.9 12.9 82.9 12.9 C 84.9 13.5 85.9 14.6 86.2 17.2 C 86.5 20.3 86.3 22.6 87.1 22.9 C 87.09 22.92 87.1 23.1 87.1 23.1 C 87.1 23.1 82.92 23.13 82.9 23.1 C 82.4 22.9 82.3 20.5 82.1 18.2 C 82 15.8 80.6 14.5 77.9 14.5 C 77.94 14.52 74.4 14.5 74.4 14.5 L 74.4 23.1 L 70.1 23.1 L 70.1 1.7 Z M 74.4 11.2 C 74.4 11.2 79.05 11.16 79 11.2 C 81.4 11.2 82.6 9.9 82.6 8.2 C 82.6 6.5 81.5 5.2 79.2 5.2 C 79.17 5.19 74.4 5.2 74.4 5.2 L 74.4 11.2 Z M 88.4 15.4 C 88.4 10.9 91.5 7.3 96 7.3 C 100.9 7.3 103.6 11.1 103.6 16.6 C 103.6 16.6 92.4 16.6 92.4 16.6 C 92.7 19 94 20.4 96.3 20.4 C 97.9 20.4 98.8 19.7 99.3 18.5 C 99.3 18.5 103.3 18.5 103.3 18.5 C 102.7 21.3 100.3 23.6 96.4 23.6 C 91.3 23.6 88.4 20 88.4 15.4 Z M 92.5 13.8 C 92.5 13.8 99.3 13.8 99.3 13.8 C 99.2 11.8 97.9 10.5 96 10.5 C 93.9 10.5 92.8 11.8 92.5 13.8 Z M 104.2 7.7 L 106.3 7.7 C 106.3 7.7 106.26 6.36 106.3 6.4 C 106.3 2.6 109.2 1.3 113.1 1.7 C 113.1 1.7 113.1 4.9 113.1 4.9 C 111.2 4.8 110.3 5 110.3 6.6 C 110.34 6.6 110.3 7.7 110.3 7.7 L 113.1 7.7 L 113.1 10.6 L 110.3 10.6 L 110.3 23.1 L 106.3 23.1 L 106.3 10.6 L 104.2 10.6 L 104.2 7.7 Z M 114.9 7.7 L 119 7.7 L 119 23.1 L 114.9 23.1 L 114.9 7.7 Z M 114.9 1.7 L 119 1.7 L 119 5.3 L 114.9 5.3 L 114.9 1.7 Z M 121.7 1.7 L 125.8 1.7 L 125.8 23.1 L 121.7 23.1 L 121.7 1.7 Z M 128.5 1.7 L 132.6 1.7 L 132.6 23.1 L 128.5 23.1 L 128.5 1.7 Z " stroke="none" fill="#d12229"/>  </g></svg>