<?xml version="1.0" standalone="no"?><!DOCTYPE svg PUBLIC "-//W3C//DTD SVG 1.1//EN" "http://www.w3.org/Graphics/SVG/1.1/DTD/svg11.dtd"><svg xmlns="http://www.w3.org/2000/svg" version="1.1" width="212px" height="46px" viewBox="0 -5 212 46" style="top:-5px">  <desc>Design Goals</desc>  <defs/>  <g id="Polygon2147">    <path d="M 1.4 1.5 C 1.4 1.5 8.68 1.46 8.7 1.5 C 13.7 1.5 16.8 5.5 16.8 10.9 C 16.8 14 15.8 16.6 13.9 18.3 C 12.5 19.4 10.7 20 8.4 20 C 8.37 20.05 1.4 20 1.4 20 L 1.4 1.5 Z M 8.1 16.8 C 11.6 16.8 13 14.6 13 10.9 C 13 7.3 11.4 4.7 8.2 4.7 C 8.22 4.68 5.2 4.7 5.2 4.7 L 5.2 16.8 C 5.2 16.8 8.11 16.8 8.1 16.8 Z M 18 13.4 C 18 9.4 20.6 6.3 24.5 6.3 C 28.8 6.3 31.1 9.6 31.1 14.4 C 31.1 14.4 21.4 14.4 21.4 14.4 C 21.7 16.4 22.9 17.7 24.9 17.7 C 26.2 17.7 27 17.1 27.4 16.1 C 27.4 16.1 30.9 16.1 30.9 16.1 C 30.4 18.4 28.3 20.4 24.9 20.4 C 20.5 20.4 18 17.3 18 13.4 Z M 21.5 11.9 C 21.5 11.9 27.4 11.9 27.4 11.9 C 27.3 10.2 26.2 9.1 24.6 9.1 C 22.7 9.1 21.8 10.2 21.5 11.9 Z M 31.9 15.7 C 31.9 15.7 35.2 15.7 35.2 15.7 C 35.4 17.3 36.5 17.9 38.1 17.9 C 39.7 17.9 40.6 17.3 40.6 16.4 C 40.6 15.1 38.9 15 37 14.6 C 34.7 14.2 32.3 13.5 32.3 10.6 C 32.3 7.7 34.7 6.3 37.8 6.3 C 41.3 6.3 43.2 8.1 43.5 10.8 C 43.5 10.8 40.3 10.8 40.3 10.8 C 40.1 9.3 39.2 8.8 37.7 8.8 C 36.3 8.8 35.4 9.3 35.4 10.3 C 35.4 11.4 37.2 11.5 39.1 11.9 C 41.3 12.4 43.8 13 43.8 16.1 C 43.8 18.8 41.5 20.4 38.2 20.4 C 34.3 20.4 32.1 18.6 31.9 15.7 Z M 45.4 6.7 L 48.9 6.7 L 48.9 20 L 45.4 20 L 45.4 6.7 Z M 45.4 1.5 L 48.9 1.5 L 48.9 4.6 L 45.4 4.6 L 45.4 1.5 Z M 50.8 20.4 C 50.8 20.4 54.3 20.4 54.3 20.4 C 54.6 21.3 55.4 21.9 57 21.9 C 59 21.9 60 21 60 19.1 C 59.98 19.14 60 17.7 60 17.7 C 60 17.7 59.9 17.68 59.9 17.7 C 59.1 18.6 58.1 19.2 56.4 19.2 C 53.5 19.2 50.5 16.9 50.5 12.9 C 50.5 8.9 52.9 6.3 56.3 6.3 C 58 6.3 59.2 7 60 8.1 C 60.01 8.11 60.1 8.1 60.1 8.1 L 60.1 6.7 L 63.5 6.7 C 63.5 6.7 63.47 19.03 63.5 19 C 63.5 20.9 62.9 22.2 61.9 23.1 C 60.8 24.1 59 24.6 57.1 24.6 C 53.4 24.6 51.2 23 50.8 20.4 Z M 60.2 12.8 C 60.2 10.8 59.1 9.2 57 9.2 C 55.2 9.2 54 10.6 54 12.8 C 54 15.1 55.2 16.4 57 16.4 C 59.3 16.4 60.2 14.8 60.2 12.8 Z M 69.2 8.5 C 69.2 8.5 69.29 8.53 69.3 8.5 C 70.2 7.1 71.4 6.3 73.2 6.3 C 76 6.3 77.8 8.4 77.8 11.3 C 77.84 11.34 77.8 20 77.8 20 L 74.3 20 C 74.3 20 74.31 11.86 74.3 11.9 C 74.3 10.4 73.5 9.4 72 9.4 C 70.4 9.4 69.3 10.7 69.3 12.5 C 69.29 12.48 69.3 20 69.3 20 L 65.8 20 L 65.8 6.7 L 69.2 6.7 L 69.2 8.5 Z M 98.2 17.5 C 98.2 17.5 98.12 17.55 98.1 17.5 C 96.8 19.7 95.1 20.4 92.9 20.4 C 90.1 20.4 87.9 19.4 86.4 17.7 C 84.8 16 84 13.6 84 10.8 C 84 7.7 85 5 87 3.2 C 88.5 1.8 90.5 1.1 93 1.1 C 97.7 1.1 100.3 3.7 100.9 7.3 C 100.9 7.3 97.2 7.3 97.2 7.3 C 96.8 5.5 95.4 4.2 93.1 4.2 C 89.5 4.2 87.8 7.1 87.8 10.8 C 87.8 14.6 89.8 17.4 93 17.4 C 95.9 17.4 97.8 15.2 97.8 13.2 C 97.79 13.18 97.8 13.1 97.8 13.1 L 93.3 13.1 L 93.3 10.2 L 101.1 10.2 L 101.1 20 L 98.3 20 L 98.2 17.5 Z M 102.8 13.4 C 102.8 9.4 105.7 6.3 109.8 6.3 C 113.9 6.3 116.8 9.4 116.8 13.4 C 116.8 17.4 113.9 20.4 109.8 20.4 C 105.7 20.4 102.8 17.4 102.8 13.4 Z M 113.2 13.4 C 113.2 10.8 112 9 109.8 9 C 107.6 9 106.4 10.8 106.4 13.4 C 106.4 16 107.6 17.7 109.8 17.7 C 112 17.7 113.2 16 113.2 13.4 Z M 126.4 18.6 C 126.4 18.6 126.3 18.6 126.3 18.6 C 125.7 19.6 124.7 20.4 122.4 20.4 C 119.7 20.4 117.8 18.9 117.8 16.3 C 117.8 13.3 120.1 12.4 123.1 12 C 125.3 11.7 126.3 11.5 126.3 10.5 C 126.3 9.5 125.6 8.9 124.1 8.9 C 122.4 8.9 121.6 9.5 121.5 10.8 C 121.5 10.8 118.4 10.8 118.4 10.8 C 118.5 8.4 120.2 6.4 124.1 6.4 C 128.1 6.4 129.7 8.2 129.7 11.3 C 129.7 11.3 129.7 18.1 129.7 18.1 C 129.7 19.1 129.9 19.7 130.2 19.9 C 130.21 19.92 130.2 20 130.2 20 C 130.2 20 126.8 20.05 126.8 20 C 126.6 19.8 126.5 19.2 126.4 18.6 Z M 126.4 15.3 C 126.4 15.3 126.4 13.3 126.4 13.3 C 125.8 13.7 124.8 13.9 123.9 14.1 C 122.1 14.5 121.2 14.9 121.2 16.2 C 121.2 17.4 122 17.9 123.3 17.9 C 125.3 17.9 126.4 16.6 126.4 15.3 Z M 132 1.5 L 135.6 1.5 L 135.6 20 L 132 20 L 132 1.5 Z M 137.1 15.7 C 137.1 15.7 140.3 15.7 140.3 15.7 C 140.6 17.3 141.7 17.9 143.3 17.9 C 144.8 17.9 145.7 17.3 145.7 16.4 C 145.7 15.1 144 15 142.2 14.6 C 139.8 14.2 137.5 13.5 137.5 10.6 C 137.5 7.7 139.9 6.3 142.9 6.3 C 146.4 6.3 148.4 8.1 148.6 10.8 C 148.6 10.8 145.4 10.8 145.4 10.8 C 145.3 9.3 144.4 8.8 142.8 8.8 C 141.5 8.8 140.6 9.3 140.6 10.3 C 140.6 11.4 142.3 11.5 144.2 11.9 C 146.5 12.4 148.9 13 148.9 16.1 C 148.9 18.8 146.6 20.4 143.3 20.4 C 139.4 20.4 137.3 18.6 137.1 15.7 Z " stroke="none" fill="#d12229"/>  </g></svg>