<?xml version="1.0" standalone="no"?><!DOCTYPE svg PUBLIC "-//W3C//DTD SVG 1.1//EN" "http://www.w3.org/Graphics/SVG/1.1/DTD/svg11.dtd"><svg xmlns="http://www.w3.org/2000/svg" version="1.1" width="86px" height="28.1px" viewBox="0 -3 86 28.1" style="top:-3px">  <desc>Final Model</desc>  <defs/>  <g id="Polygon2942">    <path d="M 0.9 0.8 L 7.7 0.8 L 7.7 1.9 L 2.2 1.9 L 2.2 5.1 L 6.8 5.1 L 6.8 6.1 L 2.2 6.1 L 2.2 10.8 L 0.9 10.8 L 0.9 0.8 Z M 8.9 3.6 L 10 3.6 L 10 10.8 L 8.9 10.8 L 8.9 3.6 Z M 8.9 0.8 L 10 0.8 L 10 2.2 L 8.9 2.2 L 8.9 0.8 Z M 12.7 4.6 C 12.7 4.6 12.7 4.56 12.7 4.6 C 13.2 3.9 13.9 3.4 15 3.4 C 16.5 3.4 17.4 4.3 17.4 5.8 C 17.43 5.77 17.4 10.8 17.4 10.8 L 16.3 10.8 C 16.3 10.8 16.3 5.87 16.3 5.9 C 16.3 4.9 15.7 4.4 14.7 4.4 C 13.5 4.4 12.7 5.2 12.7 6.4 C 12.67 6.4 12.7 10.8 12.7 10.8 L 11.5 10.8 L 11.5 3.6 L 12.7 3.6 L 12.7 4.6 Z M 23.4 9.8 C 23.4 9.8 23.4 9.8 23.4 9.8 C 22.9 10.4 22.2 11 20.9 11 C 19.6 11 18.5 10.3 18.5 9 C 18.5 7.3 19.8 6.9 21.6 6.6 C 22.7 6.5 23.4 6.4 23.4 5.6 C 23.4 4.8 22.8 4.3 21.8 4.3 C 20.6 4.3 20 4.8 19.9 5.9 C 19.9 5.9 18.9 5.9 18.9 5.9 C 18.9 4.5 19.8 3.5 21.7 3.5 C 23.3 3.5 24.4 4 24.4 5.8 C 24.4 5.8 24.4 9.2 24.4 9.2 C 24.4 9.8 24.6 10.1 25.2 10 C 25.18 9.98 25.2 10 25.2 10 C 25.2 10 25.23 10.81 25.2 10.8 C 25.1 10.9 24.9 10.9 24.6 10.9 C 23.9 10.9 23.5 10.6 23.4 9.8 Z M 23.4 8.2 C 23.4 8.2 23.4 6.9 23.4 6.9 C 23 7.2 22.4 7.4 21.7 7.5 C 20.6 7.7 19.7 7.9 19.7 8.9 C 19.7 9.9 20.5 10.1 21.2 10.1 C 22.7 10.1 23.4 9 23.4 8.2 Z M 26.1 0.8 L 27.2 0.8 L 27.2 10.8 L 26.1 10.8 L 26.1 0.8 Z M 31.2 0.8 L 32.8 0.8 L 36.1 9.2 L 36.1 9.2 L 39.3 0.8 L 41 0.8 L 41 10.8 L 39.8 10.8 L 39.8 2.6 L 39.7 2.6 C 39.7 2.6 39.47 3.39 39.3 3.9 C 39.28 3.87 36.5 10.8 36.5 10.8 L 35.6 10.8 C 35.6 10.8 32.83 3.87 32.8 3.9 C 32.63 3.36 32.4 2.6 32.4 2.6 L 32.4 2.6 L 32.4 10.8 L 31.2 10.8 L 31.2 0.8 Z M 42.3 7.2 C 42.3 5.1 43.6 3.4 45.8 3.4 C 47.9 3.4 49.3 5.1 49.3 7.2 C 49.3 9.3 47.9 11 45.8 11 C 43.6 11 42.3 9.3 42.3 7.2 Z M 48.1 7.2 C 48.1 5.6 47.3 4.4 45.8 4.4 C 44.2 4.4 43.4 5.6 43.4 7.2 C 43.4 8.8 44.2 10.1 45.8 10.1 C 47.3 10.1 48.1 8.8 48.1 7.2 Z M 50 7.3 C 50 4.8 51.4 3.4 53.2 3.4 C 54.2 3.4 55 3.9 55.4 4.6 C 55.43 4.63 55.5 4.6 55.5 4.6 L 55.5 0.8 L 56.6 0.8 L 56.6 10.8 L 55.5 10.8 L 55.5 10 C 55.5 10 55.43 9.97 55.4 10 C 54.9 10.7 54.2 11.1 53.2 11.1 C 51.2 11.1 50 9.6 50 7.3 Z M 55.5 7.3 C 55.5 5.6 54.7 4.4 53.2 4.4 C 51.8 4.4 51.1 5.6 51.1 7.3 C 51.1 8.9 51.8 10.1 53.2 10.1 C 54.8 10.1 55.5 8.9 55.5 7.3 Z M 57.7 7.2 C 57.7 5.1 59.1 3.4 61.2 3.4 C 63.3 3.4 64.5 5.1 64.5 7.5 C 64.5 7.5 58.9 7.5 58.9 7.5 C 59 9 59.8 10.1 61.2 10.1 C 62.3 10.1 63 9.6 63.2 8.6 C 63.2 8.6 64.3 8.6 64.3 8.6 C 64 10.2 62.9 11 61.2 11 C 59 11 57.7 9.3 57.7 7.2 Z M 58.9 6.7 C 58.9 6.7 63.3 6.7 63.3 6.7 C 63.2 5.2 62.5 4.3 61.2 4.3 C 59.8 4.3 59.1 5.3 58.9 6.7 Z M 65.6 0.8 L 66.8 0.8 L 66.8 10.8 L 65.6 10.8 L 65.6 0.8 Z " stroke="none" fill="#fff"/>  </g></svg>