<?xml version="1.0" standalone="no"?><!DOCTYPE svg PUBLIC "-//W3C//DTD SVG 1.1//EN" "http://www.w3.org/Graphics/SVG/1.1/DTD/svg11.dtd"><svg xmlns="http://www.w3.org/2000/svg" version="1.1" width="119.5px" height="43.2px" viewBox="0 -3 119.5 43.2" style="top:-3px">  <desc>Noodle Water Blasters</desc>  <defs/>  <g id="Polygon7986">    <path d="M 35.4 17.6 C 35.4 17.6 39.87 17.58 39.9 17.6 C 41 17.6 41.8 17.9 42.3 18.3 C 42.8 18.8 43.1 19.4 43.1 20.2 C 43.1 21.2 42.5 21.9 41.5 22.2 C 41.5 22.2 41.5 22.2 41.5 22.2 C 42.6 22.6 43.4 23.5 43.4 24.7 C 43.4 25.6 43.1 26.3 42.5 26.8 C 41.9 27.3 41.1 27.6 40 27.6 C 39.99 27.59 35.4 27.6 35.4 27.6 L 35.4 17.6 Z M 37.4 25.9 C 37.4 25.9 39.76 25.91 39.8 25.9 C 40.7 25.9 41.3 25.4 41.3 24.6 C 41.3 23.6 40.6 23.1 39.7 23.1 C 39.71 23.11 37.4 23.1 37.4 23.1 L 37.4 25.9 Z M 39.6 21.6 C 40.5 21.6 41.1 21.2 41.1 20.4 C 41.1 19.7 40.6 19.2 39.7 19.2 C 39.66 19.24 37.4 19.2 37.4 19.2 L 37.4 21.6 C 37.4 21.6 39.62 21.62 39.6 21.6 Z M 44.5 17.6 L 46.4 17.6 L 46.4 27.6 L 44.5 27.6 L 44.5 17.6 Z M 51.9 26.8 C 51.9 26.8 51.9 26.8 51.9 26.8 C 51.5 27.3 51 27.8 49.8 27.8 C 48.3 27.8 47.3 27 47.3 25.6 C 47.3 24 48.6 23.5 50.2 23.3 C 51.3 23.1 51.9 23 51.9 22.4 C 51.9 21.9 51.5 21.6 50.7 21.6 C 49.8 21.6 49.4 21.9 49.3 22.6 C 49.3 22.6 47.6 22.6 47.6 22.6 C 47.7 21.3 48.6 20.2 50.7 20.2 C 52.9 20.2 53.7 21.2 53.7 22.9 C 53.7 22.9 53.7 26.5 53.7 26.5 C 53.7 27.1 53.8 27.4 54 27.5 C 53.97 27.52 54 27.6 54 27.6 C 54 27.6 52.14 27.59 52.1 27.6 C 52 27.5 52 27.1 51.9 26.8 Z M 51.9 25.1 C 51.9 25.1 51.9 24 51.9 24 C 51.6 24.2 51.1 24.3 50.6 24.4 C 49.6 24.6 49.1 24.9 49.1 25.5 C 49.1 26.2 49.6 26.4 50.2 26.4 C 51.3 26.4 51.9 25.8 51.9 25.1 Z M 54.5 25.3 C 54.5 25.3 56.2 25.3 56.2 25.3 C 56.4 26.1 57 26.5 57.8 26.5 C 58.6 26.5 59.1 26.1 59.1 25.6 C 59.1 24.9 58.2 24.9 57.2 24.7 C 55.9 24.4 54.7 24.1 54.7 22.5 C 54.7 21 56 20.2 57.6 20.2 C 59.5 20.2 60.6 21.2 60.7 22.6 C 60.7 22.6 59 22.6 59 22.6 C 58.9 21.8 58.4 21.5 57.6 21.5 C 56.8 21.5 56.4 21.8 56.4 22.3 C 56.4 23 57.3 23 58.3 23.2 C 59.5 23.5 60.9 23.8 60.9 25.5 C 60.9 26.9 59.6 27.8 57.8 27.8 C 55.7 27.8 54.6 26.8 54.5 25.3 Z M 61.2 20.4 L 62.1 20.4 L 62.1 18.2 L 64 18.2 L 64 20.4 L 65.2 20.4 L 65.2 21.7 L 64 21.7 C 64 21.7 64.01 25.47 64 25.5 C 64 26 64.3 26.2 64.7 26.2 C 64.96 26.18 65.3 26.2 65.3 26.2 L 65.3 27.6 C 65.3 27.6 64.85 27.59 64.1 27.6 C 63.2 27.6 62.1 27.2 62.1 25.9 C 62.15 25.87 62.1 21.7 62.1 21.7 L 61.2 21.7 L 61.2 20.4 Z M 65.8 24 C 65.8 21.9 67.2 20.2 69.3 20.2 C 71.7 20.2 72.9 22 72.9 24.5 C 72.9 24.5 67.7 24.5 67.7 24.5 C 67.8 25.6 68.4 26.3 69.5 26.3 C 70.3 26.3 70.7 26 70.9 25.5 C 70.9 25.5 72.8 25.5 72.8 25.5 C 72.5 26.7 71.4 27.8 69.5 27.8 C 67.1 27.8 65.8 26.1 65.8 24 Z M 67.7 23.2 C 67.7 23.2 70.9 23.2 70.9 23.2 C 70.8 22.3 70.2 21.7 69.4 21.7 C 68.4 21.7 67.9 22.3 67.7 23.2 Z M 75.6 21.6 C 75.6 21.6 75.64 21.56 75.6 21.6 C 76.1 20.7 76.6 20.3 77.4 20.3 C 77.6 20.3 77.7 20.3 77.9 20.4 C 77.85 20.38 77.9 22.1 77.9 22.1 C 77.9 22.1 77.81 22.05 77.8 22.1 C 76.6 21.9 75.7 22.6 75.7 24.1 C 75.67 24.09 75.7 27.6 75.7 27.6 L 73.8 27.6 L 73.8 20.4 L 75.6 20.4 L 75.6 21.6 Z M 78.2 25.3 C 78.2 25.3 80 25.3 80 25.3 C 80.1 26.1 80.7 26.5 81.6 26.5 C 82.4 26.5 82.9 26.1 82.9 25.6 C 82.9 24.9 82 24.9 81 24.7 C 79.7 24.4 78.4 24.1 78.4 22.5 C 78.4 21 79.7 20.2 81.4 20.2 C 83.3 20.2 84.3 21.2 84.4 22.6 C 84.4 22.6 82.7 22.6 82.7 22.6 C 82.6 21.8 82.2 21.5 81.3 21.5 C 80.6 21.5 80.1 21.8 80.1 22.3 C 80.1 23 81.1 23 82.1 23.2 C 83.3 23.5 84.6 23.8 84.6 25.5 C 84.6 26.9 83.4 27.8 81.6 27.8 C 79.5 27.8 78.3 26.8 78.2 25.3 Z " stroke="none" fill="#000"/>  </g>  <g id="Polygon7985">    <path d="M 19 0.8 L 21 0.8 C 21 0.8 24.36 6.37 24.4 6.4 C 24.68 6.92 25.1 7.8 25.1 7.8 L 25.1 7.8 C 25.1 7.8 25.03 6.73 25 6 C 25.03 6.03 25 0.8 25 0.8 L 27 0.8 L 27 10.8 L 25.1 10.8 C 25.1 10.8 21.65 5.26 21.7 5.3 C 21.33 4.73 20.9 3.9 20.9 3.9 L 20.9 3.9 C 20.9 3.9 20.97 4.93 21 5.6 C 20.97 5.63 21 10.8 21 10.8 L 19 10.8 L 19 0.8 Z M 28.1 7.2 C 28.1 5.1 29.6 3.4 31.8 3.4 C 34 3.4 35.6 5.1 35.6 7.2 C 35.6 9.4 34 11 31.8 11 C 29.6 11 28.1 9.4 28.1 7.2 Z M 33.6 7.2 C 33.6 5.8 33 4.9 31.8 4.9 C 30.6 4.9 30 5.8 30 7.2 C 30 8.6 30.6 9.5 31.8 9.5 C 33 9.5 33.6 8.6 33.6 7.2 Z M 36.1 7.2 C 36.1 5.1 37.6 3.4 39.9 3.4 C 42.1 3.4 43.6 5.1 43.6 7.2 C 43.6 9.4 42.1 11 39.9 11 C 37.6 11 36.1 9.4 36.1 7.2 Z M 41.7 7.2 C 41.7 5.8 41 4.9 39.9 4.9 C 38.7 4.9 38 5.8 38 7.2 C 38 8.6 38.7 9.5 39.9 9.5 C 41 9.5 41.7 8.6 41.7 7.2 Z M 44.1 7.2 C 44.1 5 45.4 3.4 47.2 3.4 C 48.2 3.4 48.8 3.9 49.2 4.5 C 49.23 4.48 49.3 4.5 49.3 4.5 L 49.3 0.8 L 51.2 0.8 L 51.2 10.8 L 49.3 10.8 L 49.3 9.9 C 49.3 9.9 49.32 9.86 49.3 9.9 C 48.9 10.5 48.2 11 47.2 11 C 45.4 11 44.1 9.5 44.1 7.2 Z M 49.3 7.3 C 49.3 5.9 48.9 5 47.7 5 C 46.6 5 46.1 5.9 46.1 7.2 C 46.1 8.6 46.6 9.4 47.6 9.4 C 48.7 9.4 49.3 8.6 49.3 7.3 Z M 52.4 0.8 L 54.3 0.8 L 54.3 10.8 L 52.4 10.8 L 52.4 0.8 Z M 55.3 7.2 C 55.3 5.1 56.7 3.4 58.8 3.4 C 61.1 3.4 62.3 5.2 62.3 7.7 C 62.3 7.7 57.1 7.7 57.1 7.7 C 57.3 8.8 57.9 9.5 59 9.5 C 59.7 9.5 60.1 9.2 60.3 8.7 C 60.3 8.7 62.2 8.7 62.2 8.7 C 62 9.9 60.8 11 59 11 C 56.6 11 55.3 9.3 55.3 7.2 Z M 57.2 6.4 C 57.2 6.4 60.3 6.4 60.3 6.4 C 60.3 5.5 59.7 4.9 58.8 4.9 C 57.8 4.9 57.3 5.5 57.2 6.4 Z M 65 0.8 L 67.1 0.8 C 67.1 0.8 68.4 5.75 68.4 5.8 C 68.6 6.61 68.8 7.9 68.8 7.9 L 68.9 7.9 C 68.9 7.9 69.11 6.69 69.3 5.8 C 69.32 5.81 70.4 0.8 70.4 0.8 L 72.4 0.8 C 72.4 0.8 73.47 5.8 73.5 5.8 C 73.68 6.68 73.9 7.9 73.9 7.9 L 74 7.9 C 74 7.9 74.25 6.61 74.4 5.7 C 74.45 5.74 75.7 0.8 75.7 0.8 L 77.7 0.8 L 74.9 10.8 L 73 10.8 C 73 10.8 71.74 5.43 71.7 5.4 C 71.58 4.7 71.4 3.7 71.4 3.7 L 71.4 3.7 C 71.4 3.7 71.21 4.7 71 5.4 C 71.04 5.43 69.8 10.8 69.8 10.8 L 67.9 10.8 L 65 0.8 Z M 81.9 10 C 81.9 10 81.9 10 81.9 10 C 81.5 10.5 81 11 79.8 11 C 78.3 11 77.3 10.2 77.3 8.8 C 77.3 7.2 78.6 6.7 80.2 6.5 C 81.3 6.3 81.9 6.2 81.9 5.6 C 81.9 5.1 81.5 4.8 80.7 4.8 C 79.8 4.8 79.4 5.1 79.3 5.8 C 79.3 5.8 77.6 5.8 77.6 5.8 C 77.7 4.5 78.6 3.4 80.7 3.4 C 82.9 3.4 83.7 4.4 83.7 6.1 C 83.7 6.1 83.7 9.7 83.7 9.7 C 83.7 10.3 83.8 10.6 84 10.7 C 83.98 10.72 84 10.8 84 10.8 C 84 10.8 82.15 10.79 82.1 10.8 C 82 10.7 82 10.3 81.9 10 Z M 81.9 8.3 C 81.9 8.3 81.9 7.2 81.9 7.2 C 81.6 7.4 81.1 7.5 80.6 7.6 C 79.6 7.8 79.1 8.1 79.1 8.7 C 79.1 9.4 79.6 9.6 80.2 9.6 C 81.3 9.6 81.9 9 81.9 8.3 Z M 84.4 3.6 L 85.4 3.6 L 85.4 1.4 L 87.2 1.4 L 87.2 3.6 L 88.5 3.6 L 88.5 4.9 L 87.2 4.9 C 87.2 4.9 87.23 8.67 87.2 8.7 C 87.2 9.2 87.5 9.4 87.9 9.4 C 88.18 9.38 88.5 9.4 88.5 9.4 L 88.5 10.8 C 88.5 10.8 88.07 10.79 87.3 10.8 C 86.4 10.8 85.4 10.4 85.4 9.1 C 85.37 9.07 85.4 4.9 85.4 4.9 L 84.4 4.9 L 84.4 3.6 Z M 89 7.2 C 89 5.1 90.5 3.4 92.6 3.4 C 94.9 3.4 96.1 5.2 96.1 7.7 C 96.1 7.7 90.9 7.7 90.9 7.7 C 91 8.8 91.7 9.5 92.7 9.5 C 93.5 9.5 93.9 9.2 94.1 8.7 C 94.1 8.7 96 8.7 96 8.7 C 95.7 9.9 94.6 11 92.7 11 C 90.4 11 89 9.3 89 7.2 Z M 90.9 6.4 C 90.9 6.4 94.1 6.4 94.1 6.4 C 94.1 5.5 93.5 4.9 92.6 4.9 C 91.6 4.9 91.1 5.5 90.9 6.4 Z M 98.8 4.8 C 98.8 4.8 98.86 4.76 98.9 4.8 C 99.3 3.9 99.8 3.5 100.6 3.5 C 100.8 3.5 101 3.5 101.1 3.6 C 101.07 3.58 101.1 5.3 101.1 5.3 C 101.1 5.3 101.03 5.25 101 5.3 C 99.8 5.1 98.9 5.8 98.9 7.3 C 98.89 7.29 98.9 10.8 98.9 10.8 L 97 10.8 L 97 3.6 L 98.8 3.6 L 98.8 4.8 Z " stroke="none" fill="#000"/>  </g></svg>