<?xml version="1.0" standalone="no"?><!DOCTYPE svg PUBLIC "-//W3C//DTD SVG 1.1//EN" "http://www.w3.org/Graphics/SVG/1.1/DTD/svg11.dtd"><svg xmlns="http://www.w3.org/2000/svg" version="1.1" width="483.1px" height="31.6px" viewBox="0 -4 483.1 31.6" style="top:-4px">  <desc>Safety - Undemanding parental supervision</desc>  <defs/>  <g id="Polygon7735">    <path d="M 63.1 9.1 L 68.6 9.1 L 68.6 11.9 L 63.1 11.9 L 63.1 9.1 Z M 73.4 10.9 C 73.4 10.88 73.4 1.2 73.4 1.2 L 75.2 1.2 C 75.2 1.2 75.2 10.7 75.2 10.7 C 75.2 13.1 76.6 14.2 78.9 14.2 C 81.2 14.2 82.6 13.1 82.6 10.7 C 82.56 10.7 82.6 1.2 82.6 1.2 L 84.4 1.2 C 84.4 1.2 84.36 10.88 84.4 10.9 C 84.4 14.3 81.9 15.7 78.9 15.7 C 75.8 15.7 73.4 14.3 73.4 10.9 Z M 88.2 6.5 C 88.2 6.5 88.22 6.52 88.2 6.5 C 89 5.5 90 4.9 91.5 4.9 C 93.7 4.9 95 6.1 95 8.2 C 94.98 8.24 95 15.5 95 15.5 L 93.4 15.5 C 93.4 15.5 93.36 8.38 93.4 8.4 C 93.4 7 92.5 6.3 91 6.3 C 89.4 6.3 88.2 7.4 88.2 9.1 C 88.18 9.14 88.2 15.5 88.2 15.5 L 86.6 15.5 L 86.6 5.2 L 88.2 5.2 L 88.2 6.5 Z M 96.5 10.4 C 96.5 6.9 98.5 4.9 101.1 4.9 C 102.5 4.9 103.7 5.6 104.3 6.6 C 104.32 6.62 104.4 6.6 104.4 6.6 L 104.4 1.2 L 106 1.2 L 106 15.5 L 104.4 15.5 L 104.4 14.2 C 104.4 14.2 104.32 14.24 104.3 14.2 C 103.5 15.2 102.6 15.8 101.1 15.8 C 98.3 15.8 96.5 13.7 96.5 10.4 Z M 104.5 10.4 C 104.5 8 103.3 6.3 101.2 6.3 C 99.2 6.3 98.2 8.1 98.2 10.4 C 98.2 12.7 99.2 14.4 101.2 14.4 C 103.5 14.4 104.5 12.7 104.5 10.4 Z M 107.6 10.3 C 107.6 7.3 109.6 4.9 112.5 4.9 C 115.6 4.9 117.3 7.3 117.3 10.7 C 117.3 10.7 109.3 10.7 109.3 10.7 C 109.4 12.8 110.5 14.4 112.6 14.4 C 114.1 14.4 115.1 13.7 115.5 12.3 C 115.5 12.3 117 12.3 117 12.3 C 116.6 14.5 114.9 15.8 112.6 15.8 C 109.4 15.8 107.6 13.3 107.6 10.3 Z M 109.3 9.5 C 109.3 9.5 115.5 9.5 115.5 9.5 C 115.4 7.4 114.4 6.2 112.5 6.2 C 110.6 6.2 109.5 7.6 109.3 9.5 Z M 118.8 5.2 L 120.5 5.2 L 120.5 6.6 C 120.5 6.6 120.5 6.64 120.5 6.6 C 121.1 5.6 122.2 4.9 123.5 4.9 C 124.8 4.9 125.8 5.6 126.2 6.8 C 126.2 6.8 126.3 6.8 126.3 6.8 C 126.9 5.6 128.2 4.9 129.4 4.9 C 131.3 4.9 132.6 6.1 132.6 8.2 C 132.58 8.24 132.6 15.5 132.6 15.5 L 131 15.5 C 131 15.5 130.96 8.32 131 8.3 C 131 7 130.1 6.3 129.1 6.3 C 127.7 6.3 126.5 7.4 126.5 9.1 C 126.52 9.06 126.5 15.5 126.5 15.5 L 124.9 15.5 C 124.9 15.5 124.9 8.32 124.9 8.3 C 124.9 7 124.2 6.3 123.1 6.3 C 121.9 6.3 120.5 7.4 120.5 9.1 C 120.46 9.06 120.5 15.5 120.5 15.5 L 118.8 15.5 L 118.8 5.2 Z M 141.1 14.1 C 141.1 14.1 141 14.1 141 14.1 C 140.4 14.9 139.4 15.7 137.6 15.7 C 135.6 15.7 134.1 14.8 134.1 12.8 C 134.1 10.4 136 9.9 138.6 9.5 C 140.1 9.3 141.1 9.1 141.1 8 C 141.1 6.8 140.2 6.2 138.8 6.2 C 137.1 6.2 136.2 6.9 136.2 8.5 C 136.2 8.5 134.6 8.5 134.6 8.5 C 134.7 6.5 136 5 138.7 5 C 140.9 5 142.6 5.8 142.6 8.2 C 142.6 8.2 142.6 13.2 142.6 13.2 C 142.6 14 142.8 14.5 143.7 14.3 C 143.66 14.26 143.7 14.3 143.7 14.3 C 143.7 14.3 143.72 15.44 143.7 15.4 C 143.5 15.5 143.3 15.6 142.8 15.6 C 141.8 15.6 141.2 15.1 141.1 14.1 Z M 141.1 11.7 C 141.1 11.7 141.1 9.9 141.1 9.9 C 140.6 10.3 139.6 10.5 138.7 10.7 C 137.1 11 135.8 11.3 135.8 12.8 C 135.8 14.2 136.9 14.5 138 14.5 C 140.1 14.5 141.1 12.9 141.1 11.7 Z M 146.5 6.5 C 146.5 6.5 146.58 6.52 146.6 6.5 C 147.3 5.5 148.4 4.9 149.9 4.9 C 152 4.9 153.3 6.1 153.3 8.2 C 153.34 8.24 153.3 15.5 153.3 15.5 L 151.7 15.5 C 151.7 15.5 151.72 8.38 151.7 8.4 C 151.7 7 150.8 6.3 149.4 6.3 C 147.7 6.3 146.5 7.4 146.5 9.1 C 146.54 9.14 146.5 15.5 146.5 15.5 L 144.9 15.5 L 144.9 5.2 L 146.5 5.2 L 146.5 6.5 Z M 154.9 10.4 C 154.9 6.9 156.9 4.9 159.4 4.9 C 160.9 4.9 162 5.6 162.7 6.6 C 162.68 6.62 162.7 6.6 162.7 6.6 L 162.7 1.2 L 164.3 1.2 L 164.3 15.5 L 162.7 15.5 L 162.7 14.2 C 162.7 14.2 162.68 14.24 162.7 14.2 C 161.9 15.2 160.9 15.8 159.5 15.8 C 156.7 15.8 154.9 13.7 154.9 10.4 Z M 162.8 10.4 C 162.8 8 161.7 6.3 159.5 6.3 C 157.6 6.3 156.6 8.1 156.6 10.4 C 156.6 12.7 157.6 14.4 159.5 14.4 C 161.8 14.4 162.8 12.7 162.8 10.4 Z M 166.5 5.2 L 168.2 5.2 L 168.2 15.5 L 166.5 15.5 L 166.5 5.2 Z M 166.5 1.2 L 168.2 1.2 L 168.2 3.2 L 166.5 3.2 L 166.5 1.2 Z M 172 6.5 C 172 6.5 172.02 6.52 172 6.5 C 172.8 5.5 173.8 4.9 175.3 4.9 C 177.5 4.9 178.8 6.1 178.8 8.2 C 178.78 8.24 178.8 15.5 178.8 15.5 L 177.2 15.5 C 177.2 15.5 177.16 8.38 177.2 8.4 C 177.2 7 176.3 6.3 174.8 6.3 C 173.2 6.3 172 7.4 172 9.1 C 171.98 9.14 172 15.5 172 15.5 L 170.4 15.5 L 170.4 5.2 L 172 5.2 L 172 6.5 Z M 180.7 16.1 C 180.7 16.1 182.2 16.1 182.2 16.1 C 182.3 17.2 183.4 17.7 185 17.7 C 186.9 17.7 188 16.8 188 15 C 187.96 15 188 13.5 188 13.5 C 188 13.5 187.92 13.54 187.9 13.5 C 187.2 14.5 186.3 15.1 184.9 15.1 C 182.2 15.1 180.3 13 180.3 10 C 180.3 6.8 182.4 4.9 184.8 4.9 C 186.3 4.9 187.2 5.5 187.9 6.5 C 187.92 6.48 188 6.5 188 6.5 L 188 5.2 L 189.6 5.2 C 189.6 5.2 189.58 14.94 189.6 14.9 C 189.6 17.7 187.8 18.9 185 18.9 C 182.4 18.9 180.8 17.9 180.7 16.1 Z M 188.1 9.9 C 188.1 7.7 187.1 6.3 184.9 6.3 C 183 6.3 182 7.8 182 10 C 182 12.3 183 13.8 184.9 13.8 C 187.3 13.8 188.1 12.1 188.1 9.9 Z M 195 5.2 L 196.6 5.2 L 196.6 6.6 C 196.6 6.6 196.62 6.62 196.6 6.6 C 197.4 5.6 198.4 4.9 199.9 4.9 C 202.6 4.9 204.4 6.9 204.4 10.4 C 204.4 13.7 202.7 15.8 199.9 15.8 C 198.5 15.8 197.5 15.4 196.6 14.3 C 196.62 14.28 196.6 14.3 196.6 14.3 L 196.6 18.8 L 195 18.8 L 195 5.2 Z M 202.7 10.4 C 202.7 8.1 201.7 6.3 199.8 6.3 C 197.5 6.3 196.5 8.1 196.5 10.4 C 196.5 12.6 197.4 14.4 199.8 14.4 C 201.7 14.4 202.7 12.7 202.7 10.4 Z M 212.3 14.1 C 212.3 14.1 212.3 14.1 212.3 14.1 C 211.7 14.9 210.6 15.7 208.9 15.7 C 206.9 15.7 205.4 14.8 205.4 12.8 C 205.4 10.4 207.3 9.9 209.9 9.5 C 211.3 9.3 212.4 9.1 212.4 8 C 212.4 6.8 211.5 6.2 210 6.2 C 208.4 6.2 207.5 6.9 207.5 8.5 C 207.5 8.5 205.9 8.5 205.9 8.5 C 206 6.5 207.3 5 210 5 C 212.2 5 213.8 5.8 213.8 8.2 C 213.8 8.2 213.8 13.2 213.8 13.2 C 213.8 14 214 14.5 214.9 14.3 C 214.94 14.26 215 14.3 215 14.3 C 215 14.3 215 15.44 215 15.4 C 214.8 15.5 214.5 15.6 214.1 15.6 C 213.1 15.6 212.5 15.1 212.3 14.1 Z M 212.4 11.7 C 212.4 11.7 212.4 9.9 212.4 9.9 C 211.8 10.3 210.9 10.5 210 10.7 C 208.4 11 207.1 11.3 207.1 12.8 C 207.1 14.2 208.2 14.5 209.2 14.5 C 211.4 14.5 212.4 12.9 212.4 11.7 Z M 217.8 6.9 C 217.8 6.9 217.86 6.88 217.9 6.9 C 218.5 5.9 219.6 5 220.9 5 C 221.2 5 221.4 5.1 221.6 5.2 C 221.6 5.16 221.6 6.7 221.6 6.7 C 221.6 6.7 221.54 6.72 221.5 6.7 C 221.3 6.6 221.1 6.6 220.8 6.6 C 219.2 6.6 217.8 7.8 217.8 9.8 C 217.82 9.76 217.8 15.5 217.8 15.5 L 216.2 15.5 L 216.2 5.2 L 217.8 5.2 L 217.8 6.9 Z M 222.1 10.3 C 222.1 7.3 224 4.9 227 4.9 C 230.1 4.9 231.7 7.3 231.7 10.7 C 231.7 10.7 223.7 10.7 223.7 10.7 C 223.9 12.8 225 14.4 227.1 14.4 C 228.6 14.4 229.6 13.7 229.9 12.3 C 229.9 12.3 231.5 12.3 231.5 12.3 C 231 14.5 229.4 15.8 227.1 15.8 C 223.9 15.8 222.1 13.3 222.1 10.3 Z M 223.8 9.5 C 223.8 9.5 230 9.5 230 9.5 C 229.9 7.4 228.8 6.2 227 6.2 C 225.1 6.2 224 7.6 223.8 9.5 Z M 234.9 6.5 C 234.9 6.5 234.98 6.52 235 6.5 C 235.7 5.5 236.8 4.9 238.3 4.9 C 240.4 4.9 241.7 6.1 241.7 8.2 C 241.74 8.24 241.7 15.5 241.7 15.5 L 240.1 15.5 C 240.1 15.5 240.12 8.38 240.1 8.4 C 240.1 7 239.2 6.3 237.8 6.3 C 236.1 6.3 234.9 7.4 234.9 9.1 C 234.94 9.14 234.9 15.5 234.9 15.5 L 233.3 15.5 L 233.3 5.2 L 234.9 5.2 L 234.9 6.5 Z M 243 5.2 L 244.5 5.2 L 244.5 1.9 L 246.1 1.9 L 246.1 5.2 L 248.1 5.2 L 248.1 6.5 L 246.1 6.5 C 246.1 6.5 246.14 13.2 246.1 13.2 C 246.1 13.9 246.5 14.2 247.2 14.2 C 247.5 14.2 247.9 14.1 248 14 C 248.04 14.02 248.1 14 248.1 14 C 248.1 14 248.1 15.42 248.1 15.4 C 247.7 15.5 247.3 15.6 246.8 15.6 C 245.5 15.6 244.5 15 244.5 13.6 C 244.52 13.56 244.5 6.5 244.5 6.5 L 243 6.5 L 243 5.2 Z M 256.2 14.1 C 256.2 14.1 256.1 14.1 256.1 14.1 C 255.5 14.9 254.5 15.7 252.7 15.7 C 250.7 15.7 249.2 14.8 249.2 12.8 C 249.2 10.4 251.1 9.9 253.7 9.5 C 255.2 9.3 256.2 9.1 256.2 8 C 256.2 6.8 255.3 6.2 253.9 6.2 C 252.2 6.2 251.3 6.9 251.3 8.5 C 251.3 8.5 249.7 8.5 249.7 8.5 C 249.8 6.5 251.1 5 253.8 5 C 256 5 257.7 5.8 257.7 8.2 C 257.7 8.2 257.7 13.2 257.7 13.2 C 257.7 14 257.9 14.5 258.8 14.3 C 258.76 14.26 258.8 14.3 258.8 14.3 C 258.8 14.3 258.82 15.44 258.8 15.4 C 258.6 15.5 258.4 15.6 257.9 15.6 C 256.9 15.6 256.3 15.1 256.2 14.1 Z M 256.2 11.7 C 256.2 11.7 256.2 9.9 256.2 9.9 C 255.7 10.3 254.7 10.5 253.8 10.7 C 252.2 11 250.9 11.3 250.9 12.8 C 250.9 14.2 252 14.5 253.1 14.5 C 255.2 14.5 256.2 12.9 256.2 11.7 Z M 260.1 1.2 L 261.7 1.2 L 261.7 15.5 L 260.1 15.5 L 260.1 1.2 Z M 266.5 12.1 C 266.5 12.1 268.1 12.1 268.1 12.1 C 268.4 13.9 269.6 14.4 271.1 14.4 C 272.8 14.4 273.5 13.7 273.5 12.7 C 273.5 11.6 272.7 11.3 270.8 10.9 C 268.8 10.5 266.9 10 266.9 7.8 C 266.9 6.1 268.3 4.9 270.7 4.9 C 273.2 4.9 274.5 6.2 274.7 8.2 C 274.7 8.2 273.1 8.2 273.1 8.2 C 272.9 6.8 272.2 6.2 270.6 6.2 C 269.1 6.2 268.5 6.9 268.5 7.7 C 268.5 8.8 269.5 9 271.3 9.4 C 273.4 9.8 275.1 10.3 275.1 12.7 C 275.1 14.7 273.4 15.8 271.1 15.8 C 268.2 15.8 266.6 14.5 266.5 12.1 Z M 283.3 15.5 L 283.3 14.1 C 283.3 14.1 283.24 14.08 283.2 14.1 C 282.5 15.1 281.6 15.7 280.1 15.7 C 278 15.7 276.6 14.5 276.6 12.3 C 276.64 12.32 276.6 5.2 276.6 5.2 L 278.3 5.2 C 278.3 5.2 278.26 12.28 278.3 12.3 C 278.3 13.6 279.1 14.4 280.6 14.4 C 282.2 14.4 283.3 13.2 283.3 11.5 C 283.28 11.52 283.3 5.2 283.3 5.2 L 284.9 5.2 L 284.9 15.5 L 283.3 15.5 Z M 287.1 5.2 L 288.7 5.2 L 288.7 6.6 C 288.7 6.6 288.76 6.62 288.8 6.6 C 289.5 5.6 290.6 4.9 292.1 4.9 C 294.7 4.9 296.5 6.9 296.5 10.4 C 296.5 13.7 294.8 15.8 292 15.8 C 290.6 15.8 289.6 15.4 288.8 14.3 C 288.76 14.28 288.7 14.3 288.7 14.3 L 288.7 18.8 L 287.1 18.8 L 287.1 5.2 Z M 294.9 10.4 C 294.9 8.1 293.9 6.3 291.9 6.3 C 289.7 6.3 288.6 8.1 288.6 10.4 C 288.6 12.6 289.5 14.4 291.9 14.4 C 293.9 14.4 294.9 12.7 294.9 10.4 Z M 297.6 10.3 C 297.6 7.3 299.5 4.9 302.5 4.9 C 305.6 4.9 307.2 7.3 307.2 10.7 C 307.2 10.7 299.2 10.7 299.2 10.7 C 299.3 12.8 300.5 14.4 302.6 14.4 C 304.1 14.4 305.1 13.7 305.4 12.3 C 305.4 12.3 307 12.3 307 12.3 C 306.5 14.5 304.9 15.8 302.6 15.8 C 299.4 15.8 297.6 13.3 297.6 10.3 Z M 299.3 9.5 C 299.3 9.5 305.5 9.5 305.5 9.5 C 305.4 7.4 304.3 6.2 302.5 6.2 C 300.5 6.2 299.5 7.6 299.3 9.5 Z M 310.4 6.9 C 310.4 6.9 310.46 6.88 310.5 6.9 C 311.1 5.9 312.2 5 313.5 5 C 313.8 5 314 5.1 314.2 5.2 C 314.2 5.16 314.2 6.7 314.2 6.7 C 314.2 6.7 314.14 6.72 314.1 6.7 C 313.9 6.6 313.7 6.6 313.4 6.6 C 311.8 6.6 310.4 7.8 310.4 9.8 C 310.42 9.76 310.4 15.5 310.4 15.5 L 308.8 15.5 L 308.8 5.2 L 310.4 5.2 L 310.4 6.9 Z M 314.6 5.2 L 316.3 5.2 C 316.3 5.2 318.48 11.72 318.5 11.7 C 318.78 12.64 319.2 13.9 319.2 13.9 L 319.2 13.9 C 319.2 13.9 319.58 12.62 319.9 11.7 C 319.88 11.72 322.1 5.2 322.1 5.2 L 323.7 5.2 L 320 15.5 L 318.2 15.5 L 314.6 5.2 Z M 324.9 5.2 L 326.5 5.2 L 326.5 15.5 L 324.9 15.5 L 324.9 5.2 Z M 324.9 1.2 L 326.5 1.2 L 326.5 3.2 L 324.9 3.2 L 324.9 1.2 Z M 328 12.1 C 328 12.1 329.7 12.1 329.7 12.1 C 329.9 13.9 331.1 14.4 332.7 14.4 C 334.4 14.4 335.1 13.7 335.1 12.7 C 335.1 11.6 334.3 11.3 332.4 10.9 C 330.3 10.5 328.5 10 328.5 7.8 C 328.5 6.1 329.8 4.9 332.2 4.9 C 334.8 4.9 336 6.2 336.3 8.2 C 336.3 8.2 334.6 8.2 334.6 8.2 C 334.5 6.8 333.7 6.2 332.2 6.2 C 330.7 6.2 330.1 6.9 330.1 7.7 C 330.1 8.8 331.1 9 332.9 9.4 C 335 9.8 336.7 10.3 336.7 12.7 C 336.7 14.7 335 15.8 332.6 15.8 C 329.8 15.8 328.2 14.5 328 12.1 Z M 338.3 5.2 L 339.9 5.2 L 339.9 15.5 L 338.3 15.5 L 338.3 5.2 Z M 338.3 1.2 L 339.9 1.2 L 339.9 3.2 L 338.3 3.2 L 338.3 1.2 Z M 341.5 10.3 C 341.5 7.3 343.4 4.9 346.5 4.9 C 349.6 4.9 351.5 7.3 351.5 10.3 C 351.5 13.3 349.6 15.8 346.5 15.8 C 343.4 15.8 341.5 13.3 341.5 10.3 Z M 349.8 10.3 C 349.8 8.1 348.7 6.2 346.5 6.2 C 344.3 6.2 343.2 8.1 343.2 10.3 C 343.2 12.6 344.3 14.4 346.5 14.4 C 348.7 14.4 349.8 12.6 349.8 10.3 Z M 354.7 6.5 C 354.7 6.5 354.76 6.52 354.8 6.5 C 355.5 5.5 356.5 4.9 358 4.9 C 360.2 4.9 361.5 6.1 361.5 8.2 C 361.52 8.24 361.5 15.5 361.5 15.5 L 359.9 15.5 C 359.9 15.5 359.9 8.38 359.9 8.4 C 359.9 7 359 6.3 357.6 6.3 C 355.9 6.3 354.7 7.4 354.7 9.1 C 354.72 9.14 354.7 15.5 354.7 15.5 L 353.1 15.5 L 353.1 5.2 L 354.7 5.2 L 354.7 6.5 Z " stroke="none" fill="#000"/>  </g>  <g id="Polygon7734">    <path d="M 0.3 11 C 0.3 11 3.9 11 3.9 11 C 4 12.4 5 13 6.7 13 C 7.8 13 9 12.6 9 11.5 C 9 10.4 7.8 10.2 5.8 9.7 C 3.4 9.1 0.7 8.3 0.7 5.3 C 0.7 2.3 3.2 0.9 6.4 0.9 C 9.5 0.9 11.9 2.3 12.1 5.3 C 12.1 5.3 8.6 5.3 8.6 5.3 C 8.5 4.2 7.6 3.6 6.3 3.6 C 5.1 3.6 4.2 4.2 4.2 5 C 4.2 6 5.3 6.2 7.5 6.7 C 10.1 7.3 12.5 8.1 12.5 11.2 C 12.5 14.2 10 15.8 6.7 15.8 C 2.9 15.8 0.4 14.2 0.3 11 Z M 13.3 12.6 C 13.3 10.4 15.1 9.7 17.2 9.4 C 19.1 9.2 19.8 9 19.8 8.3 C 19.8 7.6 19.4 7.2 18.4 7.2 C 17.4 7.2 16.9 7.6 16.8 8.5 C 16.8 8.5 13.8 8.5 13.8 8.5 C 13.8 6.6 15.3 5 18.4 5 C 19.9 5 21 5.3 21.7 5.8 C 22.6 6.5 23 7.5 23 8.7 C 23 8.7 23 13.9 23 13.9 C 23 14.7 23.1 15.2 23.4 15.4 C 23.38 15.36 23.4 15.5 23.4 15.5 C 23.4 15.5 20.22 15.5 20.2 15.5 C 20.1 15.3 20 14.9 19.9 14.4 C 19.9 14.4 19.8 14.4 19.8 14.4 C 19.2 15.2 18.3 15.8 16.8 15.8 C 14.8 15.8 13.3 14.7 13.3 12.6 Z M 19.9 11.8 C 19.9 11.8 19.9 10.6 19.9 10.6 C 19.5 10.8 18.9 11 18.2 11.2 C 17 11.4 16.4 11.8 16.4 12.5 C 16.4 13.4 17 13.7 17.8 13.7 C 19.1 13.7 19.9 12.9 19.9 11.8 Z M 25.4 7.3 L 24 7.3 L 24 5.3 L 25.4 5.3 C 25.4 5.3 25.36 4.52 25.4 4.5 C 25.4 3.5 25.7 2.7 26.2 2.1 C 27.1 1.3 28.8 1.1 30.5 1.3 C 30.5 1.3 30.5 3.6 30.5 3.6 C 29.3 3.5 28.6 3.6 28.6 4.8 C 28.62 4.76 28.6 5.3 28.6 5.3 L 30.5 5.3 L 30.5 7.3 L 28.6 7.3 L 28.6 15.5 L 25.4 15.5 L 25.4 7.3 Z M 30.8 10.4 C 30.8 7.3 33 5 36.1 5 C 37.5 5 38.7 5.4 39.6 6.2 C 40.8 7.4 41.4 9.1 41.4 11.2 C 41.4 11.2 34 11.2 34 11.2 C 34.2 12.6 35 13.5 36.3 13.5 C 37.2 13.5 37.7 13.1 38 12.4 C 38 12.4 41.2 12.4 41.2 12.4 C 41 13.4 40.4 14.2 39.5 14.9 C 38.6 15.5 37.6 15.8 36.3 15.8 C 32.9 15.8 30.8 13.5 30.8 10.4 Z M 38.1 9.3 C 38 8.1 37.2 7.3 36.1 7.3 C 34.9 7.3 34.3 8.1 34 9.3 C 34 9.3 38.1 9.3 38.1 9.3 Z M 43.1 12.8 C 43.08 12.8 43.1 7.3 43.1 7.3 L 41.7 7.3 L 41.7 5.3 L 43.1 5.3 L 43.1 2 L 46.3 2 L 46.3 5.3 L 48.1 5.3 L 48.1 7.3 L 46.3 7.3 C 46.3 7.3 46.26 12.1 46.3 12.1 C 46.3 12.9 46.7 13.1 47.4 13.1 C 47.7 13.1 48 13.1 48.1 13.1 C 48.1 13.1 48.1 15.5 48.1 15.5 C 47.8 15.5 47.2 15.6 46.3 15.6 C 44.4 15.6 43.1 15 43.1 12.8 Z M 49.9 16.3 C 49.9 16.3 51.06 16.34 51.1 16.3 C 52 16.3 52.4 16 52.4 15.3 C 52.4 14.8 52.2 14.2 51.8 13.1 C 51.78 13.14 48.8 5.3 48.8 5.3 L 52.2 5.3 C 52.2 5.3 53.58 9.62 53.6 9.6 C 53.9 10.62 54.2 12 54.2 12 L 54.3 12 C 54.3 12 54.54 10.62 54.9 9.6 C 54.86 9.62 56.2 5.3 56.2 5.3 L 59.5 5.3 C 59.5 5.3 55.92 15.64 55.9 15.6 C 55.1 18 54.1 18.9 52.1 18.9 C 52.06 18.88 49.9 18.9 49.9 18.9 L 49.9 16.3 Z " stroke="none" fill="#d12229"/>  </g></svg>