<?xml version="1.0" standalone="no"?><!DOCTYPE svg PUBLIC "-//W3C//DTD SVG 1.1//EN" "http://www.w3.org/Graphics/SVG/1.1/DTD/svg11.dtd"><svg xmlns="http://www.w3.org/2000/svg" version="1.1" width="350.3px" height="50.8px" viewBox="0 -6 350.3 50.8" style="top:-6px">  <desc>Market Research</desc>  <defs/>  <g id="Polygon7936">    <path d="M 1.9 1.9 L 8.8 1.9 C 8.8 1.9 12.24 14.11 12.2 14.1 C 13.09 17.17 13.8 20.7 13.8 20.7 L 13.8 20.7 C 13.8 20.7 14.48 17.17 15.3 14.1 C 15.33 14.11 18.8 1.9 18.8 1.9 L 25.8 1.9 L 25.8 26.2 L 21.2 26.2 C 21.2 26.2 21.22 12.27 21.2 12.3 C 21.22 10.3 21.4 7.2 21.4 7.2 L 21.4 7.2 C 21.4 7.2 20.81 10.1 20.3 11.9 C 20.3 11.87 16.1 26.2 16.1 26.2 L 11.4 26.2 C 11.4 26.2 7.31 11.87 7.3 11.9 C 6.8 10.1 6.3 7.2 6.3 7.2 L 6.2 7.2 C 6.2 7.2 6.39 10.3 6.4 12.3 C 6.39 12.27 6.4 26.2 6.4 26.2 L 1.9 26.2 L 1.9 1.9 Z M 39.6 24.3 C 39.6 24.3 39.5 24.3 39.5 24.3 C 38.7 25.6 37.4 26.6 34.4 26.6 C 30.8 26.6 28.3 24.8 28.3 21.3 C 28.3 17.4 31.4 16.2 35.3 15.7 C 38.2 15.3 39.5 15 39.5 13.7 C 39.5 12.4 38.6 11.6 36.6 11.6 C 34.4 11.6 33.4 12.4 33.3 14.1 C 33.3 14.1 29.1 14.1 29.1 14.1 C 29.3 11 31.6 8.3 36.7 8.3 C 41.9 8.3 44 10.7 44 14.8 C 44 14.8 44 23.6 44 23.6 C 44 25 44.2 25.7 44.6 26 C 44.61 26.04 44.6 26.2 44.6 26.2 C 44.6 26.2 40.15 26.21 40.2 26.2 C 39.9 25.9 39.7 25.1 39.6 24.3 Z M 39.6 20.1 C 39.6 20.1 39.6 17.4 39.6 17.4 C 38.8 17.9 37.6 18.2 36.4 18.5 C 34 19 32.8 19.5 32.8 21.2 C 32.8 22.8 33.9 23.4 35.5 23.4 C 38.2 23.4 39.6 21.8 39.6 20.1 Z M 51.4 11.6 C 51.4 11.6 51.48 11.56 51.5 11.6 C 52.5 9.6 53.7 8.6 55.8 8.6 C 56.3 8.6 56.6 8.6 56.8 8.7 C 56.85 8.7 56.8 12.7 56.8 12.7 C 56.8 12.7 56.75 12.75 56.7 12.7 C 53.7 12.4 51.5 14 51.5 17.7 C 51.54 17.71 51.5 26.2 51.5 26.2 L 46.9 26.2 L 46.9 8.8 L 51.4 8.8 L 51.4 11.6 Z M 65.4 18.3 L 63.4 20.3 L 63.4 26.2 L 58.9 26.2 L 58.9 1.9 L 63.4 1.9 L 63.4 15.4 L 69.6 8.8 L 75.2 8.8 L 68.7 15.4 L 76 26.2 L 70.3 26.2 L 65.4 18.3 Z M 75.4 17.5 C 75.4 12.3 78.9 8.3 84 8.3 C 89.6 8.3 92.6 12.6 92.6 18.8 C 92.6 18.8 79.9 18.8 79.9 18.8 C 80.3 21.5 81.8 23.2 84.4 23.2 C 86.2 23.2 87.2 22.3 87.8 21 C 87.8 21 92.3 21 92.3 21 C 91.7 24.1 88.9 26.7 84.4 26.7 C 78.6 26.7 75.4 22.7 75.4 17.5 Z M 80 15.6 C 80 15.6 87.8 15.6 87.8 15.6 C 87.6 13.4 86.2 11.9 84 11.9 C 81.6 11.9 80.4 13.3 80 15.6 Z M 93.4 8.8 L 95.8 8.8 L 95.8 3.3 L 100.3 3.3 L 100.3 8.8 L 103.3 8.8 L 103.3 11.8 L 100.3 11.8 C 100.3 11.8 100.3 21.08 100.3 21.1 C 100.3 22.4 101 22.8 102 22.8 C 102.61 22.81 103.4 22.8 103.4 22.8 L 103.4 26.2 C 103.4 26.2 102.34 26.25 100.5 26.2 C 98.3 26.2 95.8 25.4 95.8 22.1 C 95.78 22.07 95.8 11.8 95.8 11.8 L 93.4 11.8 L 93.4 8.8 Z M 111.8 1.9 C 111.8 1.9 122.91 1.9 122.9 1.9 C 127.6 1.9 130.7 4.6 130.7 8.7 C 130.7 11.5 129.4 13.7 126.3 14.6 C 126.3 14.6 126.3 14.7 126.3 14.7 C 128.5 15.3 129.7 16.6 130 19.5 C 130.3 23 130.2 25.6 131 26 C 131.03 25.98 131 26.2 131 26.2 C 131 26.2 126.31 26.21 126.3 26.2 C 125.7 25.9 125.6 23.2 125.4 20.6 C 125.2 18 123.7 16.5 120.7 16.5 C 120.66 16.46 116.7 16.5 116.7 16.5 L 116.7 26.2 L 111.8 26.2 L 111.8 1.9 Z M 116.7 12.6 C 116.7 12.6 121.92 12.65 121.9 12.6 C 124.6 12.6 125.9 11.3 125.9 9.3 C 125.9 7.3 124.7 5.9 122.1 5.9 C 122.06 5.88 116.7 5.9 116.7 5.9 L 116.7 12.6 Z M 132.5 17.5 C 132.5 12.3 136 8.3 141.1 8.3 C 146.7 8.3 149.7 12.6 149.7 18.8 C 149.7 18.8 137.1 18.8 137.1 18.8 C 137.4 21.5 138.9 23.2 141.5 23.2 C 143.3 23.2 144.4 22.3 144.9 21 C 144.9 21 149.4 21 149.4 21 C 148.8 24.1 146 26.7 141.5 26.7 C 135.8 26.7 132.5 22.7 132.5 17.5 Z M 137.1 15.6 C 137.1 15.6 144.9 15.6 144.9 15.6 C 144.7 13.4 143.3 11.9 141.2 11.9 C 138.7 11.9 137.5 13.3 137.1 15.6 Z M 150.8 20.6 C 150.8 20.6 155 20.6 155 20.6 C 155.3 22.6 156.8 23.5 158.8 23.5 C 160.9 23.5 162 22.7 162 21.5 C 162 19.8 159.8 19.6 157.5 19.1 C 154.3 18.5 151.3 17.7 151.3 13.9 C 151.3 10.1 154.4 8.3 158.4 8.3 C 163 8.3 165.5 10.6 165.9 14.1 C 165.9 14.1 161.7 14.1 161.7 14.1 C 161.5 12.2 160.3 11.5 158.3 11.5 C 156.5 11.5 155.3 12.2 155.3 13.5 C 155.3 15 157.6 15.1 160.1 15.6 C 163 16.2 166.3 17 166.3 21.1 C 166.3 24.6 163.3 26.7 158.9 26.7 C 153.8 26.7 151 24.3 150.8 20.6 Z M 167.7 17.5 C 167.7 12.3 171.2 8.3 176.3 8.3 C 181.9 8.3 184.9 12.6 184.9 18.8 C 184.9 18.8 172.2 18.8 172.2 18.8 C 172.5 21.5 174 23.2 176.7 23.2 C 178.5 23.2 179.5 22.3 180 21 C 180 21 184.6 21 184.6 21 C 183.9 24.1 181.2 26.7 176.7 26.7 C 170.9 26.7 167.7 22.7 167.7 17.5 Z M 172.3 15.6 C 172.3 15.6 180 15.6 180 15.6 C 179.9 13.4 178.4 11.9 176.3 11.9 C 173.9 11.9 172.7 13.3 172.3 15.6 Z M 197.4 24.3 C 197.4 24.3 197.4 24.3 197.4 24.3 C 196.5 25.6 195.2 26.6 192.2 26.6 C 188.7 26.6 186.1 24.8 186.1 21.3 C 186.1 17.4 189.3 16.2 193.2 15.7 C 196 15.3 197.4 15 197.4 13.7 C 197.4 12.4 196.4 11.6 194.4 11.6 C 192.3 11.6 191.2 12.4 191.1 14.1 C 191.1 14.1 187 14.1 187 14.1 C 187.1 11 189.4 8.3 194.5 8.3 C 199.7 8.3 201.8 10.7 201.8 14.8 C 201.8 14.8 201.8 23.6 201.8 23.6 C 201.8 25 202 25.7 202.4 26 C 202.43 26.04 202.4 26.2 202.4 26.2 C 202.4 26.2 197.98 26.21 198 26.2 C 197.7 25.9 197.5 25.1 197.4 24.3 Z M 197.5 20.1 C 197.5 20.1 197.5 17.4 197.5 17.4 C 196.7 17.9 195.4 18.2 194.2 18.5 C 191.8 19 190.6 19.5 190.6 21.2 C 190.6 22.8 191.7 23.4 193.4 23.4 C 196 23.4 197.5 21.8 197.5 20.1 Z M 209.2 11.6 C 209.2 11.6 209.3 11.56 209.3 11.6 C 210.4 9.6 211.5 8.6 213.6 8.6 C 214.1 8.6 214.4 8.6 214.7 8.7 C 214.67 8.7 214.7 12.7 214.7 12.7 C 214.7 12.7 214.57 12.75 214.6 12.7 C 211.5 12.4 209.4 14 209.4 17.7 C 209.37 17.71 209.4 26.2 209.4 26.2 L 204.7 26.2 L 204.7 8.8 L 209.2 8.8 L 209.2 11.6 Z M 215.3 17.5 C 215.3 12.3 218.7 8.3 224 8.3 C 228.5 8.3 231.3 10.9 231.9 14.7 C 231.9 14.7 227.4 14.7 227.4 14.7 C 227.1 13.2 225.9 12 224.2 12 C 221.4 12 220 14.1 220 17.5 C 220 20.8 221.3 23 224.2 23 C 226 23 227.4 22 227.7 20.1 C 227.7 20.1 232.1 20.1 232.1 20.1 C 231.8 23.8 228.9 26.7 224.3 26.7 C 218.8 26.7 215.3 22.7 215.3 17.5 Z M 238.7 11 C 238.7 11 238.85 11.05 238.8 11 C 240.1 9.2 241.5 8.3 243.9 8.3 C 247.5 8.3 249.9 11 249.9 14.8 C 249.93 14.82 249.9 26.2 249.9 26.2 L 245.3 26.2 C 245.3 26.2 245.31 15.5 245.3 15.5 C 245.3 13.6 244.2 12.3 242.3 12.3 C 240.2 12.3 238.7 13.9 238.7 16.3 C 238.74 16.32 238.7 26.2 238.7 26.2 L 234.1 26.2 L 234.1 1.9 L 238.7 1.9 L 238.7 11 Z " stroke="none" fill="#d12229"/>  </g></svg>