<?xml version="1.0" standalone="no"?><!DOCTYPE svg PUBLIC "-//W3C//DTD SVG 1.1//EN" "http://www.w3.org/Graphics/SVG/1.1/DTD/svg11.dtd"><svg xmlns="http://www.w3.org/2000/svg" version="1.1" width="253.4px" height="119.3px" viewBox="0 -8 253.4 119.3" style="top:-8px">  <desc>NON-FINAL RENDER</desc>  <defs/>  <g id="Polygon3288">    <path d="M 45.9 50.1 C 45.9 50.1 60.12 50.12 60.1 50.1 C 66 50.1 70.9 52.8 70.9 58.6 C 70.9 61.9 69.2 64.2 66.2 65.6 C 66.2 65.6 66.2 65.7 66.2 65.7 C 68.6 66.6 69.8 68.2 70.2 70.4 C 71 73.9 70.4 78 71.4 78.3 C 71.4 78.28 71.4 78.7 71.4 78.7 C 71.4 78.7 63.16 78.72 63.2 78.7 C 62.4 78.2 62.7 74.6 62.1 72.1 C 61.6 69.9 60.6 68.8 58.2 68.8 C 58.16 68.76 54.3 68.8 54.3 68.8 L 54.3 78.7 L 45.9 78.7 L 45.9 50.1 Z M 54.3 62.8 C 54.3 62.8 58.76 62.8 58.8 62.8 C 61.2 62.8 62.5 61.8 62.5 59.8 C 62.5 57.9 61.3 56.7 58.9 56.7 C 58.88 56.68 54.3 56.7 54.3 56.7 L 54.3 62.8 Z M 73.6 50.1 L 95.8 50.1 L 95.8 56.9 L 81.9 56.9 L 81.9 60.8 L 93.6 60.8 L 93.6 67.1 L 81.9 67.1 L 81.9 71.6 L 96.2 71.6 L 96.2 78.7 L 73.6 78.7 L 73.6 50.1 Z M 99 50.1 L 107.4 50.1 L 116.8 66.2 L 116.8 66.2 L 116.8 50.1 L 124.9 50.1 L 124.9 78.7 L 116.3 78.7 L 107.2 62.5 L 107.1 62.5 L 107.1 78.7 L 99 78.7 L 99 50.1 Z M 128.4 50.1 C 128.4 50.1 141.56 50.12 141.6 50.1 C 149.8 50.1 155.5 55.4 155.5 64.5 C 155.5 73.6 150.1 78.7 141.2 78.7 C 141.2 78.72 128.4 78.7 128.4 78.7 L 128.4 50.1 Z M 140.5 71.8 C 144.4 71.8 147 69.3 147 64.5 C 147 59.8 144.5 57 140.5 57 C 140.52 57.04 136.7 57 136.7 57 L 136.7 71.8 C 136.7 71.8 140.52 71.8 140.5 71.8 Z M 157.8 50.1 L 180.1 50.1 L 180.1 56.9 L 166.2 56.9 L 166.2 60.8 L 177.8 60.8 L 177.8 67.1 L 166.2 67.1 L 166.2 71.6 L 180.5 71.6 L 180.5 78.7 L 157.8 78.7 L 157.8 50.1 Z M 183.3 50.1 C 183.3 50.1 197.52 50.12 197.5 50.1 C 203.4 50.1 208.3 52.8 208.3 58.6 C 208.3 61.9 206.6 64.2 203.6 65.6 C 203.6 65.6 203.6 65.7 203.6 65.7 C 206 66.6 207.2 68.2 207.6 70.4 C 208.4 73.9 207.8 78 208.8 78.3 C 208.8 78.28 208.8 78.7 208.8 78.7 C 208.8 78.7 200.56 78.72 200.6 78.7 C 199.8 78.2 200.1 74.6 199.5 72.1 C 199 69.9 198 68.8 195.6 68.8 C 195.56 68.76 191.7 68.8 191.7 68.8 L 191.7 78.7 L 183.3 78.7 L 183.3 50.1 Z M 191.7 62.8 C 191.7 62.8 196.16 62.8 196.2 62.8 C 198.6 62.8 199.9 61.8 199.9 59.8 C 199.9 57.9 198.7 56.7 196.3 56.7 C 196.28 56.68 191.7 56.7 191.7 56.7 L 191.7 62.8 Z " stroke="none" fill="#000"/>  </g>  <g id="Polygon3287">    <path d="M 18.5 2.1 L 26.9 2.1 L 36.3 18.2 L 36.3 18.2 L 36.3 2.1 L 44.4 2.1 L 44.4 30.7 L 35.8 30.7 L 26.7 14.5 L 26.6 14.5 L 26.6 30.7 L 18.5 30.7 L 18.5 2.1 Z M 46.7 16.5 C 46.7 8 52.3 1.6 61.2 1.6 C 70.1 1.6 75.8 8 75.8 16.5 C 75.8 25.1 70.1 31.4 61.2 31.4 C 52.3 31.4 46.7 25.1 46.7 16.5 Z M 67.3 16.5 C 67.3 11.8 65.3 8.3 61.3 8.3 C 57.3 8.3 55.2 11.8 55.2 16.5 C 55.2 21.2 57.3 24.7 61.3 24.7 C 65.3 24.7 67.3 21.2 67.3 16.5 Z M 78.1 2.1 L 86.5 2.1 L 95.8 18.2 L 95.9 18.2 L 95.9 2.1 L 104 2.1 L 104 30.7 L 95.3 30.7 L 86.3 14.5 L 86.2 14.5 L 86.2 30.7 L 78.1 30.7 L 78.1 2.1 Z M 106.9 17.3 L 117.8 17.3 L 117.8 23.8 L 106.9 23.8 L 106.9 17.3 Z M 120.7 2.1 L 142.7 2.1 L 142.7 9.2 L 129 9.2 L 129 13.8 L 140.3 13.8 L 140.3 20.3 L 129 20.3 L 129 30.7 L 120.7 30.7 L 120.7 2.1 Z M 145.1 2.1 L 153.4 2.1 L 153.4 30.7 L 145.1 30.7 L 145.1 2.1 Z M 156.9 2.1 L 165.2 2.1 L 174.6 18.2 L 174.7 18.2 L 174.7 2.1 L 182.7 2.1 L 182.7 30.7 L 174.1 30.7 L 165 14.5 L 164.9 14.5 L 164.9 30.7 L 156.9 30.7 L 156.9 2.1 Z M 194.9 2.1 L 203.4 2.1 L 214 30.7 L 205.1 30.7 L 203.7 26.5 L 194 26.5 L 192.6 30.7 L 184.3 30.7 L 194.9 2.1 Z M 195.9 20.8 L 201.8 20.8 C 201.8 20.8 200.02 15.16 200 15.2 C 199.58 13.76 198.9 11.5 198.9 11.5 L 198.9 11.5 C 198.9 11.5 198.26 13.76 197.8 15.2 C 197.78 15.16 195.9 20.8 195.9 20.8 Z M 215.5 2.1 L 223.9 2.1 L 223.9 23.6 L 236.1 23.6 L 236.1 30.7 L 215.5 30.7 L 215.5 2.1 Z " stroke="none" fill="#000"/>  </g></svg>