<?xml version="1.0" standalone="no"?><!DOCTYPE svg PUBLIC "-//W3C//DTD SVG 1.1//EN" "http://www.w3.org/Graphics/SVG/1.1/DTD/svg11.dtd"><svg xmlns="http://www.w3.org/2000/svg" version="1.1" width="300px" height="28.2px" viewBox="0 -3 300 28.2" style="top:-3px">  <desc>Van-Life Planter</desc>  <defs/>  <g id="Polygon6838">    <path d="M 0 0.8 L 2.2 0.8 C 2.2 0.8 3.92 6.58 3.9 6.6 C 4.12 7.24 4.4 8.2 4.4 8.2 L 4.4 8.2 C 4.4 8.2 4.62 7.22 4.8 6.6 C 4.82 6.58 6.6 0.8 6.6 0.8 L 8.6 0.8 L 5.2 10.8 L 3.4 10.8 L 0 0.8 Z M 12.7 10 C 12.7 10 12.7 10 12.7 10 C 12.3 10.5 11.8 11 10.6 11 C 9.1 11 8.1 10.2 8.1 8.8 C 8.1 7.2 9.4 6.7 11 6.5 C 12.2 6.3 12.7 6.2 12.7 5.6 C 12.7 5.1 12.3 4.8 11.5 4.8 C 10.6 4.8 10.2 5.1 10.1 5.8 C 10.1 5.8 8.4 5.8 8.4 5.8 C 8.5 4.5 9.4 3.4 11.5 3.4 C 13.7 3.4 14.5 4.4 14.5 6.1 C 14.5 6.1 14.5 9.7 14.5 9.7 C 14.5 10.3 14.6 10.6 14.8 10.7 C 14.78 10.72 14.8 10.8 14.8 10.8 C 14.8 10.8 12.95 10.79 13 10.8 C 12.8 10.7 12.8 10.3 12.7 10 Z M 12.7 8.3 C 12.7 8.3 12.7 7.2 12.7 7.2 C 12.4 7.4 11.9 7.5 11.4 7.6 C 10.4 7.8 9.9 8.1 9.9 8.7 C 9.9 9.4 10.4 9.6 11 9.6 C 12.1 9.6 12.7 9 12.7 8.3 Z M 17.6 4.6 C 17.6 4.6 17.64 4.59 17.6 4.6 C 18.1 3.8 18.8 3.4 19.8 3.4 C 21.3 3.4 22.2 4.5 22.2 6.1 C 22.24 6.1 22.2 10.8 22.2 10.8 L 20.3 10.8 C 20.3 10.8 20.34 6.38 20.3 6.4 C 20.3 5.6 19.9 5.1 19.1 5.1 C 18.3 5.1 17.6 5.7 17.6 6.7 C 17.64 6.72 17.6 10.8 17.6 10.8 L 15.7 10.8 L 15.7 3.6 L 17.6 3.6 L 17.6 4.6 Z M 23.3 6.5 L 27.1 6.5 L 27.1 8.1 L 23.3 8.1 L 23.3 6.5 Z M 28.3 0.8 L 30.4 0.8 L 30.4 9.1 L 35.1 9.1 L 35.1 10.8 L 28.3 10.8 L 28.3 0.8 Z M 36.1 3.6 L 38 3.6 L 38 10.8 L 36.1 10.8 L 36.1 3.6 Z M 36.1 0.8 L 38 0.8 L 38 2.5 L 36.1 2.5 L 36.1 0.8 Z M 38.8 3.6 L 39.8 3.6 C 39.8 3.6 39.76 2.97 39.8 3 C 39.8 1.2 41.1 0.6 43 0.8 C 43 0.8 43 2.3 43 2.3 C 42.1 2.2 41.7 2.3 41.7 3.1 C 41.66 3.08 41.7 3.6 41.7 3.6 L 43 3.6 L 43 4.9 L 41.7 4.9 L 41.7 10.8 L 39.8 10.8 L 39.8 4.9 L 38.8 4.9 L 38.8 3.6 Z M 43.3 7.2 C 43.3 5.1 44.7 3.4 46.8 3.4 C 49.1 3.4 50.3 5.2 50.3 7.7 C 50.3 7.7 45.1 7.7 45.1 7.7 C 45.3 8.8 45.9 9.5 47 9.5 C 47.7 9.5 48.1 9.2 48.4 8.7 C 48.4 8.7 50.2 8.7 50.2 8.7 C 50 9.9 48.8 11 47 11 C 44.6 11 43.3 9.3 43.3 7.2 Z M 45.2 6.4 C 45.2 6.4 48.4 6.4 48.4 6.4 C 48.3 5.5 47.7 4.9 46.8 4.9 C 45.8 4.9 45.3 5.5 45.2 6.4 Z M 53.7 0.8 C 53.7 0.8 58.13 0.78 58.1 0.8 C 59.3 0.8 60.2 1.1 60.7 1.7 C 61.3 2.3 61.6 3.1 61.6 4 C 61.6 5.9 60.4 7.2 58.3 7.2 C 58.3 7.17 55.8 7.2 55.8 7.2 L 55.8 10.8 L 53.7 10.8 L 53.7 0.8 Z M 55.8 5.5 C 55.8 5.5 57.93 5.52 57.9 5.5 C 59 5.5 59.6 4.9 59.6 4 C 59.6 3.1 59 2.5 58 2.5 C 57.96 2.55 55.8 2.5 55.8 2.5 L 55.8 5.5 Z M 62.5 0.8 L 64.4 0.8 L 64.4 10.8 L 62.5 10.8 L 62.5 0.8 Z M 70 10 C 70 10 70 10 70 10 C 69.6 10.5 69.1 11 67.8 11 C 66.4 11 65.3 10.2 65.3 8.8 C 65.3 7.2 66.6 6.7 68.2 6.5 C 69.4 6.3 70 6.2 70 5.6 C 70 5.1 69.6 4.8 68.8 4.8 C 67.9 4.8 67.4 5.1 67.4 5.8 C 67.4 5.8 65.7 5.8 65.7 5.8 C 65.7 4.5 66.7 3.4 68.8 3.4 C 70.9 3.4 71.8 4.4 71.8 6.1 C 71.8 6.1 71.8 9.7 71.8 9.7 C 71.8 10.3 71.9 10.6 72 10.7 C 72.04 10.72 72 10.8 72 10.8 C 72 10.8 70.21 10.79 70.2 10.8 C 70.1 10.7 70 10.3 70 10 Z M 70 8.3 C 70 8.3 70 7.2 70 7.2 C 69.7 7.4 69.1 7.5 68.7 7.6 C 67.7 7.8 67.2 8.1 67.2 8.7 C 67.2 9.4 67.6 9.6 68.3 9.6 C 69.4 9.6 70 9 70 8.3 Z M 74.9 4.6 C 74.9 4.6 74.9 4.59 74.9 4.6 C 75.4 3.8 76 3.4 77 3.4 C 78.5 3.4 79.5 4.5 79.5 6.1 C 79.5 6.1 79.5 10.8 79.5 10.8 L 77.6 10.8 C 77.6 10.8 77.6 6.38 77.6 6.4 C 77.6 5.6 77.2 5.1 76.4 5.1 C 75.5 5.1 74.9 5.7 74.9 6.7 C 74.9 6.72 74.9 10.8 74.9 10.8 L 73 10.8 L 73 3.6 L 74.9 3.6 L 74.9 4.6 Z M 80.1 3.6 L 81.1 3.6 L 81.1 1.4 L 83 1.4 L 83 3.6 L 84.2 3.6 L 84.2 4.9 L 83 4.9 C 83 4.9 82.98 8.67 83 8.7 C 83 9.2 83.3 9.4 83.7 9.4 C 83.93 9.38 84.2 9.4 84.2 9.4 L 84.2 10.8 C 84.2 10.8 83.82 10.79 83.1 10.8 C 82.1 10.8 81.1 10.4 81.1 9.1 C 81.12 9.07 81.1 4.9 81.1 4.9 L 80.1 4.9 L 80.1 3.6 Z M 84.8 7.2 C 84.8 5.1 86.2 3.4 88.3 3.4 C 90.6 3.4 91.9 5.2 91.9 7.7 C 91.9 7.7 86.6 7.7 86.6 7.7 C 86.8 8.8 87.4 9.5 88.5 9.5 C 89.2 9.5 89.7 9.2 89.9 8.7 C 89.9 8.7 91.7 8.7 91.7 8.7 C 91.5 9.9 90.3 11 88.5 11 C 86.1 11 84.8 9.3 84.8 7.2 Z M 86.7 6.4 C 86.7 6.4 89.9 6.4 89.9 6.4 C 89.8 5.5 89.2 4.9 88.3 4.9 C 87.3 4.9 86.8 5.5 86.7 6.4 Z M 94.6 4.8 C 94.6 4.8 94.61 4.76 94.6 4.8 C 95 3.9 95.5 3.5 96.4 3.5 C 96.6 3.5 96.7 3.5 96.8 3.6 C 96.82 3.58 96.8 5.3 96.8 5.3 C 96.8 5.3 96.78 5.25 96.8 5.3 C 95.5 5.1 94.6 5.8 94.6 7.3 C 94.64 7.29 94.6 10.8 94.6 10.8 L 92.7 10.8 L 92.7 3.6 L 94.6 3.6 L 94.6 4.8 Z " stroke="none" fill="#000"/>  </g></svg>