<?xml version="1.0" standalone="no"?><!DOCTYPE svg PUBLIC "-//W3C//DTD SVG 1.1//EN" "http://www.w3.org/Graphics/SVG/1.1/DTD/svg11.dtd"><svg xmlns="http://www.w3.org/2000/svg" version="1.1" width="255px" height="28.2px" viewBox="0 -3 255 28.2" style="top:-3px">  <desc>STOKD Redesign Figma</desc>  <defs/>  <g id="Polygon9717">    <path d="M 0.3 7.7 C 0.3 7.7 2.3 7.7 2.3 7.7 C 2.4 8.9 3.1 9.4 4.6 9.4 C 5.6 9.4 6.5 9 6.5 8.1 C 6.5 7.1 5.6 6.9 4 6.6 C 2.2 6.2 0.6 5.7 0.6 3.6 C 0.6 1.6 2.2 0.6 4.4 0.6 C 6.7 0.6 8.1 1.7 8.3 3.7 C 8.3 3.7 6.4 3.7 6.4 3.7 C 6.2 2.7 5.5 2.2 4.4 2.2 C 3.3 2.2 2.6 2.7 2.6 3.4 C 2.6 4.2 3.3 4.4 4.8 4.8 C 6.9 5.2 8.5 5.7 8.5 7.9 C 8.5 9.9 6.9 11 4.6 11 C 1.9 11 0.4 9.8 0.3 7.7 Z M 8.8 0.8 L 16.9 0.8 L 16.9 2.5 L 13.9 2.5 L 13.9 10.8 L 11.8 10.8 L 11.8 2.5 L 8.8 2.5 L 8.8 0.8 Z M 17 5.8 C 17 2.8 18.8 0.6 21.8 0.6 C 24.8 0.6 26.6 2.8 26.6 5.8 C 26.6 8.8 24.8 11 21.8 11 C 18.8 11 17 8.8 17 5.8 Z M 24.5 5.8 C 24.5 3.8 23.6 2.3 21.8 2.3 C 20 2.3 19 3.8 19 5.8 C 19 7.8 20 9.4 21.8 9.4 C 23.6 9.4 24.5 7.8 24.5 5.8 Z M 27.7 0.8 L 29.7 0.8 L 29.7 4.8 L 33.6 0.8 L 36.1 0.8 L 32.2 4.8 L 36.4 10.8 L 34 10.8 L 30.8 6.1 L 29.7 7.2 L 29.7 10.8 L 27.7 10.8 L 27.7 0.8 Z M 37.2 0.8 C 37.2 0.8 41.06 0.78 41.1 0.8 C 43.7 0.8 45.5 2.9 45.5 5.9 C 45.5 7.5 44.9 8.9 43.9 9.8 C 43.1 10.4 42.2 10.8 40.9 10.8 C 40.89 10.79 37.2 10.8 37.2 10.8 L 37.2 0.8 Z M 40.8 9 C 42.7 9 43.4 7.9 43.4 5.9 C 43.4 3.9 42.5 2.5 40.8 2.5 C 40.81 2.52 39.2 2.5 39.2 2.5 L 39.2 9 C 39.2 9 40.75 9.04 40.8 9 Z M 48.9 0.8 C 48.9 0.8 53.51 0.78 53.5 0.8 C 55.4 0.8 56.7 1.9 56.7 3.6 C 56.7 4.7 56.2 5.6 54.9 6 C 54.9 6 54.9 6 54.9 6 C 55.8 6.3 56.3 6.8 56.4 8 C 56.6 9.5 56.5 10.5 56.9 10.7 C 56.85 10.7 56.9 10.8 56.9 10.8 C 56.9 10.8 54.91 10.79 54.9 10.8 C 54.7 10.7 54.6 9.6 54.5 8.5 C 54.5 7.4 53.8 6.8 52.6 6.8 C 52.58 6.78 50.9 6.8 50.9 6.8 L 50.9 10.8 L 48.9 10.8 L 48.9 0.8 Z M 50.9 5.2 C 50.9 5.2 53.1 5.21 53.1 5.2 C 54.2 5.2 54.8 4.6 54.8 3.8 C 54.8 3 54.2 2.4 53.2 2.4 C 53.16 2.42 50.9 2.4 50.9 2.4 L 50.9 5.2 Z M 57.5 7.2 C 57.5 5.1 58.9 3.4 61 3.4 C 63.3 3.4 64.5 5.2 64.5 7.7 C 64.5 7.7 59.3 7.7 59.3 7.7 C 59.5 8.8 60.1 9.5 61.2 9.5 C 61.9 9.5 62.3 9.2 62.6 8.7 C 62.6 8.7 64.4 8.7 64.4 8.7 C 64.2 9.9 63 11 61.2 11 C 58.8 11 57.5 9.3 57.5 7.2 Z M 59.4 6.4 C 59.4 6.4 62.6 6.4 62.6 6.4 C 62.5 5.5 61.9 4.9 61 4.9 C 60 4.9 59.5 5.5 59.4 6.4 Z M 65.1 7.2 C 65.1 5 66.3 3.4 68.1 3.4 C 69.1 3.4 69.8 3.9 70.2 4.5 C 70.17 4.48 70.2 4.5 70.2 4.5 L 70.2 0.8 L 72.1 0.8 L 72.1 10.8 L 70.3 10.8 L 70.3 9.9 C 70.3 9.9 70.25 9.86 70.3 9.9 C 69.8 10.5 69.1 11 68.1 11 C 66.3 11 65.1 9.5 65.1 7.2 Z M 70.3 7.3 C 70.3 5.9 69.8 5 68.6 5 C 67.5 5 67 5.9 67 7.2 C 67 8.6 67.5 9.4 68.5 9.4 C 69.7 9.4 70.3 8.6 70.3 7.3 Z M 73 7.2 C 73 5.1 74.4 3.4 76.5 3.4 C 78.8 3.4 80.1 5.2 80.1 7.7 C 80.1 7.7 74.9 7.7 74.9 7.7 C 75 8.8 75.6 9.5 76.7 9.5 C 77.4 9.5 77.9 9.2 78.1 8.7 C 78.1 8.7 80 8.7 80 8.7 C 79.7 9.9 78.6 11 76.7 11 C 74.3 11 73 9.3 73 7.2 Z M 74.9 6.4 C 74.9 6.4 78.1 6.4 78.1 6.4 C 78 5.5 77.4 4.9 76.6 4.9 C 75.6 4.9 75.1 5.5 74.9 6.4 Z M 80.5 8.5 C 80.5 8.5 82.3 8.5 82.3 8.5 C 82.4 9.3 83 9.7 83.8 9.7 C 84.7 9.7 85.2 9.3 85.2 8.8 C 85.2 8.1 84.3 8.1 83.3 7.9 C 82 7.6 80.7 7.3 80.7 5.7 C 80.7 4.2 82 3.4 83.6 3.4 C 85.5 3.4 86.6 4.4 86.7 5.8 C 86.7 5.8 85 5.8 85 5.8 C 84.9 5 84.4 4.7 83.6 4.7 C 82.9 4.7 82.4 5 82.4 5.5 C 82.4 6.2 83.3 6.2 84.4 6.4 C 85.6 6.7 86.9 7 86.9 8.7 C 86.9 10.1 85.7 11 83.9 11 C 81.8 11 80.6 10 80.5 8.5 Z M 87.8 3.6 L 89.7 3.6 L 89.7 10.8 L 87.8 10.8 L 87.8 3.6 Z M 87.8 0.8 L 89.7 0.8 L 89.7 2.5 L 87.8 2.5 L 87.8 0.8 Z M 90.7 11 C 90.7 11 92.6 11 92.6 11 C 92.7 11.5 93.1 11.8 94 11.8 C 95.1 11.8 95.6 11.3 95.6 10.3 C 95.62 10.3 95.6 9.5 95.6 9.5 C 95.6 9.5 95.58 9.52 95.6 9.5 C 95.2 10 94.6 10.4 93.7 10.4 C 92.1 10.4 90.5 9.1 90.5 6.9 C 90.5 4.8 91.8 3.4 93.6 3.4 C 94.5 3.4 95.2 3.8 95.6 4.4 C 95.63 4.37 95.7 4.4 95.7 4.4 L 95.7 3.6 L 97.5 3.6 C 97.5 3.6 97.49 10.25 97.5 10.2 C 97.5 11.3 97.2 11.9 96.6 12.4 C 96 13 95.1 13.2 94.1 13.2 C 92.1 13.2 90.9 12.4 90.7 11 Z M 95.7 6.9 C 95.7 5.8 95.2 4.9 94 4.9 C 93 4.9 92.4 5.7 92.4 6.9 C 92.4 8.1 93 8.8 94 8.8 C 95.2 8.8 95.7 8 95.7 6.9 Z M 100.6 4.6 C 100.6 4.6 100.63 4.59 100.6 4.6 C 101.1 3.8 101.8 3.4 102.8 3.4 C 104.2 3.4 105.2 4.5 105.2 6.1 C 105.24 6.1 105.2 10.8 105.2 10.8 L 103.3 10.8 C 103.3 10.8 103.33 6.38 103.3 6.4 C 103.3 5.6 102.9 5.1 102.1 5.1 C 101.2 5.1 100.6 5.7 100.6 6.7 C 100.63 6.72 100.6 10.8 100.6 10.8 L 98.7 10.8 L 98.7 3.6 L 100.6 3.6 L 100.6 4.6 Z M 109 0.2 L 110.2 0.2 L 110.2 12.6 L 109 12.6 L 109 0.2 Z M 114.2 0.8 L 121.4 0.8 L 121.4 2.5 L 116.2 2.5 L 116.2 4.9 L 120.6 4.9 L 120.6 6.6 L 116.2 6.6 L 116.2 10.8 L 114.2 10.8 L 114.2 0.8 Z M 122.4 3.6 L 124.3 3.6 L 124.3 10.8 L 122.4 10.8 L 122.4 3.6 Z M 122.4 0.8 L 124.3 0.8 L 124.3 2.5 L 122.4 2.5 L 122.4 0.8 Z M 125.3 11 C 125.3 11 127.2 11 127.2 11 C 127.4 11.5 127.8 11.8 128.6 11.8 C 129.7 11.8 130.2 11.3 130.2 10.3 C 130.24 10.3 130.2 9.5 130.2 9.5 C 130.2 9.5 130.2 9.52 130.2 9.5 C 129.8 10 129.2 10.4 128.3 10.4 C 126.7 10.4 125.2 9.1 125.2 6.9 C 125.2 4.8 126.4 3.4 128.3 3.4 C 129.2 3.4 129.8 3.8 130.3 4.4 C 130.26 4.37 130.3 4.4 130.3 4.4 L 130.3 3.6 L 132.1 3.6 C 132.1 3.6 132.12 10.25 132.1 10.2 C 132.1 11.3 131.8 11.9 131.3 12.4 C 130.7 13 129.7 13.2 128.7 13.2 C 126.7 13.2 125.5 12.4 125.3 11 Z M 130.3 6.9 C 130.3 5.8 129.8 4.9 128.6 4.9 C 127.7 4.9 127 5.7 127 6.9 C 127 8.1 127.7 8.8 128.6 8.8 C 129.8 8.8 130.3 8 130.3 6.9 Z M 133.3 3.6 L 135.2 3.6 L 135.2 4.6 C 135.2 4.6 135.22 4.58 135.2 4.6 C 135.6 3.9 136.3 3.4 137.3 3.4 C 138.2 3.4 138.9 3.9 139.3 4.7 C 139.3 4.7 139.3 4.7 139.3 4.7 C 139.8 3.9 140.6 3.4 141.5 3.4 C 143 3.4 143.8 4.4 143.8 6 C 143.85 5.96 143.8 10.8 143.8 10.8 L 141.9 10.8 C 141.9 10.8 141.95 6.29 141.9 6.3 C 141.9 5.5 141.5 5.1 140.8 5.1 C 140 5.1 139.6 5.7 139.6 6.6 C 139.55 6.62 139.6 10.8 139.6 10.8 L 137.6 10.8 C 137.6 10.8 137.65 6.29 137.6 6.3 C 137.6 5.5 137.2 5.1 136.5 5.1 C 135.8 5.1 135.3 5.7 135.3 6.6 C 135.25 6.62 135.3 10.8 135.3 10.8 L 133.3 10.8 L 133.3 3.6 Z M 149.3 10 C 149.3 10 149.3 10 149.3 10 C 148.9 10.5 148.4 11 147.2 11 C 145.7 11 144.7 10.2 144.7 8.8 C 144.7 7.2 146 6.7 147.6 6.5 C 148.7 6.3 149.3 6.2 149.3 5.6 C 149.3 5.1 148.9 4.8 148.1 4.8 C 147.2 4.8 146.8 5.1 146.7 5.8 C 146.7 5.8 145 5.8 145 5.8 C 145.1 4.5 146 3.4 148.1 3.4 C 150.3 3.4 151.1 4.4 151.1 6.1 C 151.1 6.1 151.1 9.7 151.1 9.7 C 151.1 10.3 151.2 10.6 151.4 10.7 C 151.38 10.72 151.4 10.8 151.4 10.8 C 151.4 10.8 149.55 10.79 149.5 10.8 C 149.4 10.7 149.4 10.3 149.3 10 Z M 149.3 8.3 C 149.3 8.3 149.3 7.2 149.3 7.2 C 149 7.4 148.5 7.5 148 7.6 C 147 7.8 146.5 8.1 146.5 8.7 C 146.5 9.4 147 9.6 147.6 9.6 C 148.7 9.6 149.3 9 149.3 8.3 Z " stroke="none" fill="#000"/>  </g></svg>