<?xml version="1.0" standalone="no"?><!DOCTYPE svg PUBLIC "-//W3C//DTD SVG 1.1//EN" "http://www.w3.org/Graphics/SVG/1.1/DTD/svg11.dtd"><svg xmlns="http://www.w3.org/2000/svg" version="1.1" width="256px" height="78.6px" viewBox="0 -4 256 78.6" style="top:-4px">  <desc>Even if I m buying a toy for our oldest child, you have to consider the youngest</desc>  <defs/>  <g id="Polygon7527">    <path d="M 0.4 58.3 C 0.4 55.2 2.4 52.9 5.5 52.9 C 8.2 52.9 9.8 54.4 10.2 56.6 C 10.2 56.6 7.5 56.6 7.5 56.6 C 7.3 55.7 6.6 55.1 5.6 55.1 C 4 55.1 3.1 56.3 3.1 58.3 C 3.1 60.2 3.9 61.5 5.6 61.5 C 6.7 61.5 7.5 61 7.6 59.8 C 7.6 59.8 10.3 59.8 10.3 59.8 C 10.1 62 8.4 63.7 5.6 63.7 C 2.4 63.7 0.4 61.4 0.4 58.3 Z M 10.9 58.3 C 10.9 55.2 13.1 52.9 16.3 52.9 C 19.5 52.9 21.7 55.2 21.7 58.3 C 21.7 61.4 19.5 63.7 16.3 63.7 C 13.1 63.7 10.9 61.4 10.9 58.3 Z M 18.9 58.3 C 18.9 56.3 18 54.9 16.3 54.9 C 14.6 54.9 13.7 56.3 13.7 58.3 C 13.7 60.3 14.6 61.6 16.3 61.6 C 18 61.6 18.9 60.3 18.9 58.3 Z M 25.6 54.6 C 25.6 54.6 25.64 54.56 25.6 54.6 C 26.3 53.5 27.3 52.9 28.7 52.9 C 30.8 52.9 32.2 54.5 32.2 56.7 C 32.22 56.72 32.2 63.4 32.2 63.4 L 29.5 63.4 C 29.5 63.4 29.5 57.12 29.5 57.1 C 29.5 56 28.9 55.2 27.7 55.2 C 26.5 55.2 25.6 56.2 25.6 57.6 C 25.64 57.6 25.6 63.4 25.6 63.4 L 22.9 63.4 L 22.9 53.2 L 25.6 53.2 L 25.6 54.6 Z M 33.3 60.1 C 33.3 60.1 35.8 60.1 35.8 60.1 C 36 61.3 36.8 61.8 38 61.8 C 39.2 61.8 39.9 61.3 39.9 60.6 C 39.9 59.6 38.6 59.5 37.2 59.3 C 35.4 58.9 33.6 58.4 33.6 56.2 C 33.6 53.9 35.4 52.9 37.7 52.9 C 40.4 52.9 41.9 54.2 42.1 56.3 C 42.1 56.3 39.7 56.3 39.7 56.3 C 39.6 55.2 38.9 54.8 37.7 54.8 C 36.6 54.8 35.9 55.2 35.9 55.9 C 35.9 56.8 37.3 56.9 38.8 57.2 C 40.5 57.5 42.4 58 42.4 60.4 C 42.4 62.5 40.6 63.7 38.1 63.7 C 35.1 63.7 33.4 62.3 33.3 60.1 Z M 43.6 53.2 L 46.3 53.2 L 46.3 63.4 L 43.6 63.4 L 43.6 53.2 Z M 43.6 49.1 L 46.3 49.1 L 46.3 51.6 L 43.6 51.6 L 43.6 49.1 Z M 47.6 58.3 C 47.6 55.1 49.4 52.9 52 52.9 C 53.4 52.9 54.3 53.5 54.9 54.4 C 54.86 54.4 54.9 54.4 54.9 54.4 L 54.9 49.1 L 57.6 49.1 L 57.6 63.4 L 55 63.4 L 55 62.1 C 55 62.1 54.98 62.08 55 62.1 C 54.4 63.1 53.4 63.7 51.9 63.7 C 49.3 63.7 47.6 61.6 47.6 58.3 Z M 55 58.4 C 55 56.4 54.3 55.1 52.6 55.1 C 51.1 55.1 50.3 56.4 50.3 58.3 C 50.3 60.3 51.1 61.4 52.5 61.4 C 54.1 61.4 55 60.2 55 58.4 Z M 58.9 58.3 C 58.9 55.2 61 52.9 64 52.9 C 67.3 52.9 69 55.4 69 59.1 C 69 59.1 61.6 59.1 61.6 59.1 C 61.8 60.6 62.7 61.6 64.2 61.6 C 65.3 61.6 65.9 61.1 66.2 60.4 C 66.2 60.4 68.9 60.4 68.9 60.4 C 68.5 62.2 66.9 63.7 64.2 63.7 C 60.8 63.7 58.9 61.3 58.9 58.3 Z M 61.6 57.2 C 61.6 57.2 66.2 57.2 66.2 57.2 C 66.1 55.9 65.2 55 64 55 C 62.6 55 61.9 55.8 61.6 57.2 Z M 72.9 54.8 C 72.9 54.8 72.96 54.8 73 54.8 C 73.6 53.6 74.3 53 75.5 53 C 75.8 53 76 53.1 76.1 53.1 C 76.12 53.12 76.1 55.5 76.1 55.5 C 76.1 55.5 76.06 55.5 76.1 55.5 C 74.3 55.3 73 56.3 73 58.4 C 73 58.42 73 63.4 73 63.4 L 70.3 63.4 L 70.3 53.2 L 72.9 53.2 L 72.9 54.8 Z M 80.1 53.2 L 81.5 53.2 L 81.5 50 L 84.1 50 L 84.1 53.2 L 85.9 53.2 L 85.9 55 L 84.1 55 C 84.1 55 84.14 60.4 84.1 60.4 C 84.1 61.2 84.6 61.4 85.2 61.4 C 85.5 61.42 86 61.4 86 61.4 L 86 63.4 C 86 63.4 85.34 63.44 84.3 63.4 C 82.9 63.4 81.5 62.9 81.5 61 C 81.48 60.98 81.5 55 81.5 55 L 80.1 55 L 80.1 53.2 Z M 90 54.5 C 90 54.5 90.08 54.5 90.1 54.5 C 90.8 53.4 91.7 52.9 93.1 52.9 C 95.2 52.9 96.6 54.5 96.6 56.7 C 96.6 56.72 96.6 63.4 96.6 63.4 L 93.9 63.4 C 93.9 63.4 93.88 57.12 93.9 57.1 C 93.9 56 93.2 55.2 92.1 55.2 C 90.9 55.2 90 56.2 90 57.6 C 90.02 57.6 90 63.4 90 63.4 L 87.3 63.4 L 87.3 49.1 L 90 49.1 L 90 54.5 Z M 97.8 58.3 C 97.8 55.2 99.8 52.9 102.8 52.9 C 106.1 52.9 107.9 55.4 107.9 59.1 C 107.9 59.1 100.5 59.1 100.5 59.1 C 100.7 60.6 101.5 61.6 103.1 61.6 C 104.1 61.6 104.8 61.1 105.1 60.4 C 105.1 60.4 107.7 60.4 107.7 60.4 C 107.4 62.2 105.7 63.7 103.1 63.7 C 99.7 63.7 97.8 61.3 97.8 58.3 Z M 100.5 57.2 C 100.5 57.2 105.1 57.2 105.1 57.2 C 105 55.9 104.1 55 102.9 55 C 101.4 55 100.7 55.8 100.5 57.2 Z M 112.7 64.6 C 112.7 64.6 113.7 64.64 113.7 64.6 C 114.8 64.6 115.2 64.1 115.2 63.2 C 115.2 62.7 115 62 114.4 60.5 C 114.44 60.46 111.7 53.2 111.7 53.2 L 114.5 53.2 C 114.5 53.2 116.06 57.78 116.1 57.8 C 116.38 58.72 116.7 60 116.7 60 L 116.8 60 C 116.8 60 117.04 58.72 117.4 57.8 C 117.36 57.78 118.8 53.2 118.8 53.2 L 121.5 53.2 C 121.5 53.2 117.96 63.68 118 63.7 C 117.2 66 116.4 66.8 114.3 66.8 C 114.34 66.78 112.7 66.8 112.7 66.8 L 112.7 64.6 Z M 121.7 58.3 C 121.7 55.2 123.8 52.9 127 52.9 C 130.2 52.9 132.4 55.2 132.4 58.3 C 132.4 61.4 130.2 63.7 127 63.7 C 123.8 63.7 121.7 61.4 121.7 58.3 Z M 129.6 58.3 C 129.6 56.3 128.7 54.9 127 54.9 C 125.3 54.9 124.4 56.3 124.4 58.3 C 124.4 60.3 125.3 61.6 127 61.6 C 128.7 61.6 129.6 60.3 129.6 58.3 Z M 140.1 63.4 L 140.1 62.2 C 140.1 62.2 140.06 62.22 140.1 62.2 C 139.4 63.2 138.6 63.7 137.1 63.7 C 134.8 63.7 133.6 62.2 133.6 60 C 133.56 60 133.6 53.2 133.6 53.2 L 136.3 53.2 C 136.3 53.2 136.26 59.54 136.3 59.5 C 136.3 60.7 136.8 61.4 138 61.4 C 139.2 61.4 140 60.4 140 59.1 C 140.02 59.08 140 53.2 140 53.2 L 142.7 53.2 L 142.7 63.4 L 140.1 63.4 Z M 147.2 54.6 C 147.2 54.6 147.22 54.56 147.2 54.6 C 147.9 53.5 148.9 52.9 150.3 52.9 C 152.4 52.9 153.8 54.5 153.8 56.7 C 153.8 56.72 153.8 63.4 153.8 63.4 L 151.1 63.4 C 151.1 63.4 151.08 57.12 151.1 57.1 C 151.1 56 150.4 55.2 149.3 55.2 C 148.1 55.2 147.2 56.2 147.2 57.6 C 147.22 57.6 147.2 63.4 147.2 63.4 L 144.5 63.4 L 144.5 53.2 L 147.2 53.2 L 147.2 54.6 Z M 155.2 63.7 C 155.2 63.7 157.9 63.7 157.9 63.7 C 158.1 64.4 158.7 64.9 160 64.9 C 161.5 64.9 162.2 64.1 162.2 62.7 C 162.24 62.72 162.2 61.6 162.2 61.6 C 162.2 61.6 162.18 61.6 162.2 61.6 C 161.6 62.3 160.8 62.8 159.5 62.8 C 157.2 62.8 155 61 155 57.9 C 155 54.8 156.8 52.9 159.4 52.9 C 160.7 52.9 161.6 53.4 162.3 54.2 C 162.26 54.24 162.3 54.2 162.3 54.2 L 162.3 53.2 L 164.9 53.2 C 164.9 53.2 164.92 62.64 164.9 62.6 C 164.9 64.1 164.5 65.1 163.7 65.8 C 162.8 66.6 161.5 66.9 160 66.9 C 157.2 66.9 155.5 65.7 155.2 63.7 Z M 162.4 57.8 C 162.4 56.3 161.6 55.1 159.9 55.1 C 158.6 55.1 157.6 56.1 157.6 57.9 C 157.6 59.6 158.6 60.6 160 60.6 C 161.7 60.6 162.4 59.4 162.4 57.8 Z M 166.2 58.3 C 166.2 55.2 168.2 52.9 171.2 52.9 C 174.5 52.9 176.3 55.4 176.3 59.1 C 176.3 59.1 168.9 59.1 168.9 59.1 C 169.1 60.6 169.9 61.6 171.5 61.6 C 172.5 61.6 173.2 61.1 173.5 60.4 C 173.5 60.4 176.1 60.4 176.1 60.4 C 175.8 62.2 174.1 63.7 171.5 63.7 C 168.1 63.7 166.2 61.3 166.2 58.3 Z M 168.9 57.2 C 168.9 57.2 173.5 57.2 173.5 57.2 C 173.4 55.9 172.5 55 171.3 55 C 169.8 55 169.1 55.8 168.9 57.2 Z M 176.9 60.1 C 176.9 60.1 179.4 60.1 179.4 60.1 C 179.6 61.3 180.5 61.8 181.7 61.8 C 182.9 61.8 183.6 61.3 183.6 60.6 C 183.6 59.6 182.3 59.5 180.9 59.3 C 179 58.9 177.2 58.4 177.2 56.2 C 177.2 53.9 179.1 52.9 181.4 52.9 C 184.1 52.9 185.6 54.2 185.8 56.3 C 185.8 56.3 183.3 56.3 183.3 56.3 C 183.2 55.2 182.5 54.8 181.4 54.8 C 180.3 54.8 179.6 55.2 179.6 55.9 C 179.6 56.8 181 56.9 182.4 57.2 C 184.1 57.5 186 58 186 60.4 C 186 62.5 184.3 63.7 181.7 63.7 C 178.7 63.7 177.1 62.3 176.9 60.1 Z M 186.5 53.2 L 187.9 53.2 L 187.9 50 L 190.5 50 L 190.5 53.2 L 192.3 53.2 L 192.3 55 L 190.5 55 C 190.5 55 190.54 60.4 190.5 60.4 C 190.5 61.2 191 61.4 191.6 61.4 C 191.9 61.42 192.4 61.4 192.4 61.4 L 192.4 63.4 C 192.4 63.4 191.74 63.44 190.7 63.4 C 189.3 63.4 187.9 62.9 187.9 61 C 187.88 60.98 187.9 55 187.9 55 L 186.5 55 L 186.5 53.2 Z M 197.5 53.5 C 198.1 53.3 198.9 52.7 198.9 51.7 C 198.88 51.72 197.6 51.7 197.6 51.7 L 197.6 49.1 L 200.3 49.1 C 200.3 49.1 200.26 51.48 200.3 51.5 C 200.3 53.3 198.9 54.3 197.5 54.5 C 197.5 54.5 197.5 53.5 197.5 53.5 Z M 193.6 53.5 C 194.2 53.3 194.9 52.7 194.9 51.7 C 194.92 51.72 193.6 51.7 193.6 51.7 L 193.6 49.1 L 196.3 49.1 C 196.3 49.1 196.3 51.48 196.3 51.5 C 196.3 53.3 194.9 54.3 193.6 54.5 C 193.6 54.5 193.6 53.5 193.6 53.5 Z " stroke="none" fill="#000"/>  </g>  <g id="Polygon7526">    <path d="M 0.4 34.3 C 0.4 31.2 2.6 28.9 5.7 28.9 C 8.9 28.9 11.1 31.2 11.1 34.3 C 11.1 37.4 8.9 39.7 5.7 39.7 C 2.6 39.7 0.4 37.4 0.4 34.3 Z M 8.3 34.3 C 8.3 32.3 7.4 30.9 5.7 30.9 C 4.1 30.9 3.1 32.3 3.1 34.3 C 3.1 36.3 4.1 37.6 5.7 37.6 C 7.4 37.6 8.3 36.3 8.3 34.3 Z M 18.8 39.4 L 18.8 38.2 C 18.8 38.2 18.78 38.22 18.8 38.2 C 18.1 39.2 17.3 39.7 15.8 39.7 C 13.6 39.7 12.3 38.2 12.3 36 C 12.28 36 12.3 29.2 12.3 29.2 L 15 29.2 C 15 29.2 14.98 35.54 15 35.5 C 15 36.7 15.5 37.4 16.7 37.4 C 18 37.4 18.7 36.4 18.7 35.1 C 18.74 35.08 18.7 29.2 18.7 29.2 L 21.5 29.2 L 21.5 39.4 L 18.8 39.4 Z M 25.8 30.8 C 25.8 30.8 25.9 30.8 25.9 30.8 C 26.5 29.6 27.2 29 28.4 29 C 28.7 29 28.9 29.1 29.1 29.1 C 29.06 29.12 29.1 31.5 29.1 31.5 C 29.1 31.5 29 31.5 29 31.5 C 27.2 31.3 25.9 32.3 25.9 34.4 C 25.94 34.42 25.9 39.4 25.9 39.4 L 23.2 39.4 L 23.2 29.2 L 25.8 29.2 L 25.8 30.8 Z M 33.1 34.3 C 33.1 31.2 35.3 28.9 38.5 28.9 C 41.6 28.9 43.8 31.2 43.8 34.3 C 43.8 37.4 41.6 39.7 38.5 39.7 C 35.3 39.7 33.1 37.4 33.1 34.3 Z M 41.1 34.3 C 41.1 32.3 40.1 30.9 38.5 30.9 C 36.8 30.9 35.9 32.3 35.9 34.3 C 35.9 36.3 36.8 37.6 38.5 37.6 C 40.1 37.6 41.1 36.3 41.1 34.3 Z M 45.1 25.1 L 47.8 25.1 L 47.8 39.4 L 45.1 39.4 L 45.1 25.1 Z M 49.1 34.3 C 49.1 31.1 51 28.9 53.5 28.9 C 55 28.9 55.9 29.5 56.4 30.4 C 56.42 30.4 56.5 30.4 56.5 30.4 L 56.5 25.1 L 59.2 25.1 L 59.2 39.4 L 56.6 39.4 L 56.6 38.1 C 56.6 38.1 56.54 38.08 56.5 38.1 C 55.9 39.1 54.9 39.7 53.5 39.7 C 50.9 39.7 49.1 37.6 49.1 34.3 Z M 56.5 34.4 C 56.5 32.4 55.9 31.1 54.2 31.1 C 52.7 31.1 51.9 32.4 51.9 34.3 C 51.9 36.3 52.7 37.4 54.1 37.4 C 55.7 37.4 56.5 36.2 56.5 34.4 Z M 60.5 34.3 C 60.5 31.2 62.5 28.9 65.5 28.9 C 68.8 28.9 70.6 31.4 70.6 35.1 C 70.6 35.1 63.1 35.1 63.1 35.1 C 63.3 36.6 64.2 37.6 65.8 37.6 C 66.8 37.6 67.4 37.1 67.7 36.4 C 67.7 36.4 70.4 36.4 70.4 36.4 C 70 38.2 68.4 39.7 65.8 39.7 C 62.4 39.7 60.5 37.3 60.5 34.3 Z M 63.2 33.2 C 63.2 33.2 67.7 33.2 67.7 33.2 C 67.7 31.9 66.8 31 65.6 31 C 64.1 31 63.4 31.8 63.2 33.2 Z M 71.2 36.1 C 71.2 36.1 73.7 36.1 73.7 36.1 C 73.9 37.3 74.7 37.8 76 37.8 C 77.2 37.8 77.8 37.3 77.8 36.6 C 77.8 35.6 76.5 35.5 75.1 35.3 C 73.3 34.9 71.5 34.4 71.5 32.2 C 71.5 29.9 73.3 28.9 75.7 28.9 C 78.4 28.9 79.9 30.2 80.1 32.3 C 80.1 32.3 77.6 32.3 77.6 32.3 C 77.5 31.2 76.8 30.8 75.6 30.8 C 74.6 30.8 73.9 31.2 73.9 31.9 C 73.9 32.8 75.2 32.9 76.7 33.2 C 78.4 33.5 80.3 34 80.3 36.4 C 80.3 38.5 78.6 39.7 76 39.7 C 73 39.7 71.4 38.3 71.2 36.1 Z M 80.7 29.2 L 82.2 29.2 L 82.2 26 L 84.8 26 L 84.8 29.2 L 86.6 29.2 L 86.6 31 L 84.8 31 C 84.8 31 84.82 36.4 84.8 36.4 C 84.8 37.2 85.2 37.4 85.8 37.4 C 86.18 37.42 86.6 37.4 86.6 37.4 L 86.6 39.4 C 86.6 39.4 86.02 39.44 84.9 39.4 C 83.6 39.4 82.2 38.9 82.2 37 C 82.16 36.98 82.2 31 82.2 31 L 80.7 31 L 80.7 29.2 Z M 90.8 34.3 C 90.8 31.2 92.8 28.9 96 28.9 C 98.6 28.9 100.3 30.4 100.6 32.6 C 100.6 32.6 98 32.6 98 32.6 C 97.8 31.7 97.1 31.1 96.1 31.1 C 94.4 31.1 93.6 32.3 93.6 34.3 C 93.6 36.2 94.4 37.5 96 37.5 C 97.1 37.5 97.9 37 98.1 35.8 C 98.1 35.8 100.7 35.8 100.7 35.8 C 100.5 38 98.8 39.7 96.1 39.7 C 92.9 39.7 90.8 37.4 90.8 34.3 Z M 104.6 30.5 C 104.6 30.5 104.68 30.5 104.7 30.5 C 105.4 29.4 106.3 28.9 107.7 28.9 C 109.8 28.9 111.2 30.5 111.2 32.7 C 111.2 32.72 111.2 39.4 111.2 39.4 L 108.5 39.4 C 108.5 39.4 108.48 33.12 108.5 33.1 C 108.5 32 107.8 31.2 106.7 31.2 C 105.5 31.2 104.6 32.2 104.6 33.6 C 104.62 33.6 104.6 39.4 104.6 39.4 L 101.9 39.4 L 101.9 25.1 L 104.6 25.1 L 104.6 30.5 Z M 112.9 29.2 L 115.6 29.2 L 115.6 39.4 L 112.9 39.4 L 112.9 29.2 Z M 112.9 25.1 L 115.6 25.1 L 115.6 27.6 L 112.9 27.6 L 112.9 25.1 Z M 117.4 25.1 L 120.1 25.1 L 120.1 39.4 L 117.4 39.4 L 117.4 25.1 Z M 121.4 34.3 C 121.4 31.1 123.2 28.9 125.8 28.9 C 127.2 28.9 128.1 29.5 128.7 30.4 C 128.7 30.4 128.8 30.4 128.8 30.4 L 128.8 25.1 L 131.5 25.1 L 131.5 39.4 L 128.9 39.4 L 128.9 38.1 C 128.9 38.1 128.82 38.08 128.8 38.1 C 128.2 39.1 127.2 39.7 125.8 39.7 C 123.2 39.7 121.4 37.6 121.4 34.3 Z M 128.8 34.4 C 128.8 32.4 128.2 31.1 126.4 31.1 C 124.9 31.1 124.2 32.4 124.2 34.3 C 124.2 36.3 125 37.4 126.4 37.4 C 128 37.4 128.8 36.2 128.8 34.4 Z M 133.1 41.8 C 133.9 41.4 134.5 40.7 134.5 39.4 C 134.54 39.42 133.1 39.4 133.1 39.4 L 133.1 36.5 L 136 36.5 C 136 36.5 136 39.26 136 39.3 C 136 41.3 134.6 42.5 133.1 42.7 C 133.1 42.7 133.1 41.8 133.1 41.8 Z M 141.2 40.6 C 141.2 40.6 142.14 40.64 142.1 40.6 C 143.2 40.6 143.7 40.1 143.7 39.2 C 143.7 38.7 143.5 38 142.9 36.5 C 142.88 36.46 140.1 29.2 140.1 29.2 L 143 29.2 C 143 29.2 144.5 33.78 144.5 33.8 C 144.82 34.72 145.2 36 145.2 36 L 145.2 36 C 145.2 36 145.48 34.72 145.8 33.8 C 145.8 33.78 147.2 29.2 147.2 29.2 L 150 29.2 C 150 29.2 146.4 39.68 146.4 39.7 C 145.6 42 144.9 42.8 142.8 42.8 C 142.78 42.78 141.2 42.8 141.2 42.8 L 141.2 40.6 Z M 150.1 34.3 C 150.1 31.2 152.3 28.9 155.5 28.9 C 158.6 28.9 160.8 31.2 160.8 34.3 C 160.8 37.4 158.6 39.7 155.5 39.7 C 152.3 39.7 150.1 37.4 150.1 34.3 Z M 158.1 34.3 C 158.1 32.3 157.1 30.9 155.5 30.9 C 153.8 30.9 152.9 32.3 152.9 34.3 C 152.9 36.3 153.8 37.6 155.5 37.6 C 157.1 37.6 158.1 36.3 158.1 34.3 Z M 168.6 39.4 L 168.6 38.2 C 168.6 38.2 168.5 38.22 168.5 38.2 C 167.8 39.2 167 39.7 165.6 39.7 C 163.3 39.7 162 38.2 162 36 C 162 36 162 29.2 162 29.2 L 164.7 29.2 C 164.7 29.2 164.7 35.54 164.7 35.5 C 164.7 36.7 165.2 37.4 166.4 37.4 C 167.7 37.4 168.5 36.4 168.5 35.1 C 168.46 35.08 168.5 29.2 168.5 29.2 L 171.2 29.2 L 171.2 39.4 L 168.6 39.4 Z M 179 30.5 C 179 30.5 179.08 30.5 179.1 30.5 C 179.8 29.4 180.7 28.9 182.1 28.9 C 184.2 28.9 185.6 30.5 185.6 32.7 C 185.6 32.72 185.6 39.4 185.6 39.4 L 182.9 39.4 C 182.9 39.4 182.88 33.12 182.9 33.1 C 182.9 32 182.2 31.2 181.1 31.2 C 179.9 31.2 179 32.2 179 33.6 C 179.02 33.6 179 39.4 179 39.4 L 176.3 39.4 L 176.3 25.1 L 179 25.1 L 179 30.5 Z M 193.4 38.3 C 193.4 38.3 193.4 38.3 193.4 38.3 C 192.9 39.1 192.1 39.7 190.4 39.7 C 188.3 39.7 186.8 38.6 186.8 36.5 C 186.8 34.3 188.6 33.5 190.9 33.2 C 192.6 33 193.4 32.8 193.4 32.1 C 193.4 31.3 192.8 30.8 191.7 30.8 C 190.4 30.8 189.8 31.3 189.7 32.3 C 189.7 32.3 187.3 32.3 187.3 32.3 C 187.3 30.5 188.7 28.9 191.7 28.9 C 194.8 28.9 196 30.3 196 32.7 C 196 32.7 196 37.9 196 37.9 C 196 38.7 196.1 39.1 196.4 39.3 C 196.36 39.32 196.4 39.4 196.4 39.4 C 196.4 39.4 193.74 39.42 193.7 39.4 C 193.6 39.2 193.5 38.7 193.4 38.3 Z M 193.4 35.8 C 193.4 35.8 193.4 34.3 193.4 34.3 C 193 34.5 192.2 34.7 191.5 34.9 C 190.1 35.2 189.4 35.5 189.4 36.5 C 189.4 37.4 190.1 37.8 191 37.8 C 192.6 37.8 193.4 36.8 193.4 35.8 Z M 196.8 29.2 L 199.5 29.2 C 199.5 29.2 201.18 34.48 201.2 34.5 C 201.48 35.46 201.6 36.1 201.6 36.1 L 201.7 36.1 C 201.7 36.1 201.82 35.46 202.1 34.5 C 202.12 34.48 203.8 29.2 203.8 29.2 L 206.5 29.2 L 202.9 39.4 L 200.3 39.4 L 196.8 29.2 Z M 206.6 34.3 C 206.6 31.2 208.7 28.9 211.7 28.9 C 215 28.9 216.8 31.4 216.8 35.1 C 216.8 35.1 209.3 35.1 209.3 35.1 C 209.5 36.6 210.4 37.6 211.9 37.6 C 213 37.6 213.6 37.1 213.9 36.4 C 213.9 36.4 216.6 36.4 216.6 36.4 C 216.2 38.2 214.6 39.7 212 39.7 C 208.6 39.7 206.6 37.3 206.6 34.3 Z M 209.4 33.2 C 209.4 33.2 213.9 33.2 213.9 33.2 C 213.8 31.9 213 31 211.7 31 C 210.3 31 209.6 31.8 209.4 33.2 Z M 220.8 29.2 L 222.2 29.2 L 222.2 26 L 224.9 26 L 224.9 29.2 L 226.6 29.2 L 226.6 31 L 224.9 31 C 224.9 31 224.86 36.4 224.9 36.4 C 224.9 37.2 225.3 37.4 225.9 37.4 C 226.22 37.42 226.7 37.4 226.7 37.4 L 226.7 39.4 C 226.7 39.4 226.06 39.44 225 39.4 C 223.7 39.4 222.2 38.9 222.2 37 C 222.2 36.98 222.2 31 222.2 31 L 220.8 31 L 220.8 29.2 Z M 227.4 34.3 C 227.4 31.2 229.6 28.9 232.8 28.9 C 236 28.9 238.1 31.2 238.1 34.3 C 238.1 37.4 236 39.7 232.8 39.7 C 229.6 39.7 227.4 37.4 227.4 34.3 Z M 235.4 34.3 C 235.4 32.3 234.4 30.9 232.8 30.9 C 231.1 30.9 230.2 32.3 230.2 34.3 C 230.2 36.3 231.1 37.6 232.8 37.6 C 234.4 37.6 235.4 36.3 235.4 34.3 Z " stroke="none" fill="#000"/>  </g>  <g id="Polygon7525">    <path d="M 4.6 4.1 C 4.6 2.2 6 1.3 7.3 1.1 C 7.3 1.1 7.3 2 7.3 2 C 6.7 2.2 6 2.8 6 3.8 C 5.98 3.82 7.3 3.8 7.3 3.8 L 7.3 6.4 L 4.6 6.4 C 4.6 6.4 4.6 4.06 4.6 4.1 Z M 0.6 4.1 C 0.6 2.2 2 1.3 3.4 1.1 C 3.4 1.1 3.4 2 3.4 2 C 2.8 2.2 2 2.8 2 3.8 C 2.02 3.82 3.3 3.8 3.3 3.8 L 3.3 6.4 L 0.6 6.4 C 0.6 6.4 0.64 4.06 0.6 4.1 Z M 9.1 1.1 L 19.6 1.1 L 19.6 3.6 L 12 3.6 L 12 6.8 L 18.7 6.8 L 18.7 9.1 L 12 9.1 L 12 13 L 19.7 13 L 19.7 15.4 L 9.1 15.4 L 9.1 1.1 Z M 19.9 5.2 L 22.7 5.2 C 22.7 5.2 24.3 10.48 24.3 10.5 C 24.6 11.46 24.8 12.1 24.8 12.1 L 24.8 12.1 C 24.8 12.1 24.94 11.46 25.2 10.5 C 25.24 10.48 26.9 5.2 26.9 5.2 L 29.6 5.2 L 26.1 15.4 L 23.5 15.4 L 19.9 5.2 Z M 29.8 10.3 C 29.8 7.2 31.8 4.9 34.8 4.9 C 38.1 4.9 39.9 7.4 39.9 11.1 C 39.9 11.1 32.4 11.1 32.4 11.1 C 32.6 12.6 33.5 13.6 35.1 13.6 C 36.1 13.6 36.7 13.1 37 12.4 C 37 12.4 39.7 12.4 39.7 12.4 C 39.3 14.2 37.7 15.7 35.1 15.7 C 31.7 15.7 29.8 13.3 29.8 10.3 Z M 32.5 9.2 C 32.5 9.2 37 9.2 37 9.2 C 37 7.9 36.1 7 34.9 7 C 33.4 7 32.7 7.8 32.5 9.2 Z M 43.8 6.6 C 43.8 6.6 43.86 6.56 43.9 6.6 C 44.6 5.5 45.5 4.9 46.9 4.9 C 49 4.9 50.4 6.5 50.4 8.7 C 50.44 8.72 50.4 15.4 50.4 15.4 L 47.7 15.4 C 47.7 15.4 47.72 9.12 47.7 9.1 C 47.7 8 47.1 7.2 45.9 7.2 C 44.7 7.2 43.9 8.2 43.9 9.6 C 43.86 9.6 43.9 15.4 43.9 15.4 L 41.1 15.4 L 41.1 5.2 L 43.8 5.2 L 43.8 6.6 Z M 55.5 5.2 L 58.2 5.2 L 58.2 15.4 L 55.5 15.4 L 55.5 5.2 Z M 55.5 1.1 L 58.2 1.1 L 58.2 3.6 L 55.5 3.6 L 55.5 1.1 Z M 59.4 5.2 L 60.8 5.2 C 60.8 5.2 60.76 4.24 60.8 4.2 C 60.8 1.7 62.7 0.9 65.3 1.1 C 65.3 1.1 65.3 3.2 65.3 3.2 C 64 3.2 63.5 3.3 63.5 4.4 C 63.48 4.4 63.5 5.2 63.5 5.2 L 65.3 5.2 L 65.3 7 L 63.5 7 L 63.5 15.4 L 60.8 15.4 L 60.8 7 L 59.4 7 L 59.4 5.2 Z M 70.2 1.1 L 73.1 1.1 L 73.1 15.4 L 70.2 15.4 L 70.2 1.1 Z M 74.8 5.5 C 75.4 5.3 76.2 4.7 76.2 3.7 C 76.18 3.72 74.9 3.7 74.9 3.7 L 74.9 1.1 L 77.6 1.1 C 77.6 1.1 77.56 3.48 77.6 3.5 C 77.6 5.3 76.2 6.3 74.8 6.5 C 74.8 6.5 74.8 5.5 74.8 5.5 Z M 79 5.2 L 81.6 5.2 L 81.6 6.5 C 81.6 6.5 81.66 6.54 81.7 6.5 C 82.2 5.6 83.2 4.9 84.6 4.9 C 85.9 4.9 87 5.6 87.5 6.7 C 87.5 6.7 87.5 6.7 87.5 6.7 C 88.2 5.6 89.3 4.9 90.6 4.9 C 92.8 4.9 94 6.3 94 8.5 C 93.98 8.52 94 15.4 94 15.4 L 91.3 15.4 C 91.3 15.4 91.26 8.98 91.3 9 C 91.3 7.8 90.7 7.2 89.7 7.2 C 88.5 7.2 87.8 8.1 87.8 9.5 C 87.84 9.46 87.8 15.4 87.8 15.4 L 85.1 15.4 C 85.1 15.4 85.12 8.98 85.1 9 C 85.1 7.8 84.5 7.2 83.5 7.2 C 82.4 7.2 81.7 8.1 81.7 9.5 C 81.7 9.46 81.7 15.4 81.7 15.4 L 79 15.4 L 79 5.2 Z M 101.7 14.1 C 101.68 14.14 101.6 14.1 101.6 14.1 L 101.6 15.4 L 99 15.4 L 99 1.1 L 101.7 1.1 L 101.7 6.4 C 101.7 6.4 101.8 6.4 101.8 6.4 C 102.4 5.5 103.2 4.9 104.7 4.9 C 107.2 4.9 109.1 7.1 109.1 10.3 C 109.1 13.6 107.3 15.7 104.7 15.7 C 103.3 15.7 102.3 15.1 101.7 14.1 Z M 106.3 10.3 C 106.3 8.4 105.6 7.1 104 7.1 C 102.3 7.1 101.7 8.5 101.7 10.4 C 101.7 12.2 102.6 13.4 104.1 13.4 C 105.5 13.4 106.3 12.3 106.3 10.3 Z M 116.8 15.4 L 116.8 14.2 C 116.8 14.2 116.76 14.22 116.8 14.2 C 116.1 15.2 115.3 15.7 113.8 15.7 C 111.5 15.7 110.3 14.2 110.3 12 C 110.26 12 110.3 5.2 110.3 5.2 L 113 5.2 C 113 5.2 112.96 11.54 113 11.5 C 113 12.7 113.5 13.4 114.7 13.4 C 115.9 13.4 116.7 12.4 116.7 11.1 C 116.72 11.08 116.7 5.2 116.7 5.2 L 119.4 5.2 L 119.4 15.4 L 116.8 15.4 Z M 121.4 16.6 C 121.4 16.6 122.38 16.64 122.4 16.6 C 123.5 16.6 123.9 16.1 123.9 15.2 C 123.9 14.7 123.7 14 123.1 12.5 C 123.12 12.46 120.4 5.2 120.4 5.2 L 123.2 5.2 C 123.2 5.2 124.74 9.78 124.7 9.8 C 125.06 10.72 125.4 12 125.4 12 L 125.4 12 C 125.4 12 125.72 10.72 126 9.8 C 126.04 9.78 127.5 5.2 127.5 5.2 L 130.2 5.2 C 130.2 5.2 126.64 15.68 126.6 15.7 C 125.9 18 125.1 18.8 123 18.8 C 123.02 18.78 121.4 18.8 121.4 18.8 L 121.4 16.6 Z M 131.1 5.2 L 133.9 5.2 L 133.9 15.4 L 131.1 15.4 L 131.1 5.2 Z M 131.1 1.1 L 133.9 1.1 L 133.9 3.6 L 131.1 3.6 L 131.1 1.1 Z M 138.3 6.6 C 138.3 6.6 138.34 6.56 138.3 6.6 C 139 5.5 140 4.9 141.4 4.9 C 143.5 4.9 144.9 6.5 144.9 8.7 C 144.92 8.72 144.9 15.4 144.9 15.4 L 142.2 15.4 C 142.2 15.4 142.2 9.12 142.2 9.1 C 142.2 8 141.6 7.2 140.4 7.2 C 139.2 7.2 138.3 8.2 138.3 9.6 C 138.34 9.6 138.3 15.4 138.3 15.4 L 135.6 15.4 L 135.6 5.2 L 138.3 5.2 L 138.3 6.6 Z M 146.3 15.7 C 146.3 15.7 149 15.7 149 15.7 C 149.2 16.4 149.8 16.9 151.1 16.9 C 152.6 16.9 153.4 16.1 153.4 14.7 C 153.36 14.72 153.4 13.6 153.4 13.6 C 153.4 13.6 153.3 13.6 153.3 13.6 C 152.7 14.3 151.9 14.8 150.6 14.8 C 148.3 14.8 146.1 13 146.1 9.9 C 146.1 6.8 147.9 4.9 150.5 4.9 C 151.8 4.9 152.8 5.4 153.4 6.2 C 153.38 6.24 153.4 6.2 153.4 6.2 L 153.4 5.2 L 156 5.2 C 156 5.2 156.04 14.64 156 14.6 C 156 16.1 155.6 17.1 154.8 17.8 C 154 18.6 152.6 18.9 151.1 18.9 C 148.3 18.9 146.6 17.7 146.3 15.7 Z M 153.5 9.8 C 153.5 8.3 152.7 7.1 151.1 7.1 C 149.7 7.1 148.8 8.1 148.8 9.9 C 148.8 11.6 149.7 12.6 151.1 12.6 C 152.8 12.6 153.5 11.4 153.5 9.8 Z M 167.3 14.3 C 167.3 14.3 167.3 14.3 167.3 14.3 C 166.7 15.1 166 15.7 164.2 15.7 C 162.1 15.7 160.7 14.6 160.7 12.5 C 160.7 10.3 162.5 9.5 164.8 9.2 C 166.5 9 167.3 8.8 167.3 8.1 C 167.3 7.3 166.7 6.8 165.5 6.8 C 164.3 6.8 163.6 7.3 163.6 8.3 C 163.6 8.3 161.1 8.3 161.1 8.3 C 161.2 6.5 162.6 4.9 165.6 4.9 C 168.6 4.9 169.9 6.3 169.9 8.7 C 169.9 8.7 169.9 13.9 169.9 13.9 C 169.9 14.7 170 15.1 170.2 15.3 C 170.24 15.32 170.2 15.4 170.2 15.4 C 170.2 15.4 167.62 15.42 167.6 15.4 C 167.5 15.2 167.4 14.7 167.3 14.3 Z M 167.3 11.8 C 167.3 11.8 167.3 10.3 167.3 10.3 C 166.8 10.5 166.1 10.7 165.4 10.9 C 164 11.2 163.3 11.5 163.3 12.5 C 163.3 13.4 163.9 13.8 164.9 13.8 C 166.5 13.8 167.3 12.8 167.3 11.8 Z M 174.4 5.2 L 175.8 5.2 L 175.8 2 L 178.4 2 L 178.4 5.2 L 180.2 5.2 L 180.2 7 L 178.4 7 C 178.4 7 178.44 12.4 178.4 12.4 C 178.4 13.2 178.9 13.4 179.5 13.4 C 179.8 13.42 180.3 13.4 180.3 13.4 L 180.3 15.4 C 180.3 15.4 179.64 15.44 178.6 15.4 C 177.2 15.4 175.8 14.9 175.8 13 C 175.78 12.98 175.8 7 175.8 7 L 174.4 7 L 174.4 5.2 Z M 181 10.3 C 181 7.2 183.2 4.9 186.4 4.9 C 189.5 4.9 191.7 7.2 191.7 10.3 C 191.7 13.4 189.5 15.7 186.4 15.7 C 183.2 15.7 181 13.4 181 10.3 Z M 189 10.3 C 189 8.3 188 6.9 186.4 6.9 C 184.7 6.9 183.8 8.3 183.8 10.3 C 183.8 12.3 184.7 13.6 186.4 13.6 C 188 13.6 189 12.3 189 10.3 Z M 192.9 16.6 C 192.9 16.6 193.86 16.64 193.9 16.6 C 194.9 16.6 195.4 16.1 195.4 15.2 C 195.4 14.7 195.2 14 194.6 12.5 C 194.6 12.46 191.8 5.2 191.8 5.2 L 194.7 5.2 C 194.7 5.2 196.22 9.78 196.2 9.8 C 196.54 10.72 196.9 12 196.9 12 L 196.9 12 C 196.9 12 197.2 10.72 197.5 9.8 C 197.52 9.78 199 5.2 199 5.2 L 201.7 5.2 C 201.7 5.2 198.12 15.68 198.1 15.7 C 197.3 18 196.6 18.8 194.5 18.8 C 194.5 18.78 192.9 18.8 192.9 18.8 L 192.9 16.6 Z M 205.4 5.2 L 206.8 5.2 C 206.8 5.2 206.78 4.24 206.8 4.2 C 206.8 1.7 208.7 0.9 211.3 1.1 C 211.3 1.1 211.3 3.2 211.3 3.2 C 210.1 3.2 209.5 3.3 209.5 4.4 C 209.5 4.4 209.5 5.2 209.5 5.2 L 211.3 5.2 L 211.3 7 L 209.5 7 L 209.5 15.4 L 206.8 15.4 L 206.8 7 L 205.4 7 L 205.4 5.2 Z M 211.8 10.3 C 211.8 7.2 214 4.9 217.1 4.9 C 220.3 4.9 222.5 7.2 222.5 10.3 C 222.5 13.4 220.3 15.7 217.1 15.7 C 214 15.7 211.8 13.4 211.8 10.3 Z M 219.7 10.3 C 219.7 8.3 218.8 6.9 217.1 6.9 C 215.5 6.9 214.5 8.3 214.5 10.3 C 214.5 12.3 215.5 13.6 217.1 13.6 C 218.8 13.6 219.7 12.3 219.7 10.3 Z M 226.4 6.8 C 226.4 6.8 226.44 6.8 226.4 6.8 C 227.1 5.6 227.8 5 229 5 C 229.3 5 229.4 5.1 229.6 5.1 C 229.6 5.12 229.6 7.5 229.6 7.5 C 229.6 7.5 229.54 7.5 229.5 7.5 C 227.8 7.3 226.5 8.3 226.5 10.4 C 226.48 10.42 226.5 15.4 226.5 15.4 L 223.8 15.4 L 223.8 5.2 L 226.4 5.2 L 226.4 6.8 Z " stroke="none" fill="#000"/>  </g></svg>