<?xml version="1.0" standalone="no"?><!DOCTYPE svg PUBLIC "-//W3C//DTD SVG 1.1//EN" "http://www.w3.org/Graphics/SVG/1.1/DTD/svg11.dtd"><svg xmlns="http://www.w3.org/2000/svg" version="1.1" width="300px" height="28.2px" viewBox="0 -3 300 28.2" style="top:-3px">  <desc>Smart Bike Stem AutoDesk Fusion</desc>  <defs/>  <g id="Polygon9452">    <path d="M 0.3 7.7 C 0.3 7.7 2.3 7.7 2.3 7.7 C 2.4 8.9 3.1 9.4 4.6 9.4 C 5.6 9.4 6.5 9 6.5 8.1 C 6.5 7.1 5.6 6.9 4 6.6 C 2.2 6.2 0.6 5.7 0.6 3.6 C 0.6 1.6 2.2 0.6 4.4 0.6 C 6.7 0.6 8.1 1.7 8.3 3.7 C 8.3 3.7 6.4 3.7 6.4 3.7 C 6.2 2.7 5.5 2.2 4.4 2.2 C 3.3 2.2 2.6 2.7 2.6 3.4 C 2.6 4.2 3.3 4.4 4.8 4.8 C 6.9 5.2 8.5 5.7 8.5 7.9 C 8.5 9.9 6.9 11 4.6 11 C 1.9 11 0.4 9.8 0.3 7.7 Z M 9.6 3.6 L 11.4 3.6 L 11.4 4.6 C 11.4 4.6 11.48 4.58 11.5 4.6 C 11.9 3.9 12.6 3.4 13.6 3.4 C 14.5 3.4 15.2 3.9 15.6 4.7 C 15.6 4.7 15.6 4.7 15.6 4.7 C 16.1 3.9 16.8 3.4 17.7 3.4 C 19.2 3.4 20.1 4.4 20.1 6 C 20.1 5.96 20.1 10.8 20.1 10.8 L 18.2 10.8 C 18.2 10.8 18.2 6.29 18.2 6.3 C 18.2 5.5 17.8 5.1 17.1 5.1 C 16.3 5.1 15.8 5.7 15.8 6.6 C 15.81 6.62 15.8 10.8 15.8 10.8 L 13.9 10.8 C 13.9 10.8 13.9 6.29 13.9 6.3 C 13.9 5.5 13.5 5.1 12.8 5.1 C 12 5.1 11.5 5.7 11.5 6.6 C 11.51 6.62 11.5 10.8 11.5 10.8 L 9.6 10.8 L 9.6 3.6 Z M 25.6 10 C 25.6 10 25.6 10 25.6 10 C 25.2 10.5 24.7 11 23.4 11 C 22 11 20.9 10.2 20.9 8.8 C 20.9 7.2 22.2 6.7 23.8 6.5 C 25 6.3 25.6 6.2 25.6 5.6 C 25.6 5.1 25.1 4.8 24.3 4.8 C 23.4 4.8 23 5.1 23 5.8 C 23 5.8 21.3 5.8 21.3 5.8 C 21.3 4.5 22.3 3.4 24.4 3.4 C 26.5 3.4 27.4 4.4 27.4 6.1 C 27.4 6.1 27.4 9.7 27.4 9.7 C 27.4 10.3 27.5 10.6 27.6 10.7 C 27.64 10.72 27.6 10.8 27.6 10.8 C 27.6 10.8 25.8 10.79 25.8 10.8 C 25.7 10.7 25.6 10.3 25.6 10 Z M 25.6 8.3 C 25.6 8.3 25.6 7.2 25.6 7.2 C 25.3 7.4 24.7 7.5 24.3 7.6 C 23.3 7.8 22.8 8.1 22.8 8.7 C 22.8 9.4 23.2 9.6 23.9 9.6 C 25 9.6 25.6 9 25.6 8.3 Z M 30.4 4.8 C 30.4 4.8 30.46 4.76 30.5 4.8 C 30.9 3.9 31.4 3.5 32.2 3.5 C 32.4 3.5 32.6 3.5 32.7 3.6 C 32.67 3.58 32.7 5.3 32.7 5.3 C 32.7 5.3 32.63 5.25 32.6 5.3 C 31.4 5.1 30.5 5.8 30.5 7.3 C 30.49 7.29 30.5 10.8 30.5 10.8 L 28.6 10.8 L 28.6 3.6 L 30.4 3.6 L 30.4 4.8 Z M 33.2 3.6 L 34.1 3.6 L 34.1 1.4 L 36 1.4 L 36 3.6 L 37.2 3.6 L 37.2 4.9 L 36 4.9 C 36 4.9 36.01 8.67 36 8.7 C 36 9.2 36.3 9.4 36.7 9.4 C 36.96 9.38 37.3 9.4 37.3 9.4 L 37.3 10.8 C 37.3 10.8 36.85 10.79 36.1 10.8 C 35.2 10.8 34.1 10.4 34.1 9.1 C 34.15 9.07 34.1 4.9 34.1 4.9 L 33.2 4.9 L 33.2 3.6 Z M 40.7 0.8 C 40.7 0.8 45.21 0.78 45.2 0.8 C 46.3 0.8 47.1 1.1 47.6 1.5 C 48.2 2 48.4 2.6 48.4 3.4 C 48.4 4.4 47.8 5.1 46.9 5.4 C 46.9 5.4 46.9 5.4 46.9 5.4 C 48 5.8 48.7 6.7 48.7 7.9 C 48.7 8.8 48.4 9.5 47.8 10 C 47.3 10.5 46.4 10.8 45.3 10.8 C 45.32 10.79 40.7 10.8 40.7 10.8 L 40.7 0.8 Z M 42.8 9.1 C 42.8 9.1 45.09 9.11 45.1 9.1 C 46.1 9.1 46.7 8.6 46.7 7.8 C 46.7 6.8 46 6.3 45 6.3 C 45.04 6.31 42.8 6.3 42.8 6.3 L 42.8 9.1 Z M 45 4.8 C 45.8 4.8 46.4 4.4 46.4 3.6 C 46.4 2.9 45.9 2.4 45 2.4 C 45 2.44 42.8 2.4 42.8 2.4 L 42.8 4.8 C 42.8 4.8 44.95 4.82 45 4.8 Z M 49.8 3.6 L 51.7 3.6 L 51.7 10.8 L 49.8 10.8 L 49.8 3.6 Z M 49.8 0.8 L 51.7 0.8 L 51.7 2.5 L 49.8 2.5 L 49.8 0.8 Z M 55.6 7.5 L 54.8 8.4 L 54.8 10.8 L 52.9 10.8 L 52.9 0.8 L 54.8 0.8 L 54.8 6.3 L 57.3 3.6 L 59.6 3.6 L 57 6.3 L 59.9 10.8 L 57.6 10.8 L 55.6 7.5 Z M 59.7 7.2 C 59.7 5.1 61.1 3.4 63.2 3.4 C 65.5 3.4 66.8 5.2 66.8 7.7 C 66.8 7.7 61.6 7.7 61.6 7.7 C 61.7 8.8 62.3 9.5 63.4 9.5 C 64.1 9.5 64.6 9.2 64.8 8.7 C 64.8 8.7 66.7 8.7 66.7 8.7 C 66.4 9.9 65.3 11 63.4 11 C 61 11 59.7 9.3 59.7 7.2 Z M 61.6 6.4 C 61.6 6.4 64.8 6.4 64.8 6.4 C 64.7 5.5 64.1 4.9 63.3 4.9 C 62.3 4.9 61.8 5.5 61.6 6.4 Z M 69.7 7.7 C 69.7 7.7 71.7 7.7 71.7 7.7 C 71.8 8.9 72.5 9.4 74 9.4 C 75 9.4 75.9 9 75.9 8.1 C 75.9 7.1 75 6.9 73.4 6.6 C 71.6 6.2 70 5.7 70 3.6 C 70 1.6 71.6 0.6 73.8 0.6 C 76.1 0.6 77.5 1.7 77.7 3.7 C 77.7 3.7 75.8 3.7 75.8 3.7 C 75.6 2.7 74.9 2.2 73.8 2.2 C 72.7 2.2 72 2.7 72 3.4 C 72 4.2 72.7 4.4 74.2 4.8 C 76.3 5.2 77.9 5.7 77.9 7.9 C 77.9 9.9 76.3 11 74 11 C 71.3 11 69.8 9.8 69.7 7.7 Z M 78.5 3.6 L 79.5 3.6 L 79.5 1.4 L 81.4 1.4 L 81.4 3.6 L 82.6 3.6 L 82.6 4.9 L 81.4 4.9 C 81.4 4.9 81.37 8.67 81.4 8.7 C 81.4 9.2 81.7 9.4 82.1 9.4 C 82.32 9.38 82.6 9.4 82.6 9.4 L 82.6 10.8 C 82.6 10.8 82.21 10.79 81.5 10.8 C 80.5 10.8 79.5 10.4 79.5 9.1 C 79.51 9.07 79.5 4.9 79.5 4.9 L 78.5 4.9 L 78.5 3.6 Z M 83.2 7.2 C 83.2 5.1 84.6 3.4 86.7 3.4 C 89 3.4 90.2 5.2 90.2 7.7 C 90.2 7.7 85 7.7 85 7.7 C 85.2 8.8 85.8 9.5 86.9 9.5 C 87.6 9.5 88 9.2 88.3 8.7 C 88.3 8.7 90.1 8.7 90.1 8.7 C 89.9 9.9 88.7 11 86.9 11 C 84.5 11 83.2 9.3 83.2 7.2 Z M 85.1 6.4 C 85.1 6.4 88.3 6.4 88.3 6.4 C 88.2 5.5 87.6 4.9 86.7 4.9 C 85.7 4.9 85.2 5.5 85.1 6.4 Z M 91.1 3.6 L 93 3.6 L 93 4.6 C 93 4.6 93 4.58 93 4.6 C 93.4 3.9 94.1 3.4 95.1 3.4 C 96 3.4 96.7 3.9 97.1 4.7 C 97.1 4.7 97.1 4.7 97.1 4.7 C 97.6 3.9 98.3 3.4 99.3 3.4 C 100.8 3.4 101.6 4.4 101.6 6 C 101.62 5.96 101.6 10.8 101.6 10.8 L 99.7 10.8 C 99.7 10.8 99.72 6.29 99.7 6.3 C 99.7 5.5 99.3 5.1 98.6 5.1 C 97.8 5.1 97.3 5.7 97.3 6.6 C 97.33 6.62 97.3 10.8 97.3 10.8 L 95.4 10.8 C 95.4 10.8 95.42 6.29 95.4 6.3 C 95.4 5.5 95 5.1 94.3 5.1 C 93.5 5.1 93 5.7 93 6.6 C 93.03 6.62 93 10.8 93 10.8 L 91.1 10.8 L 91.1 3.6 Z M 105.4 0.2 L 106.6 0.2 L 106.6 12.6 L 105.4 12.6 L 105.4 0.2 Z M 113.4 0.8 L 115.5 0.8 L 119 10.8 L 116.9 10.8 L 116.2 8.7 L 112.6 8.7 L 111.9 10.8 L 109.9 10.8 L 113.4 0.8 Z M 113.1 7.1 L 115.7 7.1 C 115.7 7.1 114.81 4.23 114.8 4.2 C 114.64 3.7 114.4 2.7 114.4 2.7 L 114.4 2.7 C 114.4 2.7 114.13 3.7 114 4.2 C 113.96 4.23 113.1 7.1 113.1 7.1 Z M 124 10.8 L 124 10 C 124 10 123.96 9.95 124 10 C 123.5 10.6 122.9 11 121.9 11 C 120.3 11 119.4 10 119.4 8.4 C 119.41 8.4 119.4 3.6 119.4 3.6 L 121.3 3.6 C 121.3 3.6 121.29 8.08 121.3 8.1 C 121.3 8.9 121.7 9.4 122.5 9.4 C 123.4 9.4 123.9 8.7 123.9 7.8 C 123.93 7.76 123.9 3.6 123.9 3.6 L 125.8 3.6 L 125.8 10.8 L 124 10.8 Z M 126.6 3.6 L 127.6 3.6 L 127.6 1.4 L 129.5 1.4 L 129.5 3.6 L 130.7 3.6 L 130.7 4.9 L 129.5 4.9 C 129.5 4.9 129.5 8.67 129.5 8.7 C 129.5 9.2 129.8 9.4 130.2 9.4 C 130.45 9.38 130.8 9.4 130.8 9.4 L 130.8 10.8 C 130.8 10.8 130.34 10.79 129.6 10.8 C 128.7 10.8 127.6 10.4 127.6 9.1 C 127.64 9.07 127.6 4.9 127.6 4.9 L 126.6 4.9 L 126.6 3.6 Z M 131.3 7.2 C 131.3 5.1 132.8 3.4 135 3.4 C 137.3 3.4 138.8 5.1 138.8 7.2 C 138.8 9.4 137.3 11 135 11 C 132.8 11 131.3 9.4 131.3 7.2 Z M 136.9 7.2 C 136.9 5.8 136.2 4.9 135 4.9 C 133.9 4.9 133.2 5.8 133.2 7.2 C 133.2 8.6 133.9 9.5 135 9.5 C 136.2 9.5 136.9 8.6 136.9 7.2 Z M 139.8 0.8 C 139.8 0.8 143.74 0.78 143.7 0.8 C 146.4 0.8 148.1 2.9 148.1 5.9 C 148.1 7.5 147.6 8.9 146.5 9.8 C 145.8 10.4 144.8 10.8 143.6 10.8 C 143.57 10.79 139.8 10.8 139.8 10.8 L 139.8 0.8 Z M 143.4 9 C 145.3 9 146.1 7.9 146.1 5.9 C 146.1 3.9 145.2 2.5 143.5 2.5 C 143.48 2.52 141.9 2.5 141.9 2.5 L 141.9 9 C 141.9 9 143.43 9.04 143.4 9 Z M 148.7 7.2 C 148.7 5.1 150.2 3.4 152.3 3.4 C 154.6 3.4 155.8 5.2 155.8 7.7 C 155.8 7.7 150.6 7.7 150.6 7.7 C 150.7 8.8 151.4 9.5 152.4 9.5 C 153.2 9.5 153.6 9.2 153.8 8.7 C 153.8 8.7 155.7 8.7 155.7 8.7 C 155.4 9.9 154.3 11 152.5 11 C 150.1 11 148.7 9.3 148.7 7.2 Z M 150.6 6.4 C 150.6 6.4 153.8 6.4 153.8 6.4 C 153.8 5.5 153.2 4.9 152.3 4.9 C 151.3 4.9 150.8 5.5 150.6 6.4 Z M 156.3 8.5 C 156.3 8.5 158 8.5 158 8.5 C 158.1 9.3 158.7 9.7 159.6 9.7 C 160.4 9.7 160.9 9.3 160.9 8.8 C 160.9 8.1 160 8.1 159 7.9 C 157.7 7.6 156.5 7.3 156.5 5.7 C 156.5 4.2 157.8 3.4 159.4 3.4 C 161.3 3.4 162.3 4.4 162.5 5.8 C 162.5 5.8 160.7 5.8 160.7 5.8 C 160.7 5 160.2 4.7 159.4 4.7 C 158.6 4.7 158.1 5 158.1 5.5 C 158.1 6.2 159.1 6.2 160.1 6.4 C 161.3 6.7 162.6 7 162.6 8.7 C 162.6 10.1 161.4 11 159.6 11 C 157.5 11 156.4 10 156.3 8.5 Z M 166.2 7.5 L 165.4 8.4 L 165.4 10.8 L 163.5 10.8 L 163.5 0.8 L 165.4 0.8 L 165.4 6.3 L 167.9 3.6 L 170.2 3.6 L 167.6 6.3 L 170.5 10.8 L 168.2 10.8 L 166.2 7.5 Z M 173.6 0.8 L 180.8 0.8 L 180.8 2.5 L 175.7 2.5 L 175.7 4.9 L 180 4.9 L 180 6.6 L 175.7 6.6 L 175.7 10.8 L 173.6 10.8 L 173.6 0.8 Z M 185.9 10.8 L 185.9 10 C 185.9 10 185.88 9.95 185.9 10 C 185.4 10.6 184.8 11 183.8 11 C 182.2 11 181.3 10 181.3 8.4 C 181.33 8.4 181.3 3.6 181.3 3.6 L 183.2 3.6 C 183.2 3.6 183.22 8.08 183.2 8.1 C 183.2 8.9 183.6 9.4 184.4 9.4 C 185.3 9.4 185.8 8.7 185.8 7.8 C 185.85 7.76 185.8 3.6 185.8 3.6 L 187.8 3.6 L 187.8 10.8 L 185.9 10.8 Z M 188.5 8.5 C 188.5 8.5 190.3 8.5 190.3 8.5 C 190.4 9.3 191 9.7 191.9 9.7 C 192.7 9.7 193.2 9.3 193.2 8.8 C 193.2 8.1 192.3 8.1 191.3 7.9 C 190 7.6 188.7 7.3 188.7 5.7 C 188.7 4.2 190 3.4 191.7 3.4 C 193.6 3.4 194.6 4.4 194.8 5.8 C 194.8 5.8 193 5.8 193 5.8 C 192.9 5 192.5 4.7 191.6 4.7 C 190.9 4.7 190.4 5 190.4 5.5 C 190.4 6.2 191.4 6.2 192.4 6.4 C 193.6 6.7 194.9 7 194.9 8.7 C 194.9 10.1 193.7 11 191.9 11 C 189.8 11 188.6 10 188.5 8.5 Z M 195.8 3.6 L 197.7 3.6 L 197.7 10.8 L 195.8 10.8 L 195.8 3.6 Z M 195.8 0.8 L 197.7 0.8 L 197.7 2.5 L 195.8 2.5 L 195.8 0.8 Z M 198.6 7.2 C 198.6 5.1 200.1 3.4 202.3 3.4 C 204.5 3.4 206.1 5.1 206.1 7.2 C 206.1 9.4 204.5 11 202.3 11 C 200.1 11 198.6 9.4 198.6 7.2 Z M 204.1 7.2 C 204.1 5.8 203.5 4.9 202.3 4.9 C 201.1 4.9 200.5 5.8 200.5 7.2 C 200.5 8.6 201.1 9.5 202.3 9.5 C 203.5 9.5 204.1 8.6 204.1 7.2 Z M 208.8 4.6 C 208.8 4.6 208.85 4.59 208.8 4.6 C 209.3 3.8 210 3.4 211 3.4 C 212.5 3.4 213.5 4.5 213.5 6.1 C 213.45 6.1 213.5 10.8 213.5 10.8 L 211.6 10.8 C 211.6 10.8 211.55 6.38 211.6 6.4 C 211.6 5.6 211.1 5.1 210.3 5.1 C 209.5 5.1 208.8 5.7 208.8 6.7 C 208.85 6.72 208.8 10.8 208.8 10.8 L 206.9 10.8 L 206.9 3.6 L 208.8 3.6 L 208.8 4.6 Z " stroke="none" fill="#000"/>  </g></svg>