<?xml version="1.0" standalone="no"?><!DOCTYPE svg PUBLIC "-//W3C//DTD SVG 1.1//EN" "http://www.w3.org/Graphics/SVG/1.1/DTD/svg11.dtd"><svg xmlns="http://www.w3.org/2000/svg" version="1.1" width="210.2px" height="55.9px" viewBox="0 -3 210.2 55.9" style="top:-3px">  <desc>Testemonials Stats taken from interviews and a survey posted on Reddit with 55 participants</desc>  <defs/>  <g id="Polygon8592">    <path d="M 0.9 32 C 0.9 32 5.21 31.97 5.2 32 C 6.9 32 8 33 8 34.5 C 8 35.7 7.5 36.5 6.3 36.8 C 6.3 36.8 6.3 36.9 6.3 36.9 C 7.3 37.2 7.6 37.9 7.7 39.2 C 7.8 40.7 7.9 41.1 8.1 41.2 C 8.11 41.22 8.1 41.3 8.1 41.3 C 8.1 41.3 6.85 41.27 6.9 41.3 C 6.7 41.1 6.6 40.8 6.5 39.2 C 6.4 37.8 5.9 37.3 4.6 37.3 C 4.63 37.35 2 37.3 2 37.3 L 2 41.3 L 0.9 41.3 L 0.9 32 Z M 2 36.4 C 2 36.4 4.8 36.4 4.8 36.4 C 6.1 36.4 6.7 35.7 6.7 34.7 C 6.7 33.6 6.2 33 4.9 33 C 4.86 32.98 2 33 2 33 L 2 36.4 Z M 8.8 37.9 C 8.8 36 10 34.4 12 34.4 C 14 34.4 15.1 35.9 15.1 38.2 C 15.1 38.2 9.9 38.2 9.9 38.2 C 9.9 39.5 10.7 40.6 12 40.6 C 13 40.6 13.7 40.1 13.9 39.2 C 13.9 39.2 14.9 39.2 14.9 39.2 C 14.6 40.6 13.5 41.5 12 41.5 C 10 41.5 8.8 39.9 8.8 37.9 Z M 9.9 37.4 C 9.9 37.4 13.9 37.4 13.9 37.4 C 13.9 36 13.2 35.2 12 35.2 C 10.7 35.2 10 36.2 9.9 37.4 Z M 15.7 37.9 C 15.7 35.7 17 34.4 18.7 34.4 C 19.6 34.4 20.3 34.9 20.8 35.5 C 20.76 35.5 20.8 35.5 20.8 35.5 L 20.8 32 L 21.8 32 L 21.8 41.3 L 20.8 41.3 L 20.8 40.5 C 20.8 40.5 20.76 40.46 20.8 40.5 C 20.3 41.1 19.6 41.5 18.7 41.5 C 16.8 41.5 15.7 40.1 15.7 37.9 Z M 20.9 37.9 C 20.9 36.4 20.1 35.3 18.7 35.3 C 17.4 35.3 16.8 36.4 16.8 37.9 C 16.8 39.5 17.4 40.6 18.7 40.6 C 20.2 40.6 20.9 39.5 20.9 37.9 Z M 22.9 37.9 C 22.9 35.7 24.2 34.4 25.8 34.4 C 26.8 34.4 27.5 34.9 28 35.5 C 27.95 35.5 28 35.5 28 35.5 L 28 32 L 29 32 L 29 41.3 L 28 41.3 L 28 40.5 C 28 40.5 27.95 40.46 28 40.5 C 27.4 41.1 26.8 41.5 25.9 41.5 C 24 41.5 22.9 40.1 22.9 37.9 Z M 28 37.9 C 28 36.4 27.3 35.3 25.9 35.3 C 24.6 35.3 24 36.4 24 37.9 C 24 39.5 24.6 40.6 25.9 40.6 C 27.4 40.6 28 39.5 28 37.9 Z M 30.5 34.6 L 31.5 34.6 L 31.5 41.3 L 30.5 41.3 L 30.5 34.6 Z M 30.5 32 L 31.5 32 L 31.5 33.3 L 30.5 33.3 L 30.5 32 Z M 32.5 34.6 L 33.5 34.6 L 33.5 32.4 L 34.5 32.4 L 34.5 34.6 L 35.8 34.6 L 35.8 35.4 L 34.5 35.4 C 34.5 35.4 34.54 39.78 34.5 39.8 C 34.5 40.2 34.8 40.4 35.2 40.4 C 35.4 40.4 35.7 40.4 35.8 40.3 C 35.77 40.31 35.8 40.3 35.8 40.3 C 35.8 40.3 35.81 41.22 35.8 41.2 C 35.6 41.3 35.3 41.3 35 41.3 C 34.1 41.3 33.5 41 33.5 40 C 33.49 40.01 33.5 35.4 33.5 35.4 L 32.5 35.4 L 32.5 34.6 Z M 38.3 34.6 L 39.5 34.6 C 39.5 34.6 40.65 38.7 40.7 38.7 C 40.81 39.26 41 40.1 41 40.1 L 41 40.1 C 41 40.1 41.24 39.26 41.4 38.7 C 41.38 38.73 42.5 34.6 42.5 34.6 L 43.6 34.6 C 43.6 34.6 44.71 38.73 44.7 38.7 C 44.85 39.27 45 40.1 45 40.1 L 45.1 40.1 C 45.1 40.1 45.27 39.26 45.4 38.7 C 45.43 38.7 46.7 34.6 46.7 34.6 L 47.8 34.6 L 45.6 41.3 L 44.5 41.3 C 44.5 41.3 43.38 37.21 43.4 37.2 C 43.22 36.65 43.1 35.8 43.1 35.8 L 43 35.8 C 43 35.8 42.85 36.65 42.7 37.2 C 42.69 37.21 41.6 41.3 41.6 41.3 L 40.5 41.3 L 38.3 34.6 Z M 48.5 34.6 L 49.6 34.6 L 49.6 41.3 L 48.5 41.3 L 48.5 34.6 Z M 48.5 32 L 49.6 32 L 49.6 33.3 L 48.5 33.3 L 48.5 32 Z M 50.6 34.6 L 51.6 34.6 L 51.6 32.4 L 52.6 32.4 L 52.6 34.6 L 53.9 34.6 L 53.9 35.4 L 52.6 35.4 C 52.6 35.4 52.62 39.78 52.6 39.8 C 52.6 40.2 52.9 40.4 53.3 40.4 C 53.5 40.4 53.7 40.4 53.9 40.3 C 53.86 40.31 53.9 40.3 53.9 40.3 C 53.9 40.3 53.9 41.22 53.9 41.2 C 53.6 41.3 53.4 41.3 53.1 41.3 C 52.2 41.3 51.6 41 51.6 40 C 51.57 40.01 51.6 35.4 51.6 35.4 L 50.6 35.4 L 50.6 34.6 Z M 56.1 35.4 C 56.1 35.4 56.09 35.44 56.1 35.4 C 56.6 34.8 57.3 34.4 58.2 34.4 C 59.6 34.4 60.5 35.2 60.5 36.6 C 60.49 36.56 60.5 41.3 60.5 41.3 L 59.4 41.3 C 59.4 41.3 59.44 36.65 59.4 36.6 C 59.4 35.8 58.9 35.3 57.9 35.3 C 56.8 35.3 56.1 36 56.1 37.1 C 56.07 37.14 56.1 41.3 56.1 41.3 L 55 41.3 L 55 32 L 56.1 32 L 56.1 35.4 Z M 63.5 38.7 C 63.5 38.7 64.6 38.7 64.6 38.7 C 64.8 39.8 65.5 40.5 66.8 40.5 C 68.1 40.5 68.9 39.7 68.9 38.3 C 68.9 37 68 36.2 66.8 36.2 C 65.8 36.2 65.2 36.6 64.8 37.2 C 64.79 37.15 63.7 37.2 63.7 37.2 L 64.7 32.4 L 69.5 32.4 L 69.5 33.3 L 65.5 33.3 L 64.9 36 C 64.9 36 64.93 36.02 64.9 36 C 65.4 35.5 66.1 35.3 67 35.3 C 68.6 35.3 70 36.4 70 38.4 C 70 40.3 68.7 41.5 66.8 41.5 C 65 41.5 63.6 40.4 63.5 38.7 Z M 70.7 38.7 C 70.7 38.7 71.8 38.7 71.8 38.7 C 71.9 39.8 72.7 40.5 74 40.5 C 75.3 40.5 76.1 39.7 76.1 38.3 C 76.1 37 75.2 36.2 74 36.2 C 73 36.2 72.4 36.6 72 37.2 C 71.98 37.15 70.9 37.2 70.9 37.2 L 71.9 32.4 L 76.7 32.4 L 76.7 33.3 L 72.7 33.3 L 72.1 36 C 72.1 36 72.12 36.02 72.1 36 C 72.6 35.5 73.3 35.3 74.2 35.3 C 75.8 35.3 77.2 36.4 77.2 38.4 C 77.2 40.3 75.8 41.5 74 41.5 C 72.1 41.5 70.8 40.4 70.7 38.7 Z M 80.4 34.6 L 81.4 34.6 L 81.4 35.5 C 81.4 35.5 81.47 35.5 81.5 35.5 C 82 34.8 82.7 34.4 83.6 34.4 C 85.3 34.4 86.5 35.7 86.5 37.9 C 86.5 40.1 85.4 41.5 83.6 41.5 C 82.7 41.5 82 41.2 81.5 40.5 C 81.47 40.48 81.4 40.5 81.4 40.5 L 81.4 43.4 L 80.4 43.4 L 80.4 34.6 Z M 85.4 37.9 C 85.4 36.4 84.8 35.3 83.5 35.3 C 82.1 35.3 81.4 36.5 81.4 37.9 C 81.4 39.4 82 40.6 83.5 40.6 C 84.8 40.6 85.4 39.5 85.4 37.9 Z M 91.7 40.3 C 91.7 40.3 91.7 40.3 91.7 40.3 C 91.3 40.9 90.6 41.4 89.4 41.4 C 88.2 41.4 87.2 40.8 87.2 39.5 C 87.2 37.9 88.4 37.6 90.1 37.4 C 91 37.2 91.7 37.1 91.7 36.4 C 91.7 35.6 91.2 35.2 90.2 35.2 C 89.1 35.2 88.6 35.7 88.5 36.7 C 88.5 36.7 87.5 36.7 87.5 36.7 C 87.5 35.4 88.4 34.4 90.2 34.4 C 91.6 34.4 92.7 35 92.7 36.6 C 92.7 36.6 92.7 39.8 92.7 39.8 C 92.7 40.3 92.8 40.6 93.4 40.5 C 93.38 40.47 93.4 40.5 93.4 40.5 C 93.4 40.5 93.42 41.24 93.4 41.2 C 93.3 41.3 93.1 41.3 92.8 41.3 C 92.2 41.3 91.8 41 91.7 40.3 Z M 91.7 38.8 C 91.7 38.8 91.7 37.6 91.7 37.6 C 91.4 37.9 90.8 38 90.2 38.1 C 89.1 38.3 88.3 38.5 88.3 39.5 C 88.3 40.4 89 40.6 89.7 40.6 C 91.1 40.6 91.7 39.6 91.7 38.8 Z M 95.2 35.7 C 95.2 35.7 95.27 35.67 95.3 35.7 C 95.7 35 96.4 34.5 97.3 34.5 C 97.5 34.5 97.6 34.5 97.7 34.6 C 97.71 34.55 97.7 35.6 97.7 35.6 C 97.7 35.6 97.67 35.57 97.7 35.6 C 97.5 35.5 97.4 35.5 97.2 35.5 C 96.2 35.5 95.2 36.3 95.2 37.5 C 95.25 37.54 95.2 41.3 95.2 41.3 L 94.2 41.3 L 94.2 34.6 L 95.2 34.6 L 95.2 35.7 Z M 98.2 34.6 L 99.2 34.6 L 99.2 32.4 L 100.3 32.4 L 100.3 34.6 L 101.6 34.6 L 101.6 35.4 L 100.3 35.4 C 100.3 35.4 100.25 39.78 100.3 39.8 C 100.3 40.2 100.5 40.4 100.9 40.4 C 101.1 40.4 101.4 40.4 101.5 40.3 C 101.49 40.31 101.5 40.3 101.5 40.3 C 101.5 40.3 101.53 41.22 101.5 41.2 C 101.3 41.3 101 41.3 100.7 41.3 C 99.8 41.3 99.2 41 99.2 40 C 99.2 40.01 99.2 35.4 99.2 35.4 L 98.2 35.4 L 98.2 34.6 Z M 102.6 34.6 L 103.7 34.6 L 103.7 41.3 L 102.6 41.3 L 102.6 34.6 Z M 102.6 32 L 103.7 32 L 103.7 33.3 L 102.6 33.3 L 102.6 32 Z M 104.8 37.9 C 104.8 36 106 34.4 108 34.4 C 109.6 34.4 110.6 35.3 110.9 36.7 C 110.9 36.7 109.8 36.7 109.8 36.7 C 109.7 35.8 109 35.3 108 35.3 C 106.6 35.3 105.8 36.4 105.8 37.9 C 105.8 39.4 106.6 40.6 108 40.6 C 109.1 40.6 109.7 39.9 109.8 38.9 C 109.8 38.9 110.9 38.9 110.9 38.9 C 110.7 40.5 109.7 41.5 108 41.5 C 106 41.5 104.8 39.9 104.8 37.9 Z M 111.9 34.6 L 112.9 34.6 L 112.9 41.3 L 111.9 41.3 L 111.9 34.6 Z M 111.9 32 L 112.9 32 L 112.9 33.3 L 111.9 33.3 L 111.9 32 Z M 114.4 34.6 L 115.4 34.6 L 115.4 35.5 C 115.4 35.5 115.44 35.5 115.4 35.5 C 115.9 34.8 116.6 34.4 117.6 34.4 C 119.3 34.4 120.5 35.7 120.5 37.9 C 120.5 40.1 119.4 41.5 117.6 41.5 C 116.6 41.5 116 41.2 115.4 40.5 C 115.44 40.48 115.4 40.5 115.4 40.5 L 115.4 43.4 L 114.4 43.4 L 114.4 34.6 Z M 119.4 37.9 C 119.4 36.4 118.8 35.3 117.5 35.3 C 116 35.3 115.3 36.5 115.3 37.9 C 115.3 39.4 115.9 40.6 117.5 40.6 C 118.8 40.6 119.4 39.5 119.4 37.9 Z M 125.7 40.3 C 125.7 40.3 125.6 40.3 125.6 40.3 C 125.2 40.9 124.6 41.4 123.4 41.4 C 122.1 41.4 121.1 40.8 121.1 39.5 C 121.1 37.9 122.4 37.6 124.1 37.4 C 125 37.2 125.7 37.1 125.7 36.4 C 125.7 35.6 125.1 35.2 124.2 35.2 C 123.1 35.2 122.5 35.7 122.5 36.7 C 122.5 36.7 121.5 36.7 121.5 36.7 C 121.5 35.4 122.4 34.4 124.1 34.4 C 125.6 34.4 126.6 35 126.6 36.6 C 126.6 36.6 126.6 39.8 126.6 39.8 C 126.6 40.3 126.8 40.6 127.3 40.5 C 127.35 40.47 127.4 40.5 127.4 40.5 C 127.4 40.5 127.38 41.24 127.4 41.2 C 127.3 41.3 127.1 41.3 126.8 41.3 C 126.1 41.3 125.8 41 125.7 40.3 Z M 125.7 38.8 C 125.7 38.8 125.7 37.6 125.7 37.6 C 125.3 37.9 124.7 38 124.1 38.1 C 123.1 38.3 122.2 38.5 122.2 39.5 C 122.2 40.4 123 40.6 123.6 40.6 C 125 40.6 125.7 39.6 125.7 38.8 Z M 129.2 35.4 C 129.2 35.4 129.24 35.44 129.2 35.4 C 129.7 34.8 130.4 34.4 131.4 34.4 C 132.8 34.4 133.6 35.2 133.6 36.6 C 133.64 36.56 133.6 41.3 133.6 41.3 L 132.6 41.3 C 132.6 41.3 132.59 36.65 132.6 36.6 C 132.6 35.8 132 35.3 131.1 35.3 C 130 35.3 129.2 36 129.2 37.1 C 129.22 37.14 129.2 41.3 129.2 41.3 L 128.2 41.3 L 128.2 34.6 L 129.2 34.6 L 129.2 35.4 Z M 134.5 34.6 L 135.4 34.6 L 135.4 32.4 L 136.5 32.4 L 136.5 34.6 L 137.8 34.6 L 137.8 35.4 L 136.5 35.4 C 136.5 35.4 136.5 39.78 136.5 39.8 C 136.5 40.2 136.7 40.4 137.2 40.4 C 137.4 40.4 137.6 40.4 137.7 40.3 C 137.73 40.31 137.8 40.3 137.8 40.3 C 137.8 40.3 137.77 41.22 137.8 41.2 C 137.5 41.3 137.2 41.3 136.9 41.3 C 136.1 41.3 135.4 41 135.4 40 C 135.45 40.01 135.4 35.4 135.4 35.4 L 134.5 35.4 L 134.5 34.6 Z M 138.5 39.1 C 138.5 39.1 139.5 39.1 139.5 39.1 C 139.7 40.3 140.5 40.6 141.5 40.6 C 142.6 40.6 143 40.1 143 39.5 C 143 38.7 142.5 38.5 141.3 38.3 C 139.9 38 138.8 37.7 138.8 36.3 C 138.8 35.1 139.6 34.4 141.2 34.4 C 142.8 34.4 143.7 35.2 143.8 36.5 C 143.8 36.5 142.7 36.5 142.7 36.5 C 142.6 35.6 142.2 35.2 141.2 35.2 C 140.2 35.2 139.8 35.7 139.8 36.2 C 139.8 36.9 140.4 37.1 141.6 37.3 C 143 37.6 144.1 37.9 144.1 39.4 C 144.1 40.8 143 41.5 141.4 41.5 C 139.6 41.5 138.6 40.6 138.5 39.1 Z " stroke="none" fill="#000"/>  </g>  <g id="Polygon8591">    <path d="M 0.7 19 L 1.8 19 L 1.8 25.7 L 0.7 25.7 L 0.7 19 Z M 0.7 16.4 L 1.8 16.4 L 1.8 17.7 L 0.7 17.7 L 0.7 16.4 Z M 4.3 19.8 C 4.3 19.8 4.28 19.84 4.3 19.8 C 4.8 19.2 5.4 18.8 6.4 18.8 C 7.8 18.8 8.7 19.6 8.7 21 C 8.67 20.96 8.7 25.7 8.7 25.7 L 7.6 25.7 C 7.6 25.7 7.62 21.05 7.6 21 C 7.6 20.2 7 19.7 6.1 19.7 C 5 19.7 4.3 20.4 4.3 21.5 C 4.25 21.54 4.3 25.7 4.3 25.7 L 3.2 25.7 L 3.2 19 L 4.3 19 L 4.3 19.8 Z M 9.5 19 L 10.5 19 L 10.5 16.8 L 11.5 16.8 L 11.5 19 L 12.8 19 L 12.8 19.8 L 11.5 19.8 C 11.5 19.8 11.53 24.18 11.5 24.2 C 11.5 24.6 11.8 24.8 12.2 24.8 C 12.4 24.8 12.6 24.8 12.8 24.7 C 12.77 24.71 12.8 24.7 12.8 24.7 C 12.8 24.7 12.8 25.62 12.8 25.6 C 12.6 25.7 12.3 25.7 12 25.7 C 11.1 25.7 10.5 25.4 10.5 24.4 C 10.48 24.41 10.5 19.8 10.5 19.8 L 9.5 19.8 L 9.5 19 Z M 13.5 22.3 C 13.5 20.4 14.8 18.8 16.7 18.8 C 18.7 18.8 19.8 20.3 19.8 22.6 C 19.8 22.6 14.6 22.6 14.6 22.6 C 14.6 23.9 15.4 25 16.7 25 C 17.7 25 18.4 24.5 18.6 23.6 C 18.6 23.6 19.6 23.6 19.6 23.6 C 19.3 25 18.3 25.9 16.7 25.9 C 14.7 25.9 13.5 24.3 13.5 22.3 Z M 14.6 21.8 C 14.6 21.8 18.6 21.8 18.6 21.8 C 18.6 20.4 17.9 19.6 16.7 19.6 C 15.4 19.6 14.7 20.6 14.6 21.8 Z M 21.8 20.1 C 21.8 20.1 21.87 20.07 21.9 20.1 C 22.3 19.4 23 18.9 23.9 18.9 C 24.1 18.9 24.2 18.9 24.3 19 C 24.3 18.95 24.3 20 24.3 20 C 24.3 20 24.26 19.97 24.3 20 C 24.1 19.9 24 19.9 23.8 19.9 C 22.7 19.9 21.8 20.7 21.8 21.9 C 21.84 21.94 21.8 25.7 21.8 25.7 L 20.8 25.7 L 20.8 19 L 21.8 19 L 21.8 20.1 Z M 24.6 19 L 25.7 19 C 25.7 19 27.08 23.22 27.1 23.2 C 27.27 23.82 27.5 24.6 27.5 24.6 L 27.5 24.6 C 27.5 24.6 27.79 23.8 28 23.2 C 27.99 23.22 29.4 19 29.4 19 L 30.5 19 L 28.1 25.7 L 26.9 25.7 L 24.6 19 Z M 31.2 19 L 32.3 19 L 32.3 25.7 L 31.2 25.7 L 31.2 19 Z M 31.2 16.4 L 32.3 16.4 L 32.3 17.7 L 31.2 17.7 L 31.2 16.4 Z M 33.3 22.3 C 33.3 20.4 34.6 18.8 36.5 18.8 C 38.5 18.8 39.6 20.3 39.6 22.6 C 39.6 22.6 34.4 22.6 34.4 22.6 C 34.5 23.9 35.2 25 36.6 25 C 37.6 25 38.2 24.5 38.5 23.6 C 38.5 23.6 39.5 23.6 39.5 23.6 C 39.2 25 38.1 25.9 36.6 25.9 C 34.5 25.9 33.3 24.3 33.3 22.3 Z M 34.4 21.8 C 34.4 21.8 38.5 21.8 38.5 21.8 C 38.4 20.4 37.7 19.6 36.5 19.6 C 35.3 19.6 34.6 20.6 34.4 21.8 Z M 39.9 19 L 41 19 C 41 19 42.17 23.1 42.2 23.1 C 42.33 23.66 42.5 24.5 42.5 24.5 L 42.6 24.5 C 42.6 24.5 42.76 23.66 42.9 23.1 C 42.9 23.13 44 19 44 19 L 45.1 19 C 45.1 19 46.23 23.13 46.2 23.1 C 46.37 23.67 46.6 24.5 46.6 24.5 L 46.6 24.5 C 46.6 24.5 46.79 23.66 47 23.1 C 46.96 23.1 48.2 19 48.2 19 L 49.3 19 L 47.1 25.7 L 46 25.7 C 46 25.7 44.9 21.61 44.9 21.6 C 44.75 21.05 44.6 20.2 44.6 20.2 L 44.6 20.2 C 44.6 20.2 44.37 21.05 44.2 21.6 C 44.21 21.61 43.1 25.7 43.1 25.7 L 42 25.7 L 39.9 19 Z M 49.6 23.5 C 49.6 23.5 50.6 23.5 50.6 23.5 C 50.8 24.7 51.6 25 52.6 25 C 53.7 25 54.1 24.5 54.1 23.9 C 54.1 23.1 53.6 22.9 52.4 22.7 C 51 22.4 49.9 22.1 49.9 20.7 C 49.9 19.5 50.7 18.8 52.3 18.8 C 54 18.8 54.8 19.6 54.9 20.9 C 54.9 20.9 53.8 20.9 53.8 20.9 C 53.7 20 53.3 19.6 52.3 19.6 C 51.3 19.6 50.9 20.1 50.9 20.6 C 50.9 21.3 51.6 21.5 52.7 21.7 C 54.1 22 55.2 22.3 55.2 23.8 C 55.2 25.2 54.1 25.9 52.5 25.9 C 50.7 25.9 49.7 25 49.6 23.5 Z M 62.4 24.7 C 62.4 24.7 62.4 24.7 62.4 24.7 C 62 25.3 61.3 25.8 60.2 25.8 C 58.9 25.8 57.9 25.2 57.9 23.9 C 57.9 22.3 59.1 22 60.8 21.8 C 61.8 21.6 62.4 21.5 62.4 20.8 C 62.4 20 61.9 19.6 60.9 19.6 C 59.8 19.6 59.3 20.1 59.2 21.1 C 59.2 21.1 58.2 21.1 58.2 21.1 C 58.3 19.8 59.1 18.8 60.9 18.8 C 62.3 18.8 63.4 19.4 63.4 21 C 63.4 21 63.4 24.2 63.4 24.2 C 63.4 24.7 63.5 25 64.1 24.9 C 64.09 24.87 64.1 24.9 64.1 24.9 C 64.1 24.9 64.13 25.64 64.1 25.6 C 64 25.7 63.8 25.7 63.6 25.7 C 62.9 25.7 62.5 25.4 62.4 24.7 Z M 62.4 23.2 C 62.4 23.2 62.4 22 62.4 22 C 62.1 22.3 61.5 22.4 60.9 22.5 C 59.8 22.7 59 22.9 59 23.9 C 59 24.8 59.7 25 60.4 25 C 61.8 25 62.4 24 62.4 23.2 Z M 66 19.8 C 66 19.8 65.99 19.84 66 19.8 C 66.5 19.2 67.1 18.8 68.1 18.8 C 69.5 18.8 70.4 19.6 70.4 21 C 70.38 20.96 70.4 25.7 70.4 25.7 L 69.3 25.7 C 69.3 25.7 69.33 21.05 69.3 21 C 69.3 20.2 68.8 19.7 67.8 19.7 C 66.7 19.7 66 20.4 66 21.5 C 65.96 21.54 66 25.7 66 25.7 L 64.9 25.7 L 64.9 19 L 66 19 L 66 19.8 Z M 71.4 22.3 C 71.4 20.1 72.7 18.8 74.3 18.8 C 75.3 18.8 76 19.3 76.5 19.9 C 76.45 19.9 76.5 19.9 76.5 19.9 L 76.5 16.4 L 77.5 16.4 L 77.5 25.7 L 76.5 25.7 L 76.5 24.9 C 76.5 24.9 76.45 24.86 76.5 24.9 C 75.9 25.5 75.3 25.9 74.4 25.9 C 72.5 25.9 71.4 24.5 71.4 22.3 Z M 76.5 22.3 C 76.5 20.8 75.8 19.7 74.4 19.7 C 73.1 19.7 72.5 20.8 72.5 22.3 C 72.5 23.9 73.1 25 74.4 25 C 75.9 25 76.5 23.9 76.5 22.3 Z M 85.2 24.7 C 85.2 24.7 85.1 24.7 85.1 24.7 C 84.7 25.3 84 25.8 82.9 25.8 C 81.6 25.8 80.6 25.2 80.6 23.9 C 80.6 22.3 81.9 22 83.6 21.8 C 84.5 21.6 85.2 21.5 85.2 20.8 C 85.2 20 84.6 19.6 83.7 19.6 C 82.6 19.6 82 20.1 82 21.1 C 82 21.1 81 21.1 81 21.1 C 81 19.8 81.9 18.8 83.6 18.8 C 85.1 18.8 86.1 19.4 86.1 21 C 86.1 21 86.1 24.2 86.1 24.2 C 86.1 24.7 86.3 25 86.8 24.9 C 86.84 24.87 86.9 24.9 86.9 24.9 C 86.9 24.9 86.88 25.64 86.9 25.6 C 86.7 25.7 86.6 25.7 86.3 25.7 C 85.6 25.7 85.3 25.4 85.2 24.7 Z M 85.2 23.2 C 85.2 23.2 85.2 22 85.2 22 C 84.8 22.3 84.2 22.4 83.6 22.5 C 82.6 22.7 81.7 22.9 81.7 23.9 C 81.7 24.8 82.4 25 83.1 25 C 84.5 25 85.2 24 85.2 23.2 Z M 89.3 23.5 C 89.3 23.5 90.4 23.5 90.4 23.5 C 90.5 24.7 91.3 25 92.3 25 C 93.4 25 93.9 24.5 93.9 23.9 C 93.9 23.1 93.3 22.9 92.1 22.7 C 90.8 22.4 89.6 22.1 89.6 20.7 C 89.6 19.5 90.5 18.8 92 18.8 C 93.7 18.8 94.5 19.6 94.7 20.9 C 94.7 20.9 93.6 20.9 93.6 20.9 C 93.5 20 93 19.6 92 19.6 C 91 19.6 90.6 20.1 90.6 20.6 C 90.6 21.3 91.3 21.5 92.4 21.7 C 93.8 22 94.9 22.3 94.9 23.8 C 94.9 25.2 93.8 25.9 92.3 25.9 C 90.4 25.9 89.4 25 89.3 23.5 Z M 100.2 25.7 L 100.2 24.8 C 100.2 24.8 100.19 24.75 100.2 24.8 C 99.7 25.4 99.1 25.8 98.2 25.8 C 96.8 25.8 95.9 25 95.9 23.6 C 95.9 23.61 95.9 19 95.9 19 L 97 19 C 97 19 96.95 23.58 97 23.6 C 97 24.5 97.5 25 98.5 25 C 99.5 25 100.2 24.2 100.2 23.1 C 100.22 23.09 100.2 19 100.2 19 L 101.3 19 L 101.3 25.7 L 100.2 25.7 Z M 103.8 20.1 C 103.8 20.1 103.78 20.07 103.8 20.1 C 104.2 19.4 104.9 18.9 105.8 18.9 C 106 18.9 106.1 18.9 106.2 19 C 106.21 18.95 106.2 20 106.2 20 C 106.2 20 106.17 19.97 106.2 20 C 106 19.9 105.9 19.9 105.7 19.9 C 104.7 19.9 103.8 20.7 103.8 21.9 C 103.75 21.94 103.8 25.7 103.8 25.7 L 102.7 25.7 L 102.7 19 L 103.8 19 L 103.8 20.1 Z M 106.5 19 L 107.6 19 C 107.6 19 108.99 23.22 109 23.2 C 109.19 23.82 109.4 24.6 109.4 24.6 L 109.5 24.6 C 109.5 24.6 109.71 23.8 109.9 23.2 C 109.9 23.22 111.3 19 111.3 19 L 112.4 19 L 110 25.7 L 108.8 25.7 L 106.5 19 Z M 112.6 22.3 C 112.6 20.4 113.9 18.8 115.8 18.8 C 117.8 18.8 118.9 20.3 118.9 22.6 C 118.9 22.6 113.7 22.6 113.7 22.6 C 113.8 23.9 114.5 25 115.9 25 C 116.9 25 117.5 24.5 117.8 23.6 C 117.8 23.6 118.8 23.6 118.8 23.6 C 118.5 25 117.4 25.9 115.9 25.9 C 113.8 25.9 112.6 24.3 112.6 22.3 Z M 113.7 21.8 C 113.7 21.8 117.8 21.8 117.8 21.8 C 117.7 20.4 117 19.6 115.8 19.6 C 114.6 19.6 113.9 20.6 113.7 21.8 Z M 119.7 27.8 C 119.73 27.75 119.7 26.8 119.7 26.8 C 119.7 26.8 119.78 26.82 119.8 26.8 C 119.9 26.9 120.1 27 120.5 27 C 120.9 27 121.2 26.8 121.5 26.1 C 121.5 26.14 121.8 25.5 121.8 25.5 L 119.1 19 L 120.3 19 C 120.3 19 121.86 23.14 121.9 23.1 C 122.07 23.7 122.3 24.5 122.3 24.5 L 122.3 24.5 C 122.3 24.5 122.58 23.7 122.8 23.1 C 122.78 23.14 124.3 19 124.3 19 L 125.4 19 C 125.4 19 122.56 26.22 122.6 26.2 C 122 27.6 121.5 27.9 120.7 27.9 C 120.3 27.9 120 27.9 119.7 27.8 Z M 128.2 19 L 129.3 19 L 129.3 19.9 C 129.3 19.9 129.32 19.9 129.3 19.9 C 129.8 19.2 130.5 18.8 131.5 18.8 C 133.2 18.8 134.4 20.1 134.4 22.3 C 134.4 24.5 133.3 25.9 131.4 25.9 C 130.5 25.9 129.9 25.6 129.3 24.9 C 129.32 24.88 129.3 24.9 129.3 24.9 L 129.3 27.8 L 128.2 27.8 L 128.2 19 Z M 133.3 22.3 C 133.3 20.8 132.7 19.7 131.4 19.7 C 129.9 19.7 129.2 20.9 129.2 22.3 C 129.2 23.8 129.8 25 131.4 25 C 132.7 25 133.3 23.9 133.3 22.3 Z M 135 22.3 C 135 20.4 136.3 18.8 138.3 18.8 C 140.3 18.8 141.5 20.4 141.5 22.3 C 141.5 24.3 140.3 25.9 138.3 25.9 C 136.3 25.9 135 24.3 135 22.3 Z M 140.5 22.3 C 140.5 20.8 139.7 19.7 138.3 19.7 C 136.9 19.7 136.1 20.8 136.1 22.3 C 136.1 23.8 136.9 25 138.3 25 C 139.7 25 140.5 23.8 140.5 22.3 Z M 142.2 23.5 C 142.2 23.5 143.2 23.5 143.2 23.5 C 143.4 24.7 144.2 25 145.2 25 C 146.3 25 146.7 24.5 146.7 23.9 C 146.7 23.1 146.2 22.9 145 22.7 C 143.6 22.4 142.5 22.1 142.5 20.7 C 142.5 19.5 143.3 18.8 144.9 18.8 C 146.5 18.8 147.4 19.6 147.5 20.9 C 147.5 20.9 146.4 20.9 146.4 20.9 C 146.3 20 145.8 19.6 144.8 19.6 C 143.9 19.6 143.5 20.1 143.5 20.6 C 143.5 21.3 144.1 21.5 145.3 21.7 C 146.7 22 147.8 22.3 147.8 23.8 C 147.8 25.2 146.7 25.9 145.1 25.9 C 143.3 25.9 142.3 25 142.2 23.5 Z M 148.2 19 L 149.2 19 L 149.2 16.8 L 150.3 16.8 L 150.3 19 L 151.6 19 L 151.6 19.8 L 150.3 19.8 C 150.3 19.8 150.26 24.18 150.3 24.2 C 150.3 24.6 150.5 24.8 150.9 24.8 C 151.1 24.8 151.4 24.8 151.5 24.7 C 151.5 24.71 151.5 24.7 151.5 24.7 C 151.5 24.7 151.54 25.62 151.5 25.6 C 151.3 25.7 151 25.7 150.7 25.7 C 149.8 25.7 149.2 25.4 149.2 24.4 C 149.21 24.41 149.2 19.8 149.2 19.8 L 148.2 19.8 L 148.2 19 Z M 152.2 22.3 C 152.2 20.4 153.5 18.8 155.4 18.8 C 157.4 18.8 158.5 20.3 158.5 22.6 C 158.5 22.6 153.3 22.6 153.3 22.6 C 153.4 23.9 154.1 25 155.5 25 C 156.4 25 157.1 24.5 157.3 23.6 C 157.3 23.6 158.4 23.6 158.4 23.6 C 158 25 157 25.9 155.5 25.9 C 153.4 25.9 152.2 24.3 152.2 22.3 Z M 153.3 21.8 C 153.3 21.8 157.4 21.8 157.4 21.8 C 157.3 20.4 156.6 19.6 155.4 19.6 C 154.2 19.6 153.5 20.6 153.3 21.8 Z M 159.1 22.3 C 159.1 20.1 160.4 18.8 162.1 18.8 C 163 18.8 163.8 19.3 164.2 19.9 C 164.2 19.9 164.2 19.9 164.2 19.9 L 164.2 16.4 L 165.3 16.4 L 165.3 25.7 L 164.2 25.7 L 164.2 24.9 C 164.2 24.9 164.2 24.86 164.2 24.9 C 163.7 25.5 163.1 25.9 162.1 25.9 C 160.3 25.9 159.1 24.5 159.1 22.3 Z M 164.3 22.3 C 164.3 20.8 163.5 19.7 162.1 19.7 C 160.9 19.7 160.2 20.8 160.2 22.3 C 160.2 23.9 160.9 25 162.2 25 C 163.7 25 164.3 23.9 164.3 22.3 Z M 168.4 22.3 C 168.4 20.4 169.6 18.8 171.7 18.8 C 173.7 18.8 174.9 20.4 174.9 22.3 C 174.9 24.3 173.7 25.9 171.7 25.9 C 169.6 25.9 168.4 24.3 168.4 22.3 Z M 173.8 22.3 C 173.8 20.8 173.1 19.7 171.7 19.7 C 170.2 19.7 169.5 20.8 169.5 22.3 C 169.5 23.8 170.2 25 171.7 25 C 173.1 25 173.8 23.8 173.8 22.3 Z M 177 19.8 C 177 19.8 177.02 19.84 177 19.8 C 177.5 19.2 178.2 18.8 179.2 18.8 C 180.6 18.8 181.4 19.6 181.4 21 C 181.41 20.96 181.4 25.7 181.4 25.7 L 180.4 25.7 C 180.4 25.7 180.36 21.05 180.4 21 C 180.4 20.2 179.8 19.7 178.8 19.7 C 177.8 19.7 177 20.4 177 21.5 C 176.99 21.54 177 25.7 177 25.7 L 175.9 25.7 L 175.9 19 L 177 19 L 177 19.8 Z " stroke="none" fill="#000"/>  </g>  <g id="Polygon8590">    <path d="M 0.3 0.8 L 7.6 0.8 L 7.6 1.8 L 4.5 1.8 L 4.5 10.1 L 3.4 10.1 L 3.4 1.8 L 0.3 1.8 L 0.3 0.8 Z M 6.8 6.7 C 6.8 4.8 8.1 3.2 10 3.2 C 12 3.2 13.1 4.7 13.1 7 C 13.1 7 7.9 7 7.9 7 C 8 8.3 8.7 9.4 10.1 9.4 C 11.1 9.4 11.7 8.9 11.9 8 C 11.9 8 13 8 13 8 C 12.7 9.4 11.6 10.3 10.1 10.3 C 8 10.3 6.8 8.7 6.8 6.7 Z M 7.9 6.2 C 7.9 6.2 12 6.2 12 6.2 C 11.9 4.8 11.2 4 10 4 C 8.8 4 8.1 5 7.9 6.2 Z M 13.7 7.9 C 13.7 7.9 14.8 7.9 14.8 7.9 C 14.9 9.1 15.7 9.4 16.7 9.4 C 17.8 9.4 18.3 8.9 18.3 8.3 C 18.3 7.5 17.8 7.3 16.5 7.1 C 15.2 6.8 14 6.5 14 5.1 C 14 3.9 14.9 3.2 16.4 3.2 C 18.1 3.2 18.9 4 19.1 5.3 C 19.1 5.3 18 5.3 18 5.3 C 17.9 4.4 17.4 4 16.4 4 C 15.4 4 15.1 4.5 15.1 5 C 15.1 5.7 15.7 5.9 16.9 6.1 C 18.2 6.4 19.3 6.7 19.3 8.2 C 19.3 9.6 18.2 10.3 16.7 10.3 C 14.8 10.3 13.8 9.4 13.7 7.9 Z M 19.8 3.4 L 20.8 3.4 L 20.8 1.2 L 21.8 1.2 L 21.8 3.4 L 23.1 3.4 L 23.1 4.2 L 21.8 4.2 C 21.8 4.2 21.83 8.58 21.8 8.6 C 21.8 9 22.1 9.2 22.5 9.2 C 22.7 9.2 22.9 9.2 23.1 9.1 C 23.06 9.11 23.1 9.1 23.1 9.1 C 23.1 9.1 23.1 10.02 23.1 10 C 22.9 10.1 22.6 10.1 22.3 10.1 C 21.4 10.1 20.8 9.8 20.8 8.8 C 20.77 8.81 20.8 4.2 20.8 4.2 L 19.8 4.2 L 19.8 3.4 Z M 23.8 6.7 C 23.8 4.8 25.1 3.2 27 3.2 C 29 3.2 30.1 4.7 30.1 7 C 30.1 7 24.9 7 24.9 7 C 24.9 8.3 25.7 9.4 27 9.4 C 28 9.4 28.7 8.9 28.9 8 C 28.9 8 29.9 8 29.9 8 C 29.6 9.4 28.5 10.3 27 10.3 C 25 10.3 23.8 8.7 23.8 6.7 Z M 24.9 6.2 C 24.9 6.2 28.9 6.2 28.9 6.2 C 28.9 4.8 28.2 4 27 4 C 25.7 4 25 5 24.9 6.2 Z M 31.1 3.4 L 32.1 3.4 L 32.1 4.3 C 32.1 4.3 32.16 4.32 32.2 4.3 C 32.6 3.7 33.3 3.2 34.1 3.2 C 35 3.2 35.6 3.6 35.9 4.4 C 35.9 4.4 35.9 4.4 35.9 4.4 C 36.3 3.6 37.2 3.2 38 3.2 C 39.2 3.2 40 4 40 5.4 C 40.01 5.36 40 10.1 40 10.1 L 39 10.1 C 39 10.1 38.96 5.41 39 5.4 C 39 4.6 38.4 4.1 37.7 4.1 C 36.9 4.1 36.1 4.8 36.1 5.9 C 36.07 5.89 36.1 10.1 36.1 10.1 L 35 10.1 C 35 10.1 35.02 5.41 35 5.4 C 35 4.6 34.6 4.1 33.9 4.1 C 33 4.1 32.1 4.8 32.1 5.9 C 32.13 5.89 32.1 10.1 32.1 10.1 L 31.1 10.1 L 31.1 3.4 Z M 41 6.7 C 41 4.8 42.3 3.2 44.3 3.2 C 46.3 3.2 47.5 4.8 47.5 6.7 C 47.5 8.7 46.3 10.3 44.3 10.3 C 42.3 10.3 41 8.7 41 6.7 Z M 46.4 6.7 C 46.4 5.2 45.7 4.1 44.3 4.1 C 42.8 4.1 42.1 5.2 42.1 6.7 C 42.1 8.2 42.8 9.4 44.3 9.4 C 45.7 9.4 46.4 8.2 46.4 6.7 Z M 49.6 4.2 C 49.6 4.2 49.65 4.24 49.6 4.2 C 50.1 3.6 50.8 3.2 51.8 3.2 C 53.2 3.2 54 4 54 5.4 C 54.04 5.36 54 10.1 54 10.1 L 53 10.1 C 53 10.1 52.99 5.45 53 5.4 C 53 4.6 52.4 4.1 51.5 4.1 C 50.4 4.1 49.6 4.8 49.6 5.9 C 49.62 5.94 49.6 10.1 49.6 10.1 L 48.6 10.1 L 48.6 3.4 L 49.6 3.4 L 49.6 4.2 Z M 55.4 3.4 L 56.5 3.4 L 56.5 10.1 L 55.4 10.1 L 55.4 3.4 Z M 55.4 0.8 L 56.5 0.8 L 56.5 2.1 L 55.4 2.1 L 55.4 0.8 Z M 62 9.1 C 62 9.1 62 9.1 62 9.1 C 61.6 9.7 60.9 10.2 59.8 10.2 C 58.5 10.2 57.5 9.6 57.5 8.3 C 57.5 6.7 58.8 6.4 60.4 6.2 C 61.4 6 62 5.9 62 5.2 C 62 4.4 61.5 4 60.5 4 C 59.4 4 58.9 4.5 58.9 5.5 C 58.9 5.5 57.8 5.5 57.8 5.5 C 57.9 4.2 58.7 3.2 60.5 3.2 C 62 3.2 63 3.8 63 5.4 C 63 5.4 63 8.6 63 8.6 C 63 9.1 63.1 9.4 63.7 9.3 C 63.72 9.27 63.8 9.3 63.8 9.3 C 63.8 9.3 63.76 10.04 63.8 10 C 63.6 10.1 63.5 10.1 63.2 10.1 C 62.5 10.1 62.1 9.8 62 9.1 Z M 62.1 7.6 C 62.1 7.6 62.1 6.4 62.1 6.4 C 61.7 6.7 61.1 6.8 60.5 6.9 C 59.5 7.1 58.6 7.3 58.6 8.3 C 58.6 9.2 59.3 9.4 60 9.4 C 61.4 9.4 62.1 8.4 62.1 7.6 Z M 64.6 0.8 L 65.6 0.8 L 65.6 10.1 L 64.6 10.1 L 64.6 0.8 Z M 66.7 7.9 C 66.7 7.9 67.8 7.9 67.8 7.9 C 67.9 9.1 68.7 9.4 69.7 9.4 C 70.8 9.4 71.2 8.9 71.2 8.3 C 71.2 7.5 70.7 7.3 69.5 7.1 C 68.2 6.8 67 6.5 67 5.1 C 67 3.9 67.8 3.2 69.4 3.2 C 71.1 3.2 71.9 4 72 5.3 C 72 5.3 71 5.3 71 5.3 C 70.8 4.4 70.4 4 69.4 4 C 68.4 4 68 4.5 68 5 C 68 5.7 68.7 5.9 69.8 6.1 C 71.2 6.4 72.3 6.7 72.3 8.2 C 72.3 9.6 71.2 10.3 69.7 10.3 C 67.8 10.3 66.8 9.4 66.7 7.9 Z M 76.5 0.8 L 77.6 0.8 L 73.9 10.1 L 72.8 10.1 L 76.5 0.8 Z M 78 6.9 C 78 6.9 79.1 6.9 79.1 6.9 C 79.3 8.5 80.2 9.3 82 9.3 C 83.3 9.3 84.2 8.7 84.2 7.6 C 84.2 6.3 83.1 6 81.4 5.6 C 79.8 5.3 78.4 4.8 78.4 3.1 C 78.4 1.5 79.6 0.6 81.5 0.6 C 83.9 0.6 84.8 1.8 85 3.5 C 85 3.5 83.9 3.5 83.9 3.5 C 83.8 2.2 82.9 1.5 81.5 1.5 C 80.3 1.5 79.5 2 79.5 3 C 79.5 4.1 80.5 4.4 81.9 4.6 C 83.7 5 85.3 5.4 85.3 7.5 C 85.3 9.3 83.9 10.3 81.9 10.3 C 79.3 10.3 78.1 8.8 78 6.9 Z M 86.1 3.4 L 87.1 3.4 L 87.1 1.2 L 88.1 1.2 L 88.1 3.4 L 89.4 3.4 L 89.4 4.2 L 88.1 4.2 C 88.1 4.2 88.13 8.58 88.1 8.6 C 88.1 9 88.4 9.2 88.8 9.2 C 89 9.2 89.2 9.2 89.4 9.1 C 89.36 9.11 89.4 9.1 89.4 9.1 C 89.4 9.1 89.4 10.02 89.4 10 C 89.2 10.1 88.9 10.1 88.6 10.1 C 87.7 10.1 87.1 9.8 87.1 8.8 C 87.07 8.81 87.1 4.2 87.1 4.2 L 86.1 4.2 L 86.1 3.4 Z M 94.6 9.1 C 94.6 9.1 94.6 9.1 94.6 9.1 C 94.2 9.7 93.5 10.2 92.4 10.2 C 91.1 10.2 90.1 9.6 90.1 8.3 C 90.1 6.7 91.4 6.4 93 6.2 C 94 6 94.7 5.9 94.7 5.2 C 94.7 4.4 94.1 4 93.1 4 C 92.1 4 91.5 4.5 91.5 5.5 C 91.5 5.5 90.5 5.5 90.5 5.5 C 90.5 4.2 91.3 3.2 93.1 3.2 C 94.6 3.2 95.6 3.8 95.6 5.4 C 95.6 5.4 95.6 8.6 95.6 8.6 C 95.6 9.1 95.7 9.4 96.3 9.3 C 96.33 9.27 96.4 9.3 96.4 9.3 C 96.4 9.3 96.37 10.04 96.4 10 C 96.2 10.1 96.1 10.1 95.8 10.1 C 95.1 10.1 94.7 9.8 94.6 9.1 Z M 94.7 7.6 C 94.7 7.6 94.7 6.4 94.7 6.4 C 94.3 6.7 93.7 6.8 93.1 6.9 C 92.1 7.1 91.2 7.3 91.2 8.3 C 91.2 9.2 91.9 9.4 92.6 9.4 C 94 9.4 94.7 8.4 94.7 7.6 Z M 96.6 3.4 L 97.6 3.4 L 97.6 1.2 L 98.6 1.2 L 98.6 3.4 L 99.9 3.4 L 99.9 4.2 L 98.6 4.2 C 98.6 4.2 98.62 8.58 98.6 8.6 C 98.6 9 98.9 9.2 99.3 9.2 C 99.5 9.2 99.7 9.2 99.9 9.1 C 99.85 9.11 99.9 9.1 99.9 9.1 C 99.9 9.1 99.89 10.02 99.9 10 C 99.6 10.1 99.4 10.1 99 10.1 C 98.2 10.1 97.6 9.8 97.6 8.8 C 97.56 8.81 97.6 4.2 97.6 4.2 L 96.6 4.2 L 96.6 3.4 Z M 100.6 7.9 C 100.6 7.9 101.7 7.9 101.7 7.9 C 101.8 9.1 102.6 9.4 103.6 9.4 C 104.7 9.4 105.1 8.9 105.1 8.3 C 105.1 7.5 104.6 7.3 103.4 7.1 C 102.1 6.8 100.9 6.5 100.9 5.1 C 100.9 3.9 101.7 3.2 103.3 3.2 C 105 3.2 105.8 4 105.9 5.3 C 105.9 5.3 104.9 5.3 104.9 5.3 C 104.8 4.4 104.3 4 103.3 4 C 102.3 4 101.9 4.5 101.9 5 C 101.9 5.7 102.6 5.9 103.7 6.1 C 105.1 6.4 106.2 6.7 106.2 8.2 C 106.2 9.6 105.1 10.3 103.6 10.3 C 101.7 10.3 100.7 9.4 100.6 7.9 Z M 108.9 3.4 L 109.8 3.4 L 109.8 1.2 L 110.9 1.2 L 110.9 3.4 L 112.2 3.4 L 112.2 4.2 L 110.9 4.2 C 110.9 4.2 110.89 8.58 110.9 8.6 C 110.9 9 111.1 9.2 111.6 9.2 C 111.8 9.2 112 9.2 112.1 9.1 C 112.12 9.11 112.2 9.1 112.2 9.1 C 112.2 9.1 112.16 10.02 112.2 10 C 111.9 10.1 111.6 10.1 111.3 10.1 C 110.5 10.1 109.8 9.8 109.8 8.8 C 109.84 8.81 109.8 4.2 109.8 4.2 L 108.9 4.2 L 108.9 3.4 Z M 117.4 9.1 C 117.4 9.1 117.4 9.1 117.4 9.1 C 117 9.7 116.3 10.2 115.2 10.2 C 113.9 10.2 112.9 9.6 112.9 8.3 C 112.9 6.7 114.1 6.4 115.8 6.2 C 116.8 6 117.4 5.9 117.4 5.2 C 117.4 4.4 116.9 4 115.9 4 C 114.8 4 114.3 4.5 114.2 5.5 C 114.2 5.5 113.2 5.5 113.2 5.5 C 113.3 4.2 114.1 3.2 115.9 3.2 C 117.3 3.2 118.4 3.8 118.4 5.4 C 118.4 5.4 118.4 8.6 118.4 8.6 C 118.4 9.1 118.5 9.4 119.1 9.3 C 119.09 9.27 119.1 9.3 119.1 9.3 C 119.1 9.3 119.13 10.04 119.1 10 C 119 10.1 118.8 10.1 118.6 10.1 C 117.9 10.1 117.5 9.8 117.4 9.1 Z M 117.4 7.6 C 117.4 7.6 117.4 6.4 117.4 6.4 C 117.1 6.7 116.5 6.8 115.9 6.9 C 114.8 7.1 114 7.3 114 8.3 C 114 9.2 114.7 9.4 115.4 9.4 C 116.8 9.4 117.4 8.4 117.4 7.6 Z M 122 6.4 L 121 7.4 L 121 10.1 L 119.9 10.1 L 119.9 0.8 L 121 0.8 L 121 6.2 L 123.9 3.4 L 125.3 3.4 L 122.7 5.8 L 125.6 10.1 L 124.3 10.1 L 122 6.4 Z M 125.5 6.7 C 125.5 4.8 126.8 3.2 128.7 3.2 C 130.7 3.2 131.8 4.7 131.8 7 C 131.8 7 126.6 7 126.6 7 C 126.7 8.3 127.4 9.4 128.8 9.4 C 129.7 9.4 130.4 8.9 130.6 8 C 130.6 8 131.6 8 131.6 8 C 131.3 9.4 130.3 10.3 128.8 10.3 C 126.7 10.3 125.5 8.7 125.5 6.7 Z M 126.6 6.2 C 126.6 6.2 130.6 6.2 130.6 6.2 C 130.6 4.8 129.9 4 128.7 4 C 127.4 4 126.8 5 126.6 6.2 Z M 133.9 4.2 C 133.9 4.2 133.88 4.24 133.9 4.2 C 134.4 3.6 135 3.2 136 3.2 C 137.4 3.2 138.3 4 138.3 5.4 C 138.28 5.36 138.3 10.1 138.3 10.1 L 137.2 10.1 C 137.2 10.1 137.23 5.45 137.2 5.4 C 137.2 4.6 136.7 4.1 135.7 4.1 C 134.6 4.1 133.9 4.8 133.9 5.9 C 133.86 5.94 133.9 10.1 133.9 10.1 L 132.8 10.1 L 132.8 3.4 L 133.9 3.4 L 133.9 4.2 Z M 141.3 3.4 L 142.2 3.4 C 142.2 3.4 142.23 2.27 142.2 2.3 C 142.2 1.1 142.9 0.7 144 0.7 C 144.2 0.7 144.4 0.7 144.5 0.7 C 144.5 0.7 144.5 1.6 144.5 1.6 C 144.4 1.6 144.3 1.6 144.2 1.6 C 143.5 1.6 143.3 1.8 143.3 2.3 C 143.28 2.33 143.3 3.4 143.3 3.4 L 144.5 3.4 L 144.5 4.2 L 143.3 4.2 L 143.3 10.1 L 142.2 10.1 L 142.2 4.2 L 141.3 4.2 L 141.3 3.4 Z M 146.6 4.5 C 146.6 4.5 146.64 4.47 146.6 4.5 C 147 3.8 147.7 3.3 148.6 3.3 C 148.8 3.3 148.9 3.3 149.1 3.4 C 149.07 3.35 149.1 4.4 149.1 4.4 C 149.1 4.4 149.03 4.37 149 4.4 C 148.9 4.3 148.8 4.3 148.6 4.3 C 147.5 4.3 146.6 5.1 146.6 6.3 C 146.61 6.34 146.6 10.1 146.6 10.1 L 145.6 10.1 L 145.6 3.4 L 146.6 3.4 L 146.6 4.5 Z M 149.4 6.7 C 149.4 4.8 150.6 3.2 152.6 3.2 C 154.6 3.2 155.9 4.8 155.9 6.7 C 155.9 8.7 154.6 10.3 152.6 10.3 C 150.6 10.3 149.4 8.7 149.4 6.7 Z M 154.8 6.7 C 154.8 5.2 154.1 4.1 152.6 4.1 C 151.2 4.1 150.5 5.2 150.5 6.7 C 150.5 8.2 151.2 9.4 152.6 9.4 C 154.1 9.4 154.8 8.2 154.8 6.7 Z M 156.9 3.4 L 158 3.4 L 158 4.3 C 158 4.3 158 4.32 158 4.3 C 158.4 3.7 159.1 3.2 160 3.2 C 160.8 3.2 161.4 3.6 161.7 4.4 C 161.7 4.4 161.8 4.4 161.8 4.4 C 162.2 3.6 163 3.2 163.8 3.2 C 165 3.2 165.9 4 165.9 5.4 C 165.85 5.36 165.9 10.1 165.9 10.1 L 164.8 10.1 C 164.8 10.1 164.8 5.41 164.8 5.4 C 164.8 4.6 164.2 4.1 163.6 4.1 C 162.7 4.1 161.9 4.8 161.9 5.9 C 161.91 5.89 161.9 10.1 161.9 10.1 L 160.9 10.1 C 160.9 10.1 160.86 5.41 160.9 5.4 C 160.9 4.6 160.4 4.1 159.7 4.1 C 158.9 4.1 158 4.8 158 5.9 C 157.97 5.89 158 10.1 158 10.1 L 156.9 10.1 L 156.9 3.4 Z " stroke="none" fill="#000"/>  </g></svg>