<?xml version="1.0" standalone="no"?><!DOCTYPE svg PUBLIC "-//W3C//DTD SVG 1.1//EN" "http://www.w3.org/Graphics/SVG/1.1/DTD/svg11.dtd"><svg xmlns="http://www.w3.org/2000/svg" version="1.1" width="489px" height="39.1px" viewBox="0 -5 489 39.1" style="top:-5px">  <desc>3D MODELING PDES 2777</desc>  <defs/>  <g id="Polygon2745">    <path d="M 151.2 0.5 L 153.4 0.5 L 153.4 20.1 L 151.2 20.1 L 151.2 0.5 Z M 159.5 1.3 C 159.5 1.3 166.1 1.32 166.1 1.3 C 167.7 1.3 169 1.9 169.8 2.8 C 170.5 3.6 170.9 4.6 170.9 5.8 C 170.9 8.7 169.2 10.4 165.8 10.4 C 165.81 10.45 161.5 10.4 161.5 10.4 L 161.5 17 L 159.5 17 L 159.5 1.3 Z M 161.5 8.8 C 161.5 8.8 165.66 8.84 165.7 8.8 C 167.9 8.8 168.9 7.7 168.9 5.9 C 168.9 4 167.8 3 165.8 3 C 165.77 3.04 161.5 3 161.5 3 L 161.5 8.8 Z M 172.8 1.3 C 172.8 1.3 178.53 1.32 178.5 1.3 C 183.3 1.3 185.5 4.5 185.5 9.2 C 185.5 13.9 183.1 17 178.4 17 C 178.37 17.05 172.8 17 172.8 17 L 172.8 1.3 Z M 178.3 15.3 C 182 15.3 183.5 12.9 183.5 9.2 C 183.5 5.5 182.2 3 178.5 3 C 178.46 3.04 174.8 3 174.8 3 L 174.8 15.3 C 174.8 15.3 178.31 15.31 178.3 15.3 Z M 187.9 1.3 L 199 1.3 L 199 3.1 L 189.8 3.1 L 189.8 8 L 198.1 8 L 198.1 9.7 L 189.8 9.7 L 189.8 15.2 L 199.2 15.2 L 199.2 17 L 187.9 17 L 187.9 1.3 Z M 200.3 11.7 C 200.3 11.7 202.3 11.7 202.3 11.7 C 202.5 14.4 204.2 15.8 207.1 15.8 C 209.3 15.8 210.9 14.8 210.9 12.8 C 210.9 10.7 209 10.2 206.2 9.5 C 203.4 8.9 201 8.1 201 5.2 C 201 2.6 203.2 1 206.4 1 C 210.3 1 211.9 3 212.3 5.9 C 212.3 5.9 210.4 5.9 210.4 5.9 C 210.2 3.7 208.7 2.6 206.4 2.6 C 204.3 2.6 202.9 3.5 202.9 5.1 C 202.9 6.9 204.6 7.4 207 7.9 C 210 8.5 212.8 9.2 212.8 12.8 C 212.8 15.7 210.4 17.4 207 17.4 C 202.6 17.4 200.5 14.9 200.3 11.7 Z M 223.5 10 C 225.4 8.9 226.6 8.1 226.6 6.3 C 226.6 4.4 225.4 3.2 223.4 3.2 C 222.3 3.2 221.5 3.5 221 4.1 C 220.4 4.8 220.1 5.6 220.1 7.1 C 220.1 7.1 218.2 7.1 218.2 7.1 C 218.2 5.2 218.7 4 219.6 3.1 C 220.6 2.1 222 1.6 223.5 1.6 C 226.6 1.6 228.6 3.6 228.6 6.3 C 228.6 9.2 226.6 10.1 224.2 11.5 C 222.5 12.4 220.4 13.6 220 15.3 C 220.02 15.29 228.2 15.3 228.2 15.3 L 228.2 17 C 228.2 17 217.8 17.05 217.8 17 C 218 13 220.8 11.5 223.5 10 Z M 238.5 3.7 C 238.46 3.67 238.5 3.6 238.5 3.6 L 229.9 3.6 L 229.9 2 L 240.4 2 C 240.4 2 240.39 3.5 240.4 3.5 C 237.3 6.2 234.3 11.1 234 17 C 234 17 232 17 232 17 C 232.3 11.8 235.1 6.4 238.5 3.7 Z M 250.1 3.7 C 250.07 3.67 250.1 3.6 250.1 3.6 L 241.5 3.6 L 241.5 2 L 252 2 C 252 2 252.01 3.5 252 3.5 C 248.9 6.2 245.9 11.1 245.6 17 C 245.6 17 243.6 17 243.6 17 C 243.9 11.8 246.7 6.4 250.1 3.7 Z M 261.7 3.7 C 261.69 3.67 261.7 3.6 261.7 3.6 L 253.1 3.6 L 253.1 2 L 263.6 2 C 263.6 2 263.62 3.5 263.6 3.5 C 260.5 6.2 257.5 11.1 257.2 17 C 257.2 17 255.2 17 255.2 17 C 255.5 11.8 258.3 6.4 261.7 3.7 Z " stroke="none" fill="#fff"/>  </g>  <g id="Polygon2744">    <path d="M 2 15.9 C 0.9 15 0.3 13.6 0.3 11.8 C 0.3 11.8 3.8 11.8 3.8 11.8 C 3.9 13.4 4.7 14.6 6.6 14.6 C 8.1 14.6 8.9 13.7 8.9 12.5 C 8.9 11.2 8 10.5 6.4 10.5 C 6.36 10.49 5.5 10.5 5.5 10.5 L 5.5 7.9 C 5.5 7.9 6.27 7.92 6.3 7.9 C 7.7 7.9 8.6 7.3 8.6 6.2 C 8.6 5.1 7.9 4.4 6.6 4.4 C 5 4.4 4.3 5.5 4.2 6.8 C 4.2 6.8 0.8 6.8 0.8 6.8 C 0.8 3.8 2.9 1.7 6.7 1.7 C 10 1.7 12.3 3.3 12.3 5.9 C 12.3 7.5 11.3 8.4 10 8.9 C 10 8.9 10 9 10 9 C 11.6 9.5 12.7 10.6 12.7 12.7 C 12.7 15.9 9.9 17.4 6.7 17.4 C 4.6 17.4 3 16.9 2 15.9 Z M 20.4 13.8 C 23 13.8 24.3 12.2 24.3 9.3 C 24.3 6.4 22.9 4.6 20.5 4.6 C 20.48 4.58 18.1 4.6 18.1 4.6 L 18.1 13.8 C 18.1 13.8 20.44 13.77 20.4 13.8 Z M 14.3 1.3 C 14.3 1.3 20.97 1.32 21 1.3 C 25.3 1.3 28.2 4.5 28.2 9.3 C 28.2 12.1 27.3 14.3 25.5 15.6 C 24.3 16.5 22.7 17 20.7 17 C 20.72 17.05 14.3 17 14.3 17 L 14.3 1.3 Z M 33.2 1.3 L 38.4 1.3 C 38.4 1.3 40.33 8.21 40.3 8.2 C 40.61 9.2 41.2 11.8 41.2 11.8 L 41.3 11.8 C 41.3 11.8 41.89 9.2 42.2 8.2 C 42.15 8.21 44.1 1.3 44.1 1.3 L 49.4 1.3 L 49.4 17 L 45.8 17 C 45.8 17 45.8 9.13 45.8 9.1 C 45.8 8.49 45.9 6 45.9 6 L 45.8 6 C 45.8 6 45.28 8.34 45.1 8.9 C 45.1 8.91 42.8 17 42.8 17 L 39.6 17 C 39.6 17 37.38 8.93 37.4 8.9 C 37.2 8.36 36.7 6 36.7 6 L 36.6 6 C 36.6 6 36.67 8.51 36.7 9.2 C 36.67 9.15 36.7 17 36.7 17 L 33.2 17 L 33.2 1.3 Z M 62.5 9.2 C 62.5 6.4 61.2 4.2 58.7 4.2 C 56.1 4.2 54.8 6.4 54.8 9.2 C 54.8 12.1 56.1 14.3 58.7 14.3 C 61.2 14.3 62.5 12.1 62.5 9.2 Z M 50.9 9.2 C 50.9 4.5 53.9 1 58.7 1 C 63.4 1 66.4 4.5 66.4 9.2 C 66.4 13.9 63.4 17.4 58.7 17.4 C 53.9 17.4 50.9 13.9 50.9 9.2 Z M 74.1 13.8 C 76.7 13.8 78 12.2 78 9.3 C 78 6.4 76.6 4.6 74.2 4.6 C 74.18 4.58 71.9 4.6 71.9 4.6 L 71.9 13.8 C 71.9 13.8 74.14 13.77 74.1 13.8 Z M 68 1.3 C 68 1.3 74.67 1.32 74.7 1.3 C 79 1.3 81.9 4.5 81.9 9.3 C 81.9 12.1 81 14.3 79.2 15.6 C 78 16.5 76.4 17 74.4 17 C 74.43 17.05 68 17 68 17 L 68 1.3 Z M 83.5 1.3 L 95.4 1.3 L 95.4 4.5 L 87.4 4.5 L 87.4 7.3 L 94.2 7.3 L 94.2 10.4 L 87.4 10.4 L 87.4 13.7 L 95.5 13.7 L 95.5 17 L 83.5 17 L 83.5 1.3 Z M 97.3 1.3 L 101.2 1.3 L 101.2 13.7 L 108.2 13.7 L 108.2 17 L 97.3 17 L 97.3 1.3 Z M 109.7 1.3 L 113.6 1.3 L 113.6 17 L 109.7 17 L 109.7 1.3 Z M 115.8 1.3 L 119.7 1.3 C 119.7 1.3 124.36 9.22 124.4 9.2 C 124.61 9.66 125.4 11.2 125.4 11.2 L 125.5 11.2 C 125.5 11.2 125.44 9.33 125.4 8.8 C 125.44 8.78 125.4 1.3 125.4 1.3 L 129.2 1.3 L 129.2 17 L 125.3 17 C 125.3 17 120.71 9.26 120.7 9.3 C 120.45 8.84 119.6 7.1 119.6 7.1 L 119.5 7.1 C 119.5 7.1 119.59 9.17 119.6 9.7 C 119.59 9.72 119.6 17 119.6 17 L 115.8 17 L 115.8 1.3 Z M 132.9 15.2 C 131.5 13.7 130.8 11.6 130.8 9.2 C 130.8 6.8 131.6 4.6 133.1 3.1 C 134.4 1.8 136.2 1 138.5 1 C 142.6 1 145 3.2 145.5 6.5 C 145.5 6.5 141.7 6.5 141.7 6.5 C 141.4 5.2 140.4 4.2 138.6 4.2 C 136 4.2 134.7 6.4 134.7 9.2 C 134.7 12.1 136.2 14.3 138.7 14.3 C 140.8 14.3 142 12.9 142.1 11.5 C 142.12 11.51 142.1 11.5 142.1 11.5 L 139.2 11.5 L 139.2 8.6 L 145.7 8.6 L 145.7 17 L 143 17 L 142.8 15.2 C 142.8 15.2 142.73 15.16 142.7 15.2 C 141.7 16.8 140.2 17.4 138.3 17.4 C 136 17.4 134.2 16.6 132.9 15.2 Z " stroke="none" fill="#ee3124"/>  </g></svg>