<?xml version="1.0" standalone="no"?><!DOCTYPE svg PUBLIC "-//W3C//DTD SVG 1.1//EN" "http://www.w3.org/Graphics/SVG/1.1/DTD/svg11.dtd"><svg xmlns="http://www.w3.org/2000/svg" version="1.1" width="185px" height="126.1px" viewBox="0 -4 185 126.1" style="top:-4px">  <desc>Induvidual pods of non-toxic, washable paint allows user to reload or change colors without missing a beat</desc>  <defs/>  <g id="Polygon8895">    <path d="M 0.9 91 L 2.1 91 L 2.1 92.4 C 2.1 92.4 2.09 92.36 2.1 92.4 C 2.7 91.4 3.6 90.8 4.9 90.8 C 6 90.8 7 91.3 7.4 92.4 C 7.4 92.4 7.4 92.4 7.4 92.4 C 8 91.4 9.1 90.8 10.4 90.8 C 12 90.8 13.2 91.8 13.2 93.7 C 13.23 93.65 13.2 100.3 13.2 100.3 L 12.1 100.3 C 12.1 100.3 12.13 93.74 12.1 93.7 C 12.1 92.4 11.3 91.7 10.2 91.7 C 8.8 91.7 7.6 92.7 7.6 94.3 C 7.65 94.34 7.6 100.3 7.6 100.3 L 6.5 100.3 C 6.5 100.3 6.53 93.74 6.5 93.7 C 6.5 92.4 5.7 91.7 4.7 91.7 C 3.3 91.7 2.1 92.8 2.1 94.3 C 2.05 94.34 2.1 100.3 2.1 100.3 L 0.9 100.3 L 0.9 91 Z M 15.1 91 L 16.2 91 L 16.2 100.3 L 15.1 100.3 L 15.1 91 Z M 15.1 87.4 L 16.2 87.4 L 16.2 89 L 15.1 89 L 15.1 87.4 Z M 17.5 97.4 C 17.5 97.4 18.6 97.4 18.6 97.4 C 18.8 98.9 19.9 99.6 21.4 99.6 C 22.9 99.6 23.7 98.8 23.7 97.8 C 23.7 96.7 23.1 96.4 21.2 96 C 19.3 95.5 17.8 95.1 17.8 93.3 C 17.8 91.7 19.2 90.8 21.1 90.8 C 23.3 90.8 24.3 91.9 24.5 93.5 C 24.5 93.5 23.4 93.5 23.4 93.5 C 23.3 92.3 22.5 91.7 21.1 91.7 C 19.6 91.7 19 92.4 19 93.2 C 19 94.3 19.8 94.5 21.6 94.9 C 23.5 95.3 24.8 95.8 24.8 97.7 C 24.8 99.4 23.5 100.5 21.3 100.5 C 18.9 100.5 17.6 99.2 17.5 97.4 Z M 25.6 97.4 C 25.6 97.4 26.7 97.4 26.7 97.4 C 26.9 98.9 28 99.6 29.5 99.6 C 31 99.6 31.8 98.8 31.8 97.8 C 31.8 96.7 31.3 96.4 29.4 96 C 27.5 95.5 26 95.1 26 93.3 C 26 91.7 27.3 90.8 29.2 90.8 C 31.4 90.8 32.4 91.9 32.7 93.5 C 32.7 93.5 31.5 93.5 31.5 93.5 C 31.4 92.3 30.6 91.7 29.2 91.7 C 27.8 91.7 27.1 92.4 27.1 93.2 C 27.1 94.3 28 94.5 29.7 94.9 C 31.6 95.3 33 95.8 33 97.7 C 33 99.4 31.6 100.5 29.5 100.5 C 27 100.5 25.7 99.2 25.6 97.4 Z M 34.4 91 L 35.5 91 L 35.5 100.3 L 34.4 100.3 L 34.4 91 Z M 34.4 87.4 L 35.5 87.4 L 35.5 89 L 34.4 89 L 34.4 87.4 Z M 37.4 91 L 38.5 91 L 38.5 92.4 C 38.5 92.4 38.52 92.38 38.5 92.4 C 39.1 91.4 40.2 90.8 41.6 90.8 C 43.4 90.8 44.6 91.8 44.6 93.7 C 44.6 93.65 44.6 100.3 44.6 100.3 L 43.5 100.3 C 43.5 100.3 43.49 93.76 43.5 93.8 C 43.5 92.4 42.7 91.7 41.4 91.7 C 39.8 91.7 38.5 92.8 38.5 94.4 C 38.48 94.36 38.5 100.3 38.5 100.3 L 37.4 100.3 L 37.4 91 Z M 46.3 101.1 C 46.3 101.1 47.4 101.1 47.4 101.1 C 47.6 102.2 48.7 102.6 50 102.6 C 52 102.6 52.9 101.6 52.9 99.9 C 52.92 99.94 52.9 98.5 52.9 98.5 C 52.9 98.5 52.87 98.46 52.9 98.5 C 52.2 99.5 51.3 100.1 49.9 100.1 C 47.5 100.1 45.9 98.2 45.9 95.4 C 45.9 92.4 47.8 90.8 49.9 90.8 C 51.4 90.8 52.3 91.4 52.9 92.4 C 52.87 92.39 52.9 92.4 52.9 92.4 L 52.9 91 L 54 91 C 54 91 54.02 99.9 54 99.9 C 54 100.9 53.7 101.8 53.2 102.4 C 52.5 103.1 51.4 103.5 50 103.5 C 47.8 103.5 46.5 102.5 46.3 101.1 Z M 53 95.4 C 53 93.2 52 91.7 50 91.7 C 48.1 91.7 47.1 93.2 47.1 95.5 C 47.1 97.6 48 99.1 50 99.1 C 52 99.1 53 97.6 53 95.4 Z M 58.1 97.9 C 58.1 95.7 59.8 95.2 61.9 95 C 63.7 94.8 64.4 94.6 64.4 93.7 C 64.4 93.7 64.4 93.5 64.4 93.5 C 64.4 92.3 63.6 91.7 62.2 91.7 C 60.5 91.7 59.7 92.3 59.6 93.7 C 59.6 93.7 58.5 93.7 58.5 93.7 C 58.6 91.9 59.8 90.8 62.2 90.8 C 64.2 90.8 65.5 91.6 65.5 93.6 C 65.5 93.6 65.5 98.7 65.5 98.7 C 65.5 99.3 65.7 99.5 66.1 99.5 C 66.2 99.5 66.3 99.5 66.5 99.4 C 66.49 99.43 66.5 99.4 66.5 99.4 C 66.5 99.4 66.54 100.24 66.5 100.2 C 66.4 100.3 66.1 100.4 65.8 100.4 C 65 100.4 64.5 100 64.4 99.1 C 64.42 99.07 64.4 98.9 64.4 98.9 C 64.4 98.9 64.37 98.87 64.4 98.9 C 63.8 99.6 62.9 100.5 61.1 100.5 C 59.4 100.5 58.1 99.6 58.1 97.9 Z M 64.4 96.9 C 64.4 96.9 64.4 95.2 64.4 95.2 C 63.8 95.5 62.9 95.7 62 95.8 C 60.4 96 59.2 96.3 59.2 97.9 C 59.2 99.2 60.2 99.6 61.3 99.6 C 63.3 99.6 64.4 98.2 64.4 96.9 Z M 71.4 98.9 C 71.42 98.86 71.4 98.9 71.4 98.9 L 71.4 100.3 L 70.3 100.3 L 70.3 87.4 L 71.4 87.4 L 71.4 92.6 C 71.4 92.6 71.42 92.56 71.4 92.6 C 72.1 91.5 73.1 90.8 74.6 90.8 C 76.8 90.8 78.4 92.5 78.4 95.6 C 78.4 98.5 76.9 100.5 74.5 100.5 C 73.1 100.5 72.1 100 71.4 98.9 Z M 77.3 95.7 C 77.3 93.3 76.3 91.7 74.4 91.7 C 72.4 91.7 71.3 93.4 71.3 95.7 C 71.3 98 72.4 99.6 74.4 99.6 C 76.4 99.6 77.3 97.8 77.3 95.7 Z M 79.3 95.6 C 79.3 92.8 81 90.7 83.6 90.7 C 86.6 90.7 87.6 93.2 87.6 95.8 C 87.6 95.8 80.5 95.8 80.5 95.8 C 80.5 97.9 81.5 99.5 83.7 99.5 C 85.2 99.5 86 98.7 86.4 97.5 C 86.4 97.5 87.5 97.5 87.5 97.5 C 87.1 99.3 85.8 100.5 83.7 100.5 C 80.9 100.5 79.3 98.4 79.3 95.6 Z M 86.4 94.9 C 86.3 93.1 85.5 91.7 83.6 91.7 C 81.7 91.7 80.7 93.1 80.5 94.9 C 80.5 94.9 86.4 94.9 86.4 94.9 Z M 88.4 97.9 C 88.4 95.7 90.2 95.2 92.3 95 C 94.1 94.8 94.8 94.6 94.8 93.7 C 94.8 93.7 94.8 93.5 94.8 93.5 C 94.8 92.3 94 91.7 92.5 91.7 C 90.9 91.7 90 92.3 89.9 93.7 C 89.9 93.7 88.8 93.7 88.8 93.7 C 89 91.9 90.1 90.8 92.5 90.8 C 94.6 90.8 95.8 91.6 95.8 93.6 C 95.8 93.6 95.8 98.7 95.8 98.7 C 95.8 99.3 96 99.5 96.4 99.5 C 96.6 99.5 96.7 99.5 96.9 99.4 C 96.86 99.43 96.9 99.4 96.9 99.4 C 96.9 99.4 96.91 100.24 96.9 100.2 C 96.7 100.3 96.5 100.4 96.2 100.4 C 95.3 100.4 94.8 100 94.8 99.1 C 94.79 99.07 94.8 98.9 94.8 98.9 C 94.8 98.9 94.73 98.87 94.7 98.9 C 94.2 99.6 93.3 100.5 91.5 100.5 C 89.7 100.5 88.4 99.6 88.4 97.9 Z M 94.8 96.9 C 94.8 96.9 94.8 95.2 94.8 95.2 C 94.2 95.5 93.3 95.7 92.4 95.8 C 90.8 96 89.6 96.3 89.6 97.9 C 89.6 99.2 90.6 99.6 91.7 99.6 C 93.7 99.6 94.8 98.2 94.8 96.9 Z M 98.4 98.7 C 98.44 98.66 98.4 91.9 98.4 91.9 L 97 91.9 L 97 91 L 98.4 91 L 98.4 88.1 L 99.6 88.1 L 99.6 91 L 101.3 91 L 101.3 91.9 L 99.6 91.9 C 99.6 91.9 99.56 98.48 99.6 98.5 C 99.6 99.1 99.9 99.4 100.5 99.4 C 100.7 99.4 101 99.3 101.2 99.2 C 101.19 99.22 101.2 99.2 101.2 99.2 C 101.2 99.2 101.25 100.17 101.2 100.2 C 100.9 100.3 100.6 100.3 100.2 100.3 C 99.2 100.3 98.4 99.8 98.4 98.7 Z " stroke="none" fill="#000"/>  </g>  <g id="Polygon8894">    <path d="M 0.4 74 C 0.4 71.2 2 69.1 4.7 69.1 C 6.7 69.1 8.1 70.3 8.4 72.2 C 8.4 72.2 7.3 72.2 7.3 72.2 C 7.1 70.8 6.1 70.1 4.7 70.1 C 2.6 70.1 1.6 71.9 1.6 74 C 1.6 76.2 2.6 77.9 4.7 77.9 C 6.3 77.9 7.3 76.9 7.4 75.5 C 7.4 75.5 8.5 75.5 8.5 75.5 C 8.3 77.6 6.9 78.9 4.7 78.9 C 2 78.9 0.4 76.8 0.4 74 Z M 9.8 65.8 L 10.9 65.8 L 10.9 70.8 C 10.9 70.8 10.98 70.78 11 70.8 C 11.6 69.8 12.6 69.2 14.1 69.2 C 15.8 69.2 17.1 70.2 17.1 72.1 C 17.06 72.05 17.1 78.7 17.1 78.7 L 15.9 78.7 C 15.9 78.7 15.95 72.16 15.9 72.2 C 15.9 70.8 15.1 70.1 13.8 70.1 C 12.2 70.1 10.9 71.2 10.9 72.8 C 10.94 72.76 10.9 78.7 10.9 78.7 L 9.8 78.7 L 9.8 65.8 Z M 18.3 76.3 C 18.3 74.1 20.1 73.6 22.2 73.4 C 24 73.2 24.7 73 24.7 72.1 C 24.7 72.1 24.7 71.9 24.7 71.9 C 24.7 70.7 23.9 70.1 22.4 70.1 C 20.8 70.1 19.9 70.7 19.8 72.1 C 19.8 72.1 18.7 72.1 18.7 72.1 C 18.9 70.3 20.1 69.2 22.4 69.2 C 24.5 69.2 25.7 70 25.7 72 C 25.7 72 25.7 77.1 25.7 77.1 C 25.7 77.7 26 77.9 26.4 77.9 C 26.5 77.9 26.6 77.9 26.8 77.8 C 26.77 77.83 26.8 77.8 26.8 77.8 C 26.8 77.8 26.82 78.64 26.8 78.6 C 26.7 78.7 26.4 78.8 26.1 78.8 C 25.3 78.8 24.7 78.4 24.7 77.5 C 24.7 77.47 24.7 77.3 24.7 77.3 C 24.7 77.3 24.64 77.27 24.6 77.3 C 24.1 78 23.2 78.9 21.4 78.9 C 19.7 78.9 18.3 78 18.3 76.3 Z M 24.7 75.3 C 24.7 75.3 24.7 73.6 24.7 73.6 C 24.1 73.9 23.2 74.1 22.3 74.2 C 20.7 74.4 19.5 74.7 19.5 76.3 C 19.5 77.6 20.5 78 21.6 78 C 23.6 78 24.7 76.6 24.7 75.3 Z M 27.8 69.4 L 29 69.4 L 29 70.8 C 29 70.8 29 70.78 29 70.8 C 29.6 69.8 30.6 69.2 32.1 69.2 C 33.8 69.2 35.1 70.2 35.1 72.1 C 35.08 72.05 35.1 78.7 35.1 78.7 L 34 78.7 C 34 78.7 33.97 72.16 34 72.2 C 34 70.8 33.2 70.1 31.8 70.1 C 30.3 70.1 29 71.2 29 72.8 C 28.96 72.76 29 78.7 29 78.7 L 27.8 78.7 L 27.8 69.4 Z M 36.8 79.5 C 36.8 79.5 37.9 79.5 37.9 79.5 C 38.1 80.6 39.1 81 40.5 81 C 42.5 81 43.4 80 43.4 78.3 C 43.4 78.34 43.4 76.9 43.4 76.9 C 43.4 76.9 43.34 76.86 43.3 76.9 C 42.7 77.9 41.8 78.5 40.4 78.5 C 37.9 78.5 36.4 76.6 36.4 73.8 C 36.4 70.8 38.2 69.2 40.4 69.2 C 41.8 69.2 42.7 69.8 43.3 70.8 C 43.34 70.79 43.4 70.8 43.4 70.8 L 43.4 69.4 L 44.5 69.4 C 44.5 69.4 44.5 78.3 44.5 78.3 C 44.5 79.3 44.2 80.2 43.6 80.8 C 42.9 81.5 41.9 81.9 40.5 81.9 C 38.2 81.9 37 80.9 36.8 79.5 Z M 43.5 73.8 C 43.5 71.6 42.5 70.1 40.5 70.1 C 38.6 70.1 37.5 71.6 37.5 73.9 C 37.5 76 38.5 77.5 40.4 77.5 C 42.5 77.5 43.5 76 43.5 73.8 Z M 45.9 74 C 45.9 71.2 47.6 69.1 50.1 69.1 C 53.1 69.1 54.1 71.6 54.1 74.2 C 54.1 74.2 47 74.2 47 74.2 C 47.1 76.3 48.1 77.9 50.2 77.9 C 51.8 77.9 52.6 77.1 52.9 75.9 C 52.9 75.9 54 75.9 54 75.9 C 53.6 77.7 52.3 78.9 50.2 78.9 C 47.4 78.9 45.9 76.8 45.9 74 Z M 53 73.3 C 52.9 71.5 52 70.1 50.1 70.1 C 48.2 70.1 47.2 71.5 47.1 73.3 C 47.1 73.3 53 73.3 53 73.3 Z M 57.7 74 C 57.7 71.2 59.3 69.1 62 69.1 C 64 69.1 65.4 70.3 65.7 72.2 C 65.7 72.2 64.6 72.2 64.6 72.2 C 64.3 70.8 63.4 70.1 62 70.1 C 59.8 70.1 58.9 71.9 58.9 74 C 58.9 76.2 59.8 77.9 62 77.9 C 63.5 77.9 64.5 76.9 64.7 75.5 C 64.7 75.5 65.8 75.5 65.8 75.5 C 65.6 77.6 64.2 78.9 62 78.9 C 59.2 78.9 57.7 76.8 57.7 74 Z M 74 74 C 74 71.8 73 70.1 70.9 70.1 C 68.8 70.1 67.7 71.8 67.7 74 C 67.7 76.2 68.8 78 70.9 78 C 73 78 74 76.2 74 74 Z M 66.6 74 C 66.6 71.2 68.2 69.1 70.9 69.1 C 73.6 69.1 75.2 71.2 75.2 74 C 75.2 76.8 73.6 78.9 70.9 78.9 C 68.2 78.9 66.6 76.8 66.6 74 Z M 76.6 65.8 L 77.7 65.8 L 77.7 78.7 L 76.6 78.7 L 76.6 65.8 Z M 86.7 74 C 86.7 71.8 85.6 70.1 83.5 70.1 C 81.4 70.1 80.3 71.8 80.3 74 C 80.3 76.2 81.4 78 83.5 78 C 85.6 78 86.7 76.2 86.7 74 Z M 79.2 74 C 79.2 71.2 80.8 69.1 83.5 69.1 C 86.2 69.1 87.8 71.2 87.8 74 C 87.8 76.8 86.2 78.9 83.5 78.9 C 80.8 78.9 79.2 76.8 79.2 74 Z M 89.2 69.4 L 90.3 69.4 L 90.3 71.1 C 90.3 71.1 90.34 71.08 90.3 71.1 C 90.9 70 91.9 69.3 93.2 69.3 C 93.3 69.3 93.4 69.3 93.5 69.3 C 93.5 69.3 93.5 70.4 93.5 70.4 C 92.8 70.3 92.1 70.5 91.5 70.9 C 90.8 71.4 90.3 72.3 90.3 73.4 C 90.3 73.37 90.3 78.7 90.3 78.7 L 89.2 78.7 L 89.2 69.4 Z M 94 75.8 C 94 75.8 95.2 75.8 95.2 75.8 C 95.3 77.3 96.4 78 97.9 78 C 99.5 78 100.3 77.2 100.3 76.2 C 100.3 75.1 99.7 74.8 97.8 74.4 C 95.9 73.9 94.4 73.5 94.4 71.7 C 94.4 70.1 95.7 69.2 97.6 69.2 C 99.8 69.2 100.9 70.3 101.1 71.9 C 101.1 71.9 100 71.9 100 71.9 C 99.8 70.7 99 70.1 97.6 70.1 C 96.2 70.1 95.5 70.8 95.5 71.6 C 95.5 72.7 96.4 72.9 98.2 73.3 C 100 73.7 101.4 74.2 101.4 76.1 C 101.4 77.8 100.1 78.9 97.9 78.9 C 95.4 78.9 94.2 77.6 94 75.8 Z M 104.7 69.4 L 105.9 69.4 C 105.9 69.4 107.49 75.11 107.5 75.1 C 107.75 76.03 108.1 77.5 108.1 77.5 L 108.1 77.5 C 108.1 77.5 108.48 76.05 108.7 75.2 C 108.72 75.2 110.3 69.4 110.3 69.4 L 111.5 69.4 C 111.5 69.4 113.04 75.2 113 75.2 C 113.25 76.05 113.6 77.5 113.6 77.5 L 113.6 77.5 C 113.6 77.5 114.01 76.01 114.3 75.1 C 114.28 75.11 116 69.4 116 69.4 L 117.1 69.4 L 114.2 78.7 L 113 78.7 C 113 78.7 111.38 72.72 111.4 72.7 C 111.15 71.84 110.9 70.6 110.9 70.6 L 110.9 70.6 C 110.9 70.6 110.61 71.84 110.4 72.7 C 110.37 72.72 108.7 78.7 108.7 78.7 L 107.5 78.7 L 104.7 69.4 Z M 118.3 69.4 L 119.4 69.4 L 119.4 78.7 L 118.3 78.7 L 118.3 69.4 Z M 118.3 65.8 L 119.4 65.8 L 119.4 67.4 L 118.3 67.4 L 118.3 65.8 Z M 122.1 77.1 C 122.07 77.06 122.1 70.3 122.1 70.3 L 120.7 70.3 L 120.7 69.4 L 122.1 69.4 L 122.1 66.5 L 123.2 66.5 L 123.2 69.4 L 124.9 69.4 L 124.9 70.3 L 123.2 70.3 C 123.2 70.3 123.19 76.88 123.2 76.9 C 123.2 77.5 123.5 77.8 124.1 77.8 C 124.3 77.8 124.7 77.7 124.8 77.6 C 124.83 77.62 124.9 77.6 124.9 77.6 C 124.9 77.6 124.88 78.57 124.9 78.6 C 124.6 78.7 124.3 78.7 123.9 78.7 C 122.8 78.7 122.1 78.2 122.1 77.1 Z M 126.4 65.8 L 127.5 65.8 L 127.5 70.8 C 127.5 70.8 127.58 70.78 127.6 70.8 C 128.2 69.8 129.2 69.2 130.7 69.2 C 132.4 69.2 133.7 70.2 133.7 72.1 C 133.67 72.05 133.7 78.7 133.7 78.7 L 132.6 78.7 C 132.6 78.7 132.55 72.16 132.6 72.2 C 132.6 70.8 131.7 70.1 130.4 70.1 C 128.8 70.1 127.5 71.2 127.5 72.8 C 127.55 72.76 127.5 78.7 127.5 78.7 L 126.4 78.7 L 126.4 65.8 Z M 142.5 74 C 142.5 71.8 141.4 70.1 139.3 70.1 C 137.2 70.1 136.1 71.8 136.1 74 C 136.1 76.2 137.2 78 139.3 78 C 141.4 78 142.5 76.2 142.5 74 Z M 135 74 C 135 71.2 136.6 69.1 139.3 69.1 C 142 69.1 143.6 71.2 143.6 74 C 143.6 76.8 142 78.9 139.3 78.9 C 136.6 78.9 135 76.8 135 74 Z M 144.9 75.9 C 144.92 75.92 144.9 69.4 144.9 69.4 L 146 69.4 C 146 69.4 146.03 75.85 146 75.9 C 146 77.3 146.9 77.9 148.2 77.9 C 149.8 77.9 150.9 76.8 150.9 75.2 C 150.93 75.17 150.9 69.4 150.9 69.4 L 152 69.4 L 152 78.7 L 150.9 78.7 L 150.9 77.3 C 150.9 77.3 150.89 77.29 150.9 77.3 C 150.2 78.2 149.5 78.9 148 78.9 C 146.2 78.9 144.9 77.8 144.9 75.9 Z M 154.7 77.1 C 154.67 77.06 154.7 70.3 154.7 70.3 L 153.3 70.3 L 153.3 69.4 L 154.7 69.4 L 154.7 66.5 L 155.8 66.5 L 155.8 69.4 L 157.5 69.4 L 157.5 70.3 L 155.8 70.3 C 155.8 70.3 155.79 76.88 155.8 76.9 C 155.8 77.5 156.1 77.8 156.7 77.8 C 156.9 77.8 157.3 77.7 157.4 77.6 C 157.43 77.62 157.5 77.6 157.5 77.6 C 157.5 77.6 157.48 78.57 157.5 78.6 C 157.2 78.7 156.9 78.7 156.5 78.7 C 155.4 78.7 154.7 78.2 154.7 77.1 Z " stroke="none" fill="#000"/>  </g>  <g id="Polygon8893">    <path d="M 0.4 54.7 C 0.4 52.5 2.1 52 4.2 51.8 C 6.1 51.6 6.7 51.4 6.7 50.5 C 6.7 50.5 6.7 50.3 6.7 50.3 C 6.7 49.1 6 48.5 4.5 48.5 C 2.9 48.5 2 49.1 1.9 50.5 C 1.9 50.5 0.8 50.5 0.8 50.5 C 0.9 48.7 2.1 47.6 4.5 47.6 C 6.6 47.6 7.8 48.4 7.8 50.4 C 7.8 50.4 7.8 55.5 7.8 55.5 C 7.8 56.1 8 56.3 8.4 56.3 C 8.5 56.3 8.7 56.3 8.8 56.2 C 8.84 56.23 8.9 56.2 8.9 56.2 C 8.9 56.2 8.89 57.04 8.9 57 C 8.7 57.1 8.5 57.2 8.1 57.2 C 7.3 57.2 6.8 56.8 6.8 55.9 C 6.77 55.87 6.8 55.7 6.8 55.7 C 6.8 55.7 6.71 55.67 6.7 55.7 C 6.2 56.4 5.2 57.3 3.5 57.3 C 1.7 57.3 0.4 56.4 0.4 54.7 Z M 6.8 53.7 C 6.8 53.7 6.8 52 6.8 52 C 6.2 52.3 5.3 52.5 4.4 52.6 C 2.8 52.8 1.6 53.1 1.6 54.7 C 1.6 56 2.6 56.4 3.7 56.4 C 5.7 56.4 6.8 55 6.8 53.7 Z M 10 44.2 L 11.1 44.2 L 11.1 57.1 L 10 57.1 L 10 44.2 Z M 13.1 44.2 L 14.2 44.2 L 14.2 57.1 L 13.1 57.1 L 13.1 44.2 Z M 23.1 52.4 C 23.1 50.2 22 48.5 19.9 48.5 C 17.9 48.5 16.8 50.2 16.8 52.4 C 16.8 54.6 17.9 56.4 19.9 56.4 C 22 56.4 23.1 54.6 23.1 52.4 Z M 15.6 52.4 C 15.6 49.6 17.3 47.5 19.9 47.5 C 22.6 47.5 24.2 49.6 24.2 52.4 C 24.2 55.2 22.6 57.3 19.9 57.3 C 17.3 57.3 15.6 55.2 15.6 52.4 Z M 24.6 47.8 L 25.8 47.8 C 25.8 47.8 27.4 53.51 27.4 53.5 C 27.65 54.43 28 55.9 28 55.9 L 28 55.9 C 28 55.9 28.39 54.45 28.6 53.6 C 28.62 53.6 30.2 47.8 30.2 47.8 L 31.4 47.8 C 31.4 47.8 32.94 53.6 32.9 53.6 C 33.16 54.45 33.5 55.9 33.5 55.9 L 33.5 55.9 C 33.5 55.9 33.91 54.41 34.2 53.5 C 34.18 53.51 35.9 47.8 35.9 47.8 L 37 47.8 L 34.1 57.1 L 32.9 57.1 C 32.9 57.1 31.28 51.12 31.3 51.1 C 31.05 50.24 30.8 49 30.8 49 L 30.8 49 C 30.8 49 30.51 50.24 30.3 51.1 C 30.28 51.12 28.6 57.1 28.6 57.1 L 27.4 57.1 L 24.6 47.8 Z M 37.4 54.2 C 37.4 54.2 38.5 54.2 38.5 54.2 C 38.7 55.7 39.8 56.4 41.3 56.4 C 42.8 56.4 43.6 55.6 43.6 54.6 C 43.6 53.5 43 53.2 41.1 52.8 C 39.2 52.3 37.7 51.9 37.7 50.1 C 37.7 48.5 39.1 47.6 41 47.6 C 43.2 47.6 44.2 48.7 44.4 50.3 C 44.4 50.3 43.3 50.3 43.3 50.3 C 43.2 49.1 42.4 48.5 41 48.5 C 39.5 48.5 38.8 49.2 38.8 50 C 38.8 51.1 39.7 51.3 41.5 51.7 C 43.4 52.1 44.7 52.6 44.7 54.5 C 44.7 56.2 43.4 57.3 41.2 57.3 C 38.8 57.3 37.5 56 37.4 54.2 Z M 48.7 54.3 C 48.73 54.32 48.7 47.8 48.7 47.8 L 49.8 47.8 C 49.8 47.8 49.84 54.25 49.8 54.3 C 49.8 55.7 50.7 56.3 52 56.3 C 53.6 56.3 54.7 55.2 54.7 53.6 C 54.74 53.57 54.7 47.8 54.7 47.8 L 55.8 47.8 L 55.8 57.1 L 54.7 57.1 L 54.7 55.7 C 54.7 55.7 54.7 55.69 54.7 55.7 C 54.1 56.6 53.3 57.3 51.8 57.3 C 50 57.3 48.7 56.2 48.7 54.3 Z M 57.1 54.2 C 57.1 54.2 58.2 54.2 58.2 54.2 C 58.4 55.7 59.5 56.4 61 56.4 C 62.5 56.4 63.3 55.6 63.3 54.6 C 63.3 53.5 62.8 53.2 60.9 52.8 C 59 52.3 57.5 51.9 57.5 50.1 C 57.5 48.5 58.8 47.6 60.7 47.6 C 62.9 47.6 63.9 48.7 64.2 50.3 C 64.2 50.3 63 50.3 63 50.3 C 62.9 49.1 62.1 48.5 60.7 48.5 C 59.3 48.5 58.6 49.2 58.6 50 C 58.6 51.1 59.5 51.3 61.2 51.7 C 63.1 52.1 64.5 52.6 64.5 54.5 C 64.5 56.2 63.1 57.3 61 57.3 C 58.5 57.3 57.2 56 57.1 54.2 Z M 65.4 52.4 C 65.4 49.6 67.1 47.5 69.7 47.5 C 72.7 47.5 73.7 50 73.7 52.6 C 73.7 52.6 66.6 52.6 66.6 52.6 C 66.6 54.7 67.6 56.3 69.8 56.3 C 71.3 56.3 72.1 55.5 72.5 54.3 C 72.5 54.3 73.6 54.3 73.6 54.3 C 73.2 56.1 71.9 57.3 69.8 57.3 C 67 57.3 65.4 55.2 65.4 52.4 Z M 72.5 51.7 C 72.4 49.9 71.6 48.5 69.7 48.5 C 67.8 48.5 66.8 49.9 66.6 51.7 C 66.6 51.7 72.5 51.7 72.5 51.7 Z M 75.1 47.8 L 76.2 47.8 L 76.2 49.5 C 76.2 49.5 76.21 49.48 76.2 49.5 C 76.8 48.4 77.8 47.7 79.1 47.7 C 79.2 47.7 79.3 47.7 79.4 47.7 C 79.4 47.7 79.4 48.8 79.4 48.8 C 78.7 48.7 78 48.9 77.4 49.3 C 76.7 49.8 76.2 50.7 76.2 51.8 C 76.17 51.77 76.2 57.1 76.2 57.1 L 75.1 57.1 L 75.1 47.8 Z M 84.1 55.5 C 84.08 55.46 84.1 48.7 84.1 48.7 L 82.7 48.7 L 82.7 47.8 L 84.1 47.8 L 84.1 44.9 L 85.2 44.9 L 85.2 47.8 L 86.9 47.8 L 86.9 48.7 L 85.2 48.7 C 85.2 48.7 85.19 55.28 85.2 55.3 C 85.2 55.9 85.5 56.2 86.1 56.2 C 86.3 56.2 86.7 56.1 86.8 56 C 86.83 56.02 86.9 56 86.9 56 C 86.9 56 86.88 56.97 86.9 57 C 86.6 57.1 86.3 57.1 85.9 57.1 C 84.8 57.1 84.1 56.6 84.1 55.5 Z M 95.2 52.4 C 95.2 50.2 94.1 48.5 92 48.5 C 89.9 48.5 88.9 50.2 88.9 52.4 C 88.9 54.6 89.9 56.4 92 56.4 C 94.1 56.4 95.2 54.6 95.2 52.4 Z M 87.7 52.4 C 87.7 49.6 89.4 47.5 92 47.5 C 94.7 47.5 96.3 49.6 96.3 52.4 C 96.3 55.2 94.7 57.3 92 57.3 C 89.4 57.3 87.7 55.2 87.7 52.4 Z M 100.4 47.8 L 101.5 47.8 L 101.5 49.5 C 101.5 49.5 101.57 49.48 101.6 49.5 C 102.1 48.4 103.1 47.7 104.4 47.7 C 104.6 47.7 104.7 47.7 104.7 47.7 C 104.7 47.7 104.7 48.8 104.7 48.8 C 104.1 48.7 103.3 48.9 102.7 49.3 C 102 49.8 101.5 50.7 101.5 51.8 C 101.54 51.77 101.5 57.1 101.5 57.1 L 100.4 57.1 L 100.4 47.8 Z M 105 52.4 C 105 49.6 106.7 47.5 109.3 47.5 C 112.3 47.5 113.3 50 113.3 52.6 C 113.3 52.6 106.2 52.6 106.2 52.6 C 106.2 54.7 107.2 56.3 109.4 56.3 C 110.9 56.3 111.7 55.5 112.1 54.3 C 112.1 54.3 113.2 54.3 113.2 54.3 C 112.8 56.1 111.5 57.3 109.4 57.3 C 106.6 57.3 105 55.2 105 52.4 Z M 112.1 51.7 C 112 49.9 111.2 48.5 109.3 48.5 C 107.4 48.5 106.4 49.9 106.2 51.7 C 106.2 51.7 112.1 51.7 112.1 51.7 Z M 114.7 44.2 L 115.8 44.2 L 115.8 57.1 L 114.7 57.1 L 114.7 44.2 Z M 124.7 52.4 C 124.7 50.2 123.7 48.5 121.6 48.5 C 119.5 48.5 118.4 50.2 118.4 52.4 C 118.4 54.6 119.5 56.4 121.6 56.4 C 123.7 56.4 124.7 54.6 124.7 52.4 Z M 117.3 52.4 C 117.3 49.6 118.9 47.5 121.6 47.5 C 124.3 47.5 125.9 49.6 125.9 52.4 C 125.9 55.2 124.3 57.3 121.6 57.3 C 118.9 57.3 117.3 55.2 117.3 52.4 Z M 126.7 54.7 C 126.7 52.5 128.4 52 130.5 51.8 C 132.3 51.6 133 51.4 133 50.5 C 133 50.5 133 50.3 133 50.3 C 133 49.1 132.2 48.5 130.8 48.5 C 129.1 48.5 128.2 49.1 128.2 50.5 C 128.2 50.5 127.1 50.5 127.1 50.5 C 127.2 48.7 128.4 47.6 130.8 47.6 C 132.8 47.6 134.1 48.4 134.1 50.4 C 134.1 50.4 134.1 55.5 134.1 55.5 C 134.1 56.1 134.3 56.3 134.7 56.3 C 134.8 56.3 134.9 56.3 135.1 56.2 C 135.09 56.23 135.1 56.2 135.1 56.2 C 135.1 56.2 135.14 57.04 135.1 57 C 135 57.1 134.7 57.2 134.4 57.2 C 133.6 57.2 133.1 56.8 133 55.9 C 133.02 55.87 133 55.7 133 55.7 C 133 55.7 132.96 55.67 133 55.7 C 132.4 56.4 131.5 57.3 129.7 57.3 C 128 57.3 126.7 56.4 126.7 54.7 Z M 133 53.7 C 133 53.7 133 52 133 52 C 132.4 52.3 131.5 52.5 130.6 52.6 C 129 52.8 127.8 53.1 127.8 54.7 C 127.8 56 128.8 56.4 129.9 56.4 C 131.9 56.4 133 55 133 53.7 Z M 135.6 52.4 C 135.6 49.3 137.4 47.6 139.6 47.6 C 141 47.6 142 48.2 142.6 49.3 C 142.63 49.3 142.7 49.3 142.7 49.3 L 142.7 44.2 L 143.8 44.2 L 143.8 57.1 L 142.7 57.1 L 142.7 55.7 C 142.7 55.7 142.63 55.67 142.6 55.7 C 141.9 56.7 141 57.3 139.6 57.3 C 137.1 57.3 135.6 55.3 135.6 52.4 Z M 142.8 52.5 C 142.8 50.2 141.7 48.5 139.6 48.5 C 137.8 48.5 136.7 50.1 136.7 52.5 C 136.7 54.6 137.7 56.4 139.6 56.4 C 141.7 56.4 142.8 54.8 142.8 52.5 Z M 155.3 52.4 C 155.3 50.2 154.3 48.5 152.2 48.5 C 150.1 48.5 149 50.2 149 52.4 C 149 54.6 150.1 56.4 152.2 56.4 C 154.3 56.4 155.3 54.6 155.3 52.4 Z M 147.9 52.4 C 147.9 49.6 149.5 47.5 152.2 47.5 C 154.9 47.5 156.5 49.6 156.5 52.4 C 156.5 55.2 154.9 57.3 152.2 57.3 C 149.5 57.3 147.9 55.2 147.9 52.4 Z M 157.9 47.8 L 159 47.8 L 159 49.5 C 159 49.5 159.03 49.48 159 49.5 C 159.6 48.4 160.6 47.7 161.9 47.7 C 162 47.7 162.1 47.7 162.2 47.7 C 162.2 47.7 162.2 48.8 162.2 48.8 C 161.5 48.7 160.8 48.9 160.2 49.3 C 159.5 49.8 159 50.7 159 51.8 C 158.99 51.77 159 57.1 159 57.1 L 157.9 57.1 L 157.9 47.8 Z " stroke="none" fill="#000"/>  </g>  <g id="Polygon8892">    <path d="M 1.7 33.9 C 1.71 33.86 1.7 27.1 1.7 27.1 L 0.3 27.1 L 0.3 26.2 L 1.7 26.2 L 1.7 23.3 L 2.8 23.3 L 2.8 26.2 L 4.6 26.2 L 4.6 27.1 L 2.8 27.1 C 2.8 27.1 2.83 33.68 2.8 33.7 C 2.8 34.3 3.1 34.6 3.7 34.6 C 4 34.6 4.3 34.5 4.5 34.4 C 4.46 34.42 4.5 34.4 4.5 34.4 C 4.5 34.4 4.52 35.37 4.5 35.4 C 4.2 35.5 3.9 35.5 3.5 35.5 C 2.4 35.5 1.7 35 1.7 33.9 Z M 12.8 30.8 C 12.8 28.6 11.7 26.9 9.7 26.9 C 7.6 26.9 6.5 28.6 6.5 30.8 C 6.5 33 7.6 34.8 9.7 34.8 C 11.7 34.8 12.8 33 12.8 30.8 Z M 5.3 30.8 C 5.3 28 7 25.9 9.7 25.9 C 12.3 25.9 14 28 14 30.8 C 14 33.6 12.3 35.7 9.7 35.7 C 7 35.7 5.3 33.6 5.3 30.8 Z M 17.4 30.5 L 14.3 26.2 L 15.6 26.2 L 18 29.7 L 18.1 29.7 L 20.5 26.2 L 21.8 26.2 L 18.7 30.5 L 22.3 35.5 L 21 35.5 L 18.1 31.3 L 18.1 31.3 L 15.2 35.5 L 13.9 35.5 L 17.4 30.5 Z M 23.4 26.2 L 24.5 26.2 L 24.5 35.5 L 23.4 35.5 L 23.4 26.2 Z M 23.4 22.6 L 24.5 22.6 L 24.5 24.2 L 23.4 24.2 L 23.4 22.6 Z M 25.9 30.8 C 25.9 28 27.5 25.9 30.2 25.9 C 32.2 25.9 33.6 27.1 33.9 29 C 33.9 29 32.8 29 32.8 29 C 32.5 27.6 31.6 26.9 30.2 26.9 C 28 26.9 27.1 28.7 27.1 30.8 C 27.1 33 28.1 34.7 30.2 34.7 C 31.8 34.7 32.7 33.7 32.9 32.3 C 32.9 32.3 34 32.3 34 32.3 C 33.8 34.4 32.4 35.7 30.2 35.7 C 27.4 35.7 25.9 33.6 25.9 30.8 Z M 35.1 36.8 C 35.4 36.6 35.7 36.4 35.7 35.5 C 35.69 35.53 35.7 35.5 35.7 35.5 L 35.1 35.5 L 35.1 33.9 L 36.4 33.9 C 36.4 33.9 36.45 35.51 36.4 35.5 C 36.4 36.7 35.9 37.2 35.1 37.4 C 35.1 37.4 35.1 36.8 35.1 36.8 Z M 40.1 26.2 L 41.3 26.2 C 41.3 26.2 42.88 31.91 42.9 31.9 C 43.13 32.83 43.5 34.3 43.5 34.3 L 43.5 34.3 C 43.5 34.3 43.87 32.85 44.1 32 C 44.1 32 45.7 26.2 45.7 26.2 L 46.9 26.2 C 46.9 26.2 48.42 32 48.4 32 C 48.64 32.85 49 34.3 49 34.3 L 49 34.3 C 49 34.3 49.39 32.81 49.7 31.9 C 49.66 31.91 51.4 26.2 51.4 26.2 L 52.5 26.2 L 49.6 35.5 L 48.4 35.5 C 48.4 35.5 46.76 29.52 46.8 29.5 C 46.53 28.64 46.3 27.4 46.3 27.4 L 46.2 27.4 C 46.2 27.4 45.99 28.64 45.8 29.5 C 45.76 29.52 44.1 35.5 44.1 35.5 L 42.9 35.5 L 40.1 26.2 Z M 52.8 33.1 C 52.8 30.9 54.5 30.4 56.6 30.2 C 58.4 30 59.1 29.8 59.1 28.9 C 59.1 28.9 59.1 28.7 59.1 28.7 C 59.1 27.5 58.3 26.9 56.9 26.9 C 55.2 26.9 54.3 27.5 54.3 28.9 C 54.3 28.9 53.2 28.9 53.2 28.9 C 53.3 27.1 54.5 26 56.9 26 C 58.9 26 60.2 26.8 60.2 28.8 C 60.2 28.8 60.2 33.9 60.2 33.9 C 60.2 34.5 60.4 34.7 60.8 34.7 C 60.9 34.7 61 34.7 61.2 34.6 C 61.18 34.63 61.2 34.6 61.2 34.6 C 61.2 34.6 61.24 35.44 61.2 35.4 C 61.1 35.5 60.8 35.6 60.5 35.6 C 59.7 35.6 59.2 35.2 59.1 34.3 C 59.11 34.27 59.1 34.1 59.1 34.1 C 59.1 34.1 59.06 34.07 59.1 34.1 C 58.5 34.8 57.6 35.7 55.8 35.7 C 54.1 35.7 52.8 34.8 52.8 33.1 Z M 59.1 32.1 C 59.1 32.1 59.1 30.4 59.1 30.4 C 58.5 30.7 57.6 30.9 56.7 31 C 55.1 31.2 53.9 31.5 53.9 33.1 C 53.9 34.4 54.9 34.8 56 34.8 C 58 34.8 59.1 33.4 59.1 32.1 Z M 61.6 32.6 C 61.6 32.6 62.7 32.6 62.7 32.6 C 62.9 34.1 64 34.8 65.4 34.8 C 67 34.8 67.8 34 67.8 33 C 67.8 31.9 67.2 31.6 65.3 31.2 C 63.4 30.7 61.9 30.3 61.9 28.5 C 61.9 26.9 63.3 26 65.2 26 C 67.4 26 68.4 27.1 68.6 28.7 C 68.6 28.7 67.5 28.7 67.5 28.7 C 67.4 27.5 66.5 26.9 65.2 26.9 C 63.7 26.9 63 27.6 63 28.4 C 63 29.5 63.9 29.7 65.7 30.1 C 67.6 30.5 68.9 31 68.9 32.9 C 68.9 34.6 67.6 35.7 65.4 35.7 C 62.9 35.7 61.7 34.4 61.6 32.6 Z M 70.3 22.6 L 71.5 22.6 L 71.5 27.6 C 71.5 27.6 71.5 27.58 71.5 27.6 C 72.1 26.6 73.1 26 74.6 26 C 76.3 26 77.6 27 77.6 28.9 C 77.58 28.85 77.6 35.5 77.6 35.5 L 76.5 35.5 C 76.5 35.5 76.46 28.96 76.5 29 C 76.5 27.6 75.7 26.9 74.3 26.9 C 72.8 26.9 71.5 28 71.5 29.6 C 71.46 29.56 71.5 35.5 71.5 35.5 L 70.3 35.5 L 70.3 22.6 Z M 78.9 33.1 C 78.9 30.9 80.6 30.4 82.7 30.2 C 84.5 30 85.2 29.8 85.2 28.9 C 85.2 28.9 85.2 28.7 85.2 28.7 C 85.2 27.5 84.4 26.9 83 26.9 C 81.3 26.9 80.4 27.5 80.4 28.9 C 80.4 28.9 79.3 28.9 79.3 28.9 C 79.4 27.1 80.6 26 83 26 C 85 26 86.3 26.8 86.3 28.8 C 86.3 28.8 86.3 33.9 86.3 33.9 C 86.3 34.5 86.5 34.7 86.9 34.7 C 87 34.7 87.1 34.7 87.3 34.6 C 87.28 34.63 87.3 34.6 87.3 34.6 C 87.3 34.6 87.34 35.44 87.3 35.4 C 87.2 35.5 86.9 35.6 86.6 35.6 C 85.8 35.6 85.3 35.2 85.2 34.3 C 85.21 34.27 85.2 34.1 85.2 34.1 C 85.2 34.1 85.16 34.07 85.2 34.1 C 84.6 34.8 83.7 35.7 81.9 35.7 C 80.2 35.7 78.9 34.8 78.9 33.1 Z M 85.2 32.1 C 85.2 32.1 85.2 30.4 85.2 30.4 C 84.6 30.7 83.7 30.9 82.8 31 C 81.2 31.2 80 31.5 80 33.1 C 80 34.4 81 34.8 82.1 34.8 C 84.1 34.8 85.2 33.4 85.2 32.1 Z M 89.5 34.1 C 89.51 34.06 89.5 34.1 89.5 34.1 L 89.5 35.5 L 88.4 35.5 L 88.4 22.6 L 89.5 22.6 L 89.5 27.8 C 89.5 27.8 89.51 27.76 89.5 27.8 C 90.2 26.7 91.2 26 92.7 26 C 94.9 26 96.5 27.7 96.5 30.8 C 96.5 33.7 95 35.7 92.6 35.7 C 91.2 35.7 90.2 35.2 89.5 34.1 Z M 95.4 30.9 C 95.4 28.5 94.4 26.9 92.5 26.9 C 90.5 26.9 89.4 28.6 89.4 30.9 C 89.4 33.2 90.5 34.8 92.5 34.8 C 94.4 34.8 95.4 33 95.4 30.9 Z M 98 22.6 L 99.1 22.6 L 99.1 35.5 L 98 35.5 L 98 22.6 Z M 100.5 30.8 C 100.5 28 102.2 25.9 104.8 25.9 C 107.7 25.9 108.8 28.4 108.8 31 C 108.8 31 101.7 31 101.7 31 C 101.7 33.1 102.7 34.7 104.8 34.7 C 106.4 34.7 107.2 33.9 107.6 32.7 C 107.6 32.7 108.6 32.7 108.6 32.7 C 108.3 34.5 106.9 35.7 104.8 35.7 C 102.1 35.7 100.5 33.6 100.5 30.8 Z M 107.6 30.1 C 107.5 28.3 106.7 26.9 104.8 26.9 C 102.9 26.9 101.9 28.3 101.7 30.1 C 101.7 30.1 107.6 30.1 107.6 30.1 Z M 112.8 26.2 L 114 26.2 L 114 27.8 C 114 27.8 113.99 27.76 114 27.8 C 114.6 26.7 115.7 26 117.1 26 C 119.4 26 121 27.7 121 30.8 C 121 33.7 119.5 35.7 117.1 35.7 C 115.6 35.7 114.7 35.1 114 34.1 C 113.99 34.11 114 34.1 114 34.1 L 114 38.4 L 112.8 38.4 L 112.8 26.2 Z M 119.9 30.8 C 119.9 28.5 118.9 26.9 117 26.9 C 114.9 26.9 113.9 28.6 113.9 30.9 C 113.9 33.1 114.9 34.8 117 34.8 C 118.9 34.8 119.9 33 119.9 30.8 Z M 121.8 33.1 C 121.8 30.9 123.5 30.4 125.6 30.2 C 127.4 30 128.1 29.8 128.1 28.9 C 128.1 28.9 128.1 28.7 128.1 28.7 C 128.1 27.5 127.3 26.9 125.9 26.9 C 124.2 26.9 123.4 27.5 123.3 28.9 C 123.3 28.9 122.2 28.9 122.2 28.9 C 122.3 27.1 123.5 26 125.9 26 C 127.9 26 129.2 26.8 129.2 28.8 C 129.2 28.8 129.2 33.9 129.2 33.9 C 129.2 34.5 129.4 34.7 129.8 34.7 C 129.9 34.7 130 34.7 130.2 34.6 C 130.19 34.63 130.2 34.6 130.2 34.6 C 130.2 34.6 130.25 35.44 130.2 35.4 C 130.1 35.5 129.9 35.6 129.5 35.6 C 128.7 35.6 128.2 35.2 128.1 34.3 C 128.12 34.27 128.1 34.1 128.1 34.1 C 128.1 34.1 128.07 34.07 128.1 34.1 C 127.5 34.8 126.6 35.7 124.8 35.7 C 123.1 35.7 121.8 34.8 121.8 33.1 Z M 128.1 32.1 C 128.1 32.1 128.1 30.4 128.1 30.4 C 127.5 30.7 126.6 30.9 125.7 31 C 124.1 31.2 122.9 31.5 122.9 33.1 C 122.9 34.4 123.9 34.8 125 34.8 C 127 34.8 128.1 33.4 128.1 32.1 Z M 131.3 26.2 L 132.4 26.2 L 132.4 35.5 L 131.3 35.5 L 131.3 26.2 Z M 131.3 22.6 L 132.4 22.6 L 132.4 24.2 L 131.3 24.2 L 131.3 22.6 Z M 134.3 26.2 L 135.4 26.2 L 135.4 27.6 C 135.4 27.6 135.47 27.58 135.5 27.6 C 136.1 26.6 137.1 26 138.6 26 C 140.3 26 141.6 27 141.6 28.9 C 141.55 28.85 141.6 35.5 141.6 35.5 L 140.4 35.5 C 140.4 35.5 140.43 28.96 140.4 29 C 140.4 27.6 139.6 26.9 138.3 26.9 C 136.7 26.9 135.4 28 135.4 29.6 C 135.43 29.56 135.4 35.5 135.4 35.5 L 134.3 35.5 L 134.3 26.2 Z M 143.9 33.9 C 143.94 33.86 143.9 27.1 143.9 27.1 L 142.5 27.1 L 142.5 26.2 L 143.9 26.2 L 143.9 23.3 L 145.1 23.3 L 145.1 26.2 L 146.8 26.2 L 146.8 27.1 L 145.1 27.1 C 145.1 27.1 145.06 33.68 145.1 33.7 C 145.1 34.3 145.4 34.6 146 34.6 C 146.2 34.6 146.5 34.5 146.7 34.4 C 146.7 34.42 146.8 34.4 146.8 34.4 C 146.8 34.4 146.75 35.37 146.8 35.4 C 146.4 35.5 146.1 35.5 145.7 35.5 C 144.7 35.5 143.9 35 143.9 33.9 Z " stroke="none" fill="#000"/>  </g>  <g id="Polygon8891">    <path d="M 1.2 1 L 2.4 1 L 2.4 13.9 L 1.2 13.9 L 1.2 1 Z M 4.6 4.6 L 5.7 4.6 L 5.7 6 C 5.7 6 5.72 5.98 5.7 6 C 6.4 5 7.4 4.4 8.8 4.4 C 10.6 4.4 11.8 5.4 11.8 7.3 C 11.81 7.25 11.8 13.9 11.8 13.9 L 10.7 13.9 C 10.7 13.9 10.69 7.36 10.7 7.4 C 10.7 6 9.9 5.3 8.6 5.3 C 7 5.3 5.7 6.4 5.7 8 C 5.69 7.96 5.7 13.9 5.7 13.9 L 4.6 13.9 L 4.6 4.6 Z M 13.1 9.2 C 13.1 6.1 14.9 4.4 17.1 4.4 C 18.5 4.4 19.6 5 20.2 6.1 C 20.16 6.1 20.2 6.1 20.2 6.1 L 20.2 1 L 21.3 1 L 21.3 13.9 L 20.2 13.9 L 20.2 12.5 C 20.2 12.5 20.16 12.47 20.2 12.5 C 19.5 13.5 18.5 14.1 17.1 14.1 C 14.6 14.1 13.1 12.1 13.1 9.2 Z M 20.3 9.3 C 20.3 7 19.2 5.3 17.2 5.3 C 15.3 5.3 14.3 6.9 14.3 9.3 C 14.3 11.4 15.2 13.2 17.2 13.2 C 19.2 13.2 20.3 11.6 20.3 9.3 Z M 23.1 11.1 C 23.11 11.12 23.1 4.6 23.1 4.6 L 24.2 4.6 C 24.2 4.6 24.23 11.05 24.2 11.1 C 24.2 12.5 25.1 13.1 26.4 13.1 C 28 13.1 29.1 12 29.1 10.4 C 29.12 10.37 29.1 4.6 29.1 4.6 L 30.2 4.6 L 30.2 13.9 L 29.1 13.9 L 29.1 12.5 C 29.1 12.5 29.09 12.49 29.1 12.5 C 28.4 13.4 27.6 14.1 26.2 14.1 C 24.4 14.1 23.1 13 23.1 11.1 Z M 31.3 4.6 L 32.5 4.6 C 32.5 4.6 34.45 10.46 34.5 10.5 C 34.76 11.36 35.2 12.8 35.2 12.8 L 35.2 12.8 C 35.2 12.8 35.71 11.36 36 10.5 C 36.02 10.46 38.1 4.6 38.1 4.6 L 39.2 4.6 L 35.9 13.9 L 34.6 13.9 L 31.3 4.6 Z M 40.3 4.6 L 41.5 4.6 L 41.5 13.9 L 40.3 13.9 L 40.3 4.6 Z M 40.3 1 L 41.5 1 L 41.5 2.6 L 40.3 2.6 L 40.3 1 Z M 42.9 9.2 C 42.9 6.1 44.6 4.4 46.8 4.4 C 48.3 4.4 49.3 5 49.9 6.1 C 49.9 6.1 49.9 6.1 49.9 6.1 L 49.9 1 L 51 1 L 51 13.9 L 49.9 13.9 L 49.9 12.5 C 49.9 12.5 49.9 12.47 49.9 12.5 C 49.2 13.5 48.3 14.1 46.9 14.1 C 44.4 14.1 42.9 12.1 42.9 9.2 Z M 50 9.3 C 50 7 48.9 5.3 46.9 5.3 C 45.1 5.3 44 6.9 44 9.3 C 44 11.4 44.9 13.2 46.9 13.2 C 48.9 13.2 50 11.6 50 9.3 Z M 52.8 11.1 C 52.85 11.12 52.8 4.6 52.8 4.6 L 54 4.6 C 54 4.6 53.96 11.05 54 11.1 C 54 12.5 54.8 13.1 56.2 13.1 C 57.7 13.1 58.9 12 58.9 10.4 C 58.86 10.37 58.9 4.6 58.9 4.6 L 60 4.6 L 60 13.9 L 58.9 13.9 L 58.9 12.5 C 58.9 12.5 58.82 12.49 58.8 12.5 C 58.2 13.4 57.4 14.1 55.9 14.1 C 54.1 14.1 52.8 13 52.8 11.1 Z M 61.3 11.5 C 61.3 9.3 63 8.8 65.1 8.6 C 67 8.4 67.6 8.2 67.6 7.3 C 67.6 7.3 67.6 7.1 67.6 7.1 C 67.6 5.9 66.9 5.3 65.4 5.3 C 63.8 5.3 62.9 5.9 62.8 7.3 C 62.8 7.3 61.7 7.3 61.7 7.3 C 61.8 5.5 63 4.4 65.4 4.4 C 67.4 4.4 68.7 5.2 68.7 7.2 C 68.7 7.2 68.7 12.3 68.7 12.3 C 68.7 12.9 68.9 13.1 69.3 13.1 C 69.4 13.1 69.6 13.1 69.7 13 C 69.73 13.03 69.8 13 69.8 13 C 69.8 13 69.79 13.84 69.8 13.8 C 69.6 13.9 69.4 14 69 14 C 68.2 14 67.7 13.6 67.7 12.7 C 67.66 12.67 67.7 12.5 67.7 12.5 C 67.7 12.5 67.61 12.47 67.6 12.5 C 67.1 13.2 66.1 14.1 64.3 14.1 C 62.6 14.1 61.3 13.2 61.3 11.5 Z M 67.7 10.5 C 67.7 10.5 67.7 8.8 67.7 8.8 C 67.1 9.1 66.1 9.3 65.2 9.4 C 63.7 9.6 62.5 9.9 62.5 11.5 C 62.5 12.8 63.4 13.2 64.5 13.2 C 66.6 13.2 67.7 11.8 67.7 10.5 Z M 70.9 1 L 72 1 L 72 13.9 L 70.9 13.9 L 70.9 1 Z M 76.6 4.6 L 77.7 4.6 L 77.7 6.2 C 77.7 6.2 77.76 6.16 77.8 6.2 C 78.4 5.1 79.4 4.4 80.9 4.4 C 83.1 4.4 84.8 6.1 84.8 9.2 C 84.8 12.1 83.3 14.1 80.8 14.1 C 79.4 14.1 78.5 13.5 77.8 12.5 C 77.76 12.51 77.7 12.5 77.7 12.5 L 77.7 16.8 L 76.6 16.8 L 76.6 4.6 Z M 83.6 9.2 C 83.6 6.9 82.6 5.3 80.8 5.3 C 78.7 5.3 77.6 7 77.6 9.3 C 77.6 11.5 78.7 13.2 80.8 13.2 C 82.7 13.2 83.6 11.4 83.6 9.2 Z M 93.1 9.2 C 93.1 7 92.1 5.3 90 5.3 C 87.9 5.3 86.8 7 86.8 9.2 C 86.8 11.4 87.9 13.2 90 13.2 C 92.1 13.2 93.1 11.4 93.1 9.2 Z M 85.7 9.2 C 85.7 6.4 87.3 4.3 90 4.3 C 92.7 4.3 94.3 6.4 94.3 9.2 C 94.3 12 92.7 14.1 90 14.1 C 87.3 14.1 85.7 12 85.7 9.2 Z M 95.2 9.2 C 95.2 6.1 96.9 4.4 99.2 4.4 C 100.6 4.4 101.6 5 102.2 6.1 C 102.22 6.1 102.3 6.1 102.3 6.1 L 102.3 1 L 103.4 1 L 103.4 13.9 L 102.3 13.9 L 102.3 12.5 C 102.3 12.5 102.22 12.47 102.2 12.5 C 101.5 13.5 100.6 14.1 99.2 14.1 C 96.7 14.1 95.2 12.1 95.2 9.2 Z M 102.3 9.3 C 102.3 7 101.2 5.3 99.2 5.3 C 97.4 5.3 96.3 6.9 96.3 9.3 C 96.3 11.4 97.3 13.2 99.2 13.2 C 101.3 13.2 102.3 11.6 102.3 9.3 Z M 104.7 11 C 104.7 11 105.8 11 105.8 11 C 105.9 12.5 107 13.2 108.5 13.2 C 110.1 13.2 110.9 12.4 110.9 11.4 C 110.9 10.3 110.3 10 108.4 9.6 C 106.5 9.1 105 8.7 105 6.9 C 105 5.3 106.3 4.4 108.2 4.4 C 110.4 4.4 111.5 5.5 111.7 7.1 C 111.7 7.1 110.6 7.1 110.6 7.1 C 110.4 5.9 109.6 5.3 108.2 5.3 C 106.8 5.3 106.1 6 106.1 6.8 C 106.1 7.9 107 8.1 108.8 8.5 C 110.6 8.9 112 9.4 112 11.3 C 112 13 110.7 14.1 108.5 14.1 C 106 14.1 104.8 12.8 104.7 11 Z M 123 9.2 C 123 7 122 5.3 119.9 5.3 C 117.8 5.3 116.7 7 116.7 9.2 C 116.7 11.4 117.8 13.2 119.9 13.2 C 122 13.2 123 11.4 123 9.2 Z M 115.6 9.2 C 115.6 6.4 117.2 4.3 119.9 4.3 C 122.6 4.3 124.2 6.4 124.2 9.2 C 124.2 12 122.6 14.1 119.9 14.1 C 117.2 14.1 115.6 12 115.6 9.2 Z M 126 5.5 L 124.7 5.5 L 124.7 4.6 L 126 4.6 C 126 4.6 126.02 2.9 126 2.9 C 126 1.5 126.8 0.9 128.2 0.9 C 128.3 0.9 128.8 0.9 128.8 0.9 C 128.82 0.92 128.8 1.9 128.8 1.9 C 128.8 1.9 128.34 1.87 128.3 1.9 C 127.4 1.9 127.1 2.2 127.1 2.9 C 127.11 2.93 127.1 4.6 127.1 4.6 L 128.8 4.6 L 128.8 5.5 L 127.1 5.5 L 127.1 13.9 L 126 13.9 L 126 5.5 Z M 132.9 4.6 L 134 4.6 L 134 6 C 134 6 134.01 5.98 134 6 C 134.6 5 135.6 4.4 137.1 4.4 C 138.9 4.4 140.1 5.4 140.1 7.3 C 140.09 7.25 140.1 13.9 140.1 13.9 L 139 13.9 C 139 13.9 138.98 7.36 139 7.4 C 139 6 138.2 5.3 136.9 5.3 C 135.3 5.3 134 6.4 134 8 C 133.97 7.96 134 13.9 134 13.9 L 132.9 13.9 L 132.9 4.6 Z M 148.9 9.2 C 148.9 7 147.8 5.3 145.7 5.3 C 143.6 5.3 142.6 7 142.6 9.2 C 142.6 11.4 143.6 13.2 145.7 13.2 C 147.8 13.2 148.9 11.4 148.9 9.2 Z M 141.4 9.2 C 141.4 6.4 143 4.3 145.7 4.3 C 148.4 4.3 150 6.4 150 9.2 C 150 12 148.4 14.1 145.7 14.1 C 143 14.1 141.4 12 141.4 9.2 Z M 151.4 4.6 L 152.5 4.6 L 152.5 6 C 152.5 6 152.57 5.98 152.6 6 C 153.2 5 154.2 4.4 155.7 4.4 C 157.4 4.4 158.7 5.4 158.7 7.3 C 158.65 7.25 158.7 13.9 158.7 13.9 L 157.5 13.9 C 157.5 13.9 157.53 7.36 157.5 7.4 C 157.5 6 156.7 5.3 155.4 5.3 C 153.8 5.3 152.5 6.4 152.5 8 C 152.53 7.96 152.5 13.9 152.5 13.9 L 151.4 13.9 L 151.4 4.6 Z M 160.1 8.3 L 164.8 8.3 L 164.8 9.3 L 160.1 9.3 L 160.1 8.3 Z " stroke="none" fill="#000"/>  </g></svg>