<?xml version="1.0" encoding="utf-8"?>
<!-- Generator: Adobe Illustrator 25.2.3, SVG Export Plug-In . SVG Version: 6.00 Build 0)  -->
<svg version="1.1"
	 id="Layer_1" xmlns:cc="http://creativecommons.org/ns#" xmlns:dc="http://purl.org/dc/elements/1.1/" xmlns:inkscape="http://www.inkscape.org/namespaces/inkscape" xmlns:rdf="http://www.w3.org/1999/02/22-rdf-syntax-ns#" xmlns:sodipodi="http://sodipodi.sourceforge.net/DTD/sodipodi-0.dtd" xmlns:svg="http://www.w3.org/2000/svg"
	 xmlns="http://www.w3.org/2000/svg" xmlns:xlink="http://www.w3.org/1999/xlink" x="0px" y="0px" viewBox="0 0 100 125"
	 style="enable-background:new 0 0 100 125;" xml:space="preserve">
<style type="text/css">
	.st0{fill:#C50000;}
</style>
<g transform="translate(0,-952.36218)">
	<path class="st0" d="M22,955.4c-3.8,0-7,3.2-7,7v80c0,3.8,3.2,7,7,7h56c3.8,0,7-3.2,7-7v-80c0-3.8-3.2-7-7-7L22,955.4z M22,961.4
		h56c0.6,0,1,0.4,1,1v80c0,0.6-0.4,1-1,1H22c-0.6,0-1-0.4-1-1v-80C21,961.8,21.4,961.4,22,961.4L22,961.4z M44,971.3
		c-0.1,0-0.2,0-0.3,0c-0.8,0.1-1.5,0.5-2,1.1l-7.9,9.5l-3.7-3.7c-1.1-1.2-3.2-1.3-4.4-0.2s-1.1,3.3,0.1,4.4l6,6
		c1.2,1.2,3.4,1.1,4.4-0.2l10-12c0.8-0.9,0.9-2.2,0.5-3.2C46.3,972,45.2,971.3,44,971.3L44,971.3z M50,980.4c-1.7,0-3,1.3-3,3
		c0,1.7,1.3,3,3,3h22c1.7,0,3-1.3,3-3c0-1.7-1.3-3-3-3H50z M44,993.3c-0.1,0-0.2,0-0.3,0c-0.8,0.1-1.5,0.5-2,1.1l-7.9,9.5l-3.7-3.7
		c-1.1-1.2-3.2-1.3-4.4-0.2c-1.2,1.2-1.1,3.3,0.1,4.4l6,6c1.2,1.2,3.4,1.1,4.4-0.2l10-12c0.8-0.9,0.9-2.2,0.5-3.2
		C46.3,994,45.2,993.3,44,993.3L44,993.3z M50,1002.4c-1.7,0-3,1.3-3,3c0,1.7,1.3,3,3,3h22c1.7,0,3-1.3,3-3c0-1.7-1.3-3-3-3H50z
		 M44,1015.3c-0.1,0-0.2,0-0.3,0c-0.8,0.1-1.5,0.5-2,1.1l-7.9,9.5l-3.7-3.7c-1.1-1.2-3.2-1.3-4.4-0.2c-1.2,1.2-1.1,3.3,0.1,4.4l6,6
		c1.2,1.2,3.4,1.1,4.4-0.2l10-12c0.8-0.9,0.9-2.2,0.5-3.2C46.3,1016,45.2,1015.3,44,1015.3L44,1015.3z M50,1024.4c-1.7,0-3,1.3-3,3
		s1.3,3,3,3h22c1.7,0,3-1.3,3-3s-1.3-3-3-3H50z"/>
</g>
</svg>
